<?xml version="1.0" encoding="UTF-8"?>
<svg width="227px" height="84px" viewBox="0 0 227 84" version="1.1" xmlns="http://www.w3.org/2000/svg" xmlns:xlink="http://www.w3.org/1999/xlink">
    <!-- Generator: Sketch 43.1 (39012) - http://www.bohemiancoding.com/sketch -->
    <title>Artboard</title>
    <desc>Created with Sketch.</desc>
    <defs>
        <radialGradient cx="50.8313239%" cy="50%" fx="50.8313239%" fy="50%" r="100%" gradientTransform="translate(0.508313,0.500000),scale(0.370044,1.000000),rotate(90.000000),translate(-0.508313,-0.500000)" id="radialGradient-1">
            <stop stop-color="#FFFFFF" offset="0%"></stop>
            <stop stop-color="#F2F2F2" offset="100%"></stop>
        </radialGradient>
        <linearGradient x1="0%" y1="49.9993315%" x2="100%" y2="49.9993315%" id="linearGradient-2">
            <stop stop-color="#FF593D" offset="0%"></stop>
            <stop stop-color="#FF7751" offset="100%"></stop>
        </linearGradient>
    </defs>
    <g id="Page-1" stroke="none" stroke-width="1" fill="none" fill-rule="evenodd">
        <g id="Artboard">
            <rect id="Rectangle" fill="url(#radialGradient-1)" x="0" y="0" width="227" height="84"></rect>
            <g id="1559658323-colorfulllogoalt" transform="translate(98.000000, 37.000000)" fill-rule="nonzero">
                <path d="M5.25952511,0.0667236842 L0,0.0667236842 L0,10.8914474 L5.25952511,10.8914474 C7.88985388,10.8914474 10.5189087,8.46811842 10.5189087,5.47988158 C10.5189087,2.49164474 7.88985388,0.0667236842 5.25952511,0.0667236842 Z M5.25952511,7.93838158 C3.9311736,7.93774202 2.85482434,6.83618582 2.85539763,5.47795202 C2.85597092,4.11971821 3.93324968,3.01911238 5.26160124,3.0196452 C6.5899528,3.02017802 7.66638671,4.12164773 7.66591781,5.47988158 C7.66599323,6.13229114 7.4124242,6.75797221 6.96106466,7.21910536 C6.50970511,7.68023851 5.89758084,7.93899619 5.25952511,7.93838158 Z" id="Shape" fill="url(#linearGradient-2)"></path>
                <path d="M15.6642009,0.0926315789 C16.9115616,0.0926315789 17.5512374,0.865671053 17.5512374,1.92963158 L17.5512374,2.88113158 C17.5512374,3.94494737 16.9115616,4.71813158 15.6642009,4.71813158 L13.6867123,4.71813158 L13.6867123,0.0926315789 L15.6642009,0.0926315789 Z M16.4397671,1.92297368 C16.4397671,1.33490789 16.1359954,1.02430263 15.4639041,1.02430263 L14.7922374,1.02430263 L14.7922374,3.78631579 L15.4643288,3.78631579 C16.1364201,3.78631579 16.4401918,3.47585526 16.4401918,2.88764474 L16.4397671,1.92297368 Z M21.0940137,3.85897368 L19.4589406,3.85897368 L19.2069772,4.71813158 L18.0953653,4.71813158 L19.7110457,0.0926315789 L20.8484201,0.0926315789 L22.4643836,4.71842105 L21.3529132,4.71842105 L21.0940137,3.85897368 Z M19.7304384,2.94713158 L20.8223744,2.94713158 L20.2796621,1.11678947 L19.7304384,2.94713158 Z M26.0868539,0.0926315789 L26.0868539,1.05078947 L24.8653973,1.05078947 L24.8653973,4.71842105 L23.7539269,4.71842105 L23.7539269,1.05078947 L22.5324703,1.05078947 L22.5324703,0.0926315789 L26.0868539,0.0926315789 Z M28.874589,4.81105263 C27.5046438,4.81105263 26.8002785,3.91238158 26.8002785,2.70325 L26.8002785,2.10794737 C26.8002785,0.898671053 27.5046438,0 28.874589,0 C30.2445342,0 30.9491826,0.898671053 30.9491826,2.10794737 L30.9491826,2.70267105 C30.9491826,3.91180263 30.2446758,4.81047368 28.874589,4.81047368 L28.874589,4.81105263 Z M28.874589,0.945565789 C28.2284018,0.945565789 27.912032,1.38831579 27.912032,2.04903947 L27.912032,2.76273684 C27.912032,3.42346053 28.2286849,3.86621053 28.874589,3.86621053 C29.5204932,3.86621053 29.8371461,3.42346053 29.8371461,2.76273684 L29.8371461,2.04846053 C29.8375708,1.38773684 29.5209178,0.944986842 28.874589,0.944986842 L28.874589,0.945565789 Z M15.5990868,10.0456053 C16.1936073,10.0456053 16.4779863,9.64917105 16.497379,9.18659211 L17.5249087,9.18659211 C17.5118858,10.1647237 16.8075205,10.9839342 15.611968,10.9839342 C14.2161187,10.9839342 13.5440274,10.0852632 13.5440274,8.88264474 L13.5440274,8.27475 C13.5440274,7.07198684 14.2161187,6.17331579 15.611968,6.17331579 C16.8075205,6.17331579 17.5118858,6.99281579 17.5249087,7.97065789 L16.4979452,7.97065789 C16.4785525,7.50822368 16.1941735,7.11178947 15.599653,7.11178947 C14.9275616,7.11178947 14.6560639,7.56771053 14.6560639,8.22192105 L14.6560639,8.93547368 C14.6560639,9.58968421 14.9275616,10.0456053 15.5990868,10.0456053 Z M21.9123288,6.26594737 L22.933347,6.26594737 L22.933347,10.8914474 L21.867032,10.8914474 L21.867032,8.44640789 L21.1561553,9.86063158 L20.2772557,9.86063158 L19.5727489,8.44640789 L19.5727489,10.8914474 L18.5065753,10.8914474 L18.5065753,6.26594737 L19.5275936,6.26594737 L20.7166347,8.78364474 L21.9123288,6.26594737 Z M25.7581689,10.9843684 C24.6724612,10.9843684 23.9421918,10.4556447 23.9421918,9.52411842 L23.9421918,9.39848684 L25.0085068,9.39848684 L25.0085068,9.49097368 C25.0085068,9.88089474 25.2539589,10.1186974 25.7645388,10.1186974 C26.2234521,10.1186974 26.5270822,9.92706579 26.5270822,9.57028947 C26.545079,9.37162143 26.409552,9.19263031 26.2169406,9.16068421 L25.0860776,8.86976316 C24.3815708,8.69144737 24.0197626,8.37418421 24.0197626,7.62097368 C24.0197626,6.70247368 24.6594384,6.17360526 25.7325479,6.17360526 C26.7471963,6.17360526 27.3933836,6.73532895 27.3933836,7.58117105 L27.3933836,7.69348684 L26.3658539,7.69348684 L26.3658539,7.61417105 C26.3658539,7.30371053 26.1978311,7.04607895 25.7325479,7.04607895 C25.3448356,7.04607895 25.099242,7.18473684 25.099242,7.51517105 C25.0845982,7.69917696 25.2115304,7.86346505 25.3899909,7.89148684 L26.5920548,8.22192105 C27.3158128,8.42021053 27.6065616,8.82981579 27.6065616,9.47085526 C27.606137,10.3958684 26.8048082,10.9839342 25.7580274,10.9839342 L25.7581689,10.9843684 Z" id="Shape" fill="#FF7751"></path>
            </g>
        </g>
    </g>
</svg>