<?xml version="1.0" encoding="UTF-8"?>
<svg width="385px" height="181px" viewBox="0 0 385 181" version="1.1" xmlns="http://www.w3.org/2000/svg" xmlns:xlink="http://www.w3.org/1999/xlink">
    <!-- Generator: Sketch 43.1 (39012) - http://www.bohemiancoding.com/sketch -->
    <title>Artboard</title>
    <desc>Created with Sketch.</desc>
    <defs>
        <radialGradient cx="50.8313239%" cy="50%" fx="50.8313239%" fy="50%" r="48.8954829%" gradientTransform="translate(0.508313,0.500000),scale(0.482234,1.000000),rotate(89.364870),translate(-0.508313,-0.500000)" id="radialGradient-1">
            <stop stop-color="#FFFFFF" offset="0%"></stop>
            <stop stop-color="#F2F2F2" offset="100%"></stop>
        </radialGradient>
    </defs>
    <g id="Page-1" stroke="none" stroke-width="1" fill="none" fill-rule="evenodd">
        <g id="Artboard">
            <rect id="Rectangle" fill="url(#radialGradient-1)" x="-4" y="-4" width="394" height="190"></rect>
            <g id="1559658344-typography" transform="translate(35.000000, 74.000000)" fill-rule="nonzero" fill="#5B616F">
                <path d="M20.6614065,1.62295082 L31.2082333,31.9180328 L21.6987993,31.9180328 L20.445283,27.3304918 L11.1519726,27.3304918 L9.94168096,31.9180328 L0.432246998,31.9180328 L10.9790738,1.62295082 L20.6614065,1.62295082 Z M15.8202401,10.1055738 L13.1835334,19.8 L18.4137221,19.8 L15.8202401,10.1055738 Z M41.0634648,32.437377 C36.0926244,32.437377 32.8507719,29.5809836 32.8507719,25.2531148 C32.8507719,20.2760656 36.6545455,18.3718033 41.8415094,18.3718033 C43.7433962,18.3718033 45.6885077,18.8045902 47.0716981,19.6268852 L47.0716981,17.5062295 C47.0716981,16.4242623 46.2936535,15.5154098 44.9104631,15.5154098 C43.7001715,15.5154098 42.9653516,15.9481967 42.619554,16.6839344 L34.2339623,16.6839344 C35.0984563,11.317377 39.3344768,8.46098361 45.1698113,8.46098361 C52.0425386,8.46098361 56.3217839,12.2262295 56.3217839,18.0255738 L56.3217839,31.9180328 L47.4607204,31.9180328 L47.4607204,30.2734426 C46.2936535,31.5718033 43.6569468,32.437377 41.0634648,32.437377 Z M44.4782161,26.5947541 C45.9478559,26.5947541 47.0716981,25.8590164 47.0716981,24.7770492 C47.0716981,23.7383607 46.1639794,22.9593443 44.6511149,22.9593443 C43.1382504,22.9593443 42.1008576,23.5219672 42.1008576,24.7770492 C42.1008576,25.9455738 43.0950257,26.5947541 44.4782161,26.5947541 Z M96.5207547,23.4354098 C96.5207547,28.6288525 92.0686106,31.9180328 86.1036021,31.9180328 L71.4504288,31.9180328 L71.4504288,1.62295082 L85.9307033,1.62295082 C91.6363636,1.62295082 94.6620926,5.0852459 94.6620926,9.36983607 C94.6620926,12.572459 93.3653516,14.8229508 90.6854202,16.2511475 C93.9704974,17.16 96.5207547,19.1940984 96.5207547,23.4354098 Z M89.1725557,22.7429508 C89.1725557,20.7088525 87.8758148,19.4970492 85.7145798,19.4970492 L78.7121784,19.4970492 L78.7121784,26.0754098 L85.8442539,26.0754098 C87.9622642,26.0754098 89.1725557,24.6904918 89.1725557,22.7429508 Z M78.7121784,13.6977049 L84.24494,13.6977049 C86.1900515,13.6977049 87.270669,12.442623 87.270669,10.4518033 C87.270669,8.59081967 86.1036021,7.46557377 84.1584906,7.46557377 L78.7121784,7.46557377 L78.7121784,13.6977049 Z M107.932075,0.324590164 L107.932075,11.1442623 C108.883019,9.9757377 111.087479,8.72065574 113.810635,8.72065574 C120.20789,8.72065574 123.406518,13.3947541 123.406518,18.6314754 L123.406518,22.5265574 C123.406518,27.7632787 120.20789,32.437377 113.810635,32.437377 C110.698456,32.437377 108.277873,30.7927869 107.586278,29.5377049 L107.586278,31.9180328 L100.670326,31.9180328 L100.670326,0.324590164 L107.932075,0.324590164 Z M116.144768,19.107541 C116.144768,16.4242623 114.848027,14.6931148 111.995197,14.6931148 C109.833962,14.6931148 107.932075,16.1213115 107.932075,18.9777049 L107.932075,22.1803279 C107.932075,25.0367213 109.833962,26.464918 111.995197,26.464918 C114.848027,26.464918 116.144768,24.6472131 116.144768,22.0504918 L116.144768,19.107541 Z M151.070326,32.5239344 C141.949914,32.5239344 137.843568,26.6813115 137.843568,18.9344262 L137.843568,14.6065574 C137.843568,6.85967213 141.949914,1.01704918 151.070326,1.01704918 C158.721098,1.01704918 163.43259,6.2104918 163.735163,12.3993443 L158.115952,12.3993443 C157.72693,8.98032787 155.565695,5.99409836 151.070326,5.99409836 C146.013036,5.99409836 143.851801,9.45639344 143.851801,14.3036066 L143.851801,19.237377 C143.851801,24.0845902 146.013036,27.5468852 151.070326,27.5468852 C155.565695,27.5468852 157.72693,24.5606557 158.115952,21.1416393 L163.735163,21.1416393 C163.43259,27.3304918 158.721098,32.5239344 151.070326,32.5239344 Z M178.474786,32.437377 C171.688508,32.437377 167.841509,28.1527869 167.841509,22.2668852 L167.841509,19.0642623 C167.841509,13.1783607 171.688508,8.89377049 178.474786,8.89377049 C184.483019,8.89377049 188.546141,12.6590164 188.719039,17.8091803 L183.359177,17.8091803 C183.099828,15.6019672 181.716638,13.6544262 178.60446,13.6544262 C175.276158,13.6544262 173.720069,15.8183607 173.720069,18.8478689 L173.720069,22.4832787 C173.720069,25.5127869 175.276158,27.6767213 178.60446,27.6767213 C181.716638,27.6767213 183.099828,25.7291803 183.359177,23.5219672 L188.719039,23.5219672 C188.546141,28.6721311 184.483019,32.437377 178.474786,32.437377 Z M204.928302,1.62295082 L216.296398,1.62295082 C223.990395,1.62295082 228.226415,6.51344262 228.226415,13.264918 L228.226415,20.2760656 C228.226415,27.027541 223.990395,31.9180328 216.296398,31.9180328 L204.928302,31.9180328 L204.928302,1.62295082 Z M215.820926,29.1481967 C221.785935,29.1481967 224.898113,25.5560656 224.898113,20.2760656 L224.898113,13.264918 C224.898113,7.98491803 221.785935,4.39278689 215.820926,4.39278689 L208.256604,4.39278689 L208.256604,29.1481967 L215.820926,29.1481967 Z M250.184563,0.324590164 L253.46964,0.324590164 L253.46964,31.9180328 L250.357461,31.9180328 L250.357461,28.4557377 C249.406518,30.4898361 246.553688,32.437377 242.879588,32.437377 C237.044254,32.437377 233.629503,28.0662295 233.629503,22.5265574 L233.629503,19.1508197 C233.629503,13.3947541 237.217153,9.24 242.793139,9.24 C246.251115,9.24 248.844597,10.7980328 250.184563,13.0485246 L250.184563,0.324590164 Z M236.91458,19.2806557 L236.91458,22.3967213 C236.91458,26.464918 238.859691,29.7540984 243.441509,29.7540984 C247.807204,29.7540984 250.184563,26.4216393 250.184563,22.1370492 L250.184563,19.2806557 C250.184563,14.7363934 247.072384,11.9232787 243.398285,11.9232787 C239.205489,11.9232787 236.91458,15.212459 236.91458,19.2806557 Z M271.537564,31.9180328 L271.537564,1.62295082 L290.945455,1.62295082 L290.945455,3.39737705 L273.655575,3.39737705 L273.655575,15.6452459 L289.691938,15.6452459 L289.691938,17.4629508 L273.655575,17.4629508 L273.655575,30.1436066 L290.988679,30.1436066 L290.988679,31.9180328 L271.537564,31.9180328 Z M305.598628,32.437377 C299.763293,32.437377 296.132419,28.6288525 296.132419,23.002623 L296.132419,19.1940984 C296.132419,13.3081967 299.54717,9.41311475 305.468954,9.41311475 C311.347513,9.41311475 314.546141,13.7409836 314.546141,18.8911475 L314.546141,21.8340984 L298.163979,21.8340984 L298.163979,23.132459 C298.163979,27.4170492 300.757461,30.7927869 305.598628,30.7927869 C309.186278,30.7927869 311.520412,28.7586885 312.42813,25.8157377 L314.243568,25.8157377 C313.379074,29.7108197 310.050772,32.437377 305.598628,32.437377 Z M298.163979,19.107541 L298.163979,20.1462295 L312.557804,20.1462295 L312.557804,18.8045902 C312.557804,14.4767213 310.180446,11.0577049 305.468954,11.0577049 C300.541338,11.0577049 298.163979,14.3036066 298.163979,19.107541 Z" id="AaBbCcDdEe"></path>
            </g>
        </g>
    </g>
</svg>