<?xml version="1.0" encoding="UTF-8"?>
<svg width="386px" height="173px" viewBox="0 0 386 173" version="1.1" xmlns="http://www.w3.org/2000/svg" xmlns:xlink="http://www.w3.org/1999/xlink">
    <!-- Generator: Sketch 43.1 (39012) - http://www.bohemiancoding.com/sketch -->
    <title>Artboard</title>
    <desc>Created with Sketch.</desc>
    <defs>
        <radialGradient cx="50.8313239%" cy="50%" fx="50.8313239%" fy="50%" r="100%" gradientTransform="translate(0.508313,0.500000),scale(0.466321,1.000000),rotate(90.000000),translate(-0.508313,-0.500000)" id="radialGradient-1">
            <stop stop-color="#FFFFFF" offset="0%"></stop>
            <stop stop-color="#F2F2F2" offset="100%"></stop>
        </radialGradient>
        <linearGradient x1="0%" y1="50%" x2="100%" y2="50%" id="linearGradient-2">
            <stop stop-color="#FF593D" offset="0%"></stop>
            <stop stop-color="#FF7751" offset="100%"></stop>
        </linearGradient>
    </defs>
    <g id="Page-1" stroke="none" stroke-width="1" fill="none" fill-rule="evenodd">
        <g id="Artboard">
            <rect id="Rectangle" fill="url(#radialGradient-1)" x="0" y="-4" width="386" height="180"></rect>
            <g id="1559836139-datologoabout" transform="translate(87.000000, 54.000000)" fill-rule="nonzero">
                <path d="M31.985771,0.687703704 L0,0.687703704 L0,65.2153333 L31.985771,65.2153333 C47.9827214,65.2153333 63.970729,50.7694815 63.970729,32.956 C63.970729,15.1425185 47.9827214,0.687703704 31.985771,0.687703704 Z M31.985771,47.6120741 C23.9072176,47.6088148 17.360313,41.0422222 17.3635649,32.9454074 C17.3668168,24.8485926 23.9185992,18.2868889 31.9971527,18.2901481 C40.0757061,18.2934074 46.6217977,24.8591852 46.6193588,32.956 C46.6201718,41.0495556 40.0732672,47.6112593 31.9979656,47.6120741 L31.985771,47.6120741 Z" id="Shape" fill="url(#linearGradient-2)"></path>
                <path d="M96.7881756,0.699111111 C106.41545,0.699111111 111.353473,6.54866667 111.353473,14.5982222 L111.353473,21.7971111 C111.353473,29.8458519 106.41545,35.6954074 96.7881756,35.6954074 L81.5245305,35.6954074 L81.5245305,0.699111111 L96.7881756,0.699111111 L96.7881756,0.699111111 Z M102.774126,14.550963 C102.774126,10.1020741 100.4295,7.75214815 95.2418931,7.75214815 L90.0542863,7.75214815 L90.0542863,28.6456296 L95.2418931,28.6456296 C100.4295,28.6456296 102.774126,26.2957037 102.774126,21.8468148 L102.774126,14.550963 L102.774126,14.550963 Z M137.928069,29.1988889 L125.308225,29.1988889 L123.362771,35.6986667 L114.783424,35.6986667 L127.252866,0.699111111 L136.033019,0.699111111 L148.503275,35.6954074 L139.923115,35.6954074 L137.928069,29.1988889 Z M127.403267,22.2998519 L135.833027,22.2998519 L131.642943,8.45207407 L127.403267,22.2998519 Z M175.629882,0.699111111 L175.629882,7.95096296 L166.199347,7.95096296 L166.199347,35.6954074 L157.622439,35.6954074 L157.622439,7.94851852 L148.191905,7.94851852 L148.191905,0.699111111 L175.629882,0.699111111 L175.629882,0.699111111 Z M196.397382,36.3953333 C185.822989,36.3953333 180.385798,29.5957037 180.385798,20.446963 L180.385798,15.9475556 C180.385798,6.79881481 185.822989,-1.42108547e-14 196.397382,-1.42108547e-14 C206.971775,-1.42108547e-14 212.413031,6.79881481 212.413031,15.9475556 L212.413031,20.446963 C212.409779,29.5957037 206.972588,36.3953333 196.397382,36.3953333 Z M196.397382,7.14837037 C191.409767,7.14837037 188.965145,10.4988889 188.965145,15.4977778 L188.965145,20.8967407 C188.965145,25.8964444 191.409767,29.2461481 196.397382,29.2461481 C201.384996,29.2461481 203.829618,25.8964444 203.829618,20.8967407 L203.829618,15.4977778 C203.829618,10.4988889 201.385809,7.14837037 196.397382,7.14837037 Z M89.175458,61.3099259 C91.3298473,61.4842963 93.2167672,59.8758519 93.3907443,57.7165926 C93.4005,57.5927407 93.4045649,57.4680741 93.4029389,57.3434074 L98.2434046,57.3434074 C98.1824313,61.8591111 94.8646718,65.6431111 89.2323664,65.6431111 C82.6570076,65.6431111 79.4912748,61.4932593 79.4912748,55.9402963 L79.4912748,53.1332593 C79.4912748,47.5802963 82.6570076,43.4312593 89.2323664,43.4312593 C94.8646718,43.4312593 98.1824313,47.2136296 98.2434046,51.7293333 L93.4029389,51.7293333 C93.434645,49.5635556 91.7086947,47.7823704 89.5478015,47.7505926 C89.423416,47.748963 89.2990305,47.753037 89.175458,47.7628148 C86.0089122,47.7628148 84.7300992,49.8682963 84.7300992,52.8888148 L84.7300992,56.1839259 C84.7300992,59.2044444 86.0129771,61.3099259 89.175458,61.3099259 Z M119.300324,43.8574074 L124.11071,43.8574074 L124.11071,65.2153333 L119.088137,65.2153333 L119.088137,53.9268889 L115.738672,60.4551852 L111.598992,60.4551852 L108.281233,53.9268889 L108.281233,65.2153333 L103.257847,65.2153333 L103.257847,43.8574074 L108.06742,43.8574074 L113.668832,55.4823704 L119.300324,43.8574074 Z M137.807748,65.6431111 C132.693309,65.6431111 129.253603,63.1986667 129.253603,58.8997037 L129.253603,58.3195556 L134.276176,58.3195556 L134.276176,58.7481481 C134.276176,60.5480741 135.433042,61.6464444 137.837828,61.6464444 C139.999534,61.6464444 141.430374,60.7615556 141.430374,59.114 C141.514924,58.1957037 140.875111,57.3694815 139.967015,57.2228148 L134.639576,55.88 C131.321004,55.0562222 129.616191,53.592 129.616191,50.1135556 C129.616191,45.8724444 132.629897,43.4320741 137.683363,43.4320741 C142.462855,43.4320741 145.507454,46.0248148 145.507454,49.9302222 L145.507454,50.4492593 L140.669427,50.4492593 L140.669427,50.0834074 C140.669427,48.6485185 139.877588,47.4588889 137.685802,47.4588889 C135.859042,47.4588889 134.702989,48.0993333 134.702989,49.6246667 C134.633073,50.4753333 135.231424,51.2347407 136.072855,51.3642963 L141.734427,52.8896296 C145.144053,53.8046667 146.51392,55.6966667 146.51392,58.6560741 C146.51392,62.9273333 142.739267,65.6431111 137.807748,65.6431111 Z" id="Shape" fill="#FF7751"></path>
            </g>
        </g>
    </g>
</svg>