<?xml version="1.0" encoding="UTF-8"?>
<svg width="386px" height="179px" viewBox="0 0 386 179" version="1.1" xmlns="http://www.w3.org/2000/svg" xmlns:xlink="http://www.w3.org/1999/xlink">
    <!-- Generator: Sketch 43.1 (39012) - http://www.bohemiancoding.com/sketch -->
    <title>Artboard</title>
    <desc>Created with Sketch.</desc>
    <defs>
        <radialGradient cx="50.8313239%" cy="50%" fx="50.8313239%" fy="50%" r="101.861979%" gradientTransform="translate(0.508313,0.500000),scale(0.466165,1.000000),rotate(90.000000),translate(-0.508313,-0.500000)" id="radialGradient-1">
            <stop stop-color="#FFFFFF" offset="0%"></stop>
            <stop stop-color="#F2F2F2" offset="100%"></stop>
        </radialGradient>
        <linearGradient x1="49.9992558%" y1="100%" x2="49.9992558%" y2="0%" id="linearGradient-2">
            <stop stop-color="#FF7751" offset="0%"></stop>
            <stop stop-color="#FF593D" offset="100%"></stop>
        </linearGradient>
        <linearGradient x1="49.9925584%" y1="100%" x2="49.9925584%" y2="0%" id="linearGradient-3">
            <stop stop-color="#FF7751" offset="0%"></stop>
            <stop stop-color="#FF593D" offset="100%"></stop>
        </linearGradient>
    </defs>
    <g id="Page-1" stroke="none" stroke-width="1" fill="none" fill-rule="evenodd">
        <rect id="Rectangle" fill="url(#radialGradient-1)" x="-6" y="-4" width="399" height="186"></rect>
        <g id="Artboard" fill-rule="nonzero">
            <g id="Group" transform="translate(91.000000, 35.000000)">
                <g id="piccolo">
                    <path d="M27.7507391,0 L0,0 L0,55.5081343 L27.7507391,55.5081343 C41.629,55.5081343 55.5023043,43.0814179 55.5023043,27.7618657 C55.5023043,12.4423134 41.6347826,0 27.7507391,0 Z M27.7507391,40.3650746 C20.7415979,40.3628074 15.0614157,34.7146459 15.063697,27.7495527 C15.0659783,20.7844594 20.7498592,15.1399734 27.7590004,15.1422401 C34.7681417,15.1445069 40.4483243,20.792668 40.4460435,27.7577612 C40.4462635,31.1029182 39.1085332,34.3110091 36.7274165,36.6756224 C34.3462997,39.0402357 31.1170505,40.3674707 27.7507391,40.3650746 L27.7507391,40.3650746 Z" id="Shape" fill="url(#linearGradient-2)"></path>
                    <path d="M9.07869565,67.6319403 C14.696087,67.6319403 17.5733478,71.0148507 17.5733478,75.6693284 L17.5733478,79.8320896 C17.5733478,84.4865672 14.6936087,87.8686567 9.07869565,87.8686567 L0.176782609,87.8686567 L0.176782609,67.6319403 L9.07869565,67.6319403 Z M12.5697391,75.6397761 C12.5697391,73.0670896 11.2025652,71.7076866 8.1766087,71.7076866 L5.15147826,71.7076866 L5.15147826,83.7920896 L8.17826087,83.7920896 C11.2042174,83.7920896 12.5713913,82.4335075 12.5713913,79.8608209 L12.5697391,75.6397761 Z M32.7609565,84.110597 L25.4005217,84.110597 L24.2654783,87.8686567 L19.2618696,87.8686567 L26.5314348,67.6319403 L31.6531739,67.6319403 L38.9227391,87.8686567 L33.924087,87.8686567 L32.7609565,84.110597 Z M26.6223043,80.119403 L31.5391739,80.119403 L29.0956087,72.1123881 L26.6223043,80.119403 Z M54.4969565,67.6319403 L54.4969565,71.8234328 L48.9976957,71.8234328 L48.9976957,87.8686567 L43.994087,87.8686567 L43.994087,71.8234328 L38.4956522,71.8234328 L38.4956522,67.6319403 L54.4969565,67.6319403 Z M66.2736522,88.2733582 C60.106913,88.2733582 56.9388696,84.3412687 56.9388696,79.0514179 L56.9388696,76.4491791 C56.9388696,71.1585075 60.1102174,67.2264179 66.2736522,67.2264179 C72.437087,67.2264179 75.6125652,71.1585075 75.6125652,76.4491791 L75.6125652,79.0522388 C75.6125652,84.3412687 72.4420435,88.2733582 66.2736522,88.2733582 Z M66.2736522,71.3629104 C63.365,71.3629104 61.9391739,73.299403 61.9391739,76.190597 L61.9391739,79.31 C61.9391739,82.201194 63.365,84.1376866 66.2736522,84.1376866 C69.1823043,84.1376866 70.6089565,82.201194 70.6089565,79.31 L70.6089565,76.190597 C70.6089565,73.2977612 69.1831304,71.3612687 66.2736522,71.3612687 L66.2736522,71.3629104 Z M5.6496087,106.925746 C6.2888347,106.977652 6.92041422,106.759031 7.38884692,106.323709 C7.85727963,105.888388 8.11904555,105.276811 8.10969565,104.639552 L10.9233478,104.639552 C10.8878261,107.241791 8.95891304,109.42291 5.68513043,109.42291 C1.862,109.42291 0.0214782609,107.031642 0.0214782609,103.830149 L0.0214782609,102.212985 C0.0214782609,99.0114925 1.862,96.6202239 5.68513043,96.6202239 C8.95891304,96.6202239 10.8894783,98.8005224 10.9233478,101.403582 L8.10969565,101.403582 C8.11904555,100.766324 7.85727963,100.154746 7.38884692,99.7194249 C6.92041422,99.2841037 6.2888347,99.0654826 5.6496087,99.1173881 C3.80908696,99.1173881 3.0656087,100.330672 3.0656087,102.072612 L3.0656087,103.971343 C3.0656087,105.711642 3.80908696,106.925746 5.6496087,106.925746 Z M22.5521739,96.8656716 L25.3443478,96.8656716 L25.3443478,109.179104 L22.4241304,109.179104 L22.4241304,102.669403 L20.4770435,106.433209 L18.0706522,106.433209 L16.1417391,102.669403 L16.1417391,109.179104 L13.2215217,109.179104 L13.2215217,96.8656716 L16.017,96.8656716 L19.2742609,103.565821 L22.5521739,96.8656716 Z M32.6956957,109.425373 C29.7217826,109.425373 27.7226522,108.018358 27.7226522,105.538433 L27.7226522,105.204328 L30.6428696,105.204328 L30.6428696,105.450597 C30.6428696,106.48903 31.3153043,107.121119 32.7138696,107.121119 C33.9703478,107.121119 34.8013913,106.611343 34.8013913,105.661567 C34.8504297,105.132932 34.479466,104.656722 33.9521739,104.571418 L30.8551739,103.797313 C28.9262609,103.322836 27.9349565,102.478955 27.9349565,100.473507 C27.9349565,98.0297015 29.687087,96.6226866 32.6246522,96.6226866 C35.4036087,96.6226866 37.173087,98.1167164 37.173087,100.368433 L37.173087,100.667239 L34.3553043,100.667239 L34.3553043,100.456269 C34.3553043,99.6296269 33.8951739,98.9433582 32.6205217,98.9433582 C31.559,98.9433582 30.8857391,99.3127612 30.8857391,100.192761 C30.8449398,100.682725 31.1929551,101.120391 31.682087,101.194254 L34.9740435,102.074254 C36.9566522,102.601269 37.7521739,103.692239 37.7521739,105.397239 C37.7521739,107.857463 35.558913,109.425373 32.6915652,109.425373 L32.6956957,109.425373 Z" id="Shape" fill="#FF7751"></path>
                </g>
                <g id="grande" transform="translate(183.000000, 38.000000)">
                    <path d="M8.0323913,0 L0,0 L0,16.3055319 L8.0323913,16.3055319 C12.0497826,16.3055319 16.0671739,12.6547518 16.0671739,8.15276596 C16.0671739,3.65078014 12.0497826,0 8.0323913,0 Z M8.0323913,11.8565957 C6.00539494,11.8499421 4.36691767,10.1887463 4.37131298,8.14475429 C4.37570829,6.10076225 6.02131445,4.4467473 8.04832037,4.44895796 C10.0753263,4.45116862 11.7173806,6.10876911 11.7173913,8.15276596 C11.7180349,9.13737288 11.3296183,10.0816631 10.6380619,10.7767532 C9.94650552,11.4718433 9.0088069,11.8604446 8.0323913,11.8565957 Z" id="Shape" fill="url(#linearGradient-3)"></path>
                    <path d="M2.57782609,19.8670922 C4.20152174,19.8670922 5.03608696,20.8605674 5.03608696,22.2278014 L5.03608696,23.4503546 C5.03608696,24.8175887 4.20152174,25.8110638 2.57782609,25.8110638 L0,25.8110638 L0,19.8670922 L2.57782609,19.8670922 Z M3.58695652,22.218156 C3.58695652,21.4634043 3.1923913,21.0631206 2.31478261,21.0631206 L1.43478261,21.0631206 L1.43478261,24.6126241 L2.31478261,24.6126241 C3.1923913,24.6126241 3.58695652,24.2147518 3.58695652,23.46 L3.58695652,22.218156 Z M9.43130435,24.7066667 L7.30065217,24.7066667 L6.97304348,25.8014184 L5.52391304,25.8014184 L7.63065217,19.8574468 L9.11326087,19.8574468 L11.2176087,25.8014184 L9.76847826,25.8014184 L9.43130435,24.7066667 Z M7.65217391,23.5347518 L9.08695652,23.5347518 L8.36956522,21.1836879 L7.65217391,23.5347518 Z M15.7252174,19.8670922 L15.7252174,21.0968794 L14.1326087,21.0968794 L14.1326087,25.8014184 L12.673913,25.8014184 L12.673913,21.0968794 L11.0932609,21.0968794 L11.0932609,19.8670922 L15.7252174,19.8670922 Z M19.1304348,25.9292199 C17.3465217,25.9292199 16.4282609,24.7741844 16.4282609,23.2212766 L16.4282609,22.4568794 C16.4282609,20.9015603 17.3465217,19.7465248 19.1304348,19.7465248 C20.9143478,19.7465248 21.835,20.9015603 21.835,22.4568794 L21.835,23.2212766 C21.8373913,24.7741844 20.9191304,25.9292199 19.1304348,25.9292199 Z M19.1304348,20.961844 C18.2886957,20.961844 17.8773913,21.530922 17.8773913,22.3797163 L17.8773913,23.2984397 C17.8773913,24.147234 18.2886957,24.7163121 19.1304348,24.7163121 C19.9721739,24.7163121 20.3858696,24.147234 20.3858696,23.2984397 L20.3858696,22.3797163 C20.3882609,21.530922 19.9745652,20.961844 19.1304348,20.961844 Z M2.67586957,32.6182979 C2.97986034,32.6427671 3.27999862,32.5368943 3.50257597,32.3266798 C3.72515333,32.1164654 3.84955033,31.8213835 3.84521739,31.5139007 L5.18195652,31.5139007 C5.16521739,32.7702128 4.24934783,33.8215603 2.6926087,33.8215603 C0.875217391,33.8215603 0,32.6689362 0,31.1256738 L0,30.3443972 C0,28.8011348 0.875217391,27.6460993 2.6926087,27.6460993 C4.24934783,27.6460993 5.16521739,28.6998582 5.18195652,29.9537589 L3.84521739,29.9537589 C3.84887137,29.646693 3.72417805,29.3522586 3.50168199,29.1425798 C3.27918594,28.932901 2.97944014,28.8273466 2.67586957,28.851773 C1.80065217,28.851773 1.44673913,29.4377305 1.44673913,30.2768794 L1.44673913,31.1931915 C1.44673913,32.0323404 1.80065217,32.6182979 2.67586957,32.6182979 Z M10.7082609,27.7666667 L12.0378261,27.7666667 L12.0378261,33.7034043 L10.6484783,33.7034043 L10.6484783,30.5686525 L9.72304348,32.3843972 L8.58,32.3843972 L7.65217391,30.5638298 L7.65217391,33.6985816 L6.26521739,33.6985816 L6.26521739,27.7666667 L7.60434783,27.7666667 L9.15152174,30.9978723 L10.7082609,27.7666667 Z M15.5291304,33.8215603 C14.1158696,33.8215603 13.1641304,33.1439716 13.1641304,31.9479433 L13.1641304,31.786383 L14.5534783,31.786383 L14.5534783,31.904539 C14.5534783,32.4060993 14.873913,32.7099291 15.5363043,32.7099291 C16.1341304,32.7099291 16.531087,32.4687943 16.531087,32.0058156 C16.5569203,31.7499627 16.3791146,31.5186813 16.1269565,31.4801418 L14.653913,31.106383 C13.7380435,30.877305 13.2669565,30.4697872 13.2669565,29.5028369 C13.2669565,28.3236879 14.0991304,27.6436879 15.4956522,27.6436879 C16.8156522,27.6436879 17.6478261,28.3670922 17.6478261,29.4521986 L17.6478261,29.5944681 L16.3206522,29.5944681 L16.3206522,29.4931915 C16.3206522,29.0953191 16.1006522,28.7697872 15.4956522,28.7697872 C14.991087,28.7697872 14.6706522,28.948227 14.6706522,29.3726241 C14.6516227,29.6084379 14.8165702,29.8189821 15.0484783,29.8548936 L16.6147826,30.2792908 C17.5569565,30.5204255 17.9347826,31.0605674 17.9347826,31.8828369 C17.9347826,33.0668085 16.8921739,33.8215603 15.5291304,33.8215603 Z" id="Shape" fill="#FF7751"></path>
                </g>
            </g>
        </g>
    </g>
</svg>