<svg xmlns="http://www.w3.org/2000/svg" viewBox="0 0 218.64 75.89"><defs><style>.cls-1{fill:#fff;}</style></defs><title>full_logo_alt_1</title><g id="Layer_2" data-name="Layer 2"><g id="Layer_1-2" data-name="Layer 1"><path class="cls-1" d="M37.16.46H0V75.25H37.16c18.58,0,37.15-16.74,37.15-37.39S55.74.46,37.16.46Zm0,54.39a17,17,0,1,1,17-17A17,17,0,0,1,37.16,54.85Z"/><path class="cls-1" d="M110.66.64C119.47.64,124,6,124,13.33v6.58c0,7.35-4.52,12.69-13.33,12.69h-14V.64Zm5.48,12.65c0-4.07-2.15-6.21-6.89-6.21H104.5V26.16h4.75c4.74,0,6.89-2.15,6.89-6.21ZM149,26.66H137.47l-1.78,5.94h-7.86l11.42-32h8l11.42,32h-7.86Zm-9.63-6.3h7.71L143.27,7.72ZM184.29.64V7.26h-8.63V32.6h-7.85V7.26h-8.63V.64ZM204,33.24c-9.68,0-14.66-6.21-14.66-14.57V14.56C189.33,6.21,194.31,0,204,0s14.65,6.21,14.65,14.56v4.11C218.64,27,213.66,33.24,204,33.24Zm0-26.71c-4.57,0-6.81,3.06-6.81,7.62v4.93c0,4.57,2.24,7.63,6.81,7.63s6.8-3.06,6.8-7.63V14.15C210.79,9.59,208.55,6.53,204,6.53ZM110.2,69.41c4.2,0,6.21-2.74,6.35-5.94h7.26c-.09,6.76-5.07,12.42-13.52,12.42-9.86,0-14.6-6.21-14.6-14.52v-4.2c0-8.31,4.74-14.52,14.6-14.52,8.45,0,13.43,5.66,13.52,12.42h-7.26c-.14-3.19-2.15-5.93-6.35-5.93-4.74,0-6.66,3.15-6.66,7.67v4.93C103.54,66.26,105.46,69.41,110.2,69.41Zm44.6-26.12H162v32h-7.53V58.36l-5,9.77h-6.21l-5-9.77V75.25h-7.53v-32H138l8.4,17.4ZM182,75.89c-7.67,0-12.83-3.65-12.83-10.09v-.87h7.53v.64c0,2.69,1.74,4.34,5.34,4.34,3.24,0,5.39-1.33,5.39-3.79a2.62,2.62,0,0,0-2.19-2.83l-8-2c-5-1.23-7.53-3.42-7.53-8.63,0-6.35,4.52-10,12.1-10,7.16,0,11.73,3.88,11.73,9.73v.77h-7.26v-.54c0-2.15-1.19-3.93-4.47-3.93-2.74,0-4.48,1-4.48,3.24a2.43,2.43,0,0,0,2.06,2.6l8.49,2.29C193,58.18,195,61,195,65.43,195,71.83,189.36,75.89,182,75.89Z"/></g></g></svg>