<svg xmlns="http://www.w3.org/2000/svg" viewBox="0 0 91.53 133.3"><defs><style>.cls-1{fill:#fff;}</style></defs><title>vertical</title><g id="Layer_2" data-name="Layer 2"><g id="Layer_1-2" data-name="Layer 1"><path class="cls-1" d="M33.59,0H0V67.62H33.59c16.8,0,33.6-15.14,33.6-33.81S50.39,0,33.59,0Zm0,49.17A15.36,15.36,0,1,1,49,33.81,15.35,15.35,0,0,1,33.59,49.17Z"/><path class="cls-1" d="M11,82.39c6.8,0,10.28,4.12,10.28,9.79v5.07c0,5.67-3.48,9.79-10.28,9.79H.21V82.39Zm4.23,9.75c0-3.13-1.66-4.79-5.32-4.79H6.24v14.72H9.9c3.66,0,5.32-1.65,5.32-4.78Zm24.44,10.32H30.75L29.37,107H23.32l8.8-24.65h6.2L47.12,107h-6ZM32.23,97.6h6l-3-9.75ZM66,82.39v5.1H59.31V107H53.26V87.49H46.6v-5.1Zm14.26,25.14c-7.47,0-11.31-4.79-11.31-11.23V93.13c0-6.45,3.84-11.24,11.31-11.24s11.3,4.79,11.3,11.24V96.3C91.53,102.74,87.69,107.53,80.23,107.53Zm0-20.6c-3.53,0-5.25,2.36-5.25,5.88v3.81c0,3.52,1.72,5.88,5.25,5.88s5.24-2.36,5.24-5.88V92.81C85.47,89.29,83.75,86.93,80.23,86.93ZM6.84,130.25a2.76,2.76,0,0,0,3-2.78h3.4c0,3.17-2.37,5.83-6.34,5.83-4.63,0-6.85-2.92-6.85-6.82v-2c0-3.9,2.22-6.81,6.85-6.81,4,0,6.3,2.66,6.34,5.83H9.82a2.76,2.76,0,0,0-3-2.79c-2.23,0-3.13,1.48-3.13,3.6v2.32C3.71,128.78,4.61,130.25,6.84,130.25ZM27.29,118h3.39v15H27.14v-7.93l-2.35,4.59H21.87l-2.33-4.59V133H16V118h3.39l3.94,8.16Zm12.28,15.3c-3.6,0-6-1.72-6-4.74v-.4h3.54v.29c0,1.27.81,2,2.51,2,1.52,0,2.52-.62,2.52-1.78a1.23,1.23,0,0,0-1-1.33l-3.75-.94c-2.34-.58-3.54-1.61-3.54-4,0-3,2.12-4.69,5.68-4.69,3.36,0,5.5,1.82,5.5,4.56v.37h-3.4v-.26c0-1-.56-1.84-2.1-1.84-1.29,0-2.1.45-2.1,1.52a1.13,1.13,0,0,0,1,1.22l4,1.07c2.4.64,3.36,2,3.36,4C45.7,131.39,43,133.3,39.57,133.3Z"/></g></g></svg>