<?xml version="1.0" encoding="utf-8"?>
<!-- Generator: Adobe Illustrator 23.0.2, SVG Export Plug-In . SVG Version: 6.00 Build 0)  -->
<svg version="1.1" id="Layer_1" xmlns="http://www.w3.org/2000/svg" xmlns:xlink="http://www.w3.org/1999/xlink" x="0px" y="0px"
	 viewBox="0 0 261.274 80.562" style="enable-background:new 0 0 261.274 80.562;" xml:space="preserve">
<path style="fill:#FFFFFF;" d="M39.344,0.844H0v79.193h39.344c19.677,0,39.343-17.729,39.343-39.591S59.021,0.844,39.344,0.844z
	 M39.344,58.433c-9.937-0.004-17.99-8.063-17.986-18s8.063-17.99,18-17.986c9.937,0.004,17.989,8.062,17.986,17.999
	c0.001,9.933-8.052,17.986-17.985,17.987C39.354,58.433,39.349,58.433,39.344,58.433z M119.054,0.858
	c11.842,0,17.916,7.179,17.916,17.058v8.835c0,9.878-6.074,17.057-17.916,17.057h-18.775V0.858H119.054z M126.417,17.858
	c0-5.46-2.884-8.344-9.265-8.344h-6.381v25.642h6.381c6.381,0,9.265-2.884,9.265-8.344V17.858z M169.658,35.835h-15.523
	l-2.393,7.977h-10.553l15.338-42.954h10.8l15.339,42.95h-10.554L169.658,35.835z M156.712,27.368h10.369l-5.154-16.995
	L156.712,27.368z M216.033,0.858v8.9h-11.6v34.05h-10.55V9.755h-11.6V0.858H216.033z M241.578,44.667
	c-13.007,0-19.695-8.345-19.695-19.573v-5.522C221.883,8.344,228.571,0,241.578,0s19.7,8.344,19.7,19.572v5.522
	C261.274,36.322,254.586,44.667,241.578,44.667z M241.578,8.773c-6.135,0-9.142,4.112-9.142,10.247v6.626
	c0,6.136,3.007,10.247,9.142,10.247s9.142-4.111,9.142-10.247V19.02C250.72,12.885,247.714,8.773,241.578,8.773z M109.69,75.244
	c2.65,0.214,4.971-1.76,5.185-4.41c0.012-0.152,0.017-0.305,0.015-0.458h5.954c-0.075,5.542-4.156,10.186-11.084,10.186
	c-8.088,0-11.982-5.093-11.982-11.908v-3.445c0-6.815,3.894-11.907,11.982-11.907c6.928,0,11.009,4.642,11.084,10.184h-5.954
	c0.039-2.658-2.084-4.844-4.742-4.883c-0.153-0.002-0.306,0.003-0.458,0.015c-3.895,0-5.468,2.584-5.468,6.291v4.044
	C104.222,72.66,105.8,75.244,109.69,75.244z M146.745,53.825h5.917v26.212h-6.178V66.183l-4.12,8.012h-5.092l-4.081-8.012v13.854
	h-6.179V53.825h5.916l6.89,14.267L146.745,53.825z M169.51,80.562c-6.291,0-10.522-3-10.522-8.276v-0.712h6.178V72.1
	c0,2.209,1.423,3.557,4.381,3.557c2.659,0,4.419-1.086,4.419-3.108c0.104-1.127-0.683-2.141-1.8-2.321l-6.553-1.648
	c-4.082-1.011-6.179-2.808-6.179-7.077c0-5.205,3.707-8.2,9.923-8.2c5.879,0,9.624,3.182,9.624,7.975v0.637h-5.951v-0.449
	c0-1.761-0.974-3.221-3.67-3.221c-2.247,0-3.669,0.786-3.669,2.658c-0.086,1.044,0.65,1.976,1.685,2.135l6.964,1.872
	c4.194,1.123,5.879,3.445,5.879,7.077C180.219,77.229,175.576,80.562,169.51,80.562z"/>
</svg>
