<svg xmlns="http://www.w3.org/2000/svg" viewBox="0 0 161.61 84.31"><defs><style>.cls-1{fill:#ff7751;}</style></defs><title>color_text</title><g id="Layer_2" data-name="Layer 2"><g id="Layer_1-2" data-name="Layer 1"><path class="cls-1" d="M21.23.86C33.07.86,39.15,8,39.15,17.92v8.83c0,9.88-6.08,17.06-17.92,17.06H2.46V.86Zm7.37,17c0-5.46-2.89-8.34-9.27-8.34H13V35.16h6.38c6.38,0,9.27-2.89,9.27-8.35Zm42.62,18H55.7l-2.39,8H42.75L58.09.86h10.8l15.34,43H73.68ZM58.28,27.36H68.65l-5.16-17ZM117,.86V9.75H105.39V43.81H94.84V9.75H83.24V.86Zm24.94,43.81c-13,0-19.7-8.35-19.7-19.58V19.57C122.22,8.34,128.91,0,141.92,0s19.69,8.34,19.69,19.57v5.52C161.61,36.32,154.92,44.67,141.92,44.67Zm0-35.9c-6.14,0-9.15,4.11-9.15,10.25v6.63c0,6.13,3,10.24,9.15,10.24s9.14-4.11,9.14-10.24V19C151.06,12.88,148.05,8.77,141.92,8.77ZM12.16,78.88a4.91,4.91,0,0,0,5.32-5h6.08c-.07,5.66-4.24,10.4-11.32,10.4C4,84.31,0,79.11,0,72.15V68.63c0-7,4-12.17,12.24-12.17,7.08,0,11.25,4.75,11.32,10.41H17.48a4.91,4.91,0,0,0-5.32-5c-4,0-5.58,2.64-5.58,6.42v4.13C6.58,76.24,8.19,78.88,12.16,78.88ZM48.86,57h6V83.78H48.59V69.62l-4.21,8.19h-5.2L35,69.62V83.78H28.7V57h6l7,14.57ZM71,84.31c-6.43,0-10.75-3.06-10.75-8.45v-.73h6.31v.54c0,2.25,1.45,3.63,4.48,3.63,2.71,0,4.51-1.11,4.51-3.17a2.21,2.21,0,0,0-1.84-2.38L67,72.07c-4.17-1-6.31-2.87-6.31-7.23,0-5.32,3.78-8.38,10.13-8.38,6,0,9.84,3.26,9.84,8.15v.65H74.54V64.8c0-1.79-1-3.29-3.75-3.29-2.29,0-3.74.81-3.74,2.72a2,2,0,0,0,1.72,2.18l7.11,1.91c4.29,1.15,6,3.52,6,7.23C81.89,80.91,77.15,84.31,71,84.31Z"/></g></g></svg>