<svg xmlns="http://www.w3.org/2000/svg" viewBox="0 0 131.07 82.89"><defs><style>.cls-1{fill:#ff7751;}</style></defs><title>color_text_alt</title><g id="Layer_2" data-name="Layer 2"><g id="Layer_1-2" data-name="Layer 1"><path class="cls-1" d="M16.36.7C26,.7,30.92,6.53,30.92,14.56v7.18c0,8-4.94,13.86-14.56,13.86H1.1V.7Zm6,13.81c0-4.44-2.34-6.78-7.53-6.78H9.62V28.57h5.19c5.19,0,7.53-2.34,7.53-6.78ZM57.18,29.12H44.57l-2,6.48H34.05L46.51.7h8.78L67.76,35.6H59.18ZM46.66,22.24h8.43L50.9,8.43ZM94.62.7V7.93H85.19V35.6H76.62V7.93H67.19V.7Zm20.44,35.6c-10.57,0-16-6.78-16-15.9V15.91c0-9.13,5.43-15.91,16-15.91s16,6.78,16,15.91V20.4C131.07,29.52,125.63,36.3,115.06,36.3Zm0-29.17c-5,0-7.43,3.34-7.43,8.33v5.38c0,5,2.45,8.33,7.43,8.33s7.43-3.34,7.43-8.33V15.46C122.49,10.47,120.05,7.13,115.06,7.13ZM15.86,75.81c4.58,0,6.78-3,6.93-6.48h7.93c-.1,7.38-5.54,13.56-14.76,13.56C5.19,82.89,0,76.11,0,67V62.45c0-9.08,5.19-15.86,16-15.86,9.22,0,14.66,6.18,14.76,13.56H22.79c-.15-3.49-2.35-6.48-6.93-6.48-5.19,0-7.28,3.44-7.28,8.38v5.38C8.58,72.37,10.67,75.81,15.86,75.81ZM63.5,47.29h7.88v34.9H63.15V63.74L57.67,74.41H50.89L45.45,63.74V82.19H37.22V47.29H45.1l9.18,19Zm28.62,35.6c-8.38,0-14-4-14-11v-1h8.23v.7c0,2.94,1.89,4.74,5.83,4.74,3.54,0,5.88-1.45,5.88-4.14a2.86,2.86,0,0,0-2.39-3.09l-8.73-2.2c-5.43-1.34-8.22-3.74-8.22-9.42,0-6.93,4.93-10.92,13.21-10.92,7.83,0,12.82,4.24,12.82,10.62v.85H96.81v-.6c0-2.34-1.3-4.29-4.89-4.29-3,0-4.89,1-4.89,3.54a2.65,2.65,0,0,0,2.25,2.84l9.27,2.5c5.59,1.49,7.83,4.58,7.83,9.42C106.38,78.45,100.2,82.89,92.12,82.89Z"/></g></g></svg>