<?xml version="1.0" encoding="UTF-8" standalone="no"?>
<!DOCTYPE svg PUBLIC "-//W3C//DTD SVG 1.1//EN" "http://www.w3.org/Graphics/SVG/1.1/DTD/svg11.dtd">
<svg width="100%" height="100%" viewBox="0 0 141 187" version="1.1" xmlns="http://www.w3.org/2000/svg" xmlns:xlink="http://www.w3.org/1999/xlink" xml:space="preserve" xmlns:serif="http://www.serif.com/" style="fill-rule:evenodd;clip-rule:evenodd;stroke-linejoin:round;stroke-miterlimit:2;">
    <g transform="matrix(1,0,0,1,-22.5,22.5)">
        <g transform="matrix(-6.12323e-17,1,1,6.12323e-17,22.5,-22.5)">
            <path d="M97.434,112.265C100.403,109.095 104.434,105.715 107.191,101.7C112.918,93.249 118.221,84.586 123.523,75.923C133.492,59.443 143.461,42.751 154.279,24.791C140.28,29.44 129.886,41.272 113.342,38.525C114.827,35.99 115.251,33.877 116.312,33.454C132.856,26.693 147.279,16.551 160.854,5.353C172.096,-3.733 177.823,-1.197 179.308,12.537C180.792,26.904 183.762,41.272 185.883,55.64C186.307,57.964 185.459,60.499 185.247,63.457C176.126,59.231 176.126,59.231 168.49,27.749C166.793,30.496 165.308,32.609 164.036,34.722C151.521,56.485 139.219,78.247 126.281,99.799C122.038,106.771 116.948,113.321 111.221,119.026C101.04,129.168 89.798,128.745 80.253,117.97C75.375,112.476 71.769,105.715 68.587,98.954C64.981,91.347 62.648,83.107 59.467,75.289C57.134,69.796 54.164,64.514 51.407,58.809C44.831,61.344 42.286,66.204 39.316,70.641C26.802,89.446 17.469,109.518 10.47,131.069C9.621,133.605 9.197,136.352 7.712,138.676C6.864,139.944 4.531,141 2.834,141C1.985,141 0.289,138.676 0.077,137.408C-0.136,133.816 0.077,129.802 0.925,126.421C6.864,102.123 16.833,79.515 31.044,59.02C33.802,54.794 37.408,50.991 41.225,47.822C48.225,42.117 55.225,42.328 60.951,49.301C65.618,55.006 69.012,61.767 71.981,68.528C76.435,78.459 79.617,88.812 84.071,98.742C86.617,104.025 89.586,109.518 97.434,112.265Z" style="fill-rule:nonzero;"/>
        </g>
    </g>
</svg>
