<svg xmlns="http://www.w3.org/2000/svg" viewBox="0 0 415 193"><g id="Page-1" stroke="none" stroke-width="1" fill="none" fill-rule="evenodd"><g id="circle" transform="translate(1 .7)" fill="#88C7E0" fill-rule="nonzero"><g id="Group"><path d="M217 191.7l-18.5-1.4a441.2 441.2 0 01-31.5-3.5c-4.2-.6-26.4-5-37.5-7.5-4.8-1.1-20.2-5.6-29.5-8.7a285.2 285.2 0 01-50-22.3l-6-3.6a121.5 121.5 0 01-35.1-33.4c-7-10.4-8.9-16-8.9-25.4 0-8.4 1.8-14.3 6.9-23.2A81.2 81.2 0 0134 36c6.8-4.5 22-12.7 23.6-12.7A336.5 336.5 0 01193.5 0l10.9.2-3.9 2c-3.4 1.8-6.9 2.3-22 3a501.5 501.5 0 00-30.3 2.5c-4.3.4-9.3 1-21.9 3-57.5 9.2-95.5 26.5-112.1 51a37.6 37.6 0 00-7.9 21 38.3 38.3 0 004.4 19.4 91.4 91.4 0 0036.5 35.5 96 96 0 0014.9 9.6c.6 0 3.6 1.2 6.7 2.6a260 260 0 0031.2 11.5c21.3 7.2 42.5 12.9 47.8 12.9 1.2 0 2.2.5 2.2 1 0 .6.5.8 1.1.4 1.1-.6 7.7.4 19.5 3.2a50 50 0 008.5 1.4l7.4.4c18.4 1.6 23.8 1.8 39 1.8 18.9-.1 32.7-.8 36.5-1.8 1.4-.3 5.2-.7 8.5-1a57.6 57.6 0 009-1c6.3-.6 12-1.7 13-2.5 1.2-1 19-5 21.7-5 1 0 2-.4 2.3-1 .4-.5 1.6-1 2.9-1 1.2 0 2.7-.4 3.3-1a182.7 182.7 0 0031.8-14.8l6-4c1.1-.6 2.8-1.4 3.8-1.7.9-.4 1.7-1 1.7-1.5s.7-1 1.5-1 2.3-.7 3.3-1.6l3.8-3.3 7.1-5.7c2.8-2.4 5.5-4.3 6-4.3 1.5 0 7.3-6.8 12.5-14.5 5.1-7.7 9.4-20 8.4-24.1a39.1 39.1 0 00-11.4-20 85.1 85.1 0 00-29.7-20L357 47.3c-2.9-1.4-13.6-4.8-18.5-5.8-10.9-2.3-23.5-6.1-23.5-7.1 0-.5-3-.8-6.6-1a20 20 0 01-7.8-1c-.6-.4-4.5-1.1-8.6-1.5-4.1-.4-8.6-1.2-9.9-1.7-3.1-1.1-14.9-2.7-25.6-3.4-4.4-.3-12.3-1-17.5-1.2a399 399 0 00-99.5 7.8c-12.8 2.7-46.6 14-57.2 19.2-1.1.6-2.7.8-3.5.6-.8-.3.1-1.2 2.2-2.2l7-3.5c7.8-4.2 13.8-7 19-8.5 4.9-1.6 9.5-3.2 15.5-5.7 7.6-3 28.1-7.5 44-9.6 20.7-2.6 74.4-2.2 102.5.8 25.7 2.8 55 7.7 59.2 10A235.9 235.9 0 01364.9 46c32.3 14.9 50.7 35.2 48.6 53.6-.3 3-2.4 8.8-5 14.2-4.4 9-7.2 12.4-21.3 25.8a41 41 0 00-6.2 6.7c0 .4-1.9 1.7-4.3 2.8a19.2 19.2 0 00-5.6 3.6c-.8.9-1.9 1.6-2.6 1.6-.7 0-1.5.6-1.8 1.3-.5 1.2-14.2 8.5-24.7 13l-9 4c-1.9.9-4.8 1.9-6.5 2.3a206 206 0 01-43 11.8l-15.5 2.2a497.8 497.8 0 01-51 2.8z" id="Path"/></g></g></g></svg>