<svg xmlns="http://www.w3.org/2000/svg" viewBox="0 0 261.3 80.6"><defs><linearGradient id="a" y1="40.4" x2="78.7" y2="40.4" gradientUnits="userSpaceOnUse"><stop offset="0" stop-color="#ff593d"/><stop offset="1" stop-color="#ff7751"/></linearGradient></defs><path d="M39.3.8H0V80h39.3C59 80 78.7 62.3 78.7 40.4S59 .8 39.3.8zm0 57.6a18 18 0 1118-18 18 18 0 01-18 18z" fill="url(#a)"/><path d="M119 .9c11.9 0 18 7.1 18 17v8.9c0 9.8-6.1 17-18 17h-18.7V.8zm7.4 17c0-5.5-2.9-8.4-9.2-8.4h-6.4v25.7h6.4c6.3 0 9.2-3 9.2-8.4zm43.3 18H154l-2.4 8h-10.5l15.3-43h10.8l15.4 43H172zm-13-8.5h10.4l-5.2-17zM216 .9v8.9h-11.6v34H194v-34h-11.6v-9zm25.6 43.8c-13 0-19.7-8.4-19.7-19.6v-5.5c0-11.3 6.7-19.6 19.7-19.6s19.7 8.3 19.7 19.6V25c0 11.2-6.7 19.6-19.7 19.6zm0-36c-6.2 0-9.2 4.2-9.2 10.3v6.6c0 6.2 3 10.3 9.2 10.3s9.1-4.1 9.1-10.3V19c0-6.1-3-10.2-9.1-10.2zm-132 66.5a4.8 4.8 0 005.3-4.8h6c-.1 5.5-4.2 10.2-11.1 10.2-8.1 0-12-5.1-12-12v-3.4c0-6.8 3.9-11.9 12-11.9 6.9 0 11 4.6 11 10.2h-6a4.8 4.8 0 00-5.1-4.9c-4 0-5.5 2.6-5.5 6.3v4c0 3.8 1.6 6.3 5.5 6.3zm37.1-21.4h6V80h-6.2V66.2l-4.1 8h-5.1l-4.1-8V80H127V53.8h6l6.8 14.3zm22.8 26.8c-6.3 0-10.5-3-10.5-8.3v-.7h6.2v.5c0 2.2 1.4 3.6 4.3 3.6 2.7 0 4.5-1.1 4.5-3.2a2.2 2.2 0 00-1.8-2.3l-6.6-1.6c-4-1-6.2-2.8-6.2-7.1 0-5.2 3.7-8.2 10-8.2 5.8 0 9.6 3.2 9.6 8v.6h-6v-.4c0-1.8-1-3.3-3.6-3.3-2.3 0-3.7.8-3.7 2.7a2 2 0 001.7 2.1l7 2c4.1 1 5.8 3.4 5.8 7 0 5.2-4.6 8.6-10.7 8.6z" fill="#ff7751"/></svg>