<svg version="1.0" xmlns="http://www.w3.org/2000/svg" viewBox="9 9 315 105"><path d="M198.7 18.7c-.8 1.6-3.6 9.3-6.1 17.3-5.4 16.3-10.3 26.9-16.5 35.2-5.4 7.2-9 8.7-12.9 5.3-2.5-2.2-2.7-2.9-2.7-9.7.1-8.3 2.4-15.7 8.6-27.8 2.2-4.2 3.9-8.2 3.9-8.9 0-2.2-3.3-.7-3.7 1.7-.1 1.2-1.2 4-2.3 6.2-7.9 15.5-10.8 30.3-7.5 37.5 1.5 3 5 5.5 7.9 5.5 4 0 13.8-12.2 18.2-22.6 1.5-3.5 2.9-6.3 3.1-6 .2.2-.3 4.3-1.2 9.1-2.3 13.5-2.9 21.1-1.6 21.9 2.8 1.8 8.6-9.7 15.2-29.7 1.2-3.7 2.4-6.5 2.6-6.3.3.2-.3 4.2-1.1 8.8-2.7 14.3-1.6 24.8 2.4 22.3 1.4-.9 5-8.9 6.8-15 .6-2.2 1.9-6.6 2.8-9.8.9-3.1 1.4-6 1.1-6.3-1.2-1.2-2.7.8-2.7 3.5 0 2.8-4.8 18-7 22.2l-1.3 2.3-.8-2.2c-1.5-4 2.9-31.1 6.5-39.6 1.4-3.3 1.4-3.8 0-4.3-.8-.3-1.6-.4-1.8-.2-.1.2-2.6 6.9-5.5 14.9-9.6 26.3-12.9 34.2-15.2 35.6-.8.4-.9-.8-.5-4.2.4-2.7.9-6.7 1.2-8.9 1.7-13.5 5.7-29 10.5-41.3 1.6-4 2.9-7.7 2.9-8.2 0-2-2-.9-3.3 1.7zM238.2 20.7c-.9 1.8-8.2 24.4-12.2 37.8-2.4 8.3-6 15.7-7.7 16.3-1 .3-1.3-1.4-1.3-6.1 0-7.6.5-10.4 5.9-33.3 3.5-14.9 3.4-14.4 2.1-14.4-.5 0-1.2 1-1.5 2.2-.2 1.3-2.2 10-4.5 19.3-6.3 27.1-6.3 38.5.3 35.9 2.1-.8 9.7-19.6 9.7-24.1 0-.7.4-1.3.9-1.3s.3 2.8-.4 6.2c-1.6 7.4-2.5 19.1-1.8 21.8.6 2.1 3.2 3.4 5.4 2.5.8-.3 4-4.3 7.2-9l5.9-8.4 3.8 2.5c6.8 4.5 18 7 18 3.9 0-.8.6-1.3 1.3-1 .6.2 7.4.9 14.9 1.5 7.6.6 18.3 2 23.8 3.1 11.2 2.3 16.5 2.3 15 0-.4-.8-3.2-1.8-6.2-2.2-2.9-.3-10.7-1.4-17.3-2.3-6.6-.8-16.7-2-22.3-2.5-8.8-.8-11-1.4-14.3-3.7-3.2-2.2-4.6-2.6-8.4-2.2-2.5.3-4.8.2-5.1-.3-1.2-2-4.1-.7-5.7 2.5-2 4.2-10.5 15.6-11.7 15.6-1.4 0-2.2-5.8-1.5-11.3 1.4-11.5 4.8-28.4 7.4-37.5 1.6-5.3 3-10.3 3.2-11.1.6-2.1-1.8-2.5-2.9-.4zM60.6 22.7c-.3 1-1.4 6.1-2.5 11.4-2.3 11.5-7.3 22.3-14.8 31.8-.1.2-1.2-.4-2.4-1.5-1.8-1.6-3.9-1.9-13.3-2.1-6.3-.1-12.1-.8-13.4-1.4-2.4-1.3-2.9-4.7-1.2-7.9 1.5-2.9 10.4-8.9 15.7-10.7 6.7-2.2 7.9-3.7 2.5-3-5.1.6-17.5 7.7-19.9 11.4-2.4 3.6-2.2 8.9.4 11.4 2.2 2.2 2 2.2 17.6 1.8 6.6-.1 11.7 1.7 11.7 4.2 0 .5-2.4 4.2-5.4 8.2-6.8 9.2-8.1 11.6-6.7 13 1.6 1.6 6.6-1 9.6-4.9 3.4-4.5 5.5-9.6 5.5-13.5 0-1.9 1.1-4.5 2.9-6.8 1.5-2 3.9-5.6 5.2-8.1 2.1-4 2.4-4.2 2.7-2.1.2 1.3-.1 5.1-.7 8.5-.6 3.3-1.3 9.9-1.6 14.6-.3 4.7-.8 10.9-1 13.8-.4 4.7-.3 5.3 1.3 5 1.2-.2 1.9-1.8 2.6-6.1.4-3.1 1.2-5.7 1.7-5.7s.8.3.8.7c-.1.5-.1 1.8 0 3.1.1 2.9 4.4 5.1 6.5 3.3 2.3-1.9 6.2-11.1 7.9-18.6.9-3.9 3.1-13.5 4.9-21.5 1.8-8 3.4-13.8 3.6-12.8.2.9-1.1 9.2-2.7 18.5-1.7 9.2-4 23.1-5.2 30.8-1.7 12-2.5 17.2-3.2 22-.1.5.5 1 1.3 1 1.4 0 1.8-1.1 8.3-26.3C81 77.5 82.7 72 83.1 72c.3 0 .7 2.5.8 5.6.2 8.2 3.5 10.9 7.6 6.4 1.2-1.4 2.2-1.7 3.4-1 1 .5 2.3.5 3.1 0 .8-.5 2.1-.5 3.1.1 3.6 1.9 16.2 4 17.3 2.9 1.2-1.2-1.7-4-4.1-4-.7 0-1.3-.4-1.3-1 0-.5 1.8-.8 4.3-.5 2.3.2 9.7.7 16.4 1 10.4.5 12.2.3 11.7-.9-.7-1.9-19.8-3.1-35-2.2l-11.4.7-1-2.5c-1.3-3.5-2.5-3.3-4.7 1.1-2.3 4.6-4.9 6.4-6.4 4.3-1.8-2.6-.4-21.7 2.1-28.5 2.7-7.4 2.9-9 1.1-9-1.5 0-2 1.7-10.2 32-4.7 17.3-6.8 23.8-6.9 20.9-.1-3 9.3-56.2 11.5-65.3 1.4-5.7 2.3-10.6 2.1-10.9-.8-.7-3.8.7-3.2 1.6.2.4-.4 3.2-1.5 6.2-2.7 7.6-7.5 25.8-9.3 35.9-.9 4.6-2.4 10.6-3.4 13.3-2 5.9-6.3 11.5-8 10.4-2.1-1.3-.8-18.9 2.4-32.9.6-2.5.4-2.8-1.2-2.5-1.4.2-2.1 1.8-3 6.8-2.6 14.4-4.4 22.4-5.5 23.4-.7.8-.9.4-.5-1.4.3-1.4.8-4.8 1-7.5 1.7-16.8 4.5-32.6 7.9-44.2 1.4-4.5 2.2-8.5 1.9-8.8-1.1-1.1-3.1-.4-3.6 1.2z"/></svg>