<svg xmlns="http://www.w3.org/2000/svg" viewBox="0 0 800 400" version="1.0" id="svg2982">
    <defs id="defs2985">
        <style type="text/css" id="style2987">.carved-out{fill:none;stroke:#646464;stroke-width:.25;stroke-miterlimit:1;stroke-dasharray:.25,.25;stroke-dashoffset:0}</style>
    </defs>
    <rect id="rect5538" y="0" x="0" height="400" width="800" fill="#fff" fill-opacity="1" stroke="none" />
    <g id="Countries" fill="#efefef" fill-opacity="1" fill-rule="nonzero" stroke="white" stroke-width=".5" stroke-miterlimit="1">
        <g id="Europe">
            <g id="Ex-Yougoslavie">
                <path d="M444 107l-2-1s0 0 0 0v-1-1h3l1 1h-1v1h-1v1z" id="Montenegro" />
                <path d="M431 97h3l1-1h1l1 1h-1l-1 1c1 0 1 0 0 0v1h-1-1-1-1c-1 0 0 0 0 0v-1-1s0 0 0 0z" id="Slovenie" />
                <path d="M440 105l-2-1-1-1h-2l-1-1c1 0 1 0 0 0v-2l-2-1v1h-1v-1h4v-1-1h2l3 1h2l1 1s-1 0 0 0v1s0 0 0 0h-1-4-1-1c-1-1 0 0 0 0v1l1 1 1 1 1 1 1 1zm0 0h1l1 1-1-1h-1z" id="Croatie" />
                <path d="M451 102l-1 1 2 1-2 2h-1-1-1l-1 1-1-1 1-1h-1l-1-1-1-1h1v-1h-1v-1-1s0 0 0 0v-1s0 0 0 0l-1-1h5v1l1 1v1h2c1 0 1 0 0 0l1 1z" id="Serbie" />
                <path d="M452 108l-2 1h-3l-1-2h1l1-1h2l1 1 1 1h0z" id="Macedoine" />
                <path d="M440 105l-1-1-1-1-1-1s-1 0 0 0l-1-1v-1h7l1 1-1 1h0l1 1-1 1h-1v1 1l-2-1s0 0 0 0z" id="Bosnie Herzegovine" />
            </g>
            <path d="M445 112l-1-1v-2-1-2h2v2l1 1v2l-2 1z" id="Albanie" />
            <g id="Ex-URSS">
                <path d="M451 79v-1h-1l-2-1s-1 1 0 0l-1-1 1-1h8l2 1h1v1l1 1h-2v1 1h-2-3l-1-1h-1z" id="Lituanie" />
                <path d="M463 68h-1l-1 1 1 2v1h-1-1-1l-2-1h-1l-1 1c0-1 0-2-1-1l-1-1s0 0 0 0v-1l1-1h9z" id="Estonie" />
                <path d="M461 72l1 1v1h1v1l-1 1h-4l-1-1h-3-2-3-1c-1 1-1 0-1-1l1-1 1-1h2l1 1 2 1 1-1v-2h2l2 1h2s0 0 0 0z" id="Lettonie" />
                <path d="M453 86l1-1h7l1 1 1-1 1 1h4v-1l2-1h6l1 1h-1l2 1 1 1v1h4l1 1h3l1 1h2l-1 1v1 2h-2-1c-1 1 0 2-1 1l-2 1-3 1h-3v1l1 1h4l-1 1h-2l-2 1h-2v-1l-2-1 1-1h0l-2-1v-1h-2l-1 1-2 1-1 1h-3 1l1-1v-1h1s0 0 0 0h1v-1h-1v-1l-1-1v-1h-1-1-1l-1-1-1 1h-1l-2 1h-2l-2-1h-2l-1-1 1-1v-1l1-1 2-1v-1l-1-1s0 0 0 0z" id="Ukraine" />
                <path d="M453 80h3 2l-1-1 1-1h1l1-1v-1h2l2-1 1 1h3l1 1v2h1l1 1 1 1h1l-1 1h-1l-1 1 1 1s0 0 0 0l-2 1-1 1c1 0 0 0 0 0h-2l-1-1-1 1h-1l-1-1h-1-3-2-3s0 1 0 0l-1-1 1-1 1-1-1-2z" id="Bielorussie" />
                <path d="M460 93h1l1-1 1 1h1l1 1c0-1 1 0 0 0l1 1s0 0 0 0l1 1v1c1 0 0 0 0 0h-1-1v1h-1v1l-1-1v-2l-1-1-1-2h-1z" id="Moldavie" />
            </g>
            <path d="M420 113l-1-1v-2-1h2l1 1v2l-1 1h-1zm14 5h-2l-3-1v-2h6l-1 2v1s0 0 0 0zm-3-19l-1-1-1 1-1 1v2l2 1 1 1 2 2 1 1h2v1l2 1 3 1 1 1h-2l-1-1-2 1 1 1 1 1-1 1-1 1-1 1v-1-1-1-2h-2v-1h-2v-1l-1-1h-2l-3-2-2-3-3-1h-2l-2 1v-1l-1-1-1-1h1v-2h2l1-1 1 1h1v-1h2l1-1h5l2 1v1c-1 0 0 0 0 0v1z" id="Italie" />
            <path d="M451 91l-2-1h-2l-2 1-1-1h-1-1l-1-1h-1l-1-1h-1-1s-1 0 0 0l-1-1h-1-1v-1l-1-1v-1l-1-1 1-1v-1-1h3l2-1h4v1l2-1-1 1 3-1h6l1 1 1 3h-2l1 1v1l1 2c1 0-1 0 0 0l-1 1-2 2v1s0 0 0 0zm-19-11s0 1 0 0zm1 0c-1 1-1 0 0 0h0z" id="Pologne" />
            <path d="M438 92l1-1h1l1-1h3l1 1 2-1h2l2 1-1 2-2-1h-2l-2 1h-1l-2 1-2-1h-1v-1z" id="Slovaquie" />
            <path d="M432 92l-2-1-1-1h-1v-1l1-1 1-1h7v1h3l1 1h1v1h-1l-1 1h-1l-1 1h-1l-3-1-2 1s0 0 0 0z" id="Rep Tcheque" />
            <path d="M442 98h-2l-2-1-1-1v-1-1h1l2-1 2 1 2-1h2l1-1h2l1 1h2l-2 1-3 3-2 1h-3z" id="Hongrie" />
            <path d="M446 98l2-1 2-3 2-1h1l2 1h1l2-1h3l2 2v3l1 1h2v1l-2 1v2l-3-1h-3l-2 1h-1l-3-1c-1 1 0 0 0 0l-2-1c1 0 1 0 0 0h-1l-1-1s0 0 0 0l-1-1v-1h-1z" id="Roumanie" />
            <path d="M450 106l1-1v-1l-1-1 1-1 1 1h6l2-1 4 1-1 1v1l-1 1 1 1h-2l-2 1h-1-6l-1-1-1-1h0z" id="Bulgarie" />
            <path d="M455 122h-1-1v-1h2l1 1h2-3zm-10-10l2-2h1l1-1h2l3-1 3 1 1-1h1v1l-1 1-1-1h-3l-1 1 1 1v-1l-1 1c1 0 0 0 0 0 0-1-1 0 0 0h-1l-1-1s1-1 0 0v2l1 1h-1v1h1l1 1h1c0 1 0 2-1 1h-1s-1 0 0 0l1 1h-2l1 2h-2l-1-1h-1v-3h3-3l-1-1v-1h-2v-1z" id="Grece" />
            <path d="M400 81l1 1v1h3v1l-2 1-1 1h2v1h-4-3l-1 1h-2-1-1-1l-2 1 1-1h1l1-1 1-1h2v-1h-5l1-1c1 0 2 0 1-1h-1l1-1h3v-2h-1v-1-1h-2-2l1-1v-1-1l-2 1 1-1-1-1h-1l1-1v-1h1v-1-1h5l-1 1-2 1h5v1l-1 1-1 1s1 0 0 0l-2 1h3l1 1 1 1 1 1 2 1v1h0zm-12-4c-1 0 1-1 0 0 0 0 0 0 0 0zm-1 3h-2l-2-1c-1 0 1 0 0 0l1-1 1-1 2 1 1 1-1 1s0 0 0 0z" id="Royaume Uni" />
            <path d="M387 80v3l-1 1h-1l-3 1h-1l-2 1-1-1v-1s-1 0 0 0h1l1-1s-1 0 0 0v-1c1 0 0 0 0 0h-2v-1l1-1h-1 3l1-1h-1l1-1 1-1 1 1c0 1-2 0-1 1v1h3 1z" id="Irlande" />
            <path d="M347 54h2v-1h4v1l1 1 2-1v-1l2 1 1-1 1 1 1-1h3l1-1 1 1h2l1 1 1 1v1l-2 1h-1l-3 1-3 1h-6l-3-1h-1l2-1h-2-3l1-1h3v-1h-3-2v-1z" id="Islande" />
            <path d="M381 107v-1l-1-1 1-1 1-1h6l5 1 2-1 1 1h1l1 1h4l2 1h3v1l-2 1-3 1v1l-1 1-1 1 1 2-1 1-1 1-1 1-2 1h-1-1l-3 1h-2l-1 1-1-1-1-1-2-1v-1s2 0 1-1h-1l1-2-1-1 1-1v-2l1-1v-1h-3-2z" id="Espagne" />
            <path d="M384 117l-2 1h-1v-1-2h-1l1-1h-1v-1-1l1-2v-2-1h5l1 1-1 1-1 1v2h-1l1 2-1 1s2 0 1 1l-1 1s0 0 0 0z" id="Portugal" />
            <path d="M419 74l1-1h2l2-1v1h-3l-1 1h-1zm3 4h-2l-1-1v-1-1h2c1 0 0-2 1-1h1l1 1v1h-1l-1 1s0 0 0 0v1zm5 0l-1-1v-1h2v1c-1 0 0 0 0 0l-1 1z" id="Danemark" />
            <path d="M341 41h2c1 1 0 1-1 1h-4v2h13l-4 2h-2l-4 2h-6-1l-2 1-2-1h-1v1l-1 1-4 2-2 1h-1l-2 1h-2l1-1h-2v1h-4v2h-3l2 1h-2s-1 0 0 0l2 1-2 1v1h-2v1h-2l2 1-1 2h-1l1 2h-2l1 1h-3-1v-1l-2-1v-1l-2 1h-3l-2-1-1-1c1-1 0-1-1-1l-1-1 1-1-2-1h-1v-1l2-1v-1l-2 1h-2v-1c0-1 0-2-1-1l-1-1c-1-1 0-1 1-1h-2l1-1h1l-1-1h-1v-1c0 1-1 0 0 0h6v-1l-5-1h4l1-1v-1-1h-1l-2-1h-4l-1-1h6l2 1-2-1-1-1v-1h-1l-2-1-1 1h-3-1l1-2h1v-1l-2-1-3-3-2-1-1-1-4-1-8-1-3 1h-4c1 0 1 1 0 0h-5l2-1-2-1h-5l2-1h9s1 0 0 0l-2-1-4 1-3-1h-3l-2-1 1-1h7l5-1h3l1-1 1-1h-6l1-1 5-1h8v-2h2l6 1c1 0 1 0 0 0l-2-1 5-1h5v2h1l1-1 7 1-1-1-1-1h5l5 1h3l2-1-1-1h-2l4-1h6l5 1v-1h8l5-1 4 1h11l4 1h4c1 1 0 1-1 1h-13l-8 1h-1 15l3 1 5-1 1 1-5 2h1l4-1 4-1h5l2-1h6l3 1c1 0 0 0 0 0l-4 1-2 1h-8l-2 1h5l-1 1h-3v2h-3l-2 2h6l-1 1h-1 2l3 1h-5l-3 1-2-1c-1 1 0 1 1 1l5 1 1 1-2 1h-1v1h3v1h-6v1h3v1h-3l-5-1-2 1h-5v1l3 1h3l3 1 2 1h1l1 2h-5l-1-1-5-1h-1zm10-1l-3-1h4l-1 1zm-69 6l-3-1v-1h2l3 1c1 0 2 0 1 1h-3s0 0 0 0z" id="Groenland (Danemark)" />
            <path d="M417 94v-1l1-1v-1h-3v-2h-1v-2-1-1h1l1-1v-1c-1 0 0 0 0 0v-1l1-1h3v-1s0 0 0 0v-1c1 0 0 0 0 0-1-1 0-1 1-1h1l1 1h1l1 1c-1 0-1 0 0 0h1l3-1 1 1h1l1 1v1l1 1v2l1 1-1 1h-1-1l-1 1h-1c-1 0-2 0-1 1v1h2l1 1v1l-1 1h-1v1c0 1 0 0 0 0h-2-1-1l-2 1v-1h-2-4zm15-14h-1 1z" id="Allemagne" />
            <path d="M422 94v1l1 1c1-1 1 0 1 1h-1-1-1l-1 1-1-1h-1c1 1 0 1-1 1h-1l-1-1h-1v-1l1-1 1-1h6z" id="Suisse" />
            <path d="M422 94l1 1 1-1 1 1 1-1h3c0 1 1 0 0 0v-1l1-1h8l1 1-1 1c-1 0-1 0 0 0l-1 1-1 1-1 1h-2-1l-4-1h-1-3-1l-1-1v-1z" id="Autriche" />
            <path d="M421 105l1 1-1 1-1 1v-1s-1 0 0 0v-1l1-1c1 1 0 0 0 0zm-25-1l1-1 1-2c1 0-1 0 0 0v-2l1 1-1-1v-2l-2-1v-1h-1l-1-1h-2l-1-1c-1 0-1 0 0 0 0 0-1 0 0 0l-1-1h7v-1l-1-1h2s0 1 0 0l2 1 1-1 1-1 2-1 1-1h2l1 1h2v1h1l1 1h2l1 1h3v1l-1 1v1l-1 1h-1l-1 1v1h1l1 1v2h-1l1 1 1 1v1l-2 1h-3-3l-2 1v1h-2-1l-1-1h-3-1l-1-1h-1-1z" id="France" />
            <g id="Benelux">
                <path d="M416 82v1 2h-2v2h-1v-1h-3-1v-1l2-2h1v1h1v-1h-1l1-1 2-1 1 1z" id="Pays-Bas" />
                <path d="M406 87l2-1h4l1 1h1v2h-1v1l-1-1h-1-1l-1-1h-1l-1-1h-1z" id="Belgique" />
                <path d="M414 90v-1h1v1h-1z" id="Luxembourg" />
            </g>
            <g id="Scandinavie">
                <path d="M454 54h-4l-1 1-1 1h-1l1 1-2 2h-2l-1 1-2 1h-1-1v4l1 1h1l2 1-1 1h-4c-1 0-1 0 0 0h4l-1 1h-1-1l-1 1h-1l1 1-1 1v2l-1 1h-3l-1 1v1h-2l-1-1-1-1h1l-1-1-1-1-1-2c1 0 1-1 0 0l-1-1 1-1h1v-2h1v-2l1-1-1-1v-1l-1-1 1-2 3-1h1l-1-1 2-3 1-1 3-1v-2l2-1h2l1-1 3 1v-2h2l4 2h2v3l1 2s0 0 0 0z" id="Suede" />
                <path d="M449 23h-6-2l2-1 2-1 2 1h3l1-1 1 1h9l-1 1-4 1h-9 1l1-1zm-19 0l1 1 1-1h2l2 1v-1l1-1 2 1h1l1 1h1l4 1h1l-4 1-2 2h-1l-1 1h-4l-2-1h2l3-1h-6c-1 0 0 0 0 0l6-1-4-1-2 1h-3l-2-1 1-1h-3l1-1h4zm-5 46l-1-1s0-1 0 0l-1 1h-2l-1 1-1 1h-2-2l-2-1v-1h1c-1 0 1 0 0 0s-1 0 0 0v-1h-1s0 1 0 0h-1 1l1-1c1 0 0 0 0 0-1 0-1 0 0 0l-2-1h1l-1-1v-1-1h1v-1h1l1-1h2s1 0 0 0v-1h2l1-1h1l1-1 2-1h2l1-1 1-1c0 1 1 0 0 0l1-1 1-1c1 0 1 0 0 0l1-1v-1h2v-1h2s1 0 0 0l1-1h2v-1c1 0 0 0 0 0l1-1h2l1-1h2l1-1 1 1 1-1h2l2-1 1 1 2-2h4l-2 1h1l3-2v2l2-2h1v2l1-1h4v1h-3l1 1h4l-3 1-3 1 1-1-1-1h-6v2l-2 1h-1l-2-1h-3l-2-1-1 1h-2v2l-4-1-1 1-2 1-1 1-1 1-2 1-1 1-2 3 1 1h-3l-2 2v3l2 1-1 1v2l-2 1v1h-1z" id="Norvege" />
                <path d="M464 47v2l2 1h1l-2 1 2 3-1 1 1 2 1 1v1l2 1c1 1 0 2-1 2l-5 3-2 1h-4l-2 1h-1-3l-1-1h-1-1l-1-2v-1-2c-1 0-1 0 0 0l1-1 1-1h1l2-1 2-2h2v-1l-2-1h-1l-1-1v-2-1l-1-1-3-1-2-1 1-1 3 1h3l2 1 2-1v-2h6l1 1-1 1z" id="Finlande" />
            </g>
        </g>
        <path d="M445 79c1 0 1 0 0 0v-1h3v-1l1 1h2v1h-6zm273 2l1 3v3l1 3 2 2-3-1h-1l-1 3 1 2 1 1s0 1 0 0l-1-1-2 2-1-1 1-2v-1-1-2-4-2l-1-1v-2h2l1-1zm-247 3v-1l-1-1h3v-1h-1l-1-1-1-1-1-1v-1s1-1 0 0l-2-1h-1c-1 0 0 0 0 0h-2l-1-1v-1h-1v-1-1c-1 0 0 0 0 0v-1l-1-1 1-1 1-1c-1 0 0-1 0 0l2-1h3l-2-1h-2v-1l5-3c1 0 2-1 1-2l-3-1 1-1-2-2 1-2-2-3 2-1-2-1-1-1 1-1 4-1 1-1h2l2 1h3l4 1 4 1 5 1 2 1v1l-2 2h-6l-6-1h-3l-3-1 1 1 3 1 2 1c0 1-2 0-1 1l1 2h2l2 1h3l-1-1-2-1h1l5 1h2v-1l-1-1 2-1 3-1h4l1-1-1-1v-1l1-1-1-1h3l2 1 1 1h-3v1l2 1h3l2-2 3-1 6-1h1l1-1h1l-1 1 1 1h2l1-1h6l3-1 1 1h1l2-1-1-1 1-1h2l4 1h4l4 2 3 1 1-2-2-1h-1l-2-1 1-1v-1h-1l1-1 3-2 2-2h6l1 1-1 2v1l1 1v4l1 1v1l-3 2-1 1h-4-1l4 1h4l1-1 2-1 1-1 1-1-1-1 4-1 2 1v2h3l-2-1h1l-1-2h-2l-3-1h-3l-1-1 2-2-3-2h1l3-1v-1h2l-1 1v2h5l2 1-1-2h-3v-1l2 1 1-1h5l4 1h2l-2 1v2l1-1h1l1 1v-1-1-1l-2-1-2-1h-2v-2l9-1h4l-1 1h1l2-1-2-1 1-1 5-2h7l4-1h4c1 0 0 1 0 0h8l1-1h2v-1l6-1h4l-2 1h6l-1 1c-1 0-1 0 0 0h12l1 1h2c1 1 0 1-1 1l1 1h-1l-4 1-7 2-5 1-1 1h2l5-1h4v-1h6l1 1h2l4-1 5 1v1h11v-1l3-1 3 1h4l1 1-5 1 1 1c2-1 3 0 4 1l4 2h2l3-2h9l3 1v-1h4v-1h-1v-1h14l-2 1h2c1 0 0 0 0 0l-1 1h2l2-1h6l-2 1 5 1 2 1h3l8-1 5 1 1 1v1h3v1h5l2-1 3 1 4-1 2 1 2 1h4l-1-1v-1h13l5 1 3 1v9h-2l-2 1-1-1h-3v1h2l1 1h2v1l1 1h1l-1 2-2-1h-2-1l-2 1-3 1h-2l-2 1-1 1h-2l-2 1-1 1-1-1h-3l-3 1h-2l1-1h-2l-1 1h-3l-1 1-1 1v1l-2 1 2 1h1l-1 1 1 1v2l-1-1h-1l-2 2 1 1v1h-3l-2 2 1 1h-2l-1 1-1 2-3 2-1-1v-2l-1-2v-2l-1-2v-3l3-2v-1l5-2 1-1 5-2 2-1 2-1 1-1v-1l1-1h2l-3-1-2 1-1 1h-1l-4 2h-1v-2h-1-4l-3 1-1 1v1c-2 0-3 0-4 2h1v1h-6-2 2l-1-1h-3-3l-1 1-4-1-1 1h-1l-2-1h-4l-3 2-3 1-1 1-5 3-5 3v1h3v2l1-1v1h2l1-1h1l3 1 2 1v2l-1 2v2l-1 2v2l-2 2-2 2-2 2-3 3-2 2-4 2h-1l-1-1h-2c1 0 0 0 0 0l-3 2 1-1 1-1v-1-3h4l2-4 1-1 1-2h-1l-5 1h-2l-2-3-3-1h-3l-1-3-2-4-2-1h-3l-5-1-3 1-1 1 2 1-1 1-3 3 1 1-4 1-2-1h-3l-2-1-3 1-4 1h-7l-4-2h-3l-3 1-2-1-1-2h-2l-5-1h-1l-2 2 1 1-1 1h-6l-2-1h-1l-4-1-3 1-4 2-2 1h-2l-1-1h-1-2l-1-1-2-2h-5l-1-1-2 1-1-1-2-2-4-3-1-1v-1l-2 1h-2l-1 1h-2l1-1h-2-1-3v-1-1l-2-1h-3l-1 1h-2l-5 1h-1l-4 1h-2-2v1l1 1h1l-3 1v1h-1v1l1 1h2l-1 1h-2l-1 1-2-1h-3-1-2l-1 1-2-1h-1c1 1 0 1 0 0l-2-1h-1l-2-1-2 1-1-1-3 1-1 1-1 1v1l-2-1-1 1-1 1v1l-1 2h2v1h2l1 1 1 1h-1l1 1-1 1h-2l-1 2-1 1v1l1 1h1l-1 1 1 1 1 1 1 1-2 1h-1l-1-1h-1l-2-1c1 0 0-1 0 0l-2-1h-1-1-1l-1-1h-2-1l-2-1-1 1-4-3h-1l-1-1-1-1h1l1-1v-1-1h3l-1-1h-1v-1h3v-2s0-1 0 0v-1l1-1h-1l-1-1h-2-1l-1-1h-3-1l-1-1-1-1h-1v-1l-1-1h-5zm56-47h-4-2v-1l3-1c1 0 1 0 0 0l2-1v-1h2l2-1 5-1h4l4-1h4l2-1h4v1l-4 1-11 2h-3v1h-4v1h-1l-2 1h1l-2 1zm-10 1h3l2-1h4l-1 1-1 1 1 2 2 2c1 0 0 0 0 0h-4-3l1-1h-1l-3-1h-2l1-1 3-1-1-1h-1 0zM0 56v-9l5 1 5 1 1 1v2l2 1v-1l1-1h5l4 2h-1l-1 1h-2 1-4l1 1c1 1 0 1-1 1 0 0-1 0 0 0l-1 1h-2l-1-1h-2l-1-1-2-1H4l-1-1-2 1v2H0z" id="Russie" />
        <g id="Asie">
            <g id="Proche orient">
                <path d="M500 118h-1l-1-1h-2-1l-1 1h-3l-3 1-3-1-3 1v1h-1-1l1-1h-1-3l-1 1h-2l-2-1-3-1-1 1-1 1-2-1h-1-1v-1h-2v-1-1l-2-1h1v-1h1l-1-1v-1h-2l1-1 1-1h5c1 0-1 0 0 0h2l-1-1c-1 0-1-1 0 0h4l1-1 5-1h2l1 1h3l2 1h6l2-1h4l2 2v1l2 1h-1v5l1 1zm-37-11v1l2 1h-3l-1 1-2 1s0 0 0 0v-2l1-1v-1h3z" id="Turquie" />
                <path d="M476 122h-1l1-1s0 0 0 0h1s0 0 0 0h-1s0 0 0 0h-1-1s0 0 0 0h-1v1h-1s0 0 0 0 0 0 0 0v1s0 0 0 0h1s0 0 0 0 0 0 0 0h1s0 0 0 0l1-1s0 0 0 0h1z" id="Chypre" />
                <path d="M490 104l1-1 2 1h3l2 1h3c1 1 2 0 1 1l1 1h1l1 1-1 1-2-1h-1l-2 1h-2l-2-1h-2v-3l-2-1h-1z" id="Georgie" />
                <path d="M480 127v-1-1h1v-1-1c-1 1-1 0-1-1v-1l1-1h1v-1h1l2-1 3 1 3-1 4-1v1l-2 1v1l-1 4-10 5-2-1v-1z" id="Syrie" />
                <path d="M479 135v-1-2l1-2v-2h1l1 1 5-3 1 3-2 1h-3l2 3-2 1-1 1h-2-1z" id="Jordanie" />
                <path d="M480 123c1 1 2 0 1 1v1s0 0 0 0l-1 1-1 1s-1 0 0 0v-2l1-1v-1z" id="Liban" />
                <path d="M478 135l-2-4 2-4h2v3l-1 3-1 2z" id="Israel" />
            </g>
            <g id="Peninsule Arabe">
                <path d="M507 134v1c-1 0 0 0 0 0l1 1c1 1 0 1-1 1l-1-1h-2l1-2h2z" id="Koweit" />
                <path d="M496 164l-2-3-2-3-1-2-3-2v-2l-1-3-2-3-2-1v-2l-3-4-1-1-1-1 1-2h2l1-1 2-1v-1l-1-2 4-1h2l3 1 4 2 1 1v1l1 1 3 1h5l1 1h1l1 2h1l1 1 1 1v1 1l1 1 1 2 1 1 1 3a263 263 0 019 1v2l-10 5-8 3-2 1-3 5-3-6h-2v1l-1 2s0 0 0 0z" id="Arabie Saoudite" />
                <path d="M514 146h1l1 1h5c-1-1 0 0 1-1v-1l2-1 1-1c0-1 1 0 0 0l1 1-1 1v1l-1 2v3h-1l-7-1-2-4z" id="Emirats Arabes Unis" />
                <path d="M515 146l-1-1v-2l1-1v4z" id="Qatar" />
                <path d="M518 163l-2 2-2 1-4 2-1 1h-2l-4 1-2 1-1 1h-2l-1-2-1-2v-3-1l1-2v-1h2l3 6 4-6h2l8-3 2 4v1z" id="Yemen" />
                <path d="M525 142l1 1h-1v-1zm1 3l2 2 2 1 2 1 2 1-1 2-2 2-1 1c-1-1-1 0-1 1v2h-2l-1 2-2 1-1 1h-2l-3 1v-1l-2-4 9-5v-2l-1-2 1-2v-2h1z" id="Oman" />
            </g>
            <g id="Moyen orient">
                <path d="M487 126l5-2 1-4v-1l2-1 1-1h2l1 1h1l1 2 2 1v1l-1 1v2l1 1 1 1 2 1 1 2v2l1 1c1 1 0 0-1 1h-2l-1 1-1 1h-3l-2-1-1-2h-1l-2-2-4-2h-2l-1-3z" id="Irak" />
                <path d="M500 118l-1-1v-2c1 0 0 0 0 0v-3h1l1 1 2 1 1-1 2-1h1l1 1v1c-1 0 0 0 0 0l1 1v2h3l2 2h6l1-2 2-1h2l2-1 1 1h3l3 2 2 1v3l-1 2v4l1 2 2 1-1 1-1 2 2 2 2 1v3h1l-1 1-2 1-1 2h-5l-1-1h-2-1l-1-2v-1h-2-1l-1 1h-2-1l-2-1-1-1-2-1-1-2-1-2-1-1h-2v-1c-1 1-1 2-2 1l-1-1v-2l-1-1-2-2h-1l-1-2v-1l1-1v-2-1h-2l-1-2z" id="Iran" />
                <path d="M504 113h-1v-1h-2-1l-2-1v-1l-1-1h1l2-1 1 1h1v1l1 1v1h1v1s0 0 0 0z" id="Armenie" />
                <path d="M579 106h-2l-1-1h-2-5-1l-3-1-1 2-3-1h-2l-1 1-1 1h-1l-2 2-1 1-1-1h-3v-2c-1 0-2 0-1-1v-1l-1-1-2-1h-7l-3-2-4-2-6 1v8h-1l-1-1-3-1-3 1 1-1-1-1h-1l-1-1-1-1v-1l-2-1h3l-1-1 1-1h3l1-2v-1h-2-3l-2 1h-2-1c-1-1 0-1 1-1l-1-1-1-1h-2v-1h-2l1-2v-1-1l1-1 2 1h1l1-2h1l2-1 2-1h1l2 1h2l2 1c0 1 1 1 0 0h1l2 1 1-1h11v-1l-1-1h-1v-1c1 0 2 0 1-1l1-1h1l-1-1v-1h5l3-1h2l4-1h2l1-1h4l1 1v2h5v1h2l2-1 3-1v1l1 1 3 2 3 3 1 1 1-1 1 1h6l1 1 2 1 1 1h3l1 1-2 1h-1l-1 2v1l-3 1-2-1-2 3v1l-1 1-2-1-3 1 1 1v1l1 2-1 2s0 0 0 0z" id="Kazakhstan" />
                <path d="M551 118l-1-1h-1v-1l-2-1-3-2h-2l-2-1-1-2v-1l-2-1h-3v-1l-1-1-1-1h-2v1h-1l-1 1-1 1h-2v-8l6-1 6 3 2 1h6l1 1 1 1h1v2h1l1 2h2v1c1 0 2 0 1-1l1-1 2-1h2l1-1c1 1-1 1-1 1l-1 1h1l1 1 1-1 1 1h1c1 0 2 0 1 1h-1l-1 1h-2-1v-1l-1-1-1 1-1-1v2h-2 1l-1 1h-2v1l1 1 1 1-1 1-1 1v1z" id="Ouzbekistan" />
                <path d="M509 115l-1-1v-1s-1 0 0 0l-1-1h-1l-2 1c0 1 0 0 0 0v-1l-1-1c-1 0 0 0 0 0l-1-1v-1l-1-1h2l1 1v-1-1h1l1 1h1l2-1 1 1 1 1 1 1 1 1h-2v1l-1 1c0 1 0 0 0 0l-1 1v1zm-9-3h3v2l-2-1-1-1z" id="Azerbaidjan" />
                <path d="M537 121l-1-2h-1l-3-2-3-1-2-1h-2l-2 1-2 1-1-1a89 89 0 000-3h-1l1-1c1 0 0 0 0 0l-1-1h-1v-2h2l1 1 1-1c0 1 1 0 0 0l-1-1-1-1h-1l-1 1c0 1 0 0 0 0v-1l3-1 2 1 1 1h4v-1l1-1h1l1-1 1 1h2v2h1l2 1h1l1 1 1 1 2 2h2l1 1 2 1 2 1v1h-2-1l-2 1v2l-3 1-1 1-3-1s0 0 0 0z" id="Turkmenistan" />
                <path d="M567 117h-2-1-2l-1 1h-2v-1-1l-1-1-1 1-1 1h-1l-1 1h-3l1-1 1-1-1-2v-1c-1 0-2 0-1-1h2l1-1s-1 0 0 0l1-1v-1h3l-1 1 2 1h-2-2v1h2l1 1 2-1 1 1h3c0-1 1-1 0 0l1 1h1l1 2v1s0 0 0 0z" id="Tadjikistan" />
                <path d="M559 111h1l1-1h1l1-1h-2l-1-1-1 1-1-1c-1 0-2 0-1-1h1l1-1v-1h3l2 1 1-2 3 1h9l1 1 1 1-3 1-2 1h-2l-2 1h-1-1l-3 2h-1l-2 1h-1l-1-1-2 1-1-1h-2v-1h4z" id="Kirghizistan" />
                <path d="M536 134l2-2-1-2h-1l-1-3 1-2-1-1 1-1 1-2 2 1 2-1 1-1 2-1 1-1 2-1h2l2 1h3l1-1h2v-2h2v3l1 1 2-1 2-1h2v1h-1-1l-3 1-2 1 1 1-1 1v2l-1 1h-2l1 1-2 1-1 2-1 1c-1-1-2 0-2 1h-1l-2 1v2l-4 1h-6l-2-1z" id="Afghanistan" />
            </g>
            <g id="(Ex-Inde)">
                <path d="M552 147l-2-1-1-1v-1h-2-9c-1 1-1 0 0 0l1-2 2-1v-1l-1-1-1-2-2-1-1-2 4 1h3l4-1 1-1 1-2h2l1-1h2l1-2c0-1 0-2 1-1l1-1-1-1 3-1v-1l1-1-1-2 1-1 2-1h6l1 1v1l2 1h1s2 0 1 1l-1 1h-2-5v1l1 1-1 1 1 1v1h2l-1 1-1 1v1l-1 2h-1l-2 3-1 1-1 1h-2-1l-1 1-1 1 1 1v1l1 1 1 1v2c1 0 0 0 0 0h-2-3c1 1 0 1-1 1 0 0 0 0 0 0z" id="Pakistan" />
                <path d="M606 151l-1-4-1 1-1 1v-2l2-1v-1c1-1 0-1-1-1h-3l-1-1-1-1h-3l1 1 1 1-2 1 1 1v1l1 2 1 3h-1-2l-2 1v1l-1 2h-2l-2 2-2 2-3 2-1 1-2 1-1 1-1 1v3 2l-1 4v2l-1 1-1 1c1 1 0 1-1 1l-1 1-1 1-2-1v-1l-3-6-1-2-1-4-2-4-2-8 1-2-1-2v-1l-1 1v1l-3 1-2-2-2-1 2-1h1l-1-1-4-1c-1-1 0-1 1-1v-1h5v-1-2l-2-1v-1l-1-1 1-1 1-1 1 1 2-1 1-1 1-1 1-1 1-2 1-1 1-2 1-1 1-1h-1l-1-1-1-1v-1-1-1h7v-1h2v1l2 1-1 1 1 1 1 1v1h-2l1 2c-1 0 0 1 0 0l1 1 2 1h1v1l-1 1v2h1l1 1 2 1 1 1h4l1 1 1 1h7l-1-2 1-1 1 1v1l1 1 2-1 4 1-1-2h1l3-2 1-1 2-1h3l1 2c-1 0 0 0 0 0h2l-1 2v1h-2l-2 1v2l-1 1-1 2-1 1h-1v2 1l-1 1h-1z" id="Inde" />
                <path d="M580 187l-2-2v-4-1l1-1c-1-1 0 0 0 0l2 2v1l1 2c0 2-1 3-2 3z" id="Sri Lanka" />
                <path d="M581 133h3l1 1 1 1h2l1 1 1 1h1l1 1h5v2l-1 1h-2-1-2-1l-1-1-1-1h-4l-1-1-2-1h-1l-1-1v-1l1-1 1-1z" id="Nepal" />
                <path d="M598 140l2-3 2 1h2l1 1v2l-4-1-2 1-1-1s0 0 0 0z" id="Bhoutan" />
                <path d="M605 153l-1-2c0-1 0-2-1-1h-1c0-1-1-1 0 0v1l-1 1h-1-1l-1-1v-4l-1-1v-1l1-1-2-1 1-1h2l1 1 1 1h4v2l-2 1v1l1 1 1-2 1 2v4h-1z" id="Bangladesh" />
            </g>
            <g id="Indochine">
                <path d="M634 168l2 1v-1h3v4l-1 1-2 1v2h-1l-2 1h-1c-1 0-2 0-1-1h-1l-1-1v-2l-1-1 1-2 1-2h4z" id="Cambodge" />
                <path d="M606 151h1v-2l1-1v-1h2l1-2v-2l1-1 1-2h2c1 0 2 0 1-1l1-1 1-1 1 2 1 1v2l-2 2-1 1v2l2-1 1 1 1 2h1l-1 2h1l2 1h1l-1 1-1 2h-2l-1 1h-2v2l-1 1 1 2 1 1 1 1c1 1-1 1-1 2v1 1l1 2 1 2 1 3-2 2v2l-1-2 1-2v-1l-1-3-1-3-1-3-1-2c0-1-1-1 0 0l-2 2-1 1h-1l-1-1-1 1v-1-4l-1-2h-1l1-1-1-1-1-1-1-1v-1-1-1z" id="Birmanie" />
                <path d="M627 150h4l3-1h3v1l2 2h1l-1 1-1 1-1 1-1 1-1 2 2 2 1 2 2 2 1 1 1 2 1 4v3l-2 2-2 1h-1v1l-1 1-2 1-2 1 1-3-1-1h1l2-1v-2l3-1v-3-1-5l-2-1-4-5-2-1 1-1 1-1-1-1h-2l-1-2-2-2h0z" id="Viet-Nam" />
                <path d="M627 186l2 2 1 2v3l1 2 1 2h-2l-3-2-1-2-2-2v-2l-1-2 1-1 1 1v1h1l1-1v-1zm17 10l1 1h3l-1-1 1-2 4-1 1-1 1-2 1 1h1v-2h1v-1l1-1 1-2h1l1 1v1h2v1h2l-1 1-1 1v1h-5l-1 2-1 1v2l-3 1h-2l-1 1h-4-1l-1-2z" id="Malaisie" />
                <path d="M627 186v2l-1-1h-1l-1-1h-1c1-1 0 0-1-1v-1l-1-1-1-1h-1l1-4v-1l2-3-1-2v-2l-2-2v-2l1-1v-1-1l-2-2-1-1 1-1v-2l1-1h2l2-1h1v2h1v4h1l2-1h1l1-1h2l1 3 1 2 1 3-1 1h-3l-2 1-1 2 1 2h-1l-2-1h-1v-2l-2 1v1l-1 2-1 4v2h2v2l1 3h2l1 1s0 0 0 0z" id="Thailande" />
                <path d="M634 168l1-1-2-4v-2l-1-2h-2l-1 1h-2l-1 1h-1l1-3-1-1h-1l-1-2 1-1 1-2 1 1v-2l1-1 2 2 1 2h2l1 1-1 1v1l3 4 2 2 2 2v3h-3v1h-2v-1z" id="Laos" />
            </g>
            <g id="Iles oceaniennes">
                <path d="M654 190l1-1h1v2h-1l-1-1h0z" id="Brunei" />
                <path d="M714 206v8 6h-1l-1-2-3 1 1-2-1-1v-1l-1-1-2-2a52 52 0 00-6-2l-1-1-1-2-1 1-1 2v-2l-1-1-1-1 1 1 2-1h1l-1-1h-2l-1-1h-2v-2l2-1 4 1 1 2v3h1l2 1 1-3h2l1-1h2l6 2h0zm-23 3l-2-2c-1 0 0 2-1 1l-1-1h-2 4l2 1v1zm-9 0l-1-1 1-1 1 1-1 1zm26 10c-1 0-2 0-1-1l2-1v1l-1 1s0 0 0 0zm-34 0h-1l-2 1h-3l-1-1h6l1-1v1zm-11 0v-1l1 1s0 0 0 0l1 1h-2-3v-1h3s0 0 0 0zm-7 1l-1-1h1v1zm-25-20l-1 1 1 1 1 1 1 2v1h1l1 1 1 1v2l-1 3-1-1-1 1c0-1 0 0 0 0h-1l-4-4-1-1-2-3-1-1-3-4-1-1v-2l-2-2-1-1-1-2-2-1-2-3h2l2 1h1l2 1v2l3 2 1 1 2 1v-1l2 2 1 2h2l1 1zm53 0v-2-2l1 1-1 1c1 1 1 0 1-1h1v1 1c1 1 0 1 0 0l-1 1 1 2h-1l-1-2h0zm-47 7l-1-1-2-1 1-1h1l2 2-1 1zm-3 8h1l1-1h5l1 1 1 1h3c0-1 0-2 1-1h1l2 1 1 1 2 1h1v1c1 1 0 0 0 0h-6l-3-1-3-1h-5v-1l-3-1zm41 8l1-1 3-2 2-1h2l-1 1-4 2-2 1h-1zm-7 0l-3-1c-1-1 1-1 1-1h1l2 2h-1zm-6-32v1l-1 1 1 1v2l1 1 1 1h-2l-1 2v2l-1 1-1 1v1 1l-1 2-3 2v-2h-1c-1 1-1 0-2-1h-1l-1 1h-1v-1h-3l-1-1v-2l-2-2v-1-1l-1-1 1-2 1-1 1 2h4l2-1 2 1 2-1 1-2 1-1v-2l1-1h4zm5 9l1-2h9l1-1c0-1 1 0 0 0l-1 2h-8l-2 1 1 2 1 1h1l1-1h3v1h-1l-2 1-1 1 1 1 1 1v2l1 1-2 1h-1v-2l-1-1v-1h-1v5l-1 1-1-1v-1-2l-1-1-1-1 1-1 1-2v-2-1l1-1z" id="Indonesie" />
                <path d="M668 168l-1-2v-2h1v-2l1-3h2l1 1v3l-1 1-1 1v2l1 2h3s0 1 0 0c1 0 2 0 1 1v1c1 0 0 1 0 0l-1-1-1-1v1l-2-1-2 1-1-1 2-1h-1-1s0 0 0 0zm2 5l-1-2-1-1 2 1v2s0 0 0 0zm9 2l-1-1-1-1v-1l2 1v2s0 0 0 0zm-8 2l1-3h2l-1 2-2 1zm-6 1v-1l1-2v2l-1 1s0 0 0 0zm9 2l-2-1 1-2 1-1v4zm-13 1l1-1 2-1c0-1 0-1 0 0l-1 1-1 1h-1zm20 4l-1-1-1 1v3-1h-1l-2-2v-2h-1l-2 1v-1l-1 2v-2l1-1 1-1 1 1h1l2-1v-1h1v-1h1l1 2v4z" id="Philippines" />
                <path d="M733 214h-1l-2-1h4l2-1 1-1v-1h2v1l-1 1-1 1h-1l-2 1h-1zm-19 7v-5-1-3-6l4 2 2 1h2l2 2v1l2 1 2 1 1 1h-1l-1 1 3 2 1 2h1v1l1 1 1 1 1 1h-1l-1-1h-3l-2-1-2-2-1-2-3-1h-2v1l-1 1h-2l2 1-2 1h-3z" id="Nouvelle Guinee" />
            </g>
            <g id="Extreme orient">
                <path d="M660 89l-2 3-1 1 2 1h3l1-1 3 2v1h-1l-4 1h-1l-2 2h-3c-1 1-1 2-2 1h-3-1l-1 2c1 0 2 0 1 1l-2 1-2 1-3 1h-3l-5 2-1-1h-3l-3-1-4-1h-8l-3-3h-1l-4-2-5-1 1-1v-2l-2-2-2-1-3-1v-2h3l4-2 3-1 4 1 2 1h5l2-1-1-1 1-1 1-2 4 1 4 1v1l2 2 3-1h4l4 2h2l5 1 3-1 3-1h6z" id="Mongolie" />
                <path d="M644 160l-2-1v-2l2-1h2l1 1-1 1-1 1-1 1zm-17-10l-1 1 1 2h-2l-1-1h-1l-1-1-1-1 1-1-2-1v-2l-1 1h-2v-2l2-1 1-3v-2l-1-1-2-1h-1-2l1-1-1-1-2 1-2-1-2 2-3 2-1-1-3-1-2 1-1 2v-2h-2-3-1s0 0 0 0l-2-1h-1l-1-1-1-1h-1l-1-1-2-1-1-1-1 1-1-1h-1l-1-1-2-1c0 1-1 0 0 0l-1-1c0-1 0-2 1-1h1v-1l-1-1-1-1 1-1-2-1v-1l-1-1h-2l-1-1-1-1-1-1h-1-1l1-1v-1-1l-2-1h-1l1-2 1-1 3-1h2l1-1 3-1 3-1 1-1v-2l1-1-1-2h-1l1-1 3-1 2 1v-1-2l2-2h5v-1-1l2-1 1-1h2l1 2h3l2 1 1 3-1 2 2 1h5l3 2 2 2 2 1h4l7 1 2 1h3l2 1 2-1 4-1h3l3-1 2-2c1 0 2 0 1-1l-1-1 2-1h4l2-1 3-1 1-1h2l3-1h1v-1l-2-2-2 1h-3-1v-2l2-3 1 1 3-1h2l-1-2 3-2 1-1-2-1 2-1 4-1 4 1h2c2 0 2 1 2 2l3 5 2 1 4 1 1 2 1 1h3l5-1v1l-1 1-3 5h-2-1l-1 1v3l-2 1h-1l-1 1h-3v1c1 1 0 1-1 1l-2-1-1 1-4 2-1 1-3 1-3 2s-1 0 0 0l1-1-1-1 2-1-1-2-2 1-2 1-2 1-1 1h-1l-1 1 1 2h2v2l2-1 2-1 2 1h2c-1 1 0 2-1 1l-3 1-1 1h-1v1l-2 1 1 1 2 2 1 2v1l1 1 1 1v1l-1 1-2 1c-1 0-1 0 0 0h2l1 1-1 1 1 1-1 1-1 1-1 2-1 1h-1v2l-1 1-1 1-1 1-1 1-1 1h-2l-1 1-1 1h-4c0-1-1-1 0 0l-1 1-1 1h-2-1l-2 1h-1l1 2h-1l-1-2v-1h-2-1-1l-3-1 1-2h-2l-1-1-3 2h-4-1z" id="Chine" />
                <path d="M704 117h2l-1 1h1l3-1 1-1 1-2 1-2v-2l1-1h1v-1l1 1v1l1 2-1 2-1 1v2l-1 1v3l-1 1c-1 1-1 0 0 0l-1-1-1 1-1 1-1-1c0 1 0 2-1 1h-3v1c1 0 0 0 0 0l-2 2-1-1v-1-1h-2l-2 1h-2-1l-1 1h-2l1-1 3-3 1 1 5-1h1l1-1 1-1v-2zm-9 11l-1-2 1-1h2l1-1 2 1-1 1h-1l-2 1-1 1zm-4 3v-1l-1 1v-1-1l1-1-2-1c0 1 0 0 0 0v-1h1l1-1 2 1v2l-1 2-1 1zm21-23v-1l-1-1 1-1 1-1h1l1-1 1-1-1-2 1-1 6 4 2-1-1 1 1 1-3 1-2 1-1 1c-1-1-2-2-3-1h-3l1 1h1l-1 1h-1z" id="Japon" />
                <path d="M669 151l-1-1-1-3 2-2 2-1v1l-1 2-1 3v1s0 0 0 0z" id="Taiwan" />
                <path d="M685 114l-1 1-2 1h-1-1l-1 1-1-1c-1-1 0-2 1-2v-1l-1-1h-1v-1l3-2 2-1h3v-1h2l1-1 1-1 1 1-1 2-1 2-3 1-1 2v1h1z" id="Coree du Nord" />
                <path d="M681 116l2-1h3l2 3v3l-1 1-2 1h-1l-2 1-1-1v-2l1-1-1-1v-1h1l-1-2z" id="Coree de Sud" />
            </g>
        </g>
        <g id="Oceanie">
            <path d="M727 297l-3-1-1-2h1c-1-1-2-1-2-3h1l3 1h3l1-1v2l-1 2-1 1-1 1zm-10-73l1 2 1 1v3l1 2h1l1 1 1 1 1 2v2l1 3 1 2 2 1 2 1 1 1 1 1v1l2 2c0 1-1-1 0 0h1l1 3 2 1 1 1 1 2 1 1v2 2l1 2-1 4v2l-2 2-1 1-1 2-1 2v1l-2 2v3c0 1-1 2-2 1l-3 1-2 1-1 1h-1l-1-1-1-1h-1c1 1 0 1-1 1l-2 1-3-1h-1l-3-2-1-1v-3l-1-1-2 1v-1-2h-1l-1 2h-1l1-1v-2l1-1v-2 1l-1 1-2 1-1 2h-1l-2-3-1-1v-1l-1-1h-2-1l-2-2-2 1h-5l-3 1h-3l-3 2-2 2h-7l-2 1h-2l-2 1h-3l-3-1v-2h1v-5l-1-3-2-5v-1l-2-2c-1-1 0-1 0 0h1v-1c-1-1 0-1 0 0l1 1v-1c0-1-2-2-1-4v-2-1l1-2v1l1-1 3-2 3-1h2l2-1h1l3-1 2-2 1-2v-2l1-1 2 2v-1-1h2v-1-1h1l1-1v-1l2-1h1v-1h2l1 2v1l1-1h1l2 1v-1l-1-1 1-1 1-1 1-2c1 0 1 0 0 0h2l3-1-1-1-1-1 2 1 2 1h4l1 1h1v1l-1 1-1 1v1l-1 1 3 2 2 1 2 2h2l1 2 2-1 2-3v-2-2-1-2l1-1v-1-2l1-1z" id="Australie" />
            <path d="M790 283l1-1 1 1v1l3 1 2-1v2h-1l-1 1-1 1v1l-4 4-1-1 1-2v-1l-3-1 1-1 1-2v-1-1l-1-2-1-1v1l-2-2v-1-1 1h1l1 1h1v1l1 1v1c-1 0 0 0 0 0l1 1s0 0 0 0zm-7 15h-1c0 1-2 0-1 1v1h-1v1l-1 2h-1l-2 1h-1l-2-1h-2v-1h1v-1-1l1-1 2-1 2-1 1-1h2l1-1v-1l2-1 1-2h1l1 1h1l1 1-1 1-2 2-1 1 1 1h-2s0 0 0 0z" id="Nouvelle-zelande" />
        </g>
        <g id="Amerique">
            <g id="Amerique du Nord">
                <path d="M106 82l-1-2h2v1l-1 1zm19 10l-3-1c1 0 1 0 0 0h-1l-1-1-1-1h-1l-3-2h1l5 1 2 2 2 1 1 1h-1zm146 0h-1l2-1-1-1 4-4h1v1l-2 2h3v1l2 1 2-1v2h1v1h-1l1 1h1v1l-1 1-1-1h-1l1-1h-2l-1 1-2 1 2-1 1-1h-3-6-1c-1-1 0-1 1-1l1-1zm-6 7l-1-2 2-1h1l-1 1-1 1 2-1 1 1-3 1zm-54-39v-1h-4l1-1c1 0 2 0 1-1l1-2 1-1v1h3l3 1 2 1v1h3l-1 1h-3l-2-1h-1l-1 1h-2l-1 1zm-11-41h-2l1-1h9l1-1h5l6 1h3l-1-1h-3l2-1h5l5 1 1-1h-2l3-1 3 1h2v-1l4 1h1c-1-1 0-1 1-1l6 1h10l3 1h-1l-3 1h-9l1 1h4l-4 1-4 1h-3v1l-4 1-4-1-1 1h3-9v1h5v1l-2 1h-1v1h-5v1h-7c-1 0-1 0 0 0l6 1h3l-1 1-5 1-2-1h-1l-2-1v1l-4-1v1h-7-3-1l1-1h2l2-1-2-1h1l4 1h5c1 0 1 0 0 0l-3-1v-1h-4v-1h11l-5-1-3-1-2-1h6l4 1h2l-3-1h1l3-1h6l-6-1-4 1h-7v-1-1l-5 1h-4v-1h-2zm0 2h2l1 1 1-1 2 1 1 1h2l2 1h-2l-3 1h-2-1c1 1 0 1-1 1l-2-1-1 1h-4l-2-1-2-1h8l-4-1h-3l-2 1-2-1-2-1h3v-1h2l-1-1c-1 0 0 0 0 0h3v-1l4 1 3 1zm-21 6h-2l-4-1h-6l1-1h3l-2-1h-3 5l3 1c1 0 4-1 5 1l1 1h-1zm7 0l-4-1c-1-1 0-1 1-1h3l3 1-1 1h-2zm-29 0l-2 1h-5l-1-1h8zm-24 4h-3-2c-1-1 1-1 1-1l2-1 3-1h8v1l-1 1h-2l-2-1-1 1-1 1h-2zm59-1h-4l-3-1h6l1 1s0 0 0 0zm-47 2l-3-1h1l3-1 3 1h2l3 1h4l-1-1-2-1h4l1 1h2l1 1 1-1 2 1v1h-8l-4 1-4 1-3-1h1l3-1h2c1 0 0 0 0 0h-13l1-1h4zm33 1s-1 0 0 0v-1h-5v-1h2v-1l3 1v-1h-1 5l1 1v1 1h-3-2zm22-2h-2 1l3 1h5l2 1 1-1 5-1 4 1h4v1l-1 1h-6l-1-1-1 1h-5-4l-1-1-2 1h-4-1l-1-1v-1l-1-1-1-1h7l-1 1zm-72 11h-2l-3-2h-2l1-1v-1l2-1 1-1-1-1c-1 0-1 0 0 0h13l5 1h2l-2 1-6 1-2 1-1 1-2 1-2 1h-1zm62-2l-1-1-1-2 1-1c1 0 1 0 0 0l2-1 4 1h5l-2 1-2 1h-5l1 1-1 1h-1zm-9 2l-4-2-3-1-2-1h4l2-1h-1l-1-1h9l-1 1h-2l1 1h3v1l-1 2-3-1v2h-1zm63 18h-2v-1l-2-1-2-1h-1l-2-1v1h-8l1-1 1-1h8v-1l-2-1h2l2-2h1l-1-2-2-1-2-1h-3-2 1l2-1-4-1-1-1h-2l-2-1h-2c-1 0 0 0 0 0l3 1v1l-3-1h-2l1 1h-5l-3-1h-4l-1-1-2 1-3-1v-1h3l-3-1h-2l1-1-1-1 1-1 2-1 2-1h5l-3 2v1l1 1 1 1h1l-1 1h3l-1-1-2-1 2-1 1 1-2-1v-1h3l-2-1 5-1h2l3 2-2 1 1 1h2l1-1 1 1h1l1-1h7l1 1-1 1s-1 0 0 0h2l1 1 2-1h1l2 1h-1 2l1 1h4l-2 1c-1 1 1 1 1 1l2-1 3 1h-3l1 1h1-2v1h-1l1 1h3l1 1h3l2 1h-1l1 1h2c1 0 0 0 0 0h3l2 1-2 1h-1c-1 0 0 0 0 0v1h-2l-1 1v1l-1-1h-2v-1l-1-1-4-1-1 1s2 0 1 1l-1-1h-1l1 1 2 1 1 1h1l2 1v1l1 1c1 1 0 0 0 0l-1-1 1 2h-1v1l-2-1-3-1-1-1-1 1-1-1c0 2 2 2 3 2l3 3-5-1-3-1-2-1s0 0 0 0zm-98-21l3-1h3v1h4l-1-1 4 1v1h2c1 0 1 0 0 0l-1-2 1-1 3 1 3 1 1 2v1l4 1 3 1 1 1h-3-2l1 1h2v1h-3l-6-1h-2-1l-2 1h-3l-5 1h-2l-2-1v-1h-6l-2-1v-1h12v-1h-13l-2-1h5l2-1h-7v-1l2-1 2-1 4-1h2l-1 2s0 0 0 0zm105 61v-1l-1-1v-3h-2-1l-3 4h-1l-1 1h-7-1l-3 2-1 1h-5v2l-4 1-4 1-1-1 1-1 1-2-1-4-2-1-1-1h-2l-1-1-7-3h-3-3-1-1-1l-1-1h-2l-2-2v1h-63v-1h-2l-1-1-1-1h-1l-2-1h-1l-2-1 1-1h-2l2-1h-1l-1-1-1-1-1-1c1 0 0-1 0 0h-2l-1-2 1-1-1-2-1-1-2-1-3-3-4-3-1-1-3 1-1 1-4-2-1-1h-3l-1-2V53v-7l1-1 4 1 5 1h2l-1-1h1l2-1h5l3-1h3l-3 1-3 1-2 1c-1 0 0 0 0 0l2 1v-1l3-1h2l3-1 3-1-2-1 3 1 2 2h2v-1h2v1l3-1 7 1 5 1h4l4 1h-1l-2 1h10l3 1h3v1l1 1s1 0 0 0c1-1 2 0 1-1l-1-1 1-1h3l2-1 3 1 4 1 2-1h6l2 1v-1h-2l1-1 3 1 1 1v1h2l-1-2h2l2-1 1-1h-2s-1 0 0 0l1-1 2 1v-1l-3-1h-4v-1-1c-1 0-2 0-1-1h2v-1l1-1 4 1 1 1 1 1 2 1h-2v1h3l1 1v1l1 1 1-1 2-1 2 2h-1l1 2 2 1 1-1 1-1 1-1 2-1h1l-2-1v-1h3l4 1h2l-1 2-2-1v1l3 2-1 1-2 1h-2l-3-1v1l2 1h-2l-2-1h-2c-1 1 1 1 1 1v1l-4 1-2-1-3-1-1 1 3 1 5 1-1 1-4 1-1-1v2l-4-1h-4l3 1 3 1h-4l1 1-1 1-2 1-1 1-1 1-1 2v2l1 1h2l2 1v2h4l3 1 3 1 2 1 4 1h5l2 1v4 1l1 1 3 2 2 1v-1h1l1-1v-1l-1-2v-1-1l-1-1 1-1 4-2 2-2-2-2-3-2 1-1c1-1 1-2 2-1v-2l-1-1h-1l1-2-1-1 2-1 5 1 3-1 3 2 1 1 4 1h1v4 1h2l1 1h2l2-1h1v-1l1-1v-1h3l1 1 2 2c-1 0 0 0 0 0l1 1 1 1v1l1 1h-2l1 1 2 1 1 1v1h3l3 1h1-2l-2 1-2 1v1l3-1 3-1v1h1l2 1v1l1 1-1 1-3 1h-2l-4 2h-14l-2 2-3 1-3 3-2 2s0 0 0 0l3-2 3-2 6-1 3 1-1 1h-4l2 1h1s1 0 0 0v1c-1 0 0 0 0 0l1 1 1 1 1 1c-1 0-1 0 0 0h3l2 1c0-1 1 0 0 0 0 0 2 0 1 1h-1-3l-1 1h-2s-1 0 0 0l-1 1-1 1h-1s0 0 0 0l-1-1v-1c1 0-1 1 0 0 0 0 1 0 0 0l3-2 1 1 1-1c1 0 0 0 0 0h-3l1-1c1 0 0 1 0 0-1-1 0 0 0 0l-2 1h-1l-1 1h-2s0 0 0 0zm-65-52h-2l-4-1 2-1 1-1 3 1 2 1s0 0 0 0l-2 1zm45 3l-2-1 1-1 2-1 2 1-1 1-2 1z" id="Canada" />
                <path d="M60 73h-2l-1-1h4l-1 1zm-20 5v-1l2-1h2l-1 1h-2l-1 1zm-2 0v-1 1zm0 0l-2 1h-1v-1h3zm-8 3v-1l1 1h-1zm-2 1l-2-1h1l1 1zm26 76v-3h1l1 1v1l-2 1zM23 60l-4-1v-1l2 1h3l1 1h-2zm77 11v1h-1-1v-1h2zm1 3h-1v-1h1v1zm6 4l-3-2v-1l1 1 1 1 1 1s0 0 0 0zm33 50v-1l-2-2-1-1h-2l-1-1h-1l-1-1v-1l-1-1-1-1v-1h-1l-1-2 1 1v-1h-1l-1-1-2-2v-1l-1-2 1-2c0-1-2-2-1-4l1-1-1-1 1-4v-1c1 0 1 0 0 0v-1c1 0 0-1 0 0l-1-2-1-1h5l-1 2h1l1-2-1-1v-1h62v-1l1 2h3l1 1h11l6 3 1 1h1l1 1 2 1 1 4-1 2-1 1c0 1 1 2 2 1l3-1 4-1v-2h4l1-1h2l2-2h7l1-1h2l2-2 1-2h2l1 1v3h1v2h-1-1l-1 1c-1 0 0-2-1-1v1h-1l-1 1h-1l-1 1 1 1-1 1 1 1h1s-1-1 0 0h-1-1l-1 1v-1l-1 1-4 1h-1v1c-1-1 0 0 0 0l-1 2v1h-1l-1-1c-1 0 1-1 0 0v1l1 1-1 1-1 2s0 1 0 0v-1-1c-1 0 1-1 0 0l-1-1c1 0 0 0 0 0v-1s1 0 0 0l1-1h-1v1 1l-1 1h-1v-1c-1 1 0 1 1 1l1 1h-1c0-1 0 0 0 0l1 1s0 0 0 0h-1l1 1-1-1 1 1h1l1 2-1-2v2h-1s0-1 0 0h-1 1l1 1c0-1 0-1 0 0h-1-1-1l2 1h-1c-1-1 0 1 0 0h1l-1 1-2 1-1 1c-1 0-3 0-3 2l-2 1-2 3v2l1 4 1 3 1 1-1 2v1h-1l-1-1-1-1-1-1-1-1v-1-2-1l-1-1-2-2-2 1-1-1h-4-1l-1-1-1 1h-2-2 1v1l1 1c1 0 1 1 0 0h-2-1-1l-2-1c-1 0 1 0 0 0h-6l-1 1c0 1-1 2-3 1v1l-2 1v5l-1-1-3-1-1-2-2-3-2-2-3 1-1 1-3-2c-1 0 0-2-2-2l-2-2h-4l-1 1-5-1a179 179 0 01-10-2h-4zm-90 25l-1-1c-1 0 0 0 0 0l1 1zm3 1l-1-1 2 1h-1zm59-77l-2 1v-1l-1-1h-2v-2l-2-1-1-1-1-1-1-1-1-1-1-1v2h-1l-1-1h-2l2 1h-2l-3-1-3-1 1-1h-5-5l-3-1h-1l-1-1-4-1c-1 0-2 0-1 1 0 0-2 0-1 1h1l-1 1h-3l-2 1-2 1 1-1v-1l1-2h4l-1-1h-2l-2 1-2 1-1 1-2 1-1 1h1v1l-2 1h-2l-2 1v1l-1 1h-3l-1 1-3 1c-1 0-2 0-1-1l1-1h2l1-1 2-1 1-2v-1l-2 1-2-1v1l-2-1h-2l-1 1c-1 0-2 0-1-1v-1l-1-2-3 1h-1l-2-1v-1h3l-1-1h-4l-1-1 2-1 1-1 1-1h4l1-1h3l-1-2h1c1-1 0-1-1-1h-2l-2 1h-5l-3-1 1-1h1l-5-1 4-1 4-1h2v1h8l-1-1h-3l-1-1h-3l-2-2-5-1 1-1h5l2-2 3-1h3l1-1s-1 0 0 0l5-1h4v1l2-1h5c1 1 1 2 2 1h6l5 1h8l5 1v21h5l1 1 3 2 1-1 3-1 1 2 4 2 3 3 3 2 1 1s0 0 0 0z" id="USA" />
                <path d="M184 143l-1 2v7l2 2 1 2 1 2 3 1 1 1 4-1h2v-1l2-2v-1l1-2 4-1h2l1 1c1 1-1 1-1 2l-1 1 1 1-1 2v-1l-1 1-1 1h-5v2c-1 0 0 0 0 0l1 1v1h-2l-1 2v1h-1l-4-3h-2l-3 1-3-1-3-1-4-1-2-2h-2l-2-1-3-2-1-2v-1l1-1-1-2-1-1-2-3-2-2-1-1-1-1h-1v-2h-1l-1-1-1-2-2-1-2-2-2-3v-1l-1-1h-3v1l1 2 1 1 2 3 1 1 1 1 1 1 1 1 1 2v3h2l1 1v1l-1 1-1-1-1-1-3-2v-2l-1-1-1-1-2-1-2-2h2v-2l-3-2-1-1-1-2-1-1v-2c-1 0-1 0 0 0h4l3 1 6 2h6v-1h4l2 2 1 1 2 2h3l1-1c2 0 3 0 3 2l3 3 1 2 3 1 1 1z" id="Mexique" />
            </g>
            <g id="Amerique centrale">
                <g id="Iles antillaises">
                    <path d="M218 150h1-2l-2 1-2 1v-1-1l3-1h7l2 1 3 2h2l2 1 1 1h2l1 1-2 1h-4-2l1-2h-3v-2h-2l-4-1-2-1z" id="Cuba" />
                    <path d="M229 161l-2-1v-1h3l1 1h-1l-1 1z" id="Jamaique" />
                    <path d="M241 156v4l-1-1h-2l-2 1-1-1h5l-1-1-1-1-1-1h4s0 0 0 0z" id="Haiti" />
                    <path d="M241 160v-1-2l1-1h3l1 1 2 2v1l-1-1h-3l-2 1s0 1 0 0h-1z" id="Rep Dominicaine" />
                    <path d="M265 176v1l-2 1v-1c1 1 0 0 0 0l1-1h1z" id="Trinite et Tobago" />
                    <path d="M252 160l-1-1h4l-2 1h-1z" id="Porto Rico" />
                </g>
                <path d="M214 176l2 2 1 1h-1l1 1-1 2v-1h-1c1 0 0 0 0 0v-1l-2-1-1-1-1-1 1 1h-1l-1-1v-1-1l2 1h2s0 0 0 0z" id="Costa Rica" />
                <path d="M204 159l1 1v1l-1 2-1 1-1 1v-2-3h2v-1z" id="Belize" />
                <path d="M200 169h-2l-2-1v-3l2-1h1v-1l-1-1c-1 0-1 0 0 0l1-2h3v5h2c-1-1 0 0 0 0l-2 2v1l-1 1h-1z" id="Guatemala" />
                <path d="M204 165h10v1l1 1-2 1h-1l-2 1h-1l-1 1-2 1v-1l-1-1h-1l-1-1c-2 0 0 0-1-1l1-1 1-1z" id="Honduras" />
                <path d="M206 170l-1 1-4-1v-1l1-1 1 1h3v1z" id="Salvador" />
                <path d="M210 175l-2-2-2-2h1l1-1 1-1h1l2-1 1-1h2v3l-1 2v4h-1l-2-1h-1z" id="Nicaragua" />
                <path d="M217 179l1 1h5l1-1h1c2 0 3 1 3 2l1 1-1 1v1c-1 1-1-1-1-1v-1-1h-1l-1-1h-1l-1 1-1 1 1 1-2 1v-1h-1l-1-1h-2-1l1-1-1-1c0-1 0-2 1-1 0 0 0 0 0 0z" id="Panama" />
            </g>
            <g id="Amerique de Sud">
                <path d="M242 174h-1l-1 1-1 1-1 2v2h1l1 2v2l1 1h4l1 1h5l-1 2v1l1 3v1l-1 1 1 1-2 2-3-1v2l1 1h-1l-1 1v1l1 1v2l-1 5-1-1c-1 1 0 0 0 0l1-2-2-1h-1l-2 1-2-1v-1l-1-1-2-1-2-2-2-1-2 1-1-1-3-2 1-1v-1h1l2-3v-2l-1-2 1-1v-1l-2-2 1-1 1-1v-1c-1 0 0 0 0 0 0 1 0 2 1 1v-1l1-2h2v-2l2-1s0 1 0 0l1-1 2-1 2-1h2v1z" id="Colombie" />
                <path d="M266 189l-1 1-3 1-1 1h-2l-2-1 1 1 1 3h1l-1 1-1 1-3 2v-1h-2-1l-1-3-1-1 1-1-1-3v-2l1-2h-2l-2 1-2-2-2-1h-3v-1-2l-1-1c-1 0-2 0-1-1l1-2 1-2v-1h2c1-1 0 0 0 0-1 0-2 0-1 1v3 1l1 1 1-1-1-2v-1l1-1h2v-1l-1-1h1l1 1 2 1 1 1h2l3 1 3 1 2-2h3l-1 1 1 1s0 1 0 0h2l1 1v1l-1 1h4l-1 2-1 1v1l-1 1-1 1 2 2z" id="Venezuela" />
                <path d="M286 191l-1 1-2 3h-2-1v-1-2-2l1-3 3 2 2 2s0 0 0 0z" id="Guyane francaise" />
                <path d="M275 196l-1-2-1-1-1-1v-2l1-1 1-1v-1h7l-1 2v2l1 1-1 2-1 1h-3v1h-1z" id="Surinam" />
                <path d="M266 189l-2-2 1-1 1-1v-1l1-1 1-2 1 1c1 1 2 1 1 2 0 1 0 2 1 1h1l2 2-1 2h-1v2l1 2 1 1 1 2h-2l-2 1h-2l-1-2-1-1 1-3-1-1v-1h-1s0 0 0 0z" id="Guyana" />
                <path d="M222 208l1-2v-1l-1 1-1-1v-1-2l1-1 1-1-1-2h2l1-1 3 2 1 1 2-1 2 1v3l-3 3-4 3-1 2-1-1h-2v-2s0 0 0 0z" id="Equateur" />
                <path d="M246 224l2 4v3l-1 2v2 2l-1 2-1 1v1l-1-1-2-1-2-1-4-2-5-5v-2l-2-3-1-2-1-2-3-5-2-3h-2l1-1-1-3 2-2v2h2l1 1 2-3 3-2 3-3v-2-1l2 2 2 1 1 2c1-1 0 0 1 1h3l1-1 2 1-1 3h1v1h-2-2l-2 1-1 2v2l-2 1 1 2 2 2v1l1 1h1c1 1 2-1 3-1v3l1 1 1-1z" id="Perou" />
                <path d="M279 257l1-3-1-1h-1l-1-3-2-1-1 1-2-1v-3-3l1-3-2-1v-2l-1-1h-3v-3l-1-2-1-1h-2l-1-1-2-1h-2c-1-1-3-2-3-4v-2h-3l-2 2h-3l-3 1v-2-2l-2 1h-2l-1-1h-1v-2l-2-2 2-2v-1l1-2v-1l3-1h3l1-2 1-5-1-2-1-1v-1h2l-1-1v-1c-1-1 0 0 1-1h3l1-1 1 3 2 1 1-1h1l2-1 1-1 1-1h-2l-1-3 1-1h2l1 1 1-1 4-1v-1h1l1 1v2l-1 2 1 2 1 1h2l3-1h2v-1h3l2 1 1-1h2l1-3 1-1h1l1 3 1 2 1 1-3 3-2 3h2l1 1h2l1 1 1-1 1-1 2-1h3l2 2h1l1 1-1 2 1-1 2-1 3 1h4l3 2 4 3 3 1 1 2 1 4-2 4-2 2-1 1-1 2-2 2-1-1v7l-1 4v1l-1 3v1l-2 3-1 2-1 1-1 1h-5l-1 1-1 1h-2l-3 2-2 2c-1-1-1 0 0 0l-1 2 1 1-1 4-2 2-2 3-2 2 2-2v-2h-1l-1 2-1 2-2 3-1 1v-1-1l-2-2-2-2h-1l-1-1-2-1-1 1 6-6 2-2v-2-1h-2zm10-53l-1-1v-2h5l-1 2-2 1h-1z" id="Bresil" />
                <path d="M246 224l2 1 2-1 2-1 2-1h1l1 4 2 2h2l2 1 1 1h2l1 1 1 2v3h4v2l1 1v4l-1 1-2-1h-2-2l-1 1-2 2v1l-1 2h-2l-1 2-1-2h-3l-1 1-2 1h-1l-2-5v-1-2l-1-2-1-3 1-1v-3-1-2l1-3-2-4z" id="Bolivie" />
                <path d="M279 257v2l-2 2h-7l1-2 1-1v-2l-2-1-4-2-3-2-1-2v-1-2l1-2 2-1h5l2 2v4l3 1h2l1 3h2v2l-1 2z" id="Paraguay" />
                <path d="M271 276v-2l1-1v-3-2h3l1 1h2l1 1 2 2 1 1v2l-1 1-3 2h-2l-2-1h-2l-1-1z" id="Uruguay" />
                <path d="M248 317l-1-1-2 1-2 1v2h-2l1-1v-1h-3l1-1h-1v-1h-1l-1-1s-1 0 0 0l-1-1v-1l1-1h-1v-2c0-1-1 1-1-1l1-1v-1h1l-1-1h-1v-1c1 0 2 0 1-1h-2-1l1-1 1-1 1 1-1 1 1-1h1l1-2v-1h1v-1l-1-2 1-1v-1l1-1-1-1h-1l-1-1-1-2 2-2v-2l-1-2v-1l2-2 1-2 1-4v-1l1-1-1-5 1-1v-2-2l1-1 1-5v-1-2-1-2l1-1v-3-5l-1-1 1-1 1-1 1 3 2 1-1 3 1 2 1 3 2 1-1 2-2 1-1 1 1 2-1 1 1 2h-2l-1 3-1 2v2l-1 1v2l1 4c1 1 0 2-1 3v3c-1 0-2 1-1 2v3l-1 1-1 3v4l-1 2 1 1 1 2h1l-2 1 1 1-1 1v3l-1 1v2l-2 2-1 1 1 2h2v2l1 1h4l3 1zm-11-20c-1 0-2 0-1-1v-2l1-1v1 3zm1 21v-1l-1-1h2l-1 2s0 0 0 0zm10 4h-5l1-1h3l-2-1v-1h-1l1-1 1-1h2v5z" id="Chili" />
                <path d="M248 318v-1 1h0zm0-1l-3-1h-4l-1-1v-2h-2l-1-3 3-1v-3l1-1v-2l1-2-1-1s0 0 0 0l2-1-2-1v-2l-1-1 1-1v-2-2l1-3 1-1v-4l1-2v-2l1-2v-4l-1-2 1-2v-1-2l2-3 1-1 1-1-1-1v-1l1-2v-1l2-1 1-2v-2l2-1h1l3 1c0 1 0 1 0 0l1-1h3l3 4 2 1 3 1 2 1-1 2v2l-1 1h7l2-2 1-2 1 1v3l-3 1-6 6v5l-1 2v1 2l2 1v1l1 1v2l-1 2-2 1-7 1-2-1v4l-1 1h-5v3h2s-1 0 0 0c1-1 1 0 1 1h-1-1-1l2 1-2 1-1 2v1l-3 1-1 1c0 2 1 2 2 3h1v2l-2 1-2 2v1l-2 1-1 2 2 3h-1zm0 1l1 1 3 2 2 1h0-6v-1-3z" id="Argentine" />
            </g>
        </g>
        <g id="Afrique">
            <g id="Mahgreb">
                <path d="M396 122l1 1v3l1 2v1h-4l-1 1-1 1v1h-2c-1 2-2 2-4 2 1 1 0 1-1 1h-1l-3 1v3h-10l2-1c2 0 3-2 5-3l1-2v-3l1-2 1-1c1-2 4-1 5-3l1-3h2l1 1 4-1 1 1h1z" id="Maroc" />
                <path d="M381 140v-4l4-1h1l1-1 3-2 2-1v-1l2-1h4v-1l-1-2v-3l-1-1 2-1h1l2-1 3-1h3l2-1h11l-1 1v4l-2 2 1 2 1 1 2 1 1 4v9l1 3 1 1h2l1 2-5 3-5 3-4 3-5 1v-2l-2-1h-1l-2-1-1-1-11-8-8-4-2-1z" id="Algerie" />
                <path d="M426 126v2l-1 1-2 1v2l-1 1-1-4-2-1-1-1-1-3 2-1v-4l1-1 2-1 1 1h2l-1 2 1 1v1l-2 2v1l2 1h1s0 0 0 0z" id="Tunisie" />
            </g>
            <g id="Sahara">
                <path d="M476 131l2 4-1 2c0 1 0 2-1 1l-2-2v-1l-1-1v2l2 2 1 3 2 3 2 3v1l1 2 1 1s1 1 0 0h-26v-12-4-2-1-2h2l4 1h1l2 1 2-1 2-1h2l1 1h4z" id="Egypte" />
                <g id="Soudan">
                    <path d="M453 179v-1l-2-2v-2l-1-2-1-1 1-1v-1l1-2 1-2h2v-1-5-3h2v-3-2h26l1 3 1 4 2 2s1 0 0 0l-2 2h-1v2l-1 3-1 3v2l-2 1-1 3h-1v3h-1s0 0 0 0v-1l-1-2s0 0 0 0l-1-1 1-2h-2v1h-1 1v2l-1 1h-1l-1 1h-1-1l-1-1-1 1s0 0 0 0l-1 1h0s0 0 0 0h-2s0 0 0 0h0-3-1l-1-2h-2v1h-1 0l-1 1h-1z" id="Soudan (contour)" />
                    <path class="carved-out" d="M463 179l-1-1v-1h3v2" id="Soudan: region d'Abiye (taille)" />
                </g>
                <g id="Soudan du Sud">
                    <path d="M476 191l-2 1h-5l-1-1-2-1-1 1-1-1h-1l-2-1v-2l-2-1-1-1-1-2-1-1-2-1h-1v-2h1l1-1h1v-1h2l1 2h4s0 0 0 0h2s0 0 0 0h0l1-1s0 0 0 0l1-1 1 1h2l1-1h1l1-1v-1-1h-1 1v-1h2l-1 2 1 1s0 0 0 0l1 2v1s0 0 0 0h1l-1 1h0v1l-2 1v1l2 1 2 2 2 2v2h-3l-1 1z" id="Soudan du Sud (contour)" />
                    <path class="carved-out" d="M455 178v1s0 0 0 0 0 0 0 0v1l-1 1" id="Soudan du Sud: Parc national de Radom (taille)" />
                </g>
                <path d="M390 145l12 7 1 1 1 2h1l1 1 2 1v1h2v6l-2 2h-4l-2 1-3-1-2 2-1 1h-1l-2 2-1-1-1 2-1 2h-1l-1 3h-1-1l-1 1-2-1h-1l-1-3v-1h-2-1l-1 1-2-1v-2l-1-1v-2-2h2l1 1 1-1h9l2-1-1-1v-2l-2-15v-2h4z" id="Mali" />
                <path d="M456 151v5h-2v1l-2-1-12-6-4-2-3 1-1 1-2-1-3-1-1-2h-2l-1-2-2-2 2-1-1-2v-2-4l1-2v-1l3-2v-1h4l2 1h2l1 2 2 1 4 1 3 1 1-2 1-2 3-2 3 1 1 1h2l1 1v3 18z" id="Lybie" />
                <path d="M363 153l1-3 1-3 3-2 1-3 2-2 1-1h9v3h-1l-6 1v5l-3 1 1 4h-9z" id="Sahara occidental" />
                <path d="M374 167l-3-3h-1l-2-1h-3c-1 1-1 0-1-1l1-4-1-2v-2h-1v-1h9l-1-4 3-1v-5l6-1h1v-2l9 5h-4l1 13 1 5 1 2-1 1h-12-1l-1 1z" id="Mauritanie" />
                <path d="M401 175l-2 1h-3-2v2c1 1 0 1 0 0l-3 1-2-2h-1l1-3 1-1 1-2 1-1 1 1 2-3 1 1 1-1 2-2 2 1v2l2 1v2h2l1 1-1 2h-2l-1 1-1-1z" id="Burkina Faso" />
                <path d="M406 173l-1-1-2-1v-1l-2-2v-1l2-1h5l2-3v-5l3-1 6-4 8-5 4 1 1 1 2-1v4l2 2-1 5v3l-4 4v2l-1 1-2 1-2-1-3 1-2 1-3-1h-2l-2-1h-4v1l-1 2-1 1-1-1h-1z" id="Niger" />
                <path d="M432 171l-1-2v-1l3-4 1-2 1-6-1-2-1-3v-2l2-1 16 8 2 1v8h-2l-1 2-1 2v1l-1 1 1 1v1l1 2v1h-2v1l-3 3h-3l-1 2h-1l-3 1h-1l-2 1-1-2-2-3v-1h3l-1-3-1-3-1-1h0z" id="Tchad" />
            </g>
            <g id="Corne">
                <path d="M495 173l-2-1-1-2-1-1-1-1h-3-3-1-1v-1l1-3v-2h1l2-1h1l1 5h1l1 1h1l2 2 2 1v1l1 1h-1v1z" id="Erythree" />
                <path d="M496 176h-2l-1-1 2-2h1l1-1v1l-2 1 2 1-1 1z" id="Djibouti" />
                <path d="M496 176v1l2 3 6 2h3l-1 2-5 5-5 1-1 1h-2-1-1l-2 2-2-1h-2l-4-2-1-1-1-1-1-2-2-2-2-1v-1l2-1v-2l1-3h1l1-3 2-1 1-4h2l1-1 1 1h4l1 1 1 1 1 2 2 1-1 1v2h2z" id="Ethiopie" />
                <path d="M493 204l-1-2v-8l2-3 2-1 3-1h2l6-6-2-1h-3l-4-2-2-3v-2h1l2 2h1l3-1c1 1 2 0 3-1h3l3-1h2v4l-1 2-2 2v2l-1 2-2 3-5 5-2 2c-3 1-4 3-6 5l-2 3s0 0 0 0z" id="Somalie" />
            </g>
            <g id="Afrique guineene">
                <path d="M364 170h2l1-1 1 1h1v1l-2-1h-1-1l-1 1v-1s0 0 0 0z" id="Gambie" />
                <path d="M370 172h-3l-2 1h-2v-2h2l1-1h1l1 1 1-1h-1-1-1-1l-1-1-1-1-1-1 2-3 1-1h3l3 1 1 1 2 2v2l1 2v1l-1 1-3-1h-1z" id="Senegal" />
                <path d="M364 173l3-1h3v2l-2 1h-1v-1h-1-1l-1-1z" id="Guinee Bisau" />
                <path d="M383 178v2l1 1h-1v1l-1 2h-1-1l-1-2-1-1s0 2-1 1l-1-3-2-1-1 1-2 1-1-1-1-1-1-2h-1l1-2h2v-2h2l3 1 2 1 1-1h3l1 2 1 2v1z" id="Guinee" />
                <path d="M371 180l2-2h2l2 2 1 2-3 2h-1l-1-1h-1l-1-2c1 0 1 0 0 0v-1z" id="Sierra Leone" />
                <path d="M378 182h1l1 2h1l1-1v3l1 1 1 1v2l-4-2-3-2-2-1 2-2 1-1z" id="Liberia" />
                <path d="M384 190v-2l-1-2h-1v-2l1-2v-1h1l-1-1v-2l1-1h3v1l2-1 1 1 1 1h3l1 2v1l-2 3 1 3v1l-2-1-3 1-5 1s0 1 0 0z" id="Cote d'Ivoire" />
                <path d="M394 179v-2l1-1h4l2-1v3l1 3v3l1 3h-1l-3 1-3 2-2-1v-3-3l1-2-1-2s0 0 0 0z" id="Ghana" />
                <path d="M401 175l2 1v1l1 2v7h-1l-1-2v-2-1l-1-3-1-2 1-1z" id="Togo" />
                <path d="M409 174v2l-1 2-1 2v6h-3v-2-3-3l-1-1v-2h2l1-2h1l2 1z" id="Benin" />
                <path d="M432 171v2l1 1-1 1-1 1-1 3-1 1-1 1-2 4-1 1-1-1h-1l-3 2v3h-3-3l-2-2v-1l-2-1h-2-1v-2-3l1-1v-2l1-2v-2-2l1-2 3-1 2 1 2 1h5l2-1 4 1 2-1c1-1 1 0 1 1h1z" id="Nigeria" />
                <path d="M426 196h-3v-2l-1-2v-1l-2-1v-1-2l3-2h1l2 1 2-4 1-1v-2l1-1 1-3 2-1-1-1v-2h1l1 3v2l1 2h-3v1l2 2 1 2-1 1-1 3v2l1 2 1 2 1 2v1h-5l-3-1h-2v1z" id="Cameroun" />
                <path d="M423 196h3v2h-4v-1l1-1zm-3-3l-1-1h1v1z" id="Guinee Eq" />
            </g>
            <g id="Afrique centrale">
                <path d="M436 195l-1-2-1-2-1-2v-2l1-2 1-2h5l2-1 1-2h3l3-3v-1h2l2 2v3h1l2 2 1 1 2 1v2h2v2h-2l-2-1-1 1h-2l-2 1h-1l-1 1-4-1-1-1c-1-1-2 0-3 1v1l-1 1h-3l-1 1-1 2z" id="Rep Centrafricaine" />
                <path d="M426 196c-1-1 0-1 1-1h3v2h1l1 1v1 2l1 1-1 4-1-1-1 1-1-2-1 2h-2l1 2h-1-1l-1-1-1-1-1-1-1-1v-1l-1-1 2-2v-1s-1 0 0 0l1-1h3v-2z" id="Gabon" />
                <path d="M430 211l-2-1-1 1-2-2h2v-2l-1-1 2-1h1l1 1 1-1h1l1-3-2-1 1-2v-1l-1-1h-1v-2l4 1h2v-1l1-2 2-1h3l-1 2-1 2v4l-1 2-3 3v4l-3 1h-1c1-1 0 0 0 0l-2 1s0 0 0 0z" id="Congo" />
                <path d="M430 211l1-1h1l1 1 2-2 1-1v-3l2-2 2-2v-4l1-3 1-2v-1l1-2h2c1 1 1 2 2 1l3 1 1-1h2l3-1 1-1 2 1h2l2 2 2-1h1l1 1 2 2v2l1 1-1 1-2 3-1 3-1 1v2l1 2v6l2 3 1 2h-4l-1 2v5l1 2 2-1v2l-1 1-2-1-2-1-1-2-2 1-2-1-1-1h-1l-2-1-3 1v-2l-1-2v-3-2h-3s0-1 0 0h-2v1l-1 1h-4l-1-4-1-1h-5l-3 1h-1v-1l1-2h1z" id="Rep dem du Congo (Zaire)" />
                <path d="M452 239l-3-3v-4-3h4l1-1v-2-1h3l1 1 2 1 1-1 1 2c2 0 2 1 3 2h2v-3l-2 1-1-2v-2-1-3l2-1h3l1 1 4 1 1 2-1 2v2c1 0 2 0 1 1l-1 1-1 1 1 1-4 2-2 1v1l-3 1-1 1-2 1-2 2h-3l-1-1h-4z" id="Zambie" />
                <path d="M427 211l2-1v1l-1 2v-1l-1-1zm1 3l2-1h5l2 1 1 2 2 2h3l1-2h4l1 1v4l1 3v1h4v3l-2 1h-3v7l1 1 2 2-4 1h-6l-1-1h-9l-2-1-2 1h-1v-4l1-3 1-3 1-1c1-1 2-3 1-5l-1-2 1-2-2-3-1-2z" id="Angola" />
            </g>
            <g id="Afrique des lacs">
                <path d="M466 203v-2l1-2 2-3 1-1-1-1v-2h6l1-1 1 2c0 1 2 2 1 3 0 2-1 2-2 3l-1 4h-7l-1 1-1-1z" id="Ouganda" />
                <path d="M465 206v-1l1-1 1-1h2v2l-1 1-2 1-1-1h0z" id="Ruanda" />
                <path d="M466 211v-2l-1-2c-1-1 0-1 1-1h2l1 1v1l-2 2-1 1z" id="Burundi" />
                <path d="M493 204l-1 1-1 1-1 1-1 2-1 2-1-1-3-2v-1l-8-4-1-1 2-3c1-1 2-2 1-3l-1-4-1-1 1-1h3l3 1 2 1 3 1 2-1 1-1 2 1c1-1 0 0 0 0l-1 2v8l1 2z" id="Kenya" />
                <path d="M469 203h7l8 4 1 2 3 2-1 3 1 1v5l1 3h1l-2 2h-2l-1 1h-2-2-4l-1-4h-1l-2-1-3-1-1-2-2-3-1-2v-2l1-1 2-3h-1c0-1 0-2 1-1v-2-1z" id="Tanzanie" />
            </g>
            <g id="Afrique australe">
                <path d="M445 256v7l-2 1h-2-1l-1-1h-3l-1-2-1-2v-4l-1-3v-1-1l-2-3-4-6v-2h1l2-1 3 1h8l2 1h5l6-1 2 1h-1l-2 1-1-1-5 1v8h-2v7z" id="Nanibie" />
                <path d="M477 226v2l1 2 2 3v2l-1 1v2l-2-2v-2-2h-2l-1-1-1-1 1-2 1-1-1-1v-2c1 0 2 0 1-1l-1-1h2l1 4s0 0 0 0z" id="Malawi" />
                <path d="M462 269l-1-3 1-1 2-1 2 1-1 2-2 1-1 1z" id="Lesotho" />
                <path d="M474 260h-2v-5l-1-3-1-2 3-2v-2l1-2-1-1 1-2v-4l-3-1h-3v-2l1-1 3-1 2-1 1 1h2v4l2 2v-2l1-1v-2l-2-3-1-2v-2h8l1-1h2l3-2-1 2v4l1 2v3l-1 1-3 3-4 2-3 3-2 1v3l1 2s0 1 0 0v5l-3 2-3 1v2l1 1z" id="Mozambique" />
                <path d="M500 236h1l1-1h2l1-1s1 1 0 0l1-1 1-1v-1-1h1l1-2 1-1 1 2 1 2 1 3-1 2-1-2v3l-1 2-1 4-3 10-1 3h-2l-1 1-2-1h-1l-1-1v-2-2l-1-2 1-1 1-2 1-2-1-1v-2l-1-2c1-1 2-1 1-2l1-1z" id="Madagascar" />
                <path d="M456 240l1 1 1 2 3 2v1l1 1 1 1 2 1v1l-2 1-2 2-1 1-2 1-1 3h-2l-3-2-1 1c0 1-1 3-3 3h-2l1-2-2-2v-2-5h2v-8l5-1 1 1 2-1h1z" id="Botswana" />
                <path d="M468 235l1 1 3 1 2 1v3l-1 2 1 1-1 2v2l-3 2h-3l-1-1-2-1h-2v-2l-1-1-1-1-2-2-1-2h4l2-3h2l2-2h1z" id="Zimbabwe" />
                <path d="M472 258v3h-2l-1-2 1-1h2s0 0 0 0z" id="Zwaziland" />
                <path d="M445 256l1 1v2l1 1h2l3-3h1l3 1 2-1 1-2 1-1 1-2 2-1 2-1 2-1 2 1 1 1 1 2 1 4-1 1h-1l-1 2 2 1 1-1h2l-1 2-1 1-2 3-4 5-2 2-4 2h-2l-2 1h-1-2-3l-1 1h-4l-1 1-1-1-1-1h-1v-1l-1-2 1-1-1-3-3-5c-1-1 0-1 1-1h1l1 1h3l2-1v-7zm17 13l2-1 1-1 1-2-2-1h-1l-2 2v2l1 1zm-29-18v1c1 0-1 0 0 0v-1z" id="Afrique de Sud" />
            </g>
        </g>
    </g>
</svg>