<svg xmlns="http://www.w3.org/2000/svg" viewBox="0 0 935.493 137">
    <path d="M288.2 68.5c0-37.8-31.9-68.5-71-68.5-3.6 0-7.3.2-10.9.8-30.4 4.3-50.8 26.2-62.2 43C132.7 27 112.3 5.1 81.9.8 78.3.3 74.6 0 71 0 31.8 0 0 30.7 0 68.5S31.9 137 71 137c3.6 0 7.3-.2 11-.8 30.4-4.4 50.8-26.3 62.2-43.1 11.4 16.8 31.8 38.7 62.2 43.1 3.6.5 7.3.8 11 .8 38.9 0 70.8-30.7 70.8-68.5zM78.4 112.2c-2.5.4-5 .5-7.5.5-25.8 0-46.7-19.9-46.7-44.2 0-24.4 21-44.2 46.8-44.2 2.5 0 5 .2 7.5.5 28.7 4.1 46.2 32.4 52.2 43.7-6.1 11.4-23.7 39.6-52.3 43.7zm131.3 0c-28.7-4.1-46.3-32.4-52.2-43.7 5.9-11.3 23.5-39.6 52.2-43.7 2.5-.3 5-.5 7.5-.5 25.8 0 46.7 19.9 46.7 44.2 0 24.4-21 44.2-46.7 44.2-2.5 0-5-.2-7.5-.5zM51.3 61.8H94v13.7H51.3V61.8zm170.6 0h14.4v13.8h-14.4V90h-13.8V75.6h-14.4V61.8h14.4V47.4h13.8v14.4zm465.187-37.432h67.727v18.046h-22.947v52.132h22.947v18.268h-67.727V94.546h22.724V42.414h-22.724V24.368zm210.31-1.114c-26.734 0-36.983 19.605-36.983 46.34 0 29.185 11.585 44.557 37.205 44.557 28.517 0 37.874-20.051 37.874-45.448-.222-33.864-13.144-45.449-38.096-45.449zm0 73.074c-12.699 0-13.813-8.911-13.813-26.734 0-21.61 2.005-28.517 13.813-28.517 12.922 0 14.704 6.015 14.704 27.625-.223 20.274-2.005 27.626-14.704 27.626zm-71.96-71.96h20.274v88.446h-22.056l-30.299-56.588.223 56.588H772.86V24.368h23.838l28.739 53.023V24.368zm-287.84 0h-28.962v88.446h28.962c37.428 0 43.889-24.061 43.889-45.003.223-27.848-10.694-43.443-43.889-43.443zm1.337 70.178h-8.243V42.191h6.461c19.605 0 21.388 9.134 21.388 26.512-.224 14.926-1.561 25.843-19.606 25.843zm107.828-70.401h20.942v58.147c0 26.066-20.051 31.636-35.646 31.636-14.927 0-34.309-5.124-34.309-31.858V24.145h21.833v53.914c0 14.704 5.124 18.046 13.367 18.046 9.803 0 13.59-4.456 13.59-17.823l.223-54.137zM491.035 53.776c0-16.932-9.134-29.631-33.641-29.631h-35.646v88.446h21.833V84.52h11.139l13.367 28.071h25.843l-17.155-32.304c9.358-5.124 14.26-14.258 14.26-26.511zm-35.869 13.367h-11.585V42.191h11.139c10.248 0 12.922 4.01 12.922 11.808 0 9.802-4.901 13.144-12.476 13.144zM354.912 24.368l-27.626 88.446h22.279l4.456-18.046h25.398l4.901 18.046h23.17l-28.071-88.446h-24.507zm3.342 53.246l8.02-32.304 8.689 32.304h-16.709z"/>
</svg>
