<svg width="40" height="40" viewBox="0 0 40 40" fill="none" xmlns="http://www.w3.org/2000/svg">
<rect width="40" height="40" fill="white"/>
<path d="M15.1298 33.2578C13.7052 31.9364 13.2893 29.1599 13.8829 27.1484C14.912 28.4166 16.338 28.8183 17.815 29.0451C20.0952 29.3951 22.3346 29.2642 24.4528 28.2066C24.6951 28.0856 24.919 27.9246 25.1837 27.7615C25.3826 28.3466 25.4342 28.9374 25.3648 29.5385C25.1961 31.0028 24.478 32.1338 23.3358 32.9912C22.8791 33.3341 22.3958 33.6406 21.9241 33.964C20.475 34.9579 20.083 36.1232 20.6274 37.8184C20.6404 37.8597 20.652 37.9009 20.6812 38.0017C19.9413 37.6657 19.401 37.1766 18.9892 36.5333C18.5542 35.8544 18.3473 35.1034 18.3364 34.2909C18.3309 33.8955 18.3309 33.4964 18.2785 33.1067C18.1505 32.1562 17.7109 31.7306 16.8825 31.7061C16.0324 31.6809 15.3599 32.2142 15.1815 33.0541C15.1679 33.1185 15.1482 33.1822 15.1285 33.2571L15.1298 33.2578Z" fill="black"/>
<path d="M7 26.8101C7 26.8101 11.2185 24.7247 15.4488 24.7247L18.6383 14.7085C18.7577 14.2241 19.1064 13.895 19.4999 13.895C19.8936 13.895 20.2423 14.2241 20.3617 14.7085L23.5512 24.7247C28.5614 24.7247 32 26.8101 32 26.8101C32 26.8101 24.8345 7.00252 24.8205 6.96278C24.6148 6.37716 24.2677 6 23.7996 6H15.2011C14.7331 6 14.3999 6.37716 14.1802 6.96278C14.1648 7.00177 7 26.8101 7 26.8101Z" fill="black"/>
</svg>
