<?xml version="1.0" encoding="UTF-8"?>
<svg viewBox="0 0 367 83" version="1.1" xmlns="http://www.w3.org/2000/svg" xmlns:xlink="http://www.w3.org/1999/xlink" fill="#000000" >
    <!-- Generator: Sketch 62 (91390) - https://sketch.com -->
    <title>Chillys</title>
    <g id="Page-1" stroke="none" stroke-width="1">
        <g id="chilly-logo2" >
            <g id="Group" transform="translate(183.600000, 41.600000) scale(-1, 1) rotate(-180.000000) translate(-183.600000, -41.600000) translate(0.600000, 0.600000)">
                <path d="M1.5,79.7 C0.1,77.1 3.7,72.4 6.8,72.8 C9.3,73.2 10.3,77.8 8.3,80.2 C6.7,82.2 2.7,81.9 1.5,79.7 Z" id="Path"></path>
                <path d="M14.3,65.7 C10.7,62 10.5,58.1 13.8,50 C17.3,41.5 17.9,34.2 16,26.5 C14,18.7 10.7,13.5 4.6,8 L0,3.8 L3.5,2 C8.8,-0.9 19.4,-0.5 26.6,2.8 C49,13.1 54.8,40.4 38.5,58.8 C33.8,64.1 25.6,68.6 20.6,68.6 C18.2,68.6 16.4,67.8 14.3,65.7 Z" id="Path"></path>
                <g id="Group-2" transform="translate(78.628137, 13.600000)">
                    <path d="M17.5997662,52.8913263 C10.7242779,50.8362243 3.71906336,42.8727039 1.77317044,35.0376274 C-1.21053205,22.5785713 2.55152761,11.5323979 12.0215398,4.85331631 C16.821409,1.51377551 18.6375758,1 26.1616951,1 C36.5397907,1.12844388 41.8585647,3.56887754 46.5287077,10.376403 L49.7718625,15.1288265 L45.6206243,16.5417091 C41.7288385,17.8261479 41.0802075,17.5692601 38.8748622,14.7434948 C27.5886832,0.614668369 6.57303965,13.0737244 10.0756469,31.8265305 C12.799897,45.8269131 31.0912905,50.7077804 38.745136,39.4047192 C41.2099337,35.8082907 41.7288385,35.5514029 45.4908981,36.8358417 L49.6421363,38.2487243 L47.5665172,42.6158162 C43.1558266,51.3499998 28.8859452,56.359311 17.5997662,52.8913263 Z" id="Path"></path>
                    <polygon id="Path" points="56.7718625 25.5 56.7718625 2.84217094e-14 61.3218625 2.84217094e-14 65.8718625 2.84217094e-14 65.8718625 10.8375 65.8718625 21.675 76.2718625 21.675 86.6718625 21.675 86.6718625 10.8375 86.6718625 2.84217094e-14 91.2218625 2.84217094e-14 95.7718625 2.84217094e-14 95.7718625 25.5 95.7718625 51 91.2218625 51 86.6718625 51 86.6718625 40.1625 86.6718625 29.325 76.2718625 29.325 65.8718625 29.325 65.8718625 40.1625 65.8718625 51 61.3218625 51 56.7718625 51"></polygon>
                    <polygon id="Path" points="105.771863 25.5 105.771863 1.42108547e-14 109.771863 1.42108547e-14 113.771863 1.42108547e-14 113.771863 25.5 113.771863 51 109.771863 51 105.771863 51"></polygon>
                    <polygon id="Path" points="126.771863 25.5 126.771863 1.42108547e-14 139.771863 1.42108547e-14 152.771863 1.42108547e-14 152.771863 3.825 152.771863 7.65 144.321863 7.65 135.871863 7.65 135.871863 29.325 135.871863 51 131.321863 51 126.771863 51"></polygon>
                    <polygon id="Path" points="162.771863 25.5 162.771863 1.42108547e-14 175.771863 1.42108547e-14 188.771863 1.42108547e-14 188.771863 3.825 188.771863 7.65 180.321863 7.65 171.871863 7.65 171.871863 29.325 171.871863 51 167.321863 51 162.771863 51"></polygon>
                    <path d="M186.988237,45.645 C202.169523,19.125 201.912213,19.89 201.912213,9.5625 L201.912213,2.84217094e-14 L205.771863,2.84217094e-14 L209.631512,2.84217094e-14 L209.631512,9.5625 C209.631512,19.89 209.374202,19.125 224.555488,45.645 L227.771863,51 L222.882974,51 C218.12274,51 217.86543,50.8725 212.204611,40.1625 C208.988237,34.17 206.157827,29.325 205.771863,29.325 C205.385898,29.325 202.555488,34.17 199.339114,40.1625 C193.678295,50.8725 193.420985,51 188.660751,51 L183.771863,51 L186.988237,45.645 Z" id="Path"></path>
                    <path d="M234.771863,43.3910827 C234.771863,35.2749043 235.838529,34.260382 240.105196,38.3184712 C241.838529,39.96707 242.771863,42.5033757 242.771863,45.9273885 C242.771863,50.7463694 242.505196,51 238.771863,51 L234.771863,51 L234.771863,43.3910827 Z" id="Path"></path>
                    <path d="M259.612251,49.672051 C251.553606,46.4770137 247.654261,38.8089243 250.51378,31.9076438 C252.593431,27.0511872 256.232819,24.8785618 266.241137,22.322532 C270.790372,21.1723186 275.339608,19.6387007 276.249455,18.8718918 C278.71904,16.8270679 278.069149,11.8428098 274.949673,9.67018444 C270.140482,6.34734569 263.90153,7.11415463 259.352295,11.4594053 C255.45295,15.29345 253.633256,15.9324575 249.993868,14.5266411 C245.704589,12.8652217 253.503278,3.28010991 261.042011,0.979683081 C273.000001,-2.47095717 285.087969,3.53571289 286.517729,13.6320307 C287.16762,18.4884873 286.777685,19.5108992 282.878341,23.3449439 C279.758865,26.4121797 276.379433,28.2014006 271.310285,29.351614 C258.832382,32.1632468 254.803059,37.0197034 261.171989,41.3649541 C265.721224,44.5599914 271.050329,43.9209839 275.079652,39.7035347 C277.809193,36.8919019 279.368931,36.125093 282.098472,36.636299 C285.087969,37.2753064 285.477904,37.7865124 284.828013,40.0869392 C282.22845,48.6496391 269.490591,53.5060957 259.612251,49.672051 Z" id="Path"></path>
                </g>
            </g>
        </g>
    </g>
</svg>
