<svg xmlns="http://www.w3.org/2000/svg" viewBox="0 0 391 72">
    <g>
        <path d="M12.694 9.321c-2.283 0-2.832 1.363-2.832 3.923V57.81c0 2.559.549 4.021 2.832 4.021s2.825-1.463 2.825-4.021V43.016h9.874v14.428c0 8.311-4.383 12.61-12.699 12.61C4.382 70.054 0 65.754 0 57.444V14.07C0 5.753 4.382 1.459 12.694 1.459c8.316 0 12.699 4.293 12.699 12.611v13.047h-9.874V13.244c0-2.56-.542-3.923-2.825-3.923zm16.261 59.27h9.74V3.027h-9.74v65.564zM86.577 3.033l-3.358 14.66c-1.102 4.638-1.646 9.197-1.922 13.929h-.366c-.177-6.105-.809-10.837-1.635-14.206L75.75 3.033H41.765v8.466h8.466v57.093h9.735V11.499h8.15l7.635 32.504v24.589h10.012v-24.59l10.018-40.97h-9.204v.001zm78.411-1.397c8.3 0 12.677 4.289 12.677 12.577v13.048h-9.763V13.405c0-2.555-.637-3.928-2.914-3.928s-2.821 1.374-2.821 3.928v4.737c0 2.825.266 4.925 1.27 6.282l10.671 14.592c2.006 2.737 3.557 5.474 3.557 9.852v8.665c0 8.3-4.377 12.577-12.677 12.577-8.294 0-12.588-4.277-12.588-12.577V43.116h9.767v14.771c0 2.561.544 4.012 2.821 4.012s2.914-1.451 2.914-4.012v-6.824c0-1.918-.637-3.569-1.64-5.021l-11.12-15.499c-2.101-2.914-2.743-5.662-2.743-9.214v-7.114c.001-8.29 4.294-12.579 12.589-12.579zm22.062 67.01h10.034v-24.61l10.023-41.03h-9.214l-3.368 14.677c-1.091 4.648-1.635 9.214-1.912 13.951h-.366c-.177-6.112-.82-10.849-1.64-14.223L187.05 3.006h-9.662l9.662 41.03v24.61zm30.545-58.067h2.095c2.466 0 3.651 1.369 3.651 4.283v41.474c0 2.915-1.186 4.288-3.651 4.288h-2.095V10.579zm-9.757-7.574v65.652h11.58c9.575 0 13.769-3.469 13.769-12.046V15.039c0-8.571-4.194-12.033-13.769-12.033h-11.58v-.001zm29.615 65.653h7.929l-.272-41.313c0-1.452-.094-6.925-.271-16.5h.637c.548 5.292 1.457 12.4 2.648 21.521l4.738 36.293h14.487V3.005h-8.101l.268 34.824c0 2.018.094 9.485.366 22.617h-.549c-1.097-12.035-2.283-22.251-3.376-30.542l-3.645-26.899h-14.86v65.653h.001zm34.628-.012h21.61v-9.02h-11.853V37.098h11.58v-8.657h-11.58v-16.5h11.691l7.562 32.094v24.61h10.029v-24.61l10.029-41.03h-9.204l-3.379 14.677c-1.092 4.648-1.641 9.208-1.906 13.951h-.371c-.177-6.106-.815-10.849-1.646-14.223L301.09 3.005h-29.011v65.641h.002zM374.133 44.09l-3.042 1.729 2.959-9.088 2.908 9.122-2.825-1.763zm-19.308 19.859c-8.997-.011-19.469-7.447-19.469-17.021l.049-1.251h.398c1.125 8.055 10.151 13.862 17.98 14.339-.388-2.117-.92-5.686-1.215-10.096l2.268-.077 2.227.077c-.293 4.41-.925 8.688-1.169 10.096 7.834-.477 16.843-6.272 17.968-14.339h.405l.044 1.251c0 9.584-10.473 17.021-19.486 17.021zm-19.2-27.218l2.904 9.122-2.819-1.763-3.049 1.729 2.964-9.088zm14.634.745l.293 2.893c-1.694.21-3.872.597-5.264.94l-.382-2.903c1.625-.388 3.685-.732 5.353-.93zm3.291-8.979c.039-.276.438-3.136.487-3.445-1.718-.35-2.985-1.874-2.985-3.635a3.728 3.728 0 013.723-3.729 3.736 3.736 0 013.724 3.729c0 1.8-1.297 3.324-3.049 3.645.046.316.444 3.153.488 3.43 3.918.21 8.693 1.65 8.693 1.65s-4.543 1.347-8.228 1.635c.051.366.576 4.022.576 4.022l-2.205-.066-2.266.066s.521-3.662.571-4.034c-3.642-.298-8.068-1.624-8.068-1.624s4.661-1.416 8.539-1.644zm-3.306-20.279s3.201.654 3.512.726c.106-.31 1.137-3.408 1.137-3.408s1.03 3.098 1.124 3.408c.321-.072 3.513-.726 3.513-.726s-2.166 2.438-2.371 2.677c.205.237 2.371 2.682 2.371 2.682l-3.513-.715c-.094.299-1.124 3.396-1.124 3.396s-1.03-3.097-1.137-3.396c-.311.066-3.512.715-3.512.715l2.381-2.682c-.21-.238-2.381-2.677-2.381-2.677zm8.787 32.139l.359-2.893a49.46 49.46 0 015.463.976l-.383 2.892c-1.379-.343-3.635-.753-5.439-.975zm-6.478-3.069l2.283-.067 2.243.067v2.892l-2.243-.066-2.277.066-.006-2.892zm11.175 9.407l-.359 2.849c-2.72-.776-5.734-1.23-8.532-1.23-2.766 0-5.769.442-8.439 1.207l-.354-2.847c2.815-.765 5.879-1.209 8.794-1.209 2.94-.001 6.041.453 8.89 1.23zm-8.892-2.427c-2.942 0-6.096.454-8.965 1.196l-.398-2.893c3.008-.763 6.271-1.207 9.363-1.207 3.125 0 6.409.444 9.458 1.219l-.394 2.881a36.05 36.05 0 00-9.064-1.196zm.028-43.74c-19.563 0-35.426 15.863-35.426 35.415 0 19.572 15.862 35.43 35.426 35.43s35.42-15.857 35.42-35.43c0-19.552-15.856-35.415-35.42-35.415z"/>
        <path d="M356.409 21.417a1.641 1.641 0 00-3.28 0c0 .908.737 1.646 1.641 1.646s1.639-.738 1.639-1.646m-246.478 46.92c-7.624 0-11.486-3.835-11.486-11.392V14.612c0-7.558 3.862-11.392 11.486-11.392 7.619 0 11.48 3.834 11.48 11.392v42.333c0 7.557-3.861 11.392-11.48 11.392zM96.645 56.946c0 8.621 4.599 13.187 13.286 13.187 8.688 0 13.281-4.565 13.281-13.187V14.612c0-8.622-4.593-13.197-13.281-13.197-8.687 0-13.286 4.576-13.286 13.197v42.334z"/>
        <path d="M109.931 60.313c-1.13 0-1.867-.21-1.867-3.013V13.82c0-2.737.709-2.931 1.867-2.931 1.318 0 1.951.438 1.951 2.931V57.3c-.001 2.791-.848 3.013-1.951 3.013zm-3.662-3.013c0 1.44 0 4.819 3.662 4.819 3.745 0 3.745-3.501 3.745-4.819V13.82c0-1.291 0-4.731-3.745-4.731-3.662 0-3.662 3.318-3.662 4.731V57.3zm21.879-52.738h19.314v6.931h-11.58v17.924h11.319v6.665h-11.319v30.836h-7.734V4.562zm-1.794 64.151h11.331V37.875h11.319V27.627h-11.319V13.293h11.585V2.761h-22.916v65.952z"/>
    </g>
</svg>
