<svg xmlns="http://www.w3.org/2000/svg" viewBox="0 0 277.615 85.039">
    <path d="M9.463 6.969c0-2.218.103-2.853.629-3.488.627-.687 1.834-1.057 3.77-1.057 7.335 0 10.32 4.543 10.32 15.694 0 11.467-2.881 15.799-10.425 15.799-3.665 0-4.293-.741-4.293-4.754L9.463 6.969zM4.687 28.952c0 2.749-.157 3.753-.784 4.386-.469.476-1.565.792-2.767.792H.459v1.694h12.354c5.083 0 8.961-1.378 11.891-4.336 3.279-3.223 5.049-7.93 5.049-13.37 0-4.754-1.404-8.877-4.061-12.1C22.613 2.265 18.578.571 12.815.571H.459v1.694h.676c1.201 0 2.297.317 2.767.794.628.634.783 1.637.783 4.386v21.507h.002zm33.543-7.327c.05-5.508 1.88-8.97 4.803-8.97 2.922 0 4.646 3.357 4.595 8.97H38.23zm14.253 1.815c-.261-7.74-4.02-12.598-9.712-12.598-5.482 0-9.452 5.275-9.452 12.598 0 8.048 3.916 13.101 9.975 13.101 3.916 0 6.634-2.015 8.877-6.653l-1.565-.853c-1.83 3.944-3.656 5.49-6.476 5.49-4.125 0-5.899-3.305-5.951-11.086h14.304zm19.328 6.942c-1.776 4.117-4.181 5.958-7.581 5.958-2.299 0-4.071-.896-5.062-2.575-.988-1.69-1.3-3.329-1.3-7.29v-9.086c0-3.488-.469-4.226-2.663-4.226h-.575V11.55l7.613-.403v16.701c0 2.274.159 3.326.629 4.332a2.799 2.799 0 002.616 1.742c1.776 0 3.449-1.163 4.547-3.275.995-1.796 1.361-3.697 1.361-6.707v-6.55c0-3.488-.472-4.226-2.668-4.226h-.784v-1.613l7.829-.403V29.93c0 3.501.469 4.298 2.663 4.298h.573v1.61l-7.198.37v-5.826zm16.286-2.427c0 2.162.103 3.109.368 4.112.368 1.264 1.369 2.054 2.584 2.054 2.002 0 3.215-2.16 3.215-5.902v-.739h1.692v1.003c0 5.163-2.06 7.854-6.224 7.854-1.998 0-3.613-.633-4.554-1.793-1.143-1.372-1.458-2.9-1.458-6.591v-14.6h-3.76v-1.481c4.541-1.109 6.052-3.227 6.677-9.469h1.46v9.153h7.088v1.798h-7.088v14.601zm25.031-8.748h-1.57c-.889-4.489-2.874-6.655-6.117-6.651-2.25 0-3.923 1.582-3.923 3.69 0 2.002 1.046 2.95 4.341 4.005 3.348 1.105 4.758 1.738 5.91 2.633 1.884 1.477 2.771 3.32 2.771 5.691 0 4.53-3.243 7.755-7.844 7.755-2.091 0-3.294-.424-5.852-1.957a1.253 1.253 0 00-.571-.213c-.364 0-.674.37-.883 1.057l-.157.583h-1.455v-8.91h1.455c.674 2.476 1.195 3.796 2.026 4.898 1.305 1.793 3.292 2.846 5.434 2.846 2.405 0 4.183-1.843 4.183-4.267 0-1.529-.784-2.9-2.144-3.742-1.15-.736-1.204-.736-4.601-1.895-4.173-1.372-6.095-3.634-6.095-7.062 0-3.899 2.857-6.625 7.036-6.625a9.794 9.794 0 014.915 1.404c.314.157.575.265.786.265.314 0 .627-.424.784-1.165h1.57l.001 7.66zm23.139 10.419c-1.88 4.743-4.543 6.913-8.565 6.913-6.005 0-10.13-5.277-10.13-12.972 0-7.484 4.386-12.722 10.653-12.722 4.334 0 7.727 2.973 7.727 6.769 0 1.951-1.253 3.32-2.976 3.32-1.514 0-2.663-1.214-2.663-2.846 0-1.477 1.044-2.689 2.454-2.689.209 0 .314 0 .521.159-.782-1.845-2.506-2.9-4.595-2.9-4.02 0-6.057 3.639-6.057 10.91 0 7.432 1.933 10.961 5.899 10.961 2.612 0 4.597-1.793 6.057-5.585l1.675.682zm18.359-9.473c0-3.057-.155-4.27-.784-5.219-.575-1.051-1.518-1.58-2.614-1.58-1.729 0-3.35 1.161-4.345 3.161-.943 1.951-1.305 4.007-1.305 7.643v5.796c0 3.531.469 4.27 2.665 4.27h.838v1.61h-11.379v-1.61h.835c2.194 0 2.663-.79 2.663-4.27V6.453c0-3.529-.469-4.278-2.663-4.278h-.577V.562l7.615-.403v15.827c1.673-3.436 3.714-4.935 6.748-4.935 2.198 0 3.968.803 5.012 2.297 1.303 1.845 1.669 3.531 1.669 8.117v8.485c0 3.531.469 4.27 2.663 4.27h.575v1.61h-7.618V20.153h.002zm13.943 1.472c.052-5.508 1.88-8.97 4.803-8.97 2.926 0 4.646 3.357 4.597 8.97h-9.4zm14.256 1.815c-.263-7.74-4.022-12.598-9.715-12.598-5.48 0-9.45 5.275-9.45 12.598 0 8.048 3.916 13.101 9.973 13.101 3.916 0 6.634-2.015 8.877-6.653l-1.567-.853c-1.828 3.944-3.654 5.49-6.474 5.49-4.125 0-5.899-3.305-5.953-11.086h14.309v.001zM15.429 77.452c0 2.803.157 3.753.784 4.388.523.476 1.567.79 2.767.79h1.201v1.694H5.904V82.63h1.199c1.201 0 2.246-.314 2.769-.79.627-.635.784-1.585.784-4.388V50.767H9.56c-3.081 0-5.589 1.69-6.791 4.597-.676 1.585-.99 3.171-1.253 6.024L0 61.28l.263-12.21h25.714l.209 12.21-1.567.108c-.99-7.714-3.342-10.621-8.406-10.621h-.784v26.685zm14.6-7.327c.052-5.51 1.882-8.97 4.803-8.97 2.924 0 4.646 3.359 4.595 8.97h-9.398zm14.255 1.813c-.263-7.742-4.022-12.598-9.712-12.598-5.484 0-9.452 5.275-9.452 12.598 0 8.048 3.916 13.101 9.975 13.101 3.916 0 6.629-2.015 8.877-6.651l-1.57-.853c-1.826 3.944-3.656 5.49-6.474 5.49-4.125 0-5.899-3.305-5.953-11.086h14.309v-.001zm9.181 6.494c0 3.55.469 4.291 2.663 4.291h.835v1.613H45.591v-1.613h.835c2.194 0 2.663-.741 2.663-4.291V54.914c0-3.494-.472-4.239-2.663-4.239h-.575v-1.61l7.613-.405v29.772zm10.039-8.307c.052-5.51 1.88-8.97 4.803-8.97 2.924 0 4.648 3.359 4.595 8.97h-9.398zm14.256 1.813c-.263-7.742-4.022-12.598-9.712-12.598-5.484 0-9.452 5.275-9.452 12.598 0 8.048 3.916 13.101 9.973 13.101 3.916 0 6.634-2.015 8.879-6.651l-1.57-.853c-1.826 3.944-3.654 5.49-6.474 5.49-4.125 0-5.899-3.305-5.953-11.086H77.76v-.001zm18.787 12.397l-7.516-12.26-2.091 1.854v4.502c0 3.55.469 4.291 2.661 4.291h.995v1.613H79.065v-1.613h.835c2.194 0 2.663-.794 2.663-4.291V54.914c0-3.494-.469-4.239-2.663-4.239h-.575v-1.61l7.613-.405v22.728l7.049-6.145c.941-.848 1.514-1.748 1.514-2.435 0-.797-.676-1.167-2.243-1.167h-.786V60.05h10.287v1.591h-.517c-1.514 0-2.194.37-4.334 2.332l-5.742 5.191 6.319 10.225c1.565 2.543 2.56 3.337 4.229 3.337h.42v1.613h-6.586v-.004h-.001zm17.139-23.289c1.869 0 3.477 1.154 4.356 3.152.831 1.841 1.195 4.364 1.195 7.992 0 7.465-1.815 11.146-5.501 11.146-3.686 0-5.449-3.682-5.449-11.252 0-3.522.362-5.992 1.193-7.887.832-1.89 2.492-3.151 4.206-3.151zm.207-1.695c-6.442 0-10.671 5.058-10.671 12.89 0 7.624 4.229 12.785 10.516 12.785 6.334 0 10.565-5.161 10.565-12.839 0-7.619-4.231-12.836-10.41-12.836zm40.522 10.197c0-3.374-.207-5.114-.674-6.061-.571-1.053-1.507-1.634-2.65-1.634-1.455 0-2.756.95-3.637 2.635-.885 1.686-1.092 3.006-1.092 7.381v6.588c0 3.531.467 4.267 2.65 4.267h.728v1.613h-7.755V70.34c0-4.481-.105-5.533-.728-6.746-.573-1.109-1.507-1.742-2.702-1.742-1.455 0-2.756.95-3.587 2.558-.831 1.748-1.038 3.281-1.038 7.409v6.614c0 3.598.416 4.287 2.65 4.287h.728v1.613h-11.254V82.72h.835c2.14 0 2.663-.848 2.663-4.287V65.892c0-3.385-.523-4.235-2.663-4.235h-.575v-1.613l7.301-.332v4.351c.99-2.693 3.432-4.513 6.082-4.513 2.913 0 4.788 1.496 6.091 4.827 1.507-3.279 3.587-4.827 6.446-4.827 2.235 0 4.216 1.07 5.256 2.825.993 1.529 1.305 3.268 1.305 6.588v9.486c0 3.477.469 4.267 2.663 4.267h.575v1.613h-7.615V69.548h-.003zM209.497 38.8h16.871v17.093h-16.871V38.8zm40.592 27.443c0 11.323 1.927 13.147 13.945 13.271v4.799h-40.816v-4.799c12.018-.125 13.941-1.949 13.941-13.271V4.02c-13.818.243-21.871 9.499-23.074 26.422l-4.448-.73L210.483 0h66.291l.842 29.712-4.444.73c-1.204-16.925-9.377-26.181-23.079-26.422v62.223h-.004zM260.686 38.8h16.876v17.093h-16.876V38.8z"/>
</svg>
