<svg xmlns="http://www.w3.org/2000/svg" viewBox="0 0 401.917 79.107">
    <path d="M93.181 14.837L69.886 29.673 46.591 14.837 69.886 0zM0 44.511l23.3 14.837 23.3-14.837-23.3-14.838zM23.226 64.27l23.3 14.837 23.3-14.837-23.305-14.837zm46.66-4.922l23.3-14.837-23.3-14.838-23.295 14.838zM23.3 0L0 14.837l23.3 14.836 23.3-14.836zm293 43.332v1.179c0 13.311-6.656 20.8-16.848 20.8-6.586 0-10.884-3.189-13.034-8.32l-.832 7.28h-9.013V10.885h10.192v20.522c2.218-5.2 6.656-8.042 12.964-8.042 9.492.069 16.564 6.656 16.564 19.967zm-10.469.208c0-7.349-4.022-11.37-9.568-11.37-5.754 0-9.706 4.645-9.706 11.509v.832c0 7.487 3.813 11.786 9.568 11.786 6.032 0 9.706-3.883 9.706-11.786zm55.534 1.594c0 13.174-8.18 20.176-20.244 20.176-12.9 0-20.176-7-20.176-20.176v-1.109c0-13.45 8.528-20.66 20.176-20.66 11.925 0 20.244 7.348 20.244 20.66zm-10.545-1.109c0-7.488-3.744-11.855-9.637-11.855-5.824 0-9.706 4.09-9.706 11.855V45c0 7.21 3.674 11.231 9.637 11.231 6.032 0 9.706-3.951 9.706-11.231zm36.122-.554l14.212-19.2h-11.925l-8.18 11.994-8.113-11.994h-11.993l14 19.274-15.18 20.725h12.2l8.944-13.242 9.221 13.242h11.786zm-219.434-9.915l-1.317-9.29H157.8v40h10.4v-18.3c0-8.459 2.079-11.44 10.677-11.44h4.3V23.919h-2.565c-7.419 0-11.512 3.259-13.104 9.637zm-15.322 4.16v3.4c0 15.947-9.29 23.157-21.631 23.157h-19.136V14.837h18.858c12.064 0 21.909 7.002 21.909 22.879zm-10.677.485c0-9.914-4.784-14.42-11.786-14.42h-7.766v31.406h8.113c6.794 0 11.439-4.506 11.439-14.421zm84.307 5.824v1.109c0 13.174-8.112 20.176-20.176 20.176-12.895 0-20.244-7-20.244-20.176v-1.109c0-13.45 8.6-20.66 20.244-20.66 11.925 0 20.176 7.348 20.176 20.66zm-10.539 0c0-7.488-3.743-11.855-9.637-11.855-5.823 0-9.706 4.09-9.706 11.855V45c0 7.21 3.674 11.231 9.637 11.231s9.706-3.951 9.706-11.231zm55.812.139v1.109c0 13.173-7.418 20.037-16.847 20.037-6.379 0-10.608-2.843-12.757-7.488V78h-10.192V24.266h8.735l1.04 7.626c2.15-5.13 6.587-8.527 13.174-8.527 10.191 0 16.847 7.348 16.847 20.799zm-10.538 0c0-7.973-4.091-11.925-9.568-11.925-5.824 0-9.706 4.437-9.706 11.855v.763c0 7.072 3.743 11.509 9.5 11.509 5.962 0 9.776-3.952 9.776-11.3z"/>
</svg>
