<svg xmlns="http://www.w3.org/2000/svg" xmlns:xlink="http://www.w3.org/1999/xlink" viewBox="0 0 144 48">
    <defs>
        <path id="a" d="M143.871 23.97V.156H.01v47.625h143.861z"/>
        <path id="c" d="M143.871 23.97V.156H.01v47.625h143.861z"/>
    </defs>
    <g fill-rule="evenodd">
        <path fill-rule="nonzero" d="M30.433 37.626L36.399.156h4.844l-5.966 37.47h-4.844m29.591-.721C58.878 44.198 54.607 48 47.887 48c-4.115 0-7.345-1.51-9.533-4.063l2.709-3.334c1.875 2.188 4.115 3.23 6.772 3.23 4.063 0 6.563-2.344 7.345-6.928l.312-1.824h-.104c-2.188 2.032-4.74 3.126-7.553 3.126-5.21 0-7.71-2.604-7.71-7.553 0-.938.104-1.928.26-3.022l2.446-15.414h4.792L45.23 27.632a11.29 11.29 0 00-.208 2.136c0 2.813 1.25 4.22 4.063 4.22 2.917 0 5.522-1.771 7.293-4.845l2.705-16.925h4.844l-3.903 24.687m54.514-20.103l1.025-4.678h-4.775l-4.064 25.567h4.845l2.151-13.724c.95-5.033 4.68-7.529 8.632-7.529.48 0 .831.001 1.217.038l.723-4.545c-4.568-.71-7.996 1.613-9.754 4.87m-18.261-4.583l-7.946 17.69-2.828-17.69h-4.7l-8.173 17.69-2.694-17.69h-4.901l4.125 25.568h4.976l7.993-17.721 2.784 17.72h4.93l11.521-25.567h-5.087m1.693 25.568l4.062-25.568h4.845l-4.064 25.568H97.97M108.115 7.09a2.777 2.777 0 01-2.78 2.773 2.777 2.777 0 01-2.78-2.774 2.776 2.776 0 012.78-2.773 2.777 2.777 0 012.78 2.773"/>
        <mask id="b">
            <use xlink:href="#a"/>
        </mask>
        <path d="M130.868 33.936c-1.776.035-3.138-.484-4.036-1.539-.945-1.108-1.199-2.934-.792-5.425h7.08c2.137 0 5.021-.287 7.333-1.692 2.268-1.379 3.418-3.486 3.418-6.266 0-1.927-.83-3.819-2.275-5.19-1.682-1.595-4.088-2.437-6.959-2.437-10.503 0-11.784 7.449-12.814 13.436l-.367 2.284c-.442 3.19.152 5.766 1.817 7.873 1.548 1.96 4.198 3.039 7.463 3.039 10.572 0 11.531-8.89 11.531-8.89h-4.451s-.212 4.673-6.948 4.807zm-4.057-11.71c.781-4.33 3.445-6.713 7.502-6.713 2.972 0 4.893 1.411 4.893 3.596 0 2.681-1.903 3.93-5.99 3.93h-6.556l.151-.814z" fill-rule="nonzero" mask="url(#b)"/>
        <mask id="d">
            <use xlink:href="#c"/>
        </mask>
        <path d="M18.075 19.29l.474-2.8H1.25l.71-4.45h17.29l.337-2.13C20.576 3.718 24.729.15 31.034.158h3.464l-.68 4.336-3.245-.004c-3.506-.005-5.509 1.73-6.143 5.6l-.31 1.951h6.685l-.708 4.45H23.42l-3.646 21.56c-.99 6.194-5.211 9.74-11.55 9.732l-.365-.003.74-4.699.236-.002c3.569.004 5.487-1.507 6.118-5.357L17.32 23.74H0l.71-4.45h17.365" fill-rule="nonzero" mask="url(#d)"/>
    </g>
</svg>
