<?xml version="1.0" encoding="utf-8"?>
<!-- Generator: Adobe Illustrator 23.0.2, SVG Export Plug-In . SVG Version: 6.00 Build 0)  -->
<svg version="1.1" id="Layer_1" xmlns="http://www.w3.org/2000/svg" xmlns:xlink="http://www.w3.org/1999/xlink" x="0px" y="0px"
	 viewBox="0 0 85.039 85.039" style="enable-background:new 0 0 85.039 85.039;" xml:space="preserve">
<g>
	<path style="fill-rule:evenodd;clip-rule:evenodd;fill:#FF4088;" d="M75.138,53.746V28.668c0-3.261-1.727-6.278-4.539-7.931
		c-6.035-3.545-16.695-9.809-23.225-13.646c-3.448-2.025-7.732-1.98-11.135,0.119c-5.779,3.563-14.794,9.122-20.614,12.712
		c-3.51,2.164-5.647,5.992-5.647,10.115v25.677c0,4.09,2.17,7.872,5.701,9.936L37.16,78.208c2.856,1.67,6.382,1.706,9.272,0.096
		c6.273-3.495,17.383-9.682,23.784-13.247c3.036-1.692,4.917-4.895,4.917-8.37v-2.942L75.138,53.746z"/>
	<path style="fill-rule:evenodd;clip-rule:evenodd;fill:#C9177E;" d="M41.934,2.835h0.057l0.051,0.001h0.29l0.051,0.002h0.006
		l0.051,0.002h0.006l0.051,0.002H42.5l0.051,0.002h0.006l0.049,0.002h0.006l0.049,0.002h0.004l0.051,0.002h0.006l0.051,0.004h0.006
		l0.049,0.004h0.004l0.049,0.004h0.006l0.051,0.004h0.004l0.049,0.004h0.006l0.051,0.004h0.006l0.051,0.004h0.006l0.051,0.004h0.006
		l0.049,0.004h0.006l0.049,0.004h0.006l0.051,0.004h0.006l0.051,0.006h0.006l0.051,0.006h0.004l0.049,0.006h0.006l0.049,0.006h0.006
		l0.051,0.006h0.006l0.051,0.006h0.004l0.049,0.006h0.006l0.051,0.006h0.006l0.049,0.008l0.006,0.002l0.051,0.008h0.006l0.049,0.008
		h0.004l0.051,0.008h0.006l0.049,0.008h0.006l0.049,0.008h0.004l0.051,0.008h0.006l0.049,0.008l0.006,0.002l0.049,0.008l0.006,0.002
		l0.049,0.01h0.006l0.049,0.008h0.006l0.049,0.01h0.006l0.051,0.01h0.004l0.049,0.01h0.006l0.049,0.01h0.004l0.051,0.01l0.006,0.002
		l0.051,0.01h0.004l0.049,0.012l0.006,0.002l0.049,0.012h0.006l0.051,0.012L44.9,3.147l0.049,0.01l0.006,0.002l0.049,0.01
		l0.004,0.002l0.049,0.012h0.006l0.049,0.012l0.006,0.002l0.049,0.012l0.004,0.002l0.051,0.012l0.004,0.002l0.049,0.012l0.006,0.002
		l0.049,0.012h0.004l0.049,0.014h0.006l0.051,0.012l0.006,0.002l0.049,0.012h0.006l0.049,0.014l0.006,0.002l0.049,0.014l0.006,0.002
		l0.049,0.014l0.006,0.002l0.049,0.014l0.004,0.002l0.049,0.014l0.006,0.002l0.049,0.014l0.006,0.002l0.049,0.014l0.006,0.002
		l0.049,0.016l0.004,0.002l0.049,0.016H46l0.049,0.016h0.006l0.049,0.016l0.006,0.002l0.049,0.016l0.006,0.002l0.049,0.016
		l0.004,0.002l0.049,0.016l0.006,0.002l0.049,0.016l0.004,0.002l0.049,0.016l0.004,0.002l0.047,0.016l0.006,0.002l0.047,0.016
		l0.006,0.002l0.047,0.018l0.006,0.002l0.049,0.018l0.006,0.002l0.047,0.018l0.004,0.002l0.049,0.016l0.004,0.002l0.049,0.018
		l0.006,0.002l0.049,0.018l0.006,0.002l0.047,0.018l0.006,0.002l0.047,0.021l0.004,0.002l0.049,0.018l0.006,0.002l0.047,0.021
		l0.006,0.002l0.049,0.021l0.006,0.002l0.049,0.021l0.004,0.002l0.049,0.021l0.004,0.002l0.047,0.021l0.004,0.002l0.047,0.021
		l0.004,0.002l0.049,0.021l0.004,0.002l0.047,0.021l0.006,0.002l0.047,0.021l0.006,0.002l0.047,0.021l0.004,0.002l0.047,0.023
		l0.006,0.002l0.047,0.023l0.006,0.002l0.047,0.023l0.004,0.002l0.047,0.023l0.004,0.002l0.047,0.023l0.006,0.002l0.047,0.023
		l0.006,0.002l0.047,0.023l0.006,0.002l0.047,0.023l0.004,0.002l0.047,0.025l0.004,0.004l0.047,0.023l0.004,0.002l0.045,0.025
		l0.006,0.002l0.047,0.023l0.004,0.002l0.047,0.025l0.006,0.002l0.045,0.025l0.006,0.004L48.279,4.4l0.006,0.002l0.047,0.025
		l0.004,0.002l0.045,0.025l0.006,0.004l0.047,0.025l0.004,0.004l0.045,0.027l0.004,0.004l0.045,0.027l0.006,0.002l0.045,0.027
		l0.004,0.002l0.045,0.027l0.004,0.004l0.045,0.027l0.006,0.004l0.043,0.027h0.004l23.242,13.656l0.039,0.023l0.004,0.004
		l0.039,0.023l0.006,0.002l0.037,0.025l0.004,0.004l0.037,0.023l0.004,0.004l0.037,0.023l0.004,0.002l0.037,0.023l0.004,0.002
		l0.037,0.023l0.004,0.002l0.037,0.023l0.006,0.002l0.037,0.025l0.004,0.002l0.037,0.025l0.006,0.002l0.037,0.023l0.004,0.002
		l0.037,0.025l0.004,0.004l0.037,0.025l0.004,0.004l0.035,0.023l0.006,0.002l0.037,0.025l0.004,0.002l0.037,0.025l0.004,0.002
		l0.035,0.025l0.004,0.002l0.035,0.025l0.004,0.002l0.035,0.025l0.004,0.004l0.035,0.025l0.004,0.002l0.035,0.027l0.006,0.004
		l0.035,0.025l0.004,0.002l0.035,0.025l0.004,0.002l0.035,0.025l0.004,0.004l0.035,0.025l0.004,0.002l0.035,0.025l0.004,0.004
		l0.035,0.025l0.004,0.004l0.035,0.027l0.006,0.004l0.033,0.027l0.006,0.004l0.035,0.027l0.006,0.002l0.035,0.027l0.004,0.004
		l0.035,0.027l0.004,0.004l0.033,0.027l0.006,0.004l0.035,0.029l0.006,0.006l0.066,0.053l0.008,0.006l0.066,0.055l0.008,0.006
		l0.068,0.055l0.008,0.006l0.068,0.055l0.008,0.006l0.066,0.055l0.008,0.008l0.066,0.055l0.008,0.006l0.064,0.057l0.008,0.006
		l0.064,0.057l0.008,0.006l0.064,0.059l0.008,0.006l0.062,0.057l0.008,0.006l0.064,0.059l0.008,0.008l0.062,0.059l0.008,0.008
		l0.062,0.059l0.008,0.008l0.059,0.059l0.008,0.008l0.059,0.062l0.008,0.008l0.059,0.062l0.006,0.008l0.059,0.062l0.008,0.008
		l0.057,0.062l0.008,0.008l0.057,0.062l0.008,0.008l0.057,0.062l0.008,0.008l0.057,0.064l0.008,0.008l0.055,0.066l0.006,0.008
		l0.057,0.064l0.008,0.008l0.055,0.066l0.008,0.008l0.055,0.066l0.006,0.008l0.055,0.066l0.008,0.008l0.053,0.066l0.006,0.008
		l0.053,0.066l0.008,0.008l0.053,0.068l0.006,0.008l0.051,0.068l0.006,0.008l0.051,0.068l0.006,0.008l0.051,0.068l0.006,0.01
		l0.051,0.07l0.006,0.008l0.051,0.068l0.006,0.01l0.049,0.07l0.006,0.008l0.049,0.07l0.006,0.008l0.049,0.07l0.006,0.01l0.047,0.07
		l0.006,0.01l0.047,0.072l0.006,0.01l0.045,0.07l0.006,0.008l0.045,0.07l0.006,0.008l0.047,0.072l0.006,0.008l0.045,0.072
		l0.006,0.01l0.043,0.072l0.006,0.01l0.045,0.072l0.006,0.01l0.043,0.072l0.006,0.01l0.043,0.074l0.006,0.008l0.041,0.074
		l0.006,0.01l0.041,0.074l0.006,0.01l0.041,0.074l0.006,0.01l0.041,0.074l0.004,0.01l0.041,0.076l0.004,0.01l0.039,0.076l0.004,0.01
		l0.039,0.076l0.006,0.008l0.037,0.078l0.004,0.01l0.039,0.076l0.004,0.01l0.037,0.076l0.006,0.01l0.035,0.078l0.004,0.01
		l0.035,0.078l0.004,0.01l0.035,0.078l0.004,0.01l0.035,0.078l0.004,0.01l0.033,0.078l0.004,0.01l0.033,0.078l0.004,0.01L77,24.131
		l0.004,0.01l0.031,0.078l0.004,0.01l0.031,0.08l0.004,0.01l0.031,0.08l0.004,0.01l0.031,0.08l0.004,0.01l0.029,0.08l0.004,0.01
		l0.027,0.08l0.004,0.01l0.027,0.08l0.004,0.01l0.027,0.08l0.004,0.01l0.027,0.082l0.002,0.01l0.025,0.08l0.004,0.01l0.025,0.082
		l0.002,0.01l0.025,0.082l0.004,0.01l0.025,0.082l0.004,0.01l0.023,0.082l0.004,0.01l0.023,0.082l0.002,0.01l0.021,0.082
		l0.004,0.012l0.023,0.084l0.002,0.01l0.021,0.084l0.004,0.01l0.018,0.084l0.004,0.01l0.021,0.084l0.002,0.012l0.018,0.084
		l0.002,0.01l0.018,0.084l0.002,0.01l0.016,0.084l0.002,0.01l0.016,0.084l0.002,0.01l0.016,0.084l0.002,0.01l0.014,0.086l0.002,0.01
		l0.014,0.084l0.002,0.012l0.014,0.086l0.002,0.012l0.012,0.086l0.002,0.012l0.012,0.084v0.008l0.006,0.045v0.004l0.004,0.043v0.006
		l0.006,0.043v0.004l0.006,0.043v0.006l0.006,0.043l0.002,0.006l0.006,0.043v0.006l0.004,0.043l0.002,0.004l0.004,0.043l0.002,0.006
		l0.004,0.043v0.006l0.004,0.043l0.002,0.006l0.004,0.043l0.002,0.006l0.004,0.043v0.006l0.004,0.043v0.006l0.004,0.043v0.006
		l0.004,0.043v0.006l0.004,0.043v0.006l0.002,0.043v0.006l0.002,0.045v0.006l0.004,0.045v0.004l0.002,0.043v0.006l0.002,0.043v0.006
		l0.002,0.043v0.006l0.002,0.043v0.006l0.002,0.045v0.006l0.002,0.043v0.006l0.002,0.043v0.004l0.002,0.043v28.637l-0.002,0.047
		v0.059l-0.002,0.047v0.006l-0.002,0.045V57.1l-0.002,0.047v0.006l-0.002,0.045v0.004l-0.002,0.045v0.006l-0.002,0.045l-0.002,0.006
		l-0.002,0.045v0.006l-0.002,0.045v0.004l-0.002,0.047v0.006l-0.004,0.047v0.004l-0.004,0.047v0.006l-0.004,0.045v0.006
		l-0.002,0.045v0.006l-0.004,0.045v0.006l-0.004,0.045v0.006l-0.004,0.045v0.006l-0.004,0.045l-0.002,0.004l-0.004,0.047
		l-0.002,0.006l-0.004,0.045v0.006l-0.004,0.045l-0.002,0.006l-0.006,0.045v0.006l-0.006,0.045v0.004l-0.006,0.045v0.006
		l-0.006,0.045l-0.002,0.006l-0.006,0.047l-0.002,0.006l-0.006,0.045l-0.002,0.006l-0.006,0.045v0.006l-0.006,0.045v0.006
		l-0.006,0.045l-0.002,0.006l-0.006,0.045l-0.002,0.006l-0.008,0.045v0.004l-0.006,0.045v0.004l-0.008,0.045l-0.002,0.006
		l-0.006,0.045l-0.002,0.006l-0.006,0.045v0.004l-0.008,0.045v0.004l-0.008,0.045v0.004l-0.008,0.045v0.006l-0.008,0.043
		l-0.002,0.006l-0.008,0.043l-0.002,0.006l-0.008,0.045l-0.002,0.006l-0.01,0.045v0.004l-0.01,0.045v0.004l-0.008,0.043v0.006
		l-0.01,0.045v0.004l-0.008,0.045l-0.002,0.004l-0.01,0.043v0.004l-0.01,0.043v0.006l-0.01,0.043l-0.002,0.006l-0.01,0.043
		l-0.002,0.006l-0.01,0.043l-0.002,0.004l-0.01,0.043l-0.002,0.004l-0.01,0.043l-0.002,0.006l-0.012,0.043l-0.002,0.006l-0.01,0.043
		l-0.002,0.006l-0.012,0.043v0.006l-0.012,0.045l-0.002,0.006l-0.012,0.043v0.006l-0.012,0.043l-0.002,0.006l-0.012,0.043
		L77.4,60.019l-0.012,0.045l-0.002,0.004l-0.012,0.043l-0.002,0.004l-0.012,0.043l-0.002,0.006l-0.014,0.043l-0.002,0.006
		l-0.012,0.043l-0.002,0.004l-0.012,0.043l-0.002,0.006l-0.012,0.043l-0.002,0.004l-0.014,0.043l-0.002,0.006l-0.014,0.043
		l-0.002,0.006l-0.014,0.043l-0.002,0.006l-0.014,0.043l-0.002,0.006l-0.014,0.043l-0.002,0.004l-0.014,0.043l-0.002,0.006
		l-0.014,0.043L77.183,60.7l-0.014,0.043l-0.002,0.004l-0.014,0.043l-0.002,0.006l-0.014,0.043l-0.002,0.006l-0.016,0.041
		l-0.002,0.006L77.1,60.934l-0.002,0.006l-0.014,0.041l-0.002,0.006l-0.014,0.043l-0.002,0.006l-0.016,0.043l-0.002,0.006
		l-0.016,0.041l-0.002,0.006l-0.016,0.041L77.01,61.18l-0.016,0.041l-0.002,0.006l-0.016,0.041l-0.002,0.006l-0.016,0.041
		l-0.002,0.006l-0.016,0.041l-0.002,0.004l-0.018,0.041l-0.002,0.006l-0.018,0.043l-0.002,0.006l-0.016,0.041l-0.002,0.006
		l-0.018,0.041l-0.002,0.006l-0.018,0.041l-0.002,0.006l-0.018,0.041l-0.002,0.004l-0.018,0.041l-0.002,0.006l-0.018,0.041
		l-0.002,0.004l-0.018,0.041l-0.002,0.004l-0.018,0.041l-0.002,0.004l-0.018,0.041l-0.002,0.004l-0.021,0.041l-0.002,0.004
		l-0.021,0.039l-0.002,0.006l-0.018,0.041l-0.002,0.004l-0.021,0.039l-0.002,0.006l-0.018,0.041l-0.002,0.004l-0.021,0.041
		l-0.002,0.006l-0.021,0.041l-0.002,0.004l-0.021,0.039l-0.002,0.004l-0.021,0.041l-0.002,0.006l-0.021,0.041l-0.002,0.006
		l-0.021,0.041l-0.004,0.006l-0.021,0.039l-0.002,0.004l-0.021,0.041l-0.002,0.006l-0.021,0.041l-0.002,0.006l-0.023,0.039
		l-0.004,0.004L76.35,62.6l-0.002,0.004l-0.023,0.039l-0.002,0.004L76.3,62.686l-0.002,0.004l-0.023,0.039l-0.002,0.004
		l-0.023,0.039l-0.002,0.006l-0.023,0.039l-0.002,0.004l-0.023,0.039L76.2,62.867l-0.023,0.039l-0.004,0.004l-0.023,0.039
		l-0.004,0.004l-0.023,0.039l-0.002,0.004l-0.023,0.039l-0.002,0.006l-0.025,0.039l-0.002,0.004l-0.023,0.037l-0.002,0.006
		l-0.023,0.037l-0.004,0.004l-0.025,0.039l-0.002,0.006l-0.025,0.037l-0.004,0.004l-0.025,0.037l-0.002,0.004l-0.025,0.039
		l-0.004,0.006l-0.025,0.037l-0.004,0.004l-0.025,0.037l-0.002,0.004l-0.025,0.039l-0.002,0.004l-0.025,0.037l-0.004,0.004
		l-0.027,0.037l-0.002,0.004l-0.025,0.037l-0.002,0.004l-0.027,0.037l-0.002,0.004l-0.025,0.037l-0.004,0.004l-0.025,0.037
		l-0.004,0.004l-0.027,0.037l-0.004,0.004l-0.025,0.037l-0.002,0.004l-0.027,0.037l-0.004,0.006l-0.025,0.037l-0.004,0.004
		l-0.027,0.037l-0.004,0.004l-0.027,0.037l-0.004,0.004l-0.027,0.037l-0.004,0.004l-0.027,0.037l-0.002,0.004l-0.027,0.035
		l-0.004,0.004l-0.027,0.035l-0.002,0.004l-0.029,0.035l-0.004,0.004l-0.027,0.035l-0.002,0.004l-0.027,0.037l-0.004,0.004
		l-0.029,0.037l-0.004,0.004l-0.029,0.035l-0.004,0.004l-0.029,0.035l-0.002,0.004l-0.029,0.035l-0.004,0.004l-0.029,0.035
		l-0.004,0.004l-0.029,0.035l-0.004,0.004l-0.029,0.035l-0.004,0.004l-0.029,0.035l-0.002,0.004l-0.029,0.035l-0.004,0.004
		l-0.031,0.035l-0.004,0.004l-0.029,0.035l-0.004,0.004l-0.029,0.035l-0.004,0.004l-0.029,0.035l-0.004,0.004l-0.029,0.035
		l-0.004,0.004l-0.029,0.033l-0.004,0.004l-0.031,0.035l-0.004,0.004l-0.029,0.035l-0.004,0.004l-0.031,0.035l-0.004,0.004
		l-0.029,0.035l-0.004,0.004l-0.031,0.033l-0.004,0.004l-0.031,0.033l-0.004,0.004l-0.031,0.033l-0.004,0.004l-0.031,0.033
		l-0.004,0.004l-0.031,0.033l-0.004,0.004l-0.031,0.033l-0.004,0.004l-0.031,0.033l-0.004,0.004l-0.031,0.033l-0.004,0.004
		l-0.033,0.033l-0.004,0.004l-0.031,0.033l-0.004,0.004l-0.031,0.031l-0.004,0.004l-0.033,0.033l-0.006,0.004l-0.033,0.033
		l-0.004,0.004l-0.033,0.031l-0.004,0.004l-0.033,0.033l-0.004,0.004l-0.033,0.031l-0.004,0.004l-0.033,0.031l-0.004,0.004
		l-0.033,0.031l-0.004,0.004l-0.033,0.031l-0.004,0.004l-0.033,0.031l-0.004,0.004l-0.033,0.031l-0.004,0.004l-0.035,0.031
		l-0.004,0.002l-0.033,0.031l-0.004,0.004l-0.035,0.031l-0.004,0.004l-0.035,0.031l-0.004,0.002l-0.035,0.031l-0.004,0.004
		l-0.035,0.029l-0.006,0.004l-0.035,0.029l-0.004,0.004l-0.035,0.031l-0.004,0.004l-0.035,0.031l-0.004,0.004l-0.035,0.031
		l-0.004,0.004l-0.035,0.029l-0.004,0.004l-0.037,0.029l-0.004,0.002l-0.035,0.029l-0.004,0.004l-0.035,0.029l-0.006,0.004
		l-0.035,0.029l-0.004,0.004L73.26,66.27l-0.004,0.004l-0.035,0.029l-0.004,0.004l-0.037,0.029l-0.004,0.004l-0.035,0.027
		l-0.004,0.004L73.1,66.399l-0.004,0.004l-0.037,0.029l-0.004,0.004l-0.037,0.029l-0.004,0.004l-0.037,0.029l-0.004,0.002
		l-0.037,0.027l-0.004,0.002l-0.037,0.027l-0.004,0.002l-0.037,0.027l-0.006,0.002l-0.037,0.027l-0.004,0.004l-0.037,0.027
		l-0.004,0.004l-0.037,0.027l-0.004,0.004l-0.037,0.027l-0.006,0.004l-0.037,0.027l-0.004,0.002l-0.039,0.027l-0.006,0.002
		l-0.039,0.027l-0.004,0.004l-0.039,0.027l-0.004,0.004l-0.039,0.025l-0.004,0.004l-0.039,0.027l-0.004,0.004l-0.037,0.027
		l-0.006,0.004l-0.039,0.025l-0.004,0.002l-0.039,0.025l-0.006,0.002l-0.039,0.025L72.249,67l-0.039,0.025l-0.004,0.004
		l-0.039,0.025l-0.004,0.002l-0.039,0.025l-0.006,0.002l-0.039,0.025l-0.004,0.004l-0.039,0.025l-0.006,0.002l-0.039,0.025
		l-0.006,0.004l-0.039,0.025l-0.006,0.004l-0.041,0.025l-0.004,0.004l-0.039,0.023l-0.006,0.002l-0.039,0.023l-0.004,0.004
		l-0.041,0.025l-0.006,0.004l-0.041,0.023l-0.004,0.004l-0.039,0.023l-0.006,0.002l-0.041,0.023l-0.006,0.002l-0.041,0.023
		l-0.004,0.002l-0.039,0.023l-0.002,0.002L47.754,80.68h-0.002l-0.037,0.023l-0.006,0.002l-0.039,0.023l-0.006,0.004l-0.039,0.021
		l-0.006,0.002l-0.039,0.021l-0.004,0.002l-0.039,0.021l-0.006,0.002l-0.039,0.021l-0.006,0.002l-0.039,0.021l-0.006,0.002
		l-0.039,0.021l-0.004,0.002l-0.039,0.021l-0.004,0.002l-0.039,0.018l-0.004,0.002l-0.041,0.021l-0.004,0.004l-0.039,0.021
		l-0.004,0.002l-0.039,0.018l-0.004,0.002l-0.039,0.018l-0.004,0.002l-0.039,0.021l-0.004,0.002l-0.041,0.018l-0.004,0.002
		l-0.039,0.018l-0.004,0.002l-0.041,0.018l-0.004,0.002l-0.039,0.018l-0.004,0.002l-0.039,0.018l-0.006,0.004l-0.041,0.018
		l-0.004,0.002l-0.041,0.016l-0.004,0.002l-0.041,0.018l-0.004,0.004l-0.041,0.018l-0.006,0.002l-0.039,0.016l-0.004,0.002
		l-0.041,0.018l-0.004,0.002l-0.041,0.016l-0.004,0.002l-0.041,0.016l-0.004,0.002L46.469,81.3l-0.006,0.002l-0.041,0.016
		l-0.006,0.002l-0.041,0.016l-0.006,0.002l-0.039,0.016l-0.004,0.002l-0.041,0.014l-0.004,0.002L46.24,81.39l-0.006,0.002
		l-0.041,0.016l-0.006,0.002l-0.041,0.016l-0.006,0.002l-0.041,0.014l-0.006,0.002l-0.041,0.016l-0.006,0.002l-0.041,0.014
		L46,81.481l-0.041,0.014l-0.006,0.002l-0.041,0.014l-0.006,0.002l-0.041,0.014l-0.006,0.002l-0.041,0.014l-0.004,0.002
		l-0.041,0.014l-0.041,0.014l-0.006,0.002l-0.043,0.012l-0.006,0.002l-0.041,0.012l-0.004,0.002l-0.041,0.014l-0.004,0.002
		l-0.043,0.012l-0.006,0.002l-0.041,0.012l-0.006,0.002l-0.041,0.012l-0.006,0.002l-0.043,0.014l-0.008,0.002l-0.082,0.025
		l-0.01,0.004l-0.084,0.025l-0.01,0.002l-0.084,0.025l-0.01,0.002l-0.084,0.023l-0.01,0.004l-0.084,0.023l-0.01,0.002l-0.084,0.023
		l-0.012,0.002L44.74,81.86l-0.01,0.002l-0.084,0.021l-0.012,0.002l-0.084,0.021l-0.01,0.002l-0.084,0.018l-0.01,0.002l-0.086,0.018
		l-0.012,0.002l-0.086,0.018l-0.01,0.002l-0.086,0.016l-0.01,0.002l-0.084,0.014l-0.01,0.002l-0.084,0.016l-0.01,0.002l-0.086,0.014
		l-0.01,0.002l-0.086,0.014l-0.01,0.002l-0.086,0.012l-0.01,0.002l-0.086,0.012l-0.01,0.002l-0.086,0.012l-0.01,0.002l-0.086,0.012
		l-0.012,0.002l-0.086,0.01l-0.01,0.002l-0.086,0.01l-0.01,0.002l-0.086,0.01l-0.086,0.008h-0.01l-0.086,0.006l-0.01,0.002
		l-0.086,0.006h-0.01l-0.086,0.006h-0.01l-0.086,0.006l-0.012,0.002l-0.086,0.006h-0.01l-0.086,0.004h-0.01l-0.086,0.004H42.33
		l-0.086,0.002h-0.01l-0.086,0.002h-0.01l-0.086,0.002h-0.304l-0.086-0.002l-0.086-0.002h-0.012l-0.086-0.002h-0.002l-0.086-0.004
		l-0.01-0.002l-0.086-0.004h-0.01l-0.086-0.004l-0.01-0.002l-0.086-0.004h-0.01l-0.086-0.006l-0.01-0.002l-0.086-0.008l-0.012-0.002
		l-0.086-0.008l-0.012-0.002l-0.086-0.008l-0.01-0.002l-0.086-0.008h-0.01l-0.086-0.008l-0.01-0.002l-0.086-0.01h-0.012l-0.086-0.01
		l-0.012-0.002l-0.086-0.012l-0.01-0.002l-0.086-0.012l-0.01-0.002l-0.086-0.012l-0.01-0.002l-0.086-0.012l-0.01-0.002l-0.084-0.014
		h-0.006l-0.086-0.016l-0.011-0.002l-0.084-0.016l-0.01-0.002l-0.084-0.016l-0.01-0.002l-0.084-0.016l-0.012-0.002l-0.085-0.016
		l-0.01-0.002l-0.084-0.018l-0.012-0.004l-0.084-0.018l-0.01-0.002l-0.084-0.021l-0.011-0.004l-0.084-0.021l-0.01-0.004
		l-0.084-0.023l-0.01-0.002l-0.084-0.023l-0.01-0.004l-0.084-0.023l-0.01-0.004l-0.084-0.023l-0.01-0.004l-0.084-0.025l-0.012-0.004
		l-0.084-0.025l-0.01-0.004l-0.084-0.025l-0.01-0.004l-0.084-0.025l-0.01-0.002l-0.082-0.027l-0.008-0.002l-0.043-0.014h-0.006
		l-0.041-0.012l-0.006-0.002l-0.041-0.014l-0.006-0.002l-0.041-0.014l-0.006-0.002l-0.041-0.014l-0.006-0.002l-0.041-0.014
		l-0.006-0.002l-0.041-0.014l-0.004-0.002l-0.041-0.014l-0.004-0.002l-0.041-0.014l-0.004-0.002l-0.041-0.016l-0.006-0.002
		l-0.041-0.016l-0.006-0.002l-0.041-0.016l-0.004-0.002l-0.041-0.016l-0.006-0.002l-0.041-0.016l-0.004-0.002l-0.041-0.016
		l-0.006-0.002l-0.041-0.016l-0.004-0.002l-0.041-0.016l-0.004-0.002l-0.041-0.016l-0.006-0.002l-0.041-0.016l-0.006-0.002
		l-0.041-0.016l-0.006-0.002l-0.041-0.016L37.15,81.23l-0.041-0.016l-0.004-0.002l-0.041-0.018l-0.006-0.002l-0.039-0.018
		l-0.004-0.002l-0.041-0.018L36.97,81.15l-0.041-0.018l-0.004-0.002l-0.041-0.016l-0.006-0.002l-0.039-0.018l-0.006-0.002
		l-0.041-0.018l-0.006-0.002l-0.039-0.018l-0.004-0.004l-0.039-0.018l-0.004-0.002l-0.039-0.018l-0.004-0.002l-0.041-0.018
		l-0.004-0.004l-0.041-0.021l-0.004-0.004l-0.039-0.018l-0.006-0.002l-0.041-0.018l-0.004-0.004l-0.039-0.021l-0.006-0.002
		l-0.041-0.021l-0.004-0.002l-0.039-0.021l-0.006-0.002l-0.039-0.021l-0.004-0.002l-0.039-0.021l-0.006-0.004l-0.039-0.021
		l-0.004-0.002l-0.039-0.021l-0.004-0.002l-0.039-0.021l-0.006-0.004l-0.039-0.021l-0.004-0.002l-0.039-0.023l-0.006-0.004
		l-0.039-0.021l-0.006-0.002l-0.039-0.021l-0.006-0.002l-0.039-0.021l-0.006-0.002l-0.039-0.023l-0.006-0.002l-0.037-0.023
		l-0.006-0.002l-0.037-0.023l-0.002-0.002L14.271,67.993l-0.002-0.002l-0.045-0.027l-0.004-0.002l-0.045-0.027l-0.006-0.002
		l-0.047-0.027l-0.006-0.002l-0.045-0.029l-0.004-0.002l-0.045-0.029l-0.004-0.004l-0.045-0.029l-0.004-0.004l-0.045-0.029
		l-0.006-0.002l-0.045-0.027l-0.006-0.004l-0.045-0.029l-0.004-0.004l-0.045-0.029h0.01l-0.045-0.029l-0.006-0.004l-0.045-0.029
		l-0.004-0.004l-0.045-0.029l-0.006-0.004l-0.045-0.031l-0.006-0.004l-0.045-0.031l-0.004-0.004l-0.045-0.029l-0.004-0.004
		l-0.045-0.031l-0.004-0.004l-0.045-0.031l-0.004-0.004l-0.043-0.031l-0.006-0.004l-0.044-0.031l-0.004-0.004l-0.043-0.031
		l-0.005-0.004l-0.043-0.031l-0.006-0.004l-0.043-0.031l-0.004-0.002l-0.043-0.031l-0.004-0.004l-0.042-0.031l-0.004-0.004
		l-0.042-0.031l-0.006-0.002l-0.043-0.031l-0.004-0.004l-0.043-0.033l-0.004-0.004l-0.043-0.031l-0.005-0.004L12.812,67
		l-0.005-0.004l-0.041-0.033l-0.004-0.004l-0.041-0.033l-0.004-0.002l-0.041-0.033l-0.004-0.004l-0.041-0.033l-0.004-0.004
		l-0.041-0.033l-0.004-0.004L12.54,66.78l-0.004-0.004l-0.041-0.033l-0.004-0.004l-0.041-0.033l-0.004-0.004l-0.041-0.035
		l-0.004-0.002l-0.041-0.033l-0.004-0.004l-0.04-0.033l-0.004-0.004l-0.041-0.035l-0.004-0.004l-0.041-0.033l-0.004-0.004
		l-0.041-0.035l-0.004-0.002l-0.04-0.033l-0.004-0.004l-0.039-0.033l-0.004-0.004L12.05,66.37l-0.004-0.004l-0.039-0.035
		l-0.004-0.004l-0.039-0.035l-0.004-0.004l-0.039-0.035l-0.004-0.004l-0.039-0.035l-0.004-0.004l-0.039-0.037l-0.004-0.002
		l-0.039-0.035l-0.006-0.004l-0.038-0.037l-0.004-0.004l-0.039-0.035L11.7,66.052l-0.038-0.037l-0.004-0.004l-0.037-0.037
		l-0.004-0.004l-0.037-0.037l-0.004-0.004l-0.039-0.037l-0.004-0.004l-0.039-0.037l-0.004-0.002l-0.037-0.037l-0.004-0.004
		l-0.037-0.037l-0.004-0.004l-0.037-0.037l-0.004-0.004l-0.037-0.037l-0.004-0.004l-0.037-0.037l-0.004-0.004l-0.037-0.037
		l-0.004-0.004l-0.035-0.037l-0.004-0.004l-0.037-0.037l-0.004-0.004l-0.037-0.039l-0.004-0.004l-0.035-0.039l-0.004-0.004
		l-0.035-0.039l-0.004-0.004l-0.037-0.039l-0.004-0.004l-0.035-0.039l-0.004-0.004l-0.035-0.039l-0.004-0.004l-0.035-0.039
		l-0.004-0.004l-0.035-0.039l-0.004-0.004l-0.035-0.039l-0.002-0.004l-0.033-0.039l-0.004-0.004l-0.035-0.039l-0.004-0.004
		l-0.037-0.041l-0.004-0.004l-0.035-0.039l-0.004-0.004l-0.035-0.041l-0.004-0.004l-0.033-0.039l-0.002-0.004l-0.033-0.039
		l-0.004-0.004l-0.033-0.041l-0.004-0.004l-0.035-0.041l-0.004-0.004l-0.033-0.039l-0.004-0.004l-0.035-0.039l-0.004-0.004
		l-0.033-0.039l-0.004-0.004l-0.033-0.041l-0.004-0.004l-0.033-0.041l-0.004-0.004l-0.033-0.041l-0.004-0.004l-0.033-0.041
		l-0.004-0.004l-0.033-0.041l-0.002-0.004l-0.031-0.041l-0.004-0.004l-0.031-0.041l-0.002-0.004l-0.031-0.041l-0.004-0.004
		l-0.031-0.043L10.035,64.2l-0.031-0.041L10,64.155l-0.031-0.041L9.967,64.11l-0.031-0.043l-0.002-0.004l-0.031-0.043l-0.002-0.004
		l-0.031-0.041L9.869,63.97l-0.031-0.041l-0.004-0.004l-0.031-0.043l-0.004-0.004l-0.031-0.043l-0.004-0.006l-0.029-0.043
		l-0.004-0.004l-0.029-0.043l-0.004-0.004L9.67,63.691l-0.004-0.004l-0.029-0.043L9.635,63.64l-0.029-0.043l-0.004-0.006
		l-0.029-0.043l-0.004-0.004L9.541,63.5l-0.004-0.004l-0.029-0.043l-0.004-0.004l-0.029-0.043l-0.004-0.004l-0.027-0.043
		l-0.002-0.004l-0.027-0.043l-0.004-0.006l-0.029-0.043l-0.004-0.006L9.35,63.213l-0.002-0.004l-0.029-0.045l-0.002-0.006
		L9.29,63.115l-0.004-0.004L9.26,63.068l-0.004-0.004l-0.027-0.045l-0.004-0.006l-0.027-0.043l-0.002-0.004L9.169,62.92
		l-0.002-0.004l-0.027-0.043l-0.004-0.006L9.11,62.821l-0.004-0.006L9.079,62.77l-0.004-0.006L9.05,62.719l-0.004-0.004L9.02,62.67
		l-0.002-0.004L8.993,62.62l-0.002-0.004l-0.025-0.045l-0.002-0.006L8.94,62.52l-0.004-0.006l-0.025-0.045l-0.002-0.006
		l-0.025-0.047l-0.002-0.004l-0.025-0.045L8.856,62.36l-0.025-0.045l-0.002-0.006l-0.025-0.045l-0.002-0.006L8.78,62.21
		l-0.002-0.004l-0.025-0.047l-0.002-0.006l-0.025-0.047l-0.004-0.004L8.7,62.054L8.698,62.05l-0.023-0.045l-0.002-0.006L8.65,61.952
		v0.002l-0.023-0.047L8.624,61.9l-0.023-0.047l-0.002-0.006l-0.023-0.045l-0.002-0.006l-0.023-0.047L8.55,61.745l-0.023-0.047
		l-0.002-0.004l-0.021-0.047l-0.002-0.004L8.48,61.595l-0.002-0.004l-0.023-0.047l-0.002-0.004l-0.023-0.047l-0.002-0.006
		l-0.021-0.047l-0.002-0.004l-0.023-0.047l-0.002-0.006l-0.023-0.047L8.357,61.33l-0.021-0.047l-0.002-0.004l-0.021-0.047
		l-0.002-0.006l-0.021-0.047l-0.002-0.004l-0.018-0.047l-0.002-0.004l-0.021-0.047L8.246,61.07L8.228,61.02l-0.002-0.004
		l-0.021-0.047l-0.002-0.006l-0.018-0.045l-0.002-0.006l-0.021-0.049L8.16,60.858l-0.018-0.049L8.14,60.803l-0.018-0.049
		L8.119,60.75L8.101,60.7l-0.002-0.006L8.08,60.645l-0.002-0.004L8.06,60.592l-0.002-0.004l-0.016-0.049l-0.002-0.006l-0.018-0.049
		l-0.002-0.004L8.002,60.43L8,60.423l-0.016-0.049l-0.002-0.006l-0.018-0.049l-0.002-0.006l-0.016-0.049l-0.002-0.004L7.926,60.21
		l-0.002-0.004l-0.016-0.049l-0.002-0.006l-0.016-0.049l-0.002-0.006l-0.016-0.049L7.869,60.04l-0.016-0.049L7.85,59.984
		l-0.016-0.049l-0.002-0.006L7.818,59.88l-0.002-0.004l-0.016-0.051l-0.002-0.006l-0.014-0.051l-0.002-0.006l-0.014-0.049
		l-0.002-0.006L7.75,59.656L7.748,59.65l-0.014-0.051l-0.002-0.006l-0.014-0.051l-0.002-0.004l-0.014-0.051l-0.002-0.002
		l-0.014-0.051l-0.002-0.004L7.67,59.379l-0.002-0.004l-0.012-0.049v-0.004l-0.014-0.051v-0.006l-0.012-0.049l-0.002-0.006
		L7.615,59.16l-0.002-0.006L7.6,59.102h0.002L7.59,59.051l-0.002-0.004l-0.012-0.051l-0.002-0.004L7.561,58.94l-0.002-0.004
		l-0.012-0.051l0.002-0.002l-0.012-0.051l-0.002-0.006l-0.012-0.051L7.52,58.768l-0.01-0.051l-0.002-0.006l-0.012-0.051
		l-0.002-0.004l-0.01-0.051l-0.002-0.006l-0.01-0.051L7.469,58.54l-0.01-0.051l-0.01-0.051v-0.006l-0.01-0.053v-0.006l-0.01-0.051
		l-0.002-0.006l-0.012-0.049v-0.006l-0.01-0.055l-0.002-0.006l-0.01-0.053l-0.002-0.006l-0.008-0.051l-0.002-0.006L7.371,58.03
		v-0.006l-0.008-0.051v-0.006l-0.008-0.051l-0.002-0.006l-0.008-0.051v0.002l-0.008-0.051v-0.004l-0.008-0.051v-0.006l-0.008-0.051
		v-0.006l-0.008-0.051v-0.004L7.305,57.58v-0.006l-0.006-0.051v-0.004l-0.008-0.053l-0.002-0.006l-0.006-0.051v-0.006l-0.006-0.053
		l-0.002-0.006l-0.006-0.053v-0.006L7.262,57.23L7.26,57.223L7.254,57.17v-0.006l-0.006-0.053l-0.002-0.004l-0.006-0.053L7.235,57
		v-0.006L7.229,56.94l-0.002-0.006l-0.006-0.053v-0.006l-0.004-0.053l-0.002-0.006l-0.004-0.053v-0.006l-0.004-0.053v-0.006
		l-0.004-0.053L7.198,56.59v-0.006L7.194,56.53v-0.006L7.19,56.471v-0.066l-0.002-0.053v-0.006l-0.002-0.053v-0.006l-0.002-0.053
		l-0.002-0.006L7.18,56.173v-0.057l-0.002-0.053v-0.006l-0.002-0.053v-25.97l0.002-0.051v-0.066l0.002-0.053v-0.189l0.002-0.053
		v-0.004l0.002-0.053v-0.006l0.002-0.053v-0.006l0.002-0.053v-0.004l0.002-0.053V29.38l0.002-0.053V29.32l0.004-0.055v-0.006
		L7.2,29.205v-0.004l0.002-0.053v-0.006l0.004-0.053v-0.006l0.002-0.053v-0.006l0.002-0.053v-0.006l0.004-0.053v-0.006l0.004-0.053
		v-0.006l0.006-0.053v-0.006l0.004-0.053l0.002-0.004l0.004-0.053V28.67l0.006-0.053v-0.004l0.006-0.053l0.002-0.006L7.256,28.5
		v-0.006l0.006-0.053v-0.004l0.006-0.053v-0.004l0.006-0.053l0.002-0.006l0.006-0.053V28.26l0.006-0.051v-0.006l0.006-0.053v-0.006
		l0.006-0.053l0.002-0.006l0.006-0.051v-0.006l0.008-0.053v-0.006l0.006-0.053l0.002-0.006l0.006-0.051l0.002-0.006l0.008-0.053
		l0.002-0.004l0.008-0.053v-0.004l0.008-0.053v-0.004l0.008-0.051l0.002-0.006l0.008-0.051v-0.006l0.014-0.053l0.002-0.006
		l0.008-0.051v-0.006l0.01-0.051V27.39l0.01-0.051v-0.004l0.01-0.053l0.002-0.004l0.01-0.051l0.002-0.004l0.01-0.051l0.002-0.006
		l0.01-0.051l0.002-0.006l0.01-0.051v-0.006l0.01-0.051v-0.004l0.01-0.051l0.002-0.004l0.01-0.051l0.002-0.004l0.012-0.051v-0.006
		l0.012-0.051l0.002-0.006l0.01-0.051l0.002-0.006l0.012-0.051v-0.006l0.012-0.051l0.002-0.006l0.012-0.051v-0.006l0.012-0.051
		l0.002-0.004l0.012-0.051v-0.004l0.012-0.051l0.002-0.006l0.014-0.051v-0.004l0.014-0.051v-0.004l0.014-0.051l0.002-0.006
		l0.014-0.051v-0.006l0.014-0.051l0.002-0.006l0.014-0.049l0.002-0.004l0.014-0.051l0.002-0.005l0.014-0.051l0.002-0.006l0.014-0.05
		l0.002-0.004l0.016-0.051l0.002-0.004l0.014-0.049l0.002-0.004l0.014-0.05l0.002-0.004l0.014-0.051l0.002-0.006l0.016-0.05
		l0.002-0.006l0.016-0.049v-0.004l0.016-0.049v-0.006l0.016-0.049l0.002-0.004l0.016-0.049l0.002-0.006l0.016-0.049l0.002-0.006
		l0.016-0.049l0.002-0.006l0.016-0.049l0.002-0.004l0.018-0.049l0.002-0.004l0.016-0.049l0.002-0.005l0.016-0.049l0.002-0.004
		l0.018-0.049l0.002-0.004l0.018-0.049v-0.004l0.018-0.049l0.002-0.004l0.018-0.049l0.002-0.006l0.018-0.049l0.002-0.004
		l0.018-0.049l0.002-0.006l0.021-0.047l0.002-0.004l0.021-0.049l0.002-0.004l0.021-0.049l0.002-0.006l0.021-0.049l0.002-0.006
		l0.021-0.049l0.002-0.006l0.021-0.049l0.002-0.006l0.021-0.049l0.002-0.006l0.021-0.049l0.002-0.005L8.37,24.24l0.002-0.006
		l0.021-0.047l0.002-0.006l0.021-0.049l0.002-0.004l0.023-0.049l0.002-0.004l0.023-0.047l0.002-0.004l0.021-0.047l0.002-0.006
		l0.023-0.047l0.002-0.004l0.023-0.047l0.002-0.004L8.56,23.82l0.002-0.004l0.023-0.047l0.002-0.006l0.023-0.047l0.002-0.004
		l0.023-0.047l0.002-0.006l0.023-0.047l0.002-0.004l0.023-0.047l0.002-0.004l0.023-0.047l0.002-0.004l0.023-0.047l0.002-0.004
		l0.025-0.045l0.002-0.004l0.025-0.047L8.79,23.35l0.025-0.047l0.002-0.004l0.025-0.047l0.002-0.006L8.868,23.2l0.002-0.004
		l0.025-0.045l0.002-0.004l0.025-0.045l0.002-0.006l0.025-0.045l0.004-0.004l0.025-0.045l0.002-0.006l0.025-0.045l0.004-0.004
		l0.025-0.045l0.002-0.004l0.025-0.045l0.004-0.006L9.09,22.8l0.002-0.004l0.025-0.045l0.002-0.004l0.027-0.045l0.002-0.004
		l0.027-0.045l0.002-0.004l0.027-0.045l0.004-0.004l0.027-0.045l0.002-0.004l0.027-0.045l0.004-0.004l0.027-0.045l0.002-0.004
		l0.027-0.045l0.004-0.004l0.027-0.045l0.002-0.004l0.029-0.045l0.004-0.006l0.029-0.045l0.002-0.004l0.027-0.043l0.004-0.004
		l0.029-0.043l0.004-0.004l0.027-0.045l0.002-0.004l0.029-0.043l0.002-0.004l0.029-0.043l0.004-0.004l0.029-0.045l0.004-0.004
		l0.029-0.043l0.002-0.006l0.029-0.043l0.002-0.004l0.029-0.043l0.002-0.004l0.031-0.043l0.004-0.004l0.029-0.043l0.004-0.004
		l0.031-0.043l0.002-0.004l0.031-0.043l0.002-0.004l0.031-0.043l0.002-0.004l0.031-0.043L9.9,21.538l0.031-0.043l0.002-0.004
		l0.031-0.043l0.004-0.004l0.031-0.041L10,21.399l0.031-0.043l0.004-0.004l0.031-0.041l0.004-0.004l0.031-0.041l0.004-0.004
		l0.031-0.041l0.004-0.004l0.031-0.041l0.002-0.004l0.031-0.041l0.004-0.004l0.033-0.041l0.004-0.004l0.033-0.041l0.004-0.004
		l0.033-0.041l0.004-0.004l0.033-0.041l0.004-0.004l0.033-0.041l0.004-0.006l0.033-0.041l0.002-0.004l0.033-0.041l0.004-0.004
		l0.033-0.041l0.004-0.004l0.033-0.039l0.004-0.004l0.033-0.041l0.004-0.004l0.033-0.041l0.004-0.004l0.035-0.039l0.004-0.004
		l0.033-0.041l0.004-0.004l0.033-0.039l0.004-0.004l0.033-0.041l0.004-0.004l0.035-0.041l0.002-0.004l0.035-0.039l0.004-0.004
		l0.035-0.039l0.004-0.004l0.035-0.039l0.004-0.004l0.035-0.039l0.002-0.004l0.035-0.039l0.004-0.004l0.035-0.039l0.004-0.004
		l0.035-0.039l0.002-0.004l0.035-0.039l0.004-0.004l0.037-0.039l0.002-0.004l0.037-0.039l0.004-0.004l0.039-0.037l0.004-0.004
		l0.037-0.039l0.004-0.004l0.037-0.039l0.004-0.004l0.037-0.037l0.004-0.004l0.037-0.037l0.004-0.004l0.037-0.037l0.004-0.004
		l0.039-0.037l0.004-0.004l0.037-0.037l0.004-0.004l0.037-0.037l0.004-0.004l0.037-0.037l0.004-0.004l0.037-0.037l0.004-0.004
		l0.037-0.037l0.004-0.004l0.037-0.037l0.004-0.004l0.037-0.037l0.004-0.004l0.039-0.035l0.004-0.004l0.039-0.035l0.004-0.004
		l0.039-0.037l0.004-0.004l0.039-0.037l0.004-0.002l0.039-0.035l0.004-0.002l0.039-0.035l0.004-0.004l0.039-0.035l0.004-0.004
		l0.039-0.035l0.004-0.004l0.039-0.035l0.004-0.002l0.041-0.035l0.004-0.004l0.041-0.035l0.004-0.004l0.041-0.035l0.004-0.004
		l0.041-0.033l0.004-0.004l0.041-0.033l0.004-0.004l0.039-0.033l0.004-0.004l0.041-0.033l0.004-0.004l0.041-0.033l0.004-0.002
		l0.041-0.033l0.004-0.004l0.041-0.033l0.004-0.004l0.041-0.033l0.004-0.004l0.043-0.033l0.004-0.004l0.041-0.033l0.004-0.004
		l0.043-0.033l0.004-0.004l0.043-0.033l0.004-0.004l0.041-0.033l0.004-0.002l0.043-0.033l0.004-0.004l0.041-0.033l0.004-0.004
		l0.043-0.031l0.004-0.004l0.043-0.033l0.004-0.004l0.043-0.031l0.004-0.002l0.043-0.031l0.006-0.004l0.043-0.031l0.004-0.002
		l0.043-0.031l0.004-0.004l0.043-0.033l0.004-0.002l0.045-0.031l0.004-0.004l0.043-0.031l0.006-0.002l0.043-0.031l0.004-0.002
		l0.043-0.031l0.004-0.002l0.045-0.031l0.004-0.004l0.043-0.031l0.004-0.002l0.045-0.029l0.004-0.002l0.043-0.031l0.006-0.004
		l0.045-0.029l0.004-0.004l0.045-0.031l0.004-0.004l0.045-0.029l0.006-0.002l0.045-0.029l0.004-0.004l0.045-0.029l0.004-0.002
		l0.045-0.029l0.004-0.002l0.045-0.029l0.004-0.002l0.045-0.029l0.006-0.002l0.045-0.027h0.002L34.754,4.875l0.002-0.002
		l0.043-0.027l0.004-0.002l0.045-0.029l0.006-0.004L34.9,4.785l0.006-0.004l0.045-0.027l0.006-0.004l0.045-0.027l0.006-0.002
		l0.047-0.027l0.004-0.004l0.045-0.027l0.006-0.002l0.045-0.027l0.004-0.002l0.047-0.025l0.004-0.004l0.047-0.025l0.004-0.004
		l0.045-0.025l0.006-0.002l0.047-0.025l0.004-0.004l0.045-0.025l0.006-0.004l0.045-0.025l0.006-0.004l0.045-0.025l0.004-0.004
		l0.047-0.025l0.004-0.002l0.045-0.025l0.006-0.002l0.045-0.025l0.006-0.002l0.047-0.025l0.006-0.002l0.047-0.025l0.004-0.002
		l0.047-0.023l0.006-0.002l0.047-0.023l0.006-0.002l0.045-0.023l0.006-0.002l0.047-0.023l0.004-0.002l0.047-0.023l0.006-0.002
		l0.047-0.023l0.006-0.004l0.047-0.023l0.006-0.002l0.047-0.023l0.006-0.002l0.047-0.021l0.006-0.002l0.047-0.021l0.004-0.004
		l0.047-0.021l0.004-0.002l0.047-0.021l0.006-0.004l0.047-0.021l0.006-0.002l0.047-0.021l0.006-0.002l0.047-0.021l0.006-0.002
		l0.047-0.021l0.006-0.002l0.047-0.021l0.006-0.002l0.047-0.018l0.006-0.002l0.047-0.021l0.006-0.002l0.049-0.021l0.006-0.002
		l0.049-0.021l0.006-0.004l0.047-0.018l0.004-0.002l0.049-0.018l0.006-0.002l0.047-0.018l0.004-0.002l0.049-0.018l0.006-0.002
		l0.049-0.016l0.006-0.002l0.049-0.018l0.006-0.002l0.049-0.018l0.006-0.002l0.049-0.016l0.006-0.002l0.049-0.016l0.006-0.002
		l0.047-0.016l0.006-0.002l0.049-0.016l0.006-0.002l0.047-0.016l0.006-0.002l0.049-0.016l0.004-0.002l0.049-0.016l0.006-0.002
		l0.049-0.016l0.006-0.002l0.049-0.016l0.006-0.002l0.049-0.014l0.004-0.002l0.049-0.014l0.006-0.002l0.049-0.014h0.006l0.049-0.014
		l0.006-0.002l0.049-0.014l0.004-0.002l0.049-0.014L38.09,3.4l0.049-0.014l0.006-0.002l0.049-0.014l0.006-0.002l0.049-0.014
		l0.006-0.002l0.049-0.012l0.006-0.002l0.049-0.012l0.004-0.002l0.049-0.014l0.005-0.002l0.051-0.012h0.004l0.049-0.014h0.006
		l0.051-0.012l0.006-0.002l0.051-0.012l0.006-0.002l0.049-0.012h0.006l0.051-0.012h0.006l0.049-0.012l0.006-0.002l0.049-0.01
		l0.006-0.002l0.049-0.012l0.006-0.002l0.049-0.01h0.006l0.049-0.01l0.006-0.002l0.049-0.01h0.004l0.049-0.01l0.006-0.002
		l0.051-0.01h0.004l0.051-0.01l0.004-0.002l0.051-0.01l0.006-0.002l0.051-0.01l0.006-0.002l0.051-0.008h0.006l0.049-0.008
		l0.006-0.002l0.051-0.01l0.006-0.002l0.051-0.008h0.006l0.049-0.008l0.006-0.002l0.051-0.008l0.006-0.002l0.049-0.008h0.004
		l0.049-0.008h0.006l0.051-0.008l0.006-0.002l0.051-0.008h0.006l0.051-0.008h0.006l0.051-0.008h0.006l0.051-0.006h0.006l0.049-0.006
		h0.006l0.051-0.006l0.006-0.002l0.051-0.006l0.004-0.002l0.051-0.004h0.006l0.049-0.006h0.006l0.049-0.006h0.006l0.051-0.006h0.006
		l0.051-0.006h0.006l0.049-0.004h0.006l0.051-0.006l0.006-0.002l0.051-0.004l0.006-0.002l0.051-0.004h0.006l0.05-0.004h0.006
		l0.051-0.004h0.006l0.051-0.002l0.006-0.002l0.051-0.004l0.004-0.002l0.051-0.002h0.006l0.051-0.004h0.004l0.051-0.002h0.006
		l0.051-0.002h0.006l0.051-0.002h0.006l0.051-0.002l0.006-0.002l0.051-0.002h0.006l0.051-0.002h0.006l0.051-0.002h0.006l0.051-0.002
		h0.006l0.051-0.002h0.004l0.051-0.002h0.064l0.051-0.002h0.119L41.934,2.835z M41.887,8.373h-0.034l-0.034,0h-0.033l-0.035,0.001
		l-0.035,0.001l-0.035,0.001l-0.035,0.002l-0.035,0.002l-0.035,0.002l-0.033,0.002l-0.035,0.002l-0.033,0.002l-0.033,0.002
		l-0.033,0.002l-0.035,0.002l-0.033,0.002l-0.035,0.004l-0.035,0.004l-0.033,0.004l-0.035,0.004l-0.035,0.004l-0.035,0.004
		l-0.033,0.004L41.068,8.43l-0.033,0.004l-0.033,0.004l-0.035,0.004l-0.033,0.004L40.902,8.45l-0.033,0.004l-0.033,0.004
		l-0.035,0.004l-0.033,0.006l-0.033,0.004l-0.035,0.006l-0.033,0.006l-0.033,0.006l-0.033,0.006L40.57,8.504L40.537,8.51
		l-0.033,0.006L40.471,8.52l-0.035,0.006l-0.033,0.006l-0.035,0.006l-0.033,0.006l-0.033,0.006L40.27,8.557l-0.033,0.008
		l-0.033,0.008l-0.033,0.008l-0.033,0.006l-0.033,0.006l-0.033,0.008L40.04,8.61l-0.033,0.008l-0.033,0.008l-0.033,0.008
		l-0.033,0.008l-0.033,0.008L39.844,8.66l-0.033,0.008l-0.033,0.008l-0.033,0.01l-0.033,0.008l-0.033,0.01l-0.031,0.01l-0.033,0.01
		l-0.033,0.01l-0.033,0.01l-0.033,0.01l-0.033,0.01l-0.031,0.01l-0.033,0.01l-0.033,0.012l-0.033,0.01l-0.033,0.01L39.29,8.832
		l-0.033,0.01l-0.033,0.01l-0.031,0.01L39.16,8.875l-0.033,0.012L39.095,8.9l-0.031,0.012l-0.033,0.012L39,8.936L38.97,8.949
		l-0.033,0.014l-0.033,0.012l-0.033,0.012L38.838,9l-0.031,0.014l-0.031,0.012l-0.033,0.014l-0.031,0.014L38.682,9.07l-0.031,0.014
		l-0.033,0.014l-0.031,0.014l-0.033,0.014l-0.031,0.014l-0.031,0.014L38.463,9.17L38.43,9.185l-0.031,0.014l-0.031,0.014
		L38.338,9.23l-0.031,0.016l-0.031,0.014l-0.031,0.016l-0.031,0.014l-0.031,0.016l-0.031,0.016l-0.031,0.016l-0.031,0.016
		l-0.031,0.016L38.03,9.392l-0.029,0.016l-0.031,0.016l-0.029,0.016L37.911,9.46L37.88,9.478L37.85,9.496l-0.029,0.016L37.79,9.531
		L37.761,9.55l-0.031,0.018L37.7,9.587l-0.033,0.021L17.071,22.301l-0.035,0.023l-0.033,0.021l-0.031,0.021l-0.031,0.021
		l-0.031,0.021l-0.031,0.021l-0.031,0.021l-0.031,0.021l-0.031,0.021l-0.031,0.021l-0.031,0.021l-0.031,0.021l-0.031,0.023
		l-0.029,0.021l-0.029,0.021l-0.031,0.021l-0.029,0.021l-0.029,0.021l-0.029,0.021l-0.029,0.021l-0.029,0.021l-0.029,0.021
		l-0.029,0.023L16.347,22.8l-0.029,0.023l-0.029,0.023l-0.029,0.023l-0.029,0.023l-0.029,0.023l-0.029,0.023l-0.027,0.023
		l-0.029,0.023l-0.029,0.023l-0.027,0.023l-0.029,0.023l-0.029,0.023l-0.027,0.023l-0.029,0.023l-0.027,0.023l-0.027,0.023
		l-0.027,0.025l-0.027,0.025l-0.027,0.023l-0.027,0.023l-0.027,0.025l-0.027,0.025l-0.027,0.025l-0.027,0.025l-0.027,0.025
		l-0.027,0.025l-0.027,0.025l-0.027,0.025l-0.027,0.025l-0.027,0.025l-0.027,0.025l-0.025,0.025l-0.027,0.025l-0.025,0.027
		l-0.027,0.025l-0.025,0.027l-0.025,0.025l-0.025,0.027l-0.025,0.025l-0.025,0.027l-0.025,0.027l-0.027,0.027l-0.025,0.025
		l-0.025,0.027l-0.025,0.027l-0.025,0.027L15.1,23.94l-0.025,0.027l-0.025,0.027l-0.025,0.027l-0.025,0.029l-0.025,0.027
		l-0.023,0.027l-0.023,0.027l-0.025,0.029l-0.023,0.027l-0.025,0.027l-0.023,0.029l-0.023,0.027l-0.023,0.029l-0.023,0.029
		l-0.023,0.029l-0.023,0.029l-0.023,0.029l-0.023,0.029l-0.021,0.029l-0.023,0.029l-0.023,0.029l-0.023,0.029l-0.023,0.029
		l-0.021,0.029l-0.021,0.029l-0.021,0.029l-0.021,0.031l-0.021,0.029l-0.021,0.029l-0.021,0.031l-0.021,0.029l-0.021,0.029
		l-0.021,0.029l-0.021,0.029l-0.018,0.031l-0.021,0.031l-0.021,0.029l-0.021,0.031l-0.018,0.031l-0.018,0.029l-0.018,0.031
		l-0.018,0.031l-0.018,0.031l-0.018,0.031l-0.021,0.031l-0.021,0.031l-0.018,0.031l-0.018,0.031l-0.018,0.031l-0.018,0.031
		l-0.018,0.031L14,25.452l-0.018,0.031l-0.018,0.031l-0.018,0.031l-0.018,0.031l-0.018,0.033l-0.018,0.031l-0.018,0.031
		l-0.018,0.033l-0.016,0.031l-0.016,0.033l-0.016,0.033l-0.016,0.033l-0.016,0.031l-0.016,0.031l-0.016,0.033l-0.016,0.031
		l-0.016,0.033l-0.014,0.031l-0.016,0.033l-0.016,0.033l-0.016,0.033l-0.016,0.033l-0.016,0.033l-0.014,0.033L13.58,26.25
		l-0.014,0.033l-0.014,0.033l-0.014,0.033l-0.014,0.033l-0.014,0.033l-0.014,0.033l-0.014,0.033l-0.012,0.033l-0.014,0.033
		l-0.014,0.035l-0.014,0.033l-0.014,0.033l-0.014,0.033l-0.012,0.033l-0.014,0.035l-0.014,0.033l-0.012,0.033l-0.012,0.035
		l-0.012,0.033l-0.012,0.035l-0.012,0.033l-0.012,0.035l-0.012,0.035l-0.012,0.035l-0.01,0.035l-0.012,0.033l-0.012,0.035
		l-0.01,0.035l-0.01,0.033l-0.01,0.035l-0.012,0.035l-0.01,0.033l-0.01,0.033l-0.01,0.035l-0.012,0.035l-0.01,0.035l-0.01,0.033
		l-0.01,0.035l-0.01,0.035l-0.01,0.035l-0.01,0.035l-0.01,0.035l-0.008,0.035l-0.008,0.035l-0.01,0.035l-0.008,0.035l-0.01,0.035
		l-0.008,0.035l-0.008,0.035l-0.008,0.037l-0.008,0.035l-0.008,0.035l-0.008,0.035L12.96,28.09l-0.008,0.035l-0.008,0.035
		l-0.006,0.035L12.93,28.23l-0.006,0.035l-0.006,0.037l-0.006,0.037l-0.006,0.037l-0.006,0.037l-0.006,0.035l-0.006,0.035
		l-0.006,0.037l-0.006,0.037l-0.006,0.035l-0.006,0.035l-0.006,0.035l-0.006,0.037l-0.004,0.037l-0.004,0.037l-0.004,0.035
		l-0.006,0.037l-0.006,0.035l-0.004,0.037l-0.004,0.037l-0.004,0.037l-0.004,0.037l-0.004,0.037L12.8,29.099l-0.004,0.035
		l-0.004,0.037l-0.004,0.037l-0.002,0.037l-0.004,0.037l-0.004,0.037l-0.002,0.037l-0.002,0.037l-0.002,0.037l-0.002,0.037
		l-0.002,0.037l-0.002,0.037l-0.002,0.037l-0.002,0.037l-0.002,0.037l-0.002,0.037v0.037l-0.002,0.037l-0.002,0.037v0.037
		l-0.002,0.037v26.011l0.002,0.037v0.111l0.002,0.035l0.002,0.037l0.002,0.037l0.002,0.037l0.002,0.037l0.002,0.037l0.002,0.037
		l0.002,0.037l0.002,0.037l0.004,0.037l0.002,0.037l0.002,0.037l0.002,0.037l0.004,0.035l0.004,0.037l0.004,0.035l0.002,0.037
		l0.004,0.035l0.004,0.035l0.004,0.035l0.004,0.035l0.004,0.037l0.004,0.035l0.004,0.035l0.004,0.037l0.004,0.037l0.004,0.035
		l0.004,0.037l0.006,0.035l0.006,0.035l0.006,0.035l0.006,0.035l0.006,0.037l0.006,0.035l0.006,0.035l0.006,0.035l0.006,0.035
		l0.008,0.035l0.006,0.035l0.006,0.035l0.006,0.035l0.008,0.035l0.008,0.035l0.006,0.035l0.008,0.035l0.008,0.035l0.008,0.035
		l0.008,0.035l0.008,0.035l0.008,0.035l0.008,0.035l0.008,0.033l0.01,0.033l0.008,0.035l0.008,0.035l0.008,0.035l0.01,0.035
		l0.008,0.033l0.008,0.035l0.008,0.033l0.01,0.035l0.008,0.033l0.01,0.035l0.01,0.035l0.01,0.033l0.01,0.035l0.01,0.035l0.01,0.033
		l0.01,0.035l0.012,0.033l0.012,0.033l0.012,0.033l0.012,0.033l0.01,0.033l0.012,0.035l0.012,0.033l0.012,0.033l0.012,0.033
		l0.012,0.033l0.012,0.033l0.012,0.033l0.012,0.033l0.012,0.033l0.012,0.033l0.014,0.033l0.014,0.033l0.012,0.033l0.012,0.033
		l0.012,0.033l0.012,0.033l0.012,0.033l0.014,0.033l0.014,0.033l0.014,0.033l0.014,0.033l0.014,0.033l0.014,0.033l0.014,0.033
		l0.014,0.033l0.014,0.033l0.014,0.033l0.014,0.033l0.014,0.031l0.016,0.033l0.016,0.031l0.016,0.033l0.016,0.031l0.016,0.031
		l0.016,0.031l0.016,0.031l0.016,0.031l0.016,0.031l0.018,0.031l0.016,0.031l0.016,0.031l0.016,0.031l0.018,0.031l0.018,0.031
		l0.016,0.031l0.016,0.031l0.016,0.031l0.018,0.031l0.016,0.031l0.018,0.029l0.018,0.031l0.018,0.029l0.018,0.031l0.018,0.031
		l0.018,0.029l0.018,0.029l0.018,0.029l0.018,0.029l0.018,0.031l0.018,0.031l0.021,0.029l0.018,0.029l0.018,0.031l0.018,0.029
		l0.018,0.029l0.021,0.029l0.021,0.029l0.021,0.031l0.021,0.029l0.021,0.029l0.021,0.029l0.021,0.029l0.021,0.029l0.021,0.029
		l0.021,0.029l0.023,0.029l0.023,0.029l0.021,0.029l0.021,0.029l0.021,0.029l0.021,0.029l0.023,0.027l0.023,0.027l0.023,0.029
		l0.023,0.027l0.023,0.029l0.023,0.027l0.023,0.027l0.023,0.027l0.023,0.027l0.023,0.027l0.023,0.027l0.023,0.027l0.023,0.027
		l0.023,0.027l0.023,0.027l0.023,0.027l0.025,0.027l0.025,0.027l0.023,0.027l0.025,0.025l0.025,0.027l0.025,0.025l0.025,0.027
		l0.023,0.027l0.025,0.027l0.025,0.025l0.025,0.025l0.025,0.025l0.025,0.025l0.025,0.027l0.025,0.025l0.025,0.025l0.025,0.025
		l0.025,0.025l0.025,0.025l0.027,0.025l0.025,0.025l0.025,0.025l0.027,0.025l0.025,0.025l0.025,0.025l0.027,0.025l0.027,0.023
		l0.027,0.023l0.027,0.025l0.027,0.025l0.027,0.023l0.027,0.023l0.027,0.025l0.027,0.025l0.027,0.023l0.029,0.023l0.029,0.023
		l0.029,0.023l0.027,0.023l0.027,0.023l0.029,0.023l0.027,0.023l0.029,0.021l0.027,0.023l0.029,0.023l0.029,0.023l0.029,0.023
		l0.027,0.021l0.029,0.023l0.029,0.021l0.029,0.023l0.029,0.023l0.029,0.021l0.029,0.021l0.031,0.021l0.029,0.021l0.029,0.021
		l0.029,0.021l0.029,0.021l0.029,0.021l0.029,0.021l0.031,0.021l0.031,0.018l0.031,0.021l0.029,0.021l0.031,0.021l0.031,0.021
		l0.029,0.018l0.031,0.018l0.031,0.018l0.031,0.018l0.031,0.018l0.031,0.018l0.033,0.018l0.031,0.018l0.031,0.018l0.035,0.021
		l21.474,12.554l0.027,0.016l0.023,0.012l0.025,0.012l0.025,0.012l0.025,0.012l0.023,0.014l0.025,0.012l0.025,0.012l0.025,0.012
		l0.025,0.014l0.025,0.012l0.025,0.012l0.025,0.012l0.025,0.012l0.025,0.012l0.025,0.012l0.025,0.012l0.025,0.012l0.023,0.012
		l0.025,0.012l0.025,0.012l0.025,0.01l0.025,0.012l0.025,0.01l0.025,0.01l0.025,0.01l0.025,0.012l0.025,0.012l0.025,0.01
		l0.025,0.012l0.025,0.01l0.025,0.01l0.025,0.01l0.025,0.01l0.025,0.01l0.025,0.01l0.025,0.01l0.025,0.01l0.025,0.01l0.025,0.008
		l0.027,0.01l0.025,0.01l0.025,0.01l0.025,0.01l0.025,0.01l0.025,0.008l0.025,0.01l0.025,0.008l0.025,0.008l0.027,0.008l0.025,0.008
		l0.023,0.008l0.053,0.016l0.051,0.016l0.051,0.014l0.051,0.014l0.051,0.014l0.051,0.014l0.051,0.014l0.051,0.014l0.051,0.014
		l0.051,0.012l0.051,0.012l0.051,0.012l0.051,0.01l0.051,0.012l0.051,0.01l0.051,0.01l0.051,0.01l0.051,0.008l0.051,0.01
		l0.051,0.008l0.051,0.008l0.053,0.008l0.051,0.008l0.053,0.006l0.053,0.006l0.053,0.006l0.053,0.004l0.051,0.004l0.053,0.004
		l0.051,0.004l0.053,0.004l0.053,0.004l0.051,0.004l0.051,0.002l0.051,0.002l0.053,0.002h0.263l0.053-0.002h0.053l0.053-0.002
		l0.053-0.002l0.053-0.004l0.053-0.004l0.053-0.002l0.053-0.004l0.053-0.004l0.053-0.004l0.051-0.004l0.053-0.006l0.053-0.006
		l0.051-0.006l0.053-0.006l0.051-0.008l0.053-0.008l0.051-0.008l0.053-0.008l0.051-0.008l0.051-0.01l0.051-0.008l0.053-0.01
		l0.051-0.01l0.051-0.012l0.051-0.01l0.051-0.012l0.051-0.012l0.051-0.012l0.051-0.012l0.051-0.014l0.051-0.014l0.051-0.014
		l0.051-0.014l0.053-0.016l0.025-0.008l0.025-0.008l0.025-0.008l0.027-0.008l0.025-0.008l0.027-0.008l0.025-0.008l0.025-0.008
		l0.027-0.008l0.025-0.008l0.025-0.008l0.027-0.01l0.025-0.008l0.027-0.008l0.025-0.01l0.025-0.008l0.025-0.008l0.025-0.008
		l0.027-0.01l0.025-0.008l0.025-0.01l0.025-0.01l0.025-0.01l0.025-0.01l0.025-0.01l0.025-0.01l0.025-0.01l0.025-0.01l0.025-0.01
		l0.025-0.01l0.025-0.012l0.025-0.012l0.025-0.01l0.025-0.012l0.025-0.012l0.025-0.01l0.025-0.012l0.025-0.012l0.025-0.012
		l0.023-0.012l0.025-0.012l0.025-0.012l0.025-0.012l0.025-0.012l0.025-0.012l0.025-0.012L44.937,76l0.025-0.012l0.023-0.012
		l0.025-0.012l0.025-0.012l0.027-0.014l23.79-13.258l0.029-0.014l0.027-0.014l0.025-0.014l0.025-0.014l0.025-0.014l0.025-0.016
		l0.027-0.014l0.025-0.014l0.025-0.014l0.025-0.014l0.025-0.016l0.025-0.016l0.025-0.014l0.025-0.014l0.025-0.014l0.025-0.016
		l0.025-0.016l0.025-0.014l0.025-0.016l0.025-0.014l0.023-0.016l0.023-0.016l0.023-0.016l0.023-0.016l0.023-0.016l0.025-0.016
		l0.023-0.016l0.025-0.016l0.023-0.016l0.023-0.016l0.023-0.016l0.023-0.016l0.023-0.016l0.025-0.016l0.023-0.018l0.023-0.016
		l0.023-0.018l0.023-0.016l0.023-0.018l0.023-0.018l0.023-0.018l0.023-0.016l0.023-0.016l0.023-0.018l0.021-0.018l0.023-0.018
		l0.023-0.018l0.021-0.016l0.023-0.018l0.023-0.021l0.021-0.018l0.023-0.018l0.021-0.018l0.021-0.018l0.021-0.021l0.023-0.018
		l0.021-0.021l0.021-0.018l0.021-0.021l0.021-0.021l0.021-0.018l0.021-0.021l0.021-0.018l0.021-0.021l0.021-0.021l0.021-0.021
		l0.021-0.021l0.018-0.021l0.021-0.021l0.018-0.021l0.021-0.021l0.021-0.021l0.021-0.021l0.018-0.021l0.018-0.021l0.018-0.021
		l0.018-0.021l0.021-0.021l0.018-0.021l0.018-0.021l0.018-0.021l0.018-0.021l0.018-0.021l0.018-0.021l0.018-0.021l0.018-0.023
		l0.018-0.023l0.018-0.023l0.018-0.021l0.018-0.021l0.018-0.021l0.018-0.023l0.018-0.021l0.018-0.023l0.016-0.021l0.016-0.023
		L70.94,60.9l0.016-0.021l0.018-0.023l0.016-0.023l0.016-0.023l0.016-0.023l0.016-0.023l0.016-0.023l0.016-0.023l0.016-0.023
		l0.016-0.023l0.016-0.023l0.016-0.023l0.016-0.023l0.016-0.023l0.014-0.023l0.014-0.025l0.016-0.025l0.016-0.023l0.014-0.023
		l0.014-0.023l0.016-0.025l0.016-0.023l0.014-0.023l0.014-0.025l0.014-0.025l0.014-0.025l0.014-0.025l0.014-0.023l0.014-0.025
		l0.014-0.025l0.014-0.023l0.014-0.025l0.014-0.025l0.014-0.025l0.012-0.025l0.012-0.025l0.014-0.025l0.014-0.025l0.012-0.025
		l0.014-0.025l0.014-0.025l0.012-0.025l0.012-0.025l0.012-0.027l0.012-0.025l0.014-0.025l0.014-0.025l0.012-0.025l0.012-0.025
		l0.012-0.025l0.012-0.027l0.012-0.025l0.012-0.025l0.012-0.027l0.012-0.025l0.012-0.025l0.012-0.027l0.012-0.027l0.012-0.027
		l0.012-0.025l0.01-0.025l0.01-0.027l0.01-0.027l0.01-0.027l0.01-0.025l0.01-0.027l0.01-0.027l0.01-0.027l0.01-0.025l0.01-0.027
		l0.01-0.027l0.01-0.027l0.01-0.027l0.01-0.027l0.008-0.027l0.008-0.027l0.008-0.027l0.008-0.027l0.01-0.027l0.01-0.027l0.01-0.027
		l0.01-0.027l0.008-0.027l0.01-0.027l0.008-0.027l0.008-0.027l0.01-0.027l0.008-0.027l0.008-0.027l0.008-0.027l0.008-0.027
		l0.006-0.027l0.008-0.027l0.008-0.027l0.008-0.027l0.008-0.027l0.006-0.027l0.006-0.029l0.008-0.027l0.006-0.027l0.006-0.029
		l0.008-0.027l0.006-0.027l0.006-0.027l0.006-0.027l0.006-0.029l0.006-0.027l0.006-0.027l0.004-0.029l0.006-0.029l0.006-0.027
		l0.004-0.029l0.006-0.027l0.006-0.029l0.006-0.029l0.006-0.027l0.006-0.029l0.004-0.029l0.006-0.029l0.004-0.027l0.006-0.027
		l0.004-0.029l0.004-0.029l0.004-0.029L72.3,57.7l0.004-0.029l0.004-0.029l0.004-0.029l0.002-0.029l0.004-0.027l0.002-0.029
		l0.004-0.029l0.004-0.027l0.004-0.029l0.002-0.029l0.002-0.029l0.002-0.029l0.002-0.029l0.004-0.029l0.002-0.029l0.002-0.029
		l0.002-0.029l0.002-0.029l0.002-0.029l0.002-0.029l0.002-0.029l0.002-0.029l0.002-0.029l0.002-0.029l0.002-0.029v-0.057L72.37,56.9
		V28.502l-0.002-0.025l-0.002-0.027v-0.027l-0.002-0.027V28.37l-0.002-0.027v-0.027L72.36,28.29l-0.002-0.025l-0.002-0.027
		l-0.002-0.027l-0.002-0.027l-0.002-0.025l-0.002-0.027l-0.002-0.025l-0.002-0.027l-0.004-0.027l-0.002-0.025l-0.002-0.025
		l-0.004-0.025l-0.002-0.025l-0.004-0.027l-0.002-0.025l-0.004-0.025l-0.004-0.027l-0.002-0.027l-0.002-0.025l-0.004-0.023
		l-0.008-0.054l-0.006-0.052l-0.008-0.053l-0.008-0.051l-0.01-0.051l-0.01-0.051l-0.008-0.051l-0.01-0.051l-0.012-0.051
		l-0.012-0.051L72.2,27.212l-0.012-0.051l-0.012-0.051l-0.012-0.051l-0.012-0.051l-0.014-0.051l-0.014-0.051l-0.014-0.051
		l-0.016-0.051l-0.014-0.049l-0.016-0.049l-0.016-0.049l-0.016-0.049l-0.016-0.049l-0.018-0.049l-0.018-0.049l-0.018-0.047
		l-0.018-0.049l-0.018-0.049L71.9,26.262l-0.021-0.047l-0.018-0.049l-0.021-0.047l-0.021-0.047L71.8,26.024l-0.023-0.047
		l-0.021-0.047l-0.023-0.047l-0.023-0.047l-0.023-0.045l-0.025-0.047l-0.023-0.047l-0.025-0.047l-0.025-0.045l-0.025-0.045
		l-0.025-0.045l-0.025-0.045l-0.025-0.045l-0.027-0.045l-0.027-0.045l-0.027-0.045l-0.029-0.045l-0.027-0.043l-0.027-0.043
		l-0.029-0.043l-0.029-0.043l-0.029-0.043l-0.029-0.043l-0.029-0.043l-0.029-0.043l-0.031-0.041l-0.031-0.041l-0.031-0.041
		l-0.031-0.041l-0.031-0.041l-0.033-0.041l-0.033-0.041l-0.033-0.041l-0.033-0.041l-0.033-0.039l-0.035-0.039l-0.033-0.039
		l-0.035-0.039l-0.035-0.039l-0.035-0.039l-0.035-0.039l-0.035-0.039l-0.037-0.037l-0.037-0.037l-0.037-0.037l-0.037-0.037
		l-0.037-0.037l-0.039-0.037l-0.039-0.037l-0.039-0.035l-0.039-0.035l-0.039-0.035l-0.039-0.035l-0.039-0.035l-0.041-0.035
		l-0.041-0.033l-0.041-0.033L69.98,23.65l-0.043-0.035l-0.018-0.014l-0.021-0.016l-0.021-0.016l-0.021-0.016l-0.021-0.016
		l-0.021-0.014l-0.021-0.016l-0.021-0.016l-0.023-0.016l-0.023-0.016l-0.021-0.016l-0.021-0.016l-0.021-0.016l-0.021-0.014
		l-0.021-0.016l-0.023-0.016l-0.021-0.014l-0.021-0.014l-0.023-0.016L69.518,23.3l-0.023-0.014l-0.021-0.014l-0.023-0.014
		l-0.023-0.014l-0.023-0.014l-0.023-0.014l-0.023-0.014l-0.023-0.014l-0.023-0.014l-0.023-0.014l-0.023-0.014l-0.023-0.012
		l-0.023-0.012L69.2,23.103L45.988,9.484l-0.033-0.02l-0.03-0.016l-0.031-0.018l-0.031-0.018l-0.03-0.017l-0.031-0.016l-0.03-0.016
		l-0.031-0.016l-0.031-0.016l-0.031-0.016l-0.03-0.016L45.62,9.279l-0.031-0.016l-0.031-0.016l-0.031-0.016l-0.031-0.016
		l-0.031-0.016l-0.031-0.014l-0.031-0.016l-0.031-0.014l-0.031-0.014l-0.031-0.016l-0.032-0.014l-0.031-0.014l-0.031-0.014
		l-0.032-0.014l-0.031-0.014l-0.031-0.012l-0.032-0.014l-0.031-0.014l-0.031-0.014l-0.032-0.012l-0.031-0.012l-0.033-0.012
		l-0.032-0.014L44.871,8.93l-0.033-0.014l-0.033-0.012l-0.032-0.012l-0.032-0.012L44.71,8.866l-0.033-0.012l-0.033-0.012
		l-0.031-0.012l-0.031-0.01l-0.031-0.01l-0.033-0.012l-0.033-0.01l-0.031-0.01l-0.033-0.01l-0.033-0.01l-0.031-0.01l-0.033-0.01
		l-0.033-0.01l-0.033-0.01l-0.031-0.01l-0.033-0.01l-0.033-0.01l-0.033-0.01l-0.033-0.008l-0.033-0.01l-0.033-0.008L44,8.637
		l-0.033-0.008L43.934,8.62l-0.033-0.008l-0.033-0.01l-0.033-0.008l-0.033-0.008L43.77,8.579l-0.033-0.008l-0.033-0.008
		l-0.033-0.008l-0.033-0.006L43.606,8.54l-0.033-0.006l-0.033-0.006L43.508,8.52l-0.033-0.006l-0.033-0.006l-0.033-0.006
		l-0.033-0.006l-0.033-0.006l-0.033-0.006l-0.035-0.006l-0.033-0.004L43.21,8.468l-0.033-0.004L43.145,8.46l-0.033-0.006
		l-0.033-0.006l-0.033-0.004l-0.035-0.006l-0.033-0.004l-0.033-0.006l-0.033-0.004L42.88,8.419l-0.033-0.004l-0.033-0.004
		l-0.033-0.004l-0.035-0.004l-0.033-0.002l-0.033-0.004l-0.033-0.004L42.615,8.39l-0.033-0.002L42.55,8.386l-0.033-0.002
		l-0.033-0.002L42.449,8.38l-0.035-0.002l-0.033-0.002l-0.033-0.002h-0.033l-0.033-0.002L42.25,8.37h-0.035l-0.033-0.002
		L42.15,8.366l-0.031-0.002l-0.033-0.002h-0.068L41.986,8.36H41.92L41.887,8.373z"/>
	<path style="fill:#FFFFFF;" d="M26.276,63.604V21.096h8.894V36.58h14.753V21.096h8.919v42.508h-8.919V45.018H35.17v18.587
		L26.276,63.604L26.276,63.604z"/>
</g>
</svg>
