<svg xmlns="http://www.w3.org/2000/svg" viewBox="0 0 251.626 63.374">
    <path d="M178.939 54.055h-8.071V50.7h-.13c-1.001 1.549-4.414 3.821-8.574 3.821-10.173 0-14.912-6.384-14.912-15.378 0-8.932 4.986-15.378 13.98-15.378 4.365 0 6.874 1.631 8.388 3.821V9.32h9.32v44.735zM163 30.942c-4.274 0-6.802 3.521-6.802 8.432 0 4.919 2.527 7.97 6.802 7.97 4.347 0 6.992-3.051 6.992-7.97 0-4.911-2.703-8.432-6.992-8.432zm-20.527 18.162c-2.384 3.029-7.057 5.417-13.86 5.417-9.24 0-15.145-6.239-15.145-15.844 0-8.144 5.767-14.912 15.81-14.912 8.513 0 14.479 5.98 14.479 15.532 0 1.864-.449 3.555-.449 3.555h-21.305l.075.432c.71 2.324 3.01 4.712 6.902 4.712 3.45 0 6.511-1.748 7.801-3.327l5.692 4.435zm-6.934-13.227c-.345-3.072-3.061-5.588-6.447-5.588-4.144 0-6.88 2.675-7.131 5.588h13.578zM83.878 9.32h9.32v27.087l10.358-12.175h11.284L101.798 38.46l13.255 15.596h-10.798L93.197 40.278v13.776h-9.32V9.32zM48.463 24.231h8.071v4.179h.13c1.256-2.388 5.102-4.645 9.693-4.645 9.56 0 11.929 5.417 11.929 13.592v16.697h-9.32V39.346c0-3.521-.186-8.09-5.027-8.09-4.904 0-6.157 4.127-6.157 8.09v14.708h-9.32V24.231zM38.211 9.553c2.831 0 5.359 2.529 5.359 5.359s-2.528 5.359-5.359 5.359c-2.829 0-5.359-2.529-5.359-5.359s2.529-5.359 5.359-5.359zm-4.66 44.502h9.32V24.231h-9.32v29.824zM0 9.32h9.32v35.415h18.639v9.32H0V9.32zM246.407 0h-52.936a5.223 5.223 0 00-5.219 5.219v52.936a5.223 5.223 0 005.219 5.219h52.936a5.21 5.21 0 005.219-5.219V5.219A5.21 5.21 0 00246.407 0zm-39.516 54.054h-9.32V24.231h9.32v29.823zm-4.659-34.389c-3.131 0-5.685-2.554-5.685-5.685s2.554-5.685 5.685-5.685c3.15 0 5.685 2.554 5.685 5.685s-2.535 5.685-5.685 5.685zm40.074 34.389h-9.32V39.106c0-4.94-.969-7.642-4.567-7.642-4.902 0-6.617 3.709-6.617 7.642v14.949h-9.32V24.231h8.854v4.455c1.193-2.386 4.66-4.921 9.227-4.921 8.761 0 11.743 3.97 11.743 13.364v16.925zM246.407 0h-52.936a5.223 5.223 0 00-5.219 5.219v52.936a5.223 5.223 0 005.219 5.219h52.936a5.21 5.21 0 005.219-5.219V5.219A5.21 5.21 0 00246.407 0zm-39.516 54.054h-9.32V24.231h9.32v29.823zm-4.659-34.389c-3.131 0-5.685-2.554-5.685-5.685s2.554-5.685 5.685-5.685c3.15 0 5.685 2.554 5.685 5.685s-2.535 5.685-5.685 5.685zm40.074 34.389h-9.32V39.106c0-4.94-.969-7.642-4.567-7.642-4.902 0-6.617 3.709-6.617 7.642v14.949h-9.32V24.231h8.854v4.455c1.193-2.386 4.66-4.921 9.227-4.921 8.761 0 11.743 3.97 11.743 13.364v16.925z"/>
</svg>
