<?xml version="1.0" encoding="UTF-8"?>
<svg width="100%" height="100%" viewBox="0 0 175 100" version="1.1" xmlns="http://www.w3.org/2000/svg" xmlns:xlink="http://www.w3.org/1999/xlink">
    <!-- Generator: Sketch 47.1 (45422) - http://www.bohemiancoding.com/sketch -->
    <title>Group</title>
    <desc>Created with Sketch.</desc>
    <defs></defs>
    <g id="Wordmark" stroke="none" stroke-width="1" fill="none" fill-rule="evenodd">
        <g id="A4" transform="translate(-341.000000, -457.000000)" fill="#2D2F45">
            <g id="Group" transform="translate(341.000000, 457.000000)">
                <path d="M0,0 L0,18.676 L3.164,18.676 L3.164,7.532 L8.596,18.676 L14,7.532 L14,18.676 L17.164,18.676 L17.164,0 L14.112,0 L8.596,11.312 L3.052,0 L0,0 Z M40.588,0 L44.06,0 L51.676,18.676 L48.288,18.676 L42.338,3.35572964 L36.388,18.676 L33,18.676 L40.588,0 Z M67.188,0 L67.188,3.164 L72.424,3.164 L72.424,18.676 L75.588,18.676 L75.588,3.164 L80.824,3.164 L80.824,0 L67.188,0 Z M98.34,0 L98.34,3.164 L103.576,3.164 L103.576,18.676 L106.74,18.676 L106.74,3.164 L111.976,3.164 L111.976,0 L98.34,0 Z M128.932,0 L128.932,18.676 L142.568,18.676 L142.568,15.512 L132.096,15.512 L132.096,10.136 L137.556,10.136 L137.556,6.972 L132.096,6.972 L132.096,3.164 L142.26,3.164 L142.26,0 L128.932,0 Z M158.564,0 L166.236,0 C168.56,0 169.036,0.084 170.044,0.588 C172.004,1.596 173.208,3.528 173.208,5.656 C173.208,7.896 171.976,9.8 169.96,10.668 L173.488,18.676 L169.96,18.676 L166.74,11.284 L161.728,11.284 L161.728,18.676 L158.564,18.676 L158.564,0 Z M161.728,8.12 L166.684,8.12 C167.804,8.12 168.308,8.008 168.84,7.7 C169.54,7.28 169.988,6.468 169.988,5.656 C169.988,4.732 169.344,3.752 168.504,3.388 C168.112,3.22 167.636,3.164 166.74,3.164 L161.728,3.164 L161.728,8.12 Z M15.4582792,42.8783279 C13.8062792,41.0863279 11.1616335,39.9656714 8.64163353,39.9656714 C4.72163353,39.9656714 1.13379237,41.8566939 1.13379237,45.1326939 C1.13379237,46.9806939 1.96952519,48.4467425 3.53752519,49.2587425 C4.37752519,49.7067425 5.816,50.276 8.672,51.116 C11.052,51.816 11.472,51.984 11.836,52.18 C12.396,52.488 12.648,52.88 12.648,53.468 C12.648,55.008 10.856,56.128 8.448,56.128 C7.552,56.128 6.48435751,55.9152607 5.63882603,55.600458 C4.48411987,55.1259901 3.98452456,54.4663128 2.92052456,53.4303128 L2.69652456,53.2063128 L0,55.0338424 C2.02488381,58.143645 5.396,59.404 8.364,59.404 C12.676,59.404 15.952,56.884 15.952,53.58 C15.952,52.32 15.448,51.004 14.664,50.276 C13.74,49.408 12.256,48.736 9.484,47.98 C7.132,47.308 5.86152519,46.8507425 5.35752519,46.5987425 C4.62952519,46.2347425 4.35379237,45.8046939 4.35379237,45.0486939 C4.35379237,43.7326939 6.31070482,42.8933026 8.29870482,42.8933026 C9.92270482,42.8933026 11.3191957,43.16823 13.195177,44.9727099 L15.4582792,42.8783279 Z M35,40 L35,51.228 C35,52.936 35.196,53.832 35.784,55.036 C37.072,57.612 39.452,59.04 42.476,59.04 C45.472,59.04 47.852,57.612 49.14,55.036 C49.728,53.832 49.924,52.936 49.924,51.228 L49.924,40 L46.76,40 L46.76,51.2 C46.76,52.124 46.48,53.188 46.116,53.832 C45.416,55.008 43.904,55.82 42.476,55.82 C41.02,55.82 39.508,55.008 38.808,53.832 C38.444,53.188 38.164,52.124 38.164,51.2 L38.164,40 L35,40 Z M67.032,40 L74.34,40 C77.196,40 77.252,40 78.288,40.42 C80.584,41.316 81.956,43.304 81.956,45.712 C81.956,48.26 80.472,50.276 77.98,51.06 C77.252,51.284 77,51.312 74.816,51.312 L70.196,51.312 L70.196,58.676 L67.032,58.676 L67.032,40 Z M70.196,48.148 L75.684,48.148 C76.552,48.148 76.972,48.064 77.448,47.784 C78.204,47.364 78.68,46.552 78.68,45.684 C78.68,44.788 78.148,43.92 77.364,43.5 C76.832,43.192 76.636,43.164 75.376,43.164 L70.196,43.164 L70.196,48.148 Z M98.12,40 L105.428,40 C108.284,40 108.34,40 109.376,40.42 C111.672,41.316 113.044,43.304 113.044,45.712 C113.044,48.26 111.56,50.276 109.068,51.06 C108.34,51.284 108.088,51.312 105.904,51.312 L101.284,51.312 L101.284,58.676 L98.12,58.676 L98.12,40 Z M101.284,48.148 L106.772,48.148 C107.64,48.148 108.06,48.064 108.536,47.784 C109.292,47.364 109.768,46.552 109.768,45.684 C109.768,44.788 109.236,43.92 108.452,43.5 C107.92,43.192 107.724,43.164 106.464,43.164 L101.284,43.164 L101.284,48.148 Z M129.096,40 L129.096,58.676 L142.732,58.676 L142.732,55.512 L132.26,55.512 L132.26,40 L129.096,40 Z M156.02,40 L163.776,51.06 L163.776,58.676 L166.94,58.676 L166.94,51.06 L174.696,40 L170.804,40 L165.372,47.84 L159.912,40 L156.02,40 Z M15.924,84.676 C14.748,81.736 12.116,80 8.868,80 C6.628,80 4.25173971,80.812 2.93573971,82.352 C1.45173971,84.032 0.447161073,86.762 0.447161073,89.674 C0.447161073,92.614 1.45173971,95.316 2.93573971,96.996 C4.25173971,98.536 6.628,99.404 8.868,99.404 C12.116,99.404 14.748,97.668 15.924,94.728 L12.956,93.664 C11.948,95.4 10.716,96.184 8.98,96.184 C5.00691545,96.184 3.54197253,92.9350086 3.49158793,89.5998124 C3.537783,86.1856767 4.6430981,83.22 8.98,83.22 C10.716,83.22 11.948,84.004 12.956,85.74 L15.924,84.676 Z M42.868,80 C44.968,80 47.04,81.036 48.496,82.772 C49.756,84.312 50.484,86.776 50.484,89.576 C50.484,92.796 49.7,95.316 48.216,96.968 C46.844,98.508 44.8,99.404 42.756,99.404 C40.684,99.404 38.64,98.48 37.24,96.968 C35.784,95.316 35,92.824 35,89.744 C35,86.552 35.812,84.004 37.324,82.38 C38.752,80.84 40.712,80 42.868,80 Z M42.8639878,83.2000122 C39.9799878,83.2000122 38.2999878,85.5800122 38.2999878,89.6680122 C38.2999878,93.6160122 40.0079878,96.0520122 42.7799878,96.0520122 C45.5519878,96.0520122 47.2319878,93.6160122 47.2319878,89.6120122 C47.2319878,85.6920122 45.5519878,83.2000122 42.8639878,83.2000122 Z" id="MATTER-SUPPLY-Co"></path>
                <path d="M67.5,89.5 L173.5,89.5" id="Line" stroke="#2D2F45" stroke-width="3"></path>
            </g>
        </g>
    </g>
</svg>