<svg width="40" height="40" viewBox="0 0 40 40" fill="none" xmlns="http://www.w3.org/2000/svg">
<rect width="40" height="40" fill="white"/>
<path d="M22.04 31H34.62C35.0214 31 35.4056 30.8632 35.7533 30.67C36.101 30.4768 36.4594 30.2345 36.66 29.9C36.8606 29.5655 37.0002 29.1861 37 28.7999C36.9998 28.4137 36.8609 28.0344 36.66 27.7001L28.16 13.51C27.9594 13.1756 27.7143 12.9331 27.3667 12.74C27.0191 12.5469 26.5214 12.41 26.12 12.41C25.7186 12.41 25.3343 12.5469 24.9867 12.74C24.6391 12.9331 24.3939 13.1756 24.1933 13.51L22.04 17.14L17.7333 10.0997C17.5325 9.76536 17.2877 9.41304 16.94 9.22C16.5923 9.02696 16.2081 9 15.8067 9C15.4052 9 15.021 9.02696 14.6733 9.22C14.3257 9.41304 13.9675 9.76536 13.7667 10.0997L3.22667 27.7001C3.02572 28.0344 3.00018 28.4137 3 28.7999C2.99983 29.1861 3.02603 29.5655 3.22667 29.9C3.42731 30.2344 3.78568 30.4768 4.13333 30.67C4.48098 30.8632 4.86522 31 5.26667 31H13.2C16.3435 31 18.6315 29.6314 20.2267 27.04L24.08 20.55L26.12 17.14L32.3533 27.48H24.08L22.04 31ZM13.0867 27.48H7.53333L15.8067 13.62L20 20.55L17.2223 25.2498C16.163 26.9311 14.9553 27.48 13.0867 27.48Z" fill="#00DC82"/>
</svg>
