<svg viewBox="0 0 1000 221" aria-label="logo" xmlns="http://www.w3.org/2000/svg"><path d="M589.50838 58.174086c19.47344 0 34.52932 4.372115 45.15798 13.116348 10.62864 8.750715 16.04839 21.568665 16.24624 38.466836h-27.12465c-.20106-20.076711-11.82545-30.115058-34.87636-30.115058-9.53886 0-17.09275 1.936312-22.65198 5.812186-5.56568 3.872629-8.34528 9.094519-8.34528 15.652692 0 4.3786 1.03789 7.95283 3.12988 10.73243 2.08878 2.78609 4.81646 5.06946 8.19609 6.85657 3.37317 1.79687 7.3528 3.2337 11.92279 4.32346 4.57321 1.10275 9.43508 2.14064 14.59858 3.13315 6.76251 1.39465 13.71962 2.93854 20.87457 4.62184 7.15171 1.68983 13.55744 4.22292 19.22044 7.60255 5.67272 3.37963 10.33349 7.95284 14.01153 13.71962 3.67804 5.76678 5.51378 13.41474 5.51378 22.95685 0 6.96035-1.58926 13.26555-4.77427 18.92855-3.17856 5.66947-7.54743 10.48917-13.10987 14.4656-5.55919 3.97967-12.17576 7.05764-19.82372 9.24369-7.64796 2.18931-15.94784 3.27585-24.88666 3.27585-21.45839 0-37.96086-4.66402-49.4782-14.01152-11.14112-9.0264-16.96952-21.773-17.53064-38.21384h27.74089c.35353 10.05133 3.77857 17.6863 10.35944 22.85953 6.95062 5.46841 16.79112 8.1961 29.50205 8.1961 10.53459 0 18.63337-1.93631 24.29962-5.81541 5.65975-3.87589 8.49125-9.58755 8.49125-17.14466 0-4.76783-1.09629-8.59181-3.27585-11.47844-2.18931-2.87366-5.12134-5.2608-8.79938-7.1517-3.678-1.88768-7.89446-3.38288-12.66877-4.47592-4.76779-1.08977-9.7367-2.13416-14.90344-3.12988a365.57108 365.57108 0 0 1-20.26483-4.17751c-6.75926-1.58278-12.86983-4.02183-18.33498-7.29769-5.46191-3.28556-9.9378-7.80686-13.40825-13.56718-3.48341-5.76678-5.2219-13.31418-5.2219-22.65843 0-6.564665 1.44333-12.577947 4.32349-18.043089 2.88012-5.465143 6.9571-10.184302 12.22438-14.160723 5.26082-3.976418 11.57251-7.060901 18.92531-9.243714 7.35605-2.189301 15.6008-3.279088 24.74072-3.279088zm-144.56523 0c24.04015 0 41.67782 7.855538 52.90973 23.54715 11.22543 15.707827 16.84627 37.873264 16.84627 66.496374H399.93112c.39248 7.55714 1.7839 14.45909 4.17427 20.71888 2.38393 6.26626 5.61109 11.63088 9.68483 16.10677a44.486594 44.486594 0 0 0 14.01153 10.43081c5.26081 2.48767 11.073 3.72991 17.43656 3.72991 9.93781 0 18.42906-2.28659 25.4867-6.85654 7.04792-4.57324 13.26555-12.7758 14.94889-23.60555h29.01551c-3.41529 18.96098-11.77682 31.10754-24.59153 39.55338-12.82117 8.44581-28.07168 12.67523-45.75476 12.67523-23.65091 0-41.72644-7.20686-54.24277-21.62054-12.52279-14.41048-18.7858-34.33152-18.7858-59.78255 0-11.52056 1.68655-22.25949 5.06619-32.19728 3.37962-9.941067 8.2934-18.584751 14.7575-25.944046a67.440198 67.440198 0 0 1 23.24877-17.144658c9.03938-4.070479 19.22693-6.10734 30.5529-6.10734zm-216.84131 0c11.52707 0 21.90921 1.98821 31.15294 5.961387 9.2372 3.976418 17.08625 9.590758 23.54714 16.846264 6.45438 7.255505 11.42653 15.853783 14.90021 25.791593 3.47694 9.94105 5.2219 20.86809 5.2219 32.79408 0 11.92926-1.74496 22.91145-5.2219 32.95306-3.48017 10.03511-8.44261 18.63014-14.90346 25.7916-6.45439 7.1517-14.35857 12.71738-23.69635 16.6938-9.34102 3.96993-19.77507 5.96463-31.29239 5.96463-11.32601 0-21.56543-1.9947-30.70535-5.96787-9.14319-3.97318-16.94359-9.5421-23.40119-16.69056-6.45439-7.16146-11.37465-15.75649-14.75105-25.7916-3.37963-10.03512-5.06942-21.0238-5.06942-32.95306 0-11.92599 1.73845-22.85303 5.22186-32.79083 3.47045-9.94106 8.38748-18.539338 14.75105-25.794843 6.35707-7.255506 14.15747-12.869846 23.39794-16.846264 9.24049-3.973177 19.52531-5.961387 30.84482-5.961387zm595.96013 0c14.50451 0 25.83051 2.189301 33.9747 6.558174 8.15393 4.375359 14.20613 9.937804 18.1858 16.693824 3.96991 6.762507 6.40897 14.264512 7.30092 22.512506a221.83617 221.83617 0 0 1 1.34923 24.00448v42.03781c0 8.94532.24004 17.19978.73951 24.74721a137.43943 137.43943 0 0 0 3.12988 21.76974H863.1126a135.30204 135.30204 0 0 1-1.19679-8.19609c-.39895-3.28556-.69736-7.50849-.89846-12.67524-6.55167 8.75072-14.10881 14.9586-22.64547 18.6334-8.54962 3.67801-18.38689 5.52028-29.51502 5.52028-17.09275 0-30.25127-4.32671-39.49498-12.97364-9.23722-8.64695-13.85909-19.82697-13.85909-33.54659 0-8.34529 1.64117-15.35105 4.92025-21.01727a42.144854 42.144854 0 0 1 13.11636-14.01803c5.45863-3.67154 11.77357-6.55817 18.92528-8.6469a161.8234 161.8234 0 0 1 22.05518-4.76784c7.55065-1.08976 15.1078-1.9363 22.6552-2.52984 7.55067-.59679 14.50453-1.29414 20.86486-2.092v-5.36786c0-11.52057-2.68231-20.420491-8.04366-26.683512-5.37109-6.25978-14.01153-9.389668-25.93429-9.389668-10.72922 0-19.37287 2.633647-25.93107 7.897698-6.55817 5.270541-9.83724 13.070938-9.83724 23.407672h-27.12465c0-7.94958 1.53414-15.104545 4.6154-21.464869a46.705086 46.705086 0 0 1 12.97361-16.249479c5.55923-4.475904 12.1693-7.952837 19.82048-10.43729 7.64471-2.487694 16.13921-3.729918 25.48347-3.729918zM713.41633 25.379981v37.263522h33.39087v22.658455h-33.39087v76.632022c0 5.36459.15244 10.18429.45081 14.45912.29516 4.2748 1.04439 7.84903 2.23471 10.73244 1.19033 2.88662 3.0326 5.06943 5.51382 6.56466 2.48118 1.48871 5.90622 2.23471 10.28159 2.23471 2.1828 0 4.52132-.0455 7.00576-.15247 2.48446-.0975 5.31271-.54488 8.49125-1.34276v22.06815c-8.14097 1.78715-15.69487 2.67906-22.65198 2.67906-5.96137 0-11.37462-.73948-16.24624-2.23471-4.86509-1.48871-8.93881-3.91802-12.21792-7.29765-3.27906-3.38937-5.81216-7.95284-7.59605-13.71962-1.79683-5.76032-2.68554-12.8212-2.68554-21.16973V85.301958h-28.31819V62.643503h28.31819V25.376739h27.41979zm268.6191 35.476405c5.76029 0 11.52058.596788 17.28732 1.783875v24.150422a255.22382 255.22382 0 0 0-9.53882-1.49197 66.107156 66.107156 0 0 0-8.64044-.593543c-8.34528 0-15.15645 1.443319-20.42051 4.323464a31.208079 31.208079 0 0 0-12.37036 12.227646c-2.9742 5.26405-5.06297 11.67628-6.25976 19.23343-1.19032 7.55714-1.78389 16.00298-1.78389 25.34074v70.66416h-27.42625V62.643503h25.93104v22.658455c5.96138-9.341016 12.51955-15.74675 19.67128-19.226927 7.1582-3.476934 15.00402-5.221887 23.54715-5.221887v.0032zM350.75782.032743V216.49461h-27.41978V.0294996h27.41978zm-284.505332 0c9.136683 0 18.678791.3989393 28.616595 1.190331 9.934557.7946351 19.671267 3.5742363 29.213397 8.3485342 9.5356 5.1667518 16.73273 12.6687528 21.6108 22.5124998 4.86512 9.837257 7.30093 20.919986 7.30093 33.244939 0 13.116344-2.64015 24.293133-7.90093 33.536847-5.26731 9.243716-12.37039 16.557596-21.30921 21.918946-6.16247 3.58397-14.20613 6.21763-24.147176 7.90096-9.937804 1.6898-21.665971 2.53958-35.168283 2.53958H29.887388v85.26923H.67725V.0294996h65.575238ZM858.03342 141.36103c-5.76353.79463-12.91199 1.44333-21.4584 1.93633a134.03064 134.03064 0 0 0-24.74396 3.72992c-7.94634 1.98496-14.7056 5.01755-20.26479 9.0945-5.56569 4.07049-8.34532 9.98646-8.34532 17.74145 0 7.55065 2.8315 13.75532 8.49126 18.63015 5.67271 4.87483 13.46015 7.30414 23.39794 7.30414 5.55919 0 10.93028-.6876 16.10028-2.08874a32.155153 32.155153 0 0 0 13.70666-7.60256c3.97642-3.67153 7.15495-8.74097 9.5421-15.2051 2.38715-6.45763 3.57748-14.7575 3.57748-24.89315v-8.64694zM228.10184 80.235753c-6.96036 0-13.26231 1.394668-18.92206 4.171024-5.67272 2.789333-10.48918 6.762506-14.45913 11.929258-3.97642 5.166745-7.05764 11.384375-9.2437 18.636645-2.1893 7.25548-3.27584 15.35751-3.27584 24.30285 0 8.94208 1.04113 17.09276 3.12987 24.44556 2.08228 7.35605 5.11162 13.66774 9.09129 18.93502 3.96992 5.26731 8.78963 9.34102 14.45588 12.22442 5.66622 2.88011 11.96817 4.32345 18.92203 4.32345 7.16145 0 13.66125-1.44334 19.53181-4.32345a41.473468 41.473468 0 0 0 14.75104-12.07523c3.96993-5.1635 7.05115-11.37463 9.23721-18.64311 2.1893-7.24252 3.27909-15.35104 3.27909-24.29636s-1.09626-17.03763-3.27909-24.29637c-2.18928-7.25551-5.31269-13.51855-9.38318-18.785836-4.07694-5.267295-8.94531-9.341016-14.60507-12.224407-5.66622-2.880145-12.0752-4.323464-19.2334-4.323464h.006zm215.65099 0c-11.72492 0-21.36758 3.729921-28.92147 11.180032-7.55065 7.453351-12.31846 18.935025-14.30345 34.438505h84.95136c-1.59252-15.50348-6.16247-26.985154-13.71313-34.438505-7.55064-7.450111-16.89165-11.180032-28.01981-11.180032ZM67.442818 23.875039h-37.55543v83.501551h37.561917c7.547411 0 14.403979-.35029 20.563211-1.04436 6.162477-.69735 10.923801-1.83902 14.309914-3.42828 6.75279-3.379644 11.87087-8.449094 15.34457-15.2116 3.48342-6.752777 5.22191-14.20613 5.22191-22.360061 0-8.147441-1.73849-15.555386-5.22191-22.214104-3.48019-6.655476-8.59178-11.679516-15.34457-15.055905-3.386113-1.790363-8.147437-2.928796-14.309914-3.42504-6.159232-.499485-13.0158-.752469-20.563211-.752469z"/></svg>