<svg xmlns="http://www.w3.org/2000/svg" viewBox="0 0 260 48">
    <path d="M0 12.7h2l.2 3.1c1.9-1.6 4.9-3.5 8.9-3.5 5 0 8.7 3.1 8.7 11.8 0 9.3-4.6 13.1-10.1 13.1-3 0-5.6-1.4-7.5-2.6v12.1H0v-34zm2.3 19.6c1.3 1 3.9 2.9 7.4 2.9 5.5 0 7.7-4.6 7.7-11.3 0-7-2.1-9.7-6.7-9.7-3.3 0-6.7 2.1-8.3 3.9v14.2h-.1zM24 24.8c0-7.8 4-12.5 11.2-12.5 7.1 0 10.1 4.8 10.1 11.9 0 7.9-3.1 13-10.7 13-8 0-10.6-5.4-10.6-12.4zm18.8-.3c0-7.5-2.9-10.1-7.9-10.1-5.1 0-8.7 3.2-8.7 10.2 0 7 2.8 10.5 8.4 10.5 5.1 0 8.2-3 8.2-10.6zm10.6 12.7h-2.3V1.6h2.3v35.6zm9-29.9c-1.4 0-2.2-.7-2.2-2s.8-2 2.2-2c1.4 0 2.2.7 2.2 2 0 1.2-.8 2-2.2 2zm1.1 29.9h-2.3v-24h2.3v24zm6.2-11.9c0-8.4 4.1-12.5 11.1-12.5 4.5 0 8.2 2.6 8.5 7.8l-2.5.3c-.4-4.1-2.4-6-6.3-6-4 0-8.4 2.3-8.4 10.2 0 8.5 4.1 10.6 8.1 10.6 3.7 0 6.2-1.7 6.9-5.5l2.4.5c-.9 5.1-5 7.2-9.2 7.2-7.8-.2-10.6-5.4-10.6-12.6zm23.1-12.1h2.4l7.5 20.8 7.7-20.8h2.4c-3.3 8.7-7.5 19.7-10.9 28.4-1.8 4.6-4 6-7.1 6-1.7 0-3.2-.5-4.1-.9l.5-1.9c.7.3 2.3.8 3.8.8 2 0 3.6-.9 5.1-4.9l1.4-3.6-8.7-23.9zm42.9 2.9c.9 1.2 1.8 2.7 1.8 4.8 0 5.5-4.3 8.5-9.8 8.5-1.6 0-3.1-.1-4-.4l-2.2 3.6 5.8.3c8.4.4 12.4.8 12.4 6.5 0 5-4.3 7.9-12.5 7.9-8.3 0-11.3-2.2-11.3-5.8 0-2.3 1.3-3.6 2.9-5.1-1.6-.7-2.2-1.8-2.2-2.9 0-1 .4-1.8 1.2-2.7.8-.8 1.7-2 2.6-2.9-2.2-1.2-3.7-3.6-3.7-6.9 0-5.2 3.7-9 10.4-9 1.7 0 3.4.2 4.4.5h8.6v3.4l-4.4.2zm-13.2 21.3c-.8.9-1.8 2.1-1.8 3.3 0 2.2 2.5 2.9 6.6 2.9 2.4 0 7-.4 7-3.4 0-2.1-1.8-2.2-4.5-2.4l-7.3-.4zm4.9-21.7c-3.2 0-5.5 1.6-5.5 5.1 0 2.7 1.5 4.7 5.3 4.7 3.2 0 5.4-1.9 5.4-4.8.1-3.2-1.9-5-5.2-5zm35.4 19.4c-2.6 1.3-5.6 2.2-9 2.2-8.8 0-11.6-5.6-11.6-12.9 0-8.5 4.9-12.5 11.1-12.5 5.9 0 10 3.2 10 11.3 0 .6 0 1.8-.1 2.7H148c.2 4.4 1.9 7 6.5 7 2.3 0 4.1-.5 6.9-1.6l1.4 3.8zm-5-13c0-4.6-2.1-6.1-4.7-6.1-2.7 0-5 1.8-5.2 6.1h9.9zm24 14.6v-3l2.4-.3c.7-.1.8-.4.8-.9V21.6c0-2.8-.3-5.2-3.3-5.2-2.4 0-4.9 1.3-6.5 2.4v13.6c0 .8 0 .8.8.9l2.5.3v3h-11.7v-3.1l2.3-.3c.7-.1.8-.2.8-.9v-15c0-.5-.1-.8-.6-1l-2.6-.9.5-3h7l.4 2.6.2.1c2.6-1.8 5.4-3.1 8.8-3.1 5.1 0 7 3.2 7 8.6v11.9c0 .8 0 .8.7.9l2.6.3v3h-12.1zm14.8 0v-3l2.8-.4c.7-.1.8-.2.8-.9V17.3c0-.5-.1-.8-.6-1l-2.6-.9.5-3h8.1v20.1c0 .8 0 .8.8.9l2.8.3v3h-12.6zm5.7-28.9c-2.3 0-3.5-1.3-3.5-3.5s1.3-3.4 3.5-3.4 3.5 1.2 3.5 3.4c.1 2.2-1.3 3.5-3.5 3.5zm27.9 28.9l-.4-2.9h-.1c-2.1 1.6-4.7 3.5-8.8 3.5-5.1 0-6.8-2.6-6.8-8V17.1c0-.8 0-.9-.8-1l-2.4-.6.4-3.1h8.1v15.7c0 3.2.5 4.8 3.2 4.8s5.1-1.8 6.5-3.3V17.1c0-.8 0-.9-.8-1l-2.3-.6.4-3.1h8v20.1c0 .6.1.8.6.9l2.4.3v3h-7.2zm25.2-17.3l-.5-2.7c0-.3-.1-.5-.5-.7-.6-.2-1.9-.5-3.4-.5-3 0-4.5 1.1-4.5 3 0 2.5 2.6 3.1 5.6 3.8 3.7.9 7.9 2 7.9 7.4 0 5.6-4.6 7.6-10 7.6-4 0-8-1.1-8.8-1.6v-6.4l3.9.2.5 2.9c.1.4.1.5.6.7.6.2 2.1.7 4.2.7 2.9 0 4.7-.8 4.7-3.3 0-2.6-3-3.1-6.2-3.8-3.6-.8-7.3-1.9-7.3-6.9 0-5.7 4.8-7.8 9.8-7.8 3.5 0 6.8.9 7.9 1.4v6.4l-3.9-.4z"/>
</svg>
