<?xml version="1.0" encoding="UTF-8"?><svg id="Layer_1" xmlns="http://www.w3.org/2000/svg" xmlns:xlink="http://www.w3.org/1999/xlink" viewBox="0 0 147.67 177.41"><defs><style>.cls-1{fill:none;}.cls-1,.cls-2,.cls-3{stroke-width:0px;}.cls-2{fill:#fff;}.cls-3{fill:#ff3e00;}</style><symbol id="a" viewBox="0 0 93.2 112"><path class="cls-3" d="m87.25,97.18c-10.4,14.89-30.94,19.3-45.79,9.84l-26.08-16.62c-7.13-4.48-12.04-11.76-13.52-20.04-1.24-6.9-.15-14.02,3.11-20.23-2.23-3.39-3.76-7.19-4.48-11.18-1.5-8.44.46-17.14,5.45-24.12C16.34-.07,36.88-4.48,51.73,4.99l26.08,16.62c7.13,4.48,12.03,11.76,13.52,20.04,1.25,6.9.16,14.02-3.1,20.23,2.23,3.39,3.75,7.19,4.47,11.18,1.5,8.44-.46,17.14-5.45,24.12"/><path class="cls-2" d="m38.91,13.42c-8.41-2.19-17.29,1.11-22.24,8.24-3,4.2-4.18,9.42-3.28,14.5.15.83.36,1.64.62,2.43l.49,1.5,1.34-.98c3.08-2.27,6.53-3.99,10.2-5.1l.97-.29-.09-.97c-.12-1.38.26-2.75,1.05-3.87,1.49-2.15,4.17-3.14,6.7-2.49.57.15,1.11.39,1.6.7l26.08,16.63c1.29.81,2.18,2.13,2.45,3.63.27,1.53-.09,3.11-.99,4.37-1.49,2.15-4.17,3.14-6.7,2.49-.57-.15-1.11-.39-1.6-.7l-9.95-6.35c-1.64-1.04-3.43-1.82-5.3-2.33-8.41-2.19-17.29,1.11-22.24,8.24-3,4.2-4.18,9.42-3.28,14.5.9,4.98,3.85,9.36,8.14,12.05l26.08,16.62c1.64,1.04,3.42,1.83,5.3,2.33,8.41,2.19,17.29-1.11,22.24-8.24,3-4.2,4.18-9.42,3.28-14.5-.15-.82-.36-1.64-.62-2.44l-.49-1.5-1.34.98c-3.08,2.27-6.53,3.99-10.2,5.1l-.97.29.09.97c.12,1.38-.26,2.75-1.05,3.88-1.49,2.15-4.17,3.14-6.7,2.49-.57-.15-1.11-.39-1.6-.7l-26.09-16.63c-1.29-.81-2.18-2.13-2.45-3.63-.27-1.53.08-3.11.99-4.37,1.49-2.15,4.17-3.14,6.7-2.49.57.15,1.11.39,1.6.7l9.95,6.34c1.64,1.04,3.42,1.83,5.3,2.33,8.41,2.19,17.28-1.11,22.24-8.24,3-4.2,4.18-9.42,3.28-14.5-.89-4.98-3.85-9.36-8.13-12.05l-26.08-16.62c-1.64-1.04-3.42-1.83-5.3-2.33"/></symbol></defs><use width="93.2" height="112" transform="translate(.02 177.41) scale(1.58 -1.58)" xlink:href="#a"/><rect class="cls-1" x="0" y="0" width="147.67" height="177.41"/></svg>