<svg width="40" height="40" viewBox="0 0 40 40" fill="none" xmlns="http://www.w3.org/2000/svg">
<rect width="40" height="40" fill="white"/>
<path d="M31.3958 8.99419C28.5872 4.97431 23.0401 3.7828 19.0294 6.33819L11.9855 10.8276C10.0614 12.0381 8.73608 14.0029 8.33458 16.2404C7.99859 18.1043 8.29392 20.027 9.17382 21.7042C8.57089 22.6188 8.15967 23.6462 7.96501 24.7242C7.55962 27.0046 8.08988 29.3522 9.43608 31.2369C12.2453 35.2572 17.7924 36.4482 21.8026 33.8929L28.8464 29.4035C30.7706 28.1932 32.096 26.2283 32.4973 23.9908C32.8332 22.1269 32.5381 20.2042 31.6586 18.5268C32.2614 17.6122 32.6724 16.5849 32.8669 15.5069C33.2725 13.2265 32.7423 10.8788 31.3958 8.99419Z" fill="#FF3E00"/>
<path d="M18.3411 31.617C16.0707 32.2073 13.6731 31.3186 12.336 29.391C11.5262 28.2577 11.2072 26.8459 11.4511 25.4745C11.4919 25.2516 11.5482 25.0318 11.6194 24.8167L11.7521 24.4122L12.1129 24.6773C12.9464 25.2896 13.8782 25.7552 14.8683 26.054L15.1301 26.1334L15.1061 26.3947C15.0741 26.7664 15.1747 27.1374 15.3902 27.442C15.7926 28.0227 16.5145 28.2906 17.1983 28.1131C17.3513 28.0722 17.4972 28.0081 17.6309 27.923L24.6748 23.4341C25.0233 23.2146 25.2635 22.8588 25.3367 22.4535C25.4097 22.0401 25.3136 21.6148 25.07 21.273C24.6673 20.6922 23.9452 20.4242 23.2612 20.6015C23.1083 20.6424 22.9626 20.7065 22.8291 20.7915L20.1411 22.505C19.6991 22.7861 19.2167 22.9979 18.7107 23.1332C16.4402 23.7235 14.0426 22.8348 12.7054 20.9071C11.8957 19.7738 11.5767 18.362 11.8205 16.9906C12.0619 15.6452 12.859 14.4637 14.0161 13.736L21.0596 9.24676C21.5018 8.96526 21.9845 8.75317 22.4909 8.61787C24.7614 8.02755 27.159 8.9163 28.4961 10.8439C29.3059 11.9772 29.6248 13.389 29.381 14.7604C29.34 14.9833 29.2837 15.203 29.2127 15.4182L29.08 15.8227L28.7193 15.558C27.886 14.9453 26.954 14.4795 25.9637 14.1807L25.7019 14.1013L25.726 13.84C25.7578 13.4683 25.6571 13.0974 25.4419 12.7927C25.0395 12.2121 24.3176 11.9441 23.6338 12.1216C23.4807 12.1625 23.3348 12.2267 23.2012 12.3118L16.1571 16.8008C15.8085 17.0201 15.5684 17.3761 15.4957 17.7814C15.4222 18.1948 15.5181 18.6203 15.7619 18.9621C16.1645 19.5428 16.8866 19.8109 17.5707 19.6335C17.7237 19.5925 17.8696 19.5284 18.0033 19.4434L20.6909 17.7305C21.1327 17.4491 21.6151 17.2371 22.1211 17.1019C24.3916 16.5115 26.7893 17.4003 28.1264 19.3279C28.9362 20.4613 29.2551 21.873 29.0113 23.2444C28.7697 24.5899 27.9728 25.7715 26.8157 26.4995L19.7723 30.9882C19.3302 31.2697 18.8475 31.4817 18.3411 31.617Z" fill="white"/>
</svg>
