<svg xmlns="http://www.w3.org/2000/svg" viewBox="0 0 294.29 85.039">
    <path d="M105.27 66.404h5.421c5.854 0 8.836 3.957 8.836 7.806 0 3.903-1.897 8.023-8.511 8.023-4.228 0-5.746-1.355-5.746-5.15V66.404zm-4.174 12.142c0 3.144-.813 4.12-4.933 4.12h-1.138v.976h18.376c8.077 0 10.841-5.583 10.841-9.54 0-3.903-2.765-6.993-7.481-8.402v-.108c3.361-.596 5.746-3.252 5.746-6.125 0-2.385-1.03-4.12-3.036-5.583-1.789-1.301-5.692-1.951-10.083-1.951-.976 0-4.77.054-7.535.163-1.464.054-4.933.271-6.342.271v.976h1.735c3.523 0 3.849 1.518 3.849 4.391l.001 20.812zm4.174-25.532c1.247-.054 3.307-.163 4.445-.163 6.18 0 8.294 3.198 8.294 6.722 0 3.903-2.385 5.8-7.21 5.8h-5.475V53.014m32.633 16.534c-1.138 0-1.897.054-3.09-.108V52.961c.922-.108 1.572-.108 2.494-.108 7.752 0 9.866 3.632 9.866 8.294-.001 6.015-3.687 8.401-9.27 8.401zm37.132-16.208v-.976h-12.197v.976c2.819.163 3.74.922 3.74 3.632v21.412c0 3.252-.596 4.12-3.469 4.282-3.849-.217-5.475-1.68-8.185-4.445l-3.957-3.957c-2.331-2.385-3.849-3.74-5.746-5.204 4.12-1.193 6.667-4.391 6.667-8.131 0-5.15-4.174-8.944-13.443-8.944-3.252 0-4.282.054-6.342.163-2.06.108-5.095.271-6.342.271v.976h1.084c2.927 0 3.74.922 3.74 4.011v21.141c0 3.361-1.03 4.174-4.011 4.174h-.867v.976h14.202v-.976h-1.138c-2.819 0-4.011-.759-4.011-3.74V70.47c.813.054 1.464.108 2.548.108 1.355 0 2.168-.054 3.415-.108 1.193.813 2.981 2.277 5.15 4.445l3.307 3.307c4.337 4.337 6.18 5.692 14.365 5.421h11.383v-.976c-3.469 0-4.282-1.03-4.282-3.957V57.407c.106-3.363 1.191-4.067 4.389-4.067m3.415 22.604c1.03 4.445 4.553 7.101 8.511 7.101 3.361 0 6.938-1.951 6.938-5.909 0-7.21-16.099-9.432-16.099-18.214 0-4.174 3.794-7.264 8.944-7.264 4.228 0 5.095 1.247 6.83 1.247.379 0 .596-.108.922-.488h.813l.867 6.396h-.868c-1.409-3.632-4.608-5.909-8.077-5.909-3.307 0-5.638 1.897-5.638 4.716 0 7.155 16.099 9.053 16.099 18.268 0 4.933-4.391 8.565-10.245 8.565-2.765 0-6.288-1.355-6.993-1.355-.434 0-.813.271-1.03.542h-.867l-1.03-7.643h.922m38.488 2.983c0 2.71.922 3.686 3.957 3.686h1.843v.976h-15.829v-.976h1.843c3.036 0 3.957-.976 3.957-3.686V54.153h-8.727c-2.006 0-2.927 1.138-3.686 5.583h-.922l.813-8.131h.976c.054.325.271.488.542.596.325.108.65.163 1.03.163h24.122c.705 0 1.464-.163 1.572-.759h.976l.813 8.131h-.922c-.759-4.445-1.68-5.583-3.686-5.583h-8.727V78.98m50.142-11.872c0-9.053-8.131-15.503-17.617-15.503-10.679 0-18.376 7.101-18.376 17.075 0 9.378 8.294 15.72 18.105 15.72 9.757 0 17.888-7.155 17.888-17.292zm-4.716 1.681c0 7.101-3.903 14.365-12.088 14.365-8.077 0-14.473-6.613-14.473-15.991 0-6.017 3.523-14.256 12.359-14.256 8.239-.055 14.202 6.558 14.202 15.882m28.025 14.798h-22.442v-.976h1.68c2.331 0 3.144-.759 3.144-3.307V57.079c0-2.656-.813-3.74-3.957-3.74h-.705v-.976h14.798v.976h-1.843c-3.252 0-4.12.325-4.12 3.469v23.146c0 1.355.542 1.843 2.006 1.843h7.372c2.981 0 3.849-1.138 7.047-5.529h.922l-3.902 7.319m-234.5-45.588c-.054-2.927-1.03-8.89-8.023-12.305 7.101 2.277 10.516 8.239 10.841 12.739 7.481 1.464 14.094 4.987 24.827 1.301h.054s-14.148.108-20.057-4.12c3.036.108 6.559-.596 7.697-2.277 1.247-1.843 1.355-3.74 4.391-3.849 1.68-.054 7.481.379 8.077-8.077-1.843 3.09-3.849 4.391-6.83 3.632-1.897-.488-5.421-1.951-7.968 1.03-2.06 2.493-4.282 3.74-7.86 3.361C62.445 27.537 83.64 0 83.64 0S56.536 21.791 55.019 23.038c-.271-3.957.922-5.421 2.494-7.155 1.301-1.409 3.578-3.361 1.789-7.426-1.464-3.307-1.247-5.312 2.71-8.456-3.144.217-8.023 2.385-7.426 8.185.325 3.523-2.168 3.794-3.036 4.337-2.385 1.301-2.656 5.095-2.765 8.077-.271-.976-3.686-15.72-4.933-20.49v39.734h.054c4.609-1.953 8.404-2.224 11.981-1.845m67.434-21.412v.705c-2.494.054-3.361 1.03-3.361 3.415v10.028c0 4.608-2.927 9.54-11.004 9.54-7.101 0-10.733-4.066-10.733-9.378V20.002c0-2.385-.65-2.765-3.198-2.819v-.705h9.54v.705h-.325c-2.06 0-2.927.542-2.927 2.71v10.354c0 5.041 2.927 8.023 8.511 8.023 4.228 0 8.511-1.735 8.511-8.077V21.52c0-3.578-.542-4.228-3.632-4.337v-.705h8.619m4.878 20.003c0 2.06.488 2.548 2.494 2.548v.705h-7.481v-.705c1.626 0 2.494-.867 2.494-2.331v-7.86c0-1.355-.163-1.626-1.138-1.843l-1.247-.271v-.596l4.282-1.572h.596v2.927c2.494-1.572 4.553-2.927 6.396-2.927 2.548 0 3.957 1.843 3.957 5.583 0 4.933-.271 5.909-.325 7.372-.054 1.03.542 1.464 2.06 1.464h.813v.705h-8.023v-.705c1.084-.054 1.735-.325 2.114-.705.705-.705.759-3.415.759-8.402 0-2.981-1.464-3.903-2.927-3.903-1.193 0-3.036 1.03-4.933 2.385v8.131m18.702-20.49c.867 0 1.626.65 1.626 1.409s-.759 1.409-1.626 1.409c-.867 0-1.626-.65-1.626-1.409.054-.758.758-1.409 1.626-1.409zm1.517 20.924c0 1.301.705 2.114 2.656 2.114v.705h-8.239v-.705c2.277 0 3.09-.759 3.09-2.71v-7.481c0-1.464-.163-1.626-1.138-1.843l-1.735-.325v-.596l4.824-1.68h.542v12.521m11.221 3.144L154.11 27.7c-.542-1.301-1.03-1.735-1.626-1.843l-1.138-.163v-.65h7.589v.65c-2.277.054-2.981.379-2.114 2.114l3.957 9.269 3.794-8.619c.65-1.518.325-2.602-2.385-2.819v-.65h6.451v.65c-1.409.271-2.223 1.084-2.927 2.71l-5.15 11.709-1.03.001m23.038-9.811v-.867c-1.247-1.247-1.138-4.824-6.125-4.824-4.553 0-7.21 4.011-7.21 7.968 0 4.337 2.819 7.643 6.451 7.643 2.71 0 5.041-1.843 6.613-3.849l-.434-.434c-1.409 1.68-2.873 2.439-4.716 2.439-2.927 0-5.638-2.602-5.638-6.451 0-.488.054-1.03.163-1.572h10.896v-.053zm-10.787-.976c.867-3.469 2.71-4.011 3.957-4.011 1.789 0 3.252 1.626 3.686 4.011h-7.643m17.943 7.751c0 1.518.542 2.006 2.439 2.006h1.409v.705h-8.836v-.705c1.897-.054 2.494-.813 2.494-2.819v-8.619l-2.494-.867v-.65l4.228-1.464h.759v3.957h.054c1.843-3.036 2.331-3.74 3.523-3.74.434 0 .542.054 1.247.325.379.163 1.03.271 1.951.542l-.922 2.222c-.542-.054-1.247-.271-1.951-.596-.434-.163-.867-.379-1.301-.379-.65 0-1.084.434-1.464.976-.488.65-.922 1.301-1.193 1.843v7.264m9.434-1.085c.434 2.222 1.843 3.523 3.523 3.523 1.464 0 2.656-1.138 2.656-2.439 0-.759-.163-1.247-1.193-2.277-2.656-2.656-5.583-2.927-5.583-6.017 0-2.439 1.951-4.174 4.77-4.174 1.03 0 2.06.217 2.981.596l.054 3.361h-.65c-.271-1.897-1.518-3.09-2.981-3.09-1.247 0-2.277.867-2.277 2.06 0 3.252 6.938 3.849 6.938 8.402 0 2.439-2.006 4.228-4.608 4.228-.705 0-1.247-.108-1.626-.271-.434-.108-.705-.217-1.03-.217-.217 0-.434.163-.65.434h-.542l-.434-4.174h.65m14.638-19.893c.922 0 1.626.65 1.626 1.409s-.759 1.409-1.626 1.409c-.867 0-1.572-.65-1.572-1.409-.054-.758.651-1.409 1.572-1.409zm1.518 20.924c0 1.301.705 2.114 2.656 2.114v.705h-8.239v-.705c2.277 0 3.09-.759 3.09-2.71v-7.481c0-1.464-.163-1.626-1.138-1.843l-1.735-.325v-.596l4.824-1.68h.542v12.521m13.281-11.926l-.596 1.626h-4.716v8.673c0 2.331 1.68 3.144 2.439 3.144.813 0 1.572-.65 2.277-1.843l.596.542c-.867 1.951-2.331 3.036-4.066 3.036-2.223 0-3.74-1.843-3.74-4.337v-9.215h-1.735v-.596c1.464-.705 2.71-2.439 3.578-4.716h.65v3.686h5.313m14.744 4.12c1.138-2.819.434-3.361-1.789-3.469v-.65h6.18v.65c-1.518.163-2.385 1.247-3.09 2.981l-6.342 15.774c-1.138 2.765-1.951 3.957-3.252 3.957-.922 0-1.518-.542-1.518-1.301 0-1.518 2.168-1.138 3.09-2.06.434-.434.976-1.355 1.247-2.114l1.138-2.765-5.746-12.251c-.705-1.518-1.355-2.168-2.927-2.168v-.65h7.481v.65c-2.277.054-2.548.705-1.789 2.277l4.228 9.107 3.089-7.968m12.739 3.361c0 4.337 3.523 7.697 8.131 7.697 4.445 0 7.914-3.361 7.914-7.806s-3.469-7.806-8.023-7.806c-3.848.001-8.022 2.765-8.022 7.915zm2.764-1.301c0-3.198 2.277-5.746 4.716-5.746 3.144 0 5.746 3.632 5.746 7.86 0 3.74-2.494 5.963-4.716 5.963-3.144 0-5.746-3.524-5.746-8.077m24.068-4.553h-4.011v10.191c0 1.735.65 2.222 2.765 2.222h1.409v.705H273.8v-.705c2.168 0 2.548-.488 2.548-2.548V26.67h-2.765v-.65c1.03-.217 1.951-.542 2.765-1.03 0-3.09.65-5.421 2.873-7.643 1.843-1.843 3.578-2.656 5.312-2.656 2.06 0 3.849 1.193 3.849 1.735 0 .271-.705 1.789-1.03 1.789-.542 0-1.897-1.843-4.337-1.843-2.656 0-4.12 2.114-4.12 5.746v2.819h3.74l.217 1.679m-253.634-5.15c-.325-1.626-.163-4.933 1.464-8.131-5.963 4.499-6.017 8.131-6.017 8.131s1.138-.867 4.553 0zm-2.765-9.811s-7.21 1.03-9.269 1.247c-1.409.867-3.09 3.198-3.09 3.198s-1.68.271-5.095.867c-2.331 1.518-3.74 5.095-.867 8.023-.922-.217-.922-.217-2.277-.434-2.873 1.843-1.518 5.258 4.445 4.066-1.68-.054-2.548-.867-2.494-1.951-.054-1.193 2.222-2.656 5.041-1.897-2.656-4.987.271-6.993.271-6.993s-1.572 4.12 1.843 7.535c.325-.488 1.301-1.897 4.174-1.951 2.873-.054 4.662 1.355 4.662 2.981.054 1.409-1.789 2.927-4.12 2.927l-.054-3.415s-.759.271-.976.596v2.873c-.922 0-2.819-.379-3.794-1.951-.759-.054-5.041-.705-5.041-.705l.217 1.138s1.518.271 1.789 1.735c.325 1.789 1.409 3.469 2.277 4.174 1.789-.217 4.716-2.439 10.191-2.385-4.987.705-10.083 6.017-17.346 4.011 11.6 3.957 12.793-4.824 27.32-2.06-2.277-1.355-5.638-1.789-5.638-1.789s1.789-1.951 1.897-4.933c.217 0 .542-.054 1.138-.108.217-.976.325-1.951.325-1.951h-5.8c-6.451-6.669.271-12.848.271-12.848zm-16.154-.109c1.843.108 4.066-1.03 4.174-1.138 0 0-.759 1.951.976 1.843 1.897-.108 4.011-1.084 4.337-1.247V8.511c-.163.108-2.006 1.409-4.066 1.897-.759.163-.488-.488-.434-.867.054-.379.108-.705-1.247-.108-5.529 2.277-5.854.705-5.854.542-.217.216-.108 1.463 2.114 1.571zM39.68 0v39.734c-15.991-6.288-22.659 5.909-39.68 0V0h8.077v4.282h4.662V0h4.553v4.282H21.9V0h4.608v4.282h4.987V0h8.185m15.286 54.044s-.163-.108.163-.379c.054-.054.108.054.325.054.271 0 .434-.108.65-.379.379-.434-.379-.596-.65-.379-.271.217-.434.434-.65.651-.001-.001-.38.324.162.432zm13.66 20.057c-.65.542-2.602 1.518-3.09 1.735-.488.217-.65.379-1.03 1.084-.434.867-.867 2.439-.759 2.548 1.193-.217 2.06-1.193 2.06-1.193s0-.271-.271-.65c-.217-.325.217-.705.488-.488.217.163.488.217.65.054.163-.163 3.957-2.548 4.12-2.819-.759-.759-1.355-1.518-1.355-1.518s-.162.759-.813 1.247zM53.882 63.585c-1.626-.65-1.951-1.084-2.277-1.193-.271-.108-1.355.379-1.572.813-.488 1.301-1.626 3.361-1.789 3.686a.92.92 0 00-.163.542c0 .217.108 1.03.054 1.247 0 .217 0 .434.108.65.054.217.163 1.03.596 1.843.922-.922 1.084-2.331 1.03-2.06 0 0 .325-.488-.434-.759-.217-.054-.163-.596.054-.705.271-.108.434-.163.542-.651.108-.488.65-2.277.813-2.656 0-.054.054-.163.163-.163.163-.054.325-.108.434-.163.054 0 .217.054.271.108.271.271 1.572 1.355 1.572 1.355s.596-.054.976-.217c-.216-.322-.324-1.244-.378-1.677zm-1.626-7.589s-.542.705.054.867c0 .217.108.596.163.813.108.271.271.163.488-.054s.542-.65.759-.922c.217-.217.976-.163.65.325-.217.325-.379.379-.596.434-.217.054-.271-.108-.488.163-.217.325-.488.542-.054.542.217 0 .65.217.922.163.271-.054.271-.217.325-.434s0-.379.271-.542a9.96 9.96 0 001.03-.813c.163-.163.379-.163.65-.163.217 0 1.355.108 2.006-.867.488-.705.542-1.68.325-2.494.325.325.759 1.301.542 2.222-.379 1.68-1.193 1.735-2.06 1.951-.325.488-1.247 1.735-1.68 4.011-.217.108-1.897 1.735-.488 4.391-.379.108-1.409.596-2.06.705-.434.108-.759.108-.922.325-.217.217-.65.976-.379 1.355.163.271 1.193 2.602 1.301 3.307s.325.867.596 1.138c.271.271.488.271.867.542.434.325.759.867 1.138 1.138.379.325.867.488 1.193.434-.054-1.193-.325-2.331-.705-2.71-.379-.379-.867.163-.976.217-.108.054-.271-.108-.325-.379-.054-.325.217-.596-.054-1.03-.542-.813-1.03-1.68-1.084-1.843-.379-.759.271-.922.434-.867.379.108 2.602.379 2.981.434.325.054.542.108.705-.108.488-.542.759-.922 1.03-1.464.488.379.163 1.084 0 1.951.163.108 3.415 1.789 7.86.596 1.843-.488 1.68-.108 1.843.217 1.084 2.114 1.843 2.927 3.144 3.957.379.325.65.813.813 1.084s.217.813.054 1.138c-.163.434-1.193 2.222-1.355 2.439a3.553 3.553 0 01-1.138 1.084c-1.138.596-1.409 1.138-1.518 1.572h2.927s.054-.163.054-.488c-.054-.488.434-.596.542-.651.163-.054.379.108.65-.434.434-1.03 2.114-3.903 2.277-4.174.163-.271.65-.976.163-1.247a3.62 3.62 0 01-1.735-2.602c-.054-.434-.054-1.138.922-2.277 2.06-2.548.542-7.752-4.011-7.643-2.548.054-4.011-.163-5.692-.488-.596-.108-.705-.434-.596-.813s.271-1.138.271-1.464c-.434-.379-1.138-.65-1.464-.759-.325-.108-.542-.379-.163-.434.379 0 1.68.108 1.68.108s.054-.705-.163-1.789a6.057 6.057 0 00-2.06-.542c-.217 0-.379-.271.108-.325.65-.108 1.301 0 1.789 0 .054-.054-.217-1.409-.705-1.951-.325-.108-.488-.163-1.68-.271-.379-.054-.434-.163-.163-.271a3.62 3.62 0 011.464-.163c-.271-.325-1.897-3.415-5.367-2.493.379.488.596.705.705 1.03.108.271-.217.379-.488.108-1.084-1.138-1.68-1.138-2.385-1.247.488.434.65.867.813 1.355-.813.542-1.897 1.897-2.06 2.168-.325.488.108.759.108.759l-2.003 2.173zm22.387-7.698c-3.523 1.247-3.036 5.041-2.06 6.505 1.247 1.897 2.277 1.951 3.09 4.228.596 1.735-.488 2.656-1.572 3.09 1.897 1.138 3.794-.054 4.499-1.193 1.247-1.68-.163-3.903 1.193-5.041.379-.325.976-.542 1.789-.542-.813-1.193-2.765-1.03-3.523.054-.542-1.247-2.06-2.385-1.518-4.337.379-1.301 2.385-1.789 3.144-.705.434.596.488 1.735-.759 2.277.759-.054 2.222-1.409 1.247-3.198-.705-1.247-1.897-1.355-2.819-1.355-1.735 0-4.662 2.006-2.819 6.288-1.084-.921-2.819-4.228.108-6.071zm8.836-4.499v39.788c-22.008 5.367-22.659-6.342-39.68 0V43.799c15.666-6.559 21.792 5.909 39.68 0m-69.06 22.713s-.705.434.163 2.385c.867 1.897 1.951 3.686.054 5.8 1.084 0 3.415-1.409.922-5.583-.543-.976-1.139-1.68-1.139-2.602zm-2.331.922c.596-.054.65-.759.542-1.138-.108-.434-.867-.488-1.03.054-.163.542 0 1.084 0 1.084.163.542.759.705.813.65-.379-.271-.271-.488-.325-.65zm.542 2.547c-.163 1.68-1.084 1.951-1.084 1.951-1.68-.759-2.602 1.355-1.193 1.951 1.789.813 2.873-1.518 2.981-1.951.325-1.193.325-2.06.217-4.066-.108-1.68.325-1.951.596-2.006.271-.054.867-.054 1.409 1.68.596 1.735 1.843 2.006 1.843 2.006s-1.789-2.927.705-5.638c1.193-1.247 3.523-1.951 3.09-3.74 0 0-.379.651-1.084.813-.705.163-2.114.379-2.114.379s3.307-1.572 3.903-3.361c0 0 1.03 1.735-.325 4.282 0 0 1.301-.488 2.765.163 3.632 1.626 3.252 6.776-1.355 8.023-6.505 1.735-4.174 6.776-.434 7.101-.379-.271-.488-1.789.163-2.656.325-.271.922-.867 1.301.379.65 2.168 2.548 2.385 3.469 2.114-.217-.217-.65-.867-.596-1.247.108-.759 1.084.054 1.409.108 2.548.705 3.957.108 4.066-.271-.596-.108-.488-.054-.813-.163-.325-.108-.976-.542.217-.813 2.277-.542 3.523-2.873 2.006-4.662-1.409-1.735-3.198-1.464-3.794-1.247 2.439.542 2.602 2.493 1.355 3.523-1.084.813-3.794 1.138-4.716-.65-.596.434-.813 1.084-.705 1.951-.271-.108-1.301-1.572.271-2.765 7.101-4.553 5.963-12.251-.054-15.449l-.054-.054c-5.475-3.144-10.245-.271-10.245-.271 3.361-3.361 9.215-1.355 10.028-.976 0 0-.65-.596-1.03-1.138-.488-.705-.434-1.355-.434-1.355-2.331 1.301-2.927-.705-2.927-.705s-2.006 1.789-3.307.325c-1.138-1.301.705-3.036.705-3.036-11.709 3.849-9.486 10.462-9.486 10.462s-1.68 1.572-2.06 5.312c-.434 4.282 1.68 7.318 4.337 6.451.541-.157.866-.428.974-.754zm27.05-26.182v39.788c-17.021-6.342-17.671 5.367-39.68 0V43.799c17.888 5.909 24.014-6.559 39.68 0"/>
</svg>
