<svg xmlns="http://www.w3.org/2000/svg" viewBox="0 0 178 57">
    <path d="M112.43 27.5c-.38 1.25-.72 2.54-1.42 3.48-5.18.31-10.49 1.33-15.52 1.26.91-3.94 2.54-8 3.32-11.55-3.52 4.32-9.24 8.14-11.55 13.61-1.64 3.88 1.29 5.86 4.75 5.86 7.7-.01 13.36-6.44 21.21-6.33.98-2.12.25-4.86-.79-6.33zm4.75-12.67c-.53 1.47-1.03 2.98-1.59 4.43 2.36-.91 5.64-.91 8.24-1.58-1.93-1.24-5.17-1.16-6.65-2.85zm0 0c-.53 1.47-1.03 2.98-1.59 4.43 2.36-.91 5.64-.91 8.24-1.58-1.93-1.24-5.17-1.16-6.65-2.85zm-6.17 16.15c-5.18.31-10.49 1.33-15.52 1.26.91-3.94 2.54-8 3.32-11.55-3.52 4.32-9.24 8.14-11.55 13.61-1.64 3.88 1.29 5.86 4.75 5.86 7.7-.01 13.36-6.44 21.21-6.33.98-2.12.25-4.86-.79-6.33-.38 1.25-.72 2.54-1.42 3.48zm66.96-21.85c-16.98-2.65-33.36-7.92-53.03-6.96-1.24.06-2.65.41-3.8.31-1.7-.15-3.16-.99-4.75-1.26-2.1-.36-4.16-.46-6.16-.36-6 .3-11.43 2.36-15.85 4.31-1.25.56-3.39 2.17-4.59 2.22-1.4.06-3.96-1.35-5.86-1.9-8.39-2.42-21.16-5.56-27.7-.48-8.22-1.19-15.79.85-22.01 2.7-.35-4.92-4.94-7.86-10.29-6.34-3.58 1.02-6.52 3.04-10.13 4.44C6.72 8.54-.44 14.36.02 23.54c.22 4.32 2.1 7.83 3.33 10.92 1.28 3.22 2.63 5.79 4.75 9.5-.59 1.09-1.1 1.78-1.27 3.01-1.38 10.29 12.37 10.63 19.63 7.6 6.26-2.62 12.83-7.25 17.26-10.61-3.56 15.24 20.37 15.91 26.44 8.23 8.53 6.38 26.97 5.67 36.1.32 8.42 6.79 27.11 4.2 38.47 1.58 5.87-1.35 11.05-2.44 14.88-5.22 3.93-2.85 6.38-7.21 7.44-12.82-.8-2.15-2.18-3.73-3.48-5.39.65-1.36.83-3.83.48-5.7 4.96-3.55 9.09-9.09 12.82-13.77.45-.56 1.29-1.3 1.1-2.06zm-12.34 5.86c-3.31 3.9-7.25 6.85-14.25 7.28-5.03.32-10.2-.74-15.51-.63-1.15.92-1.31 2.81-2.22 3.96 7.27 1.39 12.23-2.65 19.15-2.22 2.45.15 5.03 1.19 5.22 3.17.3 2.92-2.63 5.57-5.06 6.49-5.05 1.91-14.14.83-20.42 1.9-2.19.36-4.8 1.39-4.44 2.85.24.93 3.54 1.47 5.07 1.58 8.38.61 14.46-2.56 20.74-3.48 2.13-.32 5.25-.45 6.49.63-1.15 7.72-7.41 9.05-15.2 10.92-8.49 2.05-19 4.54-29.44 2.38-4.04-.84-6.04-1.35-5.23-6.49-6.46 3.87-18.4 9.46-30.24 6.33-5.57-1.48-10.72-3.51-10.76-10.45-.76 1.68-1.58 3.32-2.53 5.23-.75 1.47-1.31 3.85-2.7 4.91-2.76 2.08-13.19 1.94-14.41-1.28-1.11-2.92 1.18-9.1 1.9-11.08 1.89-5.12 4.53-8.46 3.17-14.72-1.38.76-2.26 2.25-3.32 3.48-6.06 7.04-11.84 14.48-20.43 19.32-3.94 2.22-8.3 4.9-13.61 4.91-1.84 0-3.7-.17-4.6-1.43.2-2.17 2.18-2.57 3.02-4.11-3.08-4.3-5.67-9.01-7.76-14.57-.98-2.58-2.35-4.91-1.9-8.55.79-6.47 7.05-8.52 12.66-10.77 2.99-1.19 5.53-3.58 8.55-3.16 1.08 3.11-.17 6.26-.79 9.34-1.01 5.01-2.29 10.25-1.11 16.15 1.95-.88 3.12-2.55 4.28-4.44.94-1.53 2.79-4.08 3-6.01.23-1.96-1.04-3.88-.47-5.86.88-3.09 7.81-4.25 11.08-4.91 3.5-.7 7.06-1.06 10.92-.63 1.06.12 2.47.74 3.33.63 1.04-.13 1.92-1.61 3.01-2.21 3.75-2.09 10.04-.49 14.56.47 3.19.68 6.35 1.55 9.51 2.38-1.45 1.97-3.27 3.96-4.91 6.17-1.62 2.18-3.07 4.48-4.44 6.81 3.78-3.88 9.17-7.77 15.2-11.08 5.66-3.11 12.85-6.94 20.53-7.09 2.56-.05 5.18.3 7.81 1.23-.09 1.22-.55 2.08-.79 3.16 0 .03-.01.04-.01.05 1.27-.79 2.66-2.82 4.6-3.05 14.98-1.84 31.55 3.06 43.7 4.91.29.71-.6 1.16-.95 1.58zm-50.04 4.27c2.36-.91 5.64-.91 8.24-1.58-1.93-1.24-5.17-1.16-6.65-2.85-.53 1.47-1.03 2.98-1.59 4.43zm-4.58 11.72c-5.18.31-10.49 1.33-15.52 1.26.91-3.94 2.54-8 3.32-11.55-3.52 4.32-9.24 8.14-11.55 13.61-1.64 3.88 1.29 5.86 4.75 5.86 7.7-.01 13.36-6.44 21.21-6.33.98-2.12.25-4.86-.79-6.33-.38 1.25-.72 2.54-1.42 3.48z"/>
</svg>
