<svg xmlns="http://www.w3.org/2000/svg" viewBox="0 0 290.429 45.951">
    <path d="M129.609 42.587l-13.21-36.783c-.169-.509-.42-1.18-.42-1.769 0-1.594 1.347-3.108 3.276-3.108 1.685 0 2.782 1.094 3.285 2.688l10.946 31.696L144.51 3.526c.503-1.507 1.514-2.601 3.189-2.601h.341c1.771 0 2.865 1.094 3.367 2.601l10.934 31.785L173.46 3.45c.42-1.353 1.339-2.523 3.113-2.523 1.85 0 3.198 1.424 3.198 3.025 0 .588-.255 1.256-.42 1.769L166.058 42.59c-.68 1.926-2.02 2.937-3.538 2.937h-.251c-1.685 0-2.949-1.011-3.543-2.937l-10.85-31.258-10.943 31.258c-.59 1.926-1.855 2.937-3.534 2.937h-.178c-1.593-.001-2.935-1.012-3.612-2.938m96.29-38.454c0-1.775 1.431-3.291 3.199-3.291 1.863 0 3.29 1.433 3.29 3.29v7.465c3.2-7.25 10.3-10.67 15.003-10.67 1.948 0 3.213 1.43 3.213 3.285 0 1.772-1.174 3.03-2.875 3.285-8.433 1.01-15.339 7.337-15.339 19.9V42.18c0 1.771-1.346 3.285-3.2 3.285-1.855 0-3.289-1.439-3.289-3.285L225.9 4.134zm45.534 41.741c-11.734 0-21.315-9.1-21.315-22.446v-.173c0-12.43 8.676-22.442 20.488-22.442 12.63 0 19.824 10.421 19.824 21.857a2.99 2.99 0 01-2.977 3.014H256.57c.9 9.338 7.422 14.593 15.031 14.593 5.289 0 9.159-2.087 12.303-5.008.496-.412 1.073-.746 1.821-.746 1.564 0 2.809 1.252 2.809 2.76 0 .747-.33 1.501-.999 2.079-4.044 3.916-8.84 6.512-16.102 6.512m12.636-24.95c-.664-7.85-5.127-14.685-13.637-14.685-7.433 0-13.05 6.254-13.867 14.685h27.504zm-104.183 11.44v-.169c0-9.159 7.566-14.04 18.573-14.04 5.55 0 9.498.756 13.372 1.855v-1.52c0-7.81-4.805-11.85-12.949-11.85-4.372 0-6.917.556-10.117 1.983-.414.168-.839.255-1.166.255-1.514 0-2.865-1.265-2.865-2.774 0-1.341.585-2.171 1.768-2.696 4.28-1.858 7.507-2.475 13.052-2.475 6.131 0 10.84 1.592 14.027 4.788 2.948 2.942 4.461 7.143 4.461 12.693v23.979c0 1.843-1.345 3.192-3.12 3.192-1.84 0-3.09-1.347-3.09-3.025v-4.145c-3.03 3.959-8.078 7.483-15.712 7.483-8.073-.006-16.234-4.624-16.234-13.534m32.028-3.362V24.8c-3.2-.923-7.493-1.85-12.784-1.85-8.141 0-12.688 3.534-12.688 8.992v.167c0 5.462 5.038 8.656 10.928 8.656 7.982 0 14.544-4.876 14.544-11.761M11.867 3.655C10.444.535 6.927-.879 3.641.581.352 2.043-.858 5.69.627 8.811L14.42 38.79c2.169 4.698 4.455 7.16 8.745 7.16 4.584 0 6.581-2.681 8.749-7.16 0 0 12.03-26.194 12.15-26.467.122-.278.508-1.124 1.732-1.117a1.916 1.916 0 011.906 1.943v25.615c0 3.949 2.19 7.186 6.403 7.186 4.21 0 6.485-3.239 6.485-7.186V17.803c0-4.043 2.896-6.667 6.845-6.667s6.575 2.718 6.575 6.667v20.96c0 3.95 2.197 7.187 6.402 7.187 4.21 0 6.498-3.239 6.498-7.186V17.803c0-4.043 2.885-6.667 6.835-6.667 3.942 0 6.58 2.718 6.58 6.667v20.96c0 3.95 2.195 7.187 6.405 7.187 4.207 0 6.491-3.239 6.491-7.186V14.908c0-8.767-7.05-14.91-15.534-14.91-8.473 0-13.78 5.863-13.78 5.863C81.087 2.205 77.2.008 70.62.008 63.676.008 57.6 5.86 57.6 5.86 54.777 2.205 49.972.008 45.995.008c-6.154 0-11.04 2.706-14.021 9.522l-8.808 20.76L11.867 3.655z"/>
</svg>
