<svg width="116" height="40" viewBox="0 0 116 40" fill="none" xmlns="http://www.w3.org/2000/svg">
<g clip-path="url(#clip0_2311_50)">
<path d="M19.7153 0.242462H0V39.6627H19.7153C29.573 39.6627 39.4254 30.8394 39.4254 19.9552C39.4254 9.07103 29.573 0.242462 19.7153 0.242462ZM19.7153 28.9103C17.9315 28.9103 16.1877 28.3848 14.7044 27.4002C13.2212 26.4156 12.0652 25.0162 11.3825 23.3789C10.6998 21.7416 10.5212 19.94 10.8692 18.2019C11.2173 16.4637 12.0763 14.8671 13.3377 13.614C14.599 12.3609 16.2061 11.5075 17.9557 11.1618C19.7053 10.816 21.5188 10.9935 23.1669 11.6717C24.815 12.3498 26.2236 13.4983 27.2147 14.9718C28.2057 16.4454 28.7347 18.1777 28.7347 19.9499C28.7347 22.3264 27.7845 24.6055 26.093 26.2859C24.4015 27.9662 22.1074 28.9103 19.7153 28.9103Z" fill="white"/>
<path d="M58.7109 0.33733C63.3851 0.33733 65.7885 3.16247 65.7885 7.02596V10.4941C65.7885 14.3682 63.3904 17.1828 58.7162 17.1828H51.2885V0.33733H58.7109ZM61.6184 7.00488C61.6184 4.85967 60.4777 3.73172 57.9628 3.73172H55.4427V13.7884H57.9628C60.4777 13.7884 61.6184 12.6552 61.6184 10.5152V7.00488ZM79.0523 14.0519H72.935L71.9907 17.1828H67.8205L73.8794 0.316247H78.1238L84.1828 17.1828H80.0126L79.0523 14.0519ZM73.9431 10.7313H78.0336L76.0122 4.06905L73.9431 10.7313ZM97.7755 0.33733V3.82659H93.1968V17.1828H89.032V3.82659H84.4533V0.33733H97.7755ZM108.233 17.5201C103.097 17.5201 100.455 14.2469 100.455 9.84056V7.67427C100.449 3.27316 103.092 0 108.233 0C113.374 0 116.005 3.27316 116.005 7.67427V9.84056C116 14.2311 113.358 17.5201 108.233 17.5201ZM108.233 3.44182C105.808 3.44182 104.62 5.05468 104.62 7.45816V10.0567C104.62 12.4654 105.808 14.0783 108.233 14.0783C110.657 14.0783 111.84 12.4654 111.84 10.0567V7.45816C111.835 5.05468 110.647 3.44182 108.233 3.44182ZM58.4669 36.5845C60.6952 36.5845 61.7616 35.1403 61.8359 33.4537H65.6877C65.6399 37.0167 62.9978 40 58.5146 40C53.2834 40 50.7686 36.7268 50.7686 32.3468V30.1331C50.7686 25.7531 53.2834 22.4799 58.5146 22.4799C62.9978 22.4799 65.6399 25.4632 65.6877 29.0262H61.8359C61.7616 27.3448 60.6952 25.9006 58.4669 25.9006C55.952 25.9006 54.9334 27.5609 54.9334 29.9433V32.5418C54.9334 34.9242 55.952 36.5845 58.4669 36.5845ZM82.1295 22.8172H85.9495V39.6838H81.9544V30.7603L79.3017 35.9099H76.0069L73.3542 30.7603V39.6627H69.3591V22.7962H73.2162L77.6729 31.9673L82.1295 22.8172ZM96.5605 40C92.4912 40 89.7536 38.0762 89.7536 34.6818V34.2232H93.7486V34.5606C93.7486 35.9784 94.6718 36.8481 96.5818 36.8481C98.3008 36.8481 99.4414 36.1471 99.4414 34.8504C99.4742 34.5018 99.3725 34.1538 99.1567 33.8769C98.941 33.5999 98.6275 33.4148 98.2795 33.3588L94.0351 32.3047C91.3824 31.6563 90.0401 30.502 90.0401 27.756C90.0401 24.409 92.4381 22.4852 96.4597 22.4852C100.258 22.4852 102.683 24.5302 102.683 27.6137V28.0195H98.8313V27.7349C98.8313 26.6017 98.1999 25.6635 96.4597 25.6635C95.006 25.6635 94.0829 26.1905 94.0829 27.3712C94.0564 27.6947 94.1545 28.0161 94.3573 28.2705C94.5602 28.5249 94.8527 28.6933 95.1758 28.7416L99.6802 29.9486C102.397 30.6654 103.458 32.1518 103.458 34.4868C103.458 37.8601 100.465 40 96.5605 40Z" fill="white"/>
</g>
<defs>
<clipPath id="clip0_2311_50">
<rect width="116" height="40" fill="white"/>
</clipPath>
</defs>
</svg>
