<?xml version="1.0" standalone="no"?>
<!DOCTYPE svg PUBLIC "-//W3C//DTD SVG 20010904//EN"
 "http://www.w3.org/TR/2001/REC-SVG-20010904/DTD/svg10.dtd">
<svg version="1.0" xmlns="http://www.w3.org/2000/svg"
 width="233.000000pt" height="201.000000pt" viewBox="0 0 233.000000 201.000000"
 preserveAspectRatio="xMidYMid meet">
<metadata>
Created by potrace 1.15, written by Peter Selinger 2001-2017
</metadata>
<g transform="translate(0.000000,201.000000) scale(0.100000,-0.100000)"
fill="#000000" stroke="none">
<path d="M14 1837 c-3 -8 -4 -49 -2 -93 l3 -79 45 3 c25 2 69 10 99 18 29 8
55 13 58 10 3 -3 -12 -71 -32 -153 -44 -172 -53 -296 -37 -490 21 -240 142
-497 306 -650 65 -61 232 -173 257 -173 6 0 37 -13 70 -30 33 -16 75 -30 95
-32 35 -3 36 -2 89 88 29 50 81 146 115 212 35 67 66 122 69 122 4 0 15 -17
26 -37 29 -55 180 -204 250 -246 72 -45 178 -95 263 -127 l63 -23 24 23 c14
13 25 31 25 39 0 9 23 54 50 101 28 47 84 154 125 238 42 84 103 193 135 242
33 49 60 94 60 100 0 6 30 67 66 136 73 138 71 119 28 264 -64 215 -157 425
-220 499 l-32 36 -186 3 c-124 3 -186 0 -186 -6 0 -6 4 -13 9 -17 6 -3 33 -40
62 -83 156 -231 254 -502 266 -737 7 -128 -12 -231 -53 -297 l-26 -40 -83 4
c-74 4 -92 9 -178 52 -183 91 -334 280 -386 484 -43 168 -52 236 -56 434 -2
109 -6 202 -10 208 -4 6 -66 10 -160 10 -130 0 -154 -2 -159 -16 -9 -24 -7
-162 2 -168 5 -3 51 4 102 14 52 11 96 17 99 15 2 -3 -13 -74 -34 -157 -63
-254 -59 -486 12 -706 35 -106 36 -115 22 -140 -14 -26 -18 -27 -100 -27 -78
1 -90 4 -170 42 -47 23 -111 63 -143 89 -65 54 -174 194 -210 270 -65 136 -97
311 -105 574 l-6 205 -158 3 c-126 2 -158 0 -163 -11z"/>
<path d="M2095 277 c-4 -35 -5 -74 -3 -88 4 -29 19 -28 118 3 116 36 110 31
110 93 l0 55 -109 0 -109 0 -7 -63z"/>
</g>
</svg>
