<svg xmlns="http://www.w3.org/2000/svg" xmlns:xlink="http://www.w3.org/1999/xlink" viewBox="0 0 91.32 140.26"><defs><style>.cls-1{fill:url(#linear-gradient);}.cls-2{fill:#ff7751;}</style><linearGradient id="linear-gradient" x1="33.59" y1="67.62" x2="33.59" gradientUnits="userSpaceOnUse"><stop offset="0" stop-color="#ff7751"/><stop offset="1" stop-color="#ff593d"/></linearGradient></defs><title>vertical_alt_2</title><g id="Layer_2" data-name="Layer 2"><g id="Layer_1-2" data-name="Layer 1"><path class="cls-1" d="M33.59,0H0V67.62H33.59c16.8,0,33.6-15.14,33.6-33.81S50.39,0,33.59,0Zm0,49.17A15.36,15.36,0,1,1,49,33.81,15.35,15.35,0,0,1,33.59,49.17Z"/><path class="cls-2" d="M10.78,82.39c6.79,0,10.28,4.12,10.28,9.79v5.07c0,5.67-3.49,9.79-10.28,9.79H0V82.39ZM15,92.14c0-3.13-1.65-4.79-5.32-4.79H6v14.72H9.68c3.67,0,5.32-1.65,5.32-4.78Zm24.44,10.32H30.53L29.16,107H23.1l8.81-24.65h6.2L46.91,107H40.85ZM32,97.6h6l-3-9.75ZM65.76,82.39v5.1H59.1V107H53V87.49H46.39v-5.1ZM80,107.53c-7.46,0-11.3-4.79-11.3-11.23V93.13c0-6.45,3.84-11.24,11.3-11.24s11.31,4.79,11.31,11.24V96.3C91.32,102.74,87.48,107.53,80,107.53Zm0-20.6c-3.52,0-5.24,2.36-5.24,5.88v3.81c0,3.52,1.72,5.88,5.24,5.88s5.25-2.36,5.25-5.88V92.81C85.26,89.29,83.53,86.93,80,86.93ZM11.19,135.27a4.53,4.53,0,0,0,4.89-4.58h5.59c-.07,5.21-3.9,9.57-10.41,9.57C3.66,140.26,0,135.48,0,129.08v-3.24c0-6.4,3.66-11.19,11.26-11.19,6.51,0,10.34,4.37,10.41,9.57H16.08a4.53,4.53,0,0,0-4.89-4.57c-3.66,0-5.14,2.43-5.14,5.91v3.8C6.05,132.84,7.53,135.27,11.19,135.27Zm33.59-20.12h5.56v24.62H44.53v-13l-3.87,7.53H35.88L32,126.75v13h-5.8V115.15H31.8l6.47,13.4Zm20.16,25.11c-5.91,0-9.89-2.81-9.89-7.77v-.67h5.81v.49c0,2.08,1.34,3.34,4.11,3.34,2.5,0,4.16-1,4.16-2.92a2,2,0,0,0-1.69-2.18L61.28,129c-3.83-.95-5.8-2.64-5.8-6.65,0-4.89,3.48-7.71,9.32-7.71,5.52,0,9,3,9,7.5v.59H68.25v-.42c0-1.65-.92-3-3.45-3-2.11,0-3.45.74-3.45,2.5a1.87,1.87,0,0,0,1.58,2l6.55,1.76c3.94,1,5.52,3.24,5.52,6.65C75,137.13,70.64,140.26,64.94,140.26Z"/></g></g></svg>