<svg xmlns="http://www.w3.org/2000/svg" xmlns:xlink="http://www.w3.org/1999/xlink" viewBox="0 0 218.641 75.889"><defs><linearGradient id="a" y1="37.855" x2="74.311" y2="37.855" gradientUnits="userSpaceOnUse"><stop offset="0" stop-color="#ff593d"/><stop offset="1" stop-color="#ff7751"/></linearGradient></defs><title>full_horizontal</title><path d="M37.156.461H0V75.25H37.156c18.582,0,37.155-16.743,37.155-37.389S55.738.461,37.156.461Zm0,54.386a16.992,16.992,0,1,1,17-16.986A16.984,16.984,0,0,1,37.156,54.847Z" fill="url(#a)"/><path d="M110.66.64c8.812,0,13.331,5.341,13.331,12.692v6.574c0,7.35-4.519,12.692-13.331,12.692H96.69V.64Zm5.479,12.646c0-4.063-2.146-6.209-6.894-6.209H104.5V26.16h4.748c4.748,0,6.894-2.145,6.894-6.209Zm32.88,13.376H137.468l-1.78,5.936h-7.853L139.249.64h8.035L158.7,32.6h-7.852Zm-9.633-6.3H147.1L143.266,7.716ZM184.291.64V7.26h-8.629V32.6H167.81V7.26h-8.629V.64Zm19.694,32.6c-9.678,0-14.654-6.209-14.654-14.563V14.564C189.331,6.209,194.307,0,203.985,0s14.656,6.209,14.656,14.564v4.109C218.641,27.027,213.664,33.236,203.985,33.236Zm0-26.707c-4.565,0-6.8,3.059-6.8,7.624v4.931c0,4.565,2.237,7.624,6.8,7.624s6.8-3.059,6.8-7.624V14.153C210.788,9.588,208.551,6.529,203.985,6.529ZM110.2,69.406c4.2,0,6.209-2.739,6.346-5.935h7.259c-.092,6.758-5.068,12.418-13.514,12.418-9.861,0-14.609-6.209-14.609-14.518v-4.2c0-8.31,4.748-14.519,14.609-14.519,8.446,0,13.422,5.662,13.514,12.418H116.55c-.137-3.195-2.146-5.934-6.346-5.934-4.748,0-6.666,3.15-6.666,7.67v4.93C103.538,66.256,105.456,69.406,110.2,69.406Zm44.6-26.114h7.213V75.25h-7.533V58.357l-5.022,9.771h-6.209l-4.977-9.771V75.25h-7.532V43.292h7.213l8.4,17.395Zm27.169,32.6c-7.67,0-12.829-3.653-12.829-10.089v-.868h7.533v.639c0,2.694,1.734,4.337,5.341,4.337,3.242,0,5.387-1.324,5.387-3.789a2.622,2.622,0,0,0-2.191-2.83l-7.989-2.01c-4.977-1.232-7.533-3.424-7.533-8.628,0-6.346,4.519-10,12.1-10,7.168,0,11.733,3.881,11.733,9.725v.776h-7.259v-.548c0-2.145-1.187-3.925-4.474-3.925-2.739,0-4.474.958-4.474,3.241a2.431,2.431,0,0,0,2.054,2.6l8.492,2.283c5.113,1.37,7.167,4.2,7.167,8.629C195.024,71.826,189.363,75.889,181.968,75.889Z" fill="#ff7751"/></svg>