<svg xmlns="http://www.w3.org/2000/svg" xmlns:xlink="http://www.w3.org/1999/xlink" viewBox="0 0 91.531 133.297"><defs><linearGradient id="a" x1="33.593" y1="67.619" x2="33.593" gradientUnits="userSpaceOnUse"><stop offset="0" stop-color="#ff7751"/><stop offset="1" stop-color="#ff593d"/></linearGradient></defs><title>full_vertical</title><path d="M33.593,0H0V67.619H33.593c16.8,0,33.594-15.138,33.594-33.8S50.4,0,33.593,0Zm0,49.172A15.363,15.363,0,1,1,48.961,33.814,15.357,15.357,0,0,1,33.593,49.172Z" fill="url(#a)"/><path d="M10.99,82.388c6.8,0,10.283,4.121,10.283,9.791V97.25c0,5.67-3.486,9.79-10.283,9.79H.214V82.388Zm4.226,9.755c0-3.134-1.655-4.79-5.318-4.79H6.236v14.721H9.9c3.663,0,5.318-1.655,5.318-4.789Zm24.442,10.319h-8.91l-1.374,4.578H23.317l8.8-24.652h6.2l8.8,24.652H41.066ZM32.227,97.6h5.952l-2.958-9.754ZM65.97,82.388v5.106H59.313V107.04H53.256V87.494H46.6V82.388Zm14.256,25.145c-7.465,0-11.3-4.79-11.3-11.234v-3.17c0-6.445,3.839-11.235,11.3-11.235s11.305,4.79,11.305,11.235V96.3C91.531,102.743,87.693,107.533,80.226,107.533Zm0-20.6c-3.521,0-5.247,2.359-5.247,5.881v3.8c0,3.522,1.726,5.881,5.247,5.881s5.248-2.359,5.248-5.881v-3.8C85.474,89.29,83.748,86.931,80.226,86.931ZM6.839,130.255a2.754,2.754,0,0,0,2.978-2.785h3.406c-.043,3.17-2.378,5.827-6.341,5.827-4.628,0-6.856-2.913-6.856-6.813v-1.97c0-3.9,2.228-6.813,6.856-6.813,3.963,0,6.3,2.656,6.341,5.827H9.817a2.754,2.754,0,0,0-2.978-2.785c-2.228,0-3.128,1.478-3.128,3.6v2.313C3.711,128.776,4.611,130.255,6.839,130.255ZM27.3,118H30.68v15H27.145V125.07l-2.357,4.585H21.875L19.54,125.07V133H16.005V118h3.384l3.943,8.162Zm12.279,15.3c-3.6,0-6.02-1.714-6.02-4.735v-.407h3.535v.3c0,1.265.814,2.035,2.507,2.035,1.521,0,2.527-.621,2.527-1.778a1.231,1.231,0,0,0-1.028-1.328l-3.749-.943c-2.335-.578-3.535-1.606-3.535-4.049,0-2.977,2.121-4.691,5.677-4.691,3.364,0,5.506,1.82,5.506,4.563v.364H41.588v-.257c0-1.007-.557-1.843-2.1-1.843-1.285,0-2.1.45-2.1,1.522a1.139,1.139,0,0,0,.964,1.22l3.985,1.072c2.4.642,3.363,1.971,3.363,4.048C45.7,131.39,43.045,133.3,39.574,133.3Z" fill="#ff7751"/></svg>