<svg xmlns="http://www.w3.org/2000/svg" viewBox="0 0 139.464 168.741"><g id="Layer_2" data-name="Layer 2"><g id="Dato_Pricing_Image" data-name="Dato_Pricing Image"><path d="M16.574,164.3c7.183-2.844,14.672-1.973,22.014-2.539,7.406-.571,14.879.432,22.136-.758.7-1.533-.192-2.236-1-2.9-8.506-6.947-17.74-12.684-28.472-15.365-12.869-3.215-21.526-11.608-28.615-22.135A12.715,12.715,0,0,1,.01,114.163c-.173-3.6,1.968-5.79,5.513-5.192a39.981,39.981,0,0,1,13.089,4.915,105.971,105.971,0,0,1,14.806,10.022c1.463,1.2,3.024,2.274,4.472,3.355,1.448-1.107.708-2.172.3-3-4.638-9.419-5.741-19.426-5.585-29.789C32.782,82.642,36.416,71.8,41.467,61.4A124.656,124.656,0,0,0,53.784,17.969c.422-4.594.479-8.911-2.038-12.97A6.792,6.792,0,0,1,50.483.35c1.878-1.013,2.585.408,3.246,1.307,6.325,8.6,12.154,17.511,16.546,27.293,5.165,11.505,6.707,23.748,7,36.148.361,15.149-.483,30.247-3.585,45.144-.26,1.25-.36,2.533-.509,3.8-.12,1.023-.2,2.05-.307,3.143,1.521-.112,1.766-1.213,2.084-2.123,3.009-8.623,8.5-15.593,14.292-22.5,8.306-9.907,18.155-17.988,28.509-25.546a43.645,43.645,0,0,1,5.974-3.677,4.017,4.017,0,0,1,4.26.4c1.1.8,1.477,3.03.532,4.742a79.615,79.615,0,0,1-5.363,8.7c-10.478,14.268-19.823,29.286-29.34,44.189a41.888,41.888,0,0,0-4.635,9.769c1.412,1.144,2.068-.082,2.7-.675,2.334-2.188,4.554-4.495,6.846-6.727a87.521,87.521,0,0,1,30.173-18.819,17.56,17.56,0,0,1,8.2-.837c1.962.2,2.8,1.8,2.132,3.772a17.085,17.085,0,0,1-3.855,5.832,103.215,103.215,0,0,1-14,13.081c-10.518,8.012-20.918,16.178-31.331,24.326-2.328,1.823-4.786,3.542-6.438,5.921-.047,1.656.667,2.8,2.092,2.909a35.8,35.8,0,0,0,7.646.026,45.368,45.368,0,0,1,9.555-.148c5.318.383,10.65.559,15.976.826,2.306.115,4.631.156,7.121,1.444-17.251,2.481-34.022,5.226-50.983,6.074-6.119.306-12.294,1.1-18.478.106a56.362,56.362,0,0,0-8.3-.286C39.3,167.869,23.09,166.243,16.574,164.3Zm68.384-17.1c1.971.714,3.2-.737,4.557-1.647,4.069-2.727,8.086-5.532,12.122-8.308l16.847-11.591a73.353,73.353,0,0,0,15.185-14.542c.482-.593,1.234-1.218.562-2.182-1.4-.6-2.4.388-3.477.965-2.814,1.506-5.56,3.145-8.419,4.557a115.342,115.342,0,0,0-27.506,19.544,39.3,39.3,0,0,0-9.7,13.293ZM60.186,77.416c.991,1.975.332,3.636.107,5.207a130.792,130.792,0,0,0,1.555,44.458c.163.821-.19,2.182,1.678,2.153.3-2.952.671-5.881.9-8.82.906-11.682,3.964-23.044,4.9-34.748a229.814,229.814,0,0,0,.467-32.535,67.579,67.579,0,0,0-7.559-28.15c-.508-.947-.628-2.641-2.481-2.223-.828,1.126-.614,2.461-.734,3.708a118.641,118.641,0,0,1-8.168,32.086,93.59,93.59,0,0,0-7.034,35.376c.115,15.265,4.515,29.325,12.143,42.443.278.479.957.725,2.328,1.713-.792-7.46-1.995-14.068-2.355-20.741a109.2,109.2,0,0,1,.439-19.785C57.224,90.9,56.947,83.966,60.186,77.416ZM108.418,84.7c-3.123.16-4.25,1.838-5.514,3.132-3.856,3.95-7.779,7.857-11.342,12.064-11.588,13.679-17.022,29.664-17.273,47.5-.015,1.081.1,2.133,1.612,2.594,2.221-3.137,2.839-6.961,4-10.545,2.484-7.688,5.047-15.355,9-22.426,3-5.374,6.412-10.517,9.6-15.785C101.68,95.984,104.817,90.706,108.418,84.7ZM39.371,138.221a5.369,5.369,0,0,0-2.612-3.689c-2.026-1.527-4.19-2.884-6.129-4.512-5.726-4.811-12.391-8.03-18.969-11.4-.879-.45-1.922-.947-2.731.388C15.633,130.425,26.413,135.4,39.371,138.221Z"/></g></g></svg>