<svg xmlns="http://www.w3.org/2000/svg" viewBox="0 0 158.066 182.465"><g id="Layer_2" data-name="Layer 2"><g id="Dato_Pricing_Image" data-name="Dato_Pricing Image"><path d="M0,179.452c6.366-3.1,13.352-3.179,19.9-5.137,6.7-2,13.619-2.624,20.569-3.189,6.895-.561,13.753-1.593,20.457-2.4.6-2.205-.847-2.982-1.808-3.926-9.554-9.383-20.373-16.492-33.554-19.952-10.657-2.8-17.151-12.337-16.543-23.2.4-7.149,3.414-11.029,11.065-11.262,7.851-.239,13.957,2.735,19.109,8.27a102.9,102.9,0,0,1,18.783,27.933c1.084,2.407,2.113,4.846,3.363,7.165.754,1.4,1.362,3.15,3.369,3.3,1.277-.379,1.182-1.467,1.1-2.324a144.177,144.177,0,0,1,0-22.286,130.1,130.1,0,0,0,.229-18.7,48.011,48.011,0,0,1,.371-7.168c.621-9.067,1.255-18.133,1.876-27.079-2.171-1.809-4.306-3.074-5.708-4.9s-2.05-4.2-2.991-6.249C57.521,68.26,56.3,69.42,55.1,70.62c-3.325,3.331-7.095,3.738-11.2,1.646-3.42-1.744-5.783-6.62-4.987-11.152,1.8-10.248,6.806-18.33,16.376-23.151a33.215,33.215,0,0,1,13.136-3.882c2.469-5.28,5.079-10.387,7.266-15.668,2.456-5.93,6.5-10.585,10.954-15a9.372,9.372,0,0,1,3.559-2.34c8.4-2.919,13.579.113,14.963,8.889a52.049,52.049,0,0,1-.679,17.891c-.533,2.82-1.106,5.632-1.66,8.442,1.719,3.146,4.752,4.823,7.1,7.17,6.153,6.143,9.976,13.405,10.37,22.245a20.305,20.305,0,0,1-.028,2.877c-.911,9.232-6.307,13.234-15.37,11.279a10.9,10.9,0,0,1-3.783-1.915,36.041,36.041,0,0,1-3.5-3.279c-2.016,1.488-3.49,3.848-6.217,4.257-2.361.354-4.663,1.088-7.011,1.548-2.569.5-5.279-.311-8.2.916-2.224,5.4-2.494,11.5-2.555,17.322-.186,17.652-3.681,35.257-1.326,53.528,3.9-1.505,5.984-4.079,7.757-6.837A91.543,91.543,0,0,1,98.123,125c7.9-6.681,16.443-12.416,26.483-15.52a22.85,22.85,0,0,1,12.766-.5c4.531,1.186,6.019,4.542,3.975,8.81a17.721,17.721,0,0,1-4.025,5.028c-9.512,9.106-20.322,15.984-33.17,19.4-2.306.614-4.529,1.535-6.8,2.279A29.141,29.141,0,0,0,81.3,157.141c-2.134,3.405-4.954,6.416-6.378,10.244,1.6,2.206,3.67,1.581,5.449,1.725,16.048,1.3,32.09.887,48.152.06,7.395-.381,14.837.035,22.252.249,2.044.058,4.072.69,7.288,1.273a25.411,25.411,0,0,1-11.15,3.566c-10.359.75-20.308,3.5-30.418,5.458a18.365,18.365,0,0,1-4.982.331,163.782,163.782,0,0,0-38,1.458c-9.5,1.483-19.148.927-28.721.446a45.633,45.633,0,0,1-9.829-2.05c-7.062-1.981-14.182-2.066-21.408-1.313C9.059,179.057,4.521,179.176,0,179.452Zm100.345-43.695c1.179.032,2.457.375,3.52.04a85.635,85.635,0,0,0,11.468-4.1,58.592,58.592,0,0,0,17.1-12.879,6.739,6.739,0,0,0,.823-2.079c-3.684-1.12-6.789.34-9.67,1.81a107.664,107.664,0,0,0-19.2,12.516c-1.589,1.3-3.623,2.4-3.9,4.821l-.2.075Zm-60.907-6.338c.295.559.459.6.458.112,0-.01-.344-.02-.527-.03-2.616-7.362-8.18-11.408-15.422-13.313a20.586,20.586,0,0,0-6.4-.175,3.724,3.724,0,0,0-3.449,3.134c-1.72,6.881,2.493,15.45,9.089,17.481,6.479,2,13.145,3.384,20.727,5.29a23.473,23.473,0,0,0-5.7-6.411c-1.827-1.53-3.8-2.883-5.673-4.36s-4.329-2.293-5.79-4.619c2.976-.963,5.191-.028,7.435.79C35.958,127.965,37.413,129.407,39.438,129.419ZM90.372,71.058c2.681-8.257,1.245-16.259.242-24.241a2.872,2.872,0,0,0-2.242-2.529A84.781,84.781,0,0,0,79.9,43.152a3.1,3.1,0,0,0-2.88,1.819c-2.934,5.532-4.964,11.377-4.877,17.7a8.458,8.458,0,0,0,6.91,8.076C82.519,71.227,86.051,72.274,90.372,71.058ZM95.389,38.14c4.6-9.32,2.927-18.923,2.956-28.33,0-1.594-1.615-2.351-3.2-2.073a10.632,10.632,0,0,0-7.261,4.157,81.067,81.067,0,0,0-6,8.88c-2.5,4.781-4.675,9.764-5.049,15.517C83.3,37.819,89.486,37.2,95.389,38.14ZM68.653,42.975c-1.964-1.457-3.584-.558-5.07-.062a33.881,33.881,0,0,0-10.647,5.666,19.823,19.823,0,0,0-6.7,9.891c-1.086,3.54.427,5.4,4.219,5.361,3.171-.035,6.065-1.135,8.951-2.252a5.1,5.1,0,0,0,2.945-2.947C64.475,53.387,66.579,48.133,68.653,42.975Zm41.893,31.172c1.783-2.706.221-5.521.221-8.292,0-7.052-3.819-12.042-8.812-16.376-1.029-.893-2.2-1.9-4.012-.773-.907,7.348,1.074,14.453,3.219,21.459C102.259,73.744,105.3,74.766,110.546,74.147Zm-8.43-34.379.384.208.012-.39ZM89.853,24.49c-.764-.011-1.379.337-1.456.954-.11.882.481,1.428,1.616,1.285a1.333,1.333,0,0,0,1.235-1.219A1.263,1.263,0,0,0,89.853,24.49Zm-3.089-5.551a.654.654,0,0,0,.276-.564,4.563,4.563,0,0,0-.5-.928q-.344.5-.686.993C85.945,18.988,86.267,19.192,86.764,18.939ZM82.405,31.048a1.1,1.1,0,0,0-.626,1.524c.37,1.038,1.105,1.483,1.9.979a2.02,2.02,0,0,0,.915-2.032C84.177,30.822,83.016,30.824,82.405,31.048ZM92.866,16.286a.97.97,0,0,0,1.207.7,1,1,0,0,0,.677-1.592c-.273-.485-1.052-1.18-1.613-1C92.615,14.7,92.666,15.724,92.866,16.286Zm-.243,17.279a.654.654,0,0,0,.6.184,4.548,4.548,0,0,0,.838-.639l-1.089-.521C92.446,32.764,92.3,33.114,92.623,33.565Z"/></g></g></svg>