<svg xmlns="http://www.w3.org/2000/svg" viewBox="0 0 142.145 181.521"><g id="Layer_2" data-name="Layer 2"><g id="Dato_Pricing_Image" data-name="Dato_Pricing Image"><path d="M142.145,177.736a22.672,22.672,0,0,1-9.587,2.892,133.77,133.77,0,0,1-13.6.419c-13.794-.164-27.587-.641-41.38-.633-8.879.006-17.76,1-26.635.915-9.6-.091-19.225.824-28.826-.689-4.821-.76-9.77-.71-14.66-1.043-1.811-.124-3.628-.223-5.422-.478A2.26,2.26,0,0,1,0,177.162c1.381-1.7,3.635-1.963,5.669-2.245,5.751-.8,11.526-1.6,17.355-1.374a119.7,119.7,0,0,0,17.924-.857c4.856-.538,9.75-.739,14.629-1.049a15.746,15.746,0,0,0,5.79-1.294c.975-5.421-.055-10.644-.259-15.863a48.4,48.4,0,0,0-1-7c-.577-3.059-2.6-4.232-5.51-3.22a9.843,9.843,0,0,0-4.444,3.146c-.322,2.276-.648,4.606-.984,6.934a6.87,6.87,0,0,1-2.238,4.255c-4.137,3.7-8.732,6.49-14.4,7.091a2.611,2.611,0,0,1-3.1-2.305,55.261,55.261,0,0,1-.167-8.135,42.053,42.053,0,0,1,1.2-6.416c1.381-6.169,5.581-8.7,11.764-7.074a19.641,19.641,0,0,1,3.538,1.385,3.608,3.608,0,0,0,4.082-.3,15.252,15.252,0,0,1,8.4-3.267c.721-7.7-3.165-20.391-8.414-27.677-1.77-.092-2.828,1.348-4.176,2.138-7.527,4.406-15.118,4.535-22.834.531A23,23,0,0,1,11.78,101.6c-1.393-3.722-.869-7.6.159-11.266,2.792-9.948,9.6-14.826,19.4-15.581,10.327-.8,18.626,3.8,25.062,11.784a7.27,7.27,0,0,1,1.353,5.16A27.8,27.8,0,0,1,54.3,103.625c-.52.944-1.116,1.846-1.573,2.6.077.608,0,1.043.183,1.3,6.263,8.965,8.866,19.381,11.855,29.656.587,2.019.481,4.357,2.428,6.2,1.412-2.163,1.651-4.461,1.919-6.716a363.621,363.621,0,0,1,7.347-41.79c.971-4.053,2.377-8,3.5-12.017.87-3.12,1.605-6.278,2.424-9.513-5.232-3.676-10.225-7.228-14.973-11.138A32.712,32.712,0,0,1,57.251,48.336c-4.276-11.413-3.394-22.49,3.362-32.821a60.92,60.92,0,0,1,7.963-9.637C71.987,2.46,76.226,1.092,80.757.41a40.933,40.933,0,0,1,7.6-.375c6.35.242,12.692.68,19.039,1.01A54.817,54.817,0,0,1,120.255,3.3,20.125,20.125,0,0,1,133.7,15.082a27.642,27.642,0,0,1,2.474,12.124c-.431,12.292-3.944,23.235-13.635,31.467-3.591,3.051-7.332,5.931-11.063,8.813a28.2,28.2,0,0,1-16,6.154c-1.613.088-3.212.447-5.24.743-4.362,12.342-8.585,24.8-12.339,37.407,1.155.43,1.5-.215,1.808-.858a115.724,115.724,0,0,1,7.5-13.253A25.7,25.7,0,0,1,98.149,88.2c3.785-1.74,7.538-.878,11.187.06a9.546,9.546,0,0,1,6.858,6.463,5.1,5.1,0,0,0,.686,1.011,21.421,21.421,0,0,0,7.181,1.97c4.214.536,6.71,3.069,8.6,6.693,3.822,7.308,3.651,15.031,2.823,22.875a70.061,70.061,0,0,1-2.536,12.257c-1.476,5.058-2.891,10.127-3.9,15.3a17.358,17.358,0,0,1-1.04,3.653,2.957,2.957,0,0,1-4.494,1.422,17,17,0,0,1-2.546-2.033c-7.447-6.972-13.671-15.009-19.8-23.1-3.581-4.728-5.04-10.413-6.264-16.115a5.589,5.589,0,0,1,.179-2.664,46.379,46.379,0,0,1,5.994-12.773,15.129,15.129,0,0,1,8-6.171c.3-2.661-1.284-3.848-2.971-4.914-1.574-.993-3.15-.568-4.647.256-6.112,3.367-11.391,7.344-14.852,13.865-4.706,8.868-8.823,17.9-11.37,27.593-2.585,9.842-4.681,19.787-5.189,30a18.852,18.852,0,0,0,.483,6.856C93.979,173.474,117.66,174.855,142.145,177.736ZM130.736,29.2c.062-.906.075-1.819.2-2.717,1.2-8.894-3.682-16.349-10.876-18.389a70.967,70.967,0,0,0-14.983-2.614c-5.608-.351-11.231-.493-16.848-.672-1.812-.058-3.633-.006-5.444.1-4.88.277-8.576,2.668-11.389,6.554a47.647,47.647,0,0,0-6.681,14.22c-.844,2.757-1.816,5.563-1.6,8.53.249,3.437.742,6.862.878,10.3.19,4.817,2.619,8.2,6.419,10.785,4.044,2.756,8.143,5.433,12.182,8.2a14.028,14.028,0,0,0,5.605,1.931c14.7,2.751,29.147-7,36.513-17.206a26.738,26.738,0,0,0,1.876-3.317A40.036,40.036,0,0,0,130.736,29.2Zm-6.543,122.98c2.243-2.721,2.313-5.942,3.368-8.783a80.361,80.361,0,0,0,4.572-23.985,23.553,23.553,0,0,0-2.854-12.017,6.554,6.554,0,0,0-6.518-4.046c-3.079.144-6.161.326-9.226.645-6.411.669-10.718,4.885-11.256,11.3a25.292,25.292,0,0,0,4.367,17.051c2.914,4.164,5.95,8.258,9.159,12.2A38.052,38.052,0,0,0,124.193,152.175ZM14.951,93.656c-.435,5.167.488,8.15,2.962,11.624,1.992,2.8,4.84,4.339,7.81,5.733,6.084,2.857,11.708,1.569,16.067-3.608.936-1.111,2-2.125,2.849-3.3,2.826-3.9,4.715-8.134,4.538-13.116a6.8,6.8,0,0,0-3.732-6.166c-3.195-1.8-6.687-2.757-10.095-4-4.674-1.7-8.959-.469-13.2,1.179A10.071,10.071,0,0,0,16.8,87.226,18.458,18.458,0,0,0,14.951,93.656ZM33.088,161.44c2.2-.775,4.041-1.368,5.837-2.07a23,23,0,0,0,3.912-1.816c1.712-1.076,3.295-2.559,3.223-4.7-.168-5-3.519-7.162-7.835-6.837a2.469,2.469,0,0,0-2.13,1.471A31.324,31.324,0,0,0,33.088,161.44Zm62.1-140.149c-.118,2.331-2.655,2.287-3.631,4.126,1.472,2.8,2.51,5.972,5.2,7.514,2.2.115,2.3-2.282,3.867-2.157,1.7.394,2.156,2.662,4.058,2.394,2.562-2.9,1.634-6.782,3.068-9.955.285-.631-.367-1.746-.942-1.733-2.545.059-2.986-2.646-4.5-3.578-2.144.869-2.326,3.1-3.955,4.067Zm25.76,95.185a8.282,8.282,0,0,0-1.135-2.446,1.487,1.487,0,0,0-1.938-.469,1.974,1.974,0,0,0-.949,1.148,6.265,6.265,0,0,0,.045,2.144c.486,3.226,1.04,6.441,1.516,9.669.29,1.971.472,3.959.724,5.936.115.9.283,1.793.426,2.688a2,2,0,0,0,2.213,1.916c1.225-.115,1.8-1.082,1.837-2.8C122.522,128.69,122.645,122.444,120.947,116.476ZM31.1,94.222c1.513-.666,1.654-1.78,1.878-2.966.233-1.23-.622-1.941-1.524-2.643-1.424-1.11-3.055-.93-4.735-1l-3.8,3.553C26.824,95.937,27.181,95.947,31.1,94.222Z"/></g></g></svg>