<svg viewBox="0 0 852 130"
  xmlns="http://www.w3.org/2000/svg">
  <g id="Page-1">
    <g id="Group-6" transform="translate(155 2)">
      <g id="Group-3">
        <path d="M44.2 52h-7.4c-1.2 0-2-.5-2.4-1.8l-2.5-8H14.2l-2.4 8c-.4 1.3-1.3 1.9-2.5 1.9H2C.4 52-.4 51 .2 49.5l15.5-45c.4-1.3 1.2-1.9 2.5-1.9h9.7c1.3 0 2.1.6 2.6 1.8L46 49.5c.5 1.6-.3 2.6-1.9 2.6zm-15-18.9l-6.2-21-6.2 21h12.4z" id="Shape"/>
        <path d="M105.4 29.8v20c0 1.5-.8 2.3-2.2 2.3h-6.4c-1.4 0-2.3-.8-2.3-2.2V30.6c0-3.8-2.1-6-5.3-6-3.5 0-5.7 2.6-5.7 6.8V50c0 1.4-.8 2.2-2.2 2.2H75c-1.4 0-2.3-.8-2.3-2.2V30.6c0-3.8-2-6-5.3-6-3.4 0-5.6 2.5-5.7 6.6l.1 18.7c0 1.4-.8 2.2-2.2 2.2h-6.4c-1.4 0-2.2-.8-2.2-2.2v-31c0-1.4.8-2.2 2.2-2.2h5.1c1.4 0 2.2.8 2.2 2.2v3.3A11 11 0 0171 15.7c5 0 8.9 2.4 10.9 6.5 2-4.1 5.9-6.5 11-6.5 7.7 0 12.5 5.6 12.5 14.1z" id="Path"/>
        <path d="M111.1 34.1c0-11 6.5-18.4 18-18.4 10.6 0 17 6.2 17.6 18.8 0 1.5-.7 2.3-2.1 2.3h-22c.7 5.2 3.4 8.4 8 8.4 2.5 0 4.5-1 5.6-2.9.8-1 1.5-1.5 2.8-1.3l5 .8c1.4.2 2.2 1.2 1.5 2.6-2.4 5.5-8 8.6-15.7 8.6-11.5 0-18.7-7-18.7-18.9zm24.2-3.3c-.6-4.7-2.6-7.4-6.2-7.4-3.7 0-6 2.6-6.5 7.4h12.7z" id="Shape"/>
        <path d="M175.2 17.6v6.3c0 1.2-.6 1.8-1.6 1.8h-.5c-6 0-9.6 3.7-9.8 9.8V50c0 1.4-.7 2.2-2.2 2.2h-6.4c-1.4 0-2.2-.8-2.2-2.2v-31c0-1.4.8-2.2 2.2-2.2h4.7c1.4 0 2.2.8 2.2 2.2v5.9c1.8-5.5 5.9-9 11.2-9h.6c1.2 0 1.8.7 1.8 1.8z" id="Path"/>
        <path d="M179.2 6a6 6 0 016.2-6 6 6 0 11-6.1 6zm9.4 46h-6.4c-1.5 0-2.2-.7-2.2-2.1v-31c0-1.4.7-2.2 2.2-2.2h6.4c1.4 0 2.2.8 2.2 2.2v31c0 1.4-.8 2.2-2.2 2.2z" id="Shape"/>
        <path d="M214.6 15.7c8.3 0 14.2 4.1 16.3 10.8.5 1.5-.3 2.4-1.7 2.7l-5.8.9c-1.3.2-2-.4-2.7-1.6-1-2.4-2.7-4-5.6-4-4 0-6.6 3.7-6.6 9.8 0 6 2.5 10 6.8 10 2.7 0 4.7-1.6 5.7-4.7.5-1.3 1.3-1.9 2.6-1.8l5.8.9c1.4.3 2.1 1.2 1.8 2.7-2 7.4-8 11.5-16.4 11.5-10.9 0-17.7-7.1-17.7-18.6 0-11.4 6.8-18.6 17.5-18.6z" id="Path"/>
        <path d="M268 28.7v21.2c0 1.4-.7 2.1-2.1 2.1h-5c-1.5 0-2.3-.7-2.3-2.1v-2.5c-2.2 3.6-6.2 5.6-11.4 5.6-7.5 0-12.2-4-12.2-10.5 0-7 5.5-11.2 14.5-11.2 2.9 0 5.8.4 8 1.2v-3.7c0-3.4-2-5.4-5-5.4-2.2 0-3.8 1-4.8 2.6-.8 1.2-1.4 1.7-2.7 1.5l-6.1-1c-1.5-.3-2.3-1.2-1.6-2.6 2.3-5 7.7-8.2 15.3-8.2 9.5 0 15.5 5 15.5 13zm-10.6 10.9v-1.4c-1.8-.8-3.8-1.2-5.7-1.2-3.7 0-5.9 1.6-5.9 4.4 0 2.6 2 4.2 5.2 4.2 4 0 6.4-2.3 6.4-6z" id="Shape"/>
        <path d="M308.7 29.8v20c0 1.5-.8 2.3-2.3 2.3H300c-1.4 0-2.2-.8-2.2-2.2V30.7c0-3.8-2.2-6.2-5.6-6.2-3.6 0-6 2.7-6 6.8v18.6c0 1.4-.7 2.2-2.1 2.2h-6.4c-1.5 0-2.3-.8-2.3-2.2v-31c0-1.4.8-2.2 2.3-2.2h5c1.4 0 2.3.8 2.3 2.2v3.3c2-4.1 5.8-6.5 11-6.5 7.7 0 12.7 5.6 12.7 14.1z" id="Path"/>
      </g>
      <g id="Group-2" transform="translate(337 1)">
        <path d="M32.5 4.8v5.6c0 1.3-.9 2.2-2.3 2.2H11.4v13h15.5c1.5 0 2.3.8 2.3 2.2v5.6c0 1.4-.8 2.2-2.3 2.2H11.3V50c0 1.4-.8 2.2-2.2 2.2H2.2C.8 52 0 51.3 0 49.9v-45c0-1.5.8-2.3 2.2-2.3h28c1.4 0 2.3.8 2.3 2.2z" id="Path"/>
        <path d="M34.6 34.3c0-11.3 7.1-18.5 18.6-18.5 11.4 0 18.5 7.2 18.5 18.5 0 11.5-7.1 18.7-18.5 18.7-11.5 0-18.6-7.2-18.6-18.7zm25.8 0c0-6-2.8-10-7.2-10s-7.2 4-7.2 10c0 6.2 2.8 10 7.2 10s7.2-3.8 7.2-10z" id="Shape"/>
        <path d="M110 19v30.9c0 1.4-.8 2.2-2.2 2.2h-5c-1.3 0-2.1-.8-2.1-2.2v-3c-2.1 4-6 6-11.4 6-7.4 0-12.1-4.4-12.1-13.8V19c0-1.4.8-2.2 2.2-2.2h6.4c1.4 0 2.2.8 2.2 2.2v19.5c0 3.6 2.1 5.8 5.5 5.8s5.7-2.5 5.7-6.5V19c0-1.4.8-2.2 2.2-2.2h6.4c1.4 0 2.2.8 2.2 2.2zM151.6 29.8v20c0 1.5-.8 2.3-2.2 2.3H143c-1.5 0-2.2-.8-2.2-2.2V30.7c0-3.8-2.3-6.2-5.7-6.2-3.6 0-6 2.7-6 6.8v18.6c0 1.4-.7 2.2-2.1 2.2h-6.4c-1.5 0-2.2-.8-2.2-2.2v-31c0-1.4.7-2.2 2.2-2.2h5c1.4 0 2.3.8 2.3 2.2v3.3c2-4.1 5.8-6.4 11-6.4 7.7 0 12.7 5.5 12.7 14z" id="Path"/>
        <path d="M192.7 2.7v47.2c0 1.4-.8 2.2-2.2 2.2h-5.1c-1.4 0-2.2-.8-2.2-2.2V46a12.8 12.8 0 01-11.6 6.8c-8.8 0-14.4-7.1-14.4-18.5s5.6-18.6 14.5-18.6c4.2 0 7.7 1.7 10.2 4.8v-18c0-1.3.8-2.1 2.2-2.1h6.4c1.4 0 2.2.8 2.2 2.2zM182 34.3c0-6-2.5-10-6.6-10s-6.7 4-6.7 10c0 6.1 2.6 10 6.7 10 4 0 6.6-3.9 6.6-10zM232.3 28.7v21.2c0 1.4-.8 2.2-2.2 2.2h-5c-1.5 0-2.2-.8-2.2-2.2v-2.5c-2.2 3.6-6.3 5.6-11.5 5.6-7.4 0-12.1-4-12.1-10.5 0-7 5.4-11.2 14.5-11.2 2.8 0 5.7.4 7.8 1.2v-3.7c0-3.4-1.8-5.4-4.9-5.4-2.2 0-3.8 1-4.7 2.7-.8 1-1.4 1.6-2.7 1.4l-6.2-1c-1.5-.2-2.2-1.2-1.6-2.6 2.3-5 7.8-8.2 15.3-8.2 9.5 0 15.5 5 15.5 13zm-10.7 10.9v-1.4c-1.7-.8-3.8-1.2-5.7-1.2-3.6 0-5.8 1.6-5.8 4.4 0 2.6 1.9 4.2 5.1 4.2 4 0 6.4-2.3 6.4-6z" id="Shape"/>
        <path d="M260.2 45.7v4.4c0 1.4-.8 2.2-2.2 2.2h-5c-7.5 0-12.1-4.1-12.1-10.8v-16h-2.1c-1.5 0-2.2-.8-2.2-2.3l-.1-4.3c0-1.4.8-2.2 2.2-2.2h2.5l2.9-7c.5-1.1 1.3-1.6 2.6-1.6h2.7c1.4 0 2.2.7 2.2 2.2v6.5h5.6c1.5 0 2.3.7 2.3 2.1v4.4c0 1.4-.8 2.2-2.3 2.2h-5.5v13.3c0 2.9 1.8 4.7 4.6 4.7h1.7c1.4 0 2.2.8 2.2 2.2z" id="Path"/>
        <path d="M264.8 6a6 6 0 016.1-6 6 6 0 11-6.1 6zm9.3 46h-6.4c-1.4 0-2.2-.7-2.2-2.1v-31c0-1.4.8-2.2 2.2-2.2h6.4c1.4 0 2.2.8 2.2 2.2v31c0 1.4-.8 2.2-2.2 2.2zM282.7 34.3c0-11.3 7.1-18.5 18.6-18.5 11.3 0 18.5 7.2 18.5 18.5 0 11.5-7.2 18.7-18.5 18.7-11.5 0-18.6-7.2-18.6-18.7zm25.7 0c0-6-2.7-10-7.1-10-4.5 0-7.2 4-7.2 10 0 6.2 2.8 10 7.2 10s7.1-3.8 7.1-10z" id="Shape"/>
        <path d="M359.3 29.8v20c0 1.5-.8 2.3-2.2 2.3h-6.4c-1.4 0-2.2-.8-2.2-2.2V30.7c0-3.8-2.3-6.2-5.7-6.2-3.5 0-5.9 2.7-6 6.8l.1 18.6c0 1.4-.7 2.2-2.2 2.2h-6.4c-1.4 0-2.2-.8-2.2-2.2v-31c0-1.4.8-2.2 2.2-2.2h5.2c1.3 0 2.2.8 2.2 2.2v3.3c2-4.1 5.8-6.4 11-6.4 7.7 0 12.6 5.5 12.6 14z" id="Path"/>
      </g>
      <g id="Group-4" transform="translate(0 72)">
        <path d="M92.4 37.8l7-1.2c1.4-.2 2.1.3 2.8 1.5 1.6 3.8 4.9 5.8 9.6 5.8 4.4 0 7-1.8 7-5 0-9.8-26.9-5.4-26.9-22.7 0-9.9 8.2-14.7 18.4-14.7 10 0 16.2 5 18.5 11.7.4 1.4-.3 2.3-1.8 2.6l-7 1.1c-1.2.3-2.1-.3-2.7-1.5-1.3-3-3.9-4.8-7.4-4.8-4 0-6.5 2.3-6.5 5 0 8.8 27 4.8 27 22.2 0 9.3-7.2 15.2-18.5 15.2-11.4 0-18.6-5.3-21.2-12.6-.5-1.4.2-2.3 1.7-2.6zM169 19v30.9c0 1.4-1 2.2-2.4 2.2h-4.9c-1.3 0-2.2-.8-2.2-2.2v-3c-2 4-6 6-11.3 6-7.5 0-12.2-4.4-12.2-13.8V19c0-1.4.8-2.2 2.2-2.2h6.4c1.5 0 2.3.8 2.3 2.2v19.5c0 3.6 2 5.8 5.5 5.8 3.4 0 5.6-2.5 5.7-6.5V19c0-1.4.8-2.2 2.1-2.2h6.4c1.5 0 2.3.8 2.3 2.2z" id="Path"/>
        <path d="M176.5 6a6 6 0 016.1-6 6 6 0 11-6.1 6zm9.3 46h-6.4c-1.4 0-2.2-.7-2.2-2.1v-31c0-1.4.8-2.2 2.2-2.2h6.4c1.5 0 2.3.8 2.3 2.2v31c0 1.4-.8 2.2-2.3 2.2z" id="Shape"/>
        <path d="M212 15.8c8.2 0 14.1 4 16.3 10.8.5 1.4-.3 2.3-1.8 2.6l-5.7.9c-1.4.2-2.2-.4-2.7-1.6-1-2.4-2.8-4-5.6-4-4 0-6.7 3.7-6.7 9.8 0 6.1 2.5 10 6.8 10 2.8 0 4.8-1.6 5.8-4.7.4-1.3 1.3-1.9 2.5-1.7l5.9.8c1.4.3 2.1 1.2 1.7 2.7-2 7.4-8 11.5-16.4 11.5-10.9 0-17.6-7.1-17.6-18.6 0-11.4 6.7-18.5 17.5-18.5z" id="Path"/>
        <path d="M233.5 6a6 6 0 016.1-6 6 6 0 11-6.1 6zm9.3 46h-6.4c-1.4 0-2.2-.7-2.2-2.1v-31c0-1.4.8-2.2 2.2-2.2h6.4c1.5 0 2.2.8 2.2 2.2v31c0 1.4-.7 2.2-2.2 2.2zM287 2.7v47.2c0 1.4-.8 2.2-2.3 2.2h-5c-1.5 0-2.3-.8-2.3-2.2V46a12.9 12.9 0 01-11.6 6.8c-8.8 0-14.4-7.1-14.4-18.5S257 15.8 266 15.8c4.3 0 7.7 1.7 10.2 4.8v-18c0-1.3.8-2.1 2.2-2.1h6.4c1.5 0 2.3.8 2.3 2.2zM276 34.3c0-6-2.5-10-6.6-10s-6.7 4-6.7 10c0 6.1 2.6 10 6.7 10 4 0 6.6-3.9 6.6-10zM293.3 34.1c0-11 6.5-18.3 18-18.3 10.7 0 17 6.1 17.7 18.7 0 1.5-.7 2.3-2.1 2.3h-22c.6 5.2 3.3 8.4 8 8.4 2.4 0 4.4-1 5.6-2.9.8-1 1.5-1.5 2.7-1.3l5 .8c1.5.2 2.2 1.2 1.6 2.6-2.4 5.5-8.1 8.6-15.7 8.6-11.5 0-18.8-7-18.8-18.9zm24.2-3.3c-.5-4.7-2.5-7.3-6.1-7.3-3.7 0-6 2.5-6.5 7.3h12.6z" id="Shape"/>
        <g id="Group" transform="translate(0 6.8)">
          <path d="M25.7.3H25C18.2.3 13 4 11.8 11.6l-.2.8H9A2 2 0 007 14l-.4 2a2 2 0 002 2.2h2l-2.1 13c-.5 2.6-2 3-3.8 3H3.3c-1 0-1.4.4-1.6 1.3l-1 4c-.2 1.1 1.6 2.3 4 2.3 5.2 0 10-2.4 11.5-9.4l2.3-14.2h3.3a2 2 0 001.9-1.6l.3-2a2 2 0 00-1.8-2.2h-2.6l.1-.8c.5-2.7 2.1-3.9 4-3.9H25a2 2 0 002-1.5l.6-3.7c.2-1.2-.7-2.2-1.9-2.2z" id="Path"/>
          <path d="M40.8 11.8A15 15 0 0026.3 24C25 31.2 30 36 36.5 36a15 15 0 0014.6-12c1.4-7.3-3.7-12-10.3-12zM43.5 24a6 6 0 01-5.7 4.8 4 4 0 01-4-4.8c.5-2.6 3.1-4.8 5.8-4.8 2.6 0 4.4 2.2 3.9 4.8z" id="Shape"/>
          <path d="M72.9 11.8c-2.3 0-6.5.2-8.5 4.6l.6-1.7a2 2 0 00-1.9-2.3h-3.6a2 2 0 00-1.9 1.6l-3.4 19.3a2 2 0 001.9 2.2h4a2 2 0 002-1.6l1-6c1.2-7 3.3-8.6 6.3-8.6.5 0 1.2 0 2.1.2a2 2 0 002.1-1.2l1.7-3.8c.5-1.2-.2-2.7-2.4-2.7z" id="Path"/>
        </g>
      </g>
      <g id="Group-5" transform="translate(350 72)">
        <path d="M38 18.8c0 10-7.2 16.3-18.5 16.3h-8.1V50c0 1.4-.9 2.2-2.2 2.2h-7C.8 52 0 51.3 0 49.9v-45c0-1.5.8-2.3 2.2-2.3h17.3c11.3 0 18.4 6.2 18.4 16.2zm-12 0c0-4.3-3-7-7.7-7h-6.9v14.1h7c4.6 0 7.7-2.7 7.7-7.1z" id="Shape"/>
        <path d="M66.2 17.6v6.3c0 1.2-.7 1.8-1.7 1.8h-.4c-6 0-9.7 3.7-9.9 9.8l.1 14.4c0 1.4-.8 2.2-2.2 2.2h-6.4c-1.4 0-2.2-.8-2.2-2.2v-31c0-1.4.8-2.2 2.2-2.2h4.7c1.3 0 2.2.8 2.2 2.2v5.9c1.8-5.4 5.8-9 11.2-9h.5c1.2 0 1.9.7 1.9 1.8z" id="Path"/>
        <path d="M67.7 34.1c0-11 6.5-18.4 18-18.4 10.6 0 17 6.2 17.6 18.8.1 1.5-.7 2.3-2.1 2.3h-22c.6 5.2 3.4 8.4 8 8.4 2.5 0 4.5-1 5.6-2.9.8-1 1.5-1.6 2.8-1.3l5 .8c1.4.2 2.2 1.2 1.5 2.6-2.4 5.5-8 8.6-15.7 8.6-11.5 0-18.7-7-18.7-18.9zm24.2-3.3c-.6-4.7-2.6-7.4-6.2-7.4-3.7 0-6 2.6-6.5 7.4h12.7z" id="Shape"/>
        <path d="M141.5 19.3l-10 31c-.4 1.1-1.3 1.8-2.6 1.8h-10.8c-1.3 0-2.2-.7-2.5-1.9l-10-31c-.5-1.5.2-2.5 1.8-2.5h7.1c1.4 0 2.1.6 2.5 1.9l6.7 24 6.7-24c.3-1.3 1.1-1.9 2.4-1.9h6.9c1.6 0 2.3 1 1.8 2.6z" id="Path"/>
        <path d="M144.3 34.1c0-11 6.5-18.4 18-18.4 10.6 0 17 6.2 17.7 18.8 0 1.5-.8 2.3-2.2 2.3h-22c.7 5.2 3.4 8.4 8 8.4 2.5 0 4.5-1 5.6-2.9.8-1 1.5-1.6 2.8-1.3l5 .8c1.5.2 2.2 1.2 1.6 2.6-2.5 5.5-8.2 8.6-15.8 8.6-11.4 0-18.7-7-18.7-18.9zm24.2-3.3c-.6-4.7-2.6-7.4-6.2-7.4-3.7 0-5.9 2.6-6.5 7.4h12.7z" id="Shape"/>
        <path d="M219 29.8v20c0 1.5-.8 2.3-2.2 2.3h-6.4c-1.4 0-2.2-.8-2.2-2.2V30.7c0-3.8-2.3-6.2-5.7-6.2-3.5 0-5.9 2.7-6 6.8l.1 18.6c0 1.4-.8 2.2-2.2 2.2H188c-1.4 0-2.2-.8-2.2-2.2v-31c0-1.4.8-2.2 2.2-2.2h5.1c1.4 0 2.2.8 2.2 2.2v3.3c2-4.1 5.9-6.4 11-6.4 7.7 0 12.7 5.5 12.7 14zM247.1 45.7v4.4c0 1.4-.8 2.2-2.3 2.2h-5c-7.4 0-12-4.1-12-10.8l-.1-16h-2c-1.5 0-2.3-.8-2.3-2.3V19c0-1.4.8-2.2 2.2-2.2h2.4l3-7c.5-1.2 1.3-1.7 2.6-1.7h2.6c1.4 0 2.3.8 2.3 2.2v6.5h5.6c1.4 0 2.2.8 2.2 2.2v4.3c0 1.5-.7 2.2-2.2 2.2h-5.5v13.4c0 2.9 1.8 4.6 4.5 4.6h1.7c1.5 0 2.3.9 2.3 2.3z" id="Path"/>
        <path d="M251.7 6a6 6 0 016-6 6 6 0 11-6.1 6zm9.3 46h-6.4c-1.4 0-2.2-.7-2.2-2.1v-31c0-1.4.8-2.2 2.2-2.2h6.4c1.4 0 2.2.8 2.2 2.2v31c0 1.4-.8 2.2-2.2 2.2zM269.6 34.3c0-11.3 7.1-18.5 18.6-18.5 11.4 0 18.6 7.2 18.6 18.5 0 11.5-7.2 18.7-18.6 18.7-11.5 0-18.6-7.2-18.6-18.7zm25.8 0c0-6-2.8-10-7.2-10s-7.2 4-7.2 10c0 6.2 2.8 10 7.2 10s7.2-3.8 7.2-10z" id="Shape"/>
        <path d="M346.3 29.8v20c0 1.5-.8 2.3-2.2 2.3h-6.4c-1.4 0-2.2-.8-2.2-2.2V30.7c0-3.8-2.3-6.2-5.7-6.2-3.6 0-6 2.7-6 6.8V50c0 1.4-.7 2.2-2.1 2.2h-6.4c-1.4 0-2.2-.8-2.2-2.2v-31c0-1.4.7-2.2 2.2-2.2h5c1.4 0 2.3.8 2.3 2.2v3.3c2-4.1 5.8-6.5 11-6.5 7.7 0 12.7 5.6 12.7 14.1z" id="Path"/>
      </g>
    </g>
    <path d="M125 40.1A65 65 0 105 90.1 65 65 0 00125 40zM36.4 77.6a31.3 31.3 0 0117-41.2 31.3 31.3 0 0141.2 17 31.5 31.5 0 01-58.2 24.2zM88 9.6L79.4 30a37.9 37.9 0 00-28.8 0L42 9.5c14.8-6 31.2-6 46 0zM9.6 42L30 50.6a37.9 37.9 0 000 28.8L9.5 88a60.6 60.6 0 010-46zM42 119.5L50.6 99a38.3 38.3 0 0028.8 0l8.6 20.5c-14.8 6-31.2 6-46 0zM119.5 88L99 79.4a37.9 37.9 0 000-28.8l20.5-8.6c6 14.8 6 31.2 0 46z" id="Shape"/>
  </g>
</svg>