<svg xmlns="http://www.w3.org/2000/svg" viewBox="0 0 473 81">
  <path d="M0 4.4c0-1.1 1-2.2 2.2-2.2h10.6A2.1 2.1 0 0115 4.4v29.8h37.2V4.4c0-1.1 1-2.2 2.2-2.2h10.5c1.1 0 2.2 1 2.2 2.2v74.5c0 1.1-1 2.1-2.2 2.1H54.4c-1.3 0-2.2-1-2.2-2.1v-31H15v31a2.1 2.1 0 01-2.2 2.1H2.2C1.1 81 0 80 0 78.9zM128.8 54l-11.4-24.7h-.3L105.9 54zm-49.3 24L115 2.3a2 2 0 012-1.2h1.1c1.2 0 1.6.6 2 1.2l35.1 75.8c.7 1.4-.2 2.9-2 2.9h-9.9c-1.7 0-2.5-.7-3.3-2.2l-5.6-12.2h-34.1l-5.6 12.2a3.4 3.4 0 01-3.3 2.2h-10c-1.7 0-2.6-1.5-1.9-3m121.7-39.9c6 0 11.4-5.1 11.4-11.4 0-6-5.3-11-11.4-11h-18.6v22.4zM167.7 4.4c0-1.1.9-2.1 2.1-2.1h32.7a24.5 24.5 0 0124.9 24.1c0 10.4-7 18.8-17 22.8l15.7 28.5c.8 1.5 0 3.3-2 3.3h-11.9a2 2 0 01-1.8-1l-15.2-29.8h-12.7v28.7c0 1-1 2.1-2.2 2.1h-10.5a2.1 2.1 0 01-2.1-2.1zM276.9 38c6 0 11.3-5.1 11.3-11.4 0-6-5.2-11-11.3-11h-18.6v22.4zM243.4 4.4c0-1.1.9-2.1 2.1-2.1h32.7a24.5 24.5 0 0124.9 24.1c0 10.4-7 18.8-17 22.8l15.7 28.5c.8 1.5 0 3.3-1.9 3.3h-12c-1 0-1.6-.6-1.8-1l-15.2-29.8h-12.7v28.7c0 1-1 2.1-2.2 2.1h-10.5a2.1 2.1 0 01-2.1-2.1zM337 43L311 5.5c-1-1.5 0-3.3 1.8-3.3h11.6c1 0 1.5.6 1.8 1l18.3 26 18.3-26c.3-.4.9-1 1.8-1h11.8c1.8 0 2.7 1.8 1.8 3.3L351.9 43v35.9c0 1-1 2.1-2.2 2.1h-10.5c-1.2 0-2.1-1-2.1-2.1zM421 68.8l4-7c1-1.5 3-1.5 4-.7.6.3 9.8 7 17.2 7 6 0 10.4-3.9 10.4-8.7 0-5.7-4.9-9.7-14.5-13.5-10.7-4.3-21.4-11-21.4-24.3 0-10 7.5-21.6 25.6-21.6C458 0 467 5.8 469.2 7.5c1.1.7 1.5 2.6.7 3.8l-4.3 6.4c-1 1.3-2.7 2.2-4 1.3-1-.5-9.7-6.2-16-6.2-6.4 0-10 4.3-10 7.9 0 5.3 4.2 8.9 13.5 12.6 11 4.4 23.9 11 23.9 25.4 0 11.6-10.2 22.3-26.3 22.3a36.9 36.9 0 01-25.1-8.8c-1-1-1.6-1.6-.6-3.4M398.6 2.2c-6 0-10.8 4.7-10.8 10.7 0 5.6 4.3 10 9.7 10 .8 0 2 0 3.2-.4v.4c0 6.2-4.9 8.2-5.5 8.2-.7 0-1.3.2-1.7.4a2 2 0 00-1.2 1.8c0 1.2 1.1 2.2 2.5 2.2 8.7 0 16-8.8 16-19.2 0-9.2-6.1-14-12.2-14" />
</svg>