<?xml version="1.0" encoding="UTF-8"?>
<svg viewBox="0 0 2029 290" version="1.1"
  xmlns="http://www.w3.org/2000/svg"
  xmlns:xlink="http://www.w3.org/1999/xlink">
  <title>Untitled 4</title>
  <defs>
    <polygon id="path-1" points="0 0 1628 0 1628 243 0 243"></polygon>
  </defs>
  <g id="Page-1" stroke="none" stroke-width="1">
    <g id="Clipped" transform="translate(401.000000, 24.000000)">
      <g id="Path"></g>
      <path d="M430.27551,205.220297 C430.27551,221.849825 411.68735,242.515645 390.351374,242.515645 C370.793396,242.515645 352.690144,232.989993 352.690144,198.439325 L353.013416,99.4694206 L304.522563,99.4694206 L303.876018,191.012546 C303.876018,204.413039 308.401831,210.871108 317.615093,210.871108 C322.787451,210.871108 325.858538,208.610784 328.767989,206.350459 C333.293803,202.798522 334.586892,200.538198 338.951069,200.538198 C340.164178,200.589895 341.302356,201.13861 342.097581,202.055131 C342.892806,202.971651 343.2748,204.174978 343.153609,205.381749 C343.153609,222.011276 324.888721,242.677097 301.936384,242.677097 C283.671495,242.677097 265.568243,233.151445 265.568243,198.600777 L265.891516,99.6308723 L256.031709,99.6308723 C245.848629,99.6308723 243.26245,97.6934517 243.26245,91.3968346 C243.26245,85.5845726 244.878812,83.1627968 251.505896,80.2566659 C260.719158,76.0589211 265.568243,72.3455316 270.740601,64.2729455 C282.540042,46.674708 282.21677,29.2379222 297.248934,29.2379222 C302.09802,29.2379222 304.037654,32.1440532 304.037654,36.1803462 L303.714382,75.4131142 L331.515805,75.4131142 C343.638518,75.4131142 350.75051,74.7673074 357.700866,64.2729455 C369.500307,46.674708 369.177034,29.2379222 384.209199,29.2379222 C388.41174,29.2379222 390.997919,31.8211497 390.997919,36.1803462 L390.674646,75.4131142 L424.77988,75.4131142 C429.952238,75.4131142 433.023325,76.704728 433.023325,83.647152 C433.023325,89.7823174 431.730236,99.6308723 421.547157,99.6308723 L391.159555,99.6308723 L390.836282,191.173998 C390.836282,204.574491 395.362096,211.032559 404.252085,211.032559 C409.424443,211.032559 412.495531,208.772235 415.728254,206.189008 C420.254067,202.314166 421.547157,200.699649 425.588061,200.699649 C426.847996,200.524083 428.118755,200.937157 429.033931,201.819768 C429.949108,202.702378 430.406974,203.956416 430.27551,205.220297 M519.498682,231.052573 C519.498682,235.250317 517.88232,238.3179 513.033234,238.3179 C505.113062,238.3179 492.505439,236.703383 481.029271,236.703383 L467.93674,236.703383 C456.783844,236.703383 444.337858,238.3179 436.902594,238.3179 C432.376781,238.3179 431.083691,235.411769 431.083691,231.052573 C431.083691,223.141438 437.225866,220.881114 443.206405,218.62079 C449.34858,216.68337 456.298935,212.485625 456.298935,202.959973 L455.652391,54.9087458 C455.329118,46.674708 450.803305,38.602122 433.346598,36.3417979 C428.497512,35.695991 425.749697,33.4356669 425.749697,29.5608257 C425.749697,25.6859844 427.042787,22.2954982 433.023325,21.0038845 C476.180185,12.1240399 476.82673,4.37435728 486.686537,4.37435728 C490.889078,4.37435728 493.475257,7.92629512 493.475257,13.9000088 C493.475257,17.1290432 493.151984,22.7798534 493.151984,38.7635737 L492.505439,203.121425 C492.505439,212.00127 498.00107,215.876111 505.59797,218.136435 C511.740145,220.235307 519.498682,222.495632 519.498682,231.052573 M190.084147,33.2742152 C190.084147,20.8424328 200.913771,10.6709744 214.006302,10.6709744 C227.422105,10.6709744 237.928456,20.8424328 237.928456,33.2742152 C237.928456,45.7059977 227.422105,55.5545526 214.006302,55.5545526 C200.913771,55.5545526 190.084147,45.7059977 190.084147,33.2742152 M593.528052,133.051378 C595.144414,131.436861 595.144414,128.53073 595.144414,124.817341 C595.144414,108.510717 586.900968,92.8499 574.13171,92.8499 C560.715907,92.8499 549.886283,109.479427 549.886283,139.509447 L549.886283,144.352999 C549.886283,196.98626 572.515348,211.355463 587.870786,211.355463 C599.993499,211.355463 605.812401,208.126428 610.823123,203.121425 C614.702391,199.569487 616.965298,194.887387 622.299292,194.887387 C626.825105,194.887387 628.441467,198.116422 628.441467,202.152715 C628.441467,220.073856 606.782219,243 577.687706,243 C534.207574,243 509.962147,204.413039 509.962147,157.753492 C509.962147,105.443134 542.289383,69.6008523 577.041161,69.6008523 C612.762757,69.6008523 630.057828,97.6934517 630.057828,135.311703 C630.057828,142.899933 629.734556,148.389292 627.148377,151.94123 C622.945837,157.430588 616.965298,157.430588 603.226223,157.430588 L569.282625,157.430588 C563.463722,157.430588 559.422818,154.847361 559.422818,149.19655 C559.422818,140.639609 564.918448,138.379285 576.394617,137.087671 C588.194058,135.634606 591.588418,134.988799 593.528052,133.051378 M173.112348,169.216564 C173.112348,178.096408 164.222359,194.080129 159.050001,212.324173 C156.14055,222.818535 157.110367,230.568218 155.817277,236.541931 C155.170732,240.416772 152.584554,242.03129 147.573832,242.03129 C139.007115,242.03129 125.914584,235.573221 81.7879069,235.573221 L70.6350105,235.573221 C50.4304881,235.573221 30.3876018,238.156448 10.829624,238.156448 C0.323272359,238.156448 0,232.344186 0,228.307893 C0,212.324173 30.7108741,221.042566 30.7108741,189.075125 L30.7108741,47.9663218 C30.7108741,22.45695 1.6163618,28.7535671 1.6163618,12.2854916 C1.55093834,10.4225353 2.22967309,8.61002323 3.50303713,7.24726159 C4.77640117,5.88449994 6.53992015,5.08329774 8.40508134,5.02016416 C13.9007115,5.02016416 29.0945123,6.9575848 49.9455795,6.9575848 L54.7946649,6.9575848 C75.8073683,6.9575848 93.7489842,5.02016416 96.3351631,5.02016416 C98.2092,5.05717995 99.988408,5.85043412 101.267348,7.21916273 C102.546287,8.58789135 103.216003,10.4154898 103.123883,12.2854916 C103.123883,28.5921153 73.0595532,22.45695 73.0595532,47.6434183 L72.4130085,190.043836 C72.0897361,206.996266 80.979726,210.386752 97.9515249,210.386752 L110.074238,210.386752 C121.873679,210.386752 132.056759,203.121425 138.522206,192.142708 L151.614737,169.539467 C156.787094,160.982526 160.827999,159.368009 164.383995,159.368009 C171.172714,159.529461 173.112348,164.695916 173.112348,169.216564 M259.749341,230.406766 C259.749341,234.604511 258.456251,238.3179 253.930438,238.3179 C246.010265,238.3179 232.917735,236.703383 221.27993,236.703383 L208.187399,236.703383 C196.387958,236.703383 183.295428,238.3179 175.536891,238.3179 C170.687806,238.3179 169.394716,234.765962 169.394716,230.406766 C169.394716,223.141438 175.536891,221.204018 181.840702,219.266597 C188.629422,217.006273 196.549594,212.808528 196.549594,202.959973 L195.90305,120.619596 C195.579777,112.385558 191.053964,103.990069 173.273985,102.052648 C168.424899,101.406841 166.000357,98.8236137 166.000357,95.2716759 C166.000357,91.3968346 167.293446,88.0063484 173.273985,86.7147347 C216.107572,77.5119866 213.198121,69.762304 226.613924,69.762304 C231.139737,69.762304 234.210824,73.3142419 234.210824,79.610859 C234.210824,82.8398934 233.56428,88.4907036 233.56428,104.474424 L232.917735,203.121425 C232.917735,212.324173 238.736637,216.521918 246.010265,218.782242 C251.990804,220.881114 259.749341,222.495632 259.749341,230.406766 M1211.46317,190.851094 C1211.46317,216.360466 1193.19828,242.192741 1158.12323,242.192741 C1146.15911,242.051764 1134.42574,238.885701 1124.01799,232.989993 C1118.19909,237.833545 1113.83491,239.770966 1111.89528,239.770966 C1105.42983,239.770966 1103.65183,233.312897 1103.65183,226.047569 C1103.65183,216.199014 1103.65183,209.418042 1102.35875,203.767232 C1101.06566,197.309163 1099.12602,192.627063 1099.12602,186.491898 C1099.12602,178.903667 1103.00529,174.705922 1108.98583,174.705922 C1113.83491,174.705922 1116.25946,176.966246 1119.49218,184.877381 C1129.67526,210.709656 1141.15143,218.782242 1157.47668,218.782242 C1169.92267,218.782242 1176.38812,210.871108 1176.38812,203.444329 C1176.38812,192.30416 1167.8214,185.200284 1156.50687,179.22657 L1145.35397,173.414309 C1108.01601,154.524457 1101.22729,141.446868 1101.22729,119.812337 C1101.22729,93.3342552 1122.07836,69.4394006 1152.6276,69.4394006 C1162.77998,69.1973199 1172.74522,72.1947897 1181.07556,77.9963418 C1184.95483,74.1215005 1187.21774,71.538273 1190.93537,71.538273 C1193.01192,71.4264411 1195.04206,72.178975 1196.54284,73.6168617 C1198.04363,75.0547484 1198.88092,77.0494635 1198.85554,79.1265038 L1198.85554,89.6208656 C1198.85554,100.438131 1202.41154,111.255396 1202.41154,120.942499 C1202.41154,127.723472 1199.82536,132.405572 1193.84482,132.405572 C1186.5712,132.405572 1183.33847,126.916213 1177.51957,114.484431 C1171.70067,103.344262 1165.07358,91.2353828 1151.98105,91.2353828 C1142.44452,91.2353828 1134.36271,97.0476448 1134.36271,108.187813 C1134.36271,116.098948 1137.27216,122.234113 1150.36469,129.176537 L1166.68994,137.733478 C1190.45046,150.649616 1211.46317,162.435592 1211.46317,190.851094 M1478.64777,86.8761864 C1478.64777,100.922486 1468.78796,109.802331 1459.08979,109.802331 C1452.62435,109.802331 1447.9369,106.250393 1442.118,106.250393 C1425.46947,106.250393 1418.84239,132.728475 1418.19584,156.62333 L1417.87257,202.959973 C1417.87257,211.516915 1423.3682,215.391756 1430.9651,217.974983 C1437.43055,220.235307 1445.67399,221.526921 1445.67399,229.760959 C1445.67399,234.281607 1444.3809,238.3179 1439.20854,238.3179 C1431.28837,238.3179 1418.19584,236.703383 1406.23476,236.703383 L1393.14223,236.703383 C1379.72643,236.703383 1350.30865,237.34919 1332.6903,237.34919 C1323.80031,237.34919 1315.07196,237.672093 1308.44487,238.3179 C1297.93852,238.3179 1298.58507,231.375476 1298.58507,205.704653 L1298.2618,161.305429 C1294.61279,161.294833 1290.97609,161.72857 1287.43217,162.597043 C1271.10692,165.826078 1258.66093,179.549474 1258.66093,193.918677 C1258.66093,208.933687 1267.22765,216.521918 1283.5529,215.230304 C1289.04853,214.584497 1291.1498,215.553208 1291.1498,218.136435 C1291.1498,232.182735 1271.9151,242.354193 1257.36784,242.354193 C1236.84005,242.354193 1218.73679,226.047569 1218.73679,201.829811 C1218.73679,170.508178 1243.62877,146.613323 1288.40199,140.639609 C1291.66894,140.189487 1294.96397,139.973666 1298.2618,139.993802 L1298.2618,134.827347 C1298.2618,103.505714 1292.44289,93.0113518 1277.89564,93.0113518 C1265.12638,93.0113518 1258.66093,99.792324 1253.00366,113.677172 C1249.44767,122.87992 1246.05331,132.889927 1238.29477,132.889927 C1231.99096,132.889927 1229.08151,128.369279 1229.08151,119.489434 C1229.08151,108.995072 1232.96078,98.1778068 1232.96078,87.8448967 L1232.96078,78.9650521 C1232.80347,76.8793098 1233.54178,74.8251853 1234.99133,73.315678 C1236.44088,71.8061707 1238.46481,70.9837899 1240.55768,71.0539178 C1243.46713,71.0539178 1248.80112,73.3142419 1254.29675,76.8661797 C1263.18674,71.6997247 1272.56164,67.3405282 1285.97745,67.3405282 C1306.3436,67.3405282 1320.40595,75.8974694 1327.84122,90.2666725 C1334.30666,102.698455 1336.40793,119.327982 1336.40793,138.702189 L1336.40793,168.086402 C1335.76139,214.745949 1342.87338,220.719663 1358.39045,220.719663 C1370.51317,220.719663 1381.34279,211.839818 1381.34279,200.538198 L1380.69625,120.135241 C1380.69625,112.54701 1376.17043,105.120231 1358.06718,103.18281 C1353.72911,102.756558 1350.51107,98.9707559 1350.79355,94.625869 C1350.79355,90.7510277 1352.40992,87.0376381 1357.58227,86.0689278 C1397.18314,77.83489 1394.27369,69.1164971 1406.3964,69.1164971 C1411.89203,69.1164971 1415.60966,72.668435 1415.60966,78.6421487 C1415.60966,82.1940865 1414.96312,87.8448967 1414.96312,103.828617 L1414.96312,110.609589 C1424.82292,78.6421487 1440.82491,65.2416559 1458.11998,65.2416559 C1470.56596,65.0802041 1478.64777,74.9287591 1478.64777,86.8761864 M720.08918,114.322979 C720.08918,181.97125 742.071701,214.584497 770.196396,213.93869 C783.935471,213.93869 795.734913,199.892391 804.30163,181.648346 C813.19162,162.758495 816.424344,160.013816 823.213063,159.690912 C829.031966,159.690912 832.103053,163.565754 832.103053,168.89366 C832.103053,175.674633 829.516874,183.262863 826.607423,192.142708 C820.78852,210.386752 819.818703,219.912404 815.454527,232.344186 C813.514892,237.833545 809.312352,239.125159 805.271447,239.609514 C801.715451,239.609514 797.028002,237.994997 793.148734,231.69838 C784.258744,238.156448 776.82348,242.192741 759.851681,242.515645 C717.018093,243.161452 674.507778,199.730939 674.507778,123.525727 C674.507778,57.4919733 716.694821,0.983871147 771.651122,0.015160825 C789.592738,-0.307742616 802.038724,4.535809 817.070888,13.7385571 C823.536335,8.24919856 826.607423,4.85871244 832.749598,4.85871244 C835.004115,4.72281303 837.212701,5.53546677 838.840197,7.09976148 C840.467694,8.66405618 841.365589,10.8372459 841.316315,13.0927502 C841.316315,21.6496914 836.790502,25.8474361 832.103053,37.6334117 C827.253968,50.0651941 826.930695,58.9450388 825.637606,65.0802041 C823.697972,72.9913384 820.78852,82.0326348 812.868348,82.0326348 C806.4029,82.0326348 802.685268,77.5119866 802.685268,71.2153695 L802.361996,55.2316492 C802.038724,37.3105082 791.532372,24.8787258 771.327849,25.2016292 C742.718246,25.8474361 720.08918,61.5282663 720.08918,114.322979 M1589.36855,190.851094 C1589.36855,216.360466 1570.13385,242.192741 1532.79589,242.192741 C1520.52442,242.05317 1508.47689,238.892221 1497.72084,232.989993 C1491.90194,237.833545 1487.53776,239.770966 1485.59813,239.770966 C1479.13268,239.770966 1477.35468,233.312897 1477.35468,226.047569 C1477.35468,216.199014 1477.35468,209.418042 1476.06159,203.767232 C1474.7685,197.309163 1472.82887,192.627063 1472.82887,186.491898 C1472.82887,178.903667 1476.70814,174.705922 1482.68868,174.705922 C1487.53776,174.705922 1489.9623,176.966246 1493.19503,184.877381 C1503.37811,210.709656 1515.50082,218.782242 1532.14935,218.782242 C1546.85824,218.782242 1554.45514,210.871108 1554.45514,203.444329 C1554.45514,192.627063 1545.56515,186.168994 1534.57389,179.872377 L1522.77445,173.252857 C1487.05285,153.394295 1479.94086,141.285416 1479.94086,119.650886 C1479.85291,106.208244 1485.18243,93.2953641 1494.72923,83.8201956 C1504.27604,74.345027 1517.23746,69.1042047 1530.69462,69.2779489 C1540.84701,69.0358681 1550.81224,72.033338 1559.14259,77.83489 C1563.02186,73.9600488 1565.28476,71.3768212 1569.0024,71.3768212 C1571.07895,71.2649894 1573.10908,72.0175233 1574.60987,73.45541 C1576.11065,74.8932967 1576.94795,76.8880118 1576.92257,78.9650521 L1576.92257,89.4594139 C1576.92257,100.276679 1580.47856,111.093944 1580.47856,120.781048 C1580.47856,127.56202 1577.89239,132.24412 1571.91185,132.24412 C1564.63822,132.24412 1561.4055,126.754761 1555.58659,114.322979 C1549.76769,103.18281 1543.14061,91.0739311 1530.04808,91.0739311 C1520.83481,91.0739311 1513.07628,96.8861931 1513.07628,108.026362 C1513.07628,115.937496 1515.98573,122.072661 1528.43172,129.015085 L1544.75697,138.217833 C1568.03258,151.618326 1589.36855,162.758495 1589.36855,190.851094 M1054.99934,133.051378 C1056.61571,131.436861 1056.61571,128.53073 1056.61571,124.817341 C1056.61571,108.510717 1048.37226,92.8499 1035.603,92.8499 C1022.1872,92.8499 1011.35758,109.479427 1011.35758,139.509447 L1011.35758,144.352999 C1011.35758,196.98626 1033.98664,211.355463 1049.34208,211.355463 C1061.46479,211.355463 1067.28369,208.126428 1072.29442,203.121425 C1076.17368,199.569487 1078.43659,194.887387 1083.77058,194.887387 C1088.2964,194.887387 1089.91276,198.116422 1089.91276,202.152715 C1089.91276,220.073856 1068.25351,243 1039.159,243 C995.678867,243 971.43344,204.413039 971.43344,157.753492 C971.43344,105.443134 1003.76068,69.6008523 1038.51245,69.6008523 C1074.23405,69.6008523 1091.52912,97.6934517 1091.52912,135.311703 C1091.52912,142.899933 1091.20585,148.389292 1088.61967,151.94123 C1084.41713,157.430588 1078.43659,157.430588 1064.69752,157.430588 L1030.75392,157.430588 C1024.93502,157.430588 1020.89411,154.847361 1020.89411,149.19655 C1020.89411,140.639609 1026.38974,138.379285 1037.86591,137.087671 C1049.82699,135.634606 1053.05971,134.988799 1054.99934,133.051378 M979.838521,228.469345 C979.838521,232.989993 977.898887,238.3179 972.888166,238.3179 C970.625259,238.3179 960.44218,237.34919 953.330188,237.34919 C944.116926,237.34919 935.388572,237.994997 929.084761,238.3179 C918.578409,238.3179 919.224954,231.375476 919.224954,205.704653 L918.901682,161.305429 C915.145055,161.27688 911.399214,161.710685 907.748785,162.597043 C891.423531,165.826078 879.300817,179.872377 879.300817,193.918677 C879.300817,208.933687 887.544263,216.844821 904.192789,215.230304 C909.688419,214.584497 911.78969,215.553208 911.78969,218.136435 C911.78969,232.182735 892.554984,242.354193 878.169364,242.354193 C857.156661,242.354193 839.538317,226.047569 839.538317,201.829811 C839.538317,170.831081 864.107017,146.936226 909.203511,140.639609 C912.470462,140.189487 915.765494,139.973666 919.063318,139.993802 L919.063318,134.827347 C919.063318,103.505714 912.921143,93.0113518 898.858795,93.0113518 C885.766265,93.0113518 879.62409,100.276679 873.966824,113.677172 C870.410828,122.87992 867.178104,132.889927 859.257931,132.889927 C853.115756,132.889927 850.044669,128.369279 850.044669,119.489434 C850.044669,108.995072 853.600665,98.1778068 853.600665,87.8448967 L853.600665,78.9650521 C853.493539,76.8921391 854.248538,74.8671131 855.687012,73.3691381 C857.125487,71.8711632 859.119623,71.0333409 861.197565,71.0539178 C864.430289,71.0539178 869.441011,73.3142419 874.936641,76.8661797 C883.826631,72.0226281 893.524801,67.3405282 906.940604,67.3405282 C927.468399,67.3405282 941.207474,76.2203728 949.127647,90.589576 C955.593094,103.021358 957.371092,119.327982 957.371092,138.702189 L957.371092,167.763498 C957.371092,210.871108 962.220178,217.813532 974.019619,220.719663 C978.868704,221.849825 979.838521,224.917407 979.838521,228.469345" id="Shape"></path>
    </g>
    <g id="Group">
      <path d="M15.96,225.924 C21.551,231.139 29.226,232.928 36.736,232.482 C60.468,222.345 47.904,191.646 54.539,172.86 C54.884,171.819 55.236,170.926 55.761,170.028 L57.332,169.437 C66.758,176.293 73.218,184.491 77.055,195.215 L91.368,221.595 C91.719,223.834 90.846,224.28 88.052,226.068 L88.401,240.525 C91.018,245.447 95.037,248.574 98.35,251.108 C98.696,251.404 99.049,251.709 99.395,251.853 C100.445,252.15 101.666,252.001 103.064,252.001 C104.806,251.853 106.377,251.853 107.43,252.745 L110.566,258.264 L113.533,263.777 L118.595,273.169 L124.528,283.9 L129.067,283.9 L140.763,283.9 L133.957,271.085 C143.379,274.957 149.322,281.518 158.396,283.9 L166.073,283.9 C174.278,280.625 176.719,272.569 180.384,266.607 L181.607,266.903 L191.033,283.897 L207.091,283.897 L206.22,282.551 L216.171,265.566 L226.818,248.724 L234.503,236.799 L240.601,227.259 C246.709,214.145 251.946,200.581 254.217,184.93 C261.203,214.146 250.9,244.252 247.235,271.223 C249.153,272.867 250.206,273.312 252.3,273.464 C262.25,242.312 267.134,203.563 260.163,167.791 L267.84,177.032 L273.941,173.756 C275.691,172.565 277.437,171.517 279.006,170.476 C281.624,168.83 284.067,167.352 286.334,166.002 C287.207,165.554 287.91,165.109 288.605,164.667 C289.479,164.071 290.356,163.617 291.044,163.171 C299.424,158.256 307.455,153.635 314.61,147.672 L302.912,113.84 C302.216,115.78 299.778,118.456 296.985,116.968 C294.542,108.921 298.728,98.936 301.868,90.443 C313.569,108.771 320.019,129.194 326.304,149.762 C315.488,158.258 302.744,166.156 291.046,173.309 C290.356,173.761 289.479,174.355 288.605,174.8 C287.91,175.249 287.207,175.693 286.334,176.137 C283.892,177.778 281.45,179.268 279.006,180.763 C279.006,180.763 279.006,180.91 278.836,180.91 L273.94,184.491 L279.005,190.596 L286.333,199.393 L288.604,202.074 L291.045,205.053 L335.202,257.817 L335.202,238.145 L308.676,207.592 L291.918,187.17 C305.885,175.545 323.34,168.828 335.202,157.21 L335.202,141.862 C326.479,109.815 311.294,79.558 291.045,52.729 C290.355,51.687 289.478,50.64 288.604,49.601 C288.256,48.999 287.731,48.41 287.206,47.661 C286.861,47.661 286.678,47.661 286.333,47.516 C284.595,47.516 283.192,49.297 282.846,50.197 C282.489,53.029 284.943,55.116 286.333,56.902 C287.206,57.95 287.731,58.989 287.206,60.036 C287.035,60.33 286.678,60.783 286.333,61.075 C284.762,62.718 282.846,63.464 280.922,64.208 C280.232,64.208 279.707,64.058 279.005,63.908 C274.992,62.715 272.557,59.137 268.009,60.328 C265.738,59.589 264.338,64.055 264.864,64.798 C264.338,67.482 270.455,68.231 270.455,71.656 C265.22,77.77 259.809,84.032 257.191,89.992 C256.325,102.062 245.315,111.305 234.504,120.396 C231.882,122.628 229.267,124.865 226.819,127.104 C223.675,129.936 220.882,132.768 218.612,135.748 C221.235,137.087 224.029,137.832 226.819,138.281 C229.266,138.727 231.882,138.727 234.504,138.581 C249.333,137.53 264.865,128.292 279.008,124.42 C281.626,123.823 284.069,123.223 286.335,122.93 C287.037,122.93 287.911,122.778 288.607,122.778 L288.607,122.778 L288.607,122.778 L288.607,122.778 C288.607,122.783 288.607,122.783 288.607,122.79 L288.607,122.79 C288.607,122.79 288.607,122.792 288.607,122.794 C288.607,122.794 288.607,122.794 288.607,122.797 C288.607,122.802 288.607,122.802 288.607,122.807 C288.607,122.809 288.607,122.811 288.607,122.818 C288.607,122.82 288.607,122.826 288.607,122.831 C288.607,122.836 288.607,122.839 288.607,122.841 C288.607,122.848 288.607,122.855 288.607,122.863 C288.607,122.874 288.607,122.878 288.607,122.886 C288.607,122.896 288.607,122.903 288.607,122.907 C288.607,122.916 288.607,122.924 288.607,122.933 C289.31,123.531 290.17,123.973 291.046,124.271 C293.497,125.168 296.28,125.168 297.856,125.614 C299.948,133.064 302.218,138.728 303.094,145.731 C300.131,147.969 295.759,150.804 291.046,153.485 C290.357,153.928 289.48,154.377 288.607,154.828 C287.911,155.271 287.207,155.716 286.335,156.019 C283.894,157.356 281.451,158.548 279.008,159.592 C276.735,160.493 274.464,161.385 272.373,162.129 L251.95,143.948 L240.958,146.635 C238.683,146.776 236.595,146.926 234.505,147.08 C231.883,147.08 229.268,147.08 226.82,147.08 C211.106,146.483 196.459,142.61 183.191,135.752 L209.538,126.065 C214.084,123.683 220.717,121.742 222.112,117.119 L215.651,107.288 C219.662,104.302 223.327,101.028 226.819,97.601 C229.438,94.913 232.061,92.377 234.504,89.545 C240.785,82.395 246.19,75.088 250.206,68.234 C255.263,57.952 259.977,48.713 259.462,37.383 C258.766,34.249 256.661,30.225 253.532,29.779 C246.894,29.633 240.603,30.076 234.504,30.973 C231.881,31.417 229.266,31.867 226.819,32.463 C198.72,38.42 176.204,54.375 154.381,70.021 L152.458,70.021 C152.985,67.339 153.682,65.401 152.289,64.359 C150.72,63.32 148.796,64.956 147.223,65.547 C140.064,68.381 138.151,75.685 137.977,80.603 L137.274,81.052 C135.003,78.667 137.104,75.386 133.958,73.301 C130.641,74.196 129.422,76.581 129.068,79.411 C128.54,82.099 128.896,85.224 128.371,87.765 L126.454,87.765 C125.403,85.676 126.276,83.739 124.355,81.948 C123.132,81.652 121.561,82.244 121.037,83.291 C119.991,84.781 119.295,86.27 118.597,88.058 C117.197,92.234 117.378,97.002 118.597,101.03 C118.948,102.219 119.472,103.265 119.992,104.305 C119.641,104.601 119.12,105.047 118.597,105.35 C117.033,106.392 115.107,107.136 113.535,108.183 C112.31,108.929 111.441,109.825 111.091,111.165 C111.091,112.353 112.485,113.099 113.535,113.995 C113.711,114.149 114.059,114.447 114.233,114.739 C113.888,115.63 113.712,116.532 113.535,117.43 C112.662,120.406 111.614,123.09 110.569,125.77 C107.952,132.18 104.808,138.289 103.067,144.552 C102.19,147.534 101.669,150.514 101.669,153.495 C102.014,153.641 102.537,153.79 103.067,153.936 C104.64,154.237 106.202,154.534 107.433,155.279 L107.775,156.028 C107.254,156.921 105.33,156.921 104.993,156.324 C104.285,156.178 103.586,156.178 103.067,156.028 C102.19,156.028 101.669,155.874 101.142,156.177 L103.067,172.572 L103.763,178.976 C103.587,179.273 103.409,179.723 103.067,180.024 C101.838,181.663 99.748,183.445 101.324,184.788 C102.19,185.533 102.718,186.582 103.067,187.621 C104.459,191.047 103.763,195.674 106.727,198.355 C108.476,199.1 109.7,200.287 110.57,201.48 C112.837,205.209 111.79,210.128 113.536,214.152 C113.536,214.448 113.712,214.897 113.889,215.197 C115.801,215.197 117.38,214.9 118.597,214.302 C121.221,213.261 122.793,211.324 124.704,210.128 L129.068,212.809 L159.439,231.444 C159.609,237.251 158.211,243.364 154.553,247.236 L151.759,247.536 C143.898,242.912 136.052,237.996 129.065,232.483 C125.228,229.501 121.908,226.37 118.594,222.943 C118.244,222.647 117.899,222.2 117.547,221.905 L115.626,221.749 C114.401,223.092 115.458,225.179 116.149,226.522 C116.85,228.01 117.719,229.503 118.594,230.847 C121.56,235.463 125.053,239.191 129.065,242.912 C136.744,250.073 146.344,256.18 156.473,263.035 C158.21,263.035 158.912,262.148 159.607,261.697 L168.864,241.578 C170.601,234.426 172.35,227.121 181.077,223.838 C181.255,220.41 181.255,217.131 178.292,216.84 L166.419,219.82 C152.451,215.94 138.67,206.407 129.065,196.422 C126.972,194.333 125.053,192.095 123.307,190.01 L123.827,189.115 C124.872,189.413 125.749,189.115 126.623,188.819 L126.099,179.127 C126.099,177.49 125.398,174.506 126.272,174.062 L127.843,173.463 C128.189,173.315 128.717,173.166 129.065,173.166 C131.686,172.42 134.477,172.866 137.098,174.654 C138.142,169.443 133.955,165.266 130.638,162.586 C131.161,158.112 135.346,157.366 134.652,154.237 C136.051,151.258 134.131,147.977 131.854,147.233 C134.294,144.696 132.381,141.273 132.553,137.842 C137.97,137.396 142.852,135.611 145.298,131.286 C146.17,129.202 148.615,125.029 145.646,122.942 C142.327,124.129 137.612,126.068 133.776,125.924 C131.851,124.279 131.851,122.494 132.73,122.196 L141.108,114.74 C145.646,117.873 154.198,119.513 158.207,114.444 C160.652,111.907 160.479,106.247 159.081,103.566 L159.431,102.517 C176.355,108.93 182.467,90 168.685,85.827 C172.7,94.917 164.495,95.66 156.118,99.831 L155.242,100.129 C154.373,105.493 149.834,111.311 145.647,108.927 C143.2,108.18 141.805,105.493 141.109,104.153 C138.842,103.407 136.74,106.685 134.476,105.944 L132.903,104.899 C149.656,84.33 174.269,67.936 197.135,55.562 C206.393,51.838 216.513,46.622 226.807,43.494 C229.424,42.601 231.87,42.002 234.489,41.556 C238.325,40.809 242.168,40.512 246.005,40.955 L243.382,53.627 L239.022,61.821 C237.808,64.502 236.226,67.188 234.49,69.722 C232.215,73.001 229.595,75.984 226.808,78.961 C217.031,89.247 204.471,98.04 195.381,107.13 L196.61,109.224 L205.687,115.329 L205.511,117.117 C194.86,122.188 181.949,126.511 169.904,127.107 C167.29,125.764 167.113,121.74 164.84,119.356 C163.103,119.95 161.704,120.542 159.607,122.189 C159.785,131.281 162.4,144.989 167.469,156.023 C169.388,156.171 170.602,156.614 171.305,156.171 L172.179,143.5 L172.705,142.61 C189.458,150.359 207.612,153.337 226.812,154.98 C229.259,155.277 231.874,155.429 234.494,155.58 C238.675,155.872 242.866,156.174 247.228,156.47 C247.575,158.708 244.432,158.41 242.692,160.64 L243.221,161.24 L241.82,180.025 C240.949,181.962 238.506,181.216 237.813,181.514 C236.229,182.105 236.059,183.896 236.059,185.533 C235.538,185.687 235.016,185.834 234.494,185.985 C233.442,186.134 232.748,186.282 232.915,186.877 C231.698,188.073 233.622,188.073 232.915,190.16 C231.172,190.754 231.172,192.392 230.479,192.687 C229.602,194.48 228.211,195.221 226.812,194.48 C226.636,194.48 226.464,194.332 226.464,194.332 C225.592,194.629 224.883,193.284 225.592,192.844 C225.76,191.946 226.115,191.05 226.814,190.163 C227.159,189.707 227.684,189.114 228.213,188.671 L226.814,188.671 L226.116,188.671 C222.798,187.479 220.355,191.798 220.877,194.78 C220.877,196.569 223.494,197.911 225.068,198.954 C222.279,200.889 221.583,201.192 220.359,204.169 C219.656,206.854 222.45,208.193 223.494,210.133 L222.972,211.176 C221.583,211.769 220.356,209.832 218.791,210.426 C217.564,211.769 217.21,214.452 218.267,216.39 C220.524,217.137 222.448,217.137 224.364,217.283 C224.718,219.521 226.635,221.311 226.635,222.947 L216.686,238.301 C210.924,247.093 205.86,258.87 196.258,266.021 L187.371,249.773 C188.23,247.69 188.763,245.152 187.89,243.663 C188.06,240.388 184.745,240.987 182.824,239.193 L180.037,239.49 C174.791,250.818 170.957,263.042 160.657,272.731 L141.63,262.295 C137.268,259.164 132.904,256.182 129.066,252.904 C125.227,249.772 121.561,246.495 118.593,243.068 C116.672,240.682 114.926,238.297 113.533,235.763 C112.137,233.084 111.089,230.401 110.565,227.569 C110.041,224.881 109.869,222.05 110.215,219.07 C108.475,217.278 105.153,218.624 103.237,216.838 C103.237,216.685 103.076,216.546 103.064,216.539 L103.064,216.539 C101.493,213.406 99.92,210.275 98.349,207.295 C89.62,190.6 80.372,173.912 77.93,156.322 C78.799,155.869 81.246,154.982 81.246,153.338 C82.466,150.209 81.068,147.675 78.272,146.188 C76.353,146.188 76.008,145.591 74.788,145.143 C82.988,140.972 91.892,135.007 98.35,127.855 C100.095,125.918 101.667,123.976 103.065,121.891 C105.506,118.315 107.25,114.589 108.127,110.565 C109.869,103.41 110.216,91.634 104.991,85.524 L103.065,86.571 L98.35,89.252 L84.385,97.001 C81.247,98.343 78.8,100.874 76.883,99.236 L78.107,64.213 L54.543,82.989 L37.085,96.853 C34.122,94.769 32.897,91.046 29.583,89.998 L28.015,90.595 L27.14,90.889 C27.14,92.685 27.14,92.685 27.84,94.023 C31.675,111.456 17.014,125.922 7.065,141.271 L7.065,214.452 C9.51,218.472 12.301,222.347 15.96,225.924 L15.96,225.924 Z M291.046,68.382 C291.225,68.382 291.392,68.235 291.749,68.235 C292.271,69.573 293.145,70.916 293.496,71.515 L293.31,73.298 C292.624,73.002 292.093,72.404 291.045,71.515 C290.518,71.063 289.821,70.624 288.784,70.02 C288.784,70.021 289.655,68.984 291.046,68.382 L291.046,68.382 Z M291.046,88.648 C291.392,88.354 291.568,88.206 291.749,87.907 C293.145,90.292 293.311,93.719 291.046,96.552 C290.872,96.85 290.519,97.149 290.169,97.45 C289.654,97.299 289.125,96.997 288.605,96.707 C287.91,96.254 287.036,95.512 286.334,94.767 C285.635,94.02 284.943,93.125 284.596,92.377 C284.944,91.633 285.639,91.187 286.334,90.888 C287.036,90.448 287.91,90.293 288.605,89.846 C289.478,89.543 290.356,89.101 291.046,88.648 L291.046,88.648 Z M286.332,107.131 C287.033,108.028 287.729,108.774 288.255,109.817 C287.554,110.265 287.033,110.709 286.332,111.16 C284.237,112.801 281.8,114.144 279.004,115.33 C273.072,118.165 266.26,120.104 259.629,122.632 L235.195,130.833 L250.382,118.168 C250.905,118.761 251.075,121.147 252.65,122.189 C255.096,122.935 258.233,123.38 261.209,122.189 C262.071,120.104 265.223,118.911 264.341,115.182 C263.47,113.843 263.999,112.801 261.548,112.202 C260.854,112.349 258.06,112.65 256.662,111.608 L272.018,95.656 C274.286,96.402 274.996,97.745 276.561,98.791 L276.04,99.83 C272.556,98.791 268.53,100.285 266.261,102.964 C265.041,104.155 265.738,107.134 267.658,108.926 C269.057,111.609 272.894,109.968 276.915,108.475 C276.563,107.731 278.653,106.242 279.006,105.201 C280.574,104.6 279.882,103.261 279.006,101.919 C281.971,103.112 284.412,105.046 286.332,107.131 L286.332,107.131 Z M279.004,76.576 C279.528,76.281 280.048,76.133 280.4,75.836 C281.274,77.179 285.114,77.323 285.806,80.307 C284.41,82.242 281.617,82.987 279.003,84.328 C278.652,84.624 278.13,84.779 277.785,85.075 L274.639,84.779 C274.639,84.779 273.766,85.075 273.242,83.736 L272.368,82.393 C273.243,80.604 276.209,78.07 279.004,76.576 L279.004,76.576 Z M234.502,198.945 C233.79,198.945 233.272,198.201 232.577,196.859 C233.104,196.563 233.79,196.265 234.502,195.966 C234.67,195.966 234.843,195.966 235.023,195.827 L236.066,196.12 C236.593,196.861 236.066,197.908 235.717,198.801 C235.194,198.945 234.84,199.099 234.502,198.945 L234.502,198.945 Z M226.815,205.656 C227.686,205.208 228.911,204.015 228.042,202.681 L227.689,201.932 L226.818,202.226 L225.244,202.823 L226.818,205.501 L226.815,205.656 L226.815,205.656 Z M129.07,151.55 L129.243,151.55 C129.77,150.507 131.343,149.912 130.986,149.169 L130.639,148.571 C129.94,148.72 129.417,149.02 129.066,149.169 C127.846,149.611 127.322,150.06 126.973,150.809 L127.497,151.4 L129.07,151.55 L129.07,151.55 Z M118.597,128.596 L118.773,128.596 L120.346,129.643 C120.346,131.13 119.638,131.575 118.597,132.473 C118.597,132.621 118.424,132.773 118.247,132.918 L117.902,132.178 C117.033,132.475 116.674,130.234 117.198,129.197 L118.597,128.596 L118.597,128.596 Z M113.537,144.395 L113.888,144.547 C115.978,144.547 116.675,147.53 114.93,148.116 C114.233,148.421 114.93,149.761 113.536,150.358 C113.536,150.507 113.359,150.507 113.359,150.507 C113.014,149.76 111.789,151.106 111.091,149.76 C111.091,147.971 111.091,146.333 112.14,144.391 L113.537,144.395 L113.537,144.395 Z M110.57,164.367 L111.274,164.514 L112.837,165.411 L112.141,173.161 C111.442,172.567 110.917,171.669 110.57,170.774 C109.52,168.988 108.824,167.048 108.129,165.709 L109.351,164.365 L110.57,164.367 L110.57,164.367 Z M103.067,243.067 L101.669,243.661 C101.669,243.661 100.096,242.621 98.523,241.578 L98.878,240.531 C99.047,239.343 100.799,238.449 103.066,237.849 C103.935,237.552 104.807,237.404 105.683,237.252 L106.902,237.552 C107.253,238.298 108.131,239.486 107.081,239.789 C106.379,241.725 104.642,242.322 103.245,242.914 L103.067,243.067 L103.067,243.067 Z M98.351,235.016 L96.086,235.315 L95.736,232.927 C95.736,232.927 96.958,232.481 98.353,231.883 C98.524,231.883 98.699,231.74 98.883,231.74 L100.806,231.74 C101.674,233.082 100.101,233.674 98.883,235.014 L98.351,235.016 L98.351,235.016 Z M54.541,146.926 C48.081,154.086 43.373,162.435 41.973,171.223 C37.612,184.638 39.881,199.249 38.134,213.85 C38.134,217.278 35.689,219.966 32.544,221.161 C23.647,218.921 21.551,209.828 17.363,204.165 C6.018,184.787 10.554,157.666 23.467,139.179 L35.168,121.45 C36.736,120.85 38.131,123.534 38.487,124.28 C37.253,127.113 34.294,130.836 39.361,132.923 L54.54,122.638 L56.982,121 C56.982,119.358 56.982,117.719 54.882,116.976 C54.716,116.829 54.716,116.68 54.537,116.68 C53.486,115.789 51.564,116.377 50.873,115.188 C49.829,113.251 46.857,111.167 46.857,107.734 L54.537,100.58 L64.658,90.892 L65.708,115.791 C77.576,114.448 87.002,109.077 96.952,104.312 L98.174,104.757 C98.694,112.659 89.447,120.551 82.464,127.411 C72.169,131.872 62.046,138.731 54.541,146.926 L54.541,146.926 Z" id="Shape" ></path>
      <polygon id="Path"  points="335.203 283.903 335.203 276.749 319.673 283.903"></polygon>
      <polygon id="Path"  points="263.995 281.071 262.424 281.518 263.65 283.903 266.092 283.903"></polygon>
      <polygon id="Path"  points="254.046 278.392 257.532 283.903 263.65 283.903 262.424 281.518 263.995 281.071 266.092 283.903 273.938 283.903 266.785 271.833"></polygon>
      <polygon id="Path"  points="250.023 280.031 245.665 282.557 246.369 283.903 252.469 283.903"></polygon>
      <polygon id="Path"  points="293.311 258.713 280.573 265.422 287.729 276.599 292.094 273.918 289.123 268.7 290.699 267.955 295.939 275.706 285.465 281.518 276.559 266.912 272.369 269.449 280.752 283.903 295.758 283.903 305.535 279.434"></polygon>
      <polygon id="Path"  points="332.07 266.313 319.498 246.646 306.41 252.605 314.262 263.488 318.624 260.951 316.012 256.328 317.224 254.987 322.814 263.488 312.169 268.551 302.389 254.243 298.199 256.775 311.123 277.198"></polygon>
      <path d="M80.544,122.339 L80.022,122.632 C79.149,122.935 77.227,122.935 76.535,121.447 C74.964,120.543 75.133,118.761 75.833,116.822 C77.227,115.484 78.978,114.285 80.541,113.989 C82.113,113.692 83.512,113.989 84.558,115.035 C85.953,116.079 86.299,118.461 85.085,119.805 C84.382,121.744 82.294,121.595 80.719,122.341 L80.543,122.341 L80.543,122.339 L80.544,122.339 L80.544,122.339 Z M62.046,131.281 C61.175,131.433 59.43,131.281 58.203,130.39 C57.858,129.79 56.64,129.345 57.159,126.664 C56.81,126.064 58.386,125.316 59.08,125.022 C59.776,123.682 60.644,123.084 62.046,122.784 C62.743,122.784 63.623,122.784 64.664,122.935 C66.232,123.975 67.806,125.021 66.935,126.953 C66.587,127.852 65.361,130.833 62.574,131.133 C62.395,131.13 62.22,131.281 62.046,131.281 L62.046,131.281 Z M56.113,101.769 C56.809,101.626 57.335,101.626 58.033,101.626 C60.302,102.37 61.001,103.706 60.645,106.389 C60.645,108.032 58.729,109.524 56.115,110.713 C55.94,110.862 55.592,110.862 55.412,111.011 L54.192,110.563 C52.619,109.521 50.876,107.88 51.753,105.791 C51.752,104.6 53.671,102.513 56.113,101.769 L56.113,101.769 Z M46.161,144.991 C46.161,144.991 46.161,144.991 45.99,144.991 C45.99,144.991 44.067,144.991 42.847,144.693 C42.152,143.355 40.929,141.269 42.669,139.033 C43.374,138.736 43.546,137.094 44.068,136.051 C44.417,135.899 45.289,135.754 46.162,135.754 C47.038,135.754 47.735,135.754 48.607,135.754 C50.528,137.538 51.228,140.523 50.001,141.868 C49.132,143.65 47.732,144.395 46.161,144.991 L46.161,144.991 Z M35.34,170.631 C33.598,170.776 32.372,169.735 31.674,168.097 C30.978,167.356 30.624,166.754 30.283,166.006 C29.75,164.814 29.932,163.474 30.283,162.133 C30.458,161.532 30.803,160.791 31.152,160.052 C32.543,159.002 33.769,158.557 35.34,158.259 C35.862,157.96 36.566,157.81 37.258,157.512 C40.406,159.596 41.098,162.583 40.231,166.309 C40.06,167.945 39.363,170.034 36.566,170.18 C36.042,170.479 35.687,170.479 35.34,170.631 L35.34,170.631 Z M35.34,143.65 C34.467,143.799 33.598,144.098 32.024,144.098 C30.978,143.205 30.457,142.159 30.282,140.973 C30.282,140.52 30.282,140.226 30.282,139.782 C30.457,138.884 30.624,137.989 31.152,137.093 C32.025,135.899 33.769,135.154 35.34,134.56 C35.687,134.411 35.862,134.265 36.214,134.265 C38.835,135.608 39.177,137.839 39.53,140.226 C39.178,141.271 37.436,143.501 35.517,143.501 L35.34,143.65 L35.34,143.65 Z M30.282,200.438 C29.931,200.59 29.41,200.438 28.887,200.288 C28.349,200.145 27.489,199.991 26.439,199.693 C23.468,197.608 23.645,194.182 24.514,190.602 C25.04,189.562 25.04,189.562 26.263,188.216 L28.886,188.07 C29.408,188.216 29.928,188.362 30.281,188.816 C31.849,190.008 33.244,192.39 33.767,193.433 C34.121,195.825 33.938,199.099 30.799,200.436 C30.622,200.438 30.457,200.438 30.282,200.438 L30.282,200.438 Z M30.282,158.707 C29.749,158.857 29.41,159.301 28.887,159.597 C28.014,160.349 27.306,161.239 25.91,161.239 L25.04,161.536 C23.124,161.536 22.074,159.452 21.028,157.515 C19.805,155.431 19.982,152.151 23.124,150.811 C23.124,149.171 25.569,149.917 28.015,149.023 C28.351,149.32 28.705,149.766 28.887,150.211 C29.582,151.111 30.107,152.151 30.283,153.341 C30.801,154.979 30.801,156.918 30.282,158.707 L30.282,158.707 Z M19.983,185.235 C19.112,185.084 17.886,184.638 17.013,183.748 C16.314,182.407 14.392,178.974 15.623,175.998 C15.793,174.356 17.191,173.76 19.808,172.863 L19.984,172.863 L22.075,173.46 C24.698,174.954 25.041,178.976 24.865,182.253 C25.219,182.854 23.999,182.554 22.427,184.786 C21.721,185.083 20.854,185.235 19.983,185.235 L19.983,185.235 Z" id="Shape" ></path>
      <path d="M28.887,188.07 L26.264,188.214 C25.039,189.559 25.039,189.559 24.514,190.599 C23.645,194.182 23.469,197.605 26.44,199.692 C28.887,200.437 29.932,200.739 30.801,200.437 C33.941,199.099 34.122,195.823 33.769,193.434 C33.073,192.09 31.152,188.665 28.887,188.07 L28.887,188.07 Z" id="Path" ></path>
      <path d="M17.012,183.745 C18.758,185.531 20.852,185.531 22.425,184.785 C23.996,182.555 25.218,182.853 24.863,182.252 C25.04,178.976 24.696,174.954 22.072,173.46 L19.805,172.863 C17.188,173.761 15.792,174.355 15.62,175.998 C14.392,178.974 16.313,182.405 17.012,183.745 L17.012,183.745 Z" id="Path" ></path>
      <path d="M37.254,157.51 C34.987,158.408 33.071,158.408 31.151,160.049 C29.749,163.028 29.226,165.715 31.672,168.1 C32.726,170.032 34.122,171.223 36.564,170.179 C39.361,170.032 40.057,167.943 40.229,166.306 C41.096,162.582 40.405,159.597 37.254,157.51 L37.254,157.51 Z" id="Path" ></path>
      <path d="M25.04,161.533 L25.909,161.236 C27.836,161.236 28.705,159.301 30.281,158.707 C31.15,154.979 30.105,151.253 28.012,149.021 C25.569,149.913 23.122,149.169 23.122,150.809 C19.981,152.148 19.804,155.426 21.027,157.51 C22.072,159.448 23.124,161.533 25.04,161.533 L25.04,161.533 Z" id="Path" ></path>
      <path d="M45.99,144.991 C47.558,144.547 49.131,143.801 50.002,141.867 C51.227,140.521 50.528,137.536 48.606,135.752 C46.69,135.752 44.768,135.752 44.067,136.047 C43.545,137.091 43.373,138.73 42.668,139.031 C40.929,141.27 42.151,143.352 42.846,144.692 C44.067,144.991 45.99,144.991 45.99,144.991 L45.99,144.991 Z" id="Path" ></path>
      <path d="M35.514,143.501 C37.435,143.501 39.177,141.266 39.527,140.226 C39.176,137.839 38.833,135.611 36.212,134.265 C34.644,134.708 32.374,135.751 31.151,137.093 C29.749,140.075 30.106,142.311 32.024,144.099 C33.94,144.098 34.816,143.8 35.514,143.501 L35.514,143.501 Z" id="Path" ></path>
      <path d="M59.079,125.023 C58.384,125.316 56.808,126.065 57.158,126.665 C56.637,129.346 57.857,129.791 58.202,130.391 C59.775,131.437 61.703,131.437 62.572,131.134 C65.359,130.836 66.584,127.857 66.933,126.953 C67.804,125.023 66.231,123.974 64.662,122.934 C61.517,122.486 60.126,123.084 59.079,125.023 L59.079,125.023 Z" id="Path" ></path>
      <path d="M76.538,121.448 C77.23,122.936 79.151,122.936 80.024,122.633 L80.724,122.34 C82.3,121.594 84.387,121.743 85.091,119.803 C86.309,118.46 85.959,116.078 84.565,115.033 C82.3,112.648 78.275,114.284 75.836,116.821 C75.135,118.761 74.965,120.542 76.538,121.448 L76.538,121.448 Z" id="Path" ></path>
      <path d="M60.643,106.388 C60.998,103.707 60.298,102.369 58.031,101.626 C54.884,101.322 51.748,104.301 51.748,105.791 C50.874,107.88 52.616,109.523 54.187,110.565 L55.407,111.011 C58.553,109.817 60.643,108.18 60.643,106.388 L60.643,106.388 Z" id="Path" ></path>
      <path d="M3.158,51.621 C5.491,50.144 6.136,49.732 6.657,49.401 C35.528,30.956 82.462,0.968 170.963,0.968 L170.995,0.968 C251.531,0.979 305.707,32.574 329.974,46.719 C333.341,48.686 336.106,50.301 338.144,51.362 L341.019,52.86 L341.019,55.716 L341.019,283.903 L341.019,289.017 L335.037,289.017 L6.714,289.017 L0.731,289.017 L0.731,283.903 L0.731,55.716 L0.731,53.164 L3.158,51.621 L3.158,51.621 Z M13.81,57.544 C13.427,57.787 13.047,58.027 12.704,58.25 L12.704,278.794 L329.054,278.794 L329.054,58.506 C327.33,57.537 325.401,56.409 323.231,55.142 C299.93,41.555 247.883,11.2 170.993,11.193 L170.96,11.193 C86.364,11.193 41.441,39.894 13.81,57.544 L13.81,57.544 Z" id="Shape" ></path>
    </g>
  </g>
</svg>