<svg viewBox="0 0 177 41"
  xmlns="http://www.w3.org/2000/svg">
  <g id="Page-1" stroke="none" stroke-width="1" fill-rule="evenodd">
    <g id="mit">
      <path id="Path" d="M38.8 8.1V.7h7.9v7.4zM51.6 37.8V12.5h7.9v25.3zM.5.7h7.8v37.1H.5zM26 37.8V.8H34v37zM13.3 26V.8H21v25.4zM51.6 8.1V.7h20.6v7.4zM97.6.6v9h-2.1l.1-6.4v-1 .4l-.3 1-1.7 6h-1.9l-1.6-5.8-.4-1.6v1.7l.2 5.6h-2.2V.6H91l1.4 5 .3 1.4.2-1L94.3.5h3.3z"/>
      <path d="M99.3 4.8c0-.5.1-1 .7-1.5.6-.4 1.4-.6 2.2-.6.8 0 2.7.2 2.7 2v3.8c0 .7 0 .8.2 1h-1.9V9c-.5.4-1 .8-2 .8-1.5 0-2.2-1-2.2-2s.9-1.7 1.4-1.9l2.6-.6v-.4c0-.3 0-.8-.7-.8-.9 0-1 .6-1 .8h-2zm2.5 2c-.4.1-.9.3-.9.8 0 .3.3.7.8.7l.6-.2c.7-.4.7-1 .7-1.7l-1.2.4z" id="Shape" />
      <path d="M107 7.3c.6.5 1.2 1 2 1 .4 0 1.2-.2 1.2-.7 0-.3-.2-.3-.3-.4-.3-.2-.7-.2-1.1-.3-.3 0-.6 0-1-.2-.3 0-.7-.2-1-.5-.3-.3-.5-.8-.5-1.3 0-1 1-2.2 2.8-2.2 1.5 0 2.5.7 3 1l-1.3 1.1c-.6-.5-1.2-.6-1.6-.6-.8 0-1 .3-1 .4 0 .4.4.5 1 .6 1.4.3 3 .6 3 2.2 0 1.5-1.6 2.3-3.2 2.3-1.8 0-2.8-.9-3.2-1.3l1.2-1zM113.6 7.3c.6.5 1.2 1 2 1 .4 0 1.1-.2 1.1-.7 0-.3 0-.3-.2-.4-.3-.2-.8-.2-1.1-.3-.3 0-.6 0-1-.2-.3 0-.7-.2-1-.5-.3-.3-.5-.8-.5-1.3 0-1 1-2.2 2.8-2.2 1.5 0 2.5.7 3 1l-1.3 1.1c-.6-.5-1.2-.6-1.6-.6-.8 0-1 .3-1 .4 0 .4.4.5 1 .6 1.4.3 3 .6 3 2.2 0 1.5-1.6 2.3-3.2 2.3-1.8 0-2.8-.9-3.2-1.3l1.2-1z" id="Path" />
      <path d="M119.9 4.8c0-.5 0-1 .7-1.5.6-.4 1.4-.6 2.1-.6.8 0 2.8.2 2.8 2v3.8c0 .7 0 .8.2 1h-2V9c-.4.4-1 .8-2 .8-1.5 0-2.1-1-2.1-2s.8-1.7 1.4-1.9l2.6-.6v-.4c0-.3 0-.8-.8-.8s-1 .6-1 .8h-2zm2.4 2c-.3.1-.8.3-.8.8 0 .3.3.7.7.7l.7-.2c.7-.4.7-1 .7-1.7l-1.3.4z" id="Shape" />
      <path d="M133 8c-.2.4-.5.8-1 1.2-.5.3-1.1.5-1.9.5-1.3 0-3.3-.7-3.3-3.4 0-2 1.1-3.5 3.3-3.5.8 0 2 .2 2.9 1.5l-1.5.9c0-.3-.2-.5-.5-.7-.2-.2-.5-.3-.8-.3-1 0-1.4 1.2-1.4 2 0 1 .5 2 1.5 2 .1 0 .6 0 1-.4l.3-.6 1.4.8zM135.3.6v3c.3-.3.8-.9 1.9-.9.5 0 1 .2 1.4.5.6.5.7 1.1.7 2v4.3h-2V6.1 5a1 1 0 00-1-.7 1 1 0 00-.7.4c-.3.3-.3.9-.3 1.4v3.3h-2v-9h2zM145 3h1.9v6.5h-2V9l-.6.5c-.4.2-.8.3-1.3.3-.4 0-1.2 0-1.7-.7-.3-.5-.4-.8-.4-2V3h2v4c0 .3 0 .6.2.8 0 .2.3.3.7.3l.7-.1c.4-.3.4-.6.4-1V3zM149 7.3c.5.5 1.2 1 1.9 1 .5 0 1.2-.2 1.2-.7 0-.3-.2-.3-.3-.4-.3-.2-.7-.2-1.1-.3-.3 0-.6 0-.9-.2-.4 0-.8-.2-1-.5-.4-.3-.6-.8-.6-1.3 0-1 1-2.2 2.8-2.2 1.6 0 2.5.7 3 1l-1.3 1.1c-.6-.5-1.2-.6-1.6-.6-.8 0-1 .3-1 .4 0 .4.5.5 1.1.6 1.3.3 2.9.6 2.9 2.2 0 1.5-1.6 2.3-3.1 2.3-1.9 0-2.8-.9-3.2-1.3l1.2-1z" id="Path" />
      <path d="M161.4 7.8c-.2.4-.4.7-.8 1-.6.6-1.4 1-2.5 1-2 0-3.3-1.3-3.3-3.4 0-1.6.8-3.7 3.4-3.7.4 0 1.5 0 2.3 1 1 .9 1 2.2 1 3h-4.7c0 .7.4 1.6 1.5 1.6 1 0 1.4-.7 1.6-1.2l1.5.8zm-2-2.4c0-.3 0-.6-.3-1a1.4 1.4 0 00-2 .1c-.2.3-.3.6-.3 1h2.7z" id="Shape" />
      <path d="M162.9 1h1.9v2h1.3v1.3h-1.3v3c0 .3 0 .7.5.7h.7v1.5h-1c-.7 0-1.5 0-1.9-.6-.2-.4-.2-.8-.2-1.5V4.3h-1V3h1V1z" id="Path" />
      <path d="M166.6 1h2v2h1.2v1.3h-1.3v3c0 .3 0 .7.5.7h.7v1.5h-1c-.7 0-1.4 0-1.9-.6-.2-.4-.2-.8-.2-1.5V4.3h-1V3h1V1zM171.2 7.3c.5.5 1.1 1 1.9 1 .4 0 1.2-.2 1.2-.7 0-.3-.2-.3-.3-.4-.3-.2-.7-.2-1.1-.3-.3 0-.6 0-1-.2-.3 0-.7-.2-1-.5-.3-.3-.5-.8-.5-1.3 0-1 1-2.2 2.8-2.2 1.5 0 2.5.7 3 1l-1.3 1.1c-.6-.5-1.2-.6-1.6-.6-.8 0-1 .3-1 .4 0 .4.4.5 1 .6 1.4.3 3 .6 3 2.2 0 1.5-1.6 2.3-3.2 2.3-1.8 0-2.8-.9-3.2-1.3l1.3-1zM90 14.7v8.9h-2.2v-9zM93.8 17.6c.2-.2.3-.4.6-.5.3-.2.8-.3 1.2-.3.4 0 .9.1 1.2.3.7.4.9 1 .9 2v4.5h-2v-3.7-1c-.2-.4-.5-.5-1-.5-1 0-1 .8-1 1.6v3.6h-1.9V17h2v.6zM99.8 21.4c.5.5 1.2.9 1.9.9.5 0 1.2-.2 1.2-.7 0-.2-.2-.3-.3-.3-.3-.2-.7-.2-1.1-.3l-.9-.2c-.4-.1-.8-.3-1.1-.6-.3-.3-.5-.7-.5-1.2 0-1.1 1-2.2 2.8-2.2 1.5 0 2.5.6 3 1l-1.3 1c-.6-.4-1.2-.6-1.6-.6-.8 0-1 .3-1 .5 0 .4.5.5 1 .6 1.4.2 3 .6 3 2.1 0 1.6-1.6 2.4-3.2 2.4-1.8 0-2.7-1-3.2-1.3l1.3-1.1zM106.3 15h1.9v2.1h1.3v1.2h-1.3v3c0 .4 0 .8.5.8h.7v1.4l-1 .2c-.7 0-1.4 0-1.9-.7-.2-.4-.2-.9-.2-1.5v-3.2h-1v-1.2h1v-2z" id="Path" />
      <path d="M110.5 14.7h2v1.5h-2v-1.5zm0 2.3h2v6.6h-2V17z" id="Shape" />
      <path d="M114.4 15h2v2.1h1.2v1.2h-1.2v3c0 .4 0 .8.5.8h.7v1.4l-1 .2c-.7 0-1.5 0-1.9-.7-.3-.4-.3-.9-.3-1.5v-3.2h-1v-1.2h1v-2zM122.6 17h2v6.6h-2V23l-.6.5c-.4.2-.9.3-1.3.3s-1.2 0-1.7-.7c-.3-.5-.4-.9-.4-2V17h2v4l.1.9c.1.1.4.3.8.3.1 0 .4 0 .7-.2.4-.2.4-.5.4-.9V17zM126.6 15h1.9v2.1h1.3v1.2h-1.3v3c0 .4 0 .8.5.8h.7v1.4l-1 .2c-.7 0-1.5 0-1.9-.7-.2-.4-.2-.9-.2-1.5v-3.2h-1v-1.2h1v-2z" id="Path" />
      <path d="M137 22l-.8.9c-.6.5-1.5 1-2.5 1-2 0-3.4-1.3-3.4-3.5 0-1.6.8-3.6 3.4-3.6.4 0 1.6 0 2.4 1 .9.9 1 2.1 1 2.9h-4.8c0 .8.5 1.6 1.5 1.6s1.5-.7 1.7-1.1l1.5.7zm-2-2.5c0-.3 0-.7-.3-1a1.4 1.4 0 00-2 .1l-.4.9h2.7zM148.2 20.3c0 1.7-1 3.5-3.5 3.5-1.9 0-3.6-1-3.6-3.5 0-2 1.3-3.6 3.9-3.5 2.6.1 3.2 2.3 3.2 3.5zm-4.8-1.3c-.2.4-.3.8-.3 1.3 0 1 .5 2 1.6 2 1 0 1.6-.9 1.6-2 0-.7-.2-1.2-.6-1.6-.4-.4-.8-.4-1.1-.4-.6 0-.9.3-1.2.7z" id="Shape" />
      <path d="M149.8 16.3c0-.3 0-.7.3-1 .2-.4.8-.8 1.7-.8l1.2.2V16h-.5c-.7 0-.8.2-.8 1h1.3v1.2h-1.3v5.3h-1.9v-5.3h-1v-1.2h1v-.8zM85.4 28.9h6.8v1.7H90v7.2h-2.2v-7.2h-2.3z" id="Path" />
      <path d="M98.4 36.1l-.8 1c-.6.5-1.4 1-2.5 1-2 0-3.4-1.3-3.4-3.5 0-1.6.8-3.6 3.4-3.6.4 0 1.6 0 2.4 1 .9.9 1 2.1 1 2.9h-4.8c0 .8.5 1.6 1.5 1.6 1.1 0 1.5-.7 1.7-1.1l1.5.7zm-2-2.4c0-.3 0-.7-.3-1a1.4 1.4 0 00-2 .1l-.4.9h2.7z" id="Shape" />
      <path d="M105.4 36.2l-1 1.2c-.6.4-1.2.6-2 .6-1.2 0-3.3-.7-3.3-3.4 0-2 1.2-3.6 3.4-3.6.7 0 2 .2 2.8 1.6l-1.5.8c0-.2-.2-.4-.5-.7l-.8-.2c-1 0-1.4 1.2-1.4 2 0 .9.5 2 1.5 2 .1 0 .6 0 1-.5l.3-.5 1.5.7zM107.6 28.9v3c.3-.3.9-.9 2-.9.4 0 1 .2 1.3.5.6.5.7 1.1.7 2v4.3h-2v-3.5-1a1 1 0 00-1-.6 1 1 0 00-.7.4c-.3.3-.3.8-.3 1.4v3.3h-2v-9h2zM115.3 31.8c.2-.2.3-.4.6-.5.4-.2.8-.3 1.3-.3.3 0 .8.1 1.1.3.7.4.9 1 .9 2v4.5h-2v-3.7-1c-.2-.4-.5-.5-.9-.5-1 0-1 .8-1 1.6v3.6h-2v-6.6h2v.6z" id="Path" />
      <path d="M127.6 34.5c0 1.7-1 3.5-3.6 3.5-1.8 0-3.5-1-3.5-3.5 0-2 1.3-3.6 3.8-3.5 2.7.1 3.3 2.3 3.3 3.5zm-4.8-1.3c-.3.4-.3.8-.3 1.3 0 1 .5 2 1.5 2 1.1 0 1.6-.9 1.6-2 0-.7-.2-1.2-.5-1.6-.4-.4-.9-.4-1.2-.4-.5 0-.9.3-1.1.7z" id="Shape" />
      <path id="Path" d="M130.8 28.9v8.9h-2v-9z"/>
      <path d="M139.2 34.5c0 1.7-1 3.5-3.5 3.5-2 0-3.6-1-3.6-3.5 0-2 1.3-3.6 3.8-3.5 2.7.1 3.3 2.3 3.3 3.5zm-4.8-1.3c-.3.4-.3.8-.3 1.3 0 1 .5 2 1.6 2 1 0 1.5-.9 1.5-2 0-.7-.2-1.2-.5-1.6-.4-.4-.9-.4-1.2-.4-.5 0-.8.3-1.1.7zM144.5 37c-.4.2-.9.5-1.8.5-.5 0-1-.2-1.5-.4-.9-.6-1.2-1.6-1.2-2.8 0-1.3.6-3.2 2.8-3.2 1 0 1.5.4 1.8.7v-.6h1.8v6.3c0 .8 0 1.6-1 2.2-.7.4-1.7.5-2.3.5-1.3 0-2.1-.5-2.5-.9-.5-.5-.5-1.1-.5-1.5h2c0 .3 0 .7.6 1h.6c1.2 0 1.2-.6 1.2-1.2V37zm-2.5-2.7c0 .6 0 1.7 1.2 1.7 1 0 1.3-.8 1.3-1.7 0-.3 0-1-.3-1.3-.1-.2-.5-.5-1-.5-1 0-1.2.9-1.2 1.8z" id="Shape" />
      <path d="M153.6 31.2l-2.4 7.1c-.1.5-.2.9-.6 1.2-.4.5-.9.6-1.4.6h-1.4v-1.6h.7c.3 0 .8 0 .8-.5v-.4l-2-6.4h2l1.1 4.7 1.1-4.7h2z" id="Path" />
      <path id="Path" d="M38.9 37.8V12.4h7.8v25.4z"/>
    </g>
  </g>
</svg>