<svg viewBox="0 0 69 28"
    xmlns="http://www.w3.org/2000/svg">
    <g id="Page-1">
        <g id="NHS">
            <path d="M69.2 0v28H0V0h69.2zm-2.8 3.4a18 18 0 00-6.9-1c-4.9 0-10 1.8-10 7.6 0 6.3 8.8 5 8.8 8.6 0 2.3-2.9 2.7-4.8 2.7s-3.8-.4-5.5-1.3l-1.4 4.6a24 24 0 007 1.2c5.2 0 11-1.7 11-7.9 0-6.9-8.8-5.7-8.8-8.9 0-1.9 1.9-2.2 4.3-2.2a11 11 0 015 1zm-52.1-.7H6.8L2 25.2h5.6l3.1-15.6h.1l4.8 15.6H23l4.8-22.5h-5.7L19 18.3h-.1L14.3 2.7zm21.7 0h-6l-4.7 22.5h6l2-9.6h7.2l-2 9.6h6l4.7-22.5h-6l-1.8 8.6h-7.1L36 2.7z" id="Combined-Shape"/>
        </g>
    </g>
</svg>