<svg id="Layer_1" data-name="Layer 1" xmlns="http://www.w3.org/2000/svg" viewBox="0 0 500 79.83"><path d="M185.44,78.66V1.17h66.2v20h-33a4.8,4.8,0,0,0-4.8,4.8h0a4.8,4.8,0,0,0,4.8,4.81h33V49.49H218.3a4.45,4.45,0,0,0-4.45,4.45h0a4.45,4.45,0,0,0,4.45,4.45h33.34V78.66Z"/><path d="M409.86,78.66V54.54H395.27c-4.63,0-8.38-.66-8.38-7.1V1.17h-33.3V78.66Z"/><path d="M86.09,39.84c0,12.09-4.35,22.28-12.63,29.48-7.77,6.76-17.94,10.49-30.19,10.51-12,0-22.88-3.67-30.61-10.4C4.4,62.24,0,52.06,0,40S4.32,17.73,12.55,10.51C20.26,3.75,31.11,0,43.12,0,55.37,0,65.56,3.67,73.35,10.4,81.66,17.56,86.07,27.75,86.09,39.84Zm-30.5.07A12.55,12.55,0,1,0,43,52.46,12.55,12.55,0,0,0,55.59,39.91Z"/><path d="M500,39.84c0,12.09-4.34,22.28-12.63,29.48-7.77,6.76-17.94,10.49-30.19,10.51-12,0-22.88-3.67-30.61-10.4-8.26-7.19-12.64-17.37-12.66-29.44s4.32-22.26,12.56-29.48C434.17,3.75,445,0,457,0c12.25,0,22.43,3.67,30.23,10.4C495.58,17.56,500,27.75,500,39.84Zm-30.49.07A12.55,12.55,0,1,0,457,52.46,12.55,12.55,0,0,0,469.51,39.91Z"/><path d="M343.81,78.66H313.52c0-9.52-1.84-19.69-12-19.69h-3.75V78.66h-30.4V1.17h36.84c16.57,0,35.58,2.88,35.58,25.29,0,8.64-3.89,14.43-12.21,19.35-1.44.86-1,2.22,0,2.49C338.37,51.06,343.81,59.87,343.81,78.66ZM301.54,18.82a9.85,9.85,0,1,0,9.85,9.84A9.85,9.85,0,0,0,301.54,18.82Z"/><path d="M173.7,53.52c0,8.57-3,15.08-8.91,19.32-5.36,3.84-13.1,5.8-23,5.82H97.5V1.17h42.8c9.83,0,16.68,1.25,21.57,4,6,3.38,9,8.94,9,17A20.31,20.31,0,0,1,166.17,35a2.16,2.16,0,0,0,.28,3h0A20.25,20.25,0,0,1,173.7,53.52ZM133.51,18.31a8.84,8.84,0,1,0,8.84,8.84A8.84,8.84,0,0,0,133.51,18.31Zm0,26a8.84,8.84,0,1,0,8.84,8.84A8.84,8.84,0,0,0,133.51,44.31Z"/></svg>