<svg viewBox="0 0 980 240"
  xmlns="http://www.w3.org/2000/svg">
  <g id="Page-1" stroke-width="1" fill-rule="evenodd">
    <g id="oberlo-logo-color">
      <path d="M204 0a36 36 0 0136 36v168a36 36 0 01-36 36H36a36 36 0 01-36-36V36A36 36 0 0136 0h168zm-34 68H99a36 36 0 00-25.5 10.5l-28.8 28.8a18 18 0 000 25.4l28.8 28.8A36 36 0 0098.8 172H170c10 0 18-8 18-18V86c0-10-8-18-18-18zm-72 34a18 18 0 110 36 18 18 0 010-36z" id="Combined-Shape" />
      <path d="M920 80a60 60 0 100 120 60 60 0 000-120zm0 96a36 36 0 110-72 36 36 0 010 72zM528 80c-14 0-27.6 5.3-38 14.7V42h-24v156h24v-12.7a56.6 56.6 0 0038 14.7 59 59 0 0058-60 59 59 0 00-58-60zm-2 96a36 36 0 110-72 36 36 0 010 72z" id="Shape" />
      <path id="Rectangle" d="M818 42h24v156h-24z"/>
      <path d="M762 82h-24v116h24v-58a36 36 0 0136-36h2V80c-14 0-27.6 5.3-38 14.7V82z" id="Path" />
      <path d="M660 80a60 60 0 1054 86H685a36 36 0 01-59.5-16h93.8A60 60 0 00660 80zm-34.6 50a36 36 0 0169.2 0h-69.2zM368 40a80 80 0 100 160 80 80 0 000-160zm0 134a54 54 0 110-108 54 54 0 010 108z" id="Shape" />
    </g>
  </g>
</svg>