<svg xmlns="http://www.w3.org/2000/svg" viewBox="0 0 200 53.06"><title>arrow-sketch-2</title><g id="Layer_2" data-name="Layer 2"><g id="Layer_1-2" data-name="Layer 1"><path d="M31.913,17.941c9.312,0,18.641-.364,27.931.084,14.775.712,29.558.618,44.335.965,15.966.375,31.863,1.66,47.781,2.727a7.8,7.8,0,0,0,1.49.075c.419-.054,1.1-.227,1.162-.476.158-.614-.519-.74-.954-.9-5.151-1.875-10.406-3.506-15.435-5.661-4.252-1.822-8.843-2.942-12.671-5.717a19.037,19.037,0,0,1-2.083-1.36c-1.408-1.348-2.189-3.02-1.458-4.955A4.316,4.316,0,0,1,126.379,0,16.013,16.013,0,0,1,129.8.528c9.439,2.018,18.454,5.449,27.56,8.523,11.62,3.923,23.039,8.44,34.638,12.431,3.906,1.345,5.879,4.2,7.5,7.5a4.876,4.876,0,0,1-2.6,6.662c-2.575,1.138-5.294,1.946-7.928,2.956-10.249,3.932-20.926,6.409-31.475,9.329-6.417,1.776-12.927,3.093-19.44,4.428a23.494,23.494,0,0,1-5.424.7c-3.235-.1-4.351-.8-4.93-3.132a5.528,5.528,0,0,1,2.631-6.422,48.216,48.216,0,0,1,6.935-2.712c4.74-1.534,9.8-1.532,14.584-3.008,3.152-.972,6.471-1.4,9.713-2.084.429-.09,1.046-.092.879-.778a1.043,1.043,0,0,0-.7-.584,15.234,15.234,0,0,0-2.469-.317c-14.115-.512-28.125-2.346-42.2-3.359-10.756-.774-21.527-1.325-32.288-2.031C73.851,27.91,62.91,27.372,52,26.244c-8.263-.855-16.58-1.18-24.853-1.947-7.769-.719-15.57-1.351-23.165-3.271-1.562-.395-4.421-.144-3.93-2.639.359-1.827,2.871-.911,4.412-.923,9.148-.07,18.3-.035,27.446-.035Z"/></g></g></svg>