<svg xmlns="http://www.w3.org/2000/svg" viewBox="0 0 200 34.388"><title>arrow-sketch-4</title><g id="Layer_2" data-name="Layer 2"><g id="Layer_1-2" data-name="Layer 1"><path d="M97.847,8.928c15.974.327,31.95.835,47.873,2.215,8.029.7,16,2.051,24.013,2.957a4.75,4.75,0,0,1,4.491,3.953,3.308,3.308,0,0,1-2.524,4.226,8.812,8.812,0,0,1-2.978.38c-12.072-.77-24.161-1.361-36.205-2.45a582.269,582.269,0,0,0-76.1-1.509c-6.051.245-12.112.221-18.164.45-11.092.42-22.147,1.145-32.9,4.272C2.42,24.274.906,23.466.2,21.06a3.861,3.861,0,0,1,2.805-5.1,90.386,90.386,0,0,1,10.361-2.069A461.943,461.943,0,0,1,97.847,8.928Zm-12.136,4.3v.115c-4.015,0-8.035-.1-12.046.033-3.339.114-6.669.5-10,.791-.664.058-1.318.219-1.977.333.749.1,1.495.234,2.246.281.834.053,1.675,0,2.51.034,10.894.47,21.738-.735,32.611-.989a9.023,9.023,0,0,0,1.691-.367,17.939,17.939,0,0,0-1.978-.22C94.416,13.218,90.063,13.227,85.711,13.227ZM186.127,31.522a45.057,45.057,0,0,0,11.4-5.272c2.9-1.858,3.236-4.019,1.076-6.731a20.4,20.4,0,0,0-3.953-3.857q-9.8-7.037-19.765-13.849A16.835,16.835,0,0,0,171.234.179a2.308,2.308,0,0,0-2.726.712,2.663,2.663,0,0,0-.283,3.27,7.594,7.594,0,0,0,1.254,1.546,48.149,48.149,0,0,0,9.652,8.039c3.38,1.962,6.069,4.755,9.126,7.1,1.405,1.076.489,1.649-.5,2.043-1.86.741-3.75,1.416-5.653,2.037-3.219,1.052-6.3,2.322-8.7,4.835a3.028,3.028,0,0,0-.849,3.224,2.042,2.042,0,0,0,2.063,1.4C179.275,34.364,182.607,32.573,186.127,31.522Z"/></g></g></svg>