<svg xmlns="http://www.w3.org/2000/svg" viewBox="0 0 200 35.705"><title>arrow-sketch-3</title><g id="Layer_2" data-name="Layer 2"><g id="Layer_1-2" data-name="Layer 1"><path d="M6.191,18.465a8.842,8.842,0,0,1-4.012-.932C.809,16.756-.355,15.5.1,13.841A3.328,3.328,0,0,1,3.389,11.1c1.075.012,2.156.034,3.224.144,1.526.157,3.038.539,4.563.58,10.113.276,20.227.54,30.342.7,10.13.163,20.263.16,30.393.3,15.964.226,31.925.625,47.889.745,16.456.123,32.895.43,49.277,2.136,2.291.238,4.57.6,6.845.97,1.088.174,2.36.588,2.351,1.808-.011,1.554-1.5,1.222-2.489,1.215-3.533-.024-7.066-.138-10.6-.214-24.292-.523-48.583-.105-72.873.154-8.438.09-16.9.74-25.3.307-8.306-.427-16.6.107-23.162-.365C30.131,19.67,18.162,19.028,6.191,18.465ZM170.315.017a1.569,1.569,0,0,0-1.1,2.14,9.632,9.632,0,0,0,4.1,5.405,70.115,70.115,0,0,0,11.3,6.216c2.513,1.107,5.154,1.948,7.4,3.606-1.719,2.483-4.651,3.219-7,4.79-2.938,1.967-6.087,3.615-9.082,5.5a36.492,36.492,0,0,0-4.445,3.294c-1.955,1.7-2.6,3.457-1.656,4.247,1.356,1.132,2.67.007,3.843-.462a134.769,134.769,0,0,0,23.813-12.1c3.122-2.037,3.278-3.914.811-6.758a15.355,15.355,0,0,0-4.38-3.355Q182.964,6.608,172.006.684C171.475.4,171.047-.1,170.315.017Z"/></g></g></svg>