<svg xmlns="http://www.w3.org/2000/svg" viewBox="0 0 200 66.11"><title>arrow-sketch-1</title><g id="Layer_2" data-name="Layer 2"><g id="Layer_1-2" data-name="Layer 1"><path d="M17.321,13.589c14.425.218,28.84.454,43.2,2.194,5.572.675,11.308.1,16.849.911,9.96,1.458,20.008,1.136,29.987,2.156,12.048,1.231,24.212,1.392,36.231,2.814q15.251,1.8,30.528,3.2c.575.052,1.336.362,1.481-.332a2.032,2.032,0,0,0-.733-1.6c-5.895-4.7-11.833-9.348-17.761-14.008-1.648-1.3-3.309-2.575-4.942-3.889-1.336-1.077-2.819-2.33-1.58-4.156,1.038-1.529,2.71-.734,4.006-.114a77.753,77.753,0,0,1,8.94,4.611c10.162,6.609,21.008,12.128,30.6,19.662,7.51,5.9,8.031,9.448.346,15.058a256.427,256.427,0,0,1-39.008,24.023,33.781,33.781,0,0,1-4.052,1.7c-1.735.578-3.33.354-4.39-1.37-.97-1.578-.134-3,.835-3.989a48.006,48.006,0,0,1,7.424-6.744c6.955-4.619,14.146-8.882,21.236-13.3,1.244-.775,2.457-1.6,3.687-2.4.7-.454,1.787-.972,1.468-1.779-.3-.769-1.423-.321-2.222-.2-16.642,2.448-33.35,2.68-50.147,2.152-17.6-.553-35.018-2.948-52.543-4.216-12.491-.9-24.912-3.058-37.307-5.164-7.4-1.257-14.929-2.018-22.4-3.015A81.982,81.982,0,0,1,5.99,23.464a18.309,18.309,0,0,1-4-1.764A3.7,3.7,0,0,1,.011,18.037a3.687,3.687,0,0,1,3-3.6c3.264-.619,6.507-1.63,9.924-1.123C14.378,13.524,15.858,13.5,17.321,13.589Z"/></g></g></svg>