<svg xmlns="http://www.w3.org/2000/svg" viewBox="0 0 418.593 405.434"><title>bear-bird</title><g id="Layer_2" data-name="Layer 2"><g id="Layer_1-2" data-name="Layer 1"><path d="M37.739,294.421A85.453,85.453,0,0,0,30.918,275.5c-4.954-10.091-7.224-20.867-8.768-31.865a213.237,213.237,0,0,1-2.042-24.394,67.787,67.787,0,0,0-1.86-14.548c-.667-2.712-.273-5.086,2.237-6.688,2.107-1.345,4.911-.8,7.28,1.742a134.68,134.68,0,0,1,12.952,16.795c.662.984.772,2.51,2.4,2.626-.117.426-.483.987.455.84l-.58-.744c-.729-7.58-1.48-15.157-2.18-22.74a134.124,134.124,0,0,1-.315-26.619c.612-5.754.224-11.614.3-17.425a8.78,8.78,0,0,1,.2-2.7,3.353,3.353,0,0,1,5.7-1.291,16.829,16.829,0,0,1,2.329,3.013c4.056,6.482,7.577,13.182,9.635,20.64,2.949,10.683,5.061,21.54,7.5,32.33,2.64,11.652,5.122,23.371,8.343,34.895,2.3,8.213,4.823,16.368,5.838,24.88.078.652.12,1.307.179,1.961.09-.714.136-1.436.278-2.139a57.405,57.405,0,0,0,.644-10.292c.273-13.428.786-26.852,1.2-40.278.166-5.434-.332-10.881.333-16.308.147-1.2-.989-1.8-1.421-2.581a10.814,10.814,0,0,1-.787-6.37c.649-5.613-.122-11.21-.211-16.806-.125-7.744-1.68-15.413-.841-23.223.36-3.348-.557-6.87-1.075-10.237-.656-4.276.025-8.325.8-12.351a15.081,15.081,0,0,0-.442-7.944A53.1,53.1,0,0,1,76.182,96.83c.9-11.4,6.235-20.693,14-28.769,1.761-1.831,3.638-3.549,5.4-5.379,3.753-3.9,8.5-5.347,13.718-5.73a9.3,9.3,0,0,1,7.117,2.123c8.666,7.583,16.684,15.645,20.181,27.1,1.02,3.341,1.342,3.645,3.979,2.991,10.969-2.721,22.242-3.313,33.367-4.932,1.976-.288,3.982-.977,5.919-.816,7.792.646,11.681-4.577,15.558-9.922a4.376,4.376,0,0,0,1.156-2.983c-.475-4.77.823-9.362,1.34-14.034.335-3.033-.014-3.731-2.98-3.783-2.456-.043-3.583-1.3-4.762-2.958A27.356,27.356,0,0,1,185.692,37.6c-.679-4.564-.752-4.57-5.239-5.581-1.415-.32-2.884-.435-4.268-.846a12.05,12.05,0,0,1-3.447-1.554c-1.392-.974-2.388-2.416-1.734-4.193.536-1.455,1.893-1.731,3.425-2.128,6.532-1.689,12.646-4.238,16.747-10.088s9.534-7.49,16.536-5.075a23.5,23.5,0,0,1,7.905,4.719,42.1,42.1,0,0,0,19.8,9.6c9.571,2.024,19.046,4.486,28.761,5.8a7.84,7.84,0,0,1,1.078.156c2.226.63,2.646,1.941,1,3.47a40.178,40.178,0,0,1-7.691,5.123c-.6.341-1.485.631-1.138,1.538.123.32.864.446,1.345.579a33.434,33.434,0,0,1,3.665.97c2.829,1.149,3,2.709.613,4.766a18.038,18.038,0,0,1-5.2,2.937c-3.034,1.212-6.153,2.228-9.118,3.585-1.9.868-3.8,1.5-5.767.963a5.837,5.837,0,0,0-3.693.334c-2.921,1.048-3.464,2.018-3.226,5.221a9.019,9.019,0,0,1,.148,2.169c-1.506,8.3,3.905,13.942,7.693,20.206,1.194,1.974,3.292,2.081,5.255,2.369,3.95.581,7.92,1.027,11.86,1.668A63.655,63.655,0,0,1,277.477,89.8c2.752,1.273,2.682,1.113,3.811-1.51,4.924-11.438,13-19.487,25.14-23.094a55.225,55.225,0,0,1,10.681-1.944,11.975,11.975,0,0,1,9.524,3.058c6.339,5.608,12.01,11.753,13.323,20.557,1.049,7.026,1.377,14.044-1,20.992-3.66,10.694-5.337,21.825-6.77,32.992a21.567,21.567,0,0,0,.317,7.574,81.145,81.145,0,0,1,2,25.907c-.428,4.338.129,8.726.4,13.021.83,13.084.413,26.157.432,39.23.01,6.909.541,13.784.692,20.679a7.837,7.837,0,0,0,.614,2.027c.863-.278.785-1.058.908-1.721,1.388-7.48,2.49-15,4.207-22.434,3.208-13.886,8.779-26.845,14.831-39.64a26.67,26.67,0,0,1,6.8-9.1c3.252-2.755,5.921-2.361,7.937,1.38,2.568,4.764,2.891,10.1,3.222,15.327.506,7.984-.536,15.947-.775,23.923-.3,9.813-1.9,19.453-3.327,29.124a3.249,3.249,0,0,0,.3,2.6,11.354,11.354,0,0,0,1.638-2.145c1.687-3.82,3.558-7.538,5.548-11.212,3.993-7.371,9.751-13.072,16.489-17.857,5.649-4.012,7.441-3.15,8.258,3.643a26.232,26.232,0,0,1-1.073,9.7c-5.838,22.676-12.27,45.171-21.05,66.927-2.12,5.252-5.233,9.953-7.955,14.873-.791,1.43-1.659,2.818-2.405,4.27-.284.554-1.187,1.3-.211,1.809.446.233,1.434-.136,1.943-.532,5.029-3.906,10.324-7.415,15.706-10.807A40.014,40.014,0,0,1,409.8,300.96a22.289,22.289,0,0,1,4.868.51c3.55.842,4.639,2.967,3.47,6.462a18.422,18.422,0,0,1-3.356,6.189,130.445,130.445,0,0,1-26.5,24.108c-7.275,4.894-15.44,7.053-24.146,7.39q-4.627.18-9.245.564a4.791,4.791,0,0,0-4.261,2.838c-7.933,16.041-21.484,25.4-37.528,32.156-18.148,7.635-37.061,12.456-56.065,17.316-17.232,4.407-34.718,5.78-52.26,6.689a176.015,176.015,0,0,1-42.217-2.783,135.3,135.3,0,0,1-25.577-7.29c-6.716-2.713-13.915-4.153-20.421-7.439A118.81,118.81,0,0,1,97.12,375.786c-3.725-2.884-7.676-5.477-11.558-8.154a26.341,26.341,0,0,1-10.727-13.954c-1.05-3.383-2.834-5.2-6.411-5.275-3.682-.072-7.073-1.551-10.466-2.684A173.6,173.6,0,0,1,41.8,339.28a31.035,31.035,0,0,1-8.912-6.19C20.505,320.959,9.365,307.863,1.579,292.2a18.172,18.172,0,0,1-1.006-1.93c-1.811-5.137.791-8.46,6.108-7.471a77.577,77.577,0,0,1,27.84,10.469c1.008.641,1.859,1.9,3.357,1.1l-.262.4C38.331,294.637,37.5,295.107,37.739,294.421Zm30.536-11.036a13.573,13.573,0,0,0-.088,2.136c.032.32-.407,1.177.564.925.117-.031.179-.663.1-.974-.172-.671-.452-1.314-.689-1.968q-.416-2.319-.832-4.637c-3.468-10.115-4.98-20.751-8.4-30.906a33.587,33.587,0,0,1-.71-19.828c.14-.51.3-1.015.452-1.523a10.588,10.588,0,0,1,.4,1.381c.271,1.79.11,3.761.818,5.349,2.964,6.653,3.923,13.953,6.908,20.6a34.084,34.084,0,0,1,2.273,8.935c.487,3.221,1.2,6.41,1.875,9.6.1.47.356,1.2,1.01,1.053.252-.057.506-.843.48-1.28-.367-6.329-.321-12.71-1.9-18.907-3.62-14.213-5.652-28.81-10.415-42.752a50.381,50.381,0,0,1-1.917-8.469c-1.67-10.639-5.656-20.608-8.776-30.827-.193-.631-.375-1.566-1.356-1.183-.331.13-.582.852-.608,1.318a201.539,201.539,0,0,0,.16,27.165c.909,11.394,2.673,22.669,4.334,33.959.79,5.367,1.352,10.76,2.9,16.027,2.872,9.772,6.9,19.08,10.716,28.483.376.928.794,1.585,1.826,1.7C67.15,280.4,66.247,282.172,68.275,283.385ZM108.4,110.366c-6.021,1.1-10.741,4.837-15.79,7.877a7.99,7.99,0,0,0-1.986,2.526c-5.485,8.156-4.111,17.335-3.905,26.34.012.512.2.712.632.552a.761.761,0,0,0,.405-.3,10.611,10.611,0,0,0,.895-1.944,77.778,77.778,0,0,1,17.412-31.546c.95-1.073,2.036-2.078,2.218-3.628l.315-.2Zm266.168,226.78c2.484.5,4.6-.576,6.722-1.592,11.124-5.335,20.077-13.47,28.527-22.233a15.363,15.363,0,0,0,2.122-3.124c.471-.829-.015-1.455-.867-1.441a14.377,14.377,0,0,0-3.737.447,55.458,55.458,0,0,0-13.972,5.787c-7.057,4.383-13.969,9-20.956,13.494-.48.309-1.039.62-.9,1.191.149.629.8.432,1.311.409a42.542,42.542,0,0,1,5.942-.169,11.135,11.135,0,0,0,8.159-2.122c.424-.318.836-1.418,1.617-.543.128.143-.344.932-.652,1.337-2.265,2.982-5.419,4.706-8.753,6.2-1.551.7-3.593.55-4.474,2.47-1.227-.51-2.4-.078-3.567.243-.281.077-.158.552.269.557C372.5,338.072,373.835,338.612,374.568,337.146Zm-317.682-9.67.277.035-.4.076c.336-1.733-1.082-2.632-1.956-3.639q-5.886-6.786-12.027-13.349a64.357,64.357,0,0,0-11.714-9.711c-5.822-3.826-12.346-6.006-18.871-8.195-.867-.291-1.981-.564-2.536.225-.545.773.239,1.69.615,2.466a44.023,44.023,0,0,0,5.709,8.6c6.248,7.632,13.6,14.092,21.216,20.293a29.7,29.7,0,0,0,9.614,4.974c.466.155,1.319.183,1.515-.083.561-.76-.21-1.222-.744-1.584-4.535-3.08-8.807-6.475-11.769-11.156-.765-1.21-2.307-2.3-1.753-4.142,1.426.663,3.085.818,4.277,2,.516.51,1.113.939,1.622,1.455C44.871,320.7,50.891,324.07,56.886,327.476ZM326.6,177.122c.029-.358.253-.2.1-.033-.474.539.428.231-.219-.1a14.424,14.424,0,0,1,.127-1.628c1.91-10.226.472-20.214-2.066-30.138a17.2,17.2,0,0,0-1.724-3.977c-2.436-4.464-4.7-9.028-7.33-13.376-2.712-4.49-4.957-9.545-9.4-12.559a85.175,85.175,0,0,0-14.552-8.457c-1.334-.562-2.7-1.044-4.076-1.506a1.124,1.124,0,0,0-.956.132.973.973,0,0,0-.106.924c2.214,3.743,4.246,7.619,6.756,11.154,5.256,7.4,10.864,14.553,16.146,21.936,4.637,6.481,9.517,12.79,12.464,20.379C323.951,165.5,324.9,171.4,326.6,177.122Zm55.67,76.258.109-.12a148.417,148.417,0,0,1-4.359,20.1c-3.074,9.828-5.66,19.8-7.969,29.835l-.132-.09c1.784-.072,2.21-1.673,2.883-2.8a144.122,144.122,0,0,0,12.987-29.261c3.469-10.54,4.961-21.518,7.179-32.331.867-4.23,1.093-8.591,1.588-12.9.058-.512.154-1.362-.088-1.5-.717-.415-1.315.225-1.812.687a42.043,42.043,0,0,0-9.191,13.373c-9.772,20.879-16.956,42.8-25.8,64.049a4.577,4.577,0,0,0-.242,3.178l-.359.1h.238c6.566-10.062,11.552-20.905,16.188-31.962C376.344,266.934,378.458,259.785,382.269,253.38ZM221.538,24.937c-2.727-3.9-6.442-6.748-10.366-9.275a16.45,16.45,0,0,0-5.545-2.13c-5.1-1.037-8.166.531-10.7,5.067-4.4,7.889-3.284,16.044-1.25,24.269.676,2.738,2.293,4.085,5.033,4.938,10.908,3.4,21.8,2.758,32.7.3,5.982-1.346,8.215-3.955,9.033-9.943,1.106-8.1.937-8.06-7.054-10.2-3.979-1.068-8.233-1-11.982-2.95L221.8,25ZM70.308,319.4l.44.828-.529-.7c.2-2.272-.911-4.231-1.554-6.287-2.541-8.135-5.263-16.214-7.727-24.371a107.637,107.637,0,0,0-7.983-20.2,63.485,63.485,0,0,1-4.664-11.6c-3.519-11.49-8.822-22.226-13.964-33.028a43.233,43.233,0,0,0-2.784-4.67c-.259-.4-.789-.942-1.152-.911-1.024.086-.792,1.087-.767,1.692.242,5.789.405,11.587.877,17.359.933,11.413,2.627,22.668,7.034,33.382a135.421,135.421,0,0,1,6.805,21.786,34.367,34.367,0,0,0,3.9,10.124c3.725,6.213,7.6,12.338,11.909,18.174l.321-.047-.428.165a3.837,3.837,0,0,0-.224-3.635c-1.205-2.624-2.433-5.239-3.706-7.831-4.542-9.258-6.38-19.108-6.482-29.343-.009-.929.112-2.01,1.215-2.08,1.018-.065,1.45.963,1.626,1.837.213,1.058.194,2.161.344,3.235a40.023,40.023,0,0,0,4.472,14.43C61.46,305.04,65.952,312.183,70.308,319.4ZM156.751,98.576c-4.557-1.279-8.952.039-13.375.851-1.16.213-1.744,1.207-2.507,1.976a325.086,325.086,0,0,0-25.4,29.113,206.707,206.707,0,0,0-24.06,38.744,11.3,11.3,0,0,0-1.341,6.819q2.189,13.395,4.377,26.792a4.931,4.931,0,0,0,.583,1.508,3.745,3.745,0,0,0,.738.752,2.908,2.908,0,0,0,.426-.822,72.825,72.825,0,0,1,4.679-15.595c3.992-10.121,7.575-20.467,14.233-29.267,3.609-4.77,7.586-9.26,11.333-13.928,2.088-2.6,2.028-2.649-.456-4.508-3.765-2.816-3.572-5.062.632-6.958a8.693,8.693,0,0,1,2.586-.813c4.5-.472,6.819-3.105,8.609-7.172,4.544-10.325,9.979-20.153,18.841-27.578l-.173-.212ZM194.1,394.145c22.463-1.06,44.84-2.6,66.9-7.832,19.569-4.645,38.286-11.193,55.812-21.035A26.812,26.812,0,0,0,328.1,353.809a45.807,45.807,0,0,0,4.364-23.828c-1.1-11.931-1.614-23.89-2.394-35.834-.674-10.31-1-20.629-4.088-30.612-.695-2.246-.95-4.628-1.635-6.878-.736-2.417-2.955-3.013-5.1-3.52a3.934,3.934,0,0,0-4.605,2.032c-4.151,6.822-8.993,13.17-13.5,19.747a49.976,49.976,0,0,1-10.537,11.606c-13.969,10.791-29.525,17.442-47.375,18.023-4.146.136-8.309-.045-12.443.237-9.886.674-19.786.957-29.677,1.408-12.4.567-24.6-.091-36.6-3.147-10.9-2.775-21.656-6.07-30.754-13.112-3.156-2.442-6.1-5.155-9.248-7.608-9.4-7.331-17.924-15.344-22.349-26.846-.825-2.145-2.741-2.7-4.955-1.912-2.44.869-3.652,2.812-4.285,5.237-1.236,4.741-2.485,9.48-3.815,14.2a30.414,30.414,0,0,0-1.324,6.909q-1.248,26.656-2.711,53.3A29.991,29.991,0,0,0,85.5,340.8c.972,4.8,2.312,9.53,3.153,14.349a7.858,7.858,0,0,0,4.293,5.92c8.367,4.407,15.736,10.413,24.069,14.862a79.043,79.043,0,0,0,16.727,6.317c1.479.4,2.031-.062,2-1.435a14.287,14.287,0,0,0-.326-3.247,20.1,20.1,0,0,1-1.038-6.957,6.314,6.314,0,0,1,.538-1.492,4.963,4.963,0,0,1,.885,1.237,30.373,30.373,0,0,1,.939,9.714c-.036,2.329.817,3.8,3,4.577,4.1,1.455,8.081,3.5,12.3,4.326C165.919,391.682,179.734,395.134,194.1,394.145Zm-62.744-143.3c0,3.631-.1,7.265.017,10.892.483,15.216,11.5,21.371,24.986,24.094a3.925,3.925,0,0,0,1.611-.194c12.233-2.98,24.758-3.328,37.214-4.544,13.337-1.3,26,.824,38.64,4.337,5.76,1.6,11.424,3.536,17.328,4.615,6.6,1.206,11.33-.992,14.018-7.065a64.149,64.149,0,0,0,5.66-23.119c.218-4.852.9-9.657.494-14.612-.74-9.131-3.24-17.795-5.5-26.562a50.7,50.7,0,0,0-4.131-11.2,45.953,45.953,0,0,1-4.1-11.2c-1.11-4.761-1.839-9.63-3.676-14.2a111.678,111.678,0,0,1-4.129-14.067c-1.573-6.129-3.987-11.894-8.421-16.791-2.879-3.18-5.953-6.478-7.558-10.571-1.53-3.9-2.854-7.843-5.656-11.073-.916-1.056-.843-2,.59-2.447,2.3-.726,1.632-1.816.5-3.077-3.76-4.174-7.493-8.371-11.253-12.544a11.12,11.12,0,0,0-3.613-2.364c-11.689-5.679-27.842,2.029-32.7,11.3-3.854,7.359-4.78,6.893,1.2,13.777a8.3,8.3,0,0,1,1.58,2.175c.546,1.364.746,2.707-.58,3.971-5.864,5.588-10.828,12.358-19.449,14.207a4.994,4.994,0,0,0-3.675,2.932c-4.695,10.4-11,20.03-14.523,30.994a98.692,98.692,0,0,1-3.975,9.529C134.828,214.861,130.868,232.4,131.354,250.844ZM235.473,92.789c-2.842,0-4.476-.039-6.106.025a4.732,4.732,0,0,0-1.38.517c.3.405.5,1,.9,1.187,5.837,2.711,10.618,6.953,15.648,10.815,3.619,2.778,7.085,5.886,8.786,10.219,1.294,3.3,3.024,5.633,6.671,6.209a6.231,6.231,0,0,1,2.02.8c6.647,3.771,13.417,7.406,16.187,15.3a10.575,10.575,0,0,0,3.617,4.693c1.842,1.464,1.147,2.345-.7,2.923-4.195,1.309-6.829,4.681-9.9,7.478a1.658,1.658,0,0,0-.294,2.364c2.364,4.08,4.481,8.309,6.967,12.311,8.692,13.992,15.245,28.823,18.212,45.117a21.608,21.608,0,0,0,.7,2.621c2.371,7.493,3.868,15.109,3.246,23.02-.468,5.964-.977,11.925-1.44,17.89a6.859,6.859,0,0,0,.21,1.493c.477-.205,1.129-.278,1.4-.638a37.086,37.086,0,0,0,3.4-4.926c2.851-5.409,6.47-10.367,7.2-16.861.681-6.075-.159-11.893-.713-17.851-1.125-12.109-1.926-24.228-6.48-35.7a14.5,14.5,0,0,1-1.049-4.219c-.6-8.329-3.636-15.778-7.476-23.105-2.545-4.857-5.138-9.548-8.848-13.623a39.552,39.552,0,0,1-4.438-6.181c-1.5-2.475-2.49-5.279-4.125-7.648-6.8-9.859-13.79-19.594-20.652-29.413a5.748,5.748,0,0,0-4.417-2.7C246.5,94.247,240.4,93.41,235.473,92.789Zm58.482,153.417a144.957,144.957,0,0,0-.907-16.264c-.775-7.254-2.778-14.232-4.308-21.285-2.879-13.279-6.782-26.32-13.633-38.236a58.009,58.009,0,0,1-3.985-9.512c-.549-1.529-1.178-3.034-1.856-4.51-.408-.887-1.252-1.579-2.173-1.073-4.372,2.4-9.064,2.242-13.8,1.977-1.389-.078-1.961.627-1.618,2.021,1.845,7.511,3.344,15.121,6.2,22.349A64.376,64.376,0,0,1,261.237,192a41.278,41.278,0,0,0,4.54,12.757c5.557,9.342,7.423,20,10.383,30.209,2.753,9.494,2.106,19.39.765,29.159a120.049,120.049,0,0,1-3.163,16.515c-.183.644-.716,1.473.08,1.97.663.413,1.332-.142,1.969-.474a55.578,55.578,0,0,0,11.031-7.869,18.4,18.4,0,0,0,5.964-11.241C293.816,257.252,293.436,251.436,293.955,246.206Zm-181.25-1.97c.282,9.456,4.657,16.783,11.994,22.545.55.432,1.215.967,1.84.406.29-.259.25-1.044.154-1.552-.956-5.034-.6-10.125-.667-15.193-.178-13.386,2.583-26.258,6.738-38.917,2.594-7.905,6.909-15.2,8.273-23.537a7.313,7.313,0,0,1,.813-2.006c2.686-5.338,5.152-10.775,8.346-15.867,2.5-3.982,4.431-8.314,6.677-12.457.933-1.719.22-2.23-1.416-2.387-3.767-.361-7.61.01-11.279-1.327-1.21-.44-2.053.387-2.587,1.438-3.7,7.271-8.45,13.983-11.416,21.639-6.033,15.575-11.328,31.366-14.206,47.88C114.85,231.317,112.564,237.538,112.705,244.236ZM324.276,191.87c-.2-1.466-.344-2.541-.506-3.611a157.943,157.943,0,0,0-5.953-23.7,41.733,41.733,0,0,0-6.108-12.079c-4.365-6.009-9-11.861-12.884-18.171-5.207-8.456-11.178-16.541-14.285-26.168a12.692,12.692,0,0,0-1.619-2.829,6.285,6.285,0,0,0-2.73-2.572c-5.329-2.279-10.624-4.652-16.307-5.956a24.934,24.934,0,0,0-3.721-.685c-.894-.065-1.3.592-.805,1.408a23.179,23.179,0,0,0,1.672,2.133c8.6,10.971,18.447,20.981,25.607,33.076a15.306,15.306,0,0,0,2.811,3.308c7.917,7.348,12.215,16.983,16.776,26.445a37.168,37.168,0,0,1,3.107,11.507,84.589,84.589,0,0,0,2.758,12.746,29.827,29.827,0,0,1,1.328,6.36c.421,6.688,1.514,13.34,1.184,20.072a38.469,38.469,0,0,0,.885,8.646c.136.764-.124,1.728.774,2.253a16.332,16.332,0,0,0,.8-1.933c1.736-6.28,3.563-12.538,5.115-18.863C323.125,199.4,323.633,195.44,324.276,191.87Zm-75.3-73.718a5.387,5.387,0,0,0-1.58-2.885c-4.886-6.41-11.083-11.517-17.268-16.52-3.437-2.78-7.34-5.588-12.077-5.828A186.483,186.483,0,0,0,188.8,94.1c-1.563.168-3.211.313-4.417,1.749-3.5,4.165-7.9,7.488-11.073,11.973-1.777,2.512-3.716,4.913-5.654,7.306-1.133,1.4-3.375,2.71-2.979,4.279.392,1.551,3.012,1.413,4.675,1.877,2.073.579,3.8,3.43,5.577,2.473,1.841-.991,2.781-3.66,4.111-5.6.513-.749,1-1.515,1.521-2.259,4.8-6.863,11.327-11.4,19.489-12.894,8.773-1.61,16.992-.55,22.91,7.428,3.24,4.367,7.634,7.783,10.619,12.387.985,1.52,2.228,1.989,3.574.715a15.809,15.809,0,0,1,9.808-4.149C247.717,119.314,248.85,119.323,248.98,118.152ZM99.417,220.434a12.377,12.377,0,0,0,.315,2.191,152.787,152.787,0,0,0,8.669,19.9,1.051,1.051,0,0,0,1.32.617c.183-.067.3-.565.3-.866-.027-6.368,1.186-12.613,1.868-18.91.819-7.562,1.458-15.158,2.679-22.658,1.675-10.287,6.111-19.649,10.427-29.051a41.1,41.1,0,0,1,9.148-13.29c6.854-6.43,6.751-6.54-.713-12.358-3.11-2.423-3.058-2.386-5.277.743a161.082,161.082,0,0,0-21.327,42.593c-3.176,9.515-4.725,19.327-7.138,28.972A16.947,16.947,0,0,0,99.417,220.434Zm270.8-22.652c.019-4.493.346-7.786-1.029-10.894-.142-.322-.476-.881-.56-.853-.48.161-1.181.369-1.315.739-1.234,3.408-2.2,6.918-3.558,10.275-7.44,18.441-11.716,37.713-15.451,57.163-3.046,15.863-5.186,31.849-7.259,47.85a23.39,23.39,0,0,0,.072,4.875,1.579,1.579,0,0,0,1.007,1.1c.676.128.632-.615.695-1.082.728-5.378,1.674-10.738,2.118-16.14,1.161-14.1,3.8-27.944,6.905-41.715a42.528,42.528,0,0,1,3.887-10.718c.241-.453.528-.88.794-1.319.56.38.415.955.388,1.481a232.083,232.083,0,0,1-2.614,23.776c-.724,4.657-1.026,9.383-1.427,14.086a13.785,13.785,0,0,0,.379,2.952c.261-.844.517-1.689.783-2.531,4.313-13.679,7.5-27.654,11-41.549C368.238,222.543,369.071,209.537,370.216,197.782ZM85.2,107.451c0,1.706-.592,3.089.467,3.668s1.85-.779,2.784-1.231c.483-.234.857-.716,1.349-.906,5.1-1.971,7.039-5.8,7.733-11.121.752-5.76,2.926-11.153,7.511-15.264,3.822-3.426,4.975-3.432,8.169.819,1.957,2.6,3.7,5.368,5.741,7.9a6.563,6.563,0,0,0,9.132.578c2.026-1.94-.324-3.9-.991-5.782a10,10,0,0,0-1.464-2.278c-3.084-4.311-7.036-7.794-10.963-11.279s-8.493-3.823-12.727-.612a36.794,36.794,0,0,0-10.054,11.21C87.519,90.906,85.873,99.375,85.2,107.451ZM328.632,96.125c0-1.27.007-2.54,0-3.81-.04-6.139-1.506-11.771-5.363-16.74-1.827-2.354-3.916-3.66-6.891-3.58a33.169,33.169,0,0,0-10.59,2.265A21.3,21.3,0,0,0,292,94.405c.037,2.223,1.94,2.324,3.272,3.105,1.425.834,1.9-.33,2.5-1.186,1.356-1.929,2.567-3.975,4.06-5.791,3.388-4.119,7.3-7.582,12.6-9.083,3.238-.916,4.225-.41,5.087,2.824a25.36,25.36,0,0,1,.544,7.58c-.288,7.251-.7,14.5-1.011,21.745-.067,1.589-.487,3.268.773,4.685.825.927,1.391,2.542,2.787,2.225,1.065-.243.723-1.857,1.078-2.836.5-1.364,1.166-2.675,1.547-4.068C326.814,107.867,329.334,102.305,328.632,96.125ZM87.871,157.472a9.565,9.565,0,0,0,.17,1.612c.287.844.471,2.212,1,2.374.932.285,1.223-1.019,1.627-1.722,1.447-2.517,2.741-5.122,4.194-7.635,6.767-11.7,15.856-21.671,24.267-32.128,5-6.212,10.4-12.145,17.081-16.7.532-.363,1.349-.92.855-1.737-.43-.71-1.23-.463-1.954-.284-5.088,1.258-10.19,2.457-15.273,3.734a15.789,15.789,0,0,0-9.444,6.757,178.918,178.918,0,0,0-20.251,38.431C89.169,152.7,88.523,155.35,87.871,157.472Zm129.138-76.8c3.216,0,5.386.016,7.554-.008.874-.01,1.9.188,2.416-.773,1.969-3.643,4.5-7.134,5.633-11.027.869-2.987.753-6.415,1.121-9.644.311-2.73.115-2.839-2.484-2.161-6.172,1.611-12.379,2.478-18.779,1.5-2.066-.317-4.373-2.169-6.1-.792-1.6,1.277-1.032,4.065-1.754,6.08-1.17,3.265.666,5.852,1.48,8.774C207.859,78.94,211,82.536,217.009,80.673ZM172.34,96.145a36.784,36.784,0,0,1-5.709.6c-5.92-.247-9.672,3.17-13.305,7.176-5.207,5.741-8.293,12.707-11.683,19.5-.576,1.154-2.084,2.852-.788,3.819,1.143.853,2.414-1.016,3.594-1.718,3.868-2.3,7.415-5.589,12.175-5.541,3.8.038,5.446-2,6.919-4.91,2.941-5.814,6.106-11.5,10.395-16.473.449-.52,1.1-1.379.937-1.809C174.493,95.774,173.355,96.3,172.34,96.145Zm36.268,196.227c6.507,0,13.013.017,19.52-.029.59,0,1.634.322,1.7-.689.046-.758-.789-1.122-1.461-1.373-4.569-1.7-9.119-3.5-13.957-4.287-15.062-2.462-29.927.189-44.814,1.9-1.933.222-4.3-.063-5.606,2.1,1.921,1.093,4.048,1.292,6.186,1.662,5.927,1.025,11.926.31,17.854,1A79.348,79.348,0,0,0,208.608,292.372Zm48.2-141.934c6.274.142,11.5-2.466,16.341-6.168,1.46-1.117,1-2-.006-3.071-1.725-1.836-3.334-3.782-5.08-5.6a24.139,24.139,0,0,0-3.63-3.221c-2.222-1.526-3.261-1.106-3.371,1.5a15.244,15.244,0,0,1-3.748,9.87c-1.305,1.48-2.5,3.061-3.678,4.65-.9,1.224-.524,1.963,1.009,2.032C255.366,150.465,256.088,150.438,256.809,150.438ZM315.87,95.4c0-1.984.091-3.973-.023-5.95-.142-2.477-.453-2.63-2.412-1.282-4.36,3-7.794,6.939-11.158,10.966-1.26,1.508-.934,2.418.527,3.5,1.62,1.2,2.474.636,3.472-.812.965-1.4,1.615-3.369,3.752-3.4.744-.011,2.089,4.985,1.794,6.461a5.037,5.037,0,0,1-.6,1.508c-1.236,2.127.59,2.885,1.776,3.811.777.607,1.384.053,1.39-.82C314.426,104.677,316.082,100.135,315.87,95.4ZM143.946,143.689c1.845.376,2.926-.1,2.3-1.863-.8-2.244.344-4.279.3-6.4-.038-1.6,2.416-3.132.961-4.142-1.061-.736-2.62,1.449-4.026,2.216a19.776,19.776,0,0,0-2.646,1.894c-2.2,1.73-5.391,2.083-6.824,4.885,2.359,1.933,5.5,1.653,8.12,2.857A11.981,11.981,0,0,0,143.946,143.689ZM113.918,94.956c-1.3-1.893-2.731-3.776-3.945-5.787-1.093-1.81-2.127-1.642-3.359-.258-2.612,2.933-3.555,6.7-5.084,10.175-.424.962-1.281,2.227-.02,2.788.718.32,2.119-.352,2.779-1.353a6.723,6.723,0,0,0,.661-1.453c.121-.338.088-.73.21-1.067,1.532-4.24,3.173-4.887,7.31-2.841.448.222.759.8,1.334.313C113.9,95.4,113.873,95.183,113.918,94.956ZM252.2,31.084a25.617,25.617,0,0,1-3.12.139c-2.307-.2-3.188.758-3.192,3.085,0,2.712-.952,5.29-1.7,7.883-.673,2.321-.216,2.84,2.227,2.6a17.8,17.8,0,0,0,2.654-.49c1.454-.369,2.891-.806,4.336-1.214-1.419-.248-2.838-.491-4.255-.748a4.405,4.405,0,0,1-1.043-.269c-2.655-1.216-2.961-3.806-.517-5.445a40.3,40.3,0,0,1,5.251-2.763c1.423-.673,2.916-1.2,4.379-1.788C255.608,30.639,253.536,31.747,252.2,31.084ZM239.938,81.245c.33-.118,1.045.394,1.149-.505.092-.8-1.782-3.465-2.375-3.367a.969.969,0,0,0-.553.714C238.022,79.477,237.49,81.128,239.938,81.245Zm-37.5-.968c.623-.357.46-.867.2-1.335a14.7,14.7,0,0,0-.872-1.273c-.65.476-.379,1.15-.317,1.739C201.506,79.927,201.786,80.356,202.437,80.277ZM197.421,77.9c-.663.862-1.078,1.365-1.45,1.9-.28.4-.153.738.328.821a.983.983,0,0,0,1.185-.737A8.91,8.91,0,0,0,197.421,77.9ZM106.309.067c-3.473-.27-4.1.16-4.2,3.444-.038,1.257.042,2.517.017,3.774-.056,2.888.179,5.792-2.547,7.933-1.374,1.079-1.149,2.99-1.149,4.61a3.537,3.537,0,0,0,2.318,3.37,3.456,3.456,0,0,0,4.014-.734c1.943-1.766,3.339-3.78,2.889-6.666a28.982,28.982,0,0,1-.237-4.888c.11-6.882-1.651-6.722,6.78-6.132,5.242.366,5.082.526,5.366,5.888.116,2.183-.27,3.336-2.5,3.972-1.4.4-2.156,1.862-2.645,3.272a5.27,5.27,0,0,0,2.211,5.605c1.548.86,3.075.282,4.54-1.776a6.581,6.581,0,0,0,1.059-1.893c1.483-5.181,2.919-10.277,1.956-15.888-.365-2.123-1.074-2.688-2.687-3.2-3.03-.967-6.14-.319-10.368-.661C110.3.1,108.292.221,106.309.067ZM154.1,28.905a1.791,1.791,0,0,0,1.454-1.423c.117-1.078-.836-1.065-1.469-1.107a19.426,19.426,0,0,1-9.968-3.974c-2.366-1.664-4.809-3.219-7.215-4.825a1.744,1.744,0,0,0-2.016-.252c-.926.621-.775,1.563-.391,2.421A12.712,12.712,0,0,0,139.22,24.9c3.261,2.22,6.374,4.892,11.239,4.991C151.32,29.662,152.723,29.329,154.1,28.905ZM281.142,345.7c.484-1.412-1.189-1.347-1.876-1.956a18.343,18.343,0,0,1-2.979-3.829,73.949,73.949,0,0,0-4.636-6.029c-.816-.988-1.807-1.79-3.294-1.327-1.691.526-2.171,1.968-2.274,3.389a7.543,7.543,0,0,0,4.214,7.612,17.1,17.1,0,0,0,8.3,2.415C279.483,345.9,281.024,346.046,281.142,345.7ZM110.131,334.162a36.141,36.141,0,0,1,2.977-9.711,11.531,11.531,0,0,0,.984-6.338,2.306,2.306,0,0,0-4.149-1.541,11.016,11.016,0,0,0-2.823,7.4,17.942,17.942,0,0,0,3.153,10.169ZM297.089,364.75c-.518-2.589-3.067-2.761-5.011-3.556a9.748,9.748,0,0,0-2.143-.337,3.249,3.249,0,0,1-2.237-1.391c-.389-.565-.675-1.2-1.008-1.806a11.86,11.86,0,0,0-1.252,2.37c-1.218,4.527,1.082,7.786,5.454,7.846C294.235,367.922,297.419,366.4,297.089,364.75ZM146.855,340.357c-.6-1.462-1.471-2.641-3.137-2.382-1.527.238-1.627,1.658-1.732,2.961a15.416,15.416,0,0,0,3.952,11.908,1.349,1.349,0,0,0,.884.451c.843,0,.6-.712.612-1.179.034-1.251.012-2.5.012-3.757C147.336,345.691,147.931,342.969,146.855,340.357ZM131.7,310.827a10.872,10.872,0,0,0,.321,5.821c1.313,4.365,5.007,6.39,8.3,8.833a1.353,1.353,0,0,0,.944.288c.342-.074.22-.425.022-.838-2.328-4.853-4.61-9.728-6.955-14.572-.2-.423-.767-.673-1.093-.944A1.721,1.721,0,0,0,131.7,310.827Zm178.8,18.618c-3.264,1.046-5.277,3.72-7.25,6.211-1.113,1.406-2.474,3.2-1.548,5.4a32.9,32.9,0,0,0,4.751-1.921c3.164-1.87,5.7-4.367,6.681-8.088C313.293,329.768,312.051,328.949,310.5,329.445ZM209.021,370.473c-1.566,1.99-1.566,4.366-1.455,6.713.091,1.942.123,4.743,1.921,5.115,1.781.368,1.788-2.664,2.788-4.074,1.64-2.313,2.242-4.949.546-7.6a10.112,10.112,0,0,0-1.306-1.425A2.864,2.864,0,0,0,209.021,370.473ZM193.8,327.386c1.557,3.971,4.458,6.869,7.841,9.332,1.467,1.068,2.531,2.808,4.642,2.818-.849-1.339-1.752-2.648-2.531-4.027-.616-1.092-1.033-2.3-1.624-3.4a21.451,21.451,0,0,0-4.2-5.579,4.113,4.113,0,0,0-2.815-1.446C193.562,325.2,193.382,326.309,193.8,327.386ZM99.56,321.281a1.815,1.815,0,0,0-.007-.542c-.583-1.741,1.189-4.84-1.309-5.09-2.184-.218-1.815,3.085-2.593,4.822a1.614,1.614,0,0,0-.117.53c-.348,4.6-.451,9.168,1.432,13.528,1.3-4.146,2.643-8.283,2.61-12.7,0-.182,0-.363,0-.545Zm-3.03-40.324c.2,1.706.288,3.451,1.613,4.777.544-1.308,1.082-2.618,1.632-3.922a26.65,26.65,0,0,0,1.261-2.986c.637-2.247,1.215-4.517,1.674-6.806a1.643,1.643,0,0,0-1.179-2.118,1.681,1.681,0,0,0-1.784.922,17.62,17.62,0,0,0-3.22,9.591A4.663,4.663,0,0,0,96.53,280.957Zm5.884,77.258a28.179,28.179,0,0,1,3.834-12.636,4.858,4.858,0,0,0,.453-.975,1.543,1.543,0,0,0-.347-1.932,2.082,2.082,0,0,0-2.031-.262,5.647,5.647,0,0,0-3.361,3.274c-2.165,4.533-1.219,8.7,1.553,12.63Zm53.937-37.394c1.8-2.745,3.568-5.505,3.378-8.988-.119-2.174-2.081-3.214-3.83-1.926-2.255,1.66-2.707,4.147-2.719,6.779-.011,2.288.855,3.8,3.307,4.054Zm158.9-46.131c-1.68-.79-3.2-.789-4.238.935s-.259,3.146,1.111,4.257c2.194,1.778,4.924,2.136,7.581,2.621.457.083,1.088,0,1.019-.787C320.719,279.573,317.828,275.9,315.253,274.69Zm-.288,72.639c.238-.671.537-1.333.09-2.033a6.853,6.853,0,0,0-1.7,1.162c-1.864,2.375-4.1,4.61-3.619,8.052.178,1.274.336,2.543,1.939,2.832,1.481.267,2.3-.708,3.13-1.667.93-1.068.805-2.342.658-3.582-.168-1.413-.464-2.811-.644-3.864A7.125,7.125,0,0,1,314.965,347.329ZM113.71,304.286a1.079,1.079,0,0,0,.461.223c.162-.224.441-.536.38-.723-1.084-3.352-.083-6.845-.728-10.229-.275-1.439-.466-2.894-1.685-3.865-1.023-.815-2.078-.726-2.589.56a7.254,7.254,0,0,0-.3,2.146C109.22,294.985,112.431,303.17,113.71,304.286Zm124.951,11.955a2.931,2.931,0,0,0-3.231,1.382c-1.989,2.8-1.693,5.707-.607,8.7.337.929.72,1.185,1.335.241,1.52-2.333,4.324-3.956,4.016-6.918C240.3,317.954,240.149,316.618,238.661,316.241Zm-58.223,24.868c-4.684,2.033-6.391,9.778-2.937,13.361a1.272,1.272,0,0,0,.932.254c.39-.038.465-.388.39-.832-.375-2.227.677-4.2,1.229-6.244a38.122,38.122,0,0,1,2-4.991,1.145,1.145,0,0,0-.582-1.72A4.242,4.242,0,0,0,180.438,341.109ZM194.966,380a3.833,3.833,0,0,0,2.587.349c1.03-.392.478-1.55.389-2.378a20.167,20.167,0,0,0-2.24-6.578c-.326-.673-.927-1.278-1.65-1.085a2.814,2.814,0,0,0-1.606,1.261,6.075,6.075,0,0,0-.493,1.9C192,377.217,192.878,379.07,194.966,380Zm22.956-31.739c.577-1.289,1.205-2.559,1.72-3.872a24.633,24.633,0,0,0,2.041-7.776,1.56,1.56,0,0,0-.921-1.751,1.434,1.434,0,0,0-1.8.762,17.028,17.028,0,0,0-2.373,6.67C216.469,345.067,216.437,346.877,217.922,348.265ZM125.2,360.7c0-.21-.47-.638-.582-.6a70.638,70.638,0,0,0-7.79,3.148c-1.16.606-.979,2.209-.515,3.43.33.868.981,1.477,1.524,1.456C120.846,368.02,125.213,363.34,125.2,360.7Zm41.636-28.716c-3.572.338-9.009,7.65-8.123,10.9.211.774.749.679,1.025.2,1.839-3.19,4.943-5.188,7.29-7.888a3.127,3.127,0,0,0,1.028-2.35A1.135,1.135,0,0,0,166.838,331.983Zm70.98,36.395q-2.762,2.542-5.523,5.086a11.526,11.526,0,0,0-2.926,3.8,2.058,2.058,0,0,0,.288,2.49c1,.892,2.064.36,2.87-.308a6.328,6.328,0,0,0,1.549-2.136,43.853,43.853,0,0,1,3.819-7.06,1.643,1.643,0,0,0-.164-1.98Zm-76.09-2.985a1.213,1.213,0,0,0-1-1.115,1.363,1.363,0,0,0-1.671.994,17.3,17.3,0,0,0,.02,9.628c.214.663.667,1.724,1.067,1.751.744.05.715-.967.922-1.592a12.822,12.822,0,0,0,.685-6.3C161.75,367.923,161.8,366.655,161.728,365.393Zm-34.177-22.906a7.721,7.721,0,0,0,1.121,1.106,3.83,3.83,0,0,0,.125-1.509,27.125,27.125,0,0,1-1-5.848,18.489,18.489,0,0,0-1.193-4.14,1.637,1.637,0,0,0-1.251-.876,1.812,1.812,0,0,0-1.176,1,5.336,5.336,0,0,0-.366,1.532C123.539,337.734,125.86,339.969,127.551,342.487Zm83.98-27.269c-1.165-.116-3.366,2.026-3.591,3.492-.248,1.615.986,3.468,2.389,3.591,1.613.14,3.743-1.1,3.826-2.231C214.2,319.511,211.894,315.254,211.531,315.218Zm83.56-16.747c.085,2.105,2.327,5.473,2.585,4.883.528-1.208.377-2.7.611-4.055.184-1.063.6-2.086.777-3.15.19-1.132,1.084-2.731-.712-3.126-1.392-.306-2.165,1.038-2.6,2.295-.3.845-.523,1.714-.658,2.164C295.09,298.109,295.084,298.29,295.091,298.471Zm-18.728,15.965a1.864,1.864,0,0,0-2.021.076,1.675,1.675,0,0,0-.474,1.931c.891,3.053,3.582,4.329,5.909,5.927.838.576.589-.439.809-.8C279.55,318.971,279.311,315.907,276.363,314.436Zm-33.741,37.94c.068-2.688.173-5.376.178-8.064,0-.67-.173-1.452-1.106-1.574a1.756,1.756,0,0,0-1.742.987c-2.075,3.218-1.056,6.663,2.568,8.757Zm-66.016-30.189a2.126,2.126,0,0,0,.744.737c.273.191.572,0,.632-.481.243-1.962,1.406-3.722,1.244-5.771-.095-1.206.236-2.9-1.4-3.024-1.5-.117-1.829,1.432-1.98,2.714a13.871,13.871,0,0,0-.011,1.619A9.273,9.273,0,0,0,176.606,322.187Zm91.607,43.907c-2.472-1.267-3.057,1.168-4.1,2.293-1.416,1.536-2.854,3.244-2.8,5.573.021.81.624,1.229,1.386,1.355a1.64,1.64,0,0,0,1.862-.695,11.407,11.407,0,0,0,.914-3.019c.347-2.155.884-4.175,2.751-5.559Zm44.679-65.67a2.467,2.467,0,0,0-1.428.46,19.923,19.923,0,0,0-5.359,9.264,5.169,5.169,0,0,0,.1,1.568,7.358,7.358,0,0,0,.96-.93c1.584-2.2,3.161-4.407,4.7-6.642.6-.88,1.093-1.837,1.57-2.651C313.183,300.984,313.007,300.412,312.892,300.424ZM293.315,340.9c.1-.333.363-.736.26-.989-1.142-2.814-3.39-5.074-3.964-8.211-.184-1-1.1-.6-1.531.031a3.651,3.651,0,0,0,.417,4.943c1.5,1.54,3.269,2.825,4.92,4.221Zm-94.306,7.111a1.057,1.057,0,0,0-.529-.029,4.582,4.582,0,0,0-3.453,3.707c-.448,1.817.645,3.054,2.158,3.847.361.19.975-.1,1.473-.17-1.307-2.474.977-4.2,1.249-5.682C200.032,348.335,199.515,348.169,199.009,348.014ZM319.591,313.56c-.148,2.382,3.155,5.281,5.533,4.892.59-.1.759-.532.391-1.115-.96-1.52-1.854-3.082-2.85-4.578a4.15,4.15,0,0,0-1.118-.867C320.331,311.961,319.653,312.567,319.591,313.56Zm-65.656,7.355c.425.132,1.176-.607,1.71-1.042a9.049,9.049,0,0,0,1.506-1.518,2.919,2.919,0,0,0,.416-3.46,1.668,1.668,0,0,0-1.346-.571c-1.224.121-1.77,1.146-2.164,2.134a9.518,9.518,0,0,0-.457,1.965C253.458,319.747,253.256,320.7,253.935,320.915ZM171.913,384.9c.362.975.8,1.923,1.2,2.881,1.161-.679.321-1.774.533-2.655a6.53,6.53,0,0,0,.167-2.12c-.163-1.7,2.2-3.594-.386-5.1-1.527,1.508-.915,3.632-1.547,5.4a5.687,5.687,0,0,0-.008,1.107C171.866,384.2,171.8,384.583,171.913,384.9Zm65.818-16.635c.137.107.278.31.411.305a9.717,9.717,0,0,0,1.44-.187c.052-.01.122-.345.077-.376-.508-.352-.914-.007-1.343.223a2.452,2.452,0,0,1-.5.147Zm-81.38-47.445.085.183.051-.264Zm-46.078,13.321.271-.111-.413.131ZM293.417,340.9l.2-.2-.3.2Zm-50.9,11.583c.115.515.26.949.817.314l-.716-.419Zm-140.006,5.833.232-.068-.333-.031Zm165.72,7.728-.264-.351.242.4ZM245.954,240.718c-.262,3.249-.286,6.538-.832,9.739-1.284,7.521-5.43,11.871-13.251,13.819-9.206,2.293-18.567,3.239-27.841,4.861-4.83.845-9.783.469-14.661,0a134.185,134.185,0,0,0-14.132-.775,25.99,25.99,0,0,1-11.164-2.008c-8.968-4.065-13.283-13.769-11.574-23.575,2-11.468,5.611-22.5,9.547-33.427a210.744,210.744,0,0,1,12.267-27.86c4.259-7.989,7.572-16.483,11.282-24.763A19.985,19.985,0,0,0,187,151.5a33.685,33.685,0,0,1,1.349-5.821c2.937-8.586,12.077-11.091,19.177-5.33a31.573,31.573,0,0,1,6.057,6.955c6.3,9.288,12.008,18.791,15.677,29.626,4.243,12.532,8.04,25.221,12.812,37.6A58.177,58.177,0,0,1,245.954,240.718Zm-53.67,21.295c5.33.02,9.175.288,12.9-.69,8.415-2.209,17.11-3.09,25.485-5.522,5.107-1.483,7.166-3.413,6.986-8.639-.386-11.242-1.674-22.4-6.217-32.832-5.578-12.807-9.8-26.1-14.447-39.237A124.279,124.279,0,0,0,204.555,149.8a11.071,11.071,0,0,0-2.031-2.53c-2.586-2.2-5.423-1.511-6.83,1.528-1.292,2.791-2.674,5.542-3.923,8.353-4.637,10.43-8.72,21.105-14.089,31.212a73.793,73.793,0,0,0-4.609,10.434c-3.378,9.758-6.786,19.521-9.664,29.433-1.76,6.057-3.173,12.312-2.993,18.724.25,8.892,3.551,12.69,12.222,13.608C179.668,261.308,186.743,261.618,192.284,262.013ZM200.589,131c-3.393,0-5.191-1.772-5.367-5.306a8.794,8.794,0,0,1,3.285-7.616c2.069-1.692,4.108-1.249,5.269,1.2a34.46,34.46,0,0,1,1.776,5.079C206.79,128.577,204.955,131,200.589,131Zm.812-3.512c.995,0,2.063-.23,2.05-1.712-.009-1.109-.256-2.618-1.4-2.649-1.664-.045-1.017,1.923-1.631,2.892C199.984,126.71,200.2,127.4,201.4,127.484Zm8.543-100.613c-.072-2.887-3.777-6.27-6.641-6.062-2.775.2-5.649,3.305-5.4,5.835.271,2.8,4.467,5.954,7.7,5.788C207.634,32.328,210,29.3,209.944,26.871ZM237.73,37.3c.493-1.6-1.386-1.111-2.088-1.718a4.987,4.987,0,0,0-1.989-.739c-.965-.25-2.165-1.056-2.745.4-.49,1.226.5,2.034,1.441,2.542a8.651,8.651,0,0,0,2.136.621C235.968,38.282,237.381,38.426,237.73,37.3ZM219.966,40.1c.277-1.354-1.591-1.427-2.592-1.98-.614-.34-1.2-.727-1.8-1.086-.443-.264-.871-.556-1.383-.086a1.941,1.941,0,0,0-.826,1.83,3.045,3.045,0,0,0,3.061,2.7C218.008,41.388,219.752,41.147,219.966,40.1Zm-6.483,5.834a3.9,3.9,0,0,0,.98-.415c-.206-.252-.361-.614-.626-.735a11.009,11.009,0,0,0-2.528-.943c-1.916-.344-3.885-.9-5.72.277-.133.085-.109.752.065.922,1.467,1.441,3.386.867,5.214,1.106C211.689,46.088,212.591,46.052,213.483,45.937Zm15.865-4.617a3.161,3.161,0,0,1-3.37-.911c-.575-.549-1.278-1.463-2.129-.3a2.064,2.064,0,0,0,.158,2.472c1.142,1.755,4.585,1.5,5.941-.4a1.894,1.894,0,0,0,.173-.488C230.013,41.246,229.774,41.182,229.348,41.32ZM224.831,34.1a2,2,0,0,0,.831-.583c.21-.241,0-.471-.473-.577-1.538-.35-3.069-.735-4.618-1.03a.963.963,0,0,0-.764.527,1.22,1.22,0,0,0,.2.968,3.23,3.23,0,0,0,2.981,1.153C223.475,34.443,224.167,34.317,224.831,34.1ZM382.378,253.26l-.057-.212-.052.332ZM201.4,203.815c6.268.12,11.3,4.434,15.413,9.949,1.441,1.934.874,4.512-.33,6.724a18.344,18.344,0,0,1-6.1,6.848c-3.622,2.328-5.107,6.009-6.675,9.69a5.844,5.844,0,0,0-.348,3.186c.208,1.548.842,2.342,2.485,1.969,1.234-.281,2.469-.558,3.7-.861,1.058-.26,2.1-.608,3.162-.82a2.269,2.269,0,0,1,2.686,1.328c.477.985-.032,1.728-.676,2.412-4.44,4.716-9.578,7.778-16.369,6.694a36.564,36.564,0,0,1-11.238-3.92,6.782,6.782,0,0,1-3.149-2.923,3.674,3.674,0,0,1,.823-4.481c1.106-1.078,2.373-.58,3.478.186,2.28,1.58,4.664,2.814,7.555,2.663,1.308-.067,2.036-.545,1.741-2.006-.4-1.951-.65-3.935-1.138-5.861a5.182,5.182,0,0,0-3.271-3.979c-7.284-2.842-9.4-9.626-11.6-16.125-1.117-3.3,1.4-7.011,5.259-8.368C191.118,204.6,195.654,204.169,201.4,203.815Zm-3.483,10.929c-.891-.244-1.208.223-1.242.75-.088,1.368,2.645,6.348,3.514,6.26,2.381-.244,2.389-2.821,3.736-4.122a1.42,1.42,0,0,0,.1-1.946,1.345,1.345,0,0,0-2.269-.093c-1.022,1.256-1.8,1.537-2.8.051A4.646,4.646,0,0,0,197.915,214.744Zm.153-26.665a1.631,1.631,0,0,0,1,1.079,1.446,1.446,0,0,0,1.257-.638,34.967,34.967,0,0,0,1.862-5.547,3.76,3.76,0,0,0-1.831-4.139c-1.079-.619-2.524,1.522-2.669,3.915-.032.534,0,1.072,0,1.887A34.642,34.642,0,0,0,198.068,188.079Zm10.247-2.32c.186-.691.327-1.741-.348-1.947-1.742-.532-3.009.6-4.174,1.731a2.459,2.459,0,0,0-.911,2.372,1.812,1.812,0,0,0,1.332,1.5C205.846,189.556,207.737,187.9,208.315,185.759Zm-17.732-.149c-.171,1.382,1.352,2.9,3.03,3.028,1.112.082,2.22-.182,2.572-1.364s-1.9-2.973-3.754-3.062C191.619,184.334,190.718,184.519,190.583,185.61Z"/></g></g></svg>