<?xml version="1.0" encoding="utf-8"?>
<!-- Generator: Adobe Illustrator 24.0.3, SVG Export Plug-In . SVG Version: 6.00 Build 0)  -->
<svg version="1.1" id="Layer_1" xmlns="http://www.w3.org/2000/svg" xmlns:xlink="http://www.w3.org/1999/xlink" x="0px" y="0px"
	 viewBox="0 0 86.2 69.4" style="enable-background:new 0 0 86.2 69.4;" xml:space="preserve">
<title>bugs1</title>
<path d="M61,63c1.4-2.6,0.5-3.3-1.6-3.6c-2.3-0.4-3.1-2.2-3.2-4.4c-0.1-2,0.3-3.7,2.3-4.4c2.1-0.8,3.4-1.8,2.2-4.2
	c-0.1-0.2,0.2-0.7,0.4-0.9c0.5-0.5,1-0.1,1.4,0.3c0.7,0.6,1.2,1.4,1.9,1.9c2.1,1.6,3.3,1.1,3.9-1.6c0-0.2,0-0.4,0-0.5
	c0.1-0.9,0.1-2,1.4-1.9c0.8,0,1.1,0.8,1.1,1.6c0,0.5,0,1.1,0.2,1.6c0.3,0.9,1.2,1.3,2,1.1c0.4-0.1,0.7-0.3,0.9-0.7
	c0.7-1,1-2.3,1.6-3.4c0.5-0.8,1.2-1.4,2.2-0.9c0.7,0.3,1,1.1,0.7,1.8c-1.4,2.4-0.8,4,1.2,5.7c1.4,1.1,1.2,2.9,0.3,4.4
	c-0.8,1.4-3,2.1-2,4.5c0.3,0.8-0.8,0.7-1.5,0.4c-3.5-1.5-3.5-1.5-5.3,1.9c-1,1.9-1.4,1.2-2.4,0c-1.7-2.1-2.4-1.9-4,0.3
	c-0.4,0.6-0.7,1.3-1.1,1.8c-0.4,0.6-1.2,0.9-1.9,0.5C61,64,60.8,63.2,61,63z M72.4,50.3c-0.4,0-1.3,0.1-2.2,0.2
	c-2.2,0.3-3.8,2.3-3.5,4.6c0,0.3,0.1,0.7,0.3,1c0.8,2.2,2.8,0.4,4.2,0.2c1.1-0.2,2.1-0.5,3.1-1c1.6-0.7,4.2-0.7,3.8-3.1
	c-0.4-2.3-2.9-1.5-4.6-1.9C73.3,50.3,73.1,50.3,72.4,50.3L72.4,50.3z M62.2,57c1.5,0.4,1.9-0.8,1.8-2.2c0-1,0.1-2.3-1.6-2.2
	c-1.5,0.2-3,0.5-3.1,2.4C59.2,56.8,60.5,57,62.2,57L62.2,57z M49.8,35.7c-1.2-0.6-2,0.1-2.8,0.8c-1.1,0.9-2.3,1.7-3.6,2.4
	c-1.6,1-3.1,0.8-4.3-0.7c-1.1-1.5-1.9-3.5-4.5-3c-0.6,0.1-1.1-0.9-0.5-1.7c0.3-0.4,0.8-0.7,1.2-1.1c1.7-2,1.7-2-0.8-3.3
	c-0.6-0.3-1.6-0.2-1.6-1.1c-0.1-1,0.9-1,1.6-1c1.2,0,2.2,0.1,2.3-1.5c0.1-1.6,0.6-3.3-1.6-4c-0.5-0.1-1.1-0.7-1.1-1
	c0.1-1,1-0.6,1.6-0.7c0.9,0.1,1.8-0.2,2.4-0.8c3.4-2.8,3.4-2.8,6.7-0.6c0.5,0.5,1.1,0.9,1.7,1.3c1.7,0.8,3.5-2.5,4.8-0.5
	c0.8,1.4-2.2,2.1-2.3,3.9c0,0.2,0,0.4,0,0.5c0,2.2,3.1,2.2,3,3.9c-0.1,1.3-2.7,1.5-2.7,3.6c0,1.7,1.3,2,2.2,2.7
	c0.4,0.3,0.9,0.7,0.7,1.3c-0.2,0.6-0.8,0.7-1.3,0.6C50.4,35.9,50.1,35.8,49.8,35.7z M46.2,27.4c0.2-2.4-0.2-2.7-2.3-2
	c-0.8,0.3-1.6,0.7-2.5,1c-1.1,0.3-1.6,0.9-1.3,1.9c0.5,1.9,1,3.8,1.8,5.6c0.6,1.4,1.6,1.1,2.4,0C45.7,31.9,45.7,29.5,46.2,27.4z
	 M41.8,23.2c1.1-0.4,2.5-0.7,2.2-2.3c-0.1-1.1-1.1-1.9-2.2-1.8c-1.7,0.1-1.7,1.5-1.7,2.7C40.1,22.8,40.8,23.3,41.8,23.2L41.8,23.2z
	 M12.6,25.9c-1.2,0-2.5-0.8-3.4,0.7c-0.5,0.7-0.9,1.9-1.9,1.3c-0.8-0.5-0.4-1.6-0.5-2.5c-0.2-2.7-0.3-2.8-2.7-1.4
	c-0.3,0.2-0.6,0.5-0.9,0.6c-0.9,0.5-1.9,1.6-2.8,0.5c-0.9-1.1,0-2.1,0.8-2.7c1.7-1.3,2.7-2.7,2.2-5.1c-0.3-1.9,0.8-3.7,2.7-4.3
	c2.1-0.8,2.6-2.1,2.5-4.1c-0.2-2.9,1.2-5.3,2.9-7.4c1.4-1.9,3-1.8,4.3,0.3c0.3,0.4,0.5,1,0.6,1.5c0.3,2.2,0.9,2.8,3.1,1.4
	c2.1-1.4,4.7-2.2,7-0.1c1.5,1.4,0.8,4.4-1.8,7.3c-1.8,1.8-3.7,3.4-5.8,4.9c-0.9,0.6-1.3,1.7-0.9,2.8C18.9,24.5,17.7,25.9,12.6,25.9z
	 M16.5,14.2c2.5-0.4,7.2-4.5,8-7c0.3-1-0.5-1.4-1.1-1.2c-3.6,1.3-5.9,4-7.7,7.2C15.3,13.9,15.8,14.2,16.5,14.2z M10.9,9.7
	c0.2,0.7-0.2,1.7,0.7,1.7c0.3,0,0.9-0.6,1-1.1c0.8-2.1,1.8-4.3,1-6.7c-0.1-0.1-0.3-0.1-0.4-0.1C11.3,5.2,11.2,7.5,10.9,9.7L10.9,9.7
	z M27.9,49.5c-0.1,0.4-0.1,0.7-0.1,1.1c0.1,1.2-0.9,2.5,0,3.7c0.8,0.9,2,0.3,3.1,0.5c3.4,0.9,4.1,2.2,3,6c-0.4,0.8-0.4,1.7-0.1,2.5
	c0.4,0.7,1.3,1.5,0.4,2.4c-0.9,0.9-1.6-0.1-2.4-0.5c-2.4-1-3-0.7-3,2.2c0,1.9-0.5,2.6-2,1.2c-1.1-1.1-2.2-0.8-3.5-0.9
	c-2.9-0.2-4-1.1-3.3-3.6c0.9-3.2-0.2-5.1-2.3-7.1c-1.7-1.7-2.8-3.9-3.2-6.2c-0.4-1.3,0.1-2.6,1.2-3.4c1-0.6,2.2-0.5,3,0.3
	c2.5,2.4,3.4,0.9,4-1.6c0.2-0.5,0.4-1,0.8-1.4c0.6-0.9,1.8-1.1,2.7-0.5c0.2,0.2,0.4,0.4,0.6,0.6C27.8,46.2,28.2,47.9,27.9,49.5z
	 M18.1,51.3c-0.2,0.3-0.5,0.6-0.5,0.8c0.1,1.6,0.9,3.1,2.2,4c0.1,0.1,0.3,0.2,0.4,0.3c0.1-0.3,0.4-0.6,0.4-0.9
	c-0.1-1.4-0.7-2.7-1.6-3.8C18.8,51.6,18.5,51.4,18.1,51.3L18.1,51.3z M25.4,50c0.1-0.8,0.3-1.7-0.4-1.9c-1.1-0.3-0.9,0.8-1,1.4
	c-0.2,1.4-1.5,3.4,0.1,3.9C25.3,53.7,25.1,51.2,25.4,50L25.4,50z M67,6.6c0-0.3,0-0.5,0-0.8c0.3-1,1.3-1.7,2.4-1.4
	c0.5,0,1.1,0.2,1.5,0.5c2.1,1.5,3.7,2,4-1.4c0.1-1.1,0.9-2.1,2.1-2.2C78.2,1,79.5,1.8,80,3c1.2,2,1.8,4.4,1.7,6.8
	c-0.2,2.9,0.2,5.1,3,6.9c2.2,1.4,2,2.9-0.1,4.9c-0.9,0.9-1.9,1.4-2,2.9c-0.2,2.1-1,1.8-2.3,0.4c-1.9-2.1-2.6-1.9-3.7,0.4
	c-0.4,0.8-0.2,2-1.5,1.9c-1.2,0-1.1-1.2-1.3-2.1c-0.3-0.8-0.9-1.5-1.7-1.9c-3.4-2.1-3.7-3.6-1.7-6.5c0.6-0.9,2-1.2,1.9-2.4
	c-0.1-1.4-1.7-1.8-2.4-2.8c-0.2-0.3-0.5-0.5-0.8-0.8C67.9,9.8,67.1,8.3,67,6.6z M77.7,5.7c-0.2,0.3-0.3,0.6-0.4,1
	c0,1.4,0.5,2.8,1.3,3.9c0.1,0.2,0.6,0.3,0.9,0.4c0-0.2,0.1-0.3,0.1-0.5c0.3-1.6-0.1-3.2-1-4.5C78.5,5.8,78,5.8,77.7,5.7L77.7,5.7z
	 M71.4,9.6c1,0.6,2.5,2.7,3.2,1.7c0.9-1.4-1.4-2.1-2.5-3c-0.4-0.4-1-1.4-1.6-0.4C70,8.5,70.9,9,71.4,9.6L71.4,9.6z"/>
</svg>
