<svg xmlns="http://www.w3.org/2000/svg" viewBox="0 0 880.204 602.172"><title>castle</title><g id="Layer_2" data-name="Layer 2"><g id="Untitled_Artwork_6_Image" data-name="Untitled_Artwork 6 Image"><path d="M652.218,70.3c0-3.035-.039-5.935.016-8.832.031-1.637-.605-2.47-2.141-3.285-4.331-2.3-4.33-2.806-2.4-7.146,5.166-11.6,10.349-23.194,15.374-34.855,1.775-4.121,4.593-7.8,5.2-12.445A6.179,6.179,0,0,1,670,1.038a2.3,2.3,0,0,1,3.764-.116A32.18,32.18,0,0,1,677.356,5c6.783,9.819,14.578,19.018,18.325,30.687a25.43,25.43,0,0,0,4.6,8.595c1.619,1.924,2.15,4.186,2.727,6.439.854,3.333.1,5.2-3.176,5.635-2.984.393-3.783,1.65-3.525,4.156,1.22,11.83-1.271,23.5-1.435,35.256-.129,9.235.2,18.511.954,27.717,1.054,12.808,1.974,25.582,1.031,38.437-.265,3.614-.121,7.258-.158,10.889-.016,1.655.795,2.244,2.4,1.895,2.3-.5,4.6-1.029,6.926-1.41a6.132,6.132,0,0,1,6.173,2.573,14.97,14.97,0,0,1,3.389,6.715c.872,4.993,1.9,9.963,2.634,14.975.644,4.377.744,3.987,4.277,3a19.229,19.229,0,0,1,14.7,1.834c2.175,1.147,4.022,2.527,4.737,4.964.751,2.559,2.631,4.355,4.264,6.245,6.743,7.806,9.4,16.975,9.437,27.08.03,7.958.637,15.883.114,23.882-.686,10.5.984,20.97,1.53,31.459.452,8.689.287,17.414.3,26.123.017,8.689.356,17.384-.5,26.059-.195,1.965.579,2.759,2.8,2.824,7.124.209,9.881,2.79,11.12,9.773.252,1.419.26,2.906,1.1,4.179,4.259,6.438,4.867,13.955,5.955,21.244,1.956,13.089,4.108,26.142,8.382,38.681,4.345,12.748,7.016,25.887,9.9,38.977,1.795,8.146,3.9,16.2,5.941,24.283a157.553,157.553,0,0,1,4.678,31.1,69.45,69.45,0,0,0,1.609,12.4c.4,1.711,1.024,2.412,2.954,2.124,5.025-.75,10.094-1.206,15.132-1.878,4.854-.647,9.7-1.391,14.536-2.142a23.5,23.5,0,0,1,9.721.18c6.43,1.731,12.952,1.4,19.473,1.382a22.116,22.116,0,0,1,6.439.884,4.336,4.336,0,0,1,3.368,3.846c.156,1.785-1.5,2.78-2.946,3.566a10.559,10.559,0,0,1-5.775,1.241,28.611,28.611,0,0,0-14.731,2.963c-7.911,3.964-16.437,5.436-25.035,6.655-22.275,3.159-44.684,3.773-67.143,3.413-12.424-.2-24.814-1-37.205-1.875-13.656-.963-27.336-1.2-41.026-1.271-15.355-.082-30.692.718-46.033.739-11.5.016-22.991.423-34.5.174a436.776,436.776,0,0,0-52.3,2.032c-13.444,1.323-26.767,3.653-40.245,4.528-12.088.784-24.188,1.494-36.294,1.859-8.869.267-17.69,1.045-26.461,2.145-6.468.812-12.969,1.024-19.434,1.8a260.5,260.5,0,0,1-27.474,2.118c-6.7.093-13.408.006-20.112,0a17.752,17.752,0,0,0-5.915.705c-7.349,2.544-14.872,2.668-22.551,2.016-7.574-.642-15.193-.774-22.794-1.074-8.714-.344-17.241-2.116-25.854-3.232-8.246-1.068-16.362-3.388-24.787-2.9-7.959.457-15.918.536-23.89.335-6.237-.157-12.142,1.816-18.115,3.249-11.833,2.839-23.653,5.253-35.972,3.354a106.92,106.92,0,0,0-15.134-1.455c-9.254-.1-18.5.863-27.747.144a11.014,11.014,0,0,0-5.249,1.246c-8.085,3.5-16.489,3.508-25.09,2.775-6.882-.586-13.6-2.041-20.408-2.944-5-.664-10.032-.82-15.011-1.986-5.11-1.2-10.436-1.171-15.7-.956-10.138.414-20.306-.645-30.426.673-8.257,1.076-16.551,1.9-24.776,3.174a41.067,41.067,0,0,1-20.85-1.869c-1.259-.462-3.19-.6-3.212-2.443-.021-1.779,1.8-2.445,3.076-2.558,4.672-.414,9-2.348,13.832-2.327a103.4,103.4,0,0,0,25.8-3.517c2.606-.659,3.919-1.723,4.292-4.6.815-6.282,3.846-11.632,8.153-16.231,3.1-3.307,6.348-6.449,9.737-9.472a85.075,85.075,0,0,0,7.522-7.82,91.239,91.239,0,0,1,9.68-9.553A85.714,85.714,0,0,0,95.9,493.591c1.3-1.809,1.813-3.93,2.574-5.969,1.063-2.844,1.672-6,4.719-7.693a3.037,3.037,0,0,0,1.121-1.763c2.059-7.5,5.578-14.4,8.839-21.383,2.964-6.349,6.292-12.531,8.612-19.163a45.85,45.85,0,0,1,5.043-10.708c.989-1.465.921-3.082.923-4.72a90.9,90.9,0,0,0-1.252-13.543c-1.508-10.106-.875-20.283-.956-30.427-.088-11.023-.587-22.044-.092-33.075.326-7.245,1.079-14.442,1.933-21.63.492-4.144,2.251-5.8,6.382-5.829,3.81-.026,7.084-1.515,10.319-3.075a58.266,58.266,0,0,1,15.973-5.206c8.311-1.367,15.865-4.932,23.424-8.507,5.39-2.549,10.982-4.681,16.523-6.9,10.594-4.247,20.9-9.2,31.684-12.979a102.945,102.945,0,0,0,12.752-5.935c6.279-3.212,12.809-5.949,19.306-8.714,3.576-1.521,6.65-3.3,8.641-6.933,2.689-4.9,7.286-8.037,11.8-11.1,8.55-5.8,17.585-10.787,26.625-15.778,6-3.311,11.618-7.3,17.611-10.614,5.142-2.843,10.752-4.325,16.5-1.881a6.363,6.363,0,0,0,6.145-.442c6.823-3.757,13.685-7.445,20.531-11.161a2.462,2.462,0,0,0,.448-.309c10.049-8.8,22.16-14.422,33.283-21.567,2.574-1.654,4.884-3.676,7.417-5.419,14.668-10.092,30.534-18.227,45.364-28.039a125.307,125.307,0,0,0,10.527-7.7A144.172,144.172,0,0,1,497.793,126.6a58.869,58.869,0,0,0,14.85-9.985,62.817,62.817,0,0,1,13.74-9.723c4.41-2.318,7.042-6.776,11.221-9.392.854-.535.666-1.582.772-2.478q1.5-12.653,3.08-25.3c.482-3.845.515-3.853-3.163-6.038-2.414-1.434-3.105-3.148-2.545-5.882,2.445-11.942,6.589-23.394,10.354-34.935,1.841-5.643,4.843-10.924,7.511-16.273,1.34-2.686,3.657-2.909,5.712-.834a6.57,6.57,0,0,1,1.24,1.764c2.843,5.946,7.119,10.928,10.892,16.246,1.772,2.5,13.431,23.964,14.2,26.25,1.719,5.084.479,7.5-4.634,8.985a6.482,6.482,0,0,1-1.6.32c-2.235.062-2.659,1-2.127,3.169.817,3.337,1.193,6.782,1.747,10.184.5,3.043.673,3.171,3.931,2.666,2.5-.389,5-.931,7.518-1.14,3.1-.258,4.342.746,4.829,3.735.377,2.314.556,4.664.75,7,.111,1.343.715,1.979,2.075,1.825.18-.02.354-.092.534-.106,7.077-.576,7.077-.576,7.348-7.76.17-4.511.47-4.88,4.934-5.389,2.521-.288,5.067-.357,7.585-.666,3.537-.433,5.539.843,6.116,4.272.239,1.42.042,2.909.2,4.348.144,1.282-.814,3.153,1.228,3.6,1.756.387,4.851-1.6,5.144-3.129a37.981,37.981,0,0,0,.41-4.328c.36-4.863.354-4.869,5.256-5.754,2.5-.452,5-.907,7.508-1.313,3.321-.538,5.2.882,5.381,4.188.118,2.171-.017,4.355,0,6.532.007.725.173,1.541,1.151,1.32a1.77,1.77,0,0,0,1.04-1.075,7.633,7.633,0,0,0,.41-2.668C652.22,75.949,652.9,73.048,652.218,70.3ZM89.2,518.226c-1.728.5-2.506,2.038-3.444,3.327A156.343,156.343,0,0,1,69.888,539.39c-3.564,3.587-7.235,7.11-9.692,11.659-1.609,2.98-1.314,3.842,1.9,4.233a73.406,73.406,0,0,1,7.546.9c7.739,1.774,15.5,1.092,23.264.483,1.947-.152,2.167-.823.953-2.368-5.438-6.924-7-14.718-5.906-23.382.535-4.24,2.214-8.43,1.152-12.826l.292.105Zm109.579-27.789-.161.206.261-.124c-1.655,2.581-.435,5.322-.283,7.942.377,6.5,3.15,11.342,9.794,13.552,3.722,1.239,6.3,4.067,8.385,7.443a51.575,51.575,0,0,1,5.058,11.415,4.749,4.749,0,0,1,.285,1.578,1.009,1.009,0,0,1-1.58.7,9.742,9.742,0,0,1-2.835-4.563c-1.985-5.282-5.73-8.035-11.269-8.951-8.555-1.414-13.1-6.923-14.916-15.181a52.611,52.611,0,0,1-.961-11.351c-.007-2.836-.647-5.456-3.812-6.522-5.394-1.816-7.747-6.019-9.111-11.2a40.825,40.825,0,0,0-2.89-7.568c-2.47-5.039-5.621-9.743-7.456-15.1-1.281-3.739-1.414-7.736-2.893-11.457-.906-2.28-2.32-3.279-4.472-3.059-1.826.186-3.595.607-5.3-.325-4.905-2.68-9.961-1.615-14.77-.095-2.971.94-6.188,2.172-7.629,5.605-3.766,8.968-7.723,17.855-11.4,26.86-4.717,11.561-7.408,23.782-11.131,35.666-3.068,9.8-4.985,19.964-7.12,30.029a30.682,30.682,0,0,0-.776,9.165c.169,1.848.227,3.843,1.611,5.011,3.617,3.052,7.607,6.082,12.44,6.178,10.7.211,21.422-.2,32.135-.326,1.828-.022,2.694-.708,2.269-2.643a29.426,29.426,0,0,1-.16-9.149c.238-2.533.718-5.245-1.07-7.334-2.618-3.06-3.851-7.132-8.353-8.834a17.108,17.108,0,0,1-10.55-17.336c.837-7.538,1.861-15.055,2.831-22.577a19.974,19.974,0,0,1,.614-2.647c.188-.692.469-1.489,1.274-1.507a1.457,1.457,0,0,1,1.4,1.407c.264,1.968.568,3.939.668,5.918.283,5.62.346,11.254.737,16.866.324,4.646,1.273,5.947,5.519,6.76,3.228.618,5.431,2.23,7.806,4.39,2.893,2.631,2.357,5.693,2.946,8.857,1.382,7.432,3.049,14.781,3.793,22.347.405,4.127,1.474,4.639,5.369,4.507,8.526-.288,17.1-.3,25.552-1.32A242.659,242.659,0,0,1,221.769,552c5.444.09,10.9-.07,16.339-.289,9.478-.382,10.016-1.064,9.018-10.53-.076-.717-.317-1.416-.432-2.13-1.145-7.123-5.714-12.457-9.656-18.054-2.511-3.565-5.333-6.942-7.158-10.906-3.615-7.851-9.91-12.267-17.9-14.7A83.941,83.941,0,0,1,198.779,490.437Zm543.358,45.422c17.61.309,35.205.351,52.766-1.3,3.706-.347,3.556-.292,4.018-4.089,1-8.248-2.921-15.973-2.4-24.151-3.358-9.6-4.4-19.744-6.893-29.552-1.209-4.752-3.241-9.3-4.074-14.056-2.169-12.371-5.947-24.273-9.613-36.216a343.939,343.939,0,0,1-9.954-39.482c-1.518-8.373-3.3-16.671-5.134-24.969-.492-2.229-1.327-2.7-3.359-1.847-.493.208-.9.6-1.382.851-5.456,2.854-6.62,2.434-8.486-3.373a29.642,29.642,0,0,1-.958-5.337c-1.346-10.607-1.127-21.278-.784-31.911.314-9.74,1.25-19.467,2.173-29.175.292-3.074-.193-6.116.389-9.21,1.436-7.619,1.407-15.418,2.558-23.1.838-5.6-1.268-11.128-1.585-16.695-.568-9.959-6.084-17.623-10.785-25.727a4,4,0,0,0-1.972-1.8,63.22,63.22,0,0,1-6.676-3.6c-4-2.183-7.813-.582-9.226,3.485-.656,1.887.078,3.632.581,5.314,3.755,12.559,5.448,25.493,7.115,38.432.529,4.107-.058,8.28.876,12.4a24.527,24.527,0,0,1,.159,6.517,2.892,2.892,0,0,1-2.837,2.788c-1.294.116-1.747-1.142-2.115-2.155-1.174-3.232-2.555-6.391-2.523-9.968a15.506,15.506,0,0,0-.791-5.353c-3.438-9.424-5.32-19.2-7.044-29.04-1.655-9.446-4.54-18.7-4.532-28.4.006-6.813-2.28-13.2-3.356-19.8a3.105,3.105,0,0,0-3.455-2.754,30.1,30.1,0,0,0-3.772.328c-6.628.843-13.037,3.032-19.785,3.174-6.487.136-12.985.165-19.453.609-7.345.5-13.269,3.383-16.108,10.853-.9,2.358-2.373,4.489-3.478,6.775-.787,1.628-1.952,3.335-1.973,5.018-.046,3.733-1.984,6.273-3.892,9.2-2.314,3.555-5.611,5.662-8.931,7.651-6.072,3.639-12.6,6.215-19.93,4.213a37.148,37.148,0,0,0-8.608-1.06,51.645,51.645,0,0,1-11.234-1.765c-9.171-2.37-18.273-1.83-27.329.653-2.683.735-5.131,1.735-6.468,4.487-2.576,5.3-6.817,9.37-10.516,13.831-1.645,1.984-4.473,2.848-5.663,1.959-1.252-.936-1.08-3.384.589-5.948,1.682-2.585,3.885-4.905,5.148-7.667a24.507,24.507,0,0,1,5.054-6.94c6.119-6.3,13.839-8.3,22.262-8.516,9.593-.244,19.129.023,28.727-1.857a67.72,67.72,0,0,0,19.517-7.33c10.644-5.743,18.614-14.387,26.835-22.843.37-.38.788-.849.346-1.391a1.548,1.548,0,0,0-.945-.391,14.189,14.189,0,0,0-1.626-.052q-30.449-.5-60.9-.971a10.038,10.038,0,0,0-4.277.479c-6.728,3.191-14.027,4.085-21.2,4.276a104.158,104.158,0,0,0-24.543,3.556,8.011,8.011,0,0,0-5.125,3.439c-4.615,6.84-6.514,14.788-7.3,22.585a140.278,140.278,0,0,0,.475,33.05c1.811,13.286,2.812,26.681,4.4,40,1.282,10.778,2.832,21.526,4.405,32.266,1.284,8.767,1.044,17.358-2.464,25.619-1.2,2.823-2.7,5.52-4.126,8.244a84.936,84.936,0,0,0-7.523,20.889,25.814,25.814,0,0,1-12.36,17.243c-6.544,3.743-10.681,9.105-13.671,15.673-2.927,6.428-5.418,13.034-9.263,19.052a21.587,21.587,0,0,0-3.258,12.978,56.443,56.443,0,0,1-.452,7.055,10.7,10.7,0,0,1-2.878,6.312,1.363,1.363,0,0,1-.938.407c-.691-.01-.75-.6-.778-1.123-.256-4.867-1.138-9.8-.63-14.589a122.912,122.912,0,0,1,11.67-41.122c2.873-5.894,6.582-11.567,12.693-14.515,6.178-2.98,9.231-7.95,10.958-14.086a41.368,41.368,0,0,0,1.665-11.78q-.194-15.222-.152-30.445c.015-3.619.131-7.238.414-10.867.577-7.411.683-14.858.983-22.29.05-1.223-.516-1.557-1.671-1.274-3.32.812-5.956,3.009-8.982,4.429-9.022,4.233-17.782,9.03-26.851,13.154-5.381,2.447-9.116,6.331-10.762,11.623-2.639,8.483-6.01,16.678-8.873,25.058-2.972,8.7-5.471,17.578-7.759,26.486-3.366,13.1-7.58,25.99-9.92,39.362-2.149,12.277-8.068,21.925-20.023,27a6.492,6.492,0,0,0-3.794,4.344c-1.121,3.63-2.4,7.219-3.364,10.89-2.025,7.722-3.825,15.5-5.834,23.23-3.1,11.923-6.222,23.832-8.31,35.994-1.163,6.777-1.766,13.643-3.472,20.342a121.821,121.821,0,0,0-2.153,12.3c-.512,3.476-.248,3.694,3.308,3.236,1.979-.255,3.927-.737,5.905-1,15.115-1.99,30.245-3.866,45.348-5.94a616.218,616.218,0,0,1,67.269-5.506c7.618-.206,15.292-.133,22.833-1.06,16.4-2.016,32.831-3.624,49.327-4.51,14.83-.8,29.669.41,44.516-.2,13.049-.539,26.134-.18,39.187-.649,15.391-.552,30.767-.578,46.146.064C720.384,534.754,731.259,535.335,742.137,535.859ZM290.077,392.305c-2.352,0-4.7-.053-7.055.012-3.591.1-5.81-1.617-6.9-4.963-.393-1.209-.858-2.395-1.235-3.608-3.279-10.557-6.935-20.981-11.208-31.178-1.612-3.845-1.624-7.38,1.256-10.65,4-4.536,6.706-9.882,9.565-15.144,1.207-2.222,2.788-4.242,3.98-6.471,2.537-4.748,6.444-6.271,11.7-6.156,6.338.138,12.692-.465,19.04-.708,2.271-.088,2.985-.947,2.844-3.4a106.524,106.524,0,0,1,.373-14.663c.449-5.564.928-11.236-.133-16.829-.339-1.784-.97-2.269-2.919-1.222-7.319,3.934-14.027,9.025-22.24,11.294-6.128,1.694-8.067,1.25-11.807-4.089-3.59-5.127-4.708-5.553-10.73-4.082-.529.13-1.064.246-1.581.414-6.189,2.016-12.781,2.977-18.513,6.165a110.842,110.842,0,0,1-17.351,7.7c-5.79,2.028-11.735,3.684-17.267,6.446a7.9,7.9,0,0,0-4.914,7.075c-.467,5.133-2.9,9-8.7,10.333-8.762,2.017-16.532,6.293-23.631,11.831-4.125,3.218-6.789,6.967-5.96,12.5a7.578,7.578,0,0,1-.219,2.7,104.424,104.424,0,0,0-1.791,32.994c.34,3.6.473,7.224.734,10.834.665,9.223,1.365,18.443,2,27.667.077,1.1.039,2.089,1.063,2.881,6.2,4.8,9.118,11.254,10.278,18.935.781,5.178,1.74,10.367,2.824,15.5,2.358,11.163,5.429,15.045,15.307,16.141a7.727,7.727,0,0,1,2.618.683c7.91,4.035,16.011,7.681,23.731,12.108,4.469,2.563,6.824,6.94,10.152,10.48a13.377,13.377,0,0,1,3.437,6.659,35.365,35.365,0,0,0,3.819,10.144c4.424,7.92,9.294,15.555,14.287,23.116a18.508,18.508,0,0,0,6.658,6.284,15.9,15.9,0,0,1,7.078,7.324c.91,2,1.971,2.7,4.124,2.441,5.79-.684,11.559.058,17.314.632,4.128.412,8.279,1.683,12.347,1.426,14.442-.914,28.591,1.557,42.745,3.477,5.7.773,11.086,2.276,16.928.835,3.654-.9,7.57-.714,11.358-1.112,1.317-.138,2.463-.557,2.02-2.427-.9-3.791.108-7.556.321-11.337a185.461,185.461,0,0,1,4.3-30.63c3.209-14.132,6.829-28.174,10.483-42.2,3.214-12.335,7.786-24.1,15.134-34.686a34.823,34.823,0,0,0,4.35-9.329c1.942-6.086,2.361-12.448,3.736-18.617,3.822-17.14,7.766-34.258,14.675-50.517,3.548-8.35,7.446-16.464,13.426-23.409,1.3-1.508,2.525-3.086,3.708-4.688,7.323-9.919,16.053-18.012,27.388-23.41,12.5-5.951,20.055-16.276,23.5-29.638,1.447-5.606,2.827-11.231,4.381-16.808,4.554-16.351,10-32.461,12.882-49.256,1.047-6.1,3.213-11.912,5.446-17.661,1.663-4.282,4.6-7.27,9.385-8.183,2.3-.439,4.467-1.6,6.77-2,2.54-.437,2.962-1.94,3.37-4.122.471-2.52.1-5.02.482-7.548.776-5.187,1.6-10.374,1.868-15.659a121.98,121.98,0,0,0-.666-19c-.66-6.243-1.306-12.5-2.021-18.744-.191-1.663-.745-1.873-1.974-1.008a54.473,54.473,0,0,1-8.463,4.9,76.217,76.217,0,0,0-14.335,8.8,119.4,119.4,0,0,1-15.043,9.739,132.36,132.36,0,0,0-18.793,11.963c-8.5,6.75-17.174,13.322-26.733,18.549-10.72,5.862-20.6,12.577-28.17,22.511-3.907,5.125-10.268,7.342-16.03,9.992a44.968,44.968,0,0,0-7.516,4.3c-4.123,2.955-8.178,6.121-12.95,7.96a31.68,31.68,0,0,0-10.4,6.767c-5.3,4.986-10.916,9.431-18.3,11.234-2.081.508-4.028,2.482-5.51,4.231-1.1,1.3.2,3.109.552,4.673,1.032,4.568-.7,9.142-4.959,10.863-6.276,2.536-11.706,6.527-17.718,9.473-3.018,1.479-4.439,3.68-5.2,7.015-1.462,6.4-1.249,12.989-2.594,19.331a72.943,72.943,0,0,0-1.4,17.247c.083,3.066-1.435,6.834.464,9.021,2.112,2.432,6.178,1.062,9.362,1.571,5.713.912,11.457,1.642,16.64,4.531,1.288.717,2.63,1.324,3.264,2.731.963,2.133,1.9,4.285,2.729,6.472,2.907,7.639,5.87,15.231,12.21,20.865A17.972,17.972,0,0,1,369.312,351c1.209,1.463,1.378,2.8-.145,4.265-2.616,2.52-4.371,5.682-6.216,8.773-4.274,7.158-8.611,14.2-14.017,20.677-4.245,5.083-9.19,7.649-15.372,7.909-11.051.465-22.123.357-33.172-.225C296.949,392.218,293.526,391.84,290.077,392.305Zm293.2-228.728c0,3.3-.088,7.112.025,10.915.109,3.7.891,4.494,4.5,4.653,2.536.113,5.083.028,7.623-.04,3.816-.1,3.893-.124,4.167-3.939.74-10.288,1.31-20.589,2.138-30.869.574-7.132,2.283-13.874,7.129-19.56A13.7,13.7,0,0,1,627,122.107c5.057,3.251,8.722,7.5,10.241,13.515a44.5,44.5,0,0,1,1.693,12.873c-.3,6.9.64,13.744.652,20.626a59.734,59.734,0,0,0,.713,7.034,2.563,2.563,0,0,0,2.89,2.549c2.722-.047,5.449-.066,8.169.028,1.9.065,2.549-.89,2.68-2.6.278-3.622.647-7.256-.533-10.786a17.269,17.269,0,0,1-.532-6.466c.377-7.763.915-15.522,1.112-23.289.348-13.762-.89-27.463-1.95-41.166-.115-1.484-.333-2.09-2.262-1.83-4.4.595-5.81-.7-6.472-5.106a23.915,23.915,0,0,1,.041-7.575c.612-3.648.395-3.82-3.01-3.41-3.493.421-3.562.506-3.677,4.522-.151,5.319-1.177,6.66-6.193,8.018-1.922.52-3.835,1.126-5.792,1.451-3.417.566-5.248-.8-5.556-4.227a56.8,56.8,0,0,1,.132-5.971c.019-1.132-.162-2.256-1.486-2.561a9.323,9.323,0,0,0-5.843.7c-1.737.745-1.435,2.4-1.369,3.787.255,5.418-2.508,8.433-7.508,9.8-2.1.573-4.131,1.422-6.255,1.816-4.631.858-7.1-.486-7.915-6.347a6.439,6.439,0,0,1,.3-2.684c.586-1.893-.521-2.206-1.948-2.3-.725-.046-1.452-.083-2.177-.065-4.736.122-5.036.643-5.3,5.25-.681,11.636.949,23.161,1.426,34.739.282,6.856.56,13.717,1.076,20.557C582.845,149.684,583.738,156.345,583.278,163.577ZM688.9,122.158c.05-11.042.2-22.088-.728-33.112-.195-2.317-1.348-2.675-3.224-2.432-2.507.326-5.007.782-7.54.133-2.907-.745-3.641-1.639-3.365-4.595.236-2.524.634-5.033.946-7.551.337-2.722,2.1-4.124,4.559-4.731a26.73,26.73,0,0,1,4.3-.562c5.259-.413,5.258-.4,6.263-5.53.243-1.242.563-2.473.739-3.724.434-3.066.408-3.1-2.566-3.082-5.256.038-10.515.033-15.767.222a51.367,51.367,0,0,0-8.091.923c-3.62.716-3.646.944-4.146,4.569-.822,5.955-.449,11.95-.616,17.926-.143,5.073.014,10.155.081,15.233a1.908,1.908,0,0,0,.527,1.365c.55.407.9-.1,1.181-.613,1.843-3.362,4.666-1.838,7.155-1.272,2.561.583,4.848,1.774,5.141,4.843a35.917,35.917,0,0,1,.079,8.676c-.6,4.119-1.023,4.4-4.966,5-2.654.4-6.205-1.784-7.553.2-1.21,1.783.034,5.219.162,7.928a20.534,20.534,0,0,1,0,3.262c-1.915,16.848.353,33.657.475,50.485.02,2.8,1.03,3.761,3.684,3.068a84.8,84.8,0,0,1,19.319-2.36c2.086-.055,2.8-.983,2.9-2.986.246-4.959-.512-9.834.158-14.914,1.107-8.39.7-16.983.876-25.492C688.965,129.412,688.9,125.784,688.9,122.158ZM546.3,106.841c0,5.445-.007,10.889.007,16.334,0,1.065-.133,2.505,1.282,2.57,2.146.1,4.482.226,6.418-.505,1.816-.686,1.347-3.111,1.732-4.82.12-.53.146-1.08.251-1.615,1.336-6.849,1.361-6.762,8.208-8.68a3.574,3.574,0,0,1,3.471.572c3.888,2.839,4.265,6.863,3.912,11.2-.448,5.5-1.441,6.9-6.738,8.244-1.513.384-2.179.959-2.192,2.464-.037,4.353-.287,8.7.858,12.994.835,3.133-.317,4.74-3.527,5.118a10.141,10.141,0,0,1-5.873-.674c-1.619-.807-3.243-1.6-4.857-2.419-1.846-.933-2.494-.62-2.853,1.442-.093.533-.067,1.085-.131,1.624-1.044,8.765,1.339,17.337,1.5,26.044.056,3.061.9,3.585,4.3,3.415,5.6-.279,11.071-1.678,16.7-1.951,4.812-.233,4.91-.486,4.625-5a51.4,51.4,0,0,1,1-15.157,38.182,38.182,0,0,0,.974-13.51c-.78-6.161-.184-12.312-.526-18.458-.161-2.887-.023-5.777-.264-8.686-.792-9.572-1.84-19.144-1.121-28.781.641-8.587-.65-16.958-2.781-25.253-.544-2.122-1.255-3.131-3.7-2.563-4.591,1.068-9.245,1.87-13.879,2.746-2.453.464-3.914,1.544-3.668,4.389a19.876,19.876,0,0,1-.528,4.846C547.016,84.046,545.449,95.354,546.3,106.841ZM310.588,384.681a30.784,30.784,0,0,1,7.222-.057c4.525.267,9.059.5,13.59.532,5.349.036,9.562-1.564,12.613-6.706,4.162-7.013,7.723-14.393,12.373-21.093,1.6-2.309,1.254-3.779-.3-5.69-4.495-5.542-7.439-12-10.38-18.414-4.028-8.785-1.839-9.36-14.458-8.589-.54.033-1.071.238-1.609.254-9.924.3-19.781,2-29.754,1.341-2.7-.177-5.425.1-8.122-.086a4.14,4.14,0,0,0-4.627,2.761,143.658,143.658,0,0,1-11.62,20.234c-1.789,2.642-1.951,5.542-1.169,8.814,1.819,7.611,4.789,14.83,7.037,22.288.855,2.839,2.7,4.5,5.986,4.45C294.989,384.6,302.608,384.681,310.588,384.681ZM278.751,268.527c-.074,6.741,2.079,8.244,8.507,5.791,8.324-3.177,16.122-7.477,24.019-11.544,10.322-5.317,20.4-11.083,30.542-16.744,7.777-4.343,6.747-2.6,3.045-10.724a6.549,6.549,0,0,0-.954-1.322c-2.032-2.5-2.981-2.866-6.041-1.551-6.491,2.79-12.882,5.813-19.37,8.609-12.553,5.41-23.824,13.075-35.569,19.916C279.767,262.8,278.765,265.242,278.751,268.527ZM682.743,48.443c1.814,0,3.628.006,5.442,0,4.466-.02,4.522-.3,2.905-4.613-3.862-10.313-10.509-19-16.2-28.255a5.976,5.976,0,0,0-.637-.882c-.606-.666-1.182-1.63-2.117-1.556-1.026.081-1.173,1.2-1.421,2.048-.2.7-.414,1.389-.6,2.09A175.216,175.216,0,0,1,660.566,43.8a52.148,52.148,0,0,0-2.053,5.61c-.73,2.294-.115,2.892,2.3,2.376.354-.076.7-.208,1.042-.319A67.542,67.542,0,0,1,682.743,48.443ZM573.4,53.564c.674-.108,1.759-.225,2.819-.462,2.528-.564,2.772-.986,1.376-3.16a105.1,105.1,0,0,0-6.166-8.927c-5.116-6.4-8.544-13.869-13.2-20.55-.51-.733-1.179-2.015-1.669-1.967-1.105.108-1.441,1.406-1.841,2.393-.614,1.512-1.334,2.994-1.791,4.552C550.18,34.808,547.5,44.192,544.8,53.57c-.1.346-.148.7-.234,1.055-.254,1.025.263,1.248,1.12,1.044C554.678,53.532,563.694,51.691,573.4,53.564ZM625.9,150.2c.133,10,.212,17.774,1.127,25.508.325,2.748,1.255,3.389,3.87,3.108,2.146-.231,2.821-.995,2.169-3.944-.961-4.346-.3-8.663-.281-12.981a149.962,149.962,0,0,0-1.885-23.106,14.99,14.99,0,0,0-2.782-6.988c-.409-.533-.835-1.377-1.684-.842a1.846,1.846,0,0,0-.513,1.371C625.884,139.021,625.9,145.718,625.9,150.2Zm-8.774,2.664c0,7.8.023,15.59-.016,23.385-.01,2.149,1.018,2.78,3.035,2.745,2.158-.037,2.748-.892,2.607-3.006-.589-8.835,1.035-17.776-1.3-26.538a14.72,14.72,0,0,1-.083-2.708c-.381-5.477.674-10.838,1.237-16.242.278-2.659-.429-3.55-2.6-3.779-2.559-.271-3.548.586-3.761,3.353a14.092,14.092,0,0,0,.037,2.717C617.066,139.461,616.837,146.165,617.121,152.861ZM613.469,135.9l-.083-.009a14.3,14.3,0,0,0,.126-2.7c-.152-1.138.911-2.915-.468-3.271-1.2-.31-1.819,1.494-2.37,2.6a16.149,16.149,0,0,0-1.122,3.044,62.5,62.5,0,0,0-2.449,16.607c.053,5.787.162,11.573.256,17.359.042,2.537.139,5.074.153,7.611.013,2.3,1.661,1.922,3.06,1.912,1.86-.015,1.275-1.281,1.061-2.262a48.788,48.788,0,0,1-.576-14.013C611.711,153.8,612.649,144.852,613.469,135.9Zm-58.693-5.382c-6.3.09-6.314.09-6.341,5.059a24.894,24.894,0,0,0,.15,4.306c.484,2.827,6.877,5.083,8.919,3.192a2.4,2.4,0,0,0,.626-1.392c.318-2.675.53-5.362.852-8.036.255-2.119-.84-2.932-2.743-3.057C555.349,130.527,554.457,130.5,554.776,130.513ZM677.253,77.644c.027,4.506.544,4.938,5.109,4.186A27.127,27.127,0,0,0,685,81.2c2.664-.719,3.326-1.658,3.269-4.594-.046-2.4-.613-2.9-3.792-3.376-1.251-.188-2.492-.478-3.75-.581-2.682-.218-3.25.269-3.465,2.829C677.2,76.192,677.253,76.921,677.253,77.644ZM558.927,119.657a5.929,5.929,0,0,0,.049,3.212c.231.656.32,1.309,1.192,1.606,3.131,1.065,5.316-.229,5.616-3.459a19.938,19.938,0,0,0,.088-2.7c-.136-3.157-1.576-4.159-4.543-3.308C558.831,115.726,558.507,117.488,558.927,119.657Zm110.491-15.375c-.04-.536-.107-1.072-.117-1.608-.035-1.813-.506-3.19-2.737-3.067-1.9.1-3.654.326-3.679,2.85-.011,1.071-.143,2.141-.134,3.211a2.428,2.428,0,0,0,2.219,2.567C668.245,108.905,669.416,107.888,669.418,104.282ZM481.7,593.747c-4.789.693-9.714,1.362-14.094,3.78-.294.163-.655.439-.726.726-.2.826.539.68.974.771a59.419,59.419,0,0,0,22.166.457c7.926-1.332,15.929-1.8,23.736.417a62.42,62.42,0,0,0,20.412,2.07,23.283,23.283,0,0,1,3.205-.12,117.065,117.065,0,0,0,28.069-1.4c9.255-1.462,18.567-2.815,27.831-3.79q17.358-1.827,34.692-3.957c16.7-2.048,33.049-6.277,49.514-9.725,10.283-2.154,20.476-4.794,31-5.356a166.535,166.535,0,0,0,31.133-4.577c2.4-.592,4.883-1.514,7.484-.932.5.113,1.234.406,1.326-.326.115-.906-.762-1.063-1.454-1.179a30.063,30.063,0,0,0-10.271.493,102.136,102.136,0,0,1-20.578,1.751,263.473,263.473,0,0,0-39.621,2.3c-8.1,1.009-16.26,1.579-24.412,1.994-18.294.932-36.619-.758-54.923.58-9.4.688-18.857.725-27.991,3.5-8.011,2.431-16.269,3.607-24.54,4.647-9.887,1.243-19.814,2.309-29.482,4.761a56.309,56.309,0,0,1-18.131,1.605C493.525,591.732,487.59,592.9,481.7,593.747Zm-51.747-5.195c-1.8-.733-3.568-.162-5.351.083a40.65,40.65,0,0,1-15.091-.335c-3.458-.812-7.1-1.55-10.748-.951a87.06,87.06,0,0,1-12.455.777,66.679,66.679,0,0,0-24.19,5.468c-1.327.547-3.194.928-2.731,2.738.415,1.627,2.189,1.608,3.7,1.412.9-.116,1.8-.182,2.7-.307a100.3,100.3,0,0,1,23.3-.3,54.109,54.109,0,0,0,11.827-.07,99.6,99.6,0,0,0,28.967-8.619Zm-.075-.105a4.827,4.827,0,0,0,.017-.509.751.751,0,0,0-.11-.236l.168.85Zm198.77-310.919c2.871-.018,5.437.606,7.087,3.189,5.072,7.941,11.357,15.064,15.59,23.581,2.74,5.514,5.744,10.908,8.859,16.222,3.341,5.7,7.56,10.861,13.66,13.574a26.509,26.509,0,0,1,9.169,6.534A176.413,176.413,0,0,0,700.1,356.571a12.372,12.372,0,0,0,6.942,2.785c4.657.511,8.97-.83,13.3-2.174,3.813-1.183,3.764-1.156,6.339,1.84a20.706,20.706,0,0,1,2.737,4.673c1.185,2.444,2.187,4.987,3.511,7.352a5.955,5.955,0,0,0,8.877,1.814c1.185-.888,1.763-1.481.394-3.351-3.954-5.4-9.183-9.761-12.409-15.747a6.577,6.577,0,0,0-7.4-3.394,52.645,52.645,0,0,0-5.866,1.168c-6,1.788-10.666-.1-14.374-4.921-.885-1.15-1.848-2.239-2.734-3.388-3.763-4.876-7.359-9.913-11.761-14.232a44.611,44.611,0,0,1-10.729-17.417,42.579,42.579,0,0,0-6.1-12.08,91.975,91.975,0,0,1-12.891-22.515c-1.984-5-5.493-8.844-11.673-9.12-9.43-.422-18.844-.757-28.251.334-9.721,1.128-19.318,3.219-29.124,3.726-1.534.079-3.914.284-4.076,1.884-.192,1.89,2.256,1.787,3.687,2.306a13.807,13.807,0,0,0,1.618.162c7.524,1.69,15.172.787,22.76,1.262C618.129,277.538,623.387,277.562,628.645,277.528ZM612.823,392.56a26.863,26.863,0,0,1,12.694,2.4c7.76,3.276,14.551,8.105,21.484,12.739,3.533,2.362,6.047,5.694,8.829,8.789,1.71,1.9,1.684,3.867.666,6.025-3.524,7.472-9.522,12.551-17.913,12.857a42.887,42.887,0,0,1-18.02-3.406c-9.133-3.765-18.442-6.436-28.513-5.318a19.243,19.243,0,0,0-6.8,1.589,34.245,34.245,0,0,1-5.064,1.941c-8.21,2.608-14.954.007-20.569-6.074-2.039-2.208-2.689-5.065-2.76-8.041-.163-6.941-.033-6.7,5.965-10.118C578.35,397.105,595.379,394.1,612.823,392.56Zm18.96,33.854a39.32,39.32,0,0,0,5.516-1.249c4.337-1.6,4.689-3.405,1.145-6.36-4.863-4.056-9.807-8.027-14.89-11.8a17.718,17.718,0,0,0-10.056-3.562,137.367,137.367,0,0,0-47.076,6.305,13.472,13.472,0,0,0-1.983.863,1.059,1.059,0,0,0-.521,1.381c1.641,3.292,2.374,7.191,7.008,8.173a15.483,15.483,0,0,0,9.533-.958c5.338-2.243,10.835-2.5,16.541-2.059a57.061,57.061,0,0,1,17.332,4.194c3.181,1.3,6.451,2.386,9.681,3.569A30.477,30.477,0,0,0,631.783,426.414Zm23.978,42.718c-10.609-1.605-20.971-.884-31.295-1.164-9.5-.258-17.687-9.068-17.4-18.539.064-2.137,1.085-3.866,1.848-5.588.889-2,3.658-1.965,5.3-1.523,8.156,2.2,16.2.191,24.28-.166,5.993-.265,11.97-.649,17.845,1.006a21.9,21.9,0,0,1,13.759,10.71c1.765,3.166,1.6,5.887-.956,8.905C665.437,467.136,661.063,469.284,655.761,469.132Zm-25.078-7.571c7.824.195,15.561-.979,23.339-1.5a15.813,15.813,0,0,0,4.241-.92c2.25-.809,2.481-2.537.564-4.075A12.178,12.178,0,0,0,656,453.511a45.094,45.094,0,0,0-13.139-3.122c-8.653-.943-17.4-.053-26-1.583-1.85-.329-2.8.384-2.879,2.214-.222,5.117,4.52,10.324,9.628,10.52C625.959,461.631,628.323,461.556,630.683,461.561ZM462.468,497.9c-1.817-.323-4.07-.364-6.03-1.141-5.392-2.137-10.307-.454-15.266,1.379a4.07,4.07,0,0,0-.466.279c-3.3,1.765-6.823,3.056-10.137.584a11.862,11.862,0,0,1-4.92-11.857,40.934,40.934,0,0,1,5.324-15.839c2.4-3.941,3.8-5.589,9.4-3.82,5.7,1.8,11.536,3.134,17.163,5.131,3.584,1.273,7.125,2.7,10.586,4.278,3.779,1.724,6.733,4.508,7.687,8.63,1.158,5-2.824,10.539-8.154,11.776A47.167,47.167,0,0,1,462.468,497.9ZM435.9,479.066h-.147c0,1.451-.037,2.9.007,4.353.134,4.459.134,4.433,4.422,2.461a31.826,31.826,0,0,1,4.6-1.591c6.069-1.735,11.439.356,16.794,2.7,1.484.651,2.8,1.655,4.492,1.847,2.656.3,4.141-1.134,3.813-3.8-.273-2.227-1.893-3.39-3.564-4.533-8.149-5.572-17.659-7.264-27-9.339-3.256-.724-3.6-.1-3.423,3.55C435.962,476.162,435.9,477.616,435.9,479.066Zm245.345-242.49a30.778,30.778,0,0,1-3.905-.709c-2.926-.933-6.1-4.709-5.7-7.223a7.631,7.631,0,0,1,5.187-6.343,69.063,69.063,0,0,0,11.85-5.285,7.646,7.646,0,0,1,9.048,1.262c1.786,1.83,2.372,3.924.987,5.88-3.814,5.381-8.614,9.637-14.994,11.811C682.881,236.256,681.987,236.4,681.248,236.576Zm.181-10.471c3.863-.083,7.037-1.8,10.139-3.548,1.37-.774.658-1.757-.408-2.423a3.215,3.215,0,0,0-3.542-.044c-2.177,1.235-4.381,2.424-6.563,3.652-.759.427-1.8.832-1.469,1.884C679.692,225.965,680.855,225.971,681.429,226.105Zm50.454,221.078c-7.159,0-8.692-1.18-10.277-7.522-1.289-5.156-1.278-5.109,3.821-6.305,3.88-.91,7.734-1.932,11.587-2.953a13.664,13.664,0,0,1,5.4-.4,6.257,6.257,0,0,1,4.706,9.431,14.829,14.829,0,0,1-9.3,7.047A12.741,12.741,0,0,1,731.883,447.183Zm-2.861-4.719c2.3-.244,4.3-.305,6.237-.7a11.107,11.107,0,0,0,6.094-3.275,2.378,2.378,0,0,0,.42-1.446c.006-.175-.511-.527-.791-.53-4.74-.045-9.238,1.3-13.745,2.532a1.735,1.735,0,0,0,.521,3.238A11.453,11.453,0,0,0,729.022,442.464ZM610.622,321.9c1.606-1.145,3.245-2.437,3-4.7-.19-1.75-3.174-4.288-5.092-4.18a36.987,36.987,0,0,0-11.9,2.742,4.983,4.983,0,0,0-2.007,1.726c-.858,1.214-.684,2.7.687,3.174,3,1.034,5.743,2.982,9.365,2.753C606.546,323.133,608.785,323.206,610.622,321.9ZM528.051,494.5a4.526,4.526,0,0,0-2.344,4.955c.517,2.008,2.205,2.484,3.814,2.322,5.377-.541,10.8-.925,15.721-3.629,1.3-.715,2.254-1.773,3.443-2.57a3.42,3.42,0,0,0,.628-.765,5.309,5.309,0,0,0-.924-.283c-4.127-.5-8.255-.981-11.337-1.345C533.261,493.106,530.555,493.274,528.051,494.5Zm189.638-68.529c-2.87.047-5.245-1.09-5.807-3.17-.718-2.662-1-5.276,1.383-7.566,4.34-4.172,10.168-4.247,13.306.022a3.822,3.822,0,0,1,.782,3.556C726.478,421.712,720.817,425.92,717.689,425.971Zm-1.2-3.707c.451,0,.816.03,1.175,0,1.533-.152,3.448-.928,3.272-2.219-.216-1.588-2.209-.716-3.466-.711a4.366,4.366,0,0,0-1.073.165c-.874.227-1.9.443-1.867,1.577C714.567,422.36,715.755,422.082,716.484,422.264ZM119.472,546.419a4.277,4.277,0,0,0,3.467-5.151,37.938,37.938,0,0,1-1.966-9.427,1.568,1.568,0,0,0-1.741-1.615,1.76,1.76,0,0,0-1.488,1.348c-1.209,3.418-1.392,7.031-2.057,10.552C115.69,544.683,117.367,546.585,119.472,546.419Zm44.008-67.79c-1.156-.716-2.359-.549-2.685.581-.932,3.237-2.13,6.51-1.34,9.971a1.805,1.805,0,0,0,3.287.715c1.9-2.189,1.983-4.918,2.136-7.465A3.009,3.009,0,0,0,163.48,478.629ZM598.1,109.749c.1-3.717-1.709-4.9-4.937-3.194-2.337,1.234-3.393,3.106-2.616,5.852a25.556,25.556,0,0,1,.608,9.655c-.319,3.288.6,5.373,2.1,5.633,1.8.312,4.957-2.947,5.219-5.456a13.085,13.085,0,0,0-.07-2.173c-.1-1.63-.221-3.258-.314-4.6C598.093,113.368,598.054,111.557,598.1,109.749Zm45.342.97c0-.726,0-1.451,0-2.177,0-.906.036-1.816-.023-2.719-.2-3.111-1.812-5.394-3.633-5.209-1.55.158-2.707,2.135-2.9,5.3-.176,2.883-.093,5.763-.886,8.609a5.4,5.4,0,0,0,1.136,4.606,2.345,2.345,0,0,0,2.3,1.124c1.677-.3,3.932-2.8,4.078-4.637.128-1.622.027-3.262.027-4.893ZM299.454,332.865c6.188.469,12.259-.884,18.395-1.252,6.357-.381,12.659.7,19,.214,2.324-.18,3.685,1.424,4.58,3.274,3.072,6.348,6.023,12.755,9.067,19.117.731,1.527-.114,2.385-1.111,3.236A25.74,25.74,0,0,1,340.9,362a30.056,30.056,0,0,1-14.5,1.279c-5.33-.862-10.591-1.865-16.072-1.8-7.794.094-15.443-1.757-23.162-2.693-5.414-.657-6.45-2.765-4.335-7.886,2-4.843,4.449-9.5,6.464-14.337,1.247-3,3.279-4.044,6.347-3.723A37.165,37.165,0,0,0,299.454,332.865Zm35.288,20.186V352.9a11.236,11.236,0,0,0,2.172-.022c1.918-.384,4.382.14,5.558-1.621s-1.256-3.086-1.6-4.788c-.783-3.918-1.873-7.51-7.191-6.074-4.667-2.6-9.428-.588-14.152-.28-1.991.13-3.975.374-5.967.455a67.472,67.472,0,0,1-18.37-1.432c-1.072-.253-2.223-.715-2.814.622-1.607,3.641-3.718,7.077-4.644,11-.4,1.712.122,2.965,2.135,2.758,6.337-.654,12.7.111,19.023-.319,7.9-.536,15.757-2.49,23.678-.177A8.042,8.042,0,0,0,334.742,353.051Zm-4,24.128c3.182-.2,6.38-2.053,5.783-3.045a6.645,6.645,0,0,0-5.962-3.055,13.075,13.075,0,0,0-1.633.014c-2.536.273-5.081.012-7.6.1-4.883.167-9.865.241-14.594,1.3a44.147,44.147,0,0,1-12.939.6c-.9-.062-1.793-.251-2.69-.374-1.862-.257-2.307.669-2.656,2.411-.479,2.392,1.224,1.782,2.156,1.83,7.767.395,15.54.681,23.328,1C319.527,377.708,325.138,377.528,330.739,377.179Z"/></g></g></svg>