<?xml version="1.0" encoding="UTF-8"?>
<svg width="73px" height="68px" viewBox="0 0 73 68" version="1.1" xmlns="http://www.w3.org/2000/svg" xmlns:xlink="http://www.w3.org/1999/xlink">
    <!-- Generator: Sketch 62 (91390) - https://sketch.com -->
    <title>chatbot</title>
    <desc>Created with Sketch.</desc>
    <g id="Page-1" stroke="none" stroke-width="1" fill="none" fill-rule="evenodd">
        <g id="dato-omnichannel" transform="translate(-488.000000, -18.000000)" fill="#000000" fill-rule="nonzero">
            <g id="Group-4" transform="translate(479.000000, 18.000000)">
                <path d="M40.3233,36.6928294 C40.2253,36.9828294 40.3163,37.4338294 40.4933,37.7028294 C41.6873,39.5158294 43.5213,40.3398294 45.5683,40.2938294 C47.6493,40.2458294 49.4263,39.3268294 50.2543,37.2058294 C50.3623,36.9278294 50.3833,36.4808294 50.2283,36.2708294 C50.0463,36.0228294 49.5813,35.7648294 49.3233,35.8328294 C48.6443,36.0128294 47.9613,36.2888294 47.3693,36.6678294 C45.6333,37.7798294 44.0963,37.7128294 42.5933,36.2098294 C42.2873,35.9038294 41.5993,35.9798294 41.1703,35.8958294 C40.8063,36.2198294 40.4193,36.4068294 40.3233,36.6928294 M55.0523,25.9338294 C54.8323,25.7008294 54.6373,25.3038294 54.3883,25.2648294 C53.4343,25.1178294 52.3413,26.0318294 52.2833,27.0358294 C52.2513,27.6048294 52.6873,27.9828294 53.2493,27.9648294 C54.3733,27.9318294 55.1643,26.9948294 55.0523,25.9338294 M49.7463,27.6188294 C49.8633,25.2868294 51.3023,23.2598294 53.0783,22.8018294 C54.3013,22.4868294 55.5643,22.4988294 56.5713,23.5118294 C57.4723,24.4188294 57.7873,26.2458294 57.2553,27.5068294 C56.2103,29.9788294 52.6083,30.8778294 50.5533,29.0988294 C50.0733,28.6828294 49.8983,27.9118294 49.7463,27.6188294 M40.5323,26.5628294 C40.4523,26.4018294 40.3953,26.2248294 40.2893,26.0838294 C39.8173,25.4548294 39.1683,25.1148294 38.4453,25.4768294 C37.4853,25.9578294 36.5623,26.5558294 36.2793,27.7138294 C36.2613,27.7898294 36.4893,27.9768294 36.6333,28.0318294 C37.8863,28.5138294 39.0903,28.5368294 40.0853,27.4808294 C40.3073,27.2438294 40.3873,26.8728294 40.5323,26.5628294 M37.0843,30.5878294 C36.7463,30.5328294 36.1673,30.5518294 35.7033,30.3288294 C35.2643,30.1188294 34.7603,29.7208294 34.6083,29.2908294 C33.5783,26.3758294 35.4003,23.2868294 38.3693,22.7958294 C40.0043,22.5248294 42.6383,24.1928294 43.0023,25.7718294 C43.0773,26.0968294 43.0213,26.4908294 42.9123,26.8148294 C41.9113,29.7868294 40.5113,30.7158294 37.0843,30.5878294 M45.7523,45.6348294 L45.7523,45.5838294 C49.7463,45.5838294 53.7423,45.5208294 57.7343,45.6088294 C59.9613,45.6578294 62.0303,45.0588294 64.1243,44.4948294 C64.8533,44.2978294 65.4743,43.8768294 65.6983,43.1338294 C67.0223,38.7588294 67.8763,34.2318294 66.9483,29.7588294 C66.3123,26.6868294 66.0923,23.6868294 66.1933,20.6138294 C66.2553,18.7128294 65.1143,17.0768294 63.1733,16.5668294 C59.1513,15.5098294 55.0333,14.5968294 50.8773,15.8318294 C49.2693,16.3098294 47.6603,16.4638294 46.0443,16.3998294 C40.5973,16.1818294 35.2073,16.5708294 29.8413,17.5188294 C27.6883,17.8998294 26.2163,19.1948294 25.9453,21.3758294 C25.8333,22.2718294 25.8693,23.1888294 25.8773,24.0958294 C25.9183,28.9978294 26.1783,33.9098294 25.9473,38.7978294 C25.7913,42.1118294 27.2823,43.8048294 30.0593,44.9998294 C31.2873,45.5268294 32.5063,45.6228294 33.7703,45.6288294 C37.7643,45.6458294 41.7583,45.6348294 45.7523,45.6348294 M71.6933,35.2508294 C71.6933,37.8568294 71.7503,40.3988294 71.6773,42.9368294 C71.5973,45.7028294 69.6923,48.4398294 67.1023,48.9448294 C64.6353,49.4258294 62.2283,50.3048294 59.6343,50.1988294 C57.0983,50.0958294 54.5523,50.1868294 52.0143,50.2638294 C48.5953,50.3678294 45.2163,50.3328294 41.7703,50.9558294 C38.2943,51.5858294 34.5603,51.7148294 31.0063,50.5408294 C30.1583,50.2618294 29.2303,50.1138294 28.3383,50.1088294 C25.8563,50.0908294 24.1993,48.7098294 23.1133,46.7438294 C21.4483,43.7278294 20.0393,40.5598294 20.2893,36.9758294 C20.4903,34.1018294 20.3213,31.2378294 21.0263,28.3448294 C21.6113,25.9428294 21.4633,23.3198294 21.0003,20.7778294 C20.4463,17.7378294 22.1523,14.8368294 25.1253,14.1928294 C27.5763,13.6618294 30.0553,13.1578294 32.5523,12.7608294 C39.2163,11.7028294 45.9053,11.9268294 52.5853,11.6748294 C53.6823,11.6328294 54.7073,11.4408294 55.7713,11.1708294 C59.8373,10.1378294 63.6803,11.1358294 67.3103,12.9268294 C70.2883,14.3968294 72.0853,16.6798294 71.7643,20.3008294 C71.5893,22.2708294 72.0623,28.6648294 72.1863,29.9348294 C72.3593,31.6908294 71.8843,33.5098294 71.6933,35.2508294 M41.9183,6.6288294 C39.0173,6.6288294 36.1153,6.6098294 33.2153,6.6328294 C28.8793,6.6688294 24.5483,6.5378294 20.2723,7.6418294 C17.2953,8.4098294 15.1953,10.5538294 14.9873,13.6248294 C14.9383,14.3468294 14.9443,15.0738294 14.9463,15.7988294 C14.9643,23.2318294 14.9773,30.6648294 15.0113,38.0978294 C15.0303,42.0868294 15.1153,46.0758294 15.1163,50.0648294 C15.1173,51.9668294 16.0773,53.0358294 17.7553,53.7468294 C18.7903,54.1858294 19.8193,54.3588294 20.9153,54.3788294 C23.9983,54.4328294 27.0863,54.6608294 30.1603,54.5318294 C33.0983,54.4098294 35.9023,55.1088294 38.7563,55.4868294 C40.2193,55.6818294 40.6563,56.5528294 40.6893,58.7038294 C40.7033,59.5518294 41.2433,60.0538294 41.8663,59.7128294 C43.4453,58.8498294 45.0833,58.0508294 46.5183,56.9858294 C48.3223,55.6478294 50.3533,54.7478294 52.4623,54.5158294 C56.9373,54.0248294 61.3743,53.0138294 65.9313,53.3258294 C67.7353,53.4498294 69.5583,53.2538294 71.3683,53.3188294 C73.4603,53.3938294 76.5403,50.6258294 76.4733,46.6638294 C76.1123,45.7928294 76.8843,39.4178294 76.1803,37.0838294 C75.8253,35.9068294 75.9923,34.5648294 75.9733,33.2968294 C75.8983,28.4008294 75.7483,23.5028294 75.8233,18.6078294 C75.8593,16.2138294 75.2803,13.9598294 74.9123,11.6488294 C74.6513,9.9998294 73.7213,9.1948294 72.1123,8.7948294 C66.4803,7.3908294 60.7113,7.0778294 54.9713,6.6878294 C50.6393,6.3928294 46.2713,6.6298294 41.9183,6.6288294 M80.4773,24.5298294 C80.6723,30.0628294 80.4733,34.5688294 81.2153,39.0928294 C81.7673,42.4598294 81.5223,45.9738294 81.4653,49.4198294 C81.3883,54.1648294 77.9693,57.5908294 73.2203,57.7038294 C67.7783,57.8328294 62.3323,57.8948294 56.8883,57.8708294 C54.8143,57.8608294 53.1283,58.4068294 51.3503,59.5718294 C47.7243,61.9478294 43.8903,64.0218294 40.0493,66.0408294 C38.6443,66.7788294 37.1463,67.4858294 35.4393,67.5398294 C33.5443,67.5988294 32.1733,65.8268294 32.7983,64.4008294 C33.3033,63.2458294 33.6493,62.0148294 33.9833,60.7948294 C34.0463,60.5648294 33.7563,60.0028294 33.5753,59.9768294 C31.7903,59.7268294 30.1173,58.9768294 28.2453,59.0438294 C25.1643,59.1548294 22.0753,58.9988294 18.9903,59.0488294 C15.4503,59.1058294 12.6943,57.6578294 10.5303,54.9298294 C9.8333,54.0518294 9.3923,53.1028294 9.4153,51.9478294 C9.4633,49.5888294 9.2273,47.1948294 9.5463,44.8768294 C10.3073,39.3488294 9.7633,33.8508294 9.5973,28.3358294 C9.4493,23.4378294 9.4763,18.5338294 9.4323,13.6328294 C9.3873,8.5908294 11.8103,5.0498294 16.1403,2.6998294 C16.6023,2.4488294 22.2163,1.8358294 24.4483,1.2588294 C25.4853,0.990829397 26.5983,0.970829397 27.6803,0.939829397 C29.4943,0.885829397 31.2523,0.579829397 33.0423,0.282829397 C37.3383,-0.429170603 53.0133,0.419829397 54.0733,0.483829397 C58.7463,0.769829397 63.4253,1.0418294 68.0793,1.5328294 C70.0313,1.7388294 71.9083,2.5558294 73.8503,2.9428294 C75.3643,3.2438294 76.4703,4.1018294 77.5733,5.0608294 C78.7213,6.0598294 79.3683,7.2338294 79.4983,8.8028294 C79.7363,11.6688294 80.2653,14.5128294 80.4413,17.3808294 C80.6083,20.0928294 80.4773,22.8228294 80.4773,24.5298294" id="Fill-1"></path>
            </g>
        </g>
    </g>
</svg>