<svg xmlns="http://www.w3.org/2000/svg" viewBox="0 0 153.465 212.701"><title>content-editors</title><g id="Layer_2" data-name="Layer 2"><g id="Layer_1-2" data-name="Layer 1"><path d="M37.041,124.609c-4.442-1.284-6.844.423-9.038,4.465a158.751,158.751,0,0,0-10.615,23.189c-2.113,6.034-6.151,8.28-11.719,6.529-3.238-1.017-4.545-2.543-4.493-5.932a23.669,23.669,0,0,1,3.415-12.45c2.719-4.3,5.2-8.718,7.5-13.245a96.163,96.163,0,0,1,8.41-13.951,6.552,6.552,0,0,0,1.042-6.151c-4.009-13.546-1.509-26.531,3.3-39.338A107.938,107.938,0,0,1,50.116,28.156c.516-.509.949-1.109,1.5-1.574,2.123-1.792,3.163-1.773,5.123.113A11.664,11.664,0,0,1,60.1,31.556c.377,1.21.82,2.4,1.287,3.583.387.978.7,2.42,1.852,2.352,1.3-.077,1.119-1.644,1.417-2.636a55.256,55.256,0,0,0,1.936-6.8c1.423-8.706,7.5-13.345,14.74-16.754C90.9,6.8,101.106,4.279,111.479,2.338,119.513.835,127.544-.475,135.75.167c4.148.325,8.3.683,12.42,1.249a5.74,5.74,0,0,1,5.122,5.437,54.2,54.2,0,0,1-.358,11.931c-1.911,13.3-4.667,26.344-11.431,38.277-2.572,4.539-4.227,9.59-6.972,14.116a112.132,112.132,0,0,1-18.719,23.108,104.217,104.217,0,0,1-38.381,23.021,91.205,91.205,0,0,1-18.478,4.26c-4.3.527-8.56,1.43-12.838,2.153C43.057,124.236,40.091,124.951,37.041,124.609ZM145.446,11.357c.637-2.106-.473-2.335-1.926-2.357-4.538-.069-8.974,1.044-13.539.976a54.389,54.389,0,0,0-11.328,1.073q-12.806,2.541-25.492,5.668a41.506,41.506,0,0,0-9.11,3.45C78.574,23,75.663,28.077,73.634,33.622c-1.992,5.444-3.716,10.989-5.447,16.524-.589,1.883-1.436,3.368-3.513,3.654-2.252.309-3.234-1.359-4.06-2.989-1.882-3.719-3.649-7.5-5.5-11.232-.291-.588-.37-1.5-1.276-1.5-.841.006-1.113.778-1.489,1.4-4.6,7.6-9.008,15.27-12.284,23.585C36,73.4,32.642,83.871,31.445,94.952a1.847,1.847,0,0,0,.378,1.424c.574.468.9-.248,1.278-.59,4.3-3.911,7.661-8.674,11.639-12.871,10.5-11.079,22.12-20.946,33.979-30.5A212.852,212.852,0,0,1,97.711,38.782c3.931-2.51,7.893-5.169,12.357-6.763,2.686-.958,4.724-.414,5.892,1.277,1.334,1.931,1.04,4.388-.842,6.46a10.046,10.046,0,0,1-2.033,1.8c-10.024,6.233-19.241,13.58-28.532,20.808-6.145,4.782-12.27,9.642-17.967,14.937a171.291,171.291,0,0,0-23.264,27.29c-.938,1.335-1.859,2.692-2.659,4.111-.488.864-1.637,1.819-.625,2.86.82.845,1.99.423,3.082.178,2.3-.517,4.616-.954,6.947-1.284,18.217-2.585,35.224-8.043,49.427-20.4,5.2-4.52,10.8-8.686,15.1-14.05a158.967,158.967,0,0,0,14.334-21.071c5.079-8.969,10.5-17.745,12.784-27.965C142.9,21.667,145.056,16.6,145.446,11.357Zm-19.38,176.506a21.263,21.263,0,0,0,8.427-1.939c4.281-1.957,4.61-6.329.736-8.975a14.441,14.441,0,0,0-8.162-2.575c-7.579-.086-15.155-.494-22.735-.562-7.056-.063-14.1-.312-21.154-.494-9.232-.239-18.491-.327-27.71.108-8.672.408-17.35-.313-26.044.81a82.47,82.47,0,0,1-12.96,1.007c-4.253-.121-8.574,1.085-12.815,1.952-2.563.523-3.568,2.214-3.646,4.724-.077,2.473,1.367,3.754,3.441,4.236,2.275.528,4.461,1.483,6.9,1.347,6.126-.342,12.259-.81,18.388-.792,26.644.081,53.3-.423,79.925.977C114.457,188.049,120.259,187.986,126.066,187.863ZM17.538,204a23.052,23.052,0,0,0-3.767.449c-1.268.282-2.474.9-2.592,2.4a2.568,2.568,0,0,0,2.177,2.716,16.856,16.856,0,0,0,3.694.829c5.6.311,11.2.525,16.8.749,8.3.331,16.632.331,24.9,1.078,4.89.442,9.751.365,14.623.481a18.621,18.621,0,0,0,4.781-.857,3.506,3.506,0,0,0,2.979-3.4c.086-1.9-.327-3.585-2.123-4.668a6.863,6.863,0,0,0-3.591-1.075q-10.269-.011-20.539,0C42.366,201.419,29.981,203.329,17.538,204Z"/></g></g></svg>