<svg viewBox="0 0 187 193" xmlns="http://www.w3.org/2000/svg"><g id="Page-1" stroke="none" stroke-width="1"><g id="content-editors"><path d="M36 124.6c-4.4-1.3-6.8.4-9 4.5-4.2 7.4-7.7 15.2-10.6 23.2-2.1 6-6.2 8.2-11.7 6.5-3.3-1-4.6-2.6-4.5-6 0-4.3 1.1-8.6 3.4-12.4 2.7-4.3 5.2-8.7 7.5-13.2 2.4-5 5.2-9.6 8.4-14 1.4-1.7 1.8-4 1-6.1a60.4 60.4 0 013.3-39.4 108 108 0 0125.3-39.5l1.5-1.6c2.1-1.8 3.2-1.8 5.1 0 1.6 1.4 2.7 3 3.4 5l1.3 3.5c.4 1 .7 2.5 1.8 2.4 1.3 0 1.2-1.7 1.5-2.6.7-2.3 1.4-4.5 1.9-6.8C67 19.3 73 14.7 80.3 11.3c9.6-4.5 19.8-7 30.2-9a92.4 92.4 0 0136.7-.9c2.8.3 5 2.6 5 5.5A106.5 106.5 0 01140.5 57c-2.5 4.5-4.1 9.6-6.9 14a112.1 112.1 0 01-18.7 23.2A104.2 104.2 0 0158 121.6c-4.3.5-8.6 1.4-12.9 2.1-3 .5-6 1.3-9 1zM144.4 11.4c.7-2.1-.4-2.4-1.9-2.4-4.5 0-9 1-13.5 1-3.8 0-7.6.3-11.3 1-8.6 1.7-17 3.6-25.5 5.7-3.2.8-6.3 2-9.1 3.5-5.5 2.8-8.4 7.9-10.5 13.4-2 5.5-3.7 11-5.4 16.5-.6 2-1.4 3.4-3.5 3.7-2.3.3-3.3-1.4-4-3-2-3.7-3.7-7.5-5.6-11.2-.3-.6-.4-1.5-1.3-1.5-.8 0-1 .8-1.5 1.4A157 157 0 0039.1 63C35 73.4 31.6 83.9 30.4 95c0 .5.1 1 .4 1.4.6.4 1-.3 1.3-.6 4.3-4 7.7-8.7 11.6-12.9a340.6 340.6 0 0153-44.1c4-2.5 7.9-5.2 12.4-6.8 2.7-1 4.7-.4 5.9 1.3 1.3 2 1 4.4-.9 6.5a10 10 0 01-2 1.8C102 47.8 92.8 55 83.6 62.4a171.3 171.3 0 00-43.9 46.3c-.5.9-1.7 1.8-.7 2.9.9.8 2 .4 3.1.1 2.3-.5 4.6-1 7-1.2 18.2-2.6 35.2-8 49.4-20.4 5.2-4.6 10.8-8.7 15-14A159 159 0 00128 54.8c5.1-9 10.5-17.7 12.8-28 1.2-5.2 3.4-10.3 3.7-15.5zm30.7 156.5c2.9-.1 5.7-.8 8.4-2 4.3-2 4.6-6.3.7-9a14.4 14.4 0 00-8.1-2.5l-22.8-.6c-7 0-14-.3-21.1-.5-9.3-.2-18.5-.3-27.7.1-8.7.4-17.4-.3-26 .8-4.4.7-8.7 1-13 1-4.3 0-8.6 1.1-12.9 2-2.5.5-3.5 2.2-3.6 4.7 0 2.5 1.4 3.8 3.4 4.3 2.3.5 4.5 1.4 7 1.3 6-.3 12.2-.8 18.3-.8 26.7 0 53.3-.4 80 1 5.8.3 11.6.3 17.4.2zM66.5 184a23 23 0 00-3.7.4c-1.3.3-2.5 1-2.6 2.4-.1 1.4.8 2.6 2.2 2.8 1.2.4 2.4.7 3.6.8l16.8.7c8.4.4 16.7.4 25 1.1 4.8.5 9.7.4 14.6.5 1.6 0 3.2-.4 4.8-.9 1.6-.2 2.9-1.6 3-3.4 0-1.9-.4-3.5-2.2-4.6-1-.7-2.3-1-3.6-1.1H104c-12.5-1.3-25 .6-37.4 1.3z" id="Shape"/></g></g></svg>