<svg xmlns="http://www.w3.org/2000/svg" viewBox="0 0 78.525 85.416"><title>corona2</title><g id="Layer_2" data-name="Layer 2"><g id="Untitled_Artwork_14_Image" data-name="Untitled_Artwork 14 Image"><path d="M10.69,51.009c.185-4.346-.95-10.255-1.18-16.226A3.665,3.665,0,0,0,7.051,31.13c-3.535-1.671-4.17-4.279-2.749-8.166C5.351,20.1,8.39,18.084,11,18.528A6.322,6.322,0,0,1,16.369,25.6c-.6,3.692.43,6.751,1.9,9.874.641,1.367.689,3.8,2.463,3.558,1.46-.2.625-2.512.894-3.865a6.474,6.474,0,0,0-.508-4.746,6.08,6.08,0,0,1-.307-4.773c.749-2.7,2.615-4.281,4.485-3.863a4.748,4.748,0,0,1,3.549,5.335c-.462,2.4-.665,4.667.391,6.909a16.7,16.7,0,0,0,1.592,2.819c.817,1.107,2.314.942,2.4-.282.363-5.033,2.292-9.923,1.473-15.049-.414-2.6.148-4.633,2.535-6.029a4.572,4.572,0,0,1,5.566.356c2.1,1.654,4.051,3.943,2.862,6.506-2.222,4.793-.677,9.679-1.207,14.48a1.587,1.587,0,0,0,.557,1.3c.542.309.956-.269,1.3-.677a6.371,6.371,0,0,0,1.477-5.528,4.387,4.387,0,0,1,2.979-5.192A4.973,4.973,0,0,1,56.6,28.425c1.3,1.916,1.216,3.856-.638,5.325-3.755,2.974-2.562,6.787-1.877,10.466.3,1.612,1.387,1.422,2.266.343,2.748-3.375,5.412-6.82,8.2-10.164,1.059-1.271.736-2.739,1-4.131.587-3.083,2.038-4.779,4.223-5.011,2.343-.249,6.581,2.531,7.362,4.829a5.349,5.349,0,0,1-3.024,6.771c-2.837.981-3.787,2.951-4.783,5.36C65.8,50.753,62.165,59.251,58.5,67.732a52.753,52.753,0,0,0-2.59,8.288c-.822,3.3-2.731,5.474-6.14,6.134-5.5,1.064-10.874,3.037-16.49,3.24A30.906,30.906,0,0,1,13.4,79.209,8.249,8.249,0,0,1,9.879,72.2a51.827,51.827,0,0,1,.286-8.687A60.5,60.5,0,0,0,10.69,51.009ZM66.333,38.951a23.09,23.09,0,0,0-5.779,6.421A40.533,40.533,0,0,1,52.9,53.823c-4.369,3.818-9.063,2.7-11.478-2.539a22.8,22.8,0,0,1-2.013-11.135c.245-3.792.669-7.572.956-11.361.038-.494-.234-1.432-.426-1.449-.825-.073-1.263.638-1.4,1.334-.5,2.485-.769,5.027-1.408,7.473-1.049,4.019-1.895,8.151-4.395,11.623-4.358,6.053-10.737,5.8-14.323-.655-1.224-2.2-2.05-4.626-3.072-6.942-.14-.317-.389-.867-.539-.851-.739.08-.456.749-.431,1.144.234,3.8.586,7.589.755,11.388.089,1.975.482,3.043,2.755,3.832,3.422,1.188,3.5,4.522.511,6.559-.735.5-1.638.749-2.41,1.207a1.266,1.266,0,0,0-.436.9c-.056.729.565.838,1.072.852a6.145,6.145,0,0,0,1.606-.238c8-1.977,15.81.646,23.709,1.038,1.674.083,3.307,1.394,4.917,2.221a34.44,34.44,0,0,1,3.267,1.961c1.355.9,2.378.719,3.026-.819.716-1.7,1.533-3.39-.906-4.525-.774-.361-1.635-.86-1.734-1.925-.189-2.039,3.245-5.538,5.193-4.879,1.569.53,2.3.4,2.951-1.013C61.36,51.108,64.58,45.417,66.6,39.189c1-.13.957-.914.991-1.621.005-.112-.284-.362-.366-.335C66.384,37.51,66.258,38.185,66.333,38.951ZM28.9,69.256c-2.767,0-5.286.05-7.8-.019a8.3,8.3,0,0,0-4.217.753c-1.745.909-1.994,2.016-.538,3.338a14.509,14.509,0,0,0,8.681,4.095c4.149.328,8.3.658,12.457.861a22.234,22.234,0,0,0,9.092-1.268A1.635,1.635,0,0,0,47.1,74.04c-2.852-2.3-5.971-4.105-9.766-4.32C34.439,69.557,31.545,69.4,28.9,69.256ZM10.657,22.228a2.94,2.94,0,0,0-3.1,3.009c.107,1.69,1.755,2.857,3.943,2.832,1.97-.023,2.407-1.286,2.315-2.9A2.857,2.857,0,0,0,10.657,22.228Zm63.075,9.087c-.26-1.717-1.3-2.414-2.65-2.254-1.718.2-1.5,1.675-1.416,2.9s.649,2.02,2.015,1.784A2.339,2.339,0,0,0,73.732,31.315Zm-31.631-11c-.263-1.275-1.021-2.009-2.279-1.786a1.74,1.74,0,0,0-1.466,1.96c.1,1.185,1.128,1.271,1.993,1.32A1.479,1.479,0,0,0,42.1,20.313ZM55.187,61.344c-.249.147-.683.271-.7.447a1.034,1.034,0,0,0,.348.862.914.914,0,0,0,.88-.137C55.97,62.008,55.617,61.629,55.187,61.344ZM45.412,6.672c1.285.222,1.928-.733,2.09-1.889.187-1.336.948-2.819-.6-3.871A1.285,1.285,0,0,0,45.892.867c-1.833.661-1.26,2.3-1.436,3.647C44.566,5.331,44.285,6.477,45.412,6.672Zm-35.285.95c-.23-.669-.541-1.4-1.454-1.341A1.635,1.635,0,0,0,7.056,8.06,8.956,8.956,0,0,0,7.387,10.2c.2.883.409,1.939,1.555,1.891,1.422-.06,1.622-1.17,1.5-3.018A7.989,7.989,0,0,0,10.127,7.622Zm61.832,11.1c.924-2.029,2.808-3.826,1.695-6.372a1.013,1.013,0,0,0-.9-.3c-1.9,1.626-2.188,3.981-2.654,6.225a.881.881,0,0,0,1.016.954C71.4,19.063,71.846,18.966,71.959,18.717ZM39.126.031c-.171-.035-.435-.06-.529.036-1.2,1.22-.64,2.687-.482,4.066a5.156,5.156,0,0,0,.672,2.018.822.822,0,0,0,1.35.086,7.7,7.7,0,0,0,.763-1.76C40.957,2.228,40.12.236,39.126.031ZM77.488,14.11c-1.221-.28-1.439.828-1.669,1.63a13.942,13.942,0,0,0-.539,3.154,1.639,1.639,0,0,0,.743,1.272c.751.362,1.321-.192,1.762-.792a5.489,5.489,0,0,0,.74-3.214C78.458,15.421,78.6,14.365,77.488,14.11ZM.129,7.855c-.6,1.3,1.015,4.563,2.408,4.848a1.275,1.275,0,0,0,.924-.415c.783-.783.446-1.645.022-2.451C2.911,8.748,2.443,7.53.992,7.325.679,7.508.244,7.607.129,7.855ZM30.123,58.067c-.042-2.832.605-3.591,3.107-3.643,2.914-.061,4.02,1.171,3.978,4.434-.037,2.9-1.115,4.037-3.818,4.021C30.794,62.864,30.181,61.961,30.123,58.067Zm4.632,1.347c.087-.938-.164-1.443-.718-1.492-.851-.076-1.259.529-1.259,1.309a.852.852,0,0,0,1.057.859A1.05,1.05,0,0,0,34.755,59.414Z"/></g></g></svg>