<svg xmlns="http://www.w3.org/2000/svg" viewBox="0 0 62.59 78.135"><title>corona1</title><g id="Layer_2" data-name="Layer 2"><g id="Untitled_Artwork_14_Image" data-name="Untitled_Artwork 14 Image"><path d="M25.015,78.08C19.507,78.2,14,76.311,8.606,74.225,2.254,71.767-1.431,66.354.526,58.572,2.732,49.8,4.04,40.8,5.747,31.9c.961-5.012.936-10.1,1.247-15.167.135-2.2-.079-4.055-2.029-5.784C2.547,8.805,3.848,2.093,6.627.4c2.192-1.338,6.279.915,6.661,3.75A5.527,5.527,0,0,1,12.2,8.8c-2.043,2.163-1.752,4.645-1.3,7.136.769,4.282,1.671,8.541,2.586,12.8.1.455.652.811.994,1.212.337-.35.843-.643.984-1.06,1.08-3.18,3.453-6.023,2.4-9.784-.209-.749.373-1.746.669-2.6.532-1.537,1.537-2.589,3.263-2.065a3.255,3.255,0,0,1,2.3,3.312,3.4,3.4,0,0,1-.586,2.048c-2.864,3.511-1.16,7.26-.657,10.938.06.437.472.825.721,1.236.416-.309,1.039-.527,1.218-.938,2.021-4.657,3.891-9.381,6-14,.641-1.4-.312-1.9-.788-2.8-1.9-3.6-1.1-7.055,2.01-9.666a4.572,4.572,0,0,1,5.07-.845,5.028,5.028,0,0,1,3.136,4.158c.254,2.7-.339,5.293-2.5,6.866-2.31,1.68-2.948,3.983-3.59,6.414A52.479,52.479,0,0,0,32.487,34.1c-.006.672-.244,1.573.693,1.76.387.077.968-.337,1.325-.673,2.278-2.139,4.42-4.343,3.6-7.924a2.893,2.893,0,0,1,.639-2.554c.974-1.166,2.025-2.251,3.679-1.309,1.5.857,2.067,2.58,1.076,3.715-3.11,3.563-1.592,8.044-2.772,11.954-.125.415.2.967.32,1.456.475-.2,1.118-.263,1.4-.616,2.946-3.683,5.826-7.42,8.745-11.126.974-1.238,1.368-2.4.47-3.955-.953-1.65-.494-3.56-.351-5.356.179-2.248.726-4.4,3.237-5.147,2.263-.668,5.787.976,7.048,3.116,2.142,3.636.721,8.015-3.282,9.059A4.691,4.691,0,0,0,54.6,29.876c-3.492,9.916-7.284,19.742-8.768,30.236C45.3,63.88,43.456,67.318,43.275,71.2c-.094,2.023-2.032,2.957-3.666,3.7C35.121,76.938,30.482,78.449,25.015,78.08Zm.617-4.865a22.381,22.381,0,0,0,3.257-.029c1.782-.265,3.529-.751,5.3-1.077,7.891-1.447,7.749-1.347,3.434-8.223-3.6-5.731-4.091-5.212,1.755-9.327a15.454,15.454,0,0,0,6.551-8.825c.282-1.008,1.467-2.345.585-2.95-.923-.634-1.467,1.029-2.113,1.714a27.062,27.062,0,0,1-5.365,4.572c-3.007,1.859-5.278,1.417-7.744-1.165a9.63,9.63,0,0,1-2.478-5.339c-.277-1.777-.181-3.611-.318-5.414-.046-.608.507-1.6-.639-1.673-.334-.022-.827.626-1.057,1.066-1.251,2.4-2.133,5.012-4.379,6.782-2.441,1.924-4.533,1.853-6.746-.263A11.092,11.092,0,0,1,13.191,38.9c-.857-2.187-1.532-4.445-2.31-6.663a4.729,4.729,0,0,0-.555-.894,3.52,3.52,0,0,0-.493.918c-1.066,5.457-2.9,10.893-.185,16.415,1.881,3.825.963,6.939-2.64,9.244a7.025,7.025,0,0,0-.881.637c-4.189,3.71-3.813,7.912,1.142,10.216A53.158,53.158,0,0,0,25.632,73.215ZM57.648,17.663c-1.466-.138-1.887.78-1.893,1.988-.007,1.343-.782,3.043,1.231,3.64,1.532.454,2.381-.395,2.688-1.844C60.085,19.5,59.232,17.936,57.648,17.663ZM7.651,6.58c-.1.558-.026,1.56.558,1.77.944.34,1.673-.487,2.131-1.286.746-1.3,1.255-2.666-.053-3.942-.236-.23-.717-.484-.958-.392C7.6,3.383,7.75,4.947,7.651,6.58ZM41.4,57.219c-.778-.029-3.045,1.248-3.144,1.772-.18.959,2.175,4.18,2.653,3.731,1.249-1.173.939-2.971,1.335-4.493C42.4,57.633,42.073,57.232,41.4,57.219ZM37.328,8.461c-.261-.514-.384-1.213-.758-1.393a1.331,1.331,0,0,0-1.749.734,9.863,9.863,0,0,0-.864,1.927c-.246.833-.522,1.874.573,2.253,1.219.421,2.018-.364,2.41-1.457A12.578,12.578,0,0,0,37.328,8.461ZM7.54,52.537c-.188-.25-.356-.691-.568-.714a.938.938,0,0,0-1.059.873c-.088.6.2.982.826.892A.9.9,0,0,0,7.54,52.537Zm14.666-2.809a4.418,4.418,0,0,1,1.323.572,3.3,3.3,0,0,1,.841,1.342c1.1,3.014,3.81,5.146,4.559,8.347-2.881,2.934-5.7,5.926-8.671,8.771-1.122,1.078-2.3.738-3.054-.7-2.552-4.885-.419-14.752,3.884-17.87A5.613,5.613,0,0,1,22.206,49.728Zm-.121,4.759a3.422,3.422,0,0,0-.919.536c-.8.908-2.236,1.484-2.042,2.966a48.694,48.694,0,0,0,1.14,5.786c.117.457.928.507,1.359.109a33.342,33.342,0,0,0,3.038-3.035c.547-.654-1.322-5.961-2.114-6.324A1.5,1.5,0,0,0,22.085,54.487Z"/></g></g></svg>