<svg xmlns="http://www.w3.org/2000/svg" viewBox="0 0 503.376 429.483"><title>cuckoo</title><g id="Layer_2" data-name="Layer 2"><g id="Untitled_Artwork_13_Image" data-name="Untitled_Artwork 13 Image"><path d="M58.011,374.993c0-15.428.372-30.868-.114-46.281-.412-13.047-1.923-26.061-1.7-39.139.131-7.791.38-15.583.8-23.363.6-11.289-.876-22.482-1.283-33.723-.236-6.5-.461-13-.5-19.5-.068-12.518-.22-25.042.1-37.552.2-7.968,1.212-15.9,1-23.913-.134-5.038-.188-4.35-4.628-4.317a153.337,153.337,0,0,1-22.231-1.12,71.677,71.677,0,0,1-9.08-1.708,35.409,35.409,0,0,0-10.727-1.633,4.855,4.855,0,0,1-5.066-3.114,18.215,18.215,0,0,1-1.839-4.5C1.681,129.614.32,124.142.034,118.5c-.3-5.818,1.3-10.682,6.519-13.96,4.565-2.867,8.73-2.1,11.775,2.328a14.071,14.071,0,0,1,2.216,11.4c-.11.509-.068,1.13.63,1.189a1.312,1.312,0,0,0,.929-.476c4.968-6.028,11.58-10.453,16.24-16.806a35.633,35.633,0,0,1,6.15-6.147c3.488-2.892,7-5.787,9.795-9.42a8.59,8.59,0,0,1,1.538-1.54c8.63-6.651,16.181-14.542,24.614-21.42a39.992,39.992,0,0,0,4.841-4.367c6.686-7.587,14.851-13.286,23.338-18.6a45.142,45.142,0,0,0,7.036-5.109c1.4-1.3,1.467-2.333.165-3.581a22.827,22.827,0,0,1-6.8-13.341c-.807-5.333-.04-10.488,3.918-14.675a9.669,9.669,0,0,1,12.848-1.333,13.852,13.852,0,0,1,5.828,10.04,30.107,30.107,0,0,1-2.442,13.78c-.828,2.1-.049,2.564,1.811,2.494,6.894-.258,13.8-.364,20.681-.8,9.788-.617,19.56-1.365,29.381-1.442a165.458,165.458,0,0,0,17.926-1.1c16.114-1.886,32.293-1.191,48.444-1.561,13.981-.321,27.965-.544,41.948-.816,1.089-.021,2.178-.083,3.266-.139,1.733-.089,2.222-.892,1.472-2.486a16.7,16.7,0,0,1-1.426-10.075c.733-4.4,2.858-7.823,6.963-9.772,3.377-1.6,6.428-.634,8.483,2.474A12.4,12.4,0,0,1,310.046,9.4c.3,4.524.534,9.079-.611,13.515-.738,2.858.133,4.578,2.442,6.456C323.84,39.1,335.32,49.446,347.57,58.788c7.807,5.953,14.822,12.765,22.094,19.223s14.925,12.526,21.675,19.716c6.041,6.435,11.544,13.54,18.576,19.057.554.435,1.075,1.249,1.827.9.812-.38.249-1.239.283-1.908.083-1.625.316-3.242.5-4.861a14.268,14.268,0,0,1,4.173-8.658c3.338-3.354,7.3-5.035,11.851-3.281a10.809,10.809,0,0,1,6.893,9.726c.589,10.425-3.561,19.022-11.572,25.761a11.47,11.47,0,0,1-5.875,2.6c-4.667.7-9.311,1.595-14,2.086-2.558.268-3.545,1.369-3.463,3.793.443,13.24-.587,26.494.306,39.728a502.5,502.5,0,0,1,.8,52.788c-.061,1.625-.275,3.244-.4,4.868-.279,3.537.246,4.471,3.747,5.538a37.471,37.471,0,0,0,14.586.983,6.83,6.83,0,0,0,4.93-3.117c5.986-8.633,15.409-10.254,24.708-11.977,3.5-.649,6.934-.184,9.222,3.16.736,1.076,1.542.64,2.251.012a15.207,15.207,0,0,0,4.4-6.116c1.372-3.7,1.408-3.677-2.554-4.965-.69-.224-1.369-.493-2.034-.783-2.436-1.064-4.565-2.522-4.758-5.429-.181-2.727,1.764-4.2,3.842-5.473.465-.284.937-.558,1.394-.854,2.642-1.718,2.641-1.72.471-4.244-2.114-2.46-1.607-4.836,1.489-5.878,3.61-1.216,7.183-.567,10.562,1.017a16.129,16.129,0,0,1,5.824,3.957c3.26,3.958,7.721,6.557,11.184,10.252,1.151,1.228,2.233,1.75,3.767.736a4.28,4.28,0,0,1,3.152-.482c2.631.427,3.188,1.782,1.654,4.116-.6.91-1.254,1.782-1.9,2.661-2.383,3.256-2.23,3.711,1.754,5.048.686.23,1.42.334,2.081.615,1.154.491,2.544.953,2.351,2.55-.17,1.414-1.358,2.061-2.611,2.486a2.609,2.609,0,0,1-1.061.22c-6.49-.768-10.839,4.457-16.539,5.877a2.154,2.154,0,0,0-1.771,1.771,17.167,17.167,0,0,0-.607,2.083c-.906,9.9-6.123,17.26-13.654,23.262-4.394,3.5-8.217,7.708-13.074,10.63a3.682,3.682,0,0,0-1.77,3.629c-.008,4.9-.24,9.8-.263,14.706-.022,4.693.687,5.2,5.494,4.968,5.611-.275,11.228-.5,16.844-.579,4.918-.067,6.892,1.394,8.635,5.909,2.18,5.648-.328,10.422-6.388,11.2a88.657,88.657,0,0,1-15.2.695c-7.989-.357-15.931-.862-23.894.439a34.623,34.623,0,0,1-9.776.335c-1.447-.177-2.9-.306-4.042-1.382-.78-.737-1.339-1.919-2.481-2-1.381-.1-2.155,1.174-3.137,1.937q-5.378,4.173-10.746,8.36c-1.783,1.389-3.448,1.839-5.121-.266a11.324,11.324,0,0,0-2.538-2.043c-1.494-1.028-2.208-.662-2.325,1.269-.286,4.7-.584,9.408-.727,14.116-.225,7.425-.3,14.854-.492,22.28-.087,3.359-2.089,5.277-6.127,5.529-7.608.475-15.227.77-22.842,1.118-5.8.265-11.608-.205-17.41.51a11.118,11.118,0,0,0-7.011,3.524c-6.3,6.361-11.046,13.892-16.462,20.914-6.758,8.762-13.349,17.652-20.11,26.412a34.6,34.6,0,0,1-4.645,4.56,8.544,8.544,0,0,1-6.523,2.148c-9.208-.638-18.42-1.449-27.652-.392-1.419.163-1.91-.766-2.362-1.769a16.851,16.851,0,0,1-1.506-7.944c.459-8.149,1.016-16.292,1.532-24.438a112.958,112.958,0,0,0-.087-17.957c-.337-3.508-.58-3.646-3.988-3.788-2.715-.113-5.443.1-8.166.14-7.629.1-15.263.412-22.884.211-5.336-.141-10.416,1.311-15.647,1.684a138.343,138.343,0,0,1-23.339-.2c-11.445-1.117-22.844.209-34.249,1.026-4.7.337-9.414.591-14.122.6a9.007,9.007,0,0,0-6.735,2.772c-9.025,8.669-18.533,16.845-26.922,26.16-3.511,3.9-6.784,8.013-10.085,12.094a80.589,80.589,0,0,1-11.182,11.87,11.09,11.09,0,0,1-6.875,2.912c-5.263.107-10.532.331-15.789.184-5.307-.148-6.531-1.545-6.65-7.054-.114-5.261-.057-10.526-.06-15.789q-.009-15.8,0-31.6Zm66.13-304.109c-1.7-.837-3.161.017-4.637.669-4.408,1.948-8.576.961-12.451-1.323-3.45-2.033-6.49-4.5-7.784-8.676-.749-2.419-1.5-2.48-3.325-.518C90.489,66.89,83.823,71.32,77.892,76.608A123.455,123.455,0,0,1,63.843,87.683c-2.179,1.439-3.522,3.644-4.822,5.808-3.235,5.386-1.979,8.593,3.808,10.962,5.276,2.16,10.551,1.667,15.989.939A38.73,38.73,0,0,0,104.777,90.48c2.693-3.654,5.408-7.279,9.072-10.017a69.661,69.661,0,0,0,10.245-9.675l-.119-.346Zm64.876.509c-6.7,3.752-14.236,5.225-21.381,7.763a7.21,7.21,0,0,1-2.154.231,92.308,92.308,0,0,1-19.5-1.071c-5.127-.932-9.2-3.17-11.045-8.39-.748-2.121-1.637-1.277-2.595-.152-2.817,3.309-5.274,7.054-8.56,9.808A111.959,111.959,0,0,0,106.3,98.061c-3.473,4.594-3.673,5.735-.044,10.118a14.277,14.277,0,0,0,4.773,3.5c7.111,3.607,14.683,3.849,22.29,2.667,9.4-1.461,17.723-6.214,26.612-9.254,5.042-1.723,8.747-5.042,11.845-9.151,5.664-7.516,11.238-15.1,16.848-22.658a1.836,1.836,0,0,0,.306-2l.52,0C188.848,70.881,189.723,71.221,189.017,71.393ZM203.31,286.349c.428-17.154-.332-29.459-.741-41.779-.4-12.114.294-24.274.776-36.4.489-12.3,1.49-24.587,1.924-36.892.4-11.234.348-22.484.452-33.728.012-1.223.488-2.974-.584-3.547-1.527-.816-1.886,1.272-2.666,2.051a55.2,55.2,0,0,0-6.036,6.983c-2.613,3.675-6.077,4.934-10.384,4.538-2.526-.232-5.059-.554-7.588-.546-9.983.03-19.956-.216-29.934-.52-9.941-.3-19.916-.734-29.832-.226-7.805.4-15.565.889-23.364.277-.362-.029-.726-.016-1.089-.023-2-.038-2.875.814-2.894,2.94a85.72,85.72,0,0,1-.611,13.026,154.457,154.457,0,0,0-1.431,19.517c-.467,13.048-.288,26.121-.285,39.184,0,7.25.315,14.5.26,21.749-.136,17.779-.532,35.557-.572,53.336-.025,11.061.338,22.126.679,33.184a66.661,66.661,0,0,1-.507,10.826c-.183,1.384.127,2.6,1.871,2.64,6.162.161,12.224,1.693,18.439,1.251a51.519,51.519,0,0,1,7.07.1,51.057,51.057,0,0,0,14.593-.97,51.02,51.02,0,0,1,10.229-1.313q29.371-.415,58.748-.469c2.086,0,2.446-.664,2.456-2.373.04-7.064-.217-14.151.271-21.185C203.4,305.836,202.862,293.671,203.31,286.349ZM280.227,126.13c-3.552-.223-8.8-.6-14.051-.867-6.156-.309-12.3-.768-18.411.8-3.686.945-4.134.794-3.68,4.341.922,7.217.643,14.485,1.372,21.705.763,7.561,2.139,15.114,1.24,22.756a118.108,118.108,0,0,0-.591,16.847c.37,14.688.064,29.375.545,44.074.539,16.476.377,32.995-.247,49.514-.665,17.591-1.6,35.165-2.378,52.749-.305,6.876-1.056,5.726,5.857,6.521,2.523.289,5.057.491,7.586.72,4.556.412,9.037-.361,13.529-.9,1.183-.142,2.1-.764,1.759-2.168-1.32-5.422.446-10.789.237-16.222-.341-8.89.821-17.733,2.284-26.5a66.455,66.455,0,0,1,9.59-25.791c4.884-7.522,11.553-11.049,20.236-11.914q10.464-1.043,16.858,6.884a41.226,41.226,0,0,1,7.872,14.178c1.423,4.855,3,9.688,3.577,14.755a5,5,0,0,0,3.4,4.438c3.854,1.584,7.615,3.426,11.312,5.356,2.289,1.195,3.9.881,5.78-.925,3.53-3.388,7.295-6.539,11.059-9.673,1.652-1.375,3.343-3.293,5.571-3.13,2.935.214,3.191-1.1,3.2-3.429s.631-4.67.7-7.013c.29-10.112,1.118-20.195,1.52-30.3.453-11.39,1.789-22.74,1.677-34.172-.051-5.251.073-10.526.522-15.755a144.587,144.587,0,0,0,.337-23.376c-1.193-15.552-1.745-31.131-2.642-46.694-.209-3.627-.176-3.638-3.654-3.837-15.214-.868-30.4-2.177-45.674-1.934C311.652,127.4,296.817,125.706,280.227,126.13ZM313.89,362.671c10.567-.433,26.891-1.11,43.217-1.762a88.789,88.789,0,0,1,9.238-.2c6.7.423,13.435.382,20.146.707,2.422.117,2.88-.832,3.228-3.074,1.935-12.448.388-25.006,1.419-37.471a17.243,17.243,0,0,0-.134-2.718c-.121-1.569-1-1.73-2.216-1.126-2.922,1.449-5.806,2.979-8.767,4.345a4.267,4.267,0,0,0-2.594,3.822c-.558,5.948-1.013,11.933-.008,17.836.309,1.818-.051,2.762-1.317,3.625a8.728,8.728,0,0,1-5.643,1.62,36.03,36.03,0,0,0-4.338-.194c-11.225.571-22.426,1.729-33.687,1.376-4.16-.13-8.316-.361-12.476-.51-12.679-.454-25.364.117-38.054-.317a173.623,173.623,0,0,0-21.709.879c-5.015.459-10.124.909-15.185.193-4.884-.691-6.773-2.851-6.657-7.591.227-9.245.507-18.488.777-27.732.355-12.148.957-24.293,1.018-36.442.057-11.427.171-22.85-.492-34.3q-.876-15.13-.606-30.38c.2-10.871.872-21.692,1.644-32.516.517-7.236,1.241-14.492.422-21.7-1.357-11.95-.736-23.892-.554-35.846.024-1.573.794-2.487,2.2-2.569,4.884-.281,9.6-1.721,14.6-1.456q12.766.678,25.584.364c9.443-.243,18.912-.3,28.346.107,16.68.714,33.394.55,50.047,1.977,5.422.465,10.876.575,16.289,1.11,3.249.322,4.433,1.684,4.732,4.871.372,3.963.761,7.942.781,11.915.065,12.523.158,25.027,1.119,37.537,1.52,19.777-.441,39.528-1.417,59.26-.851,17.2-2.273,34.383-3.006,51.6-.116,2.714-.515,5.416-.667,8.13-.068,1.229-.386,2.846.89,3.5,3.322,1.7,5.585,4.582,8.327,6.926,1.37,1.171,2.819.593,3.215-1.222a17.9,17.9,0,0,0,.6-4.856c-.438-6.729.7-13.386.721-20.1.027-10.694.766-21.384.981-32.08.23-11.42.262-22.841.956-34.25.608-9.976.038-19.938-.619-29.9-.6-9.05-.931-18.118-1.59-27.163-1.015-13.913-2.448-27.808-.984-41.773.217-2.066-.557-3.113-2.649-3.138-1.453-.017-2.907-.056-4.36-.043a134.9,134.9,0,0,1-21.748-1.17,90.663,90.663,0,0,0-13.555-.782c-6.718-.022-13.466.066-20.141-.55-5.994-.553-11.913-.945-17.895-.144a87.08,87.08,0,0,1-14.143.5c-11.065-.325-22.1-1.648-33.2-.848a91.9,91.9,0,0,1-14.68-.459,66.316,66.316,0,0,0-14.071.012c-3.675.456-3.71.454-4.243,4.239-.127.9-.122,1.812-.223,2.714a114.8,114.8,0,0,0-.369,18.436c.718,14.859-.028,29.723-.714,44.579-.243,5.25.072,10.523-.038,15.781-.4,18.823-1,37.641-.8,56.474.211,19.058-.59,38.1-1.437,57.131-.75,16.836-.9,33.678-.854,50.525.012,4.39.109,4.384,4.728,4.367q11.993-.045,23.985-.072C272.891,362.663,290.51,362.671,313.89,362.671ZM82.216,191c-.168-14.213,1.312-27.591.635-41.01-.151-3.013-.031-3.095-2.915-3.129-4-.048-8-.029-11.99.078-3.8.1-4.122.461-3.472,4.21a136.587,136.587,0,0,1,1.765,22.746c.029,5.8-.239,11.631.279,17.389.735,8.169.378,16.3.073,24.443-.333,8.864-1.049,17.716-1.311,26.582-.37,12.515.24,25.032-.968,37.559-.9,9.367-1.05,18.857.653,28.237a162.789,162.789,0,0,1,2.4,22.66c.427,10.756-.755,21.389-2.015,32.019-.278,2.345.454,2.814,2.564,2.777,6.169-.11,12.341-.052,18.512-.079,6.532-.029,13.1.344,19.589-.217,10.833-.937,21.692-2.173,32.527-2.016,14.829.215,29.656-.807,44.475.092,11.42.693,22.84.082,34.26.029,3.251-.016,3.664-.435,3.59-3.855-.237-10.866-.357-21.733-1.123-32.585a199.336,199.336,0,0,1,.372-27.193c.683-10.3,1.107-20.6,1.58-30.9.285-6.19-.731-12.318-.747-18.49-.056-21.753-.054-43.507.722-65.247.263-7.4,1.257-14.769,1.573-22.167.6-14.116,1-28.242,1.38-42.366.06-2.223.97-4.589-.583-6.7-2.095.885-3,3.019-4.636,4.4-1.65,1.392-3.465,2.6-4.034,4.951a49.227,49.227,0,0,0-1.853,9.6c-.378,9.42-.537,18.844-1.137,28.263-.784,12.3-1.049,24.636-1.558,36.956-.568,13.772-1.394,27.539-1.664,41.317-.21,10.688.349,21.388.4,32.084.029,6.328-.172,12.66-.438,18.984-.547,13.044.525,26.118-.893,39.155a96.712,96.712,0,0,0-.163,13.047c.108,3.958-.467,5.1-4.114,6.085a17.948,17.948,0,0,1-4.3.609c-7.073.131-14.164.5-21.219.167-8.687-.41-17.374-.563-26.061-.616-7.788-.047-15.6-.091-23.361.485-12.9.959-25.74,1.387-38.458-1.533-2.239-.515-5.064.515-6.636-1.684s-.761-4.968-.67-7.45a324.926,324.926,0,0,0-.785-34.285c-.822-11.947-1.6-23.9-2.1-35.863a364.094,364.094,0,0,1,.37-38.08C81.552,217.071,81.176,203.6,82.216,191Zm245.471-89.019c6.615.365,6.8.358,6.584-4.757-.292-7.105.923-14.1,1.394-21.14.288-4.308-.22-8.8,1.148-12.952,1.158-3.51-.353-5.33-2.87-7.284q-13.959-10.834-27.709-21.934c-1.366-1.1-2.183-.973-3.743-.213-6.657,3.244-11.832,8.152-16.805,13.5-3.1,3.329-5.455,6.584-4.749,11.388a15.609,15.609,0,0,1-.166,4.33c-1.307,9.512-2.719,19.01-3.97,28.529a47.723,47.723,0,0,0-.056,6.52c.01,1.3.675,1.88,2.006,1.976,3.613.262,7.193.792,10.819,1.052C302.783,101.933,316.08,99.5,327.687,101.978ZM223.841,77.765c3.081-.564,6.447-1.456,9.865-1.754,8.983-.782,16.887-3.677,23.182-10.431,3.585-3.846,8.278-6.567,11.449-10.841a37.2,37.2,0,0,1,8.145-7.946c4.883-3.547,8.808-8.065,12.688-12.623.782-.919.66-1.658-.614-1.863a15.754,15.754,0,0,0-2.171.016c-18.473-.346-36.931,1.406-55.4.432-2.382-.126-3.662.853-4.757,2.772A80.574,80.574,0,0,1,212.57,53.1a44.35,44.35,0,0,0-6.745,9.171c-1.411,2.361-1.337,4.3.323,6.438C210.562,74.409,216.571,76.932,223.841,77.765ZM193.006,33.35c-1.865,0-3.318-.035-4.768.006-6.884.194-13.774.3-20.649.676-2.246.122-4.556.139-6.422,2.257C156.373,41.73,151.4,47,147.516,53.178a51.063,51.063,0,0,1-7.192,8.852c-2.746,2.75-2.739,5.143.062,7.853a14.154,14.154,0,0,0,7.688,3.811,77.547,77.547,0,0,0,14.087,1.179,27.4,27.4,0,0,0,9.015-1.751,182.562,182.562,0,0,0,24.877-10.874,9.53,9.53,0,0,0,4.354-3.807c2.525-4.682,6.185-8.451,9.883-12.23,3.291-3.363,6.252-7.06,9.232-10.713,1.658-2.033,1.345-2.5-1.425-2.774a9.978,9.978,0,0,0-1.615-.147C208.527,33.12,200.533,32.28,193.006,33.35Zm-88.4,105.743c7.738,0,18.077-.01,28.417.008,2.022,0,3.829.061,5.013-2.232,3.031-5.872,7.549-10.6,12.251-15.164a51.182,51.182,0,0,0,4.344-4.845c1.228-1.54,3.6-3.905,2.843-4.839-1.121-1.375-3.4.655-5.171,1.209a46.731,46.731,0,0,0-6.572,2.572c-9.333,4.549-19.3,5.219-29.212,3.643-7.331-1.165-14.565-3.766-16.921-12.365-.357-1.3-1.221-1.157-2.041-.511a30.3,30.3,0,0,0-2.843,2.528q-8.775,8.9-17.507,17.841c-2.786,2.852-5.539,5.735-8.29,8.62-.618.648-1.608,1.407-1.306,2.241.445,1.227,1.831.847,2.869.867C80.988,138.869,91.477,139.978,104.605,139.093ZM410.156,253.146c-.5-.053-1.035-.124-1.577-.168-3.388-.272-3.814.151-2.193,2.994,4.294,7.531,9.47,14.224,18.167,17.114,2.577.856,5.175,1.646,7.768,2.452,9.166,2.847,17.128.239,24.427-5.39,8.385-6.468,14.976-14.294,17.924-24.65,1.8-6.314,4.853-11.009,11.615-13.007,3.59-1.06,4.224-3.065,3.835-6.836-.58-5.631-6.075-9.907-12.4-9.65-5.025.205-5.708.838-5.769,5.638-.028,2.182.192,4.4-.945,6.384-2.164,3.769-4.228,7.66-7.382,10.69a7.263,7.263,0,0,0-2.248,4.061,19.427,19.427,0,0,1-8.363,12.3c-5.121,3.374-10.969,5.511-16.164,8.882-2.938,1.906-4.8.449-4.592-3.188a46.217,46.217,0,0,1,1.095-5.867c.36-1.9-.063-2.2-1.949-1.68-2.306.633-3.975,2.524-6.361,3.02-1.837.382-4.05,1.033-4.848-.988-1.257-3.184-3.388-2.6-5.689-2.085A8.624,8.624,0,0,1,410.156,253.146ZM202.515,114.015c7.506-.032,10.425-1.414,14.886-7.283a58.094,58.094,0,0,1,8.807-9.6,68.055,68.055,0,0,0,9.171-9.288c1.917-2.363,3.978-4.609,5.974-6.907-3.415-1.321-6.55.871-9.873.806a10.654,10.654,0,0,0-2.09.576c-11.353,2.311-20.825-.635-27.775-10.2-1.059-1.457-1.758-1.622-2.857-.35-2.373,2.746-4.753,5.487-7.068,8.282-6.711,8.1-12.12,17.251-19.791,24.572a2.182,2.182,0,0,0-.357,3.306,16.56,16.56,0,0,0,4.231,4.2c2.089,1.371,3.014,1.228,4.241-1.061A20.257,20.257,0,0,1,184,105.927c4.542-4.3,9.932-3.692,13.326,1.475a23.343,23.343,0,0,1,2.441,4.845C200.305,113.728,201.12,114.276,202.515,114.015ZM53.657,138.6l0,.138c1.088,0,2.178.013,3.266,0,2.938-.041,5.351-.582,5.8-4.265.217-1.793,1.844-3.056,2.994-4.456,4.053-4.935,9.194-8.755,13.6-13.326,2.188-2.272,5.045-4.043,5.956-7.361q-4.258.575-8.517,1.149c-1.08.144-2.159.324-3.245.387-4.35.252-8.726.613-12.952-.846-3.659-1.264-6.979-3-8.621-6.855-1.146-2.692-1.269-2.736-3.458-.8-6.108,5.4-12.343,10.678-18.2,16.343-4.681,4.528-9,9.454-13.247,14.4-2.329,2.71-1.946,3.174,1.4,3.836,2.684.53,5.391.576,8.086.853,3.84.4,7.609-.625,11.413-.4C43.173,137.7,48.413,138.189,53.657,138.6ZM136.815,35.784a70.442,70.442,0,0,1-8.3-.061c-4.253-.516-7.284,1.143-9.871,4.325a51.164,51.164,0,0,1-6.949,6.87c-2.911,2.438-5.69,5.04-8.436,7.665-.854.816-1.93,1.63-1.392,3.235C104.1,64.5,111.228,70.264,117.58,68.4c5.54-1.63,10.947-3.722,15.592-7.387,8.909-7.03,14.486-17.229,23.27-24.376a1.641,1.641,0,0,0,.506-1.39c-.286-.927-1.176-.522-1.822-.488C148.968,35.085,142.812,35.443,136.815,35.784ZM437.561,291.441h-.089c0-1.812-.032-3.625.009-5.436.037-1.652-.425-2.706-2.324-2.959a46.932,46.932,0,0,1-5.273-1.288A38.752,38.752,0,0,1,405.5,264.067c-.95-1.539-1.886-3.088-2.865-4.609-.372-.577-1.037-1.613-1.246-1.538-1.039.372-.653,1.473-.686,2.258-.422,9.942-.776,19.887-1.173,29.831-.106,2.665.844,5.279-.125,8.026-.666,1.89.473,2.7,2.379,1.513,3.742-2.331,6.856-1.162,10.034,1.017,2.24,1.535,4.568,2.942,6.846,4.422,1.454.944,2.473.848,3.524-.779,1.7-2.635,4.38-3.59,7.476-3.659,7.8-.175,7.8-.206,7.895-8.02C437.565,292.166,437.561,291.8,437.561,291.441Zm-111.175,2.007c-.163-6.966-1.176-13.158-5.488-18.336-4.2-5.039-9.5-7.049-15.991-5.821a3.936,3.936,0,0,0-3.19,2.485,93.367,93.367,0,0,0-7.428,22.636c-1.547,8.694-1.517,8.816,6.544,12.459a5.539,5.539,0,0,0,5.129.046c5.706-2.765,11.425-5.508,17.2-8.124C325.814,297.593,327.4,296.044,326.386,293.448ZM284.613,419.233v-.043c1.809,0,3.622-.072,5.427.015,4.459.214,8.067-1.05,10.507-5.13,2.409-4.028,4.931-8.011,7.7-11.8,7.155-9.776,14.474-19.432,21.725-29.138.416-.557,1.212-1.077.777-1.852-.394-.7-1.277-.618-1.938-.412-3.015.94-6.13.677-9.177.586a6.344,6.344,0,0,0-5.967,2.912,93.665,93.665,0,0,1-8.436,9.9c-2.673,2.946-5.747,5.691-7.737,9.06-3.475,5.881-8.195,10.544-12.93,15.28-2.68,2.68-5.233,5.489-7.8,8.285-.441.481-1.137,1.083-.632,1.871.454.708,1.276.447,1.958.452C280.269,419.244,282.441,419.233,284.613,419.233ZM343.92,82.48a93.3,93.3,0,0,1-.552,16.808c-.355,2.88-.173,3.165,2.641,3.4,2.7.228,5.431.2,8.148.284,8.871.257,17.67,2.076,26.588,1.22,1.532-.147,3.835.787,4.393-.735.529-1.444-1.789-2.385-2.774-3.612a3.914,3.914,0,0,0-.8-.732c-7.9-5.534-14.632-12.45-21.927-18.7-4.675-4-9.041-8.367-13.565-12.548-.365-.337-.911-.749-1.327-.7-1.011.11-.8,1.081-.8,1.725C343.9,73.421,343.92,77.95,343.92,82.48Zm-6.376,252.772c0,.435.017,2.067,0,3.7-.049,4.037-.031,4.308,3.7,3.975a144.089,144.089,0,0,1,21.179-.256c3.056.177,7.18,1.394,9.237-.785,2.1-2.224.8-6.254.921-9.5a12.3,12.3,0,0,1,.112-2.17c.337-1.527-.448-2.342-1.622-3.068-4.466-2.76-8.975-5.46-13.34-8.374-3.878-2.589-7.481-3.359-11.028.469-.469.507-1.274.687-1.867,1.1C336.375,326.21,337.3,323.376,337.544,335.252ZM315.1,342.963c3.881,0,7.511,0,11.142,0,1.382,0,2.65-.255,2.492-2.019-.291-3.247-.685-6.485-1.069-9.723-.093-.794-.742-1.147-1.38-1.528-1.4-.834-2.72-1.8-4.137-2.605-5.513-3.118-11.539-5.309-16.63-9.193a2.091,2.091,0,0,0-2.5-.279c-2.851,1.584-5.695,3.18-8.582,4.7-1.414.744-1.37,2.014-1.4,3.269-.095,4.17-.188,8.342-.219,12.514-.036,4.9.335,5.234,5.164,5.364C303.784,343.618,309.527,342.029,315.1,342.963ZM80.174,422.616c2.534.832,3.426.085,4.174-1.1,2.043-3.235,4.82-5.855,7.276-8.748q13.506-15.911,27.572-31.322c2.167-2.381,4.983-4.242,6.154-7.451-3.284-2.161-7.016-.9-10.52-1.385-2.462-.339-3.8.9-5.274,2.81-5.622,7.326-10.852,15.141-17.764,21.22-7.739,6.808-13.415,15.179-19.912,22.936-.549.655-1.466,1.267-1.128,2.291.391,1.185,1.515.707,2.328.725C75.791,422.653,78.505,422.616,80.174,422.616ZM66.768,392.507h.554c0,5.807-.013,11.614.019,17.421,0,.644-.193,1.614.808,1.681.364.024.87-.58,1.147-1a53.26,53.26,0,0,1,8.335-9.294,56.885,56.885,0,0,0,7.672-9.157,34.748,34.748,0,0,1,5.484-6.726c3.476-3.031,5.737-6.993,8.762-10.346.474-.526,1.086-1.087.87-1.862-.335-1.209-1.441-.862-2.262-.855q-14.139.115-28.278.306c-3.164.044-3.134.092-3.118,3.51C66.786,381.624,66.768,387.065,66.768,392.507Zm205.419,13.744c-.11,1.263-.25,2.524-.319,3.789-.038.689-.236,1.61.463,1.948.86.416,1.219-.588,1.541-1.1,2.708-4.293,6.088-8.087,9.022-12.195,5.059-7.084,10.17-14.071,16.38-20.225,1.89-1.873,4.058-3.6,5.269-6.1-2.459-1.162-5.141-.572-7.7-.971q-2.415-.375-4.847-.636a159.427,159.427,0,0,0-16.771-1.359c-1.942,0-3.246.451-2.85,2.731,1.165,6.7-.264,13.353-.467,20.019C271.766,396.884,272.6,401.55,272.187,406.251ZM246.638,100.988a77.153,77.153,0,0,0,17.541-.163c3.794-.338,4.109-.817,4.316-4.745.181-3.437-.364-7.034.472-10.288,1.736-6.758,1.951-13.614,2.416-20.474a2.039,2.039,0,0,0-.276-1.429c-.469-.438-1.047.026-1.43.379-4.263,3.919-8.93,7.413-12.347,12.211a39.03,39.03,0,0,1-8.639,9c-5.118,3.725-8.231,9.143-12.416,13.639-1.25,1.343.065,1.84,1.263,1.855C241.164,101.016,244.792,100.988,246.638,100.988Zm-82.97,38.375,0,.18c5.809,0,11.618.023,17.426-.017,1.329-.009,2.83-.193,1.748-2.147a36.094,36.094,0,0,1-4.449-17.752c0-.972-.332-1.889-1.451-1.929-3.523-.126-6-2.208-8.554-4.271-2.762-2.226-2.932-2.218-4.721.556a78.309,78.309,0,0,1-11.659,13.579,41.53,41.53,0,0,0-7.176,8.863c-1.368,2.351-1.271,2.818,1.411,2.89C152.048,139.471,157.859,139.363,163.668,139.363ZM454.975,242.687c-.4-1.615-.914-3.253-2.31-3.685-2.511-.776-5.014-2.109-7.858-.778a46.114,46.114,0,0,1-7.128,2.623c-4.694,1.311-7.368,5.082-10.521,8.285-.205.207-.173.647-.252.979.342.06.726.252,1.018.159a19.981,19.981,0,0,1,5.838-1.147c3.257-.044,4.154.8,4.42,3.971.115,1.364-.907,3.252.4,3.965,1.235.673,2.59-.9,3.869-1.5a69.975,69.975,0,0,0,6.716-3.566C452.681,249.845,453.894,246.215,454.975,242.687Zm3.562,70.854c4.634,0,8.435.042,12.236-.018a37.527,37.527,0,0,0,5.4-.421c1.723-.28,2.94-2.534,2.607-4.694-.313-2.029-1.88-1.89-3.354-1.678a37.759,37.759,0,0,1-8.662.217c-2.2-.191-4.295-.448-5.741,1.858a1.674,1.674,0,0,1-2.435.345c-1.4-1.144-1.939-.533-2.782.739a2.971,2.971,0,0,1-3.8,1.271c-1.458-.66-1.155-3.127-2.362-3.381-1.409-.3-1.081,2.582-2.961,2.736a2.992,2.992,0,0,1-2.486-.677c-.9-.83-1.482-.415-2.225.313-1.561,1.529-2.56.676-3.176-.984-.317-.856-.538-1.913-1.668-1.723s-.923,1.365-1.047,2.21c-.158,1.074-.255,2.156-.4,3.233-.156,1.16.438,1.67,1.506,1.689a12.989,12.989,0,0,0,3.245-.1C446.7,312.954,453.057,313.75,458.537,313.541Zm-84.98-3.6h.128c0-2.343-.029-4.686.012-7.028a3.3,3.3,0,0,0-1.678-3.17c-1.168-.637-2.059.256-2.825,1a109.656,109.656,0,0,1-11.41,9.037c-1.467,1.086-1.286,2.064.161,2.782q6.523,3.235,13.141,6.277c1.134.52,2.092.256,2.139-1.334C373.3,314.985,373.443,312.466,373.557,309.945Zm55.852-197.251c-.113-1.441-.223-2.523-.278-3.608a3.724,3.724,0,0,0-2.783-3.61,4.672,4.672,0,0,0-4.954,1.429,8.508,8.508,0,0,0-1.508,2.844c-2.115,5.507-.813,11.066-.141,16.606a3.247,3.247,0,0,0,.84,1.363c.936,1.183,1.893,1.634,2.965.093C426.8,123.138,429.324,118.2,429.409,112.694Zm-31.16,199.473c-.04,2.5,4.14,8.956,6.518,9.533,2.332.566,3.02-2.151,4.637-3.129a14.2,14.2,0,0,0,2.187-1.6c6.366-5.755,6.977-5.323-.421-9.023a5.707,5.707,0,0,1-1.337-.924c-2.824-2.64-5.5-1.8-8.177.264C399.951,308.6,397.846,309.616,398.249,312.167ZM6.207,115.912c.48,5,.709,10.058,2.431,14.861.164.456.674,1.052,1.068,1.088A1.736,1.736,0,0,0,10.968,131c1.921-3.478,3.738-7.025,4.421-10.983.49-2.834,1-5.712.228-8.588-1.086-4.02-4.267-4.844-7.312-1.958A7.285,7.285,0,0,0,6.207,115.912Zm396.626,17.346c2.144-.87,5.234-.648,8.3-.735,2.794-.079,3.085-.683,1.531-3.141-3.062-4.846-7.758-8.015-12.075-11.554-.866-.71-1.674-.239-1.757,1.011a77.669,77.669,0,0,0,.629,12.374C399.605,132.728,400.434,133.479,402.833,133.258ZM326.619,314.736c0-3.112-.007-5.276,0-7.441.007-1.681-.788-2.4-2.355-1.692-2.792,1.269-5.567,2.59-8.262,4.05-5.537,3-5.511,3.039-.332,6.273a32.687,32.687,0,0,0,3.643,2.33c2.249,1.014,4.862,3.379,6.833,2.2C327.861,319.43,326.469,316.1,326.619,314.736Zm121.755-23.562h.193c0-2.347-.014-4.694.009-7.041.007-.751-.013-1.6-.814-1.788-1.828-.438-3.561.247-5.246.843-1.617.572-1.2,2.089-1.137,3.259.194,3.781.591,7.552.779,11.333.1,1.942.747,3.048,2.871,3.009,2.458-.044,3.206-.615,3.324-3.114C448.455,295.513,448.374,293.341,448.374,291.174ZM124.887,13.713a7.311,7.311,0,0,0-.095-1.342c-.455-2.762-1.721-3.813-4.222-4.047-2.744-.257-3.414,1.668-3.939,3.581-.873,3.182-1.107,6.4.338,9.541.819,1.783,1.016,4.718,2.912,4.858,2.209.163,2.11-2.864,2.892-4.552A17.249,17.249,0,0,0,124.887,13.713Zm68.444,104.864c-.12-1.415.2-3.073-.472-4.615-.434-.99-.89-2.015-2.27-1.922a2.238,2.238,0,0,0-1.969,1.614c-2.328,6.069-2.393,12.308-1.236,18.609a1.81,1.81,0,0,0,.943,1.2c.271.1,1-.379,1.17-.757C191.455,128.253,193.4,123.783,193.331,118.577ZM297.37,13.386c-.045,3.189,1.064,5.679,2.162,8.152.319.72,1.2,1.116,1.612.18,1.969-4.456,3.629-9.039,3.2-14.015-.149-1.734-2.33-2.352-3.811-1.109A8.441,8.441,0,0,0,297.37,13.386Zm39.492,293.227c-1.093-.019-1.493.436-1.435.948q.6,5.325,1.355,10.633c.158,1.111,1.016.776,1.6.454.78-.428,1.461-1.034,2.2-1.534,7.3-4.915,6.37-3.436.1-8.33A26.77,26.77,0,0,0,336.862,306.613Zm129.264-88.082c.927-.045,1.569-.161,1.676-.743.923-5.009,4.695-5.941,8.89-6.34a1.059,1.059,0,0,0,.725-.647.933.933,0,0,0-.382-.829c-1.51-.6-3.046-1.136-4.588-1.648-.517-.171-1.2-.235-1.465.321-1.8,3.8-5.553,5.009-8.9,6.766-.79.414-1.133,1.088-.2,1.535A43.868,43.868,0,0,0,466.126,218.531Zm-87.689,94.895c-.025.451-.393,1.261.6,1.546.692.2,5.565-2.991,5.793-3.7a1.161,1.161,0,0,0-.579-1.332c-1.733-1.208-2.8-4.361-4.76-3.782-1.671.5-.335,3.572-.863,5.439A11.388,11.388,0,0,0,378.437,313.426Zm49.938.194c2.017-.135,2.353-1.9,3.011-3.334a2.662,2.662,0,0,0-.3-3.043c-1.1-1.29-2.386-.5-3.5-.139-2.009.647-1.884,2.439-1.738,4.068A2.546,2.546,0,0,0,428.375,313.62ZM200.726,123.288c1.191-.2,1.586-1.312,2.289-2.053.327-.345.6-.978.049-1.327a2.218,2.218,0,0,0-1.5-.286c-1.66.359-1.478,1.745-1.443,2.968C200.125,122.824,200.506,123.047,200.726,123.288Zm-72.253,57.191a56,56,0,0,1-6.519-.043c-4.938-.581-9.72.364-14.533,1.119-1.473.231-3.226.751-3.4,2.219-.22,1.925,1.924,1.655,3.153,2.128a9.784,9.784,0,0,0,2.134.4c15.262,2.157,30.682,2.008,46.014,3.133a20.194,20.194,0,0,0,3.78-.286c7.012-.827,14.019-1.705,21.035-2.5,2.336-.264,4.7-.3,7.042-.494a1.956,1.956,0,0,0,1.735-1.112c.47-1.02-.187-1.682-.747-2.386-1.7-2.134-4.058-2.026-6.452-2.022q-26.624.042-53.247.015Zm54.13,68.743a17.339,17.339,0,0,0,2.648-.5,2.067,2.067,0,0,0,1.49-2.053,1.991,1.991,0,0,0-1.257-1.649A12.958,12.958,0,0,0,180.2,243.9c-7.1.017-14.073-1.322-21.113-1.908-8.133-.678-16.333-1.047-24.438.037-6.8.91-13.492,2.641-20.388,3.042a26,26,0,0,0-4.775,1.018c-.272.068-.535.476-.653.784a1.065,1.065,0,0,0,.618,1.326,12.462,12.462,0,0,0,6.371,1.075c15.778-.284,31.53.484,47.284,1.186A98.812,98.812,0,0,0,182.6,249.222Zm1.336,61.824c1.574.015,2.992-.044,3.25-1.988.228-1.71-.714-2.675-2.227-3.291a16.809,16.809,0,0,0-6.874-1.46c-5.074.148-10.147.358-15.222.5-9.775.282-19.552.518-29.327.81-7.968.238-15.885,1.491-23.884,1.175a15.648,15.648,0,0,0-3.783.4c-.379.079-.732.715-.9,1.169-.082.217.211.752.469.889a8.9,8.9,0,0,0,2.481,1.031,134.324,134.324,0,0,0,18.354,2.178c13.806.554,27.554-.991,41.341-1.442C173.056,311.025,178.5,310.992,183.939,311.046Zm115.053-69.191a43.49,43.49,0,0,1-21.051-4.222c-14.22-7.139-24.375-17.491-26.566-34.028-.75-5.666.576-11.186,1.384-16.72,2.093-14.334,9.524-25.94,18.467-36.976,6.769-8.353,15.177-12.471,25.655-13.473a70.441,70.441,0,0,1,33.072,4.525c6.063,2.39,12.276,4.428,17.63,8.358a62.377,62.377,0,0,1,14.489,14.625,27.975,27.975,0,0,1,5.06,19.565c-.924,8.506-2.245,17-6.056,24.744a64.95,64.95,0,0,1-24.283,27.26c-4.276,2.643-9.174,3.215-14.015,4.046C314.922,240.908,307.134,242.78,298.992,241.855ZM357.3,187.426c0-1.271-.089-2.549.015-3.812.511-6.234-1.765-11.375-6.139-15.664a40.055,40.055,0,0,0-10.929-7.886c-8.342-3.875-16.692-7.893-25.923-9.409-7.716-1.267-15.378-2.161-23.222-.578a21.063,21.063,0,0,0-11.231,6.15c-2.917,2.976-5.727,6.058-8.555,9.12a47.053,47.053,0,0,0-11.39,21.938,60.377,60.377,0,0,0-1.438,13.47c.015,6.721,1.749,13.444,6.737,18.5,9.648,9.783,21.489,15.243,35.1,16.866,10.106,1.207,19.824-1.254,29.563-3.366a16.548,16.548,0,0,0,5.346-2.64c4.652-3.011,8.006-7.265,11.4-11.539C353.883,209.43,358.164,199.333,357.3,187.426ZM291.468,70.81a13.405,13.405,0,0,1,2.555-6.924,8.253,8.253,0,0,1,3.688-3.064c3.623-1.49,11.544.395,14.038,3.437a7,7,0,0,1,1.783,6.027,18.506,18.506,0,0,1-6.889,11.272c-3.212,2.4-6.238,2.511-9.49.229C293.8,79.43,291.22,76.5,291.468,70.81Zm8.8.218a19.485,19.485,0,0,0,.6,2.986c.622,1.753,1.677,3.391,3.587,3.73,2.1.372,2.494-1.734,3.28-3.039a17.936,17.936,0,0,0,2.056-4.368A4.888,4.888,0,0,0,305.7,64.42a4.51,4.51,0,0,0-5.1,3.73A26.9,26.9,0,0,0,300.266,71.028ZM480.492,224.39c-.108,1.355,1.117,1.775,2.241,1.783,1.327.01,2.618-.43,2.831-1.946.181-1.284-.727-1.936-2.047-2.176C482.1,222.2,480.633,222.625,480.492,224.39ZM315.706,193.052c-1.814,0-3.7-.313-5.426.074-2.574.576-3.565-.871-4.628-2.667a6.875,6.875,0,0,1-.579-4.738c.328-2.333.859-4.655.958-7,.1-2.283.423-3.234,3.262-3.257,3.384-.028,4.014-2.512,1.658-5.194a58.1,58.1,0,0,0-4.6-4.637c-2.318-2.108-2.925-2.095-4.855.151-1.534,1.786-2.951,3.677-4.337,5.582-.968,1.329-2.1,3.015-.738,4.411,1.612,1.644,2.839-.148,4.054-1.166.793-.664,1.895-.971,1.716.566-.666,5.723-.163,11.695-2.683,17.049-1.133,2.407-.777,4.608-.343,6.849.532,2.75,2.878,3.677,5.428,2.382a6.466,6.466,0,0,0,2.787-2.506,2.418,2.418,0,0,1,2.27-1.248c4.7.232,9.4.478,14.1.769,1.186.074,1.439.929,1.175,1.934a4.776,4.776,0,0,1-.684,1.468,2.065,2.065,0,0,0,.155,2.938c1.286,1.176,2.447.153,3.321-.645,2.408-2.2,4.759-4.47,6.982-6.853,1.623-1.74,1.609-3.316-.3-4.418-2.853-1.649-5.247-3.874-7.965-5.667-.751-.5-1.624-1.127-2.5-.636-1.1.617-.883,1.822-.892,2.91-.01,1.219,1.853,2.2.673,3.409-.973.994-2.418.246-3.658.222-1.451-.028-2.9-.006-4.352-.006Zm-11.66,24.893c-2.68.213-2.688,2.417-2.839,4.426a11.378,11.378,0,0,0-.305,2.634c.213,1.2.49,2.671,2.019,2.887a3.518,3.518,0,0,0,3.9-2.185,8.338,8.338,0,0,0,.357-2.433C307.167,220.824,305.485,217.83,304.046,217.945Zm-35.62-26.418c-1.489.169-2.891.512-3.136,2.345a3.6,3.6,0,0,0,3.021,3.873,6.222,6.222,0,0,0,5.423-1.814,2.512,2.512,0,0,0-.537-4.063,7.858,7.858,0,0,0-2.125-.469C269.866,191.454,269.141,191.445,268.426,191.527Zm83.005,4.036c-.069-1.53-1.868-2.956-3.826-3.026-1.775-.064-3.232.388-3.47,2.443-.219,1.9,1.2,3.285,3.3,3.337C349.479,198.368,351.5,196.978,351.431,195.563ZM304.342,159.6c.665.229,2.429-2.518,2.139-3.5-.362-1.227-1.069-2.5-2.485-2.6-1.881-.128-1.639,1.513-1.846,2.782A3.175,3.175,0,0,0,304.342,159.6Z"/></g></g></svg>