<svg xmlns="http://www.w3.org/2000/svg" viewBox="0 0 372.3 411.5"><path d="M174.2 167.2h5.4c.8.1 2-.4 2.3.8 0 .5-.7 1.2-1.2 1.7-.8.8-1.7 1.3-2.4 2.2-1.9 2.2-3.3 4.8-2.7 8a5 5 0 005.4 4.1l3.7-.8c2.6-.4 5.2-2 7.8-.4-1.2 2.2-2.3 4.4-3.7 6.5a7.7 7.7 0 00-1.5 4.6v4.9c.2 4.4 2.4 5.8 6.5 4 4.3-1.8 8-4.7 11.9-7.5 2.8-2 5.4-4.2 8.4-5.8 3.2-1.8 6.5-3.2 9.6-5 5-3 10-5.9 14.9-9 4.8-3.1 10.3-5.2 14.9-8.8 4.7-3.7 9.8-6.6 14.4-10.5a72 72 0 0019.8-28.2 44.8 44.8 0 003.2-20v-4c.4-8-2.9-14.4-8.3-19.8-1.2-1.1-2.6-2-4-2.7-5.1-2.8-10.6-2.5-16-1.4-1.4.2-3 1.3-4 2.5a20.6 20.6 0 00-3.3 5.6c-1.7 4.1-3 8.5-4.7 12.7-1.3 3.4-2.4 7-4.4 9.9-3 4.3-6.4 8.3-10.4 11.8s-8.2 6.5-12.4 9.7c-3 2.1-6 4-8.6 6.6a58.8 58.8 0 01-25.5 13.9c-4.3 1.4-8.7 2.4-13 3.7-2 .6-3.5 1.8-5 3.2-1.5 1.5-1.5 3.3-.9 5 .5 1.8 2 2.6 3.8 2.5zm16-7.9c7.2-2.2 14.4-4.4 20.5-9.2 2-1.6 4.4-2.7 6.5-4l9.7-6c7.9-5.1 14-12 20-19 3.9-4.6 6.8-9.8 10-14.8 1.5-2.4 2.3-5.3 3.3-8 .9-2.4 1.3-5 2.8-7a3.7 3.7 0 013.2-1.7c2.6 0 5 .4 7.4 1.3 4.7 1.8 7.2 5.6 7.7 10.3a62 62 0 01-.2 15.7c-.4 2.5-1.2 5-2.1 7.3-1.5 3.5-3.4 6.8-5 10.3a32 32 0 01-8.1 10.7c-3.4 3-6.7 6.1-10.2 9-3.2 2.7-6.5 5.2-9.8 7.7-.6.5-1.2 1-1.8 1.3-6.7 3-12.3 7.6-18.3 11.6l-12.7 8.3c-2.2 1.5-4.5 3-6.5 4.9-2.8 2.5-5.6 5-9.2 6.6-1.3.5-2.4 1.6-3.6 2.3-.2.2-.7.2-1 0-.2-.1-.4-.6-.4-.9a6 6 0 011-4.1 720.8 720.8 0 009.4-14c1.3-2.2.8-2.1-.8-4.2a2.3 2.3 0 00-2.4-1c-1.8.4-3.5.9-5.3 1.2-3 .5-6 1-9.1 1.3-.3 0-.9-.2-1-.4 0-.5 0-1.2.2-1.5l5.3-4.7 3.9-3.8c.8-.9 0-2.8-1.3-3-1.7 0-3.6 0-5.3.3-2.1.4-4.1.8-7 0l10.1-2.8zm-53.5-23c.7-1.8 2.8-2.8 4.4-2.2 1.8.8 3 2 3.6 3.8.2.6 0 1.5-.4 2a3.8 3.8 0 01-3.5 1.7c-2.6 0-4.9-3.2-4-5.4zm7.1 33.2l-1.5 1.4c-1.9 1.2-3.7.4-4-1.8 0-1 0-2.2.2-3.2.3-1.4 1.4-2 3.4-2l2 1.7c1.7 1.4 1.8 2 0 3.9zm-77.6-15.8c1.8 1 1.8 2.8 1.4 4.7-.6 2.6-1 5.3-1.3 8-.4 2.8.4 5.4 1.5 8 .6 1 2 1.7 3.2 1.2 1.8-1 3.7-1.8 5.2-3 2.6-1.8 5-1.8 7.6-.2l9.3 5.5c1.6 1 3 2 4.7 2.8 1.2.6 2.5.4 3.6-.3l2.1-1.7c1-.8 1.2-1.9.8-3a51 51 0 00-2-4.4c-2.9-5.5-1-8.1 3-11.7.3-.2.8-.2 1-.5 1.8-1.3 3.5-2.6 5.1-4 1.2-1 1.2-2.6.4-4-1-1.6-2.4-2.2-4.1-2.3l-9.2-.5c-1.4 0-2.4-.5-2.8-2l-2-7.3c-1-3.1-2-6.3-4.2-8.8-1.2-1.4-3-1.4-4.3 0-.6.6-1 1.4-1.4 2.2-.9 2-1.5 4-2.5 6-.6 1.5-.6 3.5-2.3 4.1-1 .4-2.4-.3-3.6-.4H71v-.1h-3.3c-2.3-.2-3.5 1.2-4.5 3.1-.5 1-.5 2-.2 3 .7 2.1 1 4.3 3.2 5.6zm13 2.6a13 13 0 004.1-5.6l3-6.9c0-.3.5-.6.7-.6.3 0 .7.2.9.5l.8 2c.6 1.5 1 3 1.5 4.6 1 3.2 2.7 5.4 6.4 5.5.4 0 .8.5 1.3.9-.4.7-.6 1.5-1 2a11.7 11.7 0 00-3.3 9c.1 1.4-.6 1.7-2 1-2.2-1-4.4-1.8-6.4-3-2.8-1.8-5.5-2.7-8.7-1.3-.9.3-1.1-.2-1.1-1.2 0-3 1.7-5.3 3.8-7zm228.7-7.2c0-1.2 1.5-3.5 2.7-3.7 1.5-.3 3-.4 3.8 1.3l1.4 2c-.1.8-3 4-3.6 4-2.4.6-4.3-1-4.3-3.6zm1.7-28.6c-1.3-1.8-2-3.7-1.1-6 1.4-4.2 3.4-5 7.2-2.8 1.8 1 3.5 3.8 3.6 5.7 0 2-1.6 4.6-3.2 5.2-2.9 1-4.9.4-6.5-2zm-38.7 5.2c4.2-3.6 7.2-8 6.8-13.1.1-4.5-.6-6.1-3.6-8.2a32.8 32.8 0 00-5.2-3c-2.9-1.2-6 0-7.1 2.9-.9 2-1.7 4-2.3 6-1.3 4.4-2 8.8.2 13.2 2.4 4.7 6.9 6 11.2 2.2zm-7.7-15c.4-2 1.3-2.9 2.7-2.8 2.3 0 4.5 1.5 4.3 3.3-.3 3.5-.1 7.3-3.8 9.6-.7.5-1.6.2-2.3-.6-1.4-1.7-.7-3.8-1.3-6l.4-3.5zm-18.4 85.8v.5c-1.2 1.7-1.9 3.9-4.3 4.3-.5 0-1 0-1.4-.3-1.7-1-1.8-3-2.4-4.6v-.5c.4-1.5 2.4-2.8 4.2-2.7 1.3 0 3.7 2 3.9 3.3zm125.4-70.3c-3.3-5.6-6.8-11-11.6-15.6-3.5-3.4-7-7-9.7-11-2.6-3.5-5.8-6.4-9-9.3-3.7-3.4-7.8-6.5-11.6-9.7-9-7.7-18.2-15-28.5-20.9-1.2-.7-2.4-1.6-3.5-2.5-3.8-2.7-7.5-5.7-11.4-8.2-5.5-3.5-11.4-6.4-17.3-9.2-4.3-2-5-1.8-2.5-6.8.5-.9.8-2 .6-3-.4-2.3-3.1-4.5-5.4-4.6h-7.7c-1.3-.1-1.7-.7-2-2.1-.7-4.3-1.4-8.6-2.4-12.8-.4-1.7-1.3-3.3-2.3-4.9-.8-1.3-2.4-1.6-3.8-.8a5 5 0 00-1.2 1c-3.5 4.4-8 8-10.5 13.1-1 2-1.3 2-3.4 1.2a24 24 0 00-9-1.6c-3.9 0-7.7 0-11.5-.2-3-.2-5.8-.7-8.7-.8-7-.2-14-.4-21-1.8-5.5-1-11-.2-16.3 1-1.4.4-2.8.8-4.2 1-1.1.2-2.2.1-3-.8a18.4 18.4 0 00-8.8-4.1l-11-2.9a45.7 45.7 0 00-30 .8c-1 .3-2.1.1-3-.8-.8-1-1.6-2-2.5-2.8C96.7 6 95.4 4.5 94 3.7c-2.3-1.2-4.7-2-7.1-2.7-5-1.6-10-1.2-15 .3-6.3 2-9 6.4-8 12.8l.3 2.2A40 40 0 0071.5 37c.8 1 2 2.2 1.8 3-.2 1-1.8 1.6-2.9 2.3-5.9 3.6-11 8.2-16.4 12.4-4.2 3.1-8.5 6.1-12.3 9.7-5.3 5.2-10.2 10.8-15.1 16.2-3 3.2-5.4 6.8-8.1 10.2A67.3 67.3 0 007.8 110a66 66 0 01-6.5 19 8.8 8.8 0 00-.3 8.7 18 18 0 011.5 3.6c1.4 5.8 3.1 11.4 5 17.1 3.1 10 6 20.2 10.8 29.6 2 3.8 3.8 7.8 5.7 11.7 2.3 4.7 4.5 9.5 7.2 14 2.5 4.2 4.4 8.8 6.3 13.3 2.5 6.2 5.8 12 9.3 17.7 2 3.2 3.8 6.5 5.7 9.8l5.6 10c2 3.6 4.1 7.2 6 11 2.7 5.3 5.1 10.7 7.8 16 1 2.2 2.5 4 3.6 6.1 2.7 5.3 5.8 10.4 8.1 16 1.7 4.1 4.3 7.9 6.2 12 3.3 7 6.2 14.3 9.4 21.4 1.1 2.7 2 5.4 2.1 8.4 0 1.6.3 3.3 1 4.7 1.7 3.4 3.1 6.9 5.7 9.8 3.3 3.8 6.2 8 9.2 12.1 3.7 5 7.3 10 11.8 14.2 3.7 3.5 7.8 6.3 12.6 8.2 2.8 1 5.7 2.1 8.5 3.3 4.8 2 9.7 3.2 14.8 3.4 5 .2 10 .2 15.1.3v-.1c5.4-.2 10.8-.1 16.2-.5a43.5 43.5 0 0018-3.9l17.2-4.6c1.2-.3 2.4-.9 3.6-1.3l6-2.6a60.3 60.3 0 0038.2-34.4c1.3-2.6 3-5 3.7-7.8.6-2.8 2-5 3.1-7.5l2-3.8c1.8-4.1 3.8-8.2 4.8-12.6 4-7 5.9-14.7 9.4-21.9 2.3-4.5 4.2-9.1 6.8-13.5 1.9-3 3.4-6.4 4.8-9.7l10-25.7 1.4-3.5a77.6 77.6 0 017-18.1c3-5 5-10.4 7.3-15.7 3.2-7.7 7.4-14.9 10-22.9 1.7-5.5 4-10.9 5.6-16.4 2-6 4-12 7-17.5.4-.6.5-1.3.8-2l5.5-13.5a38 38 0 001.6-4.6c.7-2.5 1.2-5 1.7-7.4.8-4.8 1-9.6-1.5-13.8zm-24.4 39.3c.1-.4 0-.5-.5-.3l-.1-.1c.1.1 0 .5-.3.9-.4.3-.5.2-.8 0 0-.6-.3-.2-.7 0l.3-.3c.6-.7.5-.8.3-.9l-.4-.3c.3-.3.2-.4 0-.5-.4.2 0-.1.5-.8.8-.5.8-.6.7-.7 0 0 .1-.4.3-.3.3-.3.3.2.1.7-.2 1 0 1 .2.7.5-.2.8 0 1 0 0 .3 0 .5.2.5l-1 2.4c-.1-.3 0-.6.2-1zm-9.3-13.9l.1.1h.3c-.2 0-.3.2-.5.4v-.5zm11.1 10.2c-.9.5-.9.5-.2.4l-.2.6h-.7c-.7-.6-1-1.4-.3-2l.9-.5c.2-.3.4-.2.4-.2.1 0 .5 0 1-.3l-.9 2zM232.1 44.5l2.5-4.9.6-1.5-.8-1.4c-1.8-1.5-2.9-3.2-1.5-5.6.1-4.1 2.2-7.6 4-11.2.5-1 1-2.4 2.5-2.5l.3 3.2c.2 2.3.3 4.7.6 7 .3 2.5 1 5 2.6 7 1 1.3 2.3 1.9 3.8 1.5l6.3-1.8c1.2-.3 2 .7 1.8 2l-.2 1a2337 2337 0 01-4 12.9c-.2.3-.5.8-.7.8-.5 0-1-.2-1.4-.5l-3.8-4.6c-1.5-2-3.6-2.4-5.8-1.8-2 .4-3.8 1.2-5.7 1.7-.3.1-.7-.1-.9-.3-.2-.3-.3-.8-.2-1zM134.3 85a29.8 29.8 0 01-8.8-6.2c-2.7-3-5.4-6.3-8.7-8.9-.7-.5-.4-1.9.4-2.2a27 27 0 012.6-.9l11.5-3.2c7.2-2 12.8-6.3 17.9-11.6 2.8-3 5.4-6.2 7.6-9.7h.3c.2.3.1.6-.4 1 0 .1 0 .3.4.7l.5.5c.2.1.2.1.2.3l-.1.4c.2.3.6-.3.4-.6l.1-.3c.2-.2.3 0 .4.2h-.1c-.1.1 0 .4 0 .4v.3s-.1.1-.2 0l.1.4c0-.1.1.1 0 0V46.2c.1 0 .2-.1.5.2.2 0 .2 0 0 .2h-.2l.5.5c.2 0 .3.2.3.2v.7c0 .2 0 .3.2.5.2 0 .3.2.4.4 0 .2.1.1.3 0 0-.2 0-.2.2 0 .1.3.2 1 .1 1.3v.3c.1 0 .3 0 .4.2l.4.2.1.4c.2.5.2.5.5.6v-.3l.3.1c.2.4.3.7.2 1l-.2-.2-.3-.4c-.2-.1-.2 0 0 .2v.6l.4 1.3c.3.9.4 1 .6 1.1l.4-.1c0-.2-.2-1-.4-.9 0 0-.2.1-.2 0v-.1c.1 0 .2-.1.2-.5 0-.2 0-.4.1-.3.2.2.3.3.4 0 .1 0 .2-.2 0-.6 0-.1-.1-.3 0-.4 0 0 .3.7.3 1.2l.1 1c.1.3.2.5 0 .4 0 0-.1.2 0 .4l.1.2c.2-.3.4.5.3 1.1-.1.5-.2.9-.4 1-.2 0-.1.2 0 .6 0 .2 0 .4.2.5h-.1c-.2.3-.2.3 0 .4.3 0 .4.3.4.3.2.2.1.4 0 .2h-.1c.1.4-.3 1-.4.8-.1 0 0-.2 0-.2V60h-.1c-.2 0-.1.2 0 .6 0 .4 0 .6-.1.4 0-.2-.1 0 0 .2 0 0 .1.2.3.1.3 0 .3 0 .2.2-.2.2-.2.2 0 .3.1.2.4.1.5.1h.4v1c.1.9.4 1.2.7 1.2l.3-.1a993.9 993.9 0 000 1h-.2s-.2 0-.1.5v.4c.1.1.1.1 0 .2-.2.2-.4-.4-.4-1.2 0-.4-.1-.7-.4-.9-.4 0-.7 1-.3 1 .2.2.2.6-.1.5-.2 0-.2 0-.3.2l.1.2s.3.2.3.5c.2.4.2.4 0 .3-.4 0-.5 0-.4.2 0 0 .2.2.3.1l.5.6c.2.5.2.5.6 0 .3-.2.3-.4.4-.8 0-.8.3-1.6.5-1.5l.2.4h.2c.2 0 .7.5.5.7-.2 0-.3 0-.4.2l-.2-.1v-.2s-.2.2-.1.4c0 .6-.4 1.7-.6 1.5-.2-.2-.3 0-.2 0l-.1.4h-.2l-.3-.1c-.2 0-.3.2-.3.4s0 .6-.2.6c-.1 0-.1 0 0 .4l.5.4a258.5 258.5 0 00.2.6h-.4V71h.2l-.3-.1h-.2c0-.1 0-.3.2-.4h-.2c-.2 0-.4 0-.4.2h.2l.1.2-.1.1.1.1.1.1v.1h.2V71c.2 0 .2 0 .2.2h-.1c-.2 0 0 .2.1.2.2.1.2 0-.1.1l-.9.5-.5.3H164.8l-.1.2-.3.6c-.2.6-.1.6.1.2h.2c.1.3 0 .5-.1.5s-.4 0-.5.3c-.4.5-.6.7-.7.3l-.3-.1v.4c.1.3.1.3 0 .4-.3.4-.3.4 0 .3.3 0 .4 0 .3.2-.2.2 0 .2.1.3.4 0 .6.8.2 1.1h-.2l-.1.4-.1.2c-.3-.1-.5.5-.3.5l.1.2v.1c-.2.1-.2.2-.2.5v.2h.3V79.6c-.2 0-.2 0 0 .1l-.4.5c-.1 0-.3 0-.5.2-.1.1-.7.5-.8.4l-.2-.1-1.5 1.1-.6.4c-.4.1-.4.1-.1.1.1.2.2.2 0 .4l.1.6c.2.2.2.2.2-.1.2-.4.7-.9.8-.7.1 0 0 .4-.7 1l-.1.4.3-.2a93.2 93.2 0 01-.7.8c0-.3 0-.3-.2-.2-.2.1-.3 0-.4 0l-.4-.1c-.1.1-.1.1-.2 0 .1 0 .1 0 0-.2v-.3l.4-.5c.2.2.3-.2.1-.4-.1-.1-.2-.2-.3 0l-.4.4v.3l-.3-.2c-.5-.2-.8-.1-.6.3.2.4.2.7 0 .5-.1 0-.3 0-.5.2h-.3c-.1-.1-1.2.6-1.6 1-.3.4-.3.4-.1.6.3.2.3.2-.2.4-.4.2-.4.2-.3.3 0 .3 0 .5-.4.4l-.3-.2c-.2-.2-.4 0-.3 0 .1.1 0 .3-.2.4-.1.2-.2.4 0 .3s.3 0 .4 0c0 .3 0 .3-.3.3l.1.1c.1.1.2.4 0 .7 0 .2-.1.3 0 .1l-.3-.5c0-.2-.2-.2-.4 0-.3.3-.3.2-.4.2 0 0-.1-.2-.4 0h-.5v.4h.7c.3-.1.5-.2.1 0l-.1.2h.3c.1-.2.2-.1.1.1-.2.4-.1.4.2.1.2 0 .2 0 0 .4-.2.6-.2.6-.4.4h-.5c-.3 0-.4-.1-.2-.1l.1-.2.1-.1h-.6l.2.3v.3l.2.2c0 .4-.4.4-.4 0l-.2-.2-.3-.3h-.1v-.1-.2l-.1-.2V89.6s-.8.4-.7.9l-.1.3-.7-.1h-.2l-.5-.1c-.4 0-.3-.6-.1-.7l.4-.2h-.5l-1 .1c-.3 0-.3 0-.3.2l.5.1c.7 0 .7 0 0 .2l-.5.3-.4.1-.3.1-.2-.1-.1-.3-.3.1-10.5-5.5zM93.5 32.3l.2-.6c0 .3 0 .6-.2.6zM90 40.7l.3-1v-.2a8 8 0 01.2-.7l.1-.2.1-.2.2-.2V38a186.8 186.8 0 001.4-2.5v.2c0-.4.2-.3.1.2 0 .4.2.5.2.3.1-.3.5-.2.5.2 0 .2 0 .2.2.1l-.1-.2c-.1 0 0-.2 0-.4.1-.1 0-.2 0-.2-.2.1-.1 0 0-.2.2-.3.1-.3 0-.3 0 0-.2-.1 0-.5 0-.5.2-.7.2-.5h.3c-.2 0-.2-.3.1-.3.2-.1.1-.2 0-.2l.1-.4c.2 0 .2 0 .3-.3-.2 0-.2 0 0-.1.2 0 .3 0 .5-.2v-.1c.1 0 .2 0 .1.2v.5c.1 0 .1 0 0 .2l-.2.2.4-.1c.4-.6.3-.8.1-1l-.1-.3c-.2.3-.5.3-.6 0l.5-.3h.6l.6-.6c.9-1 .8-.8.6-1v.2c-.2.1-.2.1-.3-.2V30l-.1-.2-.4.4-.2.4c-.3 0-.6.4-.4.4.1 0 .2.1 0 .2-.1.1-.3.2-.5 0H94c0-.3.2-.5.3-.7l.2.2c.3 0 .1 0 0 0-.1.1-.2 0-.1.1h.3l.4-.4s-.2-.2-.4 0h-.3l.1-.2.5-.6c.2-.1.2-.3.1-.4-.2 0 .3-.5.8-.6.4-.1.6 0 .4 0-.4.3-.3.6 0 .8l.1.2h.5c.4-.2.5-.1.4 0 0 .4 0 .6.3.3.4-.4.4-.3.6-.1.1.3.3.2.4 0h.2c.1.1.2 0 .2-.2.3-.5.2-.7-.1-.4l-.1-.2h-.3c-.2.1-.2 0-.4 0v-.3l.3-.5.6-.8c.3-.2.3-.2.3 0s0 .3.2.3c0 0 .1.1 0 .2l-.4.2c-.2 0-.2 0-.1.4l.1.1.2-.1h.2c.1-.2.3-.2.5-.2.4-.1.6-.2.5-.3h.2l.4-.2c0-.1 0-.2-.6 0-.4 0-.4-.3.2-.5.2-.2.5-.2.6 0 0-.3.1-.5.4-.7.3-.3.3-.3 0 0-.2.3-.2.3.1.1l.6-.2-.1.2-.5.3c0 .2 0 .3.3.1h.2l.3-.5c.2-.1.3-.3.2-.4.2 0 1 .1.9.3h.1l.5-.3c.5-.2.6-.3.5-.5 0-.2 0-.2.7-.5.4 0 .5 0 .8-.4.4-.3.5-.4.3-.5 0-.2-.1-.3 0-.4.3-.3.4-.4.5-.2.2.3.2.3.9.1.5-.2.5-.2.5 0 0 .1 1.1-.1 1.6-.4h.2v.3l-.4.1c0 .2.4.1.6 0 0-.2.7-.2.5 0 .1.3.3.4.4.2.1-.4.4-.3.6 0l.5-.1.2-.1h-.4l.2-.1.5-.3c0-.2.1-.2.2-.1.2.1.5 0 .5-.1h.4a111.5 111.5 0 00.2.3c.4.2.6.1.6 0h.4c.2 0 .2 0-.3-.3-.2-.1 0-.1.2 0 .2.2.8.1.8 0l-.2-.1V23h.3c.2.1.2.1.2 0 0-.2 0-.2-.2-.2l-.2-.1h.4s.2 0 .1-.2h.4c.8 0 1 0 1 .3l.2.2h1.5c.2-.1.2-.2-.2-.5-.2-.2-.2-.3 0-.3l.7-.1c.4-.1.4-.1.4 0 0 0 .2.2.6.2l.4.1.4.2.2.1c-.2 0-.2.1 0 .3l.4.2-.2-.2.4-.1c.2 0 .2-.1.2-.2-.2-.2.5-.4.7-.1v-.1l-.2-.2c-.3 0-.3 0 0-.1.6-.2.6-.1.6.2 0 .2-.2.4-.4.5-.4.3-.5.4-.4.5l-.1.3c-.2.2-.2.2.1 0h1.2c.2 0 .2-.7 0-1-.2-.2 0-.2.4-.1.4 0 .8 0 1 .2.3.2.3.2.5 0 .4 0 .4 0 .3-.2-.2-.2-.2-.3 0-.5l.2-.2.2.3v.6c0 .4-.3.4-.5.4-.6 0-.6 0-.2.2.4.2.4.4 0 .3V24h.5c.4.3 1 .3.8 0-.2.1-.2.1-.4 0 0-.2.2-.2.4-.1h.2l-.2-.1c-.2 0-.2-.1-.1-.3.2-.2.2-.3 0-.3h.8c.2-.2.2-.2 0-.5-.2-.1-.2-.1.2 0 .2.3.3.9 0 1l-.5-.1h-.2l.4.2c.6.1.6 0 .8.2h-.6c-.2-.1-.2 0 0 .1l.3.3h.2l1.1.3c.6 0 1.3.2 1.1.3 0 .1 0 .1.2 0 .4-.1.6 0 .4 0 0 .2.2.3.3.4h.2l.2-.1h.2l.1.5.2.1c.2-.1.4 0 .5.2h.4c.4 0 .6 0 .8.2.3.2.3.2.1 0l.3-.1c.2-.2.8 0 .5.2l.2.1.2-.1.3.3.3.4h.6l.8.1.3.4v.5l.2-.1c0-.1.2 0 .4 0l.5.4h.2l-.1-.2c-.4-.2-.4-.2 0-.2s.8.2.5.3c-.2.1.2.6.7.8.2 0 .3.3.3.3 0 .1.1.2.2.1h.2c.1.2.3.3.7.3h.4c0 .2.8.5 1 .5.2.1.2.1.1.2l.3.4.4.3c0 .1 0 .3.2.4 0 0 .3 0 0 0 0-.3.9 0 1.3.4.4.2.4.2.3 0 0-.1 0-.2.3-.2.3-.1.3-.1.4.4v.3c.2.1.2.1.3.4v.2c.2-.2.3 0 .4.2.2.4.6.7.7.6l.4.1.5.2c.4-.2.4-.2.6.2v.3c-.3-.2-.4 0-.1.2.1.1.1.1 0 .2l1 .8c.6.3 1 .8 1 1 0 0 .5.4 1 .5l-6.3 7c-4 4.2-8.4 8-14 10-.8.4-1.7.8-2.6 1-4.2.9-8.5 1.6-12.7 2.6-3 .8-6 1.8-8.8 2.7-1.3.5-2.4.5-3.5-.5-2-1.7-4.4-3.2-6.2-5.2-2.6-2.7-4.9-5.8-7.3-8.7a6 6 0 01-1.1-5.6zm4.5-10.6l.2-.3c0 .1 0 .2-.2.3zM87 57.7c.1-.9.1-2.2.6-2.4 1.2-.5 1.7.8 2.3 1.6.4.6.6 1.3 1.1 1.8 1.1 1.1 2.6 2 2.2 3.9-1.4.2-2.7.5-4.1.6-1.4.2-2-.3-2-1.8l-.2-2.6v-1.1zm4.4 16.5c3.8-1.9 8-1.8 12.2-2.2.8 0 1.7.5 2.4 1.1 3.8 3.3 7.9 6.2 11.2 10.1 3 3.6 6.9 6.4 10.8 9 .7.6 2.6.3 2 1.9-.3.5-2 .5-3 .7h-1.6c-5.7 0-11.2-1.1-16.7-2.3-4.3-1-8-3.3-10.6-7l-7.2-9.6c-.5-.7-.3-1.4.5-1.7zm70.5 24.5c3-3.1 5.6-6.5 8.2-10 1.5-1.8 2.4-4 3.6-6 1-1.5 2.1-1.4 3-.3 2 2.7 4.4 5.2 6.1 8.1 1.6 2.6 2.2 5.7 2.4 8.8.1 1.1-.4 2-1.4 2.7a12.5 12.5 0 01-7.6 2c-5.6-.1-9.9-2-14.1-4-.3 0-.4-1-.2-1.3zM72.9 16c.1-2.4.5-2.8 2.9-2.9h1c3.9-.1 7.1 1.5 10.3 3.4 1.8 1 3.5 2.5 5.2 3.8l.3.3c-.6.3-.6.3-1 .9l-.5.6-.2-.2c-.1-.5-.6-.3-.6.1s-.1.5-.5.6l-.2.4c-.3.4-.6.5-.4 0 0-.5 0-.7-.5 0-.4.3-.4.3-.2.4.3 0 .2.5-.3.7-.2.2-.2.2 0 0 .2-.4 0-.6-.3-.2-.5.6-.4 1 .2.5.5-.3.5-.3.4.3 0 .5-.3.6-.8.6l-.3-.1.1.3c0 .3.2.4.4.3v.3l-.3.3v-.3l-.3.1c-.6.3-.6.5-.1.5.4 0 .4 0-.1.3-.3.4-.6.5-.8.4H86c-.2.3-1.2.6-1.1.3l-.2.2c-.3.5-.3.7-.2.8l-.3.4-.3.4-.3.5s.2 0 .2.3.2.4.2.4c0-.3 0-.3.2-.2v.2l-.3.7s0 .3-.4.4c-.4.4-1 1.6-.8 1.9 0 0-.2.2-.4.1-.7.3-.9.8-.4.7.1 0 .3 0 .2.3 0 .3.3.3.5-.1 0-.3.7-1.1.8-.8.1 0 .1.4 0 .8-.4.4-1 .6-1.6 0C76 30 72.5 23.9 72.9 16zM18.8 149.7c-2-4.5-4.4-8.7-6.6-13.1-.8-1.7-1.2-3.4.2-5.1A78.7 78.7 0 0023 113.3a62 62 0 0110.9-16.1c4.5-5 9-10 13.6-14.8 3.2-3.2 6.7-6 10.4-8.6 3.6-2.4 7.2-4.8 10.3-7.9 1.5-1.5 3.6-2.3 5.5-3.4.2-.1.8.2.9.3V65a32.2 32.2 0 007 20.1c3.6 5 7.5 9.7 11.8 14.1 2.9 3 6.3 5.1 10 6.4 6 2.2 12.1 3.5 18.6 3.2h7.5c4.8.3 9.4-.7 14-1 2.7-.2 5.3-1.3 7.8-2.1 1.5-.5 2.8-.7 4.2.1 1.9 1.1 3.8 2 5.8 3l7.5 3.1c1 .4 2.2.5 3 1 3.7 2.4 7.6 2 11.6 1.9 3.9-.2 7-2.2 9.7-4.5 5.5-4.6 7.9-10.6 5.8-18A26 26 0 00195 84c-3.9-5.5-8.1-10.6-13.4-14.8-1.9-1.5-2.3-3-2.1-5.1.2-2.7.2-5.5.2-8.2 0-5.6-1.4-10.7-4.3-15.5-1.4-2.1-2.5-4.4-3.7-6.6-.5-.9-2-1.5-1.2-2.7.6-.7 1.9-1 2.9-1.2 1.4-.3 2.9-.6 4.3-.5 5.2.5 10.5.9 15.7 1.7 3.4.5 6.7 1.5 10.2 1 1-.1 1.8.5 2 1.5.4 3 2.9 3.9 5.2 4.8 3.4 1.4 7 2 10.6 2 1.3 0 1.6.6 1 1.8-.9 2-1.7 4-2.8 5.8-1.3 2.4-2 5-3 7.5-1.3 2.8-.2 5 .6 7.1 1.3 3.2 3.8 3.8 7 2.5 4.7-1.7 8.5-4.8 12.3-7.8l2-1.8c1.4-1.2 2.8-1 3.7.5 1.3 2.2 3 4 4.8 5.8 2 2 3.8 1.9 6.1-.4 1.3-1.2 2-3 2.8-4.6.9-1.4 1.7-1.7 3.3-1l3.3 1.8c1.3.6 2.6 1.5 4 1.5 1.6.1 2.6.6 3.7 1.8.7.8 1.8 1.3 2.8 1.6 5.5 1.5 10 5 14.7 7.8 3.2 2 6.2 4.4 9.6 6 3.3 1.5 6.4 3.3 9.6 4.8 5 2.5 9.5 6 14 9.1 6 4.2 11.5 8.8 17.2 13.2 1.3 1 2.4 2.2 3.6 3.3 3.6 3.3 7 6.7 10.7 10 2 1.7 3.2 3.8 3.6 6.4l1.1 4.7c.4 1.6 0 3-1.2 4l-.8.7a55 55 0 00-11.6 11.2l-.6.6c-.5 0-1.3.3-1.6.7-.6.4-.6 1.2 0 1.3a622.7 622.7 0 01-2 2.1c-.3.2-.3.2-.2-.2l.7-1c.7-.6.7-1.2.3-1-.8.5-3.4 3.5-4.1 5-.5.9-.5.8-1.5 1.2l-1.3.6v.6c0 1-.7 1.6-1 .9v.5h-.6c-.7 0-.7 0-1 1-.2.3-.2.3.3.1l-.6.7c-1 .9-1.2 1.2-1.5 1-.1-.1-.3-.2-.7.5-.3.3-1 1-1 .8-.2 0-.4.4-.5.8 0 .5 0 .5-1 1-.5 0-.8.3-1 .7-.4.8-.4.8-.6.7l-.4.3a8489 8489 0 00-3.2 2.2c-.5.2-.5.2-.5.7 0 .5 0 .5-.8.5-.6 0-1 .2-1.5 1-.3.2-1 .8-1.1.7-.3.3-.6.6-.5.7.3.3.3.3-.3.3-.1 0-.6 0-.9.4l-1 .8-1.6 1.4a12.8 12.8 0 01-1.2 1.2c-.3.4-.7.6-.5.8l-.5.1c-.4.2-.9.3-.8.5 0 .5-1.1 1.2-1.6 1.4-.6 0-1 .3-1 .8-.7-.1-1.3.5-1 .7.2.2.3.4 0 .6 0 0-.5.2-.6 0-.4-.3-.4-.3-.5.2 0 .6-.7 1.1-.6.6-.2-.1-.3-.2-.5.2l-1 .7c-.2-.2-.4.2-.6.6-.7 1.1-1.3 1.8-1.9 1.8l-.4-.4c.3-.4-.9.3-1.7 1.3l-1.2 1.2-.2.3c-.2.4-.5.8-.8 1-.6.7-1 .9-.8.5l-.2-.3-.7.5-.2.4c-.5.2-.7.5-.2.5.6 0 .6 0-.3.3-.5.1-.8.4-.8.4.1.1-.6.6-1.4 1l-2.8 1.7c-.7.6-1.2 1.2-1.1 1.5.2.3-.2.5-.5.1-.2-.2-.6 0-1.6.7s-1.8 1.2-2 1.1l-.3.2s-.3.3-.2.4c.2.3.2.3-.5.8s-.7.4-.5 0l-.2-.2c-.1-.1-.4.2-.6.6-.4.9-2 1.7-1.8 1.2.2-.5-.7-.2-2.5 1-1 .6-1.5.8-1.2 1 0 .2.4 0 .4 0l.4-.2c.2.2-.9.9-1.5.8l-1 .7c-.3.4-.4.2-.6 0 .1-.6-.4-.5-.4-.5l-.7.4c.1.2-.2.4-1 .8-1 .7-1.8 1.1-1.7 1.3.1.1-.3.3-.7.4-.4 0-.6.3-1 .7l-7.8 2.9h-.5l-.3.3-2 .7c-9 3.2-17.8 6.4-26.8 9.2-4.4 1.4-9.2 1.8-13.8 2.7a90 90 0 01-26.4 1.8 209 209 0 01-48.5-6.2c-2.2-.7-4.6-1-6.9-1.6l-2.6-.7-15.8-5.6c-.9-.3-1.7-.7-2.6-.8-3-.1-5.6-1.5-8.3-2.4-6.2-2-12-4.9-17.8-8l-6.8-3.4c-3.1-1.5-6-3.3-8.8-5.3-4.2-3-9-4.8-13.4-7A66 66 0 0142.5 169c-2.3-2.2-5-4-7.6-5.6h-.1c-.3-.3-.6-.6-.7-.5l-.4-.2c.2-.3-.1-.6-.3-.3-.3-.2-.4-.2-.3 0l-.9-.6-2.2-1.4c-2.3-1.5-4.6-2.9-6.6-4.8a19.7 19.7 0 01-4.6-6zm7.6 25.8l1 .8c1.1.7 1.1.7.1.6-.2 0-.6.2-.8.5l-.4-1c-.1-.3 0-1 .1-1zm146.9 223.7h-2.2v.2c-3.4-.5-6.9-.8-10.2-1.7-4.9-1.4-9.8-2.5-14.4-4.9-1.6-.8-3.4-1.1-5-1.8-5.2-2.2-9.1-6-12.3-10.5-4.4-6.2-9.2-12-14.4-17.5-2.4-2.5-4.1-5.5-6.2-8.2-1-1.4-1-2.7.5-3.8l10.8-8 8.2-6.1c2-1.5 4-3.1 6.3-4.1 4.3-2 8.5-4 13.2-5 2.8-.7 5.4-2 8.2-2.9 1.6-.5 2.5.3 2 2-.5 2-1.2 4.1-1.9 6.2-.7 2.2-1.7 4.4-2.2 6.6-1 5.2-2 10.3-2.7 15.5-.3 1.9-.3 4 0 6 .4 4.6 2 9 3.9 13.4a49 49 0 0018.9 23.2l.7.8-1.2.6zm36.6-16.6c-3 3.1-6.4 4.8-10.4 5.4-3.7.5-7.7.9-11.3.3-8.5-1.5-15.8-5.3-19.7-13.7l-.5-1c-4.9-6.8-5.2-14.8-5.6-22.8-.2-6.6.9-13 2.2-19.4a7 7 0 011.9-3.2c2-2 4.5-3 7.3-3.1h5.4c2.5.1 2.8.5 1.5 2.3-2.4 3.3-3 7-3.1 10.8-.2 4 .9 7.6 2.3 11.1 2.7 6.6 11 9.9 17.8 7.6a26.4 26.4 0 0014.1-12c1.5-2.5 1.9-5.1 2-7.9 0-1-.2-2.1 0-3.2 0-.4.6-.8 1-1 .2-.2.7 0 1 .1l1.9 2c6.8 6 7.9 13.5 6.1 21.8-1.5 7-4.5 13.4-8.6 19.2a57.7 57.7 0 01-5.3 6.7zm62.8-26.9c-3.7 4.8-5.7 10.5-9.4 15.3-4.9 6.4-11 11.3-18.8 14-3.4 1.1-6.8 2.5-10.1 4-5.3 2.3-11 3.7-16.5 5.2l-2 .5-.6-.8c.4-.6.8-1.3 1.3-1.8 6.7-7 10.7-15.8 15.4-24.1a39 39 0 004.6-18.8c.2-6.4-1.7-12.4-5.8-17.6-1-1.1-1.8-2.2-2.6-3.4-.2-.2 0-.7 0-1l.4-.2c4 1.4 8 2.2 11.7 4.2l16.1 8.9c3.3 1.8 6.2 4.4 9 6.9 2.5 2.1 4.8 4.5 7 6.8.7.6.8 1.3.3 2zm67.9-176.5c-1 2.5-1.4 5.1-2.7 7.6-1.2 2.3-1.8 5-2.6 7.7-.8 2.6-1.4 5.2-2.3 7.7-1.3 3.6-2.8 7.1-4.3 10.6l-7.5 17.5c-1.1 2.7-2.2 5.4-3.6 7.9-3.6 6.8-5.3 14.2-7.4 21.5-1.3 4.3-3 8.5-4.6 12.8l-3 8c-2.2 5.9-5 11.4-7.7 16.9-2.2 4.3-4.6 8.6-6.4 13.1-2.2 5.2-3.6 10.6-5.7 15.8-2.1 5-3 10.4-5 15.5-.4.9-1.6 1.2-2.2.5-2.2-2.4-4.4-4.8-6.5-7.4-.3-.4-.1-1.3 0-2 0-.2.4-.5.7-.8 4.2-3.4 5.9-8.1 6.4-13.3.5-4.1.8-8.3 1.1-12.6-3 2.6-4.5 6-6.4 9a26.4 26.4 0 01-6.5 7.3l-5.6 4.3-7.5-4.2c-.2 0-.3-.2-.4-.3-.7-.6-.7-1.2-.1-1.9 2.2-2.4 4-5.1 5.4-8.1a22 22 0 001.6-6.2c.3-2.7.1-5.5.1-8.2 0-1.2-.3-1.4-1.2-.9a43.1 43.1 0 00-14 13.3l-1 1.3c-3.5 4.7-3.5 4.6-8.6 2.7-2.6-1-5.2-1.5-7.8-2.4-2.3-.7-2.4-1.3-1-3.2.6-.9 1-2 2-2.5 1.7-1.4 2.2-3.2 2.5-5.2.4-3.3.2-6.5-.6-9.7l-.8-3.7c-.1-.3-.4-.6-.6-.6-.3 0-.7.2-1 .4-1.2 1.8-2.7 3.4-3.7 5.3-2 3.8-5 6.6-8.3 9.2-1.7 1.4-3.6 2.5-4.8 4.4-.6 1-1.6 1.4-2.8 1.2-4.9-1-9.8-.7-14.7-.7-1.2 0-1.6-.7-1-1.7.3-.8.7-1.7 1.2-2.4a25.8 25.8 0 004.2-17.6c-.2-1.1-.1-2.2-.2-3.3l-2.6 2.2a72.3 72.3 0 00-13.5 19c-.9 1.7-2.1 3.3-3.2 5l-1.3.8c-1.6.4-3.2 1-4.8 1-4 .2-7.8 1.3-11.6 2.7-.8.4-1.7.5-2.6.6-.3 0-.6-.3-.9-.5l.1-.5 3-5c3.5-4.8 2.7-9.6.3-14.4-1-2-2-3.8-1.9-6 0-.4-.2-.7-.4-1-.4.2-1 .4-1.3.8-4.6 7-8.1 14.5-10.9 22.4-.7 2-1.7 4-3.2 5.5-1 1-1.6 2.4-2.4 3.6a15.8 15.8 0 01-6.3 5.9c-2 1-3.7 2.2-5.6 3.3-.2.2-.7.3-.9.2-.2-.2-.5-.7-.4-1 2.8-6 2-12.4 2.1-18.7 0-1 0-2-.4-2.7-.6-1-.8-2.6-2.4-2.6-1.3 0-2.6.5-3.3 1.6a27.5 27.5 0 00-4.7 12c-.7 8-4.2 15-8.6 21.4-.8 1.2-2 1-2.5-.1-.4-.9-.8-1.7-.8-2.6-.7-6.8-3.1-13-5.6-19.3l-4-9.5c-3-7.1-7.2-13.7-11-20.5a25 25 0 01-1.6-3.4c-1.8-4.7-4.1-9.2-6.3-13.7-1.8-4-4-7.8-5.8-11.6a182 182 0 00-11-19.4 97 97 0 01-8-14.8c-2.2-5.1-4.8-10-8-14.8-3.5-5.2-6.5-10.8-9.2-16.5a123.1 123.1 0 00-5.6-10.1v-.7c-.4-.3-.6-.7-.6-.9l.2-.3c-.3-.3-.5-.2-.6 0l-.2-.3-.3-.5.3-.5c0-.7.4-.6.3-.4.3.4.2.6 0 .7v.2c.4.2.9.2 1 0 .4-.5.8-.4 1.2-.1.3.3.6-.2 0-1-.5-.7-.5-.7-.4-.2.1.8-.6.2-.8-.4v-.6l.8.6a172.4 172.4 0 002.9 2.7c-.6.1 0 .3.6.4l.7.6c-.5.2-.5.6 0 1.1-.5-.1-.8-.4-.2.3l-.4-.3c-.8-.4-1.1.2-.5 1-.1 0 0 0 0-.2 0-.8.4-.5.9.4.3.4.2 1.4-.6 1-.5-.1-1 .8-.3 1.4.3.3.7.5.3.4-.7.2-.8.3 0 .9.3.4.3.2.5 0v-1c-.6-.6-.5-1 .4-.5.4 0 .5 0 .6-.2 0 0 0-.2.2-.3l.5.8c.5 1 .3 1.3-.2.5 0 .2.1.4.5.8.2.6.6.9 1.1.8.8.4.8.4.1-.1-.7-.6-.6-.7 0-1 .7-.2.7-.2-.1-.6-1.2-.7-.1-.7 1.1-.2.8.5 1.3.4 1.3.4.1-.1.1-.1.4.3.6.7.6.7 0 .9l-.3.6c.6.7 0 .9-.8.5-.5-.1-1-.2-.7.2.3.4.2.6-.2.4-1 0-1.1.1 1.6 1.8l.1-.3-.7-.5-.4-.3c.2-.3 1.3.5 1.8 1.5 0 .2-.2.3-.6.2l-.5-.1c.8.4.7.7-.6.2-1-.2-1 0-.6.2.8.4.5 1-.5.7-.5 0-.5 0-.1.3.3.3.4.2.5 0 .1-.1.5.1.8.4.4.3.5.1.6 0-.3-.5 0-.2.4 0 .7.8.8.6.9.5 0-.2.1-.3 1 0 1.3.5 1.7.8 1.2.6 0 .2-.2.4.1.8.2-.3.6-.2.9.3.3.4.3.3.4.1.1-.1.6 0 .9.4.3.4.3.4.7.5.2-.3.2-.3.4.3 0 .1.2.5.6.8l.4.2c-.1.2-.2.4-.6.1-.3-.3-.9-.2-1 0l-.4-.1-.8-.6c0 .2.2.6.6.9 1.5 1 2 1 2.3.5.1-.2.6-.2.6-.2-.7-.6-1-1.1-.4-1.2.5.1.5.1 1 1 .3.5.5 1 .4 1.3l1.9 1.3c2.7 1.7 2.3 1.5 2.5 1.2l-.4-.3c-.4-.2-.4-.2.2-.4 0-.2.5-.1 1 .1l.2-.4c-.4-.4-.4-.4-1.2-.8-.5 0-.9-.3-.9-.3-.2-.5-1.3-1.3-1.1-.7 0 .1-.2.3-.5-.1-.4-.2-.7-.6-.5-1 .2-.4.2-1.3-.2-1.6l-1.3-.4c-.5 0-1.4-.3-1.3-.5-.4-.2 0-.1.5 0 .5 0 1 .2.6 0s-.7-.8-.7-.8c.2-.3 2.1.9 2.9 1.4.6.6.6.6.5 0 0-.2-.5-1-.9-1.3-.7-.5-1.1-.8-1.3-.5-.1.3-.2.5-.5 0l-1-.8c-.4-.3-.7-.7-.6-.9 0-.1-.3-.4-.7-.6-.8-.5-1-1-.9-1.2.3-.5-.1-.8-.6-.7-.1.1-.5-.1-.9-.4-.3-.4-.3-.2-.4 0 .3.3-.2.2-.1 0-.4-.2-.7-.6-.6-.7.2-.4-.5-.9-1-.8 0-.2.5 0 1 0 .7.4 1 .7 1 .8.3.4.3.4 1.5 1 .9.2 1.3.5.5 0-1-1-.6-.8 1 .2 1 .7 1 .7 1.3 1.3-.1.2-.3.5-.8.5-.6 0 .2.6.7.5.5.1.9.4 1.2.6H48c-.5-.2-.2.3.6.8l.8.3c0-.1.2-.3.6-.2.8.3.8.3 1.5 1 .3.4.6.8.5 1l.3.4c.4.2.7.6.7.6l-.3.6c-.1.3-.5 0-1-.2-.6-.6-.7-.4-1 .2.2.5-.1.3 0 .1-.4-.4-.3-.5-.4-.4 0 .2-.1.4.2.8.7.6.7.6 1.1.7.1-.2.3-.5 0-.9s-.7-.8-.3-.5l.4.2 1.6 1c.3.2.8.3.9.1-.3-.5 1.3.4 1.8 1.4.6.8.5 1.1.2.7-.7-.6-1.3-.4-1.5 0l-.3.6.6 1c.6.7.5.9 0 .8-.8-.2-1 .1-.1.5 1.1.7 1 .9.8 1.3-.6.3-.3.7.2.8.4.2.4.2.3.4-.1.3.3.5.8.4 1.4.4 1.5.1.7-.4l.1-.3c.2-.3.2-.3-.2-.5-.4-.3-.3-.4-.2-.7 0-.2.1-.4.5-.1.4.2 1 .3 1.4.3.4.1 1.7.6 2.1.9.8.4.8.4.3.5-.5 0-.6.1-.3.5 0 .2 0 .3-.5 0 0 0-.4-.1-.7-.5-.3-.4-.3-.4-1-.2v.4l.3.2.3.4c.4.2.8.6 1 1 .8.8 1.2 1 1.2.8l.3.4.8.7c.4 0 .5-.1-.5-1.2-.6-.9-.1-1 1 0 .7.5 1 .9 1 1.2.5 0 1 0 1.7.4 1 .3 1 .3 0 .2-.9-.3-.9-.3 0 .2.7.4 1 .8 1 .8 0 .1 0 .1-.4 0l-1.2-.7c-.5-.1-.6 0 .2.7.3.5.3.5.4.2 0-.2 1 0 1.3.3.4.2 1 .3 1 .1.4.2 1.2 1.8.8 1.8l1.6.9c1.2.6 1.6.8 1.8.5.5-.1.5-.1 2 1 .8.5 1.2.7 2.2.8 1.3.4 1.8.4 1.5-.1 0-.3.1-.5.6-.5 1 .1 1.4.3 1.3.6-.3.7-.3.7 1.4 1.5l1.2.7c-.1.4 2.3 1.8 3.7 2 .4.1.4.1.4.3 0 .2-.1.3-.6.1-.4-.1-.8-.3-.9-.2 0 .4.8.7 1.3.8.5-.2 1.7.7 1.2.7-.2.6.2 1 .7.8.6-.3 1 0 1.2.7.4.4.4.4 1.3.6h.5l-.9-.4h.5c.4.2.9.3 1.4.3 0-.4.5-.2.4 0 .4.5 1.2.9 1.3.5l.9.4-.1.3s0 .2.3.5c.8.7 1.2.8 1.3.7l.9.3c.4.3.4.2-.3-.7-.4-.5 0-.3.4.2.3.5 1.6 1 1.7.8 0-.2 0-.3-.4-.5v-.2c.5.2 1 .4.9.5.4.4.4.4.5 0l-.4-.3c-.4-.2-.4-.3-.4-.5l.9.3s.4.2.5 0l.9.2c1.7.8 2 1.1 2 1.5l.3.5c.5.2.9.3.9.5.4.3 1.7.7 2.6.7.5 0 .6-.2-.2-1-.4-.5-.3-.7 0-.5 0 0 1 0 1.9.4.9 0 .9 0 .9.2s.3.5 1.2.8c.9.3.9.3.8.5 0 .1.4.5.9.6l.4.3c-.5-.1-.5 0-.1.5 0 .2.3.5.8.7 0 0 0-.2-.4-.5 0-.2 0-.2 1 0 .4 0 .4-.1.4-.3-.3-.4 1.5-.3 1.9.2v-.2c0-.2 0-.2-.4-.3-.9-.2-.9-.4 0-.3 1.4 0 1.4.2 1.3.7 0 .3-.5.5-1 .8-1 .2-1.5.3-1 .6-.1.1-.1.3-.6.4-.5.2-.5.2.4.3l1.4.2 1.4.2c.4 0 .6-1.3.3-2-.4-.2 0-.1.9.1.9.3 1.8.5 2.2.8.8.6.8.6 1.3.4 1 0 1-.1.5-.4-.4-.5-.3-.6.2-.9l.5-.4.3.7-.1 1c-.1.7-.6.8-1 .6-1.4-.2-1.4-.2-.5.3.8.6.8.9 0 .5l-.1.3v.4c.4-.2.9-.1 1.3.2.8.6 2.2.7 1.8.3-.5 0-.5 0-.9-.3 0-.3.5-.4 1 0h.4c0-.2 0-.2-.4-.3s-.4-.2-.4-.6c.5-.2.5-.4 0-.5l.5.1h1.4c.5-.3.5-.3 0-.7-.3-.3-.3-.3.5 0 .4.5.8 1.7-.1 1.6l-1-.2h-.4c0 .1.4.4.9.5 1.3.3 1.3.3 1.8.6l-1.4-.2c-.5-.2-.5 0 0 .2 0 .2.4.5.8.6.5-.1 1 .2.5 0-.5.1 1.3.5 2.7.7 1.4 0 3.2.5 2.7.8h.5c1-.3 1.4-.2.9 0 0 .3.4.5.9.6h.5l.4-.2c.5 0 1 .2.5 0 0 .3 0 .6.4.9.4.4.4.4.4.2.5-.2 1-.2 1.4.3h1c.9 0 1.3 0 1.8.3 1 .3 1 .3.5 0 0-.1 0-.3.4-.4.5-.3 1.9 0 1.4.2 0 .2 0 .2.5.3.4 0 .4-.1.4-.3l1 .5.9.6 1.4-.1 1.8-.2 1 .5c.4.4.4.6.4.7v.2c.5 0 .5-.1.5-.3 0-.2.4-.1 1 0l1.3.3h.5l-.5-.4c-1 0-1 0 0-.3 1-.2 1.8 0 1.4.3-.5.3 1 .9 2.3 1 .5 0 1 .2 1 .4 0 .1.5.2.5 0l.4-.2c.5.2 1 .3 1.9 0 .4-.2.9-.3.9-.1a8 8 0 002.8 0c.5 0 .5 0 .5.2s.5.4 1 .4c.9 0 1.4.2 1.4.2 0 .2.5.4 1 .4 0 0 .4-.2 0-.2-.6-.2 1.7-.5 3.1-.5 1 0 1 0 .5-.1 0-.2 0-.4.4-.6.4-.5.4-.5 1.4.2 0 .2.5.4.5.4.5 0 .5 0 1 .3l.5.2c0-.3.4-.3 1 0 1 .4 2.3.4 2.3 0 0-.2.4-.2.9-.2s1 0 1.3-.4c.4-.6.4-.6 1.4-.5.5.2.5.2.5.4-.9.2-.8.5.1.5l.5.1c0 .2 2 .1 3.3-.1 1.4-.3 2.8-.2 3.3 0 0 .1 1.8-.4 2.7-.9v.4c.1.2.6.4 1.1.4v-.2l.8-.6c1.3-.5 1.7-1 .7-1-.4.1-1 0-1.4-.1-1-.1-1-.3-.6-.3.4-.2 1.4-.3 1.4-.3.4 0 .9-.1.4-.3-.1-.5.3-.9.3-.7.5 0 .5 0 .4-.2-.1-.5.8-.5 1.4 0 .4 1.4.4 1.5 0 1.8 0 0-.4.2-.4.5 0 .2.1.4-.3.6l1.4-.2c1.9-.2 1.9-.2 1 .3-.9.2-.4.2 1 0 1 0 1.4-.1 1.3-.3v-.2c1 0 1.6-1.3.5-1.6-.5-.3-.1-.5.8-.5h1a2 2 0 011.4-.2c1 0 1.1.5.2.6-.5.1-.3.8.6.6.5.1.5.1.6.5 0 .1.1.3.6.2l.5.1h.5c.5 0 .9-.4.8-.7.1-1.1.5-1.4.5-1.4 1-.1 1.6.3 2 1.5l1.8-.4c.4 0 1.3-.4 1.8-.5.4-.3.4-.3.9-.2 0 .3.6.3.6.3 1-.2 0-1.2-.8-1-.1-.2-.6-.2-.7-.4 0-.3.4-.4.8-.5l.1.3c0 .2.6.2.6.2.5 0 1-.2 1 0 0 .1 0 .3-.4.4v.2l1-.2c0-.2.5-.1 0 0 0 .1.6.2 1 0l.6.1c-.1-.1-.2-.3.7-.7.3-.4.3-.4.5 0l.1.4 1.3-.6c.3-.5.8-.6.8-.6.5 0 1 .3 1.6.3.5 0 1 0 1.4-.3.3-.3.8-.4 1.2-.6s.4-.3.3-.6c-.5 0-.6-.2-.1-.3.9-.3 2.8-.3 3.4-.1h.6c-.1-.2.3-.5.6-.8.9-.4.8-.6.8-.6l.9-.2c1.3-.4 1.3-.4 1.6-.9 0-.2-.1-.3-.6-.2l.3-.4c1-.3 1.8-.6 2.4-.4 0 .2 0 .2-.4.3-.4.1-.9.3-1.2.7-.3.3.2.3.6 0 .4 0 1.3-.4 1.4-.2.5 0 1.4-.3 3.1-1 2.2-.8 2.7-1 3-1.4l-.4-.7c-.5 0-2.2.7-2 1 0 .2 0 .3-.4.5v-.2c-.1-.1-.2-.3-1.2-.1-.5 0-1 0-.5-.2.3-.3.7-.6 0-.8 0-.1-.5-.1-1.4.2-.4.2-.8.3-1 .2 0-.2 1.7-.8 2.8-.8.5 0 1.4-.2 2.3-.5.8-.3 1.3-.5 1-.2 0 .2.5.2 1 0 .5 0 .4-.2.3-.3-.7-.3 1.1-.8 2.7-.8 1 0 2 0 2.2.2.2.3.6.2 1.5-.2l1.2-.7v.1c.7.1.7.1 1-.4-.3-.3.5-.8.5-.8.3-.3.8-.4.4-.2l.2.3c.8-.3 2.1 0 1.8.4.1.1-.4.2-.4.2-.1-.2-.1-.2-.5 0v.1c.2.3.7.2 1.5-.2.8-.5 1.3-.6 1-.2-.5.1 0 .1.4-.2 0 0 .3-.4.1-.7-.2-.4-.2-.4.4-.3.6.1.6.1.8-.4.4-.3 0-.8 0-1l-.4-.5 2.2-.8c2.2-1 2.8-1.6 2.4-2.2l-.3-.5c.6.1 1.5-.3 1.3-.6l.8-.4.3.4c0 .2.2.3 1-.1.4-.2.8-.4 1-.3.1-.5.1-.5.3-.2.6 0-.5.9-2.2 1.6-1 .2-1.6 1-1.7 1.6 0 .8 2.4.3 2.4-.5.3-.5 1-1 1-.3.2.3.2.3.7.3.4-.3.4-.3.3-.4 0 0 .2-.5 1-1 .7-.6.7-.6.5 0 .3.4.4.6.8.2 0 0 .3-.3.2-.5-.1-.1.5-.8.7-1.3 1-1 1-1-.2-1.1-.7-.2-1.2-.2-2.1.1-1.8.7-3.8 1-3.6.5 0-.2.3-.4.7-.6l-.2-.3.1-.7 1.2-.4.1-.1h.6c0 .2.2.3-.2.5s-.4.2-.4.4c0 0 .6 0 1-.3 1.2-.6 3.7-1 3.5-.5-.2.5.3.5.2.3.4-.2.8-.4 1-.3l.1.3c-.4.2-.3.4 0 .7.1.2.6.1 1 0 .4-.3 1.3-.7 1.4-.5.3.3.3.3.8-.5.2-.5.5-.9.4-1l.6-.8.8-.4h.6l.2.3c-.4.2-.8.4-.9.3v-.1c-.5.2-.4.3-.2.6.6 0-.2.5-.8.5l.2.3c.3.3.5.5.9.3l-.2-.3c-.3-.3.5-.7 1.2-.7l.3-.4c-.2-.1.2-.3.6-.6.4-.2.3-.4.3-.4l-.5.1-.5.1.7-.6c.4-.2.4-.2.5 0 .2.2 1.2-.8 1-1-.2-.3-.2-.3.5-.1l2 .2h1.2l-1-.4-.4-.5c.4-.3.4-.3.5-.1l.5-.2.8-.4c1.2-.8 1-1 .2-.5l-.2-.3c.1-.5.5-.8.7-.5h1.2c1.4-.5 2-.5 1.5.3l.3.4c.4-.3.7-.7.6-.8.2-.4.2-.4.7-.5 1-.4 1-.4.2-.6-.2-.2-.4-.3 0-.6.5-.1.4-.3.2-.5-.5-.6.2-1.9 1.3-2l.2.3.8-.5c.3-.4.3-.4.4-.3.3.4 1.5-.4 1.3-.6 0-.7.4-1 1-1 .5 0 .9-.3 2.2-1.6l.6-.6c-.8.4-.8.4-.7-.1.1-.6.5-.9 1-1 .5-.2.5-.2-.1-.8l-.2-.1 2.4-1.6c-.6.7.2 1 .8.3.4-.3 1.7-.9 1.8-.8l.3.3c.1.1 2-1.1 3.6-2.1a4 4 0 011.3-.8c1-.3 1-.3.3-.3-.2-.2-.3-.3 0-.6.2-.4.3-1 0-1.2-.3-.4-.3-.4-.4.2-.4.8-1.5 1.6-1.8 1.4-.1-.1 0-.4.3-.8a161.5 161.5 0 004-2.7h.7c.3-.2.3-.2.4-.1-.3.3-.3.3-.2.4.2.1.3.2 0 .7l-.9 1c-.3-.4-.8.4-.4.8.2.2.4.4.6 0l1-1s.3-.4.1-.5l.4.4c1.1.4 1.6.2 1.3-.7-.1-.8 0-1.3.3-1 .2.2.6 0 1-.3s.5-.2.6 0c.3.2 2.6-1.4 3.7-2.3.7-.6.6-.7.3-1-.5-.4-.5-.4.5-.8 1-.3 1-.3.7-.5-.1-.7.2-1 1-1l.5.5c.2.2.7 0 .5-.2-.2-.1.2-.5.5-.8.3-.3.5-.7 0-.5-.4.2-.5 0-.7 0 .1-.6.1-.6.7-.7l-.3-.2c-.2-.2-.2-.8 0-1.2.2-.4.6-.7.4-.3.1 0 0 .6.3.9 0 .5.4.3.7 0 .7-.6.8-.5 1-.4 0 0 .2.2.7 0l1-.3v-.6c-.3-.3-.4-.4-1.3 0-.5.2-1 .4-.2 0l.4-.4c-.2-.1-.3-.2-.6 0-.4.4-.5.3-.3-.1.5-.8.4-.9-.3-.3-.4.2-.4.2 0-.6.6-1.3.6-1.3 1-1 .1.2.7 0 1-.2 1-.4 1.3-.2.4.3-.8.5-.8 1 .1.6 1-.3 1.4-.6 1.2-.8-.3-.2-.1-.6-.1-.6.3-.4.5-.8.4-.9l-.4-.3c.2-1 2-1.9 2-1.3.1.7 2.1 0 2.3-.5l.5-.7-.2-.2c.3-.4.3-.4.4-.3.3.3.4.4.1.7-.3.3-.6.7-.4.9l.6-.1c.4-.4.2-.5 0-.6 0-.1.1-.5.6-.8 1-.9 1.5-2.3.8-2.8-.3-.2-.4-.3-.1-.7.1.2 1-.4 1.2-.7.3-.4.3-.4.5-.2l.8-.6c.6-.7 1.2.4 1 .7-.3.5-.6.8-.4 1l.7-.6c.2-.5.5-.8.9-1.1.3-.4.3-.4.1-.5l-.6.1c-.6.7-.6.7-.2-.2l.3-.8.3-.4c.2-.4.5-.2.6 0l.5.2-1 2.5c-1.2 2.8-2.2 5.7-3.3 8.5zM216 98.2c0-1.1 1.6-2.6 2.8-2.8h.5l3.5 3-.5 1.3-1.6 1.4c-.9.5-1.8 1.5-2.8.8a4 4 0 01-2-3.6zM343 144l-.2-.2c0-.5.3-.8.6-.6.1 0 .3.2 0 .5l-.3.3zm-1.3 27.5s-.4.4-.5.3l-.4.2c.6-.7 1-1 .9-.5zm-6.1 5.7l-.5.8c-.2-.2-.3-.3-.1-.7 0-.5.7-.6.6 0zm-1.5 2.3c0 .6-.7 1.2-1 1-.1-.1-.1-.1-.4.2 0 0-.4.3-.5.2-.1-.1.2-.4.5-.7.7-.7 1.5-1.2 1.4-.7zM326 187c.2.1-.3.3-.8.5-.8.5-.8.5-.1-.1.7-.6 1.1-.8 1-.4zm-10.2 8c.4.4 0 .7-.6.8-.6 0-.6 0 0-.7.2-.4.2-.4.6 0zm-2.7 1.2c0 .2.2.3-.3.4l-1 .4.8-.6c.3-.3.3-.3.5-.2zm-.8 1.2c.2.2.2.2-.2.4l-.5.2c-.1-.1.1-.5.1-.5.4-.3.4-.3.6 0zm-2.4 2.1l-.8.6c-.4.1-.4.1.3-.4.4-.3.4-.3.5-.2zm-3 1s.2 0-.2.4l-.5.1c-.1-.1.3-.4.3-.4.3-.3.3-.3.4-.1zm-6 5.6l-.4.3h-.5l.4-.2c.4-.2.4-.2.5-.1zm.4-1.1c0 .1-.1.4-.8.7-.7.5-.7.5-1.2 0 .1-.5.1-.5.6-.6.8-.2 1.3-.2 1.4-.1zm-2.7 2.7c-.4.2-.5 0-.9-.3-.3-.4-.6-.7-.2-1 0 0 .6 0 .8.2 1.2 0 1.2.7.3 1zm-7 4.6l-.3-.4c.9-.4 1.1 0 .3.4zm-18.7 6.5c-.4.2-.6-.1 0-.7l.5-.2c.5 0 .3.5-.5.9zm-9.8 8.6l-.4.1h-.6l.5-.1c.4-.2.4-.2.5 0zm-13.8 4c-.4 0-.8.2-.8.4 0-.2-.2-.5 0-1 .6-.9 1-1 1.7-.7.7.3.4.7-.9 1.2zm-4.5.1s0 .2-.4.3c-.8.5-.9.4 0-.1l.4-.2zM185.4 245c-.4 0-1.4-.5-1-.7h1c.4.1.5.6 0 .7zm-8.5-.4s0 .2-.4.2l-.5-.2c0-.2.4-.2.4-.2.5 0 .5 0 .5.2zm-18.2 1v.1l-.5.2-.4-.3c0-.2.4 0 .9 0zm-2-2h-.4l-.5-.3h.5c.5.1.5.1.5.3zm-28.9-6.4c0 .2 0 .2-.4 0 0 0-.5-.2-.5-.4l.5.1c.5.2.5.2.4.3zm-5.3-1.7s0 .2-.5 0l-.4-.4h.4c.5.2.5.4.5.4zm-7.2-1.8c-.5-.2-.5-.2-.5 0s0 .2-1 0c-.4 0-.8-.2-.8-.4s-.4-.3-.9-.5c-.4 0-.4-.3.1-.3s3.1.7 3.6 1.1c0 0 0 .2-.5 0zm-4.2-2.5c.7.8.7 1-.2.7-.4-.2-.9-.3-.9-.1v-.2l.2-.7c.5-.2.5-.2.9.3zm-3.4-.2c-.2 0-.2 0 0 0zm1.4.5c.4.3-.6.5-1.4.2v-.3c.5 0 .5 0 0-.4l.5.2 1 .3zm-1-2s-.4-.3-.3-.5l.4.2c.4.1.4.3.4.3s0 .2-.5 0zm-5-.6l-.6.3c-.4-.2-.8-.3-.9-.1h-.5l-.3-.5c0-.2.5 0 1 .1.3.2.8.2.9 0 .5-.2.5-.2.4.2zm-18-7.3c-.2.5-.7.4-1 0-.3-.8-.7-1-1.2-.9-.5 0-.9-.2-.8-.4l1 .1v-.3c-.8-.6-1.6-.8-1.3-.3 0 0 0 .2-.5 0-.8-.4-.7-1 .2-.7.5 0 1.3.4 2 1.2l1.2.7c.5 0 .5.2.4.6zm-5.6-3.6H79l-.3-.4c0-.2.4 0 .4 0 .4.2.4.2.4.4zm-.7.6l-.1.3s-.4-.4-.3-.5c-.4-.4-.4-.4 0-.4.6 0 .6 0 .4.6zm-5.2-3.2l.4.2c0 .2-.1.4-.6.2l-.3-.4h.5zm-9.5-4.8v.1l-.8-.6-.4-.2c.1-.2.5 0 1 .3s.3.2.2.4zm-4.7-3l-.9-.3-.8-.4c.1-.2.6-.1 1 .1l.1-.3c-.3-.4.5 0 .8.6.7.6.5 1-.2.3zm-5.2-5.1l-.4-.1s-.4-.4-.3-.6l.5.1c.4.3.3.4.2.6zM54 200c-.9-.3-1.1-.9-.6-.8.4 0 .4 0 .8.3l-.2.5zm.1 3c.2.5-1.5 0-1.8-.6h-.4c-.2.3-1.4-.5-1.3-.6 0-.2.5 0 .5 0 .4.3.4.1.5 0 .2-.3 2.3.6 2.5 1.1zm-3.1-8.2s-.5 0-.8-.3l-.3-.4c0-.2.4 0 .8.3s.4.3.3.4zm-9.7 0c.3.4.3.4-1.3-.5-2-1.2-2.2-1.6-.6-.7l2 1.2zm7.9-20.8zm-.5-.4a32.7 32.7 0 000 0zm.5.4l-.2-.2.2.2zm-.2-.2l-.3-.2.2.2zm-14 13.6c0 .2-.5 0-.5 0-.3-.4-.3-.4-.2-.5 0-.2 0-.2.4.1 0 0 .4.3.3.4zm-3-2.2a151.4 151.4 0 01-.8-.4c.4.3.5.2.5.2v-.2c.5.3.5.3.4.4zm-1.2-.7zm0 0zm1.4-1.3c0 .1-.2.4-.6.1 0 0-.3-.4-.2-.5.2-.3.7-.2.7-.2.3.3.2.4.1.6zm15.3 14.7s.2.2 0 0zm0 0zm152.5 45.6c-.2 0-.2 0 0 0zm-165-58zm0 0v0zm0 0zm302.5-10.3c.4-.4.2 0 0 0zm-305-13.6l-.2.2a5.6 5.6 0 01.2-.2zM148 89.8l.2.1h.3-.5zm2.2 0v.2l-.1-.2v-.2.3zm-.2-.6V89h.2c.1.2.1.2 0 .2l-.2-.1zm3-2.9l.5-.2c.3-.3.3-.3 0 0s-.5.4-.4.2zm4.6-4c-.3-.1-.1-.3.2-.3.3 0 .3 0 0 .4 0 .2 0 .2-.2 0zm1.3-.7l.5-.2-.3.3c-.2.2-.2.2-.3.1 0 0-.1-.1.1-.2zm.2-.6l.3-.1v.3h-.3c-.1 0-.1 0 0-.2zm1-1l.3-.2c.2 0 .2 0-.1.2-.2.2-.2.2-.2 0zm1.3-.4v-.2l.3-.1v.2c-.2.2-.2.2-.3.1zm.5-1.4h.1zm.7.3c-.3 0-.5-.1-.4-.2 0-.1 0-.1.4 0 .2.1.2.1 0 .2zm-.4-1c0-.3.1-.3.4-.2s.5.1.4.3l-.3.2c-.5.3-.8 0-.5-.4zm1-3.7h.4c-.3.4-.4.4-.3 0zm3-6.7c0-.2.2-.2.3.2v.1c0 .3-.3 0-.3-.3zm-2.5-5v-.4l.1.2v.2zm-.5-6.2h.5c.5.2.5.4.3.7-.2.3-.4.2-.6-.4 0-.2-.1-.3-.2-.3zm.3-1.8c-.3-.3-.2-.3 0 0l.1.2-.1-.2zM148.9 35c-.1-.1-.3-.6 0-.6l.2.3c.1.2 0 .4-.2.3zm-2.8-2.3v-.2h.1l.1.2s0 .1-.2 0zm-6.5-2.7v.1h-.2l-.2-.1c0-.1.2 0 .4 0zm-.5-1.3l-.1-.1h.1l.2.2h-.2zm-11.4-4.4h.2c.2 0 .2 0 .1.2h-.2l-.1-.2zm-2.3-.5h.2l.2.1h-.2l-.2-.1zm-4-.3c.2-.1 1.4-.1 1.6 0 0 0 0 .2-.2.2h-.2l-.4.2-.4-.1-.3-.1c-.2 0-.2-.1 0-.2zm-.9-.2V23c.2-.2.2-.2.4 0 .4.3.4.4 0 .4h-.4zm-1 .1a21.3 21.3 0 00.6 0c.2.1-.1.4-.5.4v-.2c.2 0 .2 0 0-.2zm0-.8l-.2-.2h.4s0 .2-.2.2zm-3 1c0-.2.2-.2.4-.2l.4-.2c.1-.2.1-.2.2 0l-.2.3h-.4l-.1.2-.2-.2zm-8.4.8c.2-.2.5-.3 1-.2h.5c.1-.2.2-.1.2 0 .1.3 0 .5-.3.3-.2-.2-.4-.1-.5.1l-.3.1s0-.2.2-.3v-.2c-.4 0-.7.2-.5.4l-.1.1c-.4.1-.5-.2-.2-.3zm-1 .3h-.2l.1-.2h.3l-.2.2zm.2.3v.2h-.2c-.2-.1-.2-.1 0-.3l.2.1zm-2.1.8h-.2l.1-.1.2-.1-.1.2zm-4 2.3s0-.2.2-.3h.3s0 .1 0 0c0 0-.2 0-.3.2h-.2zm-1.8.9c-.2 0 0-.2.3-.2.4-.1.5 0 .2.2 0 0-.2 0-.2.3a51 51 0 00-.2-.2l-.1-.1zm-2.6 1.3V30c.2-.2.3-.1.3 0 0 0 .1 0 0 .2h-.3zm-1-.7l.1.2c-.1.3-.4.3-.4.1 0-.2 0-.2.2-.3zm1 1.8c.1-.1 0-.2 0-.2-.2-.2.3-1 .6-1 .2 0 0 .8-.3.8v.2s-.3.5-.4.4v-.2zM83.3 31v-.3l.2-.2s.2 0 0 .3c0 0 0 .2-.2.2zm10 4.5c.1-.4.4-.6.5-.8l-.2.5c-.3.8-.5 1-.2.3zm-10.8-4l.2-.5.4-.7c.1 0 .2.1.1.3l-.2.5c-.2 0-.4.1-.5.4zM82 31zm-.2.4c0 .2-.1.3 0 0zm.2-.4l-.2.4v-.2l.2-.2zm.1 2.2c.1-.2.2-.4.2-.2v.3l-.2.2c-.2.2-.1 0 0-.3zm12.8-1zm0 .1zM83.5 30zm0 0zM150 90s0-.1 0 0z"/></svg>