<svg xmlns="http://www.w3.org/2000/svg" viewBox="0 0 556.7 427.2"><path d="M58.9 127.8l1-3.1a8.5 8.5 0 014.4-5.1c4.9-2.8 9.4-6.1 14.2-9a81 81 0 0127.6-11c1.4-.3 2.9-.2 4.3-.2.2 0 .4.4.6.7-.2.3-.3.7-.6.8-3.6 1.4-6.5 4-9.8 5.7-3.4 1.8-6.4 4-9.6 6l-7.8 5c-.8.4-1.5 1-2.3 1.3l-21 10c-.4.1-.8.3-1 .2-.8-.4-.2-.9 0-1.3zm-20.3 43.4c.6-.2 2-.4 3.3-1l8.3-4.1c.8-.4 1.7-.7 2.3-1.3 3-2.8 6.7-4.3 10.2-6 4.2-2.2 8.4-4.3 12.4-6.8 4.9-3.1 9.8-6.1 15.1-8.4a89.5 89.5 0 0017.2-10.3c4.8-3.6 9.7-7 15.4-9 2.5-.9 4.9-2.3 7.3-3.5.2-.1.4-.6.3-.9-.1-.3-.5-.6-.8-.7-.8-.2-1.8-.5-2.6-.3-4.4 1-9 1.4-13.2 3.2l-18.5 7.6-7.6 2.9-5.6 2c-6.7 2.7-12.8 6.6-19 10.4-5.6 3.6-10.7 7.8-16.1 11.8-2.3 1.7-4.5 3.7-7 5.3a13 13 0 00-4.6 5.8c-.8 1.7.5 3.3 3.2 3.3zm252.3-72l-.6.9c-1.1 2.4-1.4 5.2-3.2 7.4-.9 1.1-.5 2.8.3 4.1.5.7 1.3 1 1.6 1.3 3.7 0 5.5-2.2 7-4.4.9-1.4-1-2.6-1.4-3.9l-1.8-5c-.3-.6-1.5-.8-1.9-.4zm-47.6-17.5c-1.5-.2-2.2 1-3 2-.9.8-.5 2 .6 2.4 1.3.6 2.5.2 3.6-.4.7-.4 1.5-1 1-2.1-.4-1-.8-2-2.2-2zm312.4 117.8c-1.8-1.8-3-4.1-4-6.4-1-2.5-1.8-5.1-3-7.5-2.7-4.9-5.3-9.8-8.5-14.4-3-4-6.4-7-10.5-9-5.2-2.9-10.8-5-16.3-7.4-.3 0-.7 0-1 .2-.1.1-.2.7 0 .9a16 16 0 006 6c2.8 1.3 5.2 3.3 7.7 5 1.8 1.3 3.3 2.8 4.3 4.8 3 6.2 7.3 11.6 10.3 17.8 1.9 3.9 4.1 7.5 5.3 11.8.6 2.3 2.2 4.5 4.4 6 .6.4 1.2.6 1.9 0 .5-.6 1-1 1.6-1.4 1.7-1.1 2-2.9 2.8-4.6-.3-.6-.5-1.4-1-1.8zM305.2 96.7c4.5.2 7.3-2.5 9.6-5.9.2-.3.1-1.1 0-1.5a15 15 0 00-2.3-3c-.6-.7-1.5-1.1-2.3-1.2-2-.4-4.3.6-6.2-1-.2-.2-1 .2-1.4.5l-1.4 1.6c-2.1 1.9-1.8 4.2-1.2 6.5.5 2.1 3.2 4 5.2 4zm204.5 151.4l.2 2.2-1.6 14.6c-.1 2-.7 3.8-1.8 5.6-2 3.2-4.4 6.2-4.7 10.3-2.6 4.7-4.7 9.6-8.6 13.7-2.9 3-6 5.6-9 8.4-2.8 2.6-6.3 4.4-9.4 6.6-3 2-5.7 4.4-8.8 6.2-4.6 2.6-9.3 4.9-14 7.2-.4.2-1 .4-1.5.4-6.5.7-12.6 3-18.8 4.9-4.2 1.2-8.5 1.9-12.7 2.8-2.2.5-4.3 1-6.4 1.7-7.6 2.2-15.2 4.6-22.9 6.7a96 96 0 01-22.6 2.7c-6.2.2-6.8-.2-4.3 6.4 1.7 4.5 2.1 9 2.4 13.8.2 2.3.3 4.7.7 7 1 4.7 1 9.3 0 14-.3 1-.2 2.1 0 3.2.8 6 1.4 11.9 2.8 17.7 1 3.8-.3 6.5-3 8.6-2.8 2.2-6.1 3.9-10 2-.8-.3-1.2 0-1.8.5a13.1 13.1 0 01-13 2.4c-6.8-2-13.5-4.3-20.3-5.8-5-1.1-9.7-2.8-14.7-3.7-6-1.2-11.9-1.4-17.4 1.8-1.4.8-3 1.4-4.6 1.8-6.8 1.4-13.1 4.4-19.7 6.8-3.7 1.3-7.4 2.7-11.3 3.7-4.1 1-8.2 1-11.9-1.9-2.5-2-5.1-4-7.8-5.8a18.9 18.9 0 00-10.4-3.8l-14.2-.3c-3.2-.1-6.4.2-9.5 1.3-1.4.4-2.9.6-4.3.7-4.3.6-8.7.8-13 1.6-3.5.6-6.9 1.8-10.4 2.8l-1.5.6c-4.5.5-8.3 2.5-11.8 5.2a26.3 26.3 0 01-10.5 4.3c-3.8.8-5.6-.5-8-4-2.6-4-2.7-8.5-3-13-.2-4.5 0-9 0-13.6 0-5.2-.4-10.5 0-15.7.5-6.1 1.6-12.2 2.5-18.3.3-2.3-.3-3-2.6-2.3l-16.9 4.3c-4.7 1.2-9.7 1.3-14.2 3.5-7 .9-13.8 2.2-20.8 2.3-3.3 0-6.5.5-9.8.8-5.2.5-10.4.4-15.4-1.2l-8.2-3-5.2-1.4c-3.7-1-7.4-2-10.8-3.8a18 18 0 01-7.3-6.2c-1.2-2-3-3.6-4.6-5.3-4.4-4.5-6.6-10.4-10.3-15.3-.8-1-1.2-2.3-1.7-3.4-.8-1.4-1.4-3-2.4-4.3-5-6.3-6.8-14-8.3-21.5-1-4.9-.5-10-.5-15.1 0-5.6.3-11.3 1.2-16.8.8-5.2 1.8-10.4 3-15.5.5-2.4 1.1-4.9 1.3-7.4.1-1.4.7-2.8 1.2-4.2 1.7-4.5 3.3-9.2 5.3-13.6 3.4-7.4 5.8-15.3 10.1-22.2 3.2-5.2 6.4-10.4 11.1-14.6 4.2-3.8 8.7-7 13-10.5l12-9.3c4.9-3.6 9.7-7 15.2-9.5 8.4-3.8 17.4-6.3 26-9.7 7.3-1.2 14-4.7 21.3-6.1 2-.4 4-.8 5.9-1l17.1-2.8c2.2-.3 4.4-.7 6.5-.8 5.6-.3 11.2-.9 16.8-1.8 3.5-.6 6.9-.4 10.2.4 7.8 1.8 15.8 2 23.8 2.2 2.7 0 5.4-.6 8-1 4.7-.9 9.1-2.8 14-2.3l4.3.4h5.4c.8 0 1.7 0 2.6.2.8.1 1.3-.1 1.5-1l.1-.5c.2-4.7.3-9.4.7-14 0-.8-.4-1.4-1.3-1.3-.6 0-1.1.4-1.6.4-5-.8-8 2-10.6 5.8-2 2.6-3.8 5.3-6.9 6.9a21 21 0 01-5 1.6c-1.2.3-2.1-.1-2.8-1.1-.7-.9-1.4-1.7-2.3-2.3-2.6-1.9-3.5-4.6-3.9-7.5-.4-2.9-.4-5.8-.4-8.7 0-3.2 1-6.2 2.5-8.9 1-1.6 1.5-3.2 1.7-5 0-.7-.9-1.4-1.6-1.2-.8.3-1.7.6-2.3 1.2-4.1 3.7-9 5-14.4 5.2-3.6.2-6.3-1-8.7-3.7a30.5 30.5 0 01-5.6-9.8c-1-2.4-1.2-5-.8-7.4a48 48 0 012.4-7.8c1-2.8 2.3-5.3 3.5-8 1.8-3.9 4.8-7 8-9.4 3.3-2.5 7.3-4.2 10.8-6.3 1.2-.7 3.3-.3 3.5-1.9.1-.8-1.1-2.2-2-3-2.9-2.2-3.1-5.6-4.1-8.7-.2-.6 0-1.4.2-2 .3-1.3 1.1-2.4 1.3-3.6.7-7.3 5.9-10.5 12-12.3 5.9-1.8 12-2.6 18.2-3l4.8.3 11.5.2c.4 0 1-.5 1.1-.9.1-.4-.1-1-.5-1.4-.7-.8-1.7-1.3-2.4-2.2-1.3-1.7-2.8-3.4-3.7-5.3a9 9 0 012.4-11.2 30 30 0 0110.9-6 18 18 0 017-.7 67.1 67.1 0 0120.9 5.7c1.4.8 2.9 1.5 4.2 2.5 3.4 2.3 6.7 4.8 10.1 7.2 1 .8 2 1.6 3.3 2 4.1 1.6 7.5 4.4 11 7a34 34 0 016.1 6.9c4 5.2 8.4 10 11.5 15.8 3 5.6 5.8 11.3 8.5 17a47.4 47.4 0 013.7 16.4c.2 2.5-.1 5.2-.8 7.6-1 3.7-2.2 7.2-2.3 11.1 0 .9-.5 1.8-.8 2.6-2 5.1-4.6 9.7-9 13.3-2.4 1.9-4 4.6-6.2 6.8l-11.3 10.9c-.7.6-1.4 1.2-2 2a9.5 9.5 0 01-4.2 3.2c-1 .3-2 .8-2.9 1.5-4.3 3.1-9 4.1-14.3 4-4-.2-8-.2-12 0a15 15 0 01-7.7-2.2c-.6-.3-1-1.1-1.2-1.7-.6-1.5.6-3.3 2-3 7 1 13.8-.9 20.6-1.7 5.4-.6 10.2-3 14.3-7 4.6-4.3 9.7-8.1 14.3-12.5a49 49 0 007.5-8.5c1.6-2.3 2.3-5.2 3-8 .2-1.2.3-2.4.7-3.6 1-2.6 1.8-5.2 2.5-7.8 1-3.8.7-7.7-.3-11.3-1.4-5.4-3.2-10.8-5.2-16a26.1 26.1 0 00-9.9-11.4c-.4-.3-1-.5-1.5-.7-3.5-.8-7-1.8-10.5-2.5-2.6-.5-5.3-.8-8-1-.7-.2-1.4-.2-2.2-.1-7 .8-14 1.6-20.7 4.1a17.3 17.3 0 00-9.3 7.9 97.3 97.3 0 00-3.6 7.2 25 25 0 01-5.2 7.6c-1.6 1.6-3.3 3-5.8 2-6.1.5-11.6 2.9-16 7a9.4 9.4 0 00-3 8 6.2 6.2 0 003.8 5.4 23 23 0 0011.2 2c1.7 0 3-.3 4-2 .7-1.2 1.7-1.2 2.8-.3.8.6 1.6 1.3 2.3 2.2.8 1 1 2.2.4 3.5-2.8 6.8-4.3 13.9-5.6 21-.2.9-.4 1.8-.4 2.7-.4 8.3-.9 16.6-1 25-.1 2.9.5 5.7.7 8.6 0 .8 1.4 1.7 0 2.2-.6.3-1.8 0-2.5-.4-1.3-1-2.4-2.2-3.6-3.3-.3-.3-1-.7-1.3-.7-5 1-10 2-14.9 3.2-2 .4-2 .7-1.8 2.6a34.6 34.6 0 009.7 19c2.8 2.9 5.9 5.4 9.4 7.4 5.3 2.8 11 4 16.7 4.2 5.1.2 10.2 0 15.3-.4 2.5-.2 5-1 7.4-1.6 2.5-.6 4.8-1.7 7.3-2.1 3.4-.6 6.6-1.8 9.7-3.3 2.7-1.4 5.7-2.3 8.5-3.6 4.7-2.4 9-5.4 12.5-9.5 1-1.2 2.2-2.3 3.3-3.4.8-.8 1.7-1.5 2.1-2.5 1.4-2.9 1.7-2.8-1.7-4-.3-.1-.8 0-1-.2a24.8 24.8 0 00-13.8-2.4c-2.5.3-5-3.6-4-5.8.4-.7 1-1.3 1.6-1.6 2-1 4.2-2 6.5-2.7 1.5-.4 3.2-.5 4.8-.2 4.6 1 9.4.7 13.8 2.5.7.3 1.5.2 2.2.3 5.8.5 11.6.8 17.3 1.4 3.3.4 6.4 1.2 9.6 2 3.2.8 6.3 1.8 9.7 2.2l1.4.2c2.4.1 4.7.9 6.9 1.6a470.7 470.7 0 007 2.2c0-.2.1-.4.5-.2h1.5c.4-.2.4 0 1 .3 0 .1 0 .3-.5.4l-.5.1a105.4 105.4 0 002.6.6c.5 0 1 0 1-.3s-.1-.6.4-.5l-.5-.2c-1-.3 0-.6 1-.4l1.4.2 1.5.2c.5 0 1 .2.5.3v.3l.6.2v.1c.5.2.5.4.5.8v.4c-.4-.3-.4-.3-1.4-.2l-.6.1.7.2c1.5.2 2.9.7 4.3 1.2h.1c1.5-.2 2.4-.5 1.4-1.5v-.3l1 .1 1 .2 1 .5 1 .5.5.2v.3c.5.3 1.5.5 2 .5.5-.1-1-.9-1.5-1-.5-.2-1.5-.6-1-.6 0-.1.4 0 .4 0 .6.3 2 .7 2 .6l-1-.4 1 .2a5 5 0 011.5.6l1 .3c-.5-.3 1-.2 2.5.3 1 .3 1.5.4 1 .5 0 .2 0 .3.5.5h.5c0-.1 0-.3.5-.2.5.1.5.6-.5.5-.5.1-.5.1.5.3 1 .1 1 .2 1 .3-.5 0 0 .2 0 .1.5.2.5 0 .5 0 0-.2.6-.2 1.3-.2.8.1 1.6.2 2.1.4l1 .3h.5c-.5-.4.5-.2 1.5.3.4.2 1.4.5 2 .4.4 0 .4 0 1 .3.4.3 2.3 1.6 2.8 1.7v-.4s0-.3-.5-.5c0 0-.4-.1-.4-.3 0-.2 0-.2-.5-.1-.5 0-.5 0-1-.3-1-.6-.5-.5 3 .8a18 18 0 013.3 1.3l1 .9.9.9c-.5 0-.5 0-1.5-.6-.4-.4-1.4-.8-2.4-1.3l-1-.3s0 .2.5.4l3.4 1.7c0 .2 0 .2 1.9.7l1.4.6.5.3c.5.2.4.3.4.5-.5 0 0 .1.5.3s1 .3 1 .2v-.2c.5.2.4.4.4.6 0 .4.4 1 1.3 1.4.5.2.5.2 0-.2-.5-.2-.4-.3 0-.3.5.1.6 0-.3-.8-.9-1-.4-1 1.5 0l1.8 1 1 .5s0 .2-.6 0c-1-.2-1 0 0 .4.5.2 1 .4.4.4 0 .2.9.8 1.9 1 .4.1.5 0 0-.1-1-.4-1.3-1.2-.8-1a32.9 32.9 0 016.9 3.3 40 40 0 005.3 3.4c0 .2 0 .2-.5 0-.4-.3-.5-.2-.5 0l.4.5 1.5 1.1c.5.5.7.9.5.8-.5 0 .4.5 1.3.8.5.1.9.5.8.8 0 .1.3.5.8.8.4.3.4.2.5 0s-.3-.8-1.2-1.3l-.4-.3s0-.2-.4-.5l.5.1c.5 0 .1-.2-.8-.6-1-.4-1.4-.7-1.7-1.2l.4.2c.9.6 1.8 1 2.7 1.4 1.4.5 1.9.8 2.2 1.3.4.4.4.4.5.2 0 0 .5.1.8.6l1.3 1c.5 0 2.2 1.2 1.7 1v.3c.3.3.3.5.3.5-.1.3.3.6 1.2 1 .9.5 1.7 1.2 1.2 1l-.1.3.8.6.5.2c.8.7.8.6 1 .4-.4-.7.5-.2.8.4l.9.5c.8.5 1.6 1.2 1.1 1.2l.8.6c.8.7 1.2 1 1.1 1.1l-.8-.4.7.7c1.1 1.1 1.1 1.1 1.2 1l-.3-.5 1 .4.4.2-.1.2c-.1.2.3.5.3.5l.7.8c0 .1.3.5.7.7 1 .6 1.6 1.4 1.1 1.2-.8-.6-.5 0 .3.5.4.4.8.6.9.5v-.1c.4.5.3.6-.1.3l-.1.2.3.4c.8.7.8.7 1 1.2.3.6-.5 0-1.5-1.2-.3-.5-.3-.5-.7 0-.2.5-.3.6 0 1 .7 1 1 1.3 1.5 1.5.4.3.7.7 1.3 1.6l1 1.2c.4.3.5.2.2-.2v-.2c.2-.1.4.4.7.8l.9.5c.7.7.8.6.1-.1l-.6-1a433.6 433.6 0 001.1 1c.5.3.5.3.8.8.3.3.5 1 .5 1-.1.1-.1.1.2.5l-.1.2s-.1.2.3.5l1 1c.3.5.7.9.4.4a15 15 0 00-1.2-1.8l-.3-.5.7.8c.3.4.7.8.8.6.4.3.4.3.3.5-.2.2.1.7.4 1.1 0 0 .3.5.2.6l.2.5c.4.4.7.8.4.3 0 0 .2-.2.5.3l.5 1c-.2.1-.2.1.8 1.4 1.2 1.6 1.2 1.6.5.9-.7-.8-.7-.7-.8-.6l-.3-.5a24 24 0 00-3-4c-1.2-1.1-1.2-1.1-1.7-2-.2-.6-.3-.6-.4-.4h-.2a113.9 113.9 0 019 11.8c.5.6.8 1.4 1.3 1.7 3 1.8 4.2 5 6.3 7.4 3.5 4 5 8.7 5.8 13.8zM240.2 116.3l1.7-10.1c.2-1-.4-1.6-1.6-1.7-5-.5-10.1-1-15.2-1.3a6 6 0 01-5.2-3.4 13.9 13.9 0 01-1.7-10c.6-2.6 1.3-5.2 2.2-7.8a21 21 0 0120.1-14.5h2.2c1.3 0 2.2-.6 2.4-1.8.3-3.5 2.3-6.4 3.6-9.6a31 31 0 0110-13.3 45 45 0 0128.5-9c3.6 0 7.2.6 10.8 1.2 3 .4 6 1.2 9 1.8.3.1.6-.1 1-.2V36c-2.4-2.4-3.8-5.7-7.4-7-1.5-.5-2.9-1.4-4.3-2.2-3.7-2-7.5-3.7-11-5.8-3-1.8-5.8-3.6-9-5a47.6 47.6 0 00-21-4.4c-2 0-4 .4-5.7 1.6-.7.4-.8 1.2-.2 1.8 1 1 2 2 3.2 2.9 2.2 1.4 3.6 3.5 4.8 5.8 1.8 3.5.8 7-2.7 8.6-2 1-4.1 1.9-6.2 2-5.7.2-11.4 2-16.7.9l-4.9.3c-5.2-.4-10 1.2-14.5 3.6-2.2 1.1-2.9 3.1-3.1 5.3-.2 1.8 1.5 2.3 2.7 3 2 1 4 1.8 5.8 2.8 1 .6 1.8 1.2 2.6 2 2.5 2.4 2.6 4.9 0 7a32.6 32.6 0 01-10.6 6.4 83 83 0 00-9.6 3.7c-4.3 1.9-8.4 4.3-11 8.5-2.7 4.8-4.6 9.7-2.7 15.4.4 1.3 1.1 2 2.3 2.7 3 1.7 6.2 2.4 9.5 2 3.5-.6 7.1-1 10.7-1.2 1.2-.1 2.4-.8 3.5.3 1.1 1 2.4 1.7 2.5 3.4.1 1.2.5 2.5.5 3.7 0 4.1 0 8.3-1.1 12.3a8.8 8.8 0 000 3.7c.4 1.6 1.3 2.1 2.8 1.6 3.3-1 6.7-1.8 10.1-2 3.4-.4 6.8-.9 10.3-1.2 1.4-.2 2.4-.8 2.6-2.3zM28.7 256.8l-.8 2.4c.3-.8 1.1-1.6 1.2-1.1.3 0 .2.5-.2 1.8l-.3 1.4.5-.9.5-.8c-.3 0-.2-.5 0-1.5.5-.9.4-.9 0-1-.7 0-.7 0-.3-1 .3-.4.4-.8.1-.4l-.7 1.1zm-1.1 3.9c-.1.5.1.5.1.5.3-.4.5-.9.2-1v-.9l-.4.9v.5zm-.6.9zm117.2-95.8h.7c.7-.1 1.7-.5 2-.8l-2.7.8zm10.3 179.6c4-1.6 8-3.3 12.3-4a26 26 0 006.7-2.2 72.8 72.8 0 0119.2-5.7c2-.3 3.8-.8 5-2.8.5-.9 1.5-1.4 2.4-2L216 319c2-1.1 4-2 2.4-4.8-.2-.4-.2-1.2.1-1.6 1.6-2.2 2.8-4.7 5.3-6l2-1c.2-.1.5-.6.5-.9 0-.2-.4-.5-.6-.6l-2.7-.3c-2 .2-3.4-1.2-4.7-2.3a4.9 4.9 0 010-7.8l1.8-1.1a193 193 0 0017.3-10.3c.3-.2.7-.4.8-.7.1-.2 0-.7-.3-.8-.6-.2-1.4-.5-2-.4l-21.1 2.2c-1.2.1-2.5.7-3.6 1.3a38.6 38.6 0 01-13.4 4c-2.4.2-4.6.9-7 1.4-7.1 1.6-14.2 4-21.5 5-3 .4-6 1-9.1 1.6l-20.3 3.5c-10.3 1.6-8.6-.1-9.2 10.5l.1 1.6c0 4.2.7 9.4 2.7 14.4 1.6 4.2 2.6 8.6 4 13 .2.8.6 1.6 1 2.4l3.4 5c.8 1 1.8 1.4 3.3 1.5 3.4.1 6.4-1.1 9.4-2.4zm-10.3-67.2c1.6-7.4 3.5-14.8 5-22.3.6-3 1.4-6 2.7-8.8.3-.8.5-1.7.9-2.5 2-4.8 2-10 3.1-14.9 1.5-7.3.8-14.8 2-22.2.3-2-1-3-3-3-3.8.1-7.5.4-11.1 1.8-2.7 1-5.5 2-8.3 2.6-5 .9-9.4 2.8-14 4.7-5 2-10 4-14.4 7.3-2.7 2-5.4 4.3-8.4 6-3.6 1.9-6.4 4.7-9.3 7.3a41 41 0 00-7.8 9c-2.6 4.6-5.4 9-8.4 13.3a63.4 63.4 0 00-7.4 19.2c-.8 3.3-1.4 6.7-1.7 10.1-.4 3.7.7 6.7 4.1 8.8 2.5 1.6 4.9 3.1 8 3.3 2.8.2 5.7.7 8.6 1 4.2-.1 8.3-.6 12.4-1.6 6.3-1.6 12.6-3.4 19.2-3.5 2 0 4-.6 5.9-1.1l18.4-4.9c2-.5 3-1.5 2.7-3.2-.4-2.3.4-4.3.8-6.4zm71.7-20v15.3c0 2 .5 2.4 2.6 2.3.9 0 1.8-.2 2.7-.4l10-2.1c2.1-.4 3-1.1 3-3.3-.2-4.6-.4-9.4-1-14a8 8 0 00-4.1-6.1c-4-2.2-7.7-4.8-11.2-7.6-.4-.2-1.2-.4-1.5-.2-.4.2-.5 1-.5 1.5v14.7zm95.1 39.2c.3-1 .6-2 .7-3.1a854 854 0 00.2-23.3l-.6-11.4c0-1.4-.5-2.1-1.8-2.2l-7-.2h-34.3c-4 0-7.9-.1-11.7-1.8-3-1.4-6.3-1.6-9.5-1.5-2.8 0-4.6 1.4-5.2 4-1.2 4.3-2 8.8-1.8 13.4 0 1 .7 1.7 1.7 1.8 2.6.4 4.9 1.4 6.9 3 2.1 1.8 2.2 3.4.6 5.6-3 4.5-7.4 7.5-11.6 10.5l-3.7 2.3 3.5 3c1 1 2 2 2.9 3.3.9 1.2.9 2.7 0 4-2.2 3-4.8 5.4-8.4 6.7-1.9.8-2 1.4-.3 2.4a3 3 0 011.6 2.5c.2 1.6 0 3.4.7 4.8 1.4 3 1.4 5.9 1 9a73.8 73.8 0 00-.1 8.6v.2c.1.2.2.4.4.4.3.2.3.2.1-.1-.1-.4 0-.6.2-.3l.1.2v.2h.2v-.2-.8l.1.3c.1.4.2.5.4.2.2-.4.2-.4 0-.6-.3-.1-.3-.5 0-.5.2 0 .3.2 0 .3v.1c.3.2.5-.1.4-.3l.1-.2c.3-.2.4 0 .2.4-.2.2 0 .4.1.3l.2-.2c.1.2.2.2.3 0 0-.4.3-.2.2.2v.3l.4-.1c.3-.2.3-.2.6 0h.2c0-.3.2-.3.4-.1h.3c.2 0 .2 0 .2-.2-.1-.2 0-.2.1-.2.2 0 .4 0 .4.3h.3c.2.2.2 0 .2 0 0-.3.1-.3.4 0h.3c.2-.1.4 0 .5.3.3.4.5.2.4-.2h.2c.3 0 .4 0 .6-.2l.4-.2c.2.2.3.2.4 0 0-.1 0-.1 0 0 .2.3.2.3.3.2h.2c.2 0 .3-.2.3-.3 0-.1 0-.1 0 0 .2.2.2.2.2 0h.2c.1.2.3 0 .2-.2.3-.1.4.1.4.2s.1.1.2 0 .3 0 .3.2h.5c.3-.2.3-.2.3 0l-.1.1c.1.2.4 0 .3-.2v-.1c.2 0 .2.3.2.3h.3c.3-.4.7-.4.7-.2 0 0 .1.2.3 0l.6.1h.3c.2-.1.9-.3 1-.1h.7c.5 0 .8 0 1 .2h.3v-.2c0-.3.8 0 .8.3 0 0 0 .2 0 0h-.3v.4c.3 0 .4 0 .6-.3l.1-.4H255l.4-.1c0-.1 0-.1 0 0s.3 0 .8 0l.8-.1h1.3c0-.2 0-.2.2-.2l.3.1.2-.1.4.2c.4 0 .4 0 .6.3l.2.4v-.6c-.2-.1 0-.1 0-.1H260.7c.2 0 .2 0 .2-.2-.2-.2 0-.2 0 0l1.3.1.8-.2c.1-.2.2-.2.2 0s.3.2.4 0c0-.1.2 0 .2 0 0 .2 0 .2.2.2 0-.2 0 0 .1.1l.1.5.1-.3c0-.2.1-.2.2-.2h.2l.2-.3a43.6 43.6 0 00.1.4h-.2c0 .2.2.3.2.3.2 0 .5-.6.6-.8l.1.1c.1.1.3.2.5 0h.5c.4 0 .4 0 .3.3 0 .4 0 .4.1.2l.2-.2.2-.1c0-.2.2-.2.4-.3.3 0 .3 0 .3.2l.2.3s.2 0 0 0c0-.2.4-.5.8-.4.2 0 .3 0 .5-.3.2-.2.2-.2.2 0 0 .1.3.3.4.2v-.2c.2-.1.2-.1.2 0a1046.6 1046.6 0 00.1.4l.3-.2h.4l.2-.1h.5c0 .2.3.1.3 0 0-.2 0-.2.2-.2H273.5l-.1.1c0 .1.8 0 1.1-.2.3-.1.7-.1.9.2 0 0 0 .2.2 0h.4a120.4 120.4 0 001.5-.3s0-.1.1 0c.1 0 .2 0 .1-.2l.2-.3c.2-.2.2-.1.1 0l.1.3.2.2c0 .2.4.4.6.4h.3l.3.2-.2-.2c0-.2 0-.3.4-.3h.7c.2.2.4.1.4-.2.1-.2.1-.2.3 0 0 .2 0 .3.2.1 0-.2.2-.2.3 0v.1l.4-.1h.6l.5.1c0 .2 1 .2 1 0h.4c.2 0 .2 0 .2-.2v-.4l.3.2c.3.3.7.5.8.4h.6v-.3h.5c.4 0 .5 0 .5-.2s0-.2 0 0c.2.2.2.2.2 0 0-.1 0-.2.2 0l.1.2.2.3c.3 0 .3 0 .1-.1v-.2l.1-.2.1.2c0 .2.2.2.2 0h.3c.2.2.2.2.3 0 0-.4.3-.4.3 0l-.1.2.2-.3c.2-.2.2-.3.4-.2h.2c0-.1.2-.2.5-.2l.3-.1h.2v.3c0 .2 0 .3.1.2h.3c.2.2.5.1.4 0 0 0-.2 0-.2-.2s.1-.2.4-.2c.5 0 .8 0 .7.2-.1.3.3.3.5 0l.2-.1a285 285 0 00.1.3c.2 0 .2 0 .2-.2l.1-.2h.6c.3 0 .4 0 .5.3 0 .3 0 .3 0 0 .1-.4.7-.5 1.3-.3.2.1.4.1.4 0h.2c.2.3.2.3.1 0-.1-.1 0-.2.1-.1l.1-.2h.2v.2c0 .1 0 .2.2.1l.3-.2.1-.1.4-.2c.3-.2.6-.1.5 0v.3c.2.2.4 0 .7-.2 0 0 .2-.2.2 0h.3c0-.1.1 0 .1 0 0 .3.1.3.2 0s.1-.2.1.2l.1.2.1-.4c0-.2.2-.2.3.1.1-.2.2-.2.3 0 .2 0 .5.2.6 0 0-.2 0 0 .2 0v.1l.3-.1.4-.1h.8c.1 0 .2 0 .3.2 0 .2 0 .2 0 0l.3-.2.3.1c.2-.1.3 0 .4.2.1.3.1.3.2 0 .1-.1.1-.1.2 0l.7.1.4.2h.2c0-.2.2-.2.3 0 .2.2.2.2.3 0l.2-.1h.3l.2.1c0 .3.2.2.5.2h.2c-.1-.1-.1-.1 0-.2.2-.2.2-.2.3 0l.1.3v-.3c0 .5.2.5.4.1v-.3l.4.3c.3.3.3.3.5.2.2-.3.8-.4 1.2-.4.8-2.4-.1-4.1-2.2-5.3-3.7-1.9-6-5.2-8.9-7.9a5.4 5.4 0 012.7-9.3c2.6-.6 5.4-.8 8-1 2.8-.2 5.5-.2 8.7-.3-2.3-2.5-4.2-4.7-6.4-6.5-3-2.4-3.6-5.2-2.5-8.7zm-.7 40l-.2.2.3.1V338c.2-.1.4.2.3.3-.1.2.2.2.5.2v-.4c-.2.3-.3.3 0 0l-.1-.6c-.1 0-.2 0-.3-.2h-.2l-.2-.1V337.4s0 .2 0 0zm1.1-.4v-.2.2zm-.2 2.2v-.2h-.2c-.1-.1-.2 0-.1 0l.2.2zm-6.2-91.6c-.5-2.8-3.3-3.6-5-5.2a17 17 0 00-11.6-5.3c-2.5 0-5-.3-7.6-.5l-15.7-.7c-2.7-.1-5.4-.3-8-.1-6.8.4-13.4.2-20-.7l-7-.8h-6c-.4 0-.8.3-.8.6l.2 1 .4.4c4.3 4.2 9.7 6.6 15 9.4.5.3 1.3.2 2 .2l23 .1c11.4 0 22.8-.2 34.2 1.1 2.3.3 4.5 1.1 6.9.5zm-80.4 85.1h.1v-2.2c.1-7.2.9-7.5-6.2-4.1-2 .9-3.7 2-5.6 3.2-.7.4-.7 1.2 0 1.6 3.9 2.3 7.5 5 10.2 8.6.2.2.7.3 1 .2.2 0 .5-.5.5-.8v-6.5zm133.2 71.5l-.5-2.1c-2.5-8.6-3.2-17.5-3.9-26.3a57.5 57.5 0 00-3.1-16.5 24.7 24.7 0 01-2-11.1c0-1 0-2.2-.2-3.3-.2-2.7-1-3.4-3.8-3.5-7-.4-14-1.9-20.6-4.3-7.2-2.6-7.1-1.4-5.7 4.4v.5c.4 2.8-.7 5-3.5 6a112.6 112.6 0 01-1.5.5h-.3v.2h.2c-.1-.2 0-.2 0 0h.4l-.2.2-.3.3-.3-.2a.6.6 0 01-.2-.3c-1.5.5-3 1-4.5 1.1-4.2.5-8.3.5-12.5.8-7.6.5-15.2.8-22.7 1.6-5.5.6-10.9.8-16.3.9l-13.5-.1c-3.3 0-6.5-.5-9.8-.6-1.2-.1-2.5 0-3.7.3-2.5.9-4.7.3-6.7-1A58 58 0 01206 337c-1.7-1.7-2.1-1.7-4.4-.8-3.6 1.6-7.2 3.2-11 4.7-3 1.2-5.8 2.6-8.6 4.3a59.7 59.7 0 01-18.4 7.9c-2.1.4-4.2 1.2-6.3 1.8-1.9.5-2.6 1.8-2.5 3.6.3 3.7 0 7.3-1 10.8-1.8 8.2-1.4 16.6-2.3 25l-1.8 17.8-.2 1.6c0 .3.1.8.4 1 .1.1.7 0 1-.1 1.2-1 2.7-1.7 3.8-2.9 4-4 8.5-6.7 13.6-8.8 3.5-1.5 6.9-3.2 10.2-5a67 67 0 0115.8-5.8c5.9-1.4 11.9-.8 17.8-1.4 3-.3 5.9-.4 8.7-.2 2.6.2 5.2.3 7.5 1.2a49 49 0 0116.2 9.8l2 1.9c1.2 1 2.5 1.2 4 .6 2-.8 4-1.7 6.1-2.2 2.9-.7 5.6-1.6 8.3-2.7 5.4-2.1 11-3.7 17-3.5 3.9.2 7.9-.2 11.9-.2 4.3 0 8.8-.1 13 .6 8.4 1.3 17 2 25 4.9 1.5.5 3 .6 4.3 1l5.8 1.5 7.8 2.4c.8.2 1.8.2 2.6.1l4.3-.2c1 0 1.2-.7 1.2-1.5zM398 311c-.5-5.7-.8-11.5-1.1-17.3l-.1-.5c-.5-2-1.7-2.4-3.2-2-3.8 1-7.6 2-11.6 2.1-2.6 0-5.1.2-7.6 0-2.7-.2-5.4 0-8.1-.4-2.4-.4-4.9-.4-7.3-.5-8.3-.5-16.5-1.8-24.7-3.4-2.6-.5-5.4-.3-8-.3-1 0-1.2.8-.6 1.5 1.1 1.5 2.4 2.8 3.4 4.3 1.3 1.9.8 3.8-1 5.2-.8.5-1.6 1-2.4 1.3l-3.6 1.2a1 1 0 00-.2 1.7c1 .7 2.2 1.2 3.3 1.9 1.1.6 2.3 1 3.3 1.8 1.5 1.3 2.8 2.8 4.1 4.3 1 1.1 1.2 2.2.3 3.4a14.2 14.2 0 01-7.5 5.9c-2.2.7-4.4 1.3-6.8 1.3l-7 .1c-.4 0-.7.3-1 .4.2.2.5.5.8.6l5.3 1.3c4.7 1.1 9.4 2.4 14.2 3.3 8.4 1.6 16.9 2 24.8 1.8h7.2a98.7 98.7 0 0032.8-6.4c1.2-.4 2.2-1.5 2-2.4-1-3.4.5-6.8.3-10.2zm-53.2-81.2c1.8 7 2.8 14.2 5.4 21a29 29 0 011.8 8c.5 6.7 3.7 12.4 6.2 18.4.5 1.1 1.4 1.5 2.6 1.5h11.4a56 56 0 0024.2-2.3c4.2-1.3 8-3.2 11.3-6 3.8-3.3 6.9-7.1 9.7-11 2.4-3.3 1.8-7.3.7-11 0-.3-.3-.7-.6-.9-2.2-1.8-4.3-4-6.8-5.3-5.3-2.6-10.9-4.8-16.4-7.1a482 482 0 00-36.1-7c-3.9-.6-8-.4-11.9-.4-1.4 0-1.8.7-1.5 2.1zm149.8 27.4c-1-5.5-2.6-11-5-16-3.4-7.3-9-13.1-14.9-18.6l-8.7-8c-2-2.2-4.2-4-6.9-5.3-1.8-.9-3.2-2.3-4.9-3.4-3-2-5.6-4.5-8.3-6.8-3-2.6-6-5.2-9.7-7l-10.3-4.7c-3.8-1.6-7.8-2.8-11.6-4.5-2.8-1.3-5.6-2.7-8.7-3-3.6-.4-6.9-1.8-10.2-3-1.2-.5-2.4-.9-3.7-1.2-6.8-1.6-13.7-3.3-20.6-4.7l-15-2.7c-2-.3-4.2-.7-6.4-.7-2.3 0-4.4-.3-6.3-1.3-3.2-1.6-6.6-1.8-10-2.7-1.2-.3-2.1.3-2.8 1.2l-3 5.1c-1 1.6-2 3.1-2.8 4.7-1.7 3.3-4.6 5.5-7 8.2-4 4.7-8.8 8.6-14.4 11.3-2.2 1.1-4.4 2.6-6.8 3.3-6.3 1.8-12.5 3.5-19 4.3a88.8 88.8 0 01-29.2-.8c-8.5-1.8-15-6.6-21.5-11.8l-3.8-3.1c-3.3-3.3-6.8-6.4-8.8-10.9-1.3-3.2-2.4-6.4-3.5-9.7-.4-1.4-1.2-2.2-2.5-2.5-3.2-.5-6.4-1.4-9.6-1.6-5.6-.3-11.1-1.2-16.7-1.8-5-.5-10.1-.4-15.2-.6-.9 0-2 0-2.6.5-1.9 1.7-4.4 1.7-6.6 2.4L150 164c.5 0 0 .3-.5.3-1 .2-1 .2-.9.3.2.3-.2.6-.3.5-.5 0-1.8.5-1.3.5 0 .1.1.3-.3.5l.2.4c1 0 1.1.1.1.3-.5.1-.9.3-.8.4-.4.3-1 .1-1.2-.2 0 0-.6-.2-1.1 0-1 .1-3.1.1-3.3-.2v-.1l-.6.1-2 .5c0 .2.2.2 1.3 0h1c.1.1.1.2.6.1-.9.3-.8.4-.4.3.6 0 1.1 0 .7.2.1.3.2.4 1.5-.1.9-.4.9-.4.5-.1h.5l.1.2c.1.2-.3.4-1.7.8h-1c.3-.3.3-.3-.6 0-.8.4-1.8.6-2.4.5h.5c1-.3 1.5-.3 1.4-.5s-.7-.2-1.1-.1c-1 .2-1 .3-.9.4h-1c-.6 0-.6 0-1 .4-.1.5-.7.5-1.4.2-.1-.3-.6-.3-.6-.3l-1 .3c-.5 0-.5 0-.8.3-.4.4-.2.8.3.6.8-.3 1.9-.3 1.5-.2-.4.3-2.3.8-2.8.8l-1 .1c-1 .2-1 .1-1 0-.2-.3-.3-.4-1.2-.2-1 .1-1.4.4-.8.5.6 0 .6 0 .1.2-.9.2-2.3.5-2 .3v-.1c-.5.1-.4.2-.4.2l-.4.2-.5.2c-.1-.3-.7-.5-1.2-.3h-.5l-1.7.5-3.8 1.1c-.4.3.4.6 1.3.4.5 0 .6 0 0 0l-.8.5h-1c-1 .1-1.5.3-1 .3.6 0 .2.3-.3.3l-2.2.7c-1.4.5-1.8.7-1.4.4 0 0-.2-.2-.6 0-.4.2-.4.2-.5 0 .4 0 0 0 0 0-.4.3-.3.4-.2.5 0 .1-.3.4-1.1.7a29.2 29.2 0 01-3.2 1.2l-3.5 1.4c-1.7.8-1.7.8-1.8.7-.2-.2-.2-.3-.6 0l-.1-.1c-.2-.2-1.4.4-2.4 1.3-.7.7-1 1-1.6 1l-1 .3c-.4.2-.4.2-.5.1l-.4.3-.8.4-1.1.8c0 .1-1.7 1.6-2.1 1.8-.4.2-.2-.2.6-.7.7-.6.7-.6-.6 0l-1.8.9c-.9.4-1.2.8-1 .9-.3.4-.3.4-1.7 1-.8.4-.8.5-1.1.8-.3.4-.2.4-.1.5l-1 1c-.8.5-1.3.7-1.8.8l-.5.2a11159.9 11159.9 0 00-4 3.3c.4-.2.5-.2-.8 1-1.5 1.8-2 2.1-2.2 2l-.5.1c-.4.3-.7.7-.5.8l-.4.3-.4-.2c.6-.8.1-.5-1.3.7-.3.4-.6.7.1.1.5-.3.4-.3-.2.4-.4.3-.4.3-.2.4.2.1.2.1 0 .5-1 1-1.9 1.6-1.7 1.2.1-.5.1-.5-.6.2-.6.7-1 1-1.4 1.3 0 0-.3.3-.4.8L65 207c-1.3 1.4-1.6 1.8-1.8 1.7a3 3 0 00-.8.6l-1.6 1.8c-.5.3-4 4.7-4.3 5.6l-1.3 1.5-1.2 2-.6.8c-.4.3-.3.3-.7 1.2 0 .5-.3.8-.3.8h-.2l-.8.7c-.7.7-1.6 1.9-1.3 2l-.7 1.2c-.3.4-.2.4 0 .5-.2.4-.5.8-.7.7l-.6.8a20.3 20.3 0 00-2.7 3.5 52.3 52.3 0 00-3.2 5.9l-1 1.2-1 1.6c-.3.4-.6.9-.9 1.7-.2.5-.2.5-.3.4l-.5 1c-.3.8-.5 1.2-1 1.6-1 1.2-1.1 1.7-1.2 2.1 0 .5-.8 2.2-.8 2.2l-1 1.8c-.6 1.3-.6 1.3-.9 1.2-.6.4-1.1 1.2-.8 1.3.3 0 0 1-.3 1.4-.4.4-.8 1.2-.4.8l-.1.5c-.9 1.3-1.3 1.7-1.4 1.7l-.1.4v.5c.2 0 0 .5-.2 1l-.2-.1h-.2l-.3.4c-.1 0-.4.4-1 1.8-.7 1.3-1 1.7-1.3 1.7 0-.5-.3 0-.7.8l-.9 1.3c-.4.4-.2 0 .2-.4l.8-1.8c.3-1 0-1-.1-.5-.2.4-.2.4-.4.4v-.5l-.4 1c-1.4 3.4-2 7-2.7 10.5-.8 4.2-1.4 8.5-2.1 12.8-.9 5.5-1.3 20.3.2 27.6.4 2 1.2 3.8 1.5 5.7 2 10 6.3 18.8 12.1 27 2.5 3.5 5.5 6.1 10 6.8 1.7.3 3.5 1 5.2 1.5a49.5 49.5 0 0017.2 2l23.3-2c3.7-.3 7.3-.7 10.8-1.5 7.8-1.7 15.5-3.6 23.3-5.5l2.6-.8c1.3-.4 1.7-1.2 1.3-2.5-.9-2.4-2.2-4.7-2.7-7.1-1.5-8-4.4-15.7-5-23.9-.4-3.6-.8-7.2.4-10.7.5-1.3-.1-2-1.7-1.8-6.5.4-12.9 1.9-19.3 3-2.2.4-4.2 1.1-6 2.3a21.5 21.5 0 01-11.4 3.3c-4.3.1-8.6.5-12.9.8-3.2.2-6.4-.2-9.5-1-3.9-1.2-7.3-5.2-10.1-8.7a19 19 0 01-3.9-10.6c-.3-3.8.2-7.9 2-11.6 1.7-3.8 3.4-7.6 4.8-11.5 2.3-6.5 5.5-12.6 8.4-18.8.8-2 2.6-3.5 3.5-5.5 1.8-4.1 5-7 8-10.2 4-4.2 8.6-7.7 13.1-11.3 3.9-3 7.5-6.2 11-9.6a36 36 0 0118.4-9.9c5.4-1 10.6-2.4 15.8-4.2 9.3-3.3 18.9-5 28.8-4.8 1.4 0 2.9.2 4.3.6 2 .5 3 2.2 2.8 4.5l-.4 10.2a39 39 0 01-1.8 11.3 74 74 0 00-3.4 17 2034 2034 0 00-2 38c-.1 2 .3 4 .6 6 .1 1 .7 1.5 1.8 1.3 5.2-1 10.4-1.6 15.5-3a134.8 134.8 0 0122.3-4.4c.7-.2 1-.7 1-1.6 0-6.5 1.7-12.8 3.1-19a87 87 0 002.2-22.1c0-3.6 1.4-5.4 4.8-5.6 2.7-.1 5.5 0 8-.5a36 36 0 019.8-.8c12 .6 24-.4 36 1.2 4.6.6 9.3 0 14 0v.1h14.8c1.7 0 3.2.2 4.6 1.2 5.3 3.9 10.4 8 13.6 13.8.6 1.1 1.5 2 2.4 3a22 22 0 015.9 14.3c.1 6-.3 11.9-1.5 17.8-.7 3.2-.3 3.5 3 3.4l15.8-.5c2.9-.1 3.3-.7 2.2-3.2-.7-1.7-1-3.4-1.2-5.3-.4-4-.8-8.3-1.6-12.3-.8-3.6-1.1-7.2-1.3-10.8v-14c-.2-3.8.4-7.5 1-11.3a5 5 0 012-3.6c1.5-1 3-2.1 4.8-2.5a43 43 0 018.6-1.2c6.7-.3 13.4.1 20 1.1 12.2 2 24.5 3.6 35.7 9.2l1.5.6c2.6.3 4.6 2 6.8 3.2a51 51 0 0112.6 11.9c1.5 2 2.4 4 2.4 6.5 0 3.4 0 6.9-1 10.2-.5 1.8-1.2 3.3-2.5 4.7-3 3.4-5.6 7-8.5 10.5a44 44 0 01-8.8 8.9c-4.6 3.2-4.7 3.2-3.4 8.8.2.7.6 1.3.7 2 .6 3.2 1.5 6.4 1.5 9.7 0 4 0 8-.7 11.9-.3 1.9.7 2.8 2.5 2.5l2.7-.5c5-1.2 10.2-2.6 15.3-3.5 4.5-.9 8.8-2.6 13.4-2.6a35 35 0 0021.3-7c5.6-4 11.9-7 17.3-11.1 3.2-2.4 6.6-4.8 9-8 2.6-3.7 4.5-8.1 5.3-12.8 1-5.3.7-10.5-.3-15.7zM290.3 79.5c-1.3-.5-2.8-.7-4.2-1-1.7-.1-3.4 0-4.9-.3-2-.6-1.7-3-2.9-4.4-.8-.9-2.1-1.1-2.7 0-1 1.6-2.3 3.3-2.8 5.1-1.4 5.9 4 12.2 10.9 12.2l4-.9c2.8-.5 4.7-2.5 6.3-4.8.5-.8.6-2.8-.2-3.5-1-1-2.2-1.8-3.5-2.4zm-26.1 26.3c-1 .5-1.8 1.2-2.5 2-1.5 1.4-1.7 2.8-1 4.8 1 2.7 2.9 4.6 5 6.3.4.4 1.2.5 1.7.7a7.2 7.2 0 005.6-3.1c1-1.6 1.2-2.5 0-4-2-2-3.8-4.2-5.8-6.3-.8-.8-2-1-3-.4zm273.4 122.6c-2.4-4.5-3.9-9.4-5.3-14.2a65.1 65.1 0 00-17.6-31.2c-2-3.6-6-5-8.4-8.3-8-5.7-17-8.4-27.4-9.1-.3 0-1.2 0-2 .2-.7.1-1 1.5-.6 1.8 1.3 1 2.6 2.2 4 2.8 3 1.2 5.3 3 7.6 5 2 1.9 4.3 3.3 6.8 4.5 5 2.6 9.6 5.8 13 10.5a62.7 62.7 0 0110.4 21.9c2 8 4.4 16 8 23.6 1.5 3.2 3.5 5.6 6.6 7.3.9.5 1.3.2 1.6-.6.3-.9.6-1.8 1.6-1.8 1.5 0 1.6-1.2 2-2.2.5-1.5 2-2.7 1.4-4.6-.5-1.9-.8-4-1.7-5.6zm-513.3 48v.5l.3-1-.3.5zm.8-6l-.4.9.6-1.4-.2.5zm1.7-3.2s0 .5.2.5c.3 0 .3 0 .3-.4.1-1-.2-1-.5 0zm.1-1.8c.3 0 .3 0 .2-.5.1-.4 0-.5-.2 0-.2.4 0 .4 0 .5zm1.5-1.3c-.3 1-.2 1 .3 0l.5-.8H29c-.4 0-.4 0-.6.8zm9.6-17.7l.2-.5v-.4l-.2.4c-.3.4-.1.4 0 .5zm17.9-29l-.2.5c.1 0 .2 0 .5-.3l.2-.4-.5.3zm3.4-4c-.3.4.4.2.7-.1l.2-.4c-.2-.1-.6.2-.9.5zm2-2.1l.7-.6.6-.8-.9.6c-.6.7-.6.7-.5.8zm56.5-37.5l-.4.3.5-.2.9-.2-1 .1zm2.8-.8l.1.3c.2.2.2.2.5 0 .4-.4.3-.6-.6-.3zm22.9-5.7h.5l.5-.2h-.6c-.5.1-.4.2-.4.2zm4.3 0v-.1c.3-.3-.2-.2-2 .4-1.9.6-1.8.8.6.2 1-.3 1.5-.3 2-.3 0-.1-.1-.2-.6-.1zm1.2-1.8c-.4.1-.4.2-.3.3.1.3.6.3 1 .1.5-.2-.2-.5-.7-.4zm2 .8c1.4-.5.4-.4-1.5.1-.5.2-.4.3.1.3h.6c.5 0 .6.2.7.3-.4.3-.4.3.5 0 .5-.2.4-.3-.1-.3-.6-.1-.7-.2-.2-.4zm1.2-1c-.6 0-.6-.2-1 0-.5.3-.4.4.6.3 1-.1 1-.1.4-.3zm2.8 0l-1 .2h.5c1-.2 1-.2.5-.2zm-.4.4h.6l.5-.1h-.6l-.5.1zm-.2-2.5c-.5.1-1 .3-.9.4-.4.2-1 .3-1 .2-1 0-2.3.8-1.7.8l.6.2v.1c.5 0 1-.3.9-.5.3-.4.3-.4.8-.5l1.5-.3c.4-.2.3-.5-.2-.4zm-.1 1.8h1c.6-.1.5-.2-.6-.2-.6 0-.6 0-.4.2zm1-2.1s.5-.2.4-.3l-1.5.3c-.4.2.2.3 1.1 0zm.8.4c-.5.1-.5.1-.4.2h.5l.5-.1h-.6zm2.8 0l-1 .1-.5.1c0 .1 1.2.2 1.7 0l-.2-.2zm189.3 4.5v.1h1l-.6-.2-.4.1zm30.3-9.8c-.5 0 0 .1 0 0zm1.6.4c.5 0 .5 0-.6-.3h-1c.5 0 1 0 1 .2l.6.1zm2 .7c.5-.2.5-.3-.5-.4h-.5l.5.4c0 .2 0 .2.5 0zm13.6 1.8c.5.1.5 0 .4 0 0-.2-.5-.5-.5-.5l-.5.1.6.4zm1.6 1.6l-.5-.2h-.5v.1l1 .1zm-.5.6s.5 0 .5-.2c0 0-1-.3-1.5-.2-.5 0 0 .3 1 .4zm-.6-1.5c.5.4.5.4 1 .3 1 0 1-.2 0-.5-.5-.2-1.5-.1-1 .2zm12 1.3h.4l-.5-.4-.5.1.5.3zm12.8 3.8c1 .4 1 .3.5 0 0-.2-.5-.3-1-.5-.5 0-.5.1.5.5zm12 4.4l1 .1c-.4-.3-.9-.5-1.4-.5l-.5.2 1 .2zm1 .9c.4.4.4.4 1 .2v-.3c.5.1-.5-.3-1-.3s-.5 0 0 .4zm2.4.8l-.5-.3c-.5-.2-.5 0-.5 0l.5.2.5.1zm5.7 2.1l-1-.5-.4-.1.5.2 1 .4zm21.8 13.6l.4.3-.3-.5c-.4-.3-.5-.2-.5-.2l.4.4zm4.1 3.3c.4.4.5.1-.3-.6l-.4-.3c-.4-.3.3.6.7 1zm1.8 1c-.8-.7-.8-.6-.1.3v-.3zm14 14.4c-.9-.4-.7.2.1.8.4.4.4.3.5.2-.3-.4-.3-.5-.2-.6 0-.2-.3-.5-.4-.4zm1.6 2.1c.8.7.7 0 .1-1-.3-.5-.3-.5-.5-.1-.4.5-.4.5.4 1.1zm-3.6-5.5zm0 0zM287.4 336.1h0zm-3.1.9c.1 0 .1-.1 0-.2h-.1c-.1 0-.1.2.1.2zm-.8-.2h-.4v-.1h-.2c0 .3.3.5.5.4l.3-.2h.2c0-.2-.2-.2-.4 0zm-4.7-.5c-.2.1-.2.2.2.2.2 0 .3-.1.1-.2h-.3zm-.4.2h0zm0 0c-.1 0-.1 0 0 0zm-4.9-.1v.2h.5c0-.3-.3-.3-.5-.2zm-1.5.3v.3h.1v-.3zm-.4 0h.1c.1 0 .1 0 0-.2l-.1.2zm-1.9.1v.1h.1zm-2.3 0c-.2 0-.2 0 0-.2s.2-.2 0-.2h-.4l-.1-.2c-.1 0-.1.1 0 .2.2 0 .2.1.1.2-.3.3-.2.5.4.4.2 0 .4-.1.2-.2 0 0 0-.1-.2 0zm-1 0h.1l.1-.1h-.1l-.1.1zm-.5 0c-.1 0-.2 0-.1.2v.3h-.2c.1 0 .2.2.2 0 .2-.2.2-.5 0-.5zm-1.3 0s0 .2.2.1c0 .1.2 0 0-.2l-.2.2zm-.2.7l-.1.1.1.1.1-.1-.1-.1zm-.8-1h-.1v.2h.2l-.1-.2zm-.3.4a285 285 0 000 0zm-.4-.2c-.3 0-.3.1-.1.2 0 .1.5 0 .4-.2h-.3zm-2.4 1l-.1.2h.2l-.1-.2zm-3.1-.5c.1 0 0-.1 0-.2h-.1c-.1.1-.1.2 0 .2zm-1-.1l-.4-.3-.3-.2v.2c0 .2.1.3.2.2h.3c.3.3.4.3.4.2 0-.2 0-.2-.2-.1zm-5 .2v.2h.2v-.2h-.2zm-3.8.6h-.1v.2h.2l-.1-.2zm-8.4.2h-.2s0 .2.2.2 0-.1 0-.1v-.1zm48.8-1.3c0-.1 0-.1 0 0z"/></svg>