<svg xmlns="http://www.w3.org/2000/svg" viewBox="0 0 453.8 331.2"><path d="M1 66.1zM.6 69c.2.3.5.5.8.6l.6-.6c.3-1.2 0-2-1-2.7-.5.8-1.2 1.6-.4 2.7zm5.7 8v.2h.2l-.2-.2zm-.6-.6l.6.6V76l-.6.2zm184.4-4l.5-.6-.7-.1.2.6zm52.7 84.4c-1-.3-2.5 0-3-.7-2.1-2.5-6.1-1-8-3.8-.2-.3-1-.2-1.5 0-1.6.5-3.1 1.2-4.4-.6l-.6-.2c-.4.2-.9.4-1.3.8l-3.8 3.8c-1 1-1.4 2.1-.7 3.5.5 1 2 1.2 3.9.3l4.8-2.6c1.7-.8 2-.7 2.7 1.1.1.3.1.7.3 1 .7 1.5 1.5 1.8 3 1l1.3-1c.7-.5 1.4-.4 2 .1l1.5 1.6c2 1.7 3.5 1.5 5-.5 1.2-1.4.6-3.3-1.2-3.8zm27.7 18c-.6 0-1-.2-1.6-.3a4 4 0 00-4.1 2.8c-.2.6-.2 1.4-.2 1.4-.1 4 .7 4.5 3.9 3.4a24.4 24.4 0 002.5-1c1.4-.7 3.1-1.5 3-3.4-.2-2-1.8-2.5-3.5-2.8zm-80.5-11c-2-.2-6.4 1.5-6.9 2.3-.5 1 1.6 3.9 3.7 5 1 .6 2 1 3 1.3 2.3.6 4.7-.5 6-2.7.3-.3.3-1 .1-1.5-1.3-2.5-3.2-4.4-5.9-4.4zm145.3-2.3c-.4.3-.8 1-.7 1.3.1.7.5 1.3 1 1.7.4.4 1 .5 1.5.5 3.5 0 6.7-.6 9.3-3.5l-2-1c-3.2-1.5-6.2-.6-9.1 1zM189.1 69l-.1-.3-.2.2h.3zm218.2 155.4c.7 1.6.6 3.1-.6 4.5a16.5 16.5 0 01-5.5 4.4c-8 4-16.6 6-25.2 8.5-9.5 2.7-19 5.6-28.6 8.5-1.5.5-3 1.2-4.5 1.9-1.3.5-1.9 1.4-2 2.8-1.2 7.6-6.3 8-11.4 4.1-1-.8-1.8-1.8-2.7-2.6-1.4-1.4-2.3-1.5-3.8-.3-2.4 2-5.1 3.5-8 4.5-2.8.9-5.6 1.6-8.6 1.6s-3.2.2-4.1 3.2c-.8 3-1.4 6-2 9 0 .6.3 1.5.8 2l6.8 6.9c2.5 2.4 5 4.7 7.4 7.3 4 4.4 6 9.9 7.7 15.4l.2.5c-.9 4.2 1.7 7.2 3.7 10.4l1.6 2.8c1.5 3 1 5-1.5 7.2a10.7 10.7 0 01-5.2 2.8c-4.5 1-8.2 0-10.7-4.3-2-3.3-3.7-6.7-5-10.3-.9-2.7-1.7-5.5-3.1-7.8l-.7-.1c-.2 0-.2.3-.2.5l-.5 10.3c0 1.3.3 2.6.2 3.8 0 1.6.6 3.4-.7 4.7-1.6 1.6-3.2 3-5.5 3.3-3 .3-5.8.5-8.7.4-3.6-.2-7.1-.4-10.8.4-3.1.7-6.5.4-9.7.4l-13.1.1c-3 0-4.8-1.4-6.1-3.7a15.7 15.7 0 01-2.6-8.2c0-1.4-.4-2.8-.6-4.3-2.2 1-2.6 2.8-3.1 4.5-.3.8-.3 1.8-.5 2.6-1.1 3.9-3 5.4-7 5.6-4.4.3-8.8.2-13.1.6-6.8.6-13.4-.6-20-1.2-3.8-.3-7.6-.5-11.4.2-4.7.8-7.3-1-8.1-5.6a17 17 0 01-.2-7.5c.5-2.2.3-4.6.4-8l-1.7 2.2a646 646 0 00-5.4 10.7 6 6 0 01-4 3.3c-3.7.9-7.4 1.7-11.2 2.4-2.6.5-5.3.9-8 1-4.4.3-7.3-3-6.3-7.3 1-5 3.5-9.1 7.3-12.4a173.3 173.3 0 015.5-4.5c3.7-3 6.8-6.5 9.4-10.5 2-3.1 4-6 7.2-8 1.2-.9 1.4-2 1-3.4-.8-2.4-1.4-4.9-2-7.4-1-4.4-2.3-8.7-3.2-13.2-1.6-7.2-3-14.5-4.3-21.8-.8-5-.6-10.1-.1-15.2l.4-5.4c0-2.2.7-4.6-.1-6.4-.9-2-3.8-1.5-5.7-2.4-4.6-2-8.6-4.8-12.1-8.2a69 69 0 00-16.4-11.6 39.8 39.8 0 01-11.8-9.5 36.2 36.2 0 00-8.8-7.3c-4-2.3-7.3-5.2-10.3-8.8-3-3.6-6.8-6.5-10.8-9-2.8-1.6-4-4.2-2.3-6.7 4.1-6 5.8-12.8 8-19.5 2-6.4 3.8-12.9 5.7-19.3a60 60 0 015-12.6c1-1.5 1.8-3.1 2.7-4.8l-2.3-2.4c-.6-.7-1.4-1.3-1.8-2-2-3.2-1.5-6 1.6-8a22 22 0 014.9-2.4c1.6-.6 2.3-1.5 2-3.2v-2.2c-.2-.4-.7-1-1.1-1-2.2 0-4.3-.2-6.2-1.7-.7-.5-2-.4-3.1-.3-4.5.2-9 .5-13.5 1-6.4.6-12.7.9-19 .7-3.3-.2-6.6 0-9.8.2a68 68 0 01-12.3-.1l-.1.1h-.2s0-.1-.1 0l-.2.2c-.1 0-.3.2-.2.3s.1-.2.2-.1l-.2.3c-.3.4-.4.5-.5.4 0-.2-.3 0-.3.3v.2l-.1-.1c0-.1 0-.1-.1 0v.2l-.1.1-.4.3-.3.2c-.2-.1-.2 0-.1 0 0 .2-.3.6-.7.8-.2 0-.3.1-.3.2h-.2c-.2 0-.2 0 0 0v.2c-.1 0-.1 0 0 0l-.2.2c0-.2-.1-.2-.2 0l-.2.2-.2.3-.4.2c-.2-.1-.3 0-.5.2v.1l-.3.1c0 .1 0 0 0 0l-.2.1c0 .1 0 .1-.1 0h-.1c-.1 0 0 0 0 .1s-.1.2-.3.1c0 .1 0 .2-.2.1l-.3.2h-.2l-.2.2s-.2 0-.2.2l-.4.1-.2.1h-.2c-.1 0-.1 0 0 0l-.2.1-.2.1h-.5v.2h-.5l-.4.1h-.1c0 .2-.1.2-.2.1l-.2.1-.1.1h-.3c0 .2-.1.1-.1 0l-.3.1-.1.1-.2.2-1.2 1c-1.8 1.8-3.6 2.8-6.2 2.4-1.2-.2-2.6.1-3.7.6-3.8 1.4-7.4 1.7-10.8-.8-.3-.2-1-.1-1.5 0-2.8.7-4.8-.3-6.3-2.7l.8-.3-.9-.7-2.6-4.7c1.1-1.9-1.9-3.2-.8-5.3.3-.5-.1-1.6-1-1.5-.4 0-.6 1-1 1.5-.3 0-.8-.2-.8-.3C-.6 62 1.2 56.9 4 55c.6-.3 1.3-.5 2-.5 1.4 0 1.5-.8 1.4-1.7 0-1 .2-1.8 1.1-2.3 2.7-1.4 5.4-2.9 8.2-4.2A87.5 87.5 0 0018 46l-.3-.2c0-.1-.1 0-.1 0 0-.2.1-.2.3 0v-.1a.3.3 0 01.2-.1c-.1.2 0 .3.1.1.2-.1.3-.1.2 0a106 106 0 012.2-1h.2c-.1 0 0-.1 0-.1h.1a44.1 44.1 0 01.7-.3h.2V44h.5c0-.1 0-.2.2-.3v.1l1.4-.4h.1l.2-.1.2-.1h.2a16.6 16.6 0 011.5-.4c2.2-.3 4.3-.7 6.4 0l.4.3c.2-.2.5-.1.5 0h.3l.4.1a.2.2 0 00.2 0l.8.1.6.2.7.2h.2c0-.2.7.1.6.3H37c-.1 0-.1.1 0 .1.1.1.2.1.4 0l.2-.1h.5l.1.2h.4l.6.3.6.2h.2l.2.2.4.1h.1l.2.1.2.2h.2s.1.2.3.2c.3.2.3.2.3.4v.3c.1 0 .2-.1.2-.3-.1 0 0 0 0 0l.3.2h.1c.2.2.2.1.2 0 0 .2.2.3.9.8l.6.4h.1c0 .2.1.3.2.3s.2 0 .1.1l.1.2c.1 0 .1 0 0 .1v.3h.1c0-.1.2 0 .2 0h.2l.2.1.1.1v.1h-.2s-.1-.1-.2 0c.2.2.6.3.7.3 0 .2 0 .3.2.4l.4.3c.2.3.2.3 0 .4-.2.1-.2.1 0 .1h.2l.1.2.3.3v.5c0-.1.4.2.5.5 0 .2 0 .3.3.4.1.1.1.1 0 .1v.4s.2.1.2 0c.1.2.1.2 0 .2-.2 0-.1.2-.1.2s.2 0 .2.2l.1.3c.2.2.1.2 0 .2h.1v.3l.1.2.1.1.1.4.1.2v.1c-.1 0 0 .5.2.7.1.2.2.5 0 .6v.2c.2 0 .2.1.1.1v.2l.2.3c0 .4.2.9.3.8 0-.1 0 0 0 0v.1l.2.1c.2.1.1.2 0 .1 0 0-.1 0 0 .1s-.1.1-.2.1v.8c-.1 0-.2 0-.1.2v-.1c.1-.1.2-.2.3.2v.6c0 .1 0 .3.2.3v.2c-.1 0-.2 0-.1.2.1 0 .1.1 0 .2v.4a1.1 1.1 0 000 .2h11.4l17.4-.7c4.5-.1 9 0 13.5-.7 3.6-.5 7.3-.5 10.9-.5 3 0 5.8-.7 7.7-3.2 2.2-2.7 5-2.7 8-2 1.2.2 2.5.6 3.5 1.3 4 2.9 8.5 2.7 13 2.7l30 .3c6.8.1 13.6.3 20.5-.2 2-.2 3.1-.8 3.6-2.7.4-1.8 1.5-2.7 3.4-2.7.8 0 1.4-.7 1.1-1.5-.3-1.2 0-2 .9-2.8 1.7-1.6 3.3-3.4 6-3.2.4 0 .8 0 1-.2 1.4-.9 2.7-1.4 4.1-1.8.3 0 .3 0 .3-.2 0 0 0-.2-.2-.1l-.2-.2c0-.2-.1-.1-.2 0a11.9 11.9 0 000-.2l.3.1c0 .1 0 .1 0 0h.2c.1-.1 0 0 0 0 0 .1 0 .2.2.1s.2-.1.1 0c-.1.2-.1.2 0 0 .2 0 .5.2.5.3l.7-.1.1-.3h.2c0 .1.1.2.3.1h.1v.1a24.9 24.9 0 01.5-.2c-.2 0-.2 0-.1-.1v-.2c-.1-.2 0-.2.2 0a.2.2 0 00.1.2c.1-.2.5-.2.7-.1H210l.1-.1v-.2-.3h.5l.2-.1h.1l.3.4c0 .2.2.3.3.3h.1c-.1-.3 0-.3.1-.2l.1.1v.1h.1c.1 0 .1 0 0 0v-.4l.1-.1v.1c.1.2.2.3.4.1.1-.1.1-.1 0-.2-.3-.1-.2-.3 0-.3s.2.1 0 .2c.2.1.3 0 .2-.2h.2c.2-.1.2 0 0 .1 0 .1 0 .2.2.2a.3.3 0 01.1 0l.3-.1c0-.2.2 0 .1.1v.2h.3c.2-.2.2-.2.4 0h.2c0-.2.1-.2.3 0h.2l.2-.1v-.1c.2 0 .4 0 .4.2H216l.3.1c.1 0 .3 0 .3.2.2.2.3.2.4 0h.6l.3-.1h.3l.2.2h.4c0-.1 0-.1 0 0H219.3c0 .1.2 0 .2 0 0-.1 0-.1 0 0l.3.1a12.5 12.5 0 011.1.3 12.3 12.3 0 013.4 1.4c.2 0 .3.2.5.3v-.1c0-.2.6.3.5.4l.2.2.2-.1h.2l.2.2.1.1.4.1.5.4.6.3.2.1.1.2.4.2.1.1h.2c0 .2.1.2.2.3h.1l.2.3c.3.2.3.3.3.5 0 .1-.1.2 0 .2l.2-.2c0-.1 0 0 0 0l.2.2.1.1c.2.2.2.1.2 0 0 0 .1 0 0 0 0 .2.2.3.8 1l.5.5c.1 0 .2 0 0 .1s.1.2.3.2v.4c.2 0 .1 0 0 .1v.2l.3.1v.2h.3c.1 0 .2.1.1.2h-.1-.1l-.1-.1v.1c0 .2.4.3.5.4 0 .2 0 .3.2.4l.2.4c.2.4.2.4 0 .3-.2.1-.2.1 0 .2l.1.1.1.1.2.4v.4c-.1.1 0 .2 0 .1s.3.3.3.6l.2.4c.2.1.2.1.1.2-.1 0-.1.3 0 .4.1.1.1.1 0 .1-.2.1-.2.2-.1.2 0 0 .1.1 0 .2l.2.4v.7l.1.1v.7l.1.8v.6c-.1 0-.1 0 0 .2V61.3h.1v.2l.2.1c.1.2 0 .2 0 0l-.1.2h-.1l-.2.5v.3l-.2.1h.1c.1-.1.2-.1.2.3l-.1.3v.2c-.1.1 0 .3 0 .4.2 0 .2 0 0 .1v.5h-.1v.3l-.1.5-.1.4c-.1 0-.4.7-.3.8v.4c-.2.2-.1.2 0 .2h.1l-.1.3-.5.5v.3l-.2.3v.4l-.2.5c-.2.1-.2.1-.1.2l-.1.1c0 .1-.1.1-.2 0l-.2.2c-.2.1-.2.1 0 0a.7.7 0 01.1 0 .5.5 0 000 .2c0 .1 0 .1-.2 0 0 0-.1.1 0 .2l-.2.3-.2.1c.1.2 0 .4-.1.3v-.2l-.1.2c0 .2 0 .3-.2.4l-.1.1s0 .2-.3.4c-.1.2-.2.2-.1.3l-.2.1h-.1c0-.2-.1-.2-.1-.1l-.3.2c-.1 0-.3.1-.2.2s.1-.1.1 0l-.2.2c-.3.3-.5.4-.5.3 0-.2-.3 0-.4.3v.1h-.2c0-.2 0-.2 0 0-.2 0-.2 0-.1.1l-.2.1-.4.2c-.2.2-.3.2-.3.1-.1-.1-.2 0-.1 0 0 .2-.4.6-.9.6l-.3.1h-.1c-.2 0-.2 0-.1.1.1 0 0 .1 0 .1-.1 0-.1 0 0 .1h-.2-.3l-.1.2v.1l-.4.2c-.1.2-.4.2-.3.1l-.1-.1c-.1 0-.3 0-.4.2l-.2.1h-.2c0 .1 0 0-.1 0 0-.1-.1 0-.2 0 0 .2 0 .2 0 0h-.2v.1c0 .1 0 .2-.2 0 0 .2-.1.2-.2.2h-.4c0 .1 0 .1-.2 0l-.4.2-.5.2-3 .5c-2.2.2-4.3.7-6.4 1.3-4.5 1.3-9 1-13.5.8-2 0-2-.3-2.7-2.5-.3-1-.7-2-.8-3-.2-.9-.3-1.2-1.3-1.3-1 0-2-.4-3-.7-.2-4.9-.2-4.8-5-4.6-7.3.4-14.5.8-21.7 1-1 .1-1.9.2-2.8 0-6.8-1.5-13.7-.7-20.6-.8-3.2 0-6.4-.4-9.7-.7-1.2 0-1.6.7-1.8 1.6v2.7c0 3.4 0 3.3 3.2 4.2a20 20 0 015.4 2.4c2 1.3 2.2 3.7 1 5.8a8.4 8.4 0 01-5.6 4c-.5.2-1.3 1-1.2 1.5.5 7.6.2 15.2 1.5 22.8.4 2 .5 2 2.5 1.7l3.7-.5c3.9-.3 7.3.5 9.6 4 .1.3.5.5.7.7l6.4 6c2.6-1.2 4.7-3.3 7-4.9 2.8-2 5.8-3 9.2-2.7 3 .2 5.9.7 8.7 2.3a35.1 35.1 0 0113.4 15.4l.8 2c2 5 2 5.1 7.4 4.9l4.3-.4c4.5-.8 9-1.3 13.6-1.2 2.3 0 2.6-.3 3.3-2.7.6-1.7.2-2.2-1.7-2.3h-3.9c-1.2-.2-2.5-.3-3.6-.8-2.6-1-2.9-4-.6-5.6.7-.5 1.6-.8 2.4-1.2 3.5-1.6 7-3.1 10.3-4.8 1.6-.8 3.1-5 2.5-6.7-.2-.5-.7-1-1.1-1.1-.7-.3-1.4-.3-2.1-.4-1.1-.2-2.2-.2-3.3-.5-4-1.1-5.1-3.7-3.2-7.4 1.7-3.2 3.2-6.5 6.2-8.9.8-.6 1.3-1.7 2-2.6a26 26 0 001.6-2.8c2.3-4.6 6-6.4 11-6.2l2.8-.1c2.2-.2 2.5-.4 2.1-2.6a20 20 0 011-10.2c.7-2 1.8-4 3.8-5 1.2-.7 2.2-.7 3 .2 1 1 1.8 2.3 2.6 3.5.5.8.7 1.7 1.1 2.5 1 1.7 1.8 2 3.5 1.3l2-.8 13.6-4c1.4-.3 2.9-.3 4 1 1.4 1.4 1.5 2.2.4 3.7l-3.6 4.8c1.7.7 3 0 4.4-.4 3.3-.8 6.6-1.7 10.1-1.6 3.3.2 6.4 2.6 7 5.8.4 1.5 0 2.8-1 4l-2.2 3-2.4 3c3 .8 5.8 1.6 8.5 2.5a12.7 12.7 0 013.4 1.7 7 7 0 012.1 8.8c-.7 1.5-2 2.2-3.4 2.5-3.6.8-7.1 1.8-10.8 1.1-2.8-.4-5.4-.3-7.6 1.9l-.5.3c-1 1-2.6 1-3.8 1.7a3 3 0 00-.8.5c.1 0 .3-.1.2-.2h.4c.2 0 .2 0 0 .1h-.2v.5H281v.2l-.3.2h-.1l-.2.2h.2l-.1.1h-.1c0 .1 0 .1.1 0h.4-.1c-.2.1-.3.2-.1.2h.4s-.1 0 0 0c-.2 0 0 .1 0 0l.2.1c0 .1 0 .1-.2 0-.1 0-.2 0-.1.1v.1c.2 0 .2.2 0 .2h-.2c.2.2.2.2.1.3.1 0 .1 0 0 .2l.1.1h.1v.2h-.1v.1c.1 0 .2 0 0 .1v.2c.1 0 0 0 0 .1-.3.1-.2.2 0 .1v.1l.1.2.1.1v.1c.1 0 .1 0 0 0v.1l.1.2c0 .1 0 .2.1.1v.2h-.1v.4h-.1c-.1 0 0 .1.1 0 .2 0 .2 0 0 0v.1c-.1 0-.1 0 0 .1.1 0 .1.2 0 .2v.4s.2.3 0 .3v.3a.4.4 0 010 .3h.1c.2 0 0 .3 0 .3h-.2-.1l.1.1a.5.5 0 00.2 0V121l.1.1v.3a.8.8 0 00.1.2v.4h.1v.4l-.2.2h-.2.3s.1.1 0 .1v.1h.2v.7c.2 0 .2 0 0 .1s0 0 .1 0v.2h-.2c-.2 0-.2.2-.2.2H281.7l.1.1s.1 0 0 0l-.1.1h-.1-.1l.4.1c-.1.1-.2.2 0 .2v.2c0 .1 0 .1-.2 0-.2.1-.2.1 0 .1l.1.1.1.2-.2.1.2.3.1.1c.1.1.2 0 .1 0l-.1.2h.1-.2v.1s.1 0 0 .1l.1.1c.1 0 .1 0 0 0v.2l.1.1v.3h.1v.4c.1.1.2.2 0 .3V127.8c0 .2.1.4.2.3v.1h.2c.1 0 .1 0 0 0l-.1.1h-.1l-.2.3v.1s-.1 0 0 0l.2.1v.2c-.1.1 0 .2.1.2s.1 0 0 0c0 0-.1.1 0 .1V129.8v.4c0 .1 0 .1.1 0h.2l-.1.2c-.2 0-.2.2-.2.2v.2h.2V131.1c.2 0 .2 0 0 0h.1s.1 0 0 .1l-.2.2a1 1 0 01.1 0c.2 0 .1 0 0 0s-.1.1 0 .1v.1c.2 0 .2.2 0 .2l.2.1.1.2v.2h-.2v.2s0 .1 0 0h.1l.1.1v.2s-.2.2 0 .2l-.1.1c0 .1 0 0 .1 0v.4c-.2 0-.2 0 0 0 .1 0 .2.2.1.4v.2c0 .1 0 .1 0 0h.1v.1s-.1 0 0 .1v.1h.1l.1.2c.1 0 .1.2 0 .1h-.1c-.1.1 0 .2 0 .2h.1v.2c-.1 0-.1 0 0 .1h-.2c0 .1.1.1.2 0 .1 0 .1.1 0 .2v.5l.1.2v.1h-.1c-.1.1-.1.1 0 .1v.2c.1 0 0 0 0 .1-.2 0-.2 0 0 0v.1a.2.2 0 000 .3l-.1.1c-.1 0-.1 0 0 0v.2c-.2 0-.2 0 0 0v.2c-.2.1-.1.1-.1.2v.1c.2 0 .2 0 0 0v.1c-.1 0-.1.1 0 .2h.2-.1c.5.4 1.2.4 2.1.3l13-2c1-.2 2-.4 3.2-.4 6 .4 11.9-1 17.8-1.8 1.6-.2 3.4-.6 4.8 0 2.1.7 3.8.2 5.7-.7 5-2.4 10.1-4.8 15.3-7.1 4.8-2.1 9.9-3.6 15.1-4.3 1.8-.3 3.3 0 4.7 1 4 2.7 7 6 8.9 10.6 2.3 6 4.3 12 5.2 18.3.2 1.4.6 2.8 1 4.2a29.8 29.8 0 011.3 9.2l.2.2h-.2v.2c.2.1.2.2 0 .1v1.1c.1.1.2 0 .2 0l.2.1c0 .1.1.1 0 .2v.4l-.2-.1-.2-.1.1.1c.2.2 0 .5-.2.6v.5c0-.1 0-.1 0 0l.3-.5c.1.2.3.3.4.3.1 0 .2-.4 0-.4 0-.2.2-.2.2-.2h.2c.2-.2.2 0 0 .2a.2.2 0 000 .2l.2.5v.1l.2.2h.4s.1 0 0 0l.1.2v.2l.3.1-.3.5c-.1.1-.2.2-.1.4 0 .2 0 .2 0 0 .2-.1.3-.1.2.1v.1h-.2l.1.1h.5-.1c-.2.2-.2.3 0 .3s.2 0 .3-.1c0-.3.1-.3.2 0 0 0 0 .1-.1 0 0 .2.1.3.2.2 0-.1 0-.1.1 0 .2.2 0 .3-.1.2-.2 0-.2 0-.1.1v.1c0 .2 0 .2.2.2s.2.2 0 .2l-.2.1.2.2c.2.1.2.1.2.4v.1c.1 0 .2 0 .1.3l.1.2c0 .1 0 .1.2 0 .1.2.2.4 0 .4v.2l.2.1s.2 0 0 .3l.1.2c.2 0 .2.2.1.4s0 .3.2.2v.2c0 .1 0 .2.3.3l.2.2.1.2v.4l.3.2v.2c0 .2.2.2.2.2v.4l.1.2.1.3c.2.2.2.2 0 .2 0 .1 0 .3.2.1.1 0 .1 0 0 0v.4c.3.1.4.4.3.5v.2c.2.1.2.2.2.3l.1.2c.1.1.4.6.3.7l.2.5.2.6v.3h.1c.2-.2.3.4.2.5h-.1v-.2l-.2.1c0 .2 0 .2.2.3h.3v.2l.2.2v.2l.2.2.2.6.3.5v.1l.1.2.2.4v.1l.1.1v.2l.2.1v.4c.2.2.1.2 0 .4v.2l.2-.1c0-.1 0 0 0 0l.1.2h.1v.1c0 .2 0 .2.1.1 0 0 .1 0 0 0 0 .1 0 .3.4 1 0 .2.2.4.3.5 0 0 .1 0 0 0s0 .3.1.3V189c.1 0 0 0 0 .1v.2h.1v.2h.3c0 .1.1.2 0 .2h-.1v.3h.3v.4c.2 0 .3.3.3.3v.3l.1.3.2.2v.3l.1.2.2.4.3.3c.1 0 .1 0 0 0v.4h.2v.1h-.1v.1l.1.2.2.3c.1 0 .1 0 0 .1h.1v.3l.2.2h.1l.2.5.1.2h-.1s.2.6.4.7c.1.2.3.5.2.6v.2s.1 0 0 0l.1.2.2.4c.1.3.3.7.4.6 0-.1 0 0 0 0 0 .1 0 .2.1 0l.2.1c.2.1.1.1 0 .1 0 0-.1 0 0 .1l-.1.2v.7c.1 0 .2-.1.3.2l.1.3v.2h.1c0 .1 0 .2.2.2s.2 0 .1.2c0 0-.1.1 0 .1s.1.1 0 .2l.2.3.1.4.1.3.3.7.1.3c0 .1.1.1.2 0h.1v.8l.2.2v.2h.2l.1.3.2.3c.1 0 .1 0 0 0 0 .2 0 .2.1.1 0 0 .1 0 0 .1v.4c0 .1 0 .1 0 0v-.1l.2.1v.1c0 .1-.1.1 0 .1v.2l.1.2c.2 0 .3.2.1.2l.3.3s0 .1 0 0l.3.4.1.2v.1c-.2.1-.2.2-.1.2v.2l.2.3v-.1-.1l.2.2c.2.3.2.5 0 .5 0 0 0 .3.2.3l.1.1c-.1 0-.1 0 0 .2 0 .1 0 .1 0 0h.2v.2l.1.3v.3c-.1.1 0 .2 0 .1.2 0 .5.4.5.8 0 .1 0 .3.1.2v.2c0 .2 0 .2 0 0s.2 0 .2 0v.1l.2.1h-.1c-.1 0-.1.1 0 .2 0 .1 0 .2.2.2 0 .1.2.1.2.3.2.1.3.4.2.3h-.2c0 .2.1.3.3.5 0 0 .1 0 0 0l.1.3c.1 0 0 0 0 0l.1.2c.1 0 .1 0 0 .1v.1c.2 0 .2 0 .1.2.2 0 .2.1.1.2 0 .1 0 .3.2.4v.2l.1.1.2.3.2.3v.4c0 .1 0 .1 0 0l.1.2v.2c.2.1.2.2.1.3-.1.1-.1.1 0 .2h.1l.1.5v.3l.1.2c.1 0 .1 0 0 .2 0 .2 0 .2.2.2h.1v.3c.2.1.1.1 0 .2l.1.3v.1h.2c.1 0 .1 0 0 .2v.1l.1.2h.2v.3.3c.3.2.5.8.5 1h-.1c0-.2-.1-.2-.2-.3v.2l.1.4c.1-.2.3-.2.4 0l-.2.3v.1l.2.1v.1l.1.3c.5 1 1.3 1.8 1.7 2.8zM206.5 43.5h.1v-.2c-.3 0-.3 0 0 .2zm198 176l.2.3v-.1c-.1 0-.1-.2 0-.2h-.2zm-23.2-51.8v.2h.1v-.2zm-101.8-63.5c-.5.4-.7 1.2-.8 1.9l.3 3.3c3-1.5 5.6-2.2 8.4-2 2 .2 4 0 6-.2 2.1-.2 4.2-.8 6-2.1.6-.5.8-1.2.3-1.9a9.4 9.4 0 00-5.6-3.1c-5.6-1.2-10.3.8-14.6 4.1zm-6-16.4c4 3 4 6.9 4.4 10.6.6-.1 1-.1 1.2-.4L290 87.4c.7-.8 1.2-1.8 1.7-2.7 0-.3-.4-1-.7-1.2-.5-.2-1.1 0-1.6 0a39 39 0 00-15.9 4.3zm-18.9-4.2c-.2.2-.3.7-.3 1 0 .3.4.6.7.6.5.2 1 .2 1.6.2h9.3v.2c1.2.2 2.7 1 3.7.5 1.6-.8.2-2.6.5-4l.5-3.7c.2-1.1-.5-1.3-1.2-1.1-1.5.2-2.9.5-4.2 1-3.8 1.4-7.6 2.5-10.6 5.3zm-4.7-1.4c2.1-1.4 3.4-3.1 4.8-5l-3.4-4.7a12.8 12.8 0 00-1.4 9.7zm-17.5 27.4c2 .4 2 .9 1.8 3.5l.1 2.7c.2 2.4.2 2.4 2.3 2.8 3 .4 6.2.8 9.1 1.5a15.5 15.5 0 0018.5-10.2c1.1-3.5 2-7 2-10.7 0-.2.3-.6.5-.6.3 0 .8.2 1 .4a8 8 0 011.6 4.6c0 2.9.2 5.8 0 8.7-.7 5.2-2.2 10.2-5.4 14.6a17 17 0 01-10.6 7c-4 .9-8.2 1.6-12.3 2-2.3.3-4.7 0-7-.1-1 0-1.9-.4-2.7-.2-.5.1-1.2.9-1.3 1.4 0 .5.5 1.4 1 1.6.8.3 1.8.2 2.7.2h15.8v.4h16.8c2.5 0 3.3 0 3.8-3.5.4-2.5.5-5 1.2-7.4a30 30 0 001.2-9.2l-.4-20.6c0-1.3-.3-2.5-.4-3.8-.1-1.2-.8-2-2-2.3-3.3-.8-6.6-1.7-10-2.2-3.6-.6-7.2-.7-10.8-1.3-3.7-.5-7.5.7-11.3-.5-1.5-.5-2.7.4-3.5 1.9-.9 1.7-1.7 3.6-2.7 5.3-.7 1.2-1.4 2.9-2.5 3.5-2.7 1.4-3.7 3.8-4.6 6.4-1 2.6-.7 3 2.2 3.2 2 .2 4 .4 5.9.9zm-101-29v.3l.8-.4-.1-.3-.8.3zm-11.7-9l.4 1.1c.4 1 1.3 1.2 2.2 1 1 0 1.6-.8 1.7-1.8v-5.4h.3V62c0-1.9-.5-2.8-2.2-3.3l-7.3-1.9c-.3 0-.8 0-1 .3-1.3 1.7-2.7 3.3-3.8 5.2-.7 1 0 2.4 1.4 2.8l1 .3c4 .2 6.3 2.5 7.3 6.2zm-10 15.2c1.5-.3 3-2.8 2.5-4.3l-.4-.3c-1.1.3-2.3.5-3.3 1-.8.5-.7 2.1 0 3 .3.3.8.4 1.1.6zm57.6 107v-.4-.3-.5l.2-.6v-.3l.2-.3c.1 0 .1 0 0-.1v-.2l.1-.4c0-.2 0-.4.2-.5.2 0 .2 0 0-.2v-.3l.3-.7.2-.5a1.8 1.8 0 000-.2l.1-.4v-.3-.3l.1-.3.1-.3.1-.7v-.3l.2-.7v-.2c.2-1.5.1-3-1-4.5-.8-1.2-.6-3.2-.9-4.7.2-1.5.2-3 .6-4.4a276.4 276.4 0 013-11.5c1.7-6.2 4.9-11.7 8.6-16.9 1-1.2 1.9-2.1 3.5-2.2 3.3-.2 3.3-.2 2.4-3.4-1-3.9-2-7.7-3.3-11.5-1-3.2-2.4-4.1-5.6-3.7-4.5.7-9 1-12.3 5-.6.9-1.7 1.4-2.5 2-1 .7-1.4 1.5-.9 2.8.7 1.6 1.4 3.3 1.8 5 .3.9 0 1.8-.2 2.7-.1.7-1.4 1-1.7.4-1-2-3-3-4.6-4.5-3.1-3-6.3-5.9-8-10.1a11 11 0 00-11.8-6.8c-1.2.1-2 .7-2.2 2 0 1 0 2.2-.2 3.2-.5 2-2 2.9-4 3.2-1.2.2-2.4-.8-3-2.5-.2-.5-.4-1-.4-1.6-.5-4.3-1.4-8.6-1.3-13 .2-3.6-.3-7.2-.4-10.8 0-.4 0-.8-.2-1-2.3-2.3-1.4-5-1.1-7.7l.6-8c.1-1 0-1.9-1.3-2-1.2-.3-2.4.2-2.7 1.1-1.7 6.2-4.8 11.7-7.9 17.2-1 1.8-1.9 3.6-2.5 5.4-2.4 7.6-5 15.2-7.2 22.8-1.6 5.6-3.2 11.2-5.6 16.5-.5 1.1-.7 2.4-.9 3.6-.2 1.7.2 3.1 1.7 4.3 2.1 1.7 4.2 3.5 6 5.5 2.8 3.2 6.2 5.6 10 7.4 3 1.5 5.6 3.4 7.8 5.7 4.5 4.8 10.1 7.7 16.1 9.8 3 1 5.7 2.4 8.3 4 5.4 3.3 11 6.5 16.6 9.3 3 1.6 4.2 2 4.9 1zm6.8-8a2.1 2.1 0 00-.5.1h.1l.1.3v.2c0-.2 0-.3.2-.2h.1v-.3zm8.5 85.6c0-.2 0-.2-.1-.1l.1.7a.3.3 0 000-.3v-.3zm112.8 9c-1.4-1.7-1.8-1.9-3.6-.9-1.3.7-2.7 1.3-3.6 2.4-1.9 2-4 3-6.7 3.2-.9.1-1.7.5-2.6.8-7.7 3-15.7 4.3-23.9 4.5-10 .3-20 .6-29.9.6-5.2 0-10.4-.2-15.6-1.1-9.1-1.6-18.3-2.8-27.5-4.2-1.6-.2-2.7.2-3.6 1.6-2.8 4-5.5 8.2-8.5 12a93.6 93.6 0 00-9.4 14.6c-.5.9-1.4 1.7-.7 3l1.5.4c2.3.5 4.7 1.7 6.8 1.4 2.4-.4 2.3-3.8 4-5.4l.8-.8 4.1-5.8c1-1.3 1.7-2.7 2.7-4 1-1.3 1.9-3.1 3.7-2.9 1 .2 1.8 1.6 2.7 2.5.9.9 2 1.6 2.7 2.6.6.8 1.2 2 1.3 3a94.3 94.3 0 01-.2 9.1c-.2 3 0 3.4 2.7 3.3 7.6-.3 15.2.7 22.8 1 4.8.1 9.4.4 14 1.5 1.4.3 3 0 4.3-.2 1.5-.1 2.2-1.2 2.5-2.5.2-.9.2-1.8.2-2.7-.2-4.1 2.4-6.8 5-9.3 2.2-2 5-1.6 7.1.7 2.5 2.5 3.3 5.5 3.9 8.8.9 5 1.2 5.3 6.2 5.6l2.2.1h27.8c1.2 0 2.5-.5 3.7-.7 1.7-.1 2.6-.9 3.1-2.5 1.4-4.1 2.8-8.2 3.3-12.6.3-2.1.9-4.3 1.5-6.3.4-1.3 2.2-1.6 3-.5 3.6 3.9 6.7 8.1 9 13 1 2.5 2.5 4.7 4.1 6.9.9 1 2 1.7 3.3 1.7 2 0 4 0 5.8-1.4l-.6-1.4a55.4 55.4 0 01-7.9-15.5 8.6 8.6 0 00-2.8-3.9c-7-5.8-12.9-12.8-18.7-19.7zm12.2-71.3c.7-1.8 1.4-3.9 1.1-5.7-.7-5 .1-9.8.3-14.7 0-1.7-.3-3-1.1-4.5l-7-11c0-.3-.5-.3-1-.6l-1.2 3c-2.5 6.1-6.5 10.8-12.6 13.7-4.3 2-8.6 4-13.2 5-8.1 2-16.3 3.2-24.6 1.4-10.2-2-17.6-7.3-21.4-17.3l-1-2c-4.8 2.1-9.7 3.5-13.9 6.6-1.3 1-2.9 1.5-4.4 2-4 1.4-8.1 1.8-12.3 2.4-4.3.5-8.5.3-12.8-.8-2.5-.6-5.1-.6-7.7-.7a.3.3 0 010 .1c-.1.4-.2.4-.2.3v-.5h-.2-.2l.2.3.1.2V186.6h-.1s-.2 0-.1.1v.4c0 .3 0 .3.1 0l.1-.1v.1a.9.9 0 000 .4v.2l-.1-.2c0-.1-.3-.3-.4 0v.2l-.1.1-.2.4.2.1c.2 0 .4.4.3.8-.1 0 0 .2 0 .2v.2c-.2 0-.1 0-.1-.2s0-.1-.2-.1v.3c.1.2-.2.6-.3.5s-.4.3-.3.6h.2v.2s0 .2.2.2l-.1.3c-.2.3-.3.1-.2 0s0-.3-.1-.1l-.2.2c-.2 0-.2 0 0 .4v.1c.1-.2.2-.2.2 0s0 .2 0 0 .1 0 .2 0c-.1.3 0 .2 0 0l.3-.2.2.1-.2.3c-.1.1-.2 0-.2 0l-.1.3c0 .1-.1.3-.2.1h-.3c0-.2 0-.1 0 0l.2.3h.1v.2h.2c0-.2 0 0 0 0v.3c.2 0 .1.1 0 .1a14.6 14.6 0 00-.2 0c-.2.1-.2.2 0 .4v.2c-.2.2-.2.2 0 .2l.1.3c0 .3-.3 1.1-.4 1a.1.1 0 01-.2.1h.2c.3.2.2.3-.1.5h-.2l.2.1v.4l-.1.1c-.2 0-.3-.2-.2-.2v-.4c0-.1-.1-.1-.2 0v-.2.1l-.2.2-.2.1c0 .1 0 .1-.1 0h-.2v.8c.2.2.2.2.2-.2v-.2l.1.2c0 .5.1.7.2.7v-.6c-.1 0-.1 0 0-.1.1 0 .3 0 .3.2l.2.1v.5l-.2 1.1h-.1l-.2.5c.1.3-.1.4-.2.2v-.1l-.1.2v-.1c0-.1 0-.2-.2-.2v.4a1 1 0 01.1.2v.2l.3.1.2.1v.4l.2-.2v1l.1.4v.7a6.3 6.3 0 00-.1 0c-.2.3 0 .6.2.6.1 0 .2 0 .1.1l.2.1c.2-.1.2-.1.1.1v.3l.1.2h-.1c-.1-.2-.2 0-.3.3l-.2.3c-.1 0-.1.1 0 .2.1-.3.2-.3.2.1v.4l-.1.1h.2l.2-.2-.2.3-.3.4c-.2.1-.2.1 0 .1 0 0 .2.4 0 .4v.4l.1-.2v-.1l.1.1v.3h.1v.4h.1c0 .1 0 .2-.2.2v-.3h-.2v-.3l-.1.1v.5l.3.2v.3l-.1.3c0 .2 0 .3-.2.3l-.1-.1h-.1v.3h-.2l-.3.7v1c.1 0 .3-.4.4-.9 0-.2 0-.3.2-.5.2-.3.2-.3.3.1l.3.3v.1c.1.2 0 .2 0 .2-.2-.1-.2-.1-.1.1l.1.4-.1.2c-.2 0-.2.2 0 .3.2 0 0 .7-.2.6a.6.6 0 01-.3-.6v-.7c-.2 0-.2 0 0 .1l-.1.3-.1.2h-.2v.3c.1 0 .1.2 0 .4h.2c.2 0 .3.2.3.8v.6h.4v.3c-.1 0-.1.1 0 .1l.2.1v.4l-.1.4v-.2c0-.2-.3 0-.3.3h-.1v.2l.1.2c.1 0 .1 0 0 .2v.8c-.2 0-.3.2-.4.5v.7s.1 0 0 .2v.5l-.2.6V218.6l.1-.4c.1-.1.2 0 .2 0 0 .2.1 0 .1 0 0-.3.1-.3.2-.3v-.1c-.2 0-.2-.5-.1-.6h.2l.1.8v1.2c0 .1 0 .3-.1.2l-.1-.4v-.1c-.2.1-.2.4-.2.6l.1.1.1-.1.1.5v.2l.2.2.1.3-.3 1c0 .1 0 0 .1 0h.2v.4c0 .1.1.3 0 .4l-.1.4v.2l.2.4h-.1c-.2 0-.2 0 0 .1V224.2c0-.1-.1 0 0 0v.3h-.1l-.1-.1c-.1 0 0 0 0 .2l-.2.2v.2l.2-.1c0-.3.4-.5.4-.2l-.2.1v.8c.1.3.1.4 0 .4-.3 0-.4.2-.4.5l.3.2c.2 0 .3 0 .3.2v.1l-.1.2h-.1l-.2.2c0 .3-.2.3-.2.2 0-.3-.2-.2-.2 0a.5.5 0 000 .4v.5c.2-.3.5-.1.5.1l.2.4v.2c-.2-.2-.2-.2-.2.3a.3.3 0 00-.1 0h-.2-.2v.3l.1.2v-.1l.1-.2h.3s.1.1.2 0v.4h-.1l.3.6c0 .2 0 .6.2.9.2.3.3.8.2.8v.1c.1.3 0 .3-.1.1v.2l.1.3c.2 0 .2.2.2.3l.1.2.2.6v.8c-.2.3-.2.3 0 .4h.2v.1c.2.4.5 1 .5.8 0-.1 0 0 0 0V237.3l.3.7c-.1 0 0 .1 0 .2.2.2.3.3.3.5 0 0 .1.2 0 .2v.3c.1.3.2.7 0 .6-.1 0 0 .2 0 .4.2.2.2.2.2 0v-.2.1l.1.4.1.2h.2v.1c-.1 0-.2 0-.2.2v.3l.2.4.2.3-.1.3v.3c.1.2.1.2 0 .2 0 0 0 .3.2.3l.2.1v.1l.1.5.1.2.1.4-.1.3v.2l.2.1v.3c-.2-.1-.2 0 0 .2.1 0 .1 0 0 .1 0 0 0 .4.3.7l.2.7v.4c0 .2-.1.2 0 0l-.2-.3v.8-.4c-.2-.2-.5 0-.5.2v.1c0-.1 0-.1.2 0l.2.3h.2l.1-.2v-.1.1c0 .2.1.3.2.2v-.2c0-.2.2.2.1.4 0 .2 0 .3.2.4h-.2c0-.2-.1-.2-.2.1 0 .3 0 .3 0 0-.1-.2-.2-.3-.4-.2l-.3.1-.1.2h.2c.1.1.2 0 .2 0 0-.2 0-.2.2 0l.1.3.1.7.1.2c.2-.2.5-.3.6-.2l.1.3.2.3v.2l-.2-.1-.3-.1-.4-.2c-.1.1-.2.1 0 .4.1.2.2.2.1 0v-.1s.2.5.3.4h.1l.2.2v-.1.3c0 .1 0 .1-.1 0v.4V252.7l.2.5.2-.1c0-.3.1-.3.2-.2l.2.7v.4V254.9h.2v.3l.1-.2v-.1l.1.1v.3l.1-.2s.2.3.1.5c0 .1 0 .2 0 0 .1-.2.2-.2.2-.1v.2s.1.1 0 .4v.4s.2.2 0 .4c0 0 0 .1.2 0l.2.4v.1-.2l.2.4c-.1.2-.2.3 0 .4.2 0 .1.2 0 .3-.1-.1-.1.3 0 .4 0 0 .2.3 0 .3v-.2c0-.1-.1 0-.2 0l.3 1.1v1 .3h.3l.3.3.2.6c0 .5 0 .5.2.6l.3.4v.5l-.2.5.2.1.2.4c.1 0 .1 0 0 0v.3a452.6 452.6 0 01-.2-.4v-.1.4c0 .3 0 .2 0 0-.2-.2-.2-.2 0 0 0 .2 0 .3.2.4-.1 0-.1.2 0 .4 0 .4 0 .5.2.2v-.3l.1.3c0 .1 0 .1 0 0v1.1l-.2-.1a.7.7 0 000-.3c0-.1 0-.1-.1 0h-.2c-.1-.1-.1-.1 0 .1l.2.6.2.3c0 .1.1 0 .2 0 0 0 .1 0 0-.1s0-.1.1-.2h.1c0-.2 0-.3.2 0 .2.1.2.2.1.3v.1l-.1.2c-.2 0-.2 0-.1.4.1.2 0 .3-.1 0-.1 0-.2 0-.2.3v.3h-.2c-.2 0-.4 0-.4-.2v.1c-.2.3 0 .8 0 .7l.2.1.1.5v.1c.1.2.1 0 .1-.1l.2-.2.1.3-.1.2v-.1s0-.2 0 0c-.2 0-.3 0-.3-.2 0 0 0-.2-.2-.2l.1.9v-.1c.2-.2.2-.2.2 0 0 .3.3.8.4.8v-.2c0-.2 0 0 .1 0l.1.1s0-.2-.2-.3l-.2-.3.3-.4v-.3c.1-.1 0-.1 0 0 0 0-.2-.3 0-.4l-.2-.2-.1-.4h.1l.2.1h.1v-.1l.3.6.1.6-.1.4v.3c.1.1.2 0 .1-.3 0 0 .2.1.2 0 .2 0 .3.1.4.6v.2-.2c-.1-.1-.1-.1-.1 0l-.3-.3v.3c-.2.2-.2.2 0 .2v.2l.1.2.1.1c0 .2 0 .3.1.2v.2c-.2-.1-.1 0 0 .3l.3.2.1.2v.1l.2.1.1.2h.2c0 .2 0 .2-.1.1-.2-.2-.4 0-.3.1.1.1 0 .2-.2 0-.2-.3-.3-.3-.1 0l-.1-.2h-.2l.1.6v-.4c.3.8.3.8 0 .6h-.1c0 .2-.1.1-.2 0-.1-.2-.3-.3-.3 0l.2 1v-.2c0-.2 0-.2.1-.1.2 0 .3 0 .2-.2 0-.3 0-.3 0 0 .2 0 .2.1.2.3v.3c0-.3-.1-.3-.2 0v.3h.2c.1.2.2.2.2 0l.2-.3.1.1c0 .3 0 .3-.1.2-.1 0 0 0 0 .2s-.3.3-.4.2c0-.1-.2 0-.2 0 .1.6.4 1 .6 1.4 0-.1.4-.4.4-.1v.3a.9.9 0 01-.2.1c.7.8 1.7 1.2 3 1.3l19.9 3.1c6.6 1 13.3 2 20 1.7l32.1-1c6.8-.1 13.2-2.1 19.7-4 .8-.1 1.7-.7 2.2-1.3 2.4-3.5 4.8-6.9 6.9-10.5 2.2-3.7 4.1-7.6 6.1-11.5 1.2-2.4 2.6-4.9 3.3-7.5 1.8-6.6 3.8-13.2 4.8-20 1-6.5 2.4-12.8 5-18.9zm14.5 39.2c-.7-.7-1.7-1.6-2.6-1.6-2.3.1-4.2-.5-6.1-1.5-1-.5-2-1-3-1.3-.5 0-1.6.3-1.7.7-1 3-1.7 5.9-2.4 8.9-.3 1.2.5 2 2.4 2A31 31 0 00322 251c.9-.5 1-2 .2-2.8zm3.7-17.5c-.4.5-.9.8-1 1.2 0 .6-.2 1.5.8 1.4.4 0 1-.8 1.1-1.3.1-.2-.5-.7-1-1.3zm3.8-2.1c1-1.6 2-2.9 2.6-4.4 2-4.8 4.1-9.6 6-14.5 1.3-3.6 2.3-7.3 3.3-11 .3-.9-.5-1.7-1.5-1.3a27.1 27.1 0 01-13.9 1c-3.7-.6-6.8-2.5-10.7-4.8l.4 10a36 36 0 01-1.6 15c-2.1 5.5-1.8 11.4-3.3 17-.1.4.2 1.3.5 1.4 2.4 1.3 4.9 2.5 7.3 3.5.8.4 1.5-.1 1.6-1 0-2.7 0-5.4.2-8.2 0-.9 0-1.8.2-2.7.5-2.4 2.8-3.4 5-2.3 1.3.6 2.5 1.5 3.9 2.3zm7.6 26.4l-.6-1a14.3 14.3 0 00-2.6.4c-.1 0-.2.9 0 1 .5.4 1.1.9 1.7.8.6 0 1-.8 1.5-1.2zm60.2-35.5c-.1-.5-.4-1-.7-1.5-3.4-6.2-5.6-13-8.4-19.4a97 97 0 00-4.1-8.9L372.9 170c-2-3.6-3.6-7.5-5.3-11.3-.5-1-1.3-2.5 0-3.5 1.6-1.3 2.5.4 3.5 1.2 1 .9 2 .5 2.3-.8a5 5 0 000-2c-1.7-7-5-13.2-7.8-19.7l-.6-1c-1.3-1.9-3-2.8-5.5-2.6-3.5.3-6.8.9-10 2l-14.5 4.9c-6 2-11.5 4.4-15.9 9-.7.9-1.5 1.7-2.4 2.3-2.4 1.5-5 2.8-7.5 4.2-.2.1-.8-.1-1-.4-.2-.2-.3-.7-.2-1l2.1-2.4 3-2.7c-8.8-1-17.4.1-25.8-2-2-.5-4-.1-5.8.7-.8.3-1.9.6-2.6.4-2.1-.9-4.3-.5-6.4-.5-6.4-.1-12.7 0-19-.5a417.6 417.6 0 00-32.1-.8c-11.4.1-22.7 2.5-34.2 1.3h-1a5.4 5.4 0 00-4.6 3.4c-3.3 6.8-5 14-5.7 21.4-.1 1 0 1.8.1 2.7.2 1.4.8 2.4 2.1 2.9 3.3 1.2 6.6 2.2 10 2.3 4.2 0 8.4.2 12.6 0 4.6-.2 9-1 12.8-3.8 3.3-2.4 7.2-3.6 11-4.5 2-.5 3.7-.3 4.8 1.5l3.6 6c2.3 4.7 5.7 7.9 10.6 9.6 5.4 2 10.9 3.2 16.6 2.7 5-.3 10-1.3 15-2.1 1.2-.2 2.4-1 3.4-1.6 3-1.9 5.7-3.9 8.6-5.8a32 32 0 008.7-8c1.5-2.1 2.5-4.5 3.7-6.7 1-1.7 2.6-2 4-.7 1.9 1.6 3 3.7 3.5 6 .7 3 1.5 6 3.5 8.5l4 5.2c3 3.9 6.8 6.5 11.6 7.5 4.1.8 8.3 1 12.4-.4 2-.6 4-1.4 6.2-2 3.3 7 3 13.8.4 20.4-1.6 4.4-3.6 8.7-5.9 12.8-3.3 6.2-7 12.3-10.6 18.4-.5.8-.7 1.6-.4 2.5l.7 2c1.3 4.6 1.3 4.7 5.7 3.3l8.1-3c2-.7 4-1.7 6.1-2.3l34.7-9 8-1.9c3.5-.7 5.4-3.6 7.1-6.3 1.4-2.1-.6-4-1.2-6.1zM335.7 67.4l1.1 9.2c0 .4.6 1 1 1 .8.4.8-.5.9-1l1-10.8c.5-6.7 1.8-13.2 3.4-19.7a17 17 0 015.2-8.7c1.2-1.1 2.1-2.5 3.3-3.7a25 25 0 013.6-3.1c2.4-1.6 5-3 7.5-4.5.4-.3 1-.7 1.4-.6 1.7.5 3.1-.5 4.6-1 2.7-1 5.7-1.3 8.4-1.2 4.5.2 8.5 1.9 8.9 7.5 0 .5.4 1 .6 1.5a8 8 0 01-1 6.7c-2.7 4.1-6.2 7.2-10.2 9.7-1.7 1-3.7 1.5-5.6 2.1-.9.3-1.6-.4-1.8-1.4v-2.2c-.3.1-.8.1-1 .3a10.7 10.7 0 00-1.4 1.6c-2 2.9-.9 7.9 4 8.7 2 .3 3.9-.1 5.8-1 4.1-1.8 7.8-4.4 11.2-7.5A49 49 0 00402 26.2c1.5-5.2 1-10-2.8-14.1-2-2.2-3.6-4.6-5.8-6.4a22.4 22.4 0 00-10-5.2 49.3 49.3 0 00-31.7 7A38 38 0 00338 24.8a29.6 29.6 0 00-3.4 11.9c-.3 8.5-.2 17 .5 25.4l.6 5.4zm48 148.6c-.4-.4-1.8 0-1.9.5-.2.9-.5 1.8-.4 2.6.5 2.2-.2 3.4-2.3 4.1-1.7.6-3.3 1.4-5 2.3a19 19 0 00-3 2c-.4.2-.5 1-.4 1.4.2.4.7.7 1.2 1h1.4c3.2-.7 7.2-1.5 11.2-2.8 3.5-1.2 4.3-3.6 2.4-6.8-.9-1.5-2.1-2.9-3.3-4.3zM6.3 76v-.1.2-.1zm152 83.2c-1.2-.5-2.8 0-4.1-.2-4.3-1-7.2 1.6-10.4 3.6-1 .5-1.4 1.6-1.1 2.8.3 1.4 1.2 2.4 2.6 2.3 2-.3 2.7.8 3.6 2.4.9 1.8 2 1.9 4 1l.5-.3c2.1-1 2.2-1.1 3.5 1 1 1.4 2.5 1.6 3.7.7.7-.6.8-1.8 1.1-2.4-.3-2.4-.3-4.5-1-6.3-.6-1.6-.5-3.9-2.4-4.6zm32.2-87.5h.2l-.1-.1h-.1zm91.6 224.6c-7.8-.3-14.1 2.9-19.8 7.7-.5.5-.8 1.7-.6 2.4.1 1.2 1.2 1.8 2.4 1.9.8 0 1.8-.1 2.6-.4.9-.2 1.6-.8 2.5-1 3.1-1 6.2-1.7 9.4-2.5.6-.1 1.3.4 2 .6-.2.6-.3 1.4-.7 1.8a108.5 108.5 0 01-6.2 5.3c-1.8 1.4-1.3 4 .5 5 1.5.9 3.2 1.1 4.7.3 2-1 4-2.2 5.6-4.6l-4-.6c1.8-1.6 3.7-3.1 5.3-4.8 1.1-1.1 2-2.5 2.9-3.8.3-.6.4-1.5.1-2-1.1-3.2-3.1-5.2-6.7-5.3zM147.3 143.7c.1-.1 0-.7 0-.8-2.2-1-4.3-1.9-6.5-2.7-.6-.3-1.4-.3-2-.4-.7 0-1.4 1-1.2 1.6a6.4 6.4 0 005.6 4.5c1.8 0 3.1-.7 4.1-2.2zM114 148c-.4-.5-1.1-.8-1.8-1.2-1.4-.7-2.2-1.5-1.8-3.4.2-1-.4-2.4-.8-3.6-.2-.7-1.9-.9-2.3-.2-1.7 2.6-3.2 5.3-2.9 8.5.2 2 1 2.8 3 3.2 1.8.3 3.6.3 5.5.5l3.6-.6c0-1.6-1.5-2.2-2.5-3.2zm339.8-86c0 6.7-1.7 13-3.9 19.1-1 2.8-3.2 5.2-5 7.7a65.4 65.4 0 01-13.3 13.3c-.7.6-1.5 1.2-2.4 1.2-2.3.3-3 2.5-4.7 3.5-1.6.8-3.6-.1-5.1 1.3-1.2 1.1-2.7 1.9-4.5 1.3h-1c-2.6 1-5.1 2.4-7.7.1-1.7 1.7-3.7.2-5.5.2-4.7 0-8.2-2.3-11.4-5.5a32.6 32.6 0 01-7-9.6c-2.5-5.7-7.6-8-13.7-7.5-2.3.2-4.8 1.5-6.9 2.8A19 19 0 00355 96c-.2.3-1.2.4-1.3.3-.2-.4-.5-1.1-.3-1.5.8-1.4 1.6-2.9 2.7-4l11-10.4c5.2-4.5 11.3-4.9 17.5-3 2 .7 4.1 1.7 6 3l.1.2v-.1c.1-.2.2-.2.1 0 0 .1 0 .1.1 0h.2c.1 0 .1.1-.2.2l1.4 1.3c0-.1.1 0 .2 0l.1.3.7.7c0-.1-.2-.4-.3-.3-.2 0-.1-.3 0-.4l.1-.2c0-.4.2-.3.3.1v.3c.1-.2.5 0 .7.1 0 .2 0 .2.1.1h.3v-.2l.1-.2.2-.3h.1l.2.1h.2l.2-.1h.1s0 .7.2.7v.2c0 .2 0 .4.2.4.2.2.2.2.1 0 0-.4 0-.5.2-.2.1 0 .2.2 0 .1v.2h.2v-.1l.1-.5.1-.2v.3c0 .3.1.4.3.2.2-.3.2-.3 0-.5s0-.4.2-.4.2.2 0 .3c-.1 0-.1 0 0 0 .1.2.3 0 .2-.2l.2-.1c.3 0 .3 0 0 .3-.1.2 0 .4.1.3h.2c0 .1.2.1.3-.1 0-.3.2-.1.1.2v.3h.3c.2-.2.2-.2.5 0h.1c0-.2.2-.2.4 0h.2c.2.1.2.1.2 0 0-.3 0-.2.1-.2.2 0 .3 0 .3.2l.2.1c.2.1.2 0 .2 0 0-.2.2-.2.3 0l.3.1c.1-.2.3 0 .4.2.2.3.4.2.3-.1h.2l.5-.1.4-.2c0 .2.1.2.2 0h.1l.2.2h.1l.3-.2c0-.1 0-.1 0 0 .2.1.2.1.2 0h.1c.1.1.3 0 .2-.2.2 0 .3.1.3.2h.2l.3.1h.6l-.1.1c.1.2.4 0 .2-.2 0-.2 0-.2.1 0l.1.2h.3c.2-.3.5-.4.6-.2 0 0 0 .1.2 0h.5s.1.1.2 0c.2 0 .7-.3.8-.1h.6c.4-.1.6-.1.8 0h.3v-.2c-.1-.3.6-.2.7 0v.2h-.3l.1.3c.2 0 .3 0 .4-.3v-.4h.6c0-.1 0-.1.1 0l.3-.2c.1-.1.1-.1.1 0l.6-.2.6-.2h.5c.1-.2.3-.2.4-.2l.1-.1.2-.1h.2l.1-.2s.3.1.4 0c.3 0 .4 0 .6.2 0 .2.2.3.2.3 0-.1 0-.3-.2-.5v-.1c0-.1.3-.1.4 0l.1-.1c.2 0 .1-.2.1-.2-.1-.2 0-.2 0-.1.1.1.3 0 1-.2l.7-.4c0-.2 0-.2.1 0 0 0 .2 0 .2-.2 0-.1.2 0 .2 0h.2l.2.1c.2.1.2.3.2.3v-.2-.2h.2v-.4c0-.1.2-.2.2 0l.1.1v.2s-.2 0-.1.1l.1.1c.2 0 .3-.6.3-.8.2 0 .3.1.4 0 0-.2.3-.3.3-.3.4-.1.4-.1.4.1.2.3.2.3.2.1v-.2l.2-.2.2-.3h.3a.4.4 0 00.2.2c.1 0 .1-.1 0 0-.1-.2.2-.5.4-.6.2-.1.2-.2.3-.4v-.2c.2.2.5.2.5 0v-.1c0-.1 0-.1 0 0l.2.1c.1.2.2.1.1 0 0 0 0-.2.2-.2l.2-.2c0-.2 0-.2.1-.1h.1c0-.1.1-.2.3-.2 0 0 .2 0 .1-.2l.1-.2.5-.2.1-.2h.1v.1s.6-.4.7-.7c.2-.2.4-.4.6-.3.1.1.2.1.2 0s.1-.2.2-.1l.1-.1.3-.3c.4-.2.7-.7.5-.7 0 0 0-.1.1 0 0-.2.1-.2 0-.2v-.3c0-.3 0-.2 0 0h.3l.1.1h.7l.2-.2H430c-.2-.1-.3-.2 0-.5l.4-.2v-.1s0-.1.1 0c.2 0 .3-.2.2-.4-.1-.2-.1-.2 0-.2h.3c0-.2 0-.2.2-.2l.2-.2c.2 0 .3-.2.5-.3 0-.2.2-.3.3-.2.2 0 .7-.5.6-.7l.2-.2c.2 0 .1-.1 0-.3l-.2-.1.3-.1c.4 0 .7-.1.7-.3l.2-.2c.1 0 .2-.1.1-.2V69l.2-.3.2-.4c-.2-.1-.2-.1 0-.1s.2 0 0 0c0-.1 0-.2.2-.2h.5c.2 0 .2 0 0 0a1.1 1.1 0 01-.2-.1.3.3 0 000-.2c0-.1 0 0 .2 0 .1.1.2 0 .1-.1 0-.2 0-.2.2-.2s.2 0 0-.2c0-.2.1-.4.3-.2v.2-.2-.4c.2 0 .2-.1.2-.2l.2-.4v-.3l.1-.1.3.1c0 .1.2.2.1 0l.2-.1c.2 0 .3-.2.2-.3s-.1.1-.2 0V65c.3-.4.5-.5.6-.3.1.2.4 0 .3-.4V64l.1.1c0 .1 0 .1.1 0s.1-.2 0-.3v-.2s.2 0 .3-.3c.2-.2.2-.3.4-.2.2.1.2 0 0 0-.2-.3 0-.8.5-1 .2-.1.3-.3.2-.3l.2-.1c.2-.1.2-.1 0-.1s-.2-.2 0-.2l-.1-.1v-.2l.2.1c0 .1.2.1.2 0v-.5-.4c0-.3.2-.5.3-.4l.2.1c.2 0 .2-.1.2-.5 0 0-.1-.2 0-.2l.2-.2h.1c.1.2.2 0 .1-.1-.1-.2-.1-.2.1 0h.2c0-.2 0-.2-.2-.3-.1 0 0-.2.2-.2 0-.1 0-.2.2-.2 0 0 .3-.3.2-.4l.1-.1h.1v-.3s.2-.2.1-.3l.2-.4.2-.2c0-.1.2-.2.3-.1.2 0 .2 0 0-.1v-.2l.2-.2c0-.2.1-.3.3-.3h.2v-.3a.7.7 0 00.3-.2l-.5 1.6a1.5 1.5 0 00.1-.3l.4-.3V56s0-.2.3-.2c.2-.2.2-.2.1-.3v-.2l.2-.3.2-.1c.2 0 .2-.1.3-.4l.1-.2c0 .1 0 .1-.1 0 0-.2 0-.2.2-.2l.2-.1-.1-.1c.2.1.3 0 .2-.3h-.2l.4-.3.3-.4c0-.3.2-.7.4-1 0-.6-.5-1.4-1-1.6-.9-.5-2-.9-3-.9-4.3-.2-8.7-.1-13-.5-2.2-.1-4.2.7-6.4 1-1.9.3-3.2 1.8-4 3.4a9.8 9.8 0 00.4 9.8c.8 1.3 2 1.4 3.4 1.4.2 0 .5.4.5.7 0 .3-.2.7-.5.8-5 1.9-6.9 1.4-9.4-3.2-2.8-5.2-3.7-11-2.8-16.8.8-4.5 4-7.7 8.6-9 4.2-1 8.5-2 13-1.6 2.4.2 4.6.8 6.6 2l7 4.3c3.7 2.3 6.1 5.6 6.8 10 .6 3.4 1 6.8 1.4 10.2zM392.3 82zM218.6 201.1c1.1-.8 1.6-.2 2 .6 1.7 2.7 1.7 2.7 4.3 1.5l1.5-.6c2.6-1 2.6-1.4 1.9-3.8-.8-2.5-3-3.2-4.6-4.4-3.1-2.5-3.7-2.5-6 .6l-3 3.8c-.4.5-1 1.3-.8 1.9 0 .7.7 1.4 1.2 2.3 1.4-.7 2.6-1.2 3.5-1.9zm81-14.5c-1.5-.7-2.9-.5-3.7 1l-4.8 9c-.2.5.1 1.5.6 2 .3.3 1.2.4 1.9.3.4-.1.8-.6 1.3-1 1.4-1 1.5-1 2.6.7 1.5 2.2 2.7 2.4 4.8.7l3.8-2.9 1-1.1-.1-1.1c-1.6-3.4-4-6-7.4-7.6zM227.4 257c-1.4-1-4.1-.3-4.6-2.2-.5-1.6.4-3.5.6-5.3v-1.1-.6c0-.5-.3-1-.4-1.5-.6.4-1.5.6-1.7 1-.9 2.2-1.6 4.5-2.4 6.7-.4 1-1.2 1.8-2.4 1.8-1.3 0-2.6 0-3.8.2-.5.1-1.2.9-1.4 1.5 0 .5.3 1.3.7 2 .2.3.9.7 1.3.7 4 0 4.9 2.3 4.6 5.7a3.8 3.8 0 00.2 1.6l1.6 3.9c.1.2 1.2.2 1.3 0 .5-.8.9-1.7 1-2.5v-4.9c0-2.6 0-2.6 2.5-3.3l3-1.1c.4-.2.8-.9.8-1.3 0-.5-.5-1-1-1.3zm-.2-26.5c-9.7-.5-8.3-1.3-16.9 5.2a26.4 26.4 0 00-8.7 11c-2.7 6.3-4 13-4.4 20-.1 2 0 4 1.7 5.8 2-6.6 3.5-12.9 5.6-19 1.9-5.8 4.8-11 9.5-15 3-2.7 6.4-4 10.4-2.9l4.8 1.2a19 19 0 0112 9.6 30 30 0 014 14.5c0 3.7 0 7.3.2 11 0 1 .1 2.1.4 3.1 0 .5.6 1 1 1.1.5 0 1.2-.3 1.4-.7.5-1 1-2 1.2-3 1.5-9.1 1.1-18.2-2.3-26.7-3.5-8.6-9.7-14.8-20-15.2zm28.3-124.4a7 7 0 003.2-2.7c.5-.7 0-2 0-3.3l-2.3.9c-4.4 1.3-8.6 1.3-12-2.4-.3-.2-.7-.6-1-.5-.4 0-1.1.5-1 .7 0 .9 0 1.9.5 2.6 2.5 4.4 7.8 6.4 12.6 4.7zm-40.8 114.4c.6.2 1.5.3 2 0 1.3-1.2 2.4-1.2 3.7.1.3.5 1.3.6 2 .5 1.7-.5 3.3-1 5-1.7.4-.2.6-.8 1-1.3l-.6-1.5c-1.4-3.6-4.2-4.7-7.7-4.6-.8 0-1.9.4-2.4 1-1.3 1.4-2.5 3-3.6 4.6-.6.9-.3 2.5.6 2.9zM189.4 71.4l.3.2h.2v-.2h-.5zm93.6 59.8v-.1zm-.5-1h.2-.2zm.2-.4c-.2 0-.3 0-.2.1 0 .2 0 .2.1.1v-.2zm0-1.3c0-.1 0-.1 0 0zm0-.2zm0-1.5h-.2v.1c.1 0 .2 0 .1-.1zm-.4-.4h.1a.1.1 0 00-.1 0zm.2-.2h-.1.1zm-.2-.5v-.1zm0-.7v-.1h.2v-.2h-.2s-.2 0-.1.2c0 0 0 .1 0 0zm0-.4zm0-.2H282h.2zm0-.3h-.1zm-.5-.1zm.5-.4v.1zm-.1 0c-.1 0-.1 0 0 0zm0-.2c-.1 0 0 .2 0 .2v-.1c0-.1 0-.1 0 0zm-.6-.7v.1zm.4-1h-.1c0 .1 0 0 0 0zm-.1-.2l.1-.2.1-.1-.2.1v.2zm-.3-1.5h.1v-.1h-.1zm-.4-1.2v-.1zm-.3-2.7h.1zm-.1-1.9h-.1zm0-.1h0zm.5-.1zm-.6-.2h-.1zm0-.4zm1.5 13.4zm-108 61.3v-.1l.2-.2s-.2 0-.2.3zm-.3 2.2v-.3c0-.1-.2 0-.1.1l.1.2zm0 .8c-.1.1-.1.2 0 .2v-.2c.2 0 .2-.2.1-.3 0-.2-.2 0-.2.3zm-.5 2.8c0 .2 0 .2 0 0l.1-.3-.1.3zm-.3 2.6c-.1 0-.1 0 0 .2 0 .2 0 .2 0 0s.2-.2 0-.2zm-.2 1v-.2.4-.3zm.1.1v.2s0 .1 0 0h.1v-.2zm0 1c0 .3 0 .3.1.1v-.2.1zm-.1.8v-.1h-.1v.2-.1zm.2 2.2v-.2.2zm-.1-.1c0-.4-.1-.4-.3 0v.2c.3 0 .3 0 .3-.2zm-.2.6l-.1.1.2.1.2-.1c0-.3 0-.4-.3-.1zm.2 2.3h.2c0-.3-.1-.3-.2 0zm-1 4.9v.1c0 .3.1.2.1.1 0-.2-.1-.3-.2-.2zm1.1 3.6v.2-.2zm-.6 3.3c-.2.2-.2.3 0 .5a.3.3 0 00.3 0v-.2c0-.3-.2-.4-.3-.3zm-.2 1.5v.1c.1.3.2.3.1 0v-.1zm1.6 15v.3c.1.1.2-.2.2-.3 0-.1-.2 0-.2 0zm.6 2.2v.2l.1-.1v-.1zm1.8 4.4l.2.2v-.2h-.1zm-.3.8v-.2.2zm1.8 7.4v0zm.3 1.4v0zm.8 2.7v-.3-.2l-.2-.2v-.1l-.1-.1.3 1c0 .1.1 0 0-.1zm0 .4c0-.2-.1-.2-.2 0v.3h.3v-.3zm.2.4v.4c.1-.1.1-.1.2 0 0-.3-.2-.5-.2-.4zm-.4.5v0zm1 1.5l-.1-.2h-.2c.1 0 .2.1.2.3l.1.2.1-.2c0-.1 0 0 0 0zm1.4 5.6c0 .2-.2 0-.2-.3l.2.2v-.3c-.2 0-.2-.2 0-.3 0-.2-.1-.3-.2-.2-.1 0-.2 0-.1.1a1 1 0 010 .4c0 .3 0 .5.2.6 0 .2.2.2.2 0l-.1-.2zm0 .8v0zm.2.2h.1v-.2c-.2 0-.2 0 0 .2zm.3 1.3v.1l.1.1v-.1-.1zm1 2.8h-.1v.1c0 .1 0 .3.1.2v-.3zm0 0zm.3 1.4c0-.2-.2-.2-.1 0v.3l.2.2v-.3l-.1-.2zm0 2s-.1 0 0 .1v-.1zm-.6.6l.1.2c.1.1.2 0 0-.3v.1zm1.1-.2c0-.2-.3-.6-.4-.5s.2.7.3.7h.2v.2l-.1-.4zm.8 3.4l.2.5c.2.5.2.4 0-.2-.2-.5-.2-.5-.2-.3zm0 2.6v.1l.1.1v-.1-.1zm.3 1l.2.1v.1l-.2-.3zm-.4.3v.2s0 .1.1 0l.1-.1c0-.1-.1 0-.2 0zm.6.2v.3c0 .2.1 0 0-.2.1-.1 0-.1 0-.1zm-1.2-5.8c0-.1 0 0 0 0zm.4 4.7zm-10-86c.1 0 .1-.1 0 0zm58.8-119.5l.1-.1v-.1l-.1.2zm.9-3v.1l.1-.1c0-.1 0-.2-.1 0zm.2-.3V66l.2-.2v-.2s-.2.1-.2.3v.5zm.8-4v.1-.2c0-.2 0-.2 0 0zm0-.4zm0 0V62zm0-3.3v-.3.3zm-.2-1.3v-.1h-.1zm.1-.3V57v.1zm-.3-1.8v0zm-.7-2.1l.2.2v-.2c-.1-.1-.1-.1 0 0 .2.1.2.1.1-.2V53v-.2l-.1.2c-.3-.2-.3 0-.2.4zm0-.7l-.1-.1h-.1c0 .1 0 .1.1 0zm-.7-.5h.3c0-.2-.1-.2-.1-.1h-.2c0-.2 0-.2 0 0 0 0 0 .1 0 0zm-.1-1h-.2c0 .1.2.2.2 0zm-.6 0V51c0 .1 0 0 0 0zm0-.9V50v.1zm-.2 0h.1l-.1-.2c-.1 0 0 .2 0 .2zm0-.3l-.2-.3c-.2-.2-.2-.1-.1 0 0 .2.3.4.3.3zm-2-1.4c.1 0 .1 0 0-.1v.1zm-1.7-2h.1l-.1-.1c-.1 0-.1 0 0 .1zm-.8-.6l.2.2a.6.6 0 01-.2-.4l-.2-.2c-.1.1 0 .2 0 .2a.5.5 0 01.2.2zm-3.3-1.7h-.2.1zm-9.4-1.9h-.2.2zm-4.9.1h.1c.1 0 0 0 0 0zm0-.1l.2-.1h-.4.1zm-.4-.4zm.2 0h-.2.1zm-.5.7c.1-.1 0-.1 0-.1h-.1s0 .1 0 0zm-1.1 0zm0 0v-.1zm.1.3l.2.1c.1 0 0-.2-.2-.2 0 0-.2 0-.1.1 0 .1 0 0 .1 0zm26.2 15.5zM210 42.2zm0 0zm-2.7.4h.1-.2.1zm0-.4h-.2v.1h.1zm-.2.7h.2c.1 0 0 0 0 0h-.2zm0-.5l.1.1c0-.1 0 0 0 0zm-.3.6v-.1h-.1zm-.5-.1l.2-.1h-.2c-.1 0-.1 0 0 .1zm-.3-.1l.2-.1c.2-.2.2-.2 0-.2h-.1v.1c-.1-.1-.2 0-.2 0v.2zm-.3 0zm0 0v-.1zm-.3.8h-.1zM50 59v-.2c-.1-.2-.2-.1-.1 0 0 .3 0 .3.1.2zm-.2-.5zm0 0zm-.7-3.3V55v.3zm-.5-1.2h.1c0-.1-.1-.1-.1 0zm.2-.3h-.1zm-.7-1.7v0zm-.9-1.7V50c-.2-.1-.2-.1 0 0 .2 0 .2 0 0-.2v-.3h-.1c0-.2-.1-.1 0 0 0 .1 0 .2-.1.1-.3-.1-.3 0 0 .4 0 .2.2.3.2.2zm-.5-.9h-.1c0 .1.1 0 .1 0zm-.7-.3l.3-.1c0-.2-.1-.2-.1 0H46c-.1-.2-.1-.2 0 0 0 0 0 .1 0 0zm-.3-1h-.1c0 .2.1.2.1 0zm-.5.1l-.1-.1v.1zm-.2-.8v-.1c-.1 0 0 0 0 0 0 .1 0 0 0 0zm-.1 0l-.2-.2.1.2zm-.2-.3l-.2-.2c-.2-.2-.3-.1-.2 0l.4.2zm-2.2-1s0-.1-.1 0h.1zm-2.1-1.6h.1-.2zm-1-.5l.1.1.3.2-.1-.1a.6.6 0 01-.3-.3l-.2-.2v.1l.1.2zM36 43h-.2v.2h.2V43zm-3.1 0h-.1v-.1zM21.6 44h.1V44h-.2l-.1.1h.2zm-.4-.3zm0 0zm-1.3 1zm0-.1zm29 10.2zM19.4 45h-.1zm-.2-.3H19v.1c.1 0 .1 0 0-.1zm0 .6h.2-.2zm0-.4zm-.3.5h-.1v.1c.2 0 .1 0 .1-.1zm-.4.1s.1 0 0-.1h-.1c-.2 0-.2 0 0 .1zm-.4 0l.2-.2c.1-.2.1-.2 0-.2l-.1.1H18s-.1 0 0 .1c-.2 0-.1 0 0 0v.1zm-.3 0zm0 0zM405.6 221l-.1-.1v.1zm-6.7-16.8zm-1.1-1.9v-.1h-.1v.1zm-.3-.8l-.1-.2c-.1.1-.1.3 0 .4l.1.2s.1.2.1 0l-.1-.2c-.1-.2-.1-.3 0-.2zm-1-2.7v-.2c-.1-.1-.2-.1 0 0v.2zm-.2-.5zm0 0zm-1.3-3.2v0zm-.6-.8v-.1h-.1zm0-.3v-.1c0 .1 0 .1 0 0zm-.6-1.3zm-.5-2s-.1 0 0 .1h-.2c-.2-.1-.2 0 0 .3l.1.2v-.2c-.1 0-.1 0 0 0 .2.1.2.1.1-.1a1 1 0 010-.2v-.1zm-.4-.2c0 .1 0 .1 0 0zm-.5-.4v.1h.3c0-.1 0-.2 0 0h-.2c0-.2 0-.2-.1-.1zm0-.8v.1c0 .1 0 .2 0 0zm-.5 0h.1zm.3-.6v-.2.1zm-.2-.3v.2h.1v-.2zm-.2-.3c0 .1.2.3.3.2l-.1-.2c-.1-.2-.2-.1-.2 0zm-1.4-3.5c-.2-.1-.2-.1-.1 0zm-.3-1.2h-.1c-.1 0-.1.2 0 .2v.4a.4.4 0 010-.4v-.2zm-1.5-2.7h-.1v.2h.1v-.2zm-1.4-2.3v-.2.2zM385 173v-.1l-.1-.1v.1c0 .1 0 0 0 0zm-2-4.2v.1h.1zm.1 0c0-.1.1 0 .2 0 0 0 .1 0 0-.2l-.1.1zm.4-.5zm0 0zm-.7 0v-.2c0-.2 0 0 0 0s-.1 0 0 .1zm-.4-1.1zm0 0zm0 0zm-.3 0c-.1.1 0 .2 0 .2v.2c0 .1.2-.1.1-.2 0-.1 0-.2-.1-.1zm.2-.5zm.3-.2h-.1zm-.6.3v-.2c-.1 0 0 .1 0 .2zm.3-.3l.1.1c.1 0 0 0 0 0v-.1zm-.4-.2v-.1h-.1l.1.1zm0-.5c0-.1 0-.1-.1 0-.1.2 0 .2.1.2v-.2zm0-.1c.2.1.3.1.2 0v-.1l-.1-.1s0-.1 0 0c0-.1-.1-.1-.1 0-.2 0-.1.1 0 .2zm-.1-.4zm0 0zm52.7-97.6h-.2v.1h.1zm-1.6 2.3v.1c0 .2 0 .2.1 0zm-.2.3l-.3.3-.2.2v-.1c-.1 0-.2.1-.1.2s.3 0 .4-.1l.1-.3c.1-.1.2-.2 0-.2zm-3.3 2.4l-.2.1c0 .2 0 .3.2.1.1-.1.1-.2 0-.2zm-.4.4zm0 0c0 .1 0 .1 0 0zm-2.9 2.3c0-.2-.3-.1-.3 0v.2c.2 0 .4-.2.3-.2zm-1 1h-.3l.2.1zm-.5-.1v.2c.1 0 0-.1 0-.2zm-1.2 1h-.1v.1h.1zm-2 .7h-.3c-.2 0-.1.1 0 0l.2.2c-.2.3 0 .4.4.2.1 0 .2-.2 0-.3h-.1c-.1.2-.1.2 0 0 0-.3 0-.3-.2-.1zm-.5.4v.2c.2 0 .1-.1 0-.2zm-.4.4c-.1 0-.1 0 0 0 0 .2.1.3 0 .4-.1 0-.1 0 0 0h.2c0-.2-.1-.5-.2-.4zm-.8.4c.1 0 .2 0 0-.2l-.1.2h.1zm-.1.7h.1v-.1h-.1zm-.8-.6h-.1v.1l.1-.1zm-.2.3c0 .2.1.1.2 0a12.8 12.8 0 01-.1-.1s-.2 0-.1.1zm-.2-.1l-.2.1c-.2.1-.2.2 0 .2.1 0 .4-.2.2-.3zm-1.6 1.6h-.1s-.1 0 0 0v.1c.1 0 0 0 0 0zm-2.6 0h-.2c0 .2 0 .3.2.2v-.2zm-1.2.3h.4c-.1 0-.3 0-.4-.2h-.3v.1c.1.2.2.2.3.1zm-3.4 1v-.2h-.2v.2h.2zm-3.1.7c0-.1 0-.1-.1 0h-.1.2zm-7.1-.3l.1.1h.1v-.2l-.2.1zm-5-.7l.2-.1h-.1-.1zm.2-.4l-.2-.2h-.2l.2.3h.1l.1-.1zm-.3-.7zm0 0h.1zm-.8.9h.1c0-.1-.2-.1-.1 0zm-1-.4v-.2a1.6 1.6 0 000 .2zm2.3.4s-.1 0 0 0zM435 67.8zm-43 13.5l-.2-.1h.1zm0-.7h-.2v.1l.2-.1zm0 .3h-.1c-.1-.1-.1-.1-.1 0h.1z"/></svg>