<?xml version="1.0" encoding="utf-8"?>
<!-- Generator: Adobe Illustrator 24.0.1, SVG Export Plug-In . SVG Version: 6.00 Build 0)  -->
<svg version="1.1" id="Layer_0_xA0_Image_1_" xmlns="http://www.w3.org/2000/svg" xmlns:xlink="http://www.w3.org/1999/xlink"
	 x="0px" y="0px" viewBox="0 0 372.259 411.494" style="enable-background:new 0 0 372.259 411.494;" xml:space="preserve">
<path d="M174.193,167.24c1.816-0.01,3.635-0.064,5.445,0.038c0.782,0.044,1.995-0.493,2.222,0.72
	c0.089,0.477-0.672,1.187-1.157,1.681c-0.757,0.771-1.715,1.36-2.399,2.182c-1.902,2.287-3.267,4.815-2.737,7.948
	c0.446,2.635,2.873,4.516,5.468,4.188c1.251-0.158,2.466-0.586,3.715-0.777c2.578-0.395,5.1-2.014,7.785-0.415
	c-1.245,2.177-2.366,4.438-3.776,6.502c-0.976,1.428-1.484,2.871-1.468,4.556c0.016,1.634-0.033,3.271,0.037,4.902
	c0.19,4.406,2.346,5.852,6.455,4.089c4.35-1.867,8.08-4.793,11.904-7.534c2.781-1.994,5.372-4.193,8.44-5.855
	c3.17-1.718,6.46-3.209,9.572-5.024c4.996-2.915,10.017-5.799,14.873-8.937c4.849-3.132,10.288-5.205,14.893-8.794
	c4.7-3.663,9.875-6.655,14.472-10.526c9.108-7.669,15.203-17.354,19.717-28.141c2.693-6.435,3.638-13.247,3.252-19.971
	c0-1.525-0.059-2.799,0.01-4.066c0.433-7.962-2.882-14.366-8.342-19.814c-1.125-1.123-2.594-1.952-4.008-2.727
	c-5.083-2.788-10.531-2.432-15.925-1.404c-1.476,0.281-3.039,1.387-4.041,2.559c-1.381,1.617-2.511,3.558-3.316,5.536
	c-1.706,4.191-3.048,8.529-4.698,12.745c-1.316,3.363-2.424,6.936-4.42,9.876c-2.938,4.325-6.336,8.364-10.342,11.856
	c-3.968,3.457-8.232,6.499-12.439,9.632c-2.907,2.165-6.052,4.119-8.57,6.679c-7.124,7.241-16.1,10.904-25.483,13.856
	c-4.304,1.354-8.707,2.391-13.033,3.679c-1.936,0.576-3.532,1.786-4.99,3.209c-1.546,1.51-1.462,3.285-0.906,5.053
	C170.95,166.49,172.364,167.25,174.193,167.24z M190.117,159.297c7.253-2.222,14.496-4.44,20.632-9.231
	c1.986-1.55,4.332-2.636,6.492-3.969c3.233-1.994,6.474-3.979,9.666-6.038c7.863-5.074,13.974-11.984,19.971-19.032
	c3.881-4.562,6.855-9.728,10.016-14.755c1.516-2.411,2.274-5.309,3.291-8.018c0.887-2.361,1.288-4.897,2.819-7.02
	c0.821-1.137,1.785-1.649,3.184-1.669c2.575-0.038,5.07,0.396,7.436,1.319c4.685,1.828,7.201,5.631,7.693,10.351
	c0.542,5.201,0.536,10.507-0.255,15.713c-0.376,2.476-1.131,4.954-2.105,7.266c-1.473,3.497-3.361,6.817-4.937,10.274
	c-1.915,4.202-4.702,7.703-8.13,10.742c-3.389,3.004-6.703,6.098-10.174,9.004c-3.191,2.671-6.545,5.147-9.836,7.698
	c-0.573,0.444-1.142,0.94-1.794,1.231c-6.664,2.982-12.245,7.655-18.271,11.632c-4.224,2.788-8.489,5.516-12.686,8.345
	c-2.241,1.51-4.526,3.011-6.521,4.815c-2.831,2.56-5.609,5.089-9.2,6.602c-1.303,0.549-2.381,1.62-3.599,2.393
	c-0.239,0.151-0.743,0.15-0.964-0.007c-0.245-0.174-0.4-0.6-0.428-0.93c-0.13-1.487,0.162-2.862,1.048-4.124
	c2.289-3.259,4.545-6.542,6.78-9.839c0.909-1.341,1.78-2.715,2.579-4.124c1.251-2.209,0.758-2.123-0.803-4.271
	c-0.593-0.817-1.443-1.106-2.389-0.925c-1.782,0.341-3.536,0.835-5.323,1.14c-3.032,0.517-6.078,0.953-9.125,1.373
	c-0.295,0.041-0.874-0.224-0.914-0.428c-0.094-0.474-0.135-1.201,0.145-1.468c1.701-1.625,3.52-3.127,5.257-4.716
	c1.335-1.221,2.674-2.449,3.887-3.786c0.823-0.907,0.035-2.883-1.224-2.95c-1.784-0.095-3.608-0.028-5.374,0.242
	c-2.077,0.318-4.11,0.786-6.887-0.028C183.864,161.052,187.013,160.248,190.117,159.297z M136.747,136.222
	c0.636-1.693,2.729-2.744,4.388-2.074c1.741,0.703,2.984,2.027,3.574,3.79c0.186,0.555-0.084,1.438-0.445,1.966
	c-0.868,1.273-2.19,1.8-3.454,1.703C138.173,141.539,135.944,138.362,136.747,136.222z M143.805,169.462
	c-0.508,0.495-0.968,1.07-1.552,1.451c-1.855,1.209-3.654,0.372-3.879-1.845c-0.107-1.052-0.045-2.158,0.162-3.195
	c0.27-1.355,1.321-1.994,3.407-1.97c0.425,0.365,1.171,1.027,1.939,1.662C145.617,166.997,145.691,167.622,143.805,169.462z
	 M66.159,153.652c1.818,1.103,1.843,2.817,1.429,4.75c-0.566,2.647-0.94,5.341-1.291,8.028c-0.363,2.782,0.451,5.383,1.549,7.89
	c0.514,1.174,2.045,1.794,3.199,1.233c1.785-0.869,3.619-1.73,5.198-2.909c2.536-1.893,4.963-1.84,7.55-0.276
	c3.095,1.87,6.206,3.714,9.312,5.565c1.55,0.924,3.079,1.889,4.668,2.74c1.222,0.654,2.487,0.436,3.612-0.3
	c0.75-0.491,1.411-1.118,2.111-1.685c0.969-0.785,1.206-1.838,0.779-2.923c-0.596-1.513-1.319-2.98-2.058-4.431
	c-2.799-5.498-0.914-8.144,3.162-11.755c0.257-0.227,0.709-0.226,0.986-0.441c1.709-1.327,3.457-2.615,5.064-4.058
	c1.162-1.044,1.135-2.556,0.338-3.975c-0.907-1.615-2.405-2.178-4.069-2.307c-3.07-0.237-6.15-0.349-9.227-0.496
	c-1.385-0.067-2.415-0.507-2.806-2.022c-0.63-2.441-1.364-4.855-2.055-7.281c-0.895-3.142-1.886-6.251-4.093-8.765
	c-1.233-1.404-3.033-1.42-4.289-0.053c-0.593,0.645-1.09,1.432-1.44,2.238c-0.864,1.988-1.534,4.062-2.442,6.028
	c-0.663,1.434-0.634,3.498-2.337,4.066c-1.052,0.351-2.419-0.34-3.653-0.417c-1.443-0.09-2.896-0.021-4.345-0.021
	c0-0.024,0-0.048,0-0.073c-1.087,0-2.181,0.076-3.261-0.015c-2.398-0.202-3.583,1.167-4.543,3.112
	c-0.531,1.076-0.536,1.957-0.175,3.07C63.7,150.231,64.05,152.372,66.159,153.652z M79.156,156.28
	c1.986-1.54,3.249-3.326,4.162-5.532c0.962-2.325,1.934-4.646,2.944-6.95c0.117-0.267,0.496-0.556,0.774-0.578
	c0.277-0.022,0.706,0.208,0.846,0.453c0.355,0.622,0.627,1.302,0.858,1.983c0.523,1.543,1.045,3.089,1.488,4.656
	c0.913,3.225,2.665,5.4,6.328,5.456c0.409,0.006,0.81,0.526,1.33,0.887c-0.401,0.776-0.612,1.502-1.067,2.011
	c-2.287,2.559-3.422,5.464-3.188,8.942c0.101,1.497-0.589,1.811-2.076,1.131c-2.144-0.98-4.404-1.792-6.369-3.056
	c-2.768-1.781-5.475-2.692-8.683-1.333c-0.893,0.378-1.104-0.102-1.123-1.171C75.329,160.135,77.061,157.904,79.156,156.28z
	 M307.943,149.145c-0.001-1.276,1.496-3.516,2.69-3.737c1.435-0.265,2.901-0.375,3.799,1.248c0.425,0.768,1.012,1.447,1.4,1.991
	c-0.134,0.89-3.029,3.966-3.615,4.091C309.792,153.253,307.945,151.7,307.943,149.145z M309.554,120.514
	c-1.265-1.861-1.861-3.762-1.068-6.07c1.414-4.118,3.405-4.953,7.233-2.79c1.757,0.993,3.529,3.85,3.562,5.743
	c0.034,1.949-1.599,4.586-3.193,5.158C313.22,123.584,311.216,122.961,309.554,120.514z M270.889,125.71
	c4.195-3.586,7.186-8.104,6.827-13.149c0.118-4.486-0.629-6.091-3.659-8.157c-1.63-1.111-3.341-2.157-5.14-2.952
	c-2.908-1.285-5.936-0.03-7.157,2.84c-0.84,1.975-1.675,3.968-2.286,6.021c-1.305,4.384-1.969,8.836,0.211,13.146
	C262.069,128.174,266.559,129.412,270.889,125.71z M263.215,110.739c0.351-1.963,1.3-2.916,2.681-2.87
	c2.286,0.077,4.487,1.514,4.316,3.304c-0.334,3.503-0.146,7.334-3.769,9.609c-0.789,0.495-1.689,0.236-2.317-0.537
	c-1.402-1.724-0.734-3.844-1.301-5.965C262.934,113.249,262.994,111.979,263.215,110.739z M244.78,196.543
	c0,0.092,0.071,0.315-0.011,0.433c-1.171,1.684-1.848,3.887-4.269,4.294c-0.462,0.078-1.069-0.011-1.449-0.264
	c-1.612-1.075-1.782-2.955-2.383-4.586c-0.053-0.143,0.046-0.346,0.088-0.518c0.372-1.514,2.337-2.807,4.169-2.746
	C242.213,193.198,244.554,195.213,244.78,196.543z M370.224,126.21c-3.353-5.56-6.82-11.065-11.582-15.658
	c-3.506-3.382-6.947-6.947-9.766-10.894c-2.57-3.598-5.764-6.461-8.929-9.371c-3.725-3.425-7.814-6.451-11.673-9.734
	c-8.974-7.635-18.139-14.997-28.451-20.804c-1.258-0.708-2.382-1.656-3.555-2.51c-3.795-2.761-7.463-5.718-11.404-8.25
	c-5.488-3.527-11.36-6.377-17.256-9.187c-4.298-2.048-5.013-1.787-2.505-6.756c0.459-0.911,0.762-2.115,0.59-3.087
	c-0.405-2.287-3.123-4.475-5.416-4.552c-2.541-0.085-5.088-0.011-7.63-0.073c-1.319-0.032-1.752-0.617-2.002-2.037
	c-0.753-4.278-1.427-8.576-2.404-12.804c-0.395-1.709-1.384-3.321-2.306-4.856c-0.831-1.383-2.46-1.639-3.801-0.814
	c-0.456,0.281-0.928,0.598-1.26,1.007c-3.523,4.333-7.912,7.951-10.466,13.095c-1.02,2.053-1.298,2.024-3.445,1.179
	c-2.926-1.152-5.927-1.57-9.056-1.557c-3.808,0.015-7.622-0.083-11.425-0.281c-2.893-0.15-5.769-0.699-8.66-0.778
	c-7.062-0.194-14.091-0.433-21.081-1.739c-5.416-1.013-10.854-0.212-16.2,1.019c-1.414,0.326-2.819,0.702-4.246,0.953
	c-1.091,0.191-2.151,0.08-3.022-0.79c-2.418-2.415-5.584-3.3-8.746-4.15c-3.673-0.987-7.372-1.874-11.042-2.871
	c-9.117-2.478-18.221-3.062-27.328,0.035c-0.858,0.292-1.722,0.585-2.605,0.783c-1.113,0.25-2.172,0.114-2.993-0.802
	c-0.842-0.94-1.611-1.957-2.53-2.813c-1.317-1.226-2.593-2.628-4.157-3.427c-2.237-1.142-4.689-1.898-7.101-2.657
	c-5.016-1.579-10.063-1.225-15.005,0.283c-6.225,1.9-8.947,6.428-7.962,12.836c0.11,0.716,0.225,1.432,0.3,2.152
	c0.779,7.499,2.792,14.547,7.422,20.669c0.74,0.979,2.014,2.264,1.796,3.071c-0.253,0.938-1.842,1.566-2.914,2.225
	c-5.869,3.608-10.927,8.284-16.401,12.412c-4.174,3.148-8.533,6.136-12.277,9.748c-5.317,5.13-10.19,10.726-15.165,16.203
	c-2.91,3.203-5.395,6.764-8.104,10.131c-3.666,4.556-6.634,9.471-9.01,14.772c-0.664,1.48-1.262,3.029-1.602,4.608
	c-1.414,6.562-3.196,12.992-6.52,18.878c-1.657,2.935-1.781,5.816-0.285,8.827c0.563,1.133,1.105,2.31,1.414,3.529
	c1.465,5.779,3.154,11.474,4.97,17.164c3.197,10.019,5.995,20.135,10.877,29.527c2.005,3.858,3.755,7.848,5.689,11.744
	c2.334,4.702,4.481,9.525,7.193,14.002c2.561,4.229,4.453,8.763,6.277,13.258c2.538,6.258,5.83,12.016,9.356,17.707
	c1.996,3.222,3.796,6.567,5.671,9.865c1.877,3.302,3.756,6.603,5.599,9.924c2.021,3.642,4.106,7.254,5.978,10.972
	c2.687,5.335,5.153,10.78,7.823,16.124c1.046,2.095,2.486,3.991,3.572,6.068c2.76,5.279,5.848,10.374,8.136,15.92
	c1.717,4.161,4.32,7.949,6.205,12.052c3.247,7.068,6.217,14.264,9.358,21.382c1.184,2.684,2.055,5.392,2.143,8.374
	c0.047,1.601,0.298,3.336,0.989,4.751c1.661,3.4,3.121,6.881,5.707,9.838c3.325,3.801,6.177,8.017,9.23,12.055
	c3.713,4.911,7.229,9.968,11.759,14.225c3.716,3.492,7.809,6.302,12.575,8.128c2.862,1.096,5.741,2.158,8.56,3.357
	c4.733,2.012,9.652,3.216,14.778,3.412c5.035,0.192,10.077,0.191,15.117,0.275c-0.001-0.038-0.002-0.076-0.003-0.114
	c5.411-0.142,10.832-0.122,16.229-0.473c5.216-0.338,10.465-0.754,15.35-2.95c0.826-0.371,1.676-0.717,2.547-0.951
	c5.757-1.546,11.529-3.036,17.281-4.599c1.216-0.33,2.379-0.865,3.549-1.348c2.009-0.829,3.967-1.797,6.013-2.517
	c4.594-1.619,9.048-3.468,13.277-5.952c6.328-3.716,11.74-8.381,16.371-14.058c3.585-4.395,6.102-9.381,8.577-14.411
	c1.279-2.6,3.005-5.106,3.642-7.86c0.636-2.747,1.958-5.027,3.149-7.443c0.635-1.288,1.294-2.565,1.905-3.864
	c1.921-4.081,3.871-8.152,4.916-12.576c3.922-6.932,5.832-14.722,9.381-21.846c2.251-4.519,4.213-9.163,6.834-13.519
	c1.856-3.083,3.376-6.404,4.722-9.75c3.431-8.531,6.677-17.136,10.007-25.707c0.458-1.178,1.107-2.297,1.443-3.505
	c1.738-6.262,3.798-12.345,7.061-18.055c2.856-4.998,4.991-10.393,7.201-15.73c3.179-7.678,7.465-14.864,9.971-22.856
	c1.73-5.517,3.966-10.875,5.705-16.39c1.895-6.01,3.875-11.959,6.971-17.482c0.352-0.627,0.522-1.353,0.797-2.026
	c1.839-4.511,3.703-9.013,5.516-13.535c0.607-1.514,1.197-3.05,1.603-4.625c0.63-2.443,1.158-4.917,1.616-7.4
	C372.523,135.239,372.768,130.428,370.224,126.21z M345.769,165.513c0.176-0.433,0.034-0.536-0.423-0.31
	c-0.141-0.104-0.141-0.104-0.141-0.104c0.141,0.104-0.034,0.536-0.351,0.866c-0.317,0.329-0.457,0.225-0.738,0.017
	c0.035-0.537-0.281-0.208-0.737,0.016c0.081-0.084,0.177-0.184,0.316-0.328c0.631-0.657,0.49-0.76,0.35-0.864
	s-0.422-0.312-0.422-0.312c0.315-0.327,0.174-0.431,0.033-0.535c-0.455,0.223-0.141-0.104,0.488-0.758
	c0.769-0.55,0.77-0.551,0.628-0.654c0,0,0.172-0.43,0.314-0.327c0.314-0.327,0.283,0.206,0.11,0.636
	c-0.205,0.964-0.065,1.068,0.251,0.74c0.457-0.225,0.74-0.019,0.881,0.084c0.045,0.262,0.151,0.372,0.312,0.38
	c-0.339,0.804-0.68,1.608-1.02,2.412C345.488,166.242,345.62,165.882,345.769,165.513z M336.484,151.603c0,0,0,0,0.141,0.102
	c0.06,0.044,0.151-0.002,0.253-0.082c-0.143,0.162-0.287,0.323-0.43,0.484C336.296,151.973,336.265,151.854,336.484,151.603z
	 M347.6,161.795c-0.006,0.001-0.009,0.004-0.015,0.006c-0.873,0.477-0.879,0.481-0.176,0.445c-0.078,0.183-0.155,0.366-0.233,0.549
	c-0.227,0-0.55-0.012-0.642-0.079c-0.71-0.515-1.093-1.345-0.363-1.93c0.44-0.239,0.44-0.239,0.879-0.479
	c0.298-0.341,0.44-0.24,0.44-0.24c0.142,0.102,0.548-0.031,0.918-0.257C348.148,160.475,347.88,161.137,347.6,161.795z
	 M232.111,44.487c0.778-1.631,1.639-3.223,2.45-4.839c0.24-0.478,0.406-0.992,0.628-1.544c-0.276-0.468-0.455-1.019-0.827-1.356
	c-1.742-1.582-2.825-3.291-1.445-5.653c0.13-4.135,2.187-7.609,3.96-11.149c0.51-1.019,0.94-2.433,2.498-2.573
	c0.121,1.07,0.267,2.138,0.359,3.211c0.199,2.341,0.29,4.695,0.575,7.026c0.31,2.529,0.974,4.951,2.629,7.014
	c1.016,1.266,2.262,1.846,3.811,1.456c2.103-0.53,4.162-1.234,6.259-1.791c1.187-0.315,2.085,0.677,1.83,1.92
	c-0.072,0.353-0.14,0.71-0.248,1.053c-1.351,4.315-2.703,8.631-4.079,12.938c-0.102,0.318-0.411,0.827-0.591,0.814
	c-0.484-0.036-1.103-0.174-1.397-0.509c-1.311-1.494-2.536-3.065-3.775-4.621c-1.548-1.943-3.605-2.376-5.87-1.815
	c-1.925,0.477-3.788,1.2-5.696,1.754c-0.25,0.072-0.707-0.137-0.882-0.361C232.114,45.222,231.992,44.736,232.111,44.487z
	 M134.275,85.042c-3.179-1.699-6.381-3.455-8.782-6.203c-2.735-3.129-5.404-6.297-8.68-8.894c-0.711-0.563-0.433-1.904,0.407-2.238
	c0.839-0.334,1.69-0.652,2.558-0.9c3.821-1.088,7.641-2.181,11.477-3.212c7.229-1.943,12.875-6.317,17.896-11.631
	c2.827-2.993,5.448-6.158,7.636-9.667c0.214-0.043,0.31-0.014,0.31-0.014c0.247,0.29,0.108,0.654-0.407,1.089
	c-0.074,0.063,0.029,0.215,0.418,0.611c0.105,0.152,0.391,0.397,0.497,0.55c0.182,0.093,0.182,0.093,0.211,0.306
	c-0.154,0.119-0.125,0.33-0.125,0.33c0.211,0.303,0.647-0.257,0.433-0.567c0.077-0.059,0.047-0.274,0.123-0.334
	c0.153-0.12,0.261,0.036,0.369,0.192c0,0-0.077,0.059-0.154,0.119c-0.077,0.059-0.047,0.273-0.047,0.273
	c0.107,0.155,0.215,0.309,0.137,0.367c-0.078,0.058-0.155,0.116-0.262-0.038c0,0,0,0-0.078,0.058c0,0,0.112,0.15,0.2,0.314
	c0.079-0.058,0.094,0.161,0,0c-0.078,0.058-0.064,0.276,0.029,0.436c0.014,0.217,0.014,0.217,0.014,0.217
	c0.079-0.057,0.158-0.114,0.426,0.152c0.254,0.049,0.254,0.05,0.014,0.217l-0.16,0.111l0.442,0.371
	c0.255,0.052,0.351,0.214,0.351,0.214c0.014,0.215-0.053,0.482-0.041,0.694c0.019,0.209,0.096,0.377,0.259,0.492
	c0.164,0.115,0.246,0.283,0.327,0.451c0.082,0.167,0.165,0.117,0.332,0.017c0.001-0.219,0.084-0.27,0.167-0.101
	c0.166,0.34,0.245,1.163,0.158,1.423c-0.087,0.262-0.087,0.261-0.002,0.214c0.085-0.047,0.253,0.073,0.421,0.195
	c0.255,0.289,0.326,0.251,0.326,0.251c-0.07-0.176,0.086-0.046,0.139,0.351c0.21,0.526,0.21,0.526,0.454,0.614
	c0.087-0.044,0.174-0.087,0.103-0.264c0.087-0.044,0.087-0.044,0.245,0.089c0.142,0.355,0.285,0.712,0.181,0.973
	c-0.088,0.042-0.088,0.042-0.159-0.135c-0.071-0.177-0.142-0.354-0.387-0.443c-0.157-0.132-0.174,0.086-0.017,0.219
	c0.07,0.175,0.212,0.527,0.124,0.568c-0.029,0.221,0.149,0.556,0.382,1.275c0.284,0.902,0.342,1.082,0.579,1.19
	c0.181-0.073,0.271-0.11,0.361-0.146c0.032-0.219-0.199-0.953-0.378-0.875c-0.09,0.039-0.179,0.077-0.236-0.105
	c0.09-0.039,0.09-0.039,0.09-0.039c0.089-0.039,0.179-0.077,0.154-0.483c0.029-0.222,0.036-0.437,0.111-0.26
	c0.166,0.136,0.3,0.287,0.425,0.02c0.091-0.041,0.105-0.26-0.04-0.622c-0.073-0.181-0.145-0.361-0.057-0.403
	c0.081-0.04,0.394,0.68,0.335,1.132c-0.031,0.226-0.004,0.636,0.113,1.007c0.117,0.371,0.176,0.557,0.027,0.408
	c-0.09,0.037-0.122,0.258-0.063,0.442c-0.032,0.22,0.059,0.184,0.149,0.149c0.212-0.294,0.358,0.489,0.263,1.143
	c-0.083,0.442-0.188,0.884-0.369,0.946c-0.184,0.064-0.141,0.25-0.052,0.622c0.044,0.186,0.089,0.372,0.226,0.529
	c-0.025,0.008-0.057,0.018-0.093,0.029c-0.141,0.245-0.141,0.244,0.089,0.373c0.186-0.058,0.369,0.289,0.369,0.289
	c0.138,0.16,0.09,0.375,0.045,0.188c-0.093,0.028-0.186,0.055-0.186,0.055c0.094,0.375-0.292,0.88-0.425,0.719
	c-0.092,0.026-0.044-0.185-0.044-0.185c0.093-0.027,0.093-0.027,0.048-0.212c0,0,0,0-0.093,0.027
	c-0.194,0.056-0.125,0.233-0.069,0.61c0.154,0.35,0.091,0.563-0.034,0.401c-0.03-0.187-0.094,0.025,0.03,0.188
	c0,0,0.125,0.163,0.313,0.114c0.283-0.074,0.283-0.074,0.125,0.164c-0.158,0.237-0.158,0.236,0.061,0.378
	c0.125,0.165,0.409,0.096,0.504,0.072l0.378-0.094l0.062,0.983c0.076,0.978,0.301,1.328,0.677,1.252
	c0.191-0.039,0.287-0.059,0.287-0.059c-0.174,0.237-0.138,0.63,0.053,0.593c0,0,0.018,0.198,0.036,0.395
	c0,0-0.192,0.036-0.287,0.054c-0.096,0.018-0.192,0.036-0.156,0.428c0.018,0.196,0.036,0.392-0.06,0.409
	c0.21,0.163,0.21,0.164,0.018,0.196c-0.174,0.227-0.324-0.341-0.299-1.138c0.06-0.409-0.166-0.762-0.47-0.896
	c-0.4-0.111-0.698,0.919-0.296,1.039c0.209,0.157,0.245,0.543-0.061,0.402c-0.192,0.034-0.192,0.034-0.27,0.242
	c0.018,0.191,0.018,0.191,0.114,0.175c0,0,0.209,0.159,0.245,0.544c0.228,0.354,0.228,0.355-0.078,0.207
	c-0.288,0.045-0.384,0.06-0.27,0.236c0,0,0.114,0.177,0.21,0.162c0.096-0.015,0.324,0.341,0.535,0.508
	c0.227,0.556,0.213,0.561,0.595,0.114c0.27-0.236,0.347-0.447,0.407-0.855c0.023-0.8,0.335-1.662,0.545-1.499
	c0.096-0.018,0.114,0.182,0.132,0.381c0,0,0.096-0.017,0.192-0.034c0.288-0.052,0.726,0.488,0.553,0.723
	c-0.192,0.031-0.288,0.047-0.365,0.263c-0.096,0.015-0.192,0.03-0.21-0.17c-0.018-0.2-0.018-0.2-0.114-0.184
	c0,0-0.078,0.215-0.059,0.414c0.078,0.599-0.372,1.663-0.581,1.488c-0.198-0.173-0.291,0.038-0.194,0.025
	c0.004,0.198,0.009,0.396-0.088,0.408c-0.097,0.012-0.194,0.024-0.194,0.024c-0.004-0.197-0.101-0.185-0.295-0.161
	c-0.194,0.024-0.286,0.231-0.282,0.427c0.004,0.195-0.083,0.597-0.18,0.607c-0.194,0.021-0.194,0.02,0.009,0.39
	c0.198,0.175,0.3,0.362,0.397,0.353c0,0,0.102,0.188,0.203,0.375c0.005,0.107,0.009,0.182,0.011,0.218c0-0.005,0-0.005-0.001-0.013
	c0,0-0.097,0.001-0.188,0.091c-0.097-0.005-0.193-0.009-0.193-0.009c-0.005-0.089-0.011-0.177,0.086-0.178
	c0.097-0.001,0.097-0.001,0.097-0.001c-0.005-0.094-0.102-0.09-0.296-0.085c-0.094,0.045-0.144,0.023-0.146-0.017
	c-0.003-0.097,0.042-0.248,0.137-0.354c0,0,0,0-0.194,0.018c-0.194,0.018-0.387,0.036-0.382,0.229c0,0,0.097-0.009,0.194-0.017
	c0.097-0.031,0.147,0.134,0.151,0.156c0.003,0.05-0.041,0.11-0.135,0.145c0,0,0,0,0.102,0.081c0.097,0.007,0.102,0.065,0.107,0.124
	c-0.008,0.056,0.086,0.072,0.086,0.072c0.095,0.015,0.102,0.016,0.107-0.047l0.092-0.055c0.09,0.007,0.116,0.081,0.092,0.147
	c-0.017,0.067-0.017,0.067-0.114,0.05c-0.192-0.038-0.047,0.187,0.137,0.246c0.181,0.068,0.201,0.011-0.126,0.087
	c-0.253,0.16-0.602,0.3-0.855,0.461l-0.507,0.321l0.539-0.099c0.286,0.062,0.381,0.082,0.381,0.082
	c-0.063,0.201-0.063,0.201-0.158,0.181c0,0-0.221,0.382-0.284,0.584c-0.188,0.604-0.093,0.625,0.128,0.243
	c0.095,0.021,0.191,0.041,0.191,0.041c0.128,0.243,0.065,0.444-0.126,0.403c-0.095-0.021-0.349,0.14-0.506,0.321
	c-0.379,0.563-0.632,0.724-0.697,0.28c-0.19-0.041-0.286-0.062-0.286-0.062c-0.063,0.201-0.03,0.424,0.065,0.444
	c0.032,0.222,0.032,0.222-0.126,0.403c-0.221,0.382-0.221,0.382,0.128,0.243c0.191,0.041,0.286,0.062,0.223,0.263
	c-0.158,0.181-0.063,0.201,0.128,0.243c0.381,0.082,0.574,0.769,0.162,1.11c0,0-0.095-0.021-0.191-0.041
	c0,0-0.063,0.201-0.125,0.403c0.032,0.222,0.032,0.222-0.063,0.201c-0.286-0.062-0.474,0.543-0.284,0.584
	c0.056,0.066,0.094,0.128,0.115,0.186c0.028,0.039,0.046,0.056,0.046,0.079c0.002,0.041-0.055,0.064-0.155,0.066
	c-0.11,0.04-0.123,0.094-0.114,0.432l0.003,0.013c-0.017,0.151-0.069,0.207-0.017,0.152c0.189-0.056,0.195-0.062,0.308,0.104
	c0.043,0.064,0.053,0.11,0.049,0.147c-0.019,0.026-0.038,0.053-0.057,0.079c-0.024,0.01-0.055,0.015-0.089,0.016
	c-0.095,0.003-0.115,0.011,0,0.107c-0.117,0.16-0.23,0.323-0.35,0.482c-0.106-0.06-0.305-0.012-0.437,0.193
	c-0.152,0.147-0.754,0.46-0.828,0.397c-0.074-0.064-0.148-0.127-0.148-0.127c-0.074-0.064-0.905,0.607-1.585,1.131
	c-0.152,0.147-0.303,0.294-0.528,0.377c-0.451,0.167-0.451,0.167-0.151,0.147c0.148,0.127,0.221,0.191,0.07,0.338
	c-0.078,0.211-0.082,0.485,0.066,0.612c0.221,0.191,0.221,0.191,0.225-0.083c0.155-0.421,0.61-0.862,0.758-0.734
	c0.148,0.127-0.082,0.485-0.688,1.072c-0.151,0.147-0.229,0.357-0.155,0.421c-0.151,0.147,0.074,0.064,0.303-0.294
	c0.347-0.336,0.428-0.411,0.444-0.186c-0.353,0.407-0.71,0.813-1.072,1.216c-0.085-0.033-0.104-0.102-0.056-0.232
	c0.078-0.211,0.004-0.274-0.221-0.191c-0.151,0.147-0.299,0.02-0.373-0.044c-0.074-0.064-0.373-0.044-0.373-0.044
	c-0.152,0.147-0.152,0.147-0.225,0.083c0.151-0.147,0.151-0.147,0.078-0.21c-0.074-0.064-0.148-0.127-0.07-0.338
	c0.229-0.357,0.381-0.504,0.381-0.504c0.221,0.191,0.377-0.23,0.155-0.421c-0.148-0.127-0.221-0.191-0.299,0.02l-0.454,0.441
	c0,0-0.078,0.21-0.004,0.274c-0.037-0.032-0.111-0.095-0.221-0.191c-0.594-0.235-0.82-0.152-0.602,0.313
	c0.144,0.401,0.14,0.675-0.082,0.485c-0.074-0.064-0.299,0.02-0.451,0.166c-0.152,0.147-0.225,0.083-0.299,0.02
	c-0.148-0.127-1.204,0.627-1.659,1.067c-0.303,0.294-0.229,0.357-0.082,0.485c0.295,0.254,0.295,0.254-0.155,0.421
	c-0.451,0.167-0.451,0.167-0.303,0.294c0.07,0.338-0.082,0.485-0.455,0.441c-0.074-0.064-0.221-0.191-0.295-0.255
	c-0.148-0.127-0.373-0.044-0.225,0.083c0.074,0.064-0.078,0.211-0.229,0.357c-0.151,0.147-0.229,0.357-0.004,0.274
	s0.299-0.02,0.373,0.044c-0.004,0.274-0.004,0.274-0.303,0.294c-0.074-0.064,0,0,0.148,0.127s0.144,0.401,0.066,0.612
	c-0.078,0.211-0.229,0.357-0.152,0.147c-0.074-0.064-0.07-0.338-0.218-0.465c0.004-0.274-0.221-0.191-0.373-0.044
	c-0.303,0.294-0.377,0.23-0.451,0.167c0,0-0.148-0.127-0.373-0.044l-0.524,0.103l0.07,0.338c0.148,0.127,0.221,0.191,0.672,0.024
	c0.225-0.083,0.451-0.167,0.074,0.064c-0.151,0.147-0.151,0.147-0.151,0.147c0.074,0.064,0.148,0.127,0.299-0.02
	c0.152-0.147,0.225-0.083,0.148,0.127c-0.229,0.357-0.156,0.421,0.148,0.127c0.225-0.083,0.225-0.083,0.07,0.338
	c-0.233,0.631-0.233,0.631-0.455,0.441c-0.059-0.077-0.405-0.014-0.492,0.073c-0.236-0.032-0.355-0.186-0.203-0.208
	c0.018,0.013,0.122-0.078,0.161-0.126c0.046-0.055,0.068-0.106,0.064-0.144c-0.008-0.076-0.12-0.103-0.345-0.02
	c-0.223,0.016-0.236-0.067-0.279-0.04c-0.025,0.01-0.002,0.057,0.06,0.131c0.125,0.148,0.143,0.27,0.143,0.27
	c-0.043,0.046-0.031,0.174,0.025,0.254c0.057,0.079,0.171,0.238,0.171,0.238c0.052,0.361-0.344,0.359-0.416,0.023
	c-0.028-0.102-0.092-0.195-0.16-0.275c-0.166-0.207-0.338-0.383-0.346-0.313c0.034,0.094-0.018,0.104-0.07,0.115
	c0.028,0.094,0.056,0.189,0.056,0.189c-0.058,0.011-0.058,0.011-0.083-0.083c-0.05-0.189-0.073-0.284-0.028-0.294
	c0.047-0.01,0.093-0.02,0.026-0.208c-0.034-0.094-0.098-0.179-0.098-0.179c-0.034,0.009-0.009,0.103,0.018,0.198
	c0.029,0.094,0.007,0.199-0.061,0.114c0.05-0.087-0.768,0.404-0.606,0.873c0.042,0.19,0.063,0.285-0.146,0.313
	c-0.021-0.095-0.461-0.136-0.67-0.109c-0.209,0.027-0.209,0.027-0.23-0.068c0,0-0.23-0.068-0.44-0.041
	c-0.419,0.054-0.357-0.639-0.148-0.666c0.188-0.122,0.397-0.149,0.376-0.245c-0.021-0.095-0.23-0.068-0.44-0.041
	c-0.114,0.115-0.583,0.165-0.941,0.212c-0.377,0.045-0.377,0.045-0.339,0.138c0.038,0.093,0.04,0.093,0.444,0.143
	c0.74-0.09,0.731-0.089,0.069,0.187l-0.568,0.24l-0.074,0.05l-0.341,0.115c-0.13,0.088-0.214,0.097-0.278,0.08
	c-0.025-0.013-0.049-0.026-0.074-0.039c-0.035-0.033-0.062-0.072-0.078-0.103c-0.045-0.087-0.136-0.262-0.136-0.262
	c-0.164,0.056-0.246,0.084-0.289,0.099C141.311,88.649,137.761,86.904,134.275,85.042z M93.546,32.285
	c-0.065,0.087-0.08,0.049-0.077-0.034c0.087-0.191,0.174-0.382,0.261-0.574c-0.003,0.018-0.008,0.034-0.011,0.052
	C93.769,31.988,93.628,32.337,93.546,32.285z M89.885,40.704c0.089-0.333,0.171-0.672,0.266-1.005
	c0.002-0.004,0.006-0.008,0.007-0.012c0.091-0.094,0.084-0.135,0.046-0.161c0.038-0.127,0.077-0.254,0.121-0.378
	c0.066-0.079,0.109-0.195,0.123-0.3c0.031-0.072,0.056-0.147,0.09-0.217c0.035-0.073,0.068-0.147,0.103-0.219
	c0.048-0.029,0.094-0.09,0.143-0.219c0.096-0.085,0.091-0.127,0.035-0.162c0.435-0.917,0.863-1.838,1.283-2.762
	c0.037,0.041,0.063,0.1,0.064,0.207c0.001,0.197,0.001,0.197,0.001,0.197c0.087-0.354,0.261-0.267,0.179,0.276
	c0.005,0.387,0.185,0.463,0.181,0.272c0.083-0.345,0.434-0.178,0.445,0.199c0.094,0.228,0.095,0.227,0.178,0.08
	c0.083-0.147-0.006-0.188-0.094-0.229c-0.089-0.041-0.005-0.19,0.078-0.34c0.083-0.15-0.004-0.192-0.092-0.235
	c-0.172,0.109-0.087-0.042-0.003-0.194c0.254-0.261,0.167-0.304,0.081-0.349c-0.081-0.041-0.186-0.094-0.074-0.434
	c0.121-0.537,0.22-0.691,0.207-0.493c0.085,0.047,0.17,0.094,0.351-0.006c-0.17-0.095-0.156-0.294,0.108-0.345
	c0.18-0.099,0.096-0.149,0.013-0.199c-0.084-0.049-0.073-0.252,0.124-0.342c0.191-0.092,0.191-0.091,0.216-0.287
	c-0.165-0.104-0.164-0.105,0.108-0.144c0.082,0.052,0.271-0.037,0.377-0.18l0.107-0.143c0.08,0.054,0.161,0.109,0.055,0.251
	c-0.106,0.142-0.049,0.39,0.033,0.443c0.081,0.053,0.081,0.053-0.023,0.192c-0.105,0.139-0.209,0.278-0.209,0.278
	c0.083,0.051,0.27-0.035,0.373-0.172c0.413-0.552,0.356-0.804,0.118-0.97c-0.081-0.056-0.13-0.306-0.13-0.306
	c-0.219,0.281-0.483,0.321-0.538,0.067c0.033-0.195,0.017-0.211,0.417-0.372c0.278-0.025,0.552-0.046,0.63,0.011
	c0.079,0.057,0.31-0.212,0.655-0.62c0.866-0.905,0.746-0.774,0.597-0.901c0,0,0,0-0.125,0.13c-0.125,0.13-0.126,0.13-0.224-0.188
	c-0.075-0.062-0.022-0.257,0.106-0.389c0,0-0.074-0.063-0.221-0.19c-0.203,0.071-0.204,0.072-0.388,0.401
	c-0.054,0.195-0.183,0.327-0.183,0.327c-0.292,0.002-0.639,0.439-0.369,0.412c0.077,0.059,0.154,0.118-0.042,0.199
	c-0.119,0.139-0.316,0.221-0.474,0.106c-0.213-0.157-0.582-0.232-0.745-0.139c0.103-0.224,0.204-0.45,0.307-0.674
	c0.046,0.051,0.111,0.106,0.212,0.181c0.278-0.027,0.156,0.117,0.078,0.058c-0.201,0.085-0.28,0.028-0.201,0.086
	c0.078,0.058,0.157,0.115,0.357,0.031c0.321-0.226,0.32-0.225,0.365-0.428c-0.076-0.06-0.229-0.18-0.429-0.094
	c-0.2,0.085-0.403,0.173-0.279,0.027l0.125-0.146c0.118-0.151,0.387-0.425,0.522-0.562c0.134-0.138,0.193-0.338,0.118-0.4
	c-0.284,0.019,0.255-0.552,0.752-0.627c0.432-0.131,0.574,0.002,0.36,0.065c-0.361,0.191-0.267,0.528-0.049,0.717
	c0,0,0.146,0.128,0.219,0.192c0,0,0.274-0.006,0.486-0.062c0.417-0.119,0.486-0.05,0.423,0.139
	c-0.125,0.378,0.021,0.507,0.215,0.198c0.4-0.367,0.469-0.3,0.679-0.098c0.079,0.323,0.279,0.27,0.339,0.083
	c0.13-0.12,0.13-0.12,0.198-0.052c0.135,0.135,0.266,0.02,0.269-0.229c0.276-0.477,0.145-0.621-0.134-0.392
	c0,0-0.068-0.07-0.136-0.14c-0.136-0.14-0.136-0.139-0.277-0.024c-0.142,0.114-0.209,0.047-0.347-0.09
	c-0.067-0.067-0.141-0.14,0.003-0.256c0.143-0.117,0.219-0.304,0.295-0.492c0.076-0.188,0.445-0.617,0.591-0.737
	c0.3-0.228,0.303-0.224,0.28,0.031c-0.087,0.183-0.02,0.255,0.195,0.218c0.065,0.073,0.13,0.146-0.02,0.255
	c0,0-0.141,0.117-0.349,0.162c-0.208,0.046-0.209,0.047-0.151,0.376c0.062,0.065,0.107,0.113,0.133,0.142
	c0.14-0.116,0.14-0.116,0.14-0.116c0.066,0.071,0.206-0.044,0.206-0.044c0.139-0.117,0.344-0.16,0.557-0.191
	c0.421-0.067,0.564-0.173,0.501-0.247c-0.063-0.074-0.062-0.075,0.208-0.033c0.207-0.032,0.207-0.032,0.351-0.139
	c0.083-0.182,0.025-0.259-0.539-0.084c-0.483-0.006-0.462-0.262,0.108-0.441c0.292-0.224,0.516-0.238,0.635-0.088
	c0.032-0.253,0.127-0.432,0.436-0.635c0.251-0.282,0.25-0.281,0.059,0.078c-0.249,0.28-0.248,0.28,0.059,0.078
	c0.307-0.203,0.517-0.226,0.517-0.226c0.057,0.078,0.057,0.078-0.095,0.18c0,0-0.305,0.202-0.457,0.302
	c-0.094,0.178-0.033,0.254,0.328,0.132c0.267,0.056,0.266,0.056,0.151-0.1c-0.056-0.075,0.182-0.364,0.345-0.451
	c0.158-0.092,0.259-0.265,0.204-0.345c0.162-0.095,0.961,0.109,0.857,0.283c0,0,0.039-0.023,0.136-0.081
	c0.097-0.057,0.255-0.159,0.477-0.26c0.449-0.222,0.598-0.298,0.5-0.466c0.052-0.244,0.056-0.244,0.707-0.469
	c0.36-0.055,0.526-0.107,0.763-0.415c0.446-0.283,0.572-0.439,0.324-0.548c-0.082-0.176-0.124-0.264,0.003-0.419
	c0.255-0.312,0.427-0.382,0.504-0.204c0.154,0.353,0.156,0.358,0.85,0.142c0.522-0.162,0.522-0.163,0.556-0.072
	c0.069,0.174,1.13-0.056,1.62-0.342c0.179-0.042,0.179-0.042,0.209,0.051c0.029,0.093,0.058,0.186-0.119,0.227
	c-0.178,0.042-0.356,0.083-0.325,0.176c0.062,0.185,0.413,0.103,0.561-0.032c0.12-0.227,0.708-0.168,0.557-0.033
	c0.11,0.373,0.309,0.424,0.431,0.195c0.094-0.328,0.307-0.258,0.56-0.005c0.204,0.065,0.203,0.065,0.538-0.089
	c0.157-0.124,0.157-0.124,0.157-0.124c-0.18,0.03-0.36,0.06-0.36,0.06c-0.024-0.094-0.024-0.094,0.157-0.124s0.338-0.155,0.498-0.28
	c-0.044-0.189,0.139-0.22,0.16-0.125c0.225,0.159,0.586,0.097,0.547-0.093c0,0,0.184-0.026,0.37-0.042c0,0,0.019,0.096,0.038,0.191
	c0,0,0.02,0.096,0.222,0.173c0.405,0.154,0.586,0.136,0.57,0.04c0,0,0.184-0.019,0.367-0.038c0.199,0.077,0.186-0.019-0.234-0.268
	c-0.22-0.173-0.033-0.192,0.185-0.019c0.218,0.173,0.77,0.114,0.755,0.018c-0.014-0.096-0.029-0.192-0.215-0.172
	c-0.015-0.096-0.015-0.096-0.015-0.096c0.186-0.02,0.373-0.039,0.387,0.057c0.202,0.088,0.202,0.089,0.174-0.105
	c-0.014-0.096-0.014-0.099-0.203-0.087c-0.187,0.02-0.202-0.076-0.216-0.172c0,0,0.186-0.029,0.377-0.031
	c0,0,0.19-0.008,0.176-0.104c-0.014-0.097,0.177-0.104,0.368-0.112c0.776,0.065,0.976,0.153,0.997,0.346
	c0.011,0.097,0.209,0.185,0.209,0.185c0.188-0.008,0.377-0.017,0.386,0.08c0.197,0.077,0.763,0.104,1.129-0.09
	c0.183-0.094,0.179-0.191-0.226-0.489c-0.207-0.197-0.216-0.295-0.022-0.292c0,0,0.379-0.091,0.767-0.085
	c0.382-0.092,0.383-0.092,0.388,0.005c0.005,0.097,0.203,0.197,0.589,0.202c0.387,0.011,0.387,0.023,0.39,0.117
	c0.003,0.098,0.198,0.209,0.39,0.223c0.194,0.111,0.194,0.111,0.194,0.111c-0.192-0.014-0.189,0.084,0.005,0.292
	c0.002,0.097,0.193,0.208,0.383,0.221c0,0,0-0.097-0.192-0.208c-0.001-0.097-0.002-0.097,0.381-0.168
	c0.192,0.013,0.192-0.084,0.192-0.181c-0.195-0.208,0.581-0.349,0.773-0.141c0,0,0,0,0.001-0.097
	c0.001-0.097,0.001-0.097-0.193-0.11c-0.388-0.027-0.389-0.124,0.002-0.194c0.588-0.157,0.587-0.05,0.581,0.242
	c-0.004,0.195-0.201,0.364-0.396,0.549c-0.388,0.265-0.577,0.35-0.388,0.46c-0.001,0.097-0.002,0.194-0.192,0.279
	c-0.189,0.182-0.19,0.182,0.188,0.11c0.188,0.014,0.567-0.055,0.567-0.055c0.188,0.024,0.376,0.048,0.568-0.026
	c0.192-0.074,0.219-0.755,0.034-1.072c-0.19-0.122,0.003-0.097,0.389-0.049c0.386,0.049,0.774,0.097,0.962,0.218
	c0.375,0.242,0.373,0.241,0.58,0.071c0.393-0.05,0.4-0.134,0.214-0.267c-0.181-0.218-0.176-0.315,0.034-0.484l0.217-0.262
	l0.174,0.328c-0.007,0.097-0.03,0.389-0.045,0.584c-0.031,0.389-0.23,0.452-0.42,0.417c-0.583,0.024-0.582,0.026-0.206,0.169
	c0.368,0.249,0.351,0.446-0.021,0.29c0,0-0.007,0.097-0.014,0.194c-0.006,0.089-0.011,0.155-0.014,0.194
	c0.203-0.17,0.391-0.129,0.571,0c0.359,0.262,0.93,0.266,0.762,0.038c-0.198,0.063-0.197,0.063-0.377-0.068
	c0.017-0.194,0.216-0.257,0.396-0.126c0.189,0.034,0.189,0.034,0.189,0.034c0.01-0.097,0.01-0.097-0.18-0.131
	c-0.189-0.034-0.18-0.131-0.162-0.325c0.209-0.16,0.219-0.257,0.027-0.291c0.052,0.009,0.118,0.021,0.192,0.034
	c0,0,0.393-0.028,0.596-0.09c0.213-0.159,0.214-0.159,0.041-0.387c-0.184-0.132-0.184-0.132,0.194,0.035
	c0.174,0.228,0.297,0.841-0.095,0.87c0,0-0.191-0.034-0.381-0.068l-0.191-0.034c-0.01,0.097,0.171,0.228,0.36,0.262
	c0.57,0.102,0.571,0.101,0.749,0.232c0.19,0.033-0.202,0.063-0.58-0.004c-0.179-0.13-0.189-0.034-0.011,0.097
	c-0.011,0.097,0.167,0.227,0.355,0.26c0.2-0.063,0.377,0.067,0.188,0.033c-0.197,0.051,0.546,0.22,1.119,0.258
	c0.589-0.061,1.325,0.21,1.104,0.358c-0.016,0.096-0.017,0.096,0.187,0.043c0.426-0.205,0.61-0.143,0.39-0.006
	c-0.017,0.096,0.148,0.246,0.331,0.3c0.183,0.054,0.183,0.054,0.202-0.042l0.203-0.042c0.203-0.042,0.368,0.108,0.184,0.054
	c-0.019,0.095-0.058,0.287,0.105,0.435c0.143,0.244,0.142,0.244,0.163,0.149c0.223-0.137,0.408-0.083,0.548,0.159
	c-0.021,0.095,0.182,0.053,0.388,0.011c0.391,0.006,0.57,0.075,0.726,0.233c0.336,0.221,0.335,0.221,0.18,0.063
	c0.024-0.095,0.047-0.189,0.252-0.22c0.229-0.125,0.774,0.067,0.543,0.191c-0.025,0.094-0.025,0.094,0.156,0.158
	c0.181,0.063,0.206-0.03,0.232-0.124c0,0,0.155,0.157,0.31,0.314l0.281,0.406c0.199-0.002,0.396,0.002,0.59,0.017l0.765,0.108
	l0.294,0.332c0.116,0.258,0.084,0.35,0.054,0.442l-0.031,0.092c0.175,0.072,0.206-0.02,0.237-0.112
	c0.031-0.092,0.207-0.019,0.383,0.053c0,0,0.32,0.237,0.496,0.309c0.172,0.081,0.172,0.081,0.172,0.081
	c0.033-0.091,0.035-0.094-0.106-0.264c-0.353-0.145-0.354-0.146,0.065-0.183c0.414-0.024,0.724,0.241,0.484,0.338
	c-0.239,0.1,0.206,0.531,0.717,0.778c0.171,0.082,0.306,0.255,0.269,0.345c-0.036,0.09,0.134,0.172,0.17,0.082
	c0.208-0.008,0.208-0.008,0.208-0.008c0.131,0.177,0.31,0.242,0.715,0.249c0.204,0.003,0.409,0.006,0.37,0.095
	c-0.04,0.089,0.827,0.461,1.036,0.466c0.166,0.092,0.167,0.092,0.125,0.18c-0.041,0.088,0.082,0.267,0.248,0.359
	c0.331,0.184,0.452,0.364,0.452,0.364c-0.043,0.087,0.071,0.276,0.228,0.377c0,0,0.202,0.014,0.044-0.087
	c-0.115-0.189,0.768,0.146,1.249,0.451c0.319,0.203,0.32,0.203,0.207,0.016c0.047-0.085,0.093-0.171,0.301-0.153
	c0.302-0.153,0.305-0.151,0.436,0.391c-0.048,0.085,0.064,0.27,0.064,0.27c0.152,0.112,0.153,0.112,0.206,0.392
	c0.102,0.195,0.102,0.195,0.102,0.195c0.099-0.168,0.253-0.056,0.304,0.222c0.203,0.388,0.656,0.717,0.761,0.553
	c0.052-0.082,0.205,0.029,0.358,0.139c0.153,0.111,0.306,0.221,0.566,0.17c0.31-0.127,0.309-0.123,0.546,0.2
	c0.091,0.202,0.091,0.202,0.035,0.282c-0.345-0.161-0.454,0.001-0.166,0.241c0.144,0.12,0.144,0.12,0.089,0.2
	c-0.055,0.08,0.519,0.557,1.011,0.837c0.504,0.269,0.843,0.744,0.918,0.949c-0.058,0.073,0.534,0.399,0.936,0.526
	c-2.071,2.334-4.11,4.698-6.264,6.953c-4.024,4.213-8.303,8.111-13.94,10.118c-0.853,0.304-1.69,0.688-2.568,0.877
	c-4.246,0.911-8.53,1.663-12.75,2.681c-2.987,0.72-5.909,1.725-8.827,2.703c-1.311,0.439-2.397,0.482-3.513-0.496
	c-2.024-1.774-4.328-3.267-6.162-5.211c-2.589-2.743-4.849-5.796-7.268-8.701C89.63,44.645,89.338,42.761,89.885,40.704z
	 M94.443,30.115c0.047-0.102,0.097-0.202,0.144-0.303C94.614,29.905,94.532,30.008,94.443,30.115z M86.858,57.696
	c0.165-0.852,0.162-2.244,0.626-2.431c1.251-0.506,1.729,0.836,2.324,1.669c0.409,0.573,0.64,1.299,1.122,1.787
	c1.088,1.102,2.54,1.951,2.172,3.858c-1.377,0.231-2.747,0.547-4.134,0.669c-1.415,0.125-1.875-0.359-1.993-1.819
	c-0.072-0.886-0.088-1.777-0.129-2.666C86.847,58.406,86.792,58.039,86.858,57.696z M91.269,74.168
	c3.879-1.832,8.123-1.731,12.249-2.178c0.75-0.081,1.726,0.546,2.371,1.107c3.799,3.305,7.91,6.221,11.239,10.107
	c3.056,3.567,6.861,6.402,10.762,9.063c0.744,0.507,2.626,0.252,1.974,1.805c-0.231,0.55-1.914,0.525-2.945,0.691
	c-0.53,0.086-1.086,0.015-1.63,0.015c-5.655,0.015-11.179-1.104-16.641-2.322c-4.316-0.962-7.997-3.302-10.687-7.004
	c-2.338-3.218-4.801-6.346-7.177-9.537C90.258,75.209,90.471,74.544,91.269,74.168z M161.803,98.704
	c2.959-3.128,5.554-6.54,8.221-9.91c1.498-1.893,2.342-4.044,3.568-6.025c1.001-1.617,2.131-1.517,2.965-0.405
	c2.046,2.728,4.401,5.257,6.176,8.146c1.601,2.605,2.2,5.697,2.414,8.778c0.079,1.141-0.484,2.025-1.495,2.694
	c-2.536,1.68-5.333,2.105-7.601,1.975c-5.503-0.074-9.818-1.901-14.069-3.9C161.744,99.946,161.594,98.924,161.803,98.704z
	 M72.904,15.962c0.124-2.411,0.48-2.795,2.89-2.837c0.362-0.006,0.725-0.001,1.088-0.001c3.808-0.169,7.052,1.495,10.174,3.331
	c1.861,1.094,3.505,2.561,5.224,3.888c0.115,0.089,0.209,0.182,0.293,0.277c-0.545,0.257-0.599,0.293-0.97,0.869l-0.476,0.561
	l-0.22-0.193c-0.108-0.426-0.629-0.216-0.591,0.143c0.041,0.361-0.146,0.517-0.47,0.577c0,0-0.177,0.179-0.276,0.418
	c-0.273,0.416-0.604,0.477-0.406-0.002c0.124-0.541-0.027-0.665-0.487-0.058c-0.356,0.364-0.356,0.364-0.199,0.481
	c0.336-0.057,0.207,0.461-0.281,0.728c-0.166,0.19-0.246,0.134-0.079-0.057c0.256-0.437,0.101-0.554-0.238-0.17
	c-0.506,0.579-0.426,0.932,0.23,0.473c0.491-0.266,0.487-0.263,0.397,0.282c-0.088,0.544-0.326,0.67-0.815,0.641l-0.244-0.163
	l0.081,0.352c0,0.297,0.166,0.402,0.408,0.27c0.082,0.054,0.081,0.055,0.003,0.294c-0.163,0.182-0.313,0.378-0.313,0.378
	c-0.081-0.051-0.166-0.106-0.012-0.299c0.162-0.185-0.087-0.059-0.317,0.09c-0.552,0.241-0.622,0.492-0.137,0.497
	c0.399-0.042,0.399-0.043-0.067,0.247c-0.299,0.392-0.617,0.491-0.788,0.394c-0.085-0.049-0.17-0.097-0.321,0.103
	c-0.156,0.188-1.171,0.516-1.121,0.257c0,0,0,0-0.143,0.215c-0.286,0.43-0.339,0.688-0.251,0.73c0,0,0,0-0.281,0.428
	c-0.23,0.172-0.35,0.404-0.263,0.441c-0.089-0.04-0.218,0.184-0.345,0.408c0,0,0.179,0.078,0.232,0.376
	c-0.036,0.26,0.145,0.335,0.145,0.335c0.125-0.22,0.125-0.22,0.215-0.181c0,0,0.09,0.039-0.034,0.257
	c-0.124,0.218-0.371,0.656-0.279,0.691c0.093,0.038-0.038,0.248-0.324,0.409c-0.403,0.384-0.949,1.531-0.867,1.814
	c0,0-0.189,0.204-0.376,0.149c-0.656,0.337-0.846,0.822-0.374,0.682c0.094,0.025,0.283,0.077,0.191,0.311
	c0.003,0.26,0.287,0.331,0.469-0.132c-0.007-0.264,0.744-1.07,0.84-0.778c0.125,0.04,0.117,0.432,0.002,0.807
	c-0.422,0.446-1.018,0.588-1.623,0.079C75.953,29.867,72.5,23.83,72.904,15.962z M18.788,149.695
	c-2.005-4.457-4.391-8.742-6.573-13.122c-0.843-1.692-1.218-3.41,0.167-5.086c4.539-5.491,7.717-11.812,10.608-18.234
	c2.717-6.037,6.512-11.25,10.893-16.095c4.487-4.962,9.001-9.906,13.652-14.713c3.139-3.244,6.658-6.05,10.403-8.636
	c3.54-2.446,7.172-4.819,10.278-7.907c1.485-1.477,3.59-2.34,5.45-3.419c0.188-0.109,0.88,0.173,0.901,0.333
	c0.096,0.708,0.048,1.438,0.025,2.159c-0.243,7.611,2.676,14.095,7.015,20.131c3.596,5.002,7.499,9.719,11.797,14.14
	c2.858,2.94,6.262,5.067,9.975,6.399c5.961,2.139,12.168,3.419,18.598,3.165c2.518-0.1,5.052-0.136,7.564,0.028
	c4.725,0.308,9.337-0.737,14.005-1.068c2.641-0.187,5.251-1.226,7.802-2.095c1.473-0.502,2.718-0.661,4.131,0.15
	c1.88,1.079,3.838,2.035,5.813,2.933c2.464,1.121,4.968,2.157,7.479,3.17c1,0.403,2.213,0.425,3.074,1.001
	c3.607,2.412,7.591,2.065,11.588,1.873c3.842-0.184,7.022-2.185,9.701-4.469c5.491-4.681,7.851-10.641,5.724-17.997
	c-0.864-2.988-1.843-5.744-3.71-8.336c-3.938-5.466-8.186-10.627-13.47-14.791c-1.877-1.479-2.299-2.977-2.126-5.124
	c0.218-2.711,0.237-5.442,0.256-8.166c0.04-5.576-1.381-10.746-4.327-15.511c-1.332-2.154-2.507-4.407-3.717-6.634
	c-0.472-0.869-2.042-1.516-1.165-2.64c0.576-0.738,1.86-1.059,2.889-1.276c1.409-0.297,2.895-0.536,4.315-0.418
	c5.24,0.438,10.498,0.837,15.688,1.642c3.397,0.527,6.703,1.505,10.202,1.029c0.988-0.134,1.848,0.45,1.996,1.451
	c0.452,3.05,2.884,3.93,5.213,4.886c3.394,1.394,6.969,1.904,10.624,1.996c1.27,0.032,1.557,0.577,1.025,1.723
	c-0.915,1.971-1.774,3.975-2.815,5.878c-1.312,2.399-2.04,5.03-3.13,7.479c-1.221,2.743-0.144,4.993,0.729,7.107
	c1.311,3.177,3.726,3.774,7.008,2.509c4.623-1.783,8.442-4.83,12.283-7.838c0.712-0.557,1.307-1.262,2.01-1.832
	c1.398-1.134,2.772-1.065,3.679,0.507c1.291,2.237,3.028,4.047,4.814,5.834c1.986,1.988,3.806,1.872,6.117-0.425
	c1.241-1.233,1.869-3.077,2.796-4.632c0.814-1.365,1.697-1.681,3.209-0.995c1.146,0.52,2.182,1.28,3.321,1.82
	c1.302,0.617,2.644,1.486,4.003,1.554c1.622,0.081,2.657,0.605,3.714,1.757c0.698,0.76,1.794,1.319,2.812,1.595
	c5.5,1.491,9.923,4.957,14.665,7.834c3.237,1.964,6.254,4.364,9.654,5.962c3.24,1.523,6.338,3.279,9.53,4.857
	c5.062,2.502,9.518,5.898,14.085,9.089c5.91,4.13,11.472,8.76,17.152,13.214c1.271,0.997,2.423,2.148,3.608,3.252
	c3.566,3.322,7.059,6.726,10.706,9.955c2.001,1.771,3.185,3.839,3.623,6.445c0.269,1.602,0.724,3.174,1.121,4.753
	c0.394,1.565,0.003,2.861-1.238,3.902c-0.278,0.233-0.5,0.541-0.797,0.741c-4.237,2.866-7.663,6.506-10.908,10.322
	c-0.242-0.115-0.278-0.017-0.365,0.243c-0.199,0.227-0.323,0.494-0.384,0.642c-0.174,0.208-0.347,0.417-0.52,0.625
	c-0.497-0.026-1.328,0.236-1.677,0.636c-0.529,0.411-0.508,1.203,0.062,1.309c-0.486,0.59-0.973,1.18-1.461,1.768
	c-0.112,0.036-0.27,0.154-0.466,0.379c-0.429,0.228-0.429,0.228-0.284-0.201c0.145-0.429,0.431-0.757,0.718-1.086
	c0.716-0.557,0.717-1.085,0.287-0.857c-0.859,0.456-3.43,3.404-4.154,5.025c-0.428,0.763-0.439,0.755-1.462,1.071l-1.323,0.626
	l0.12,0.626c-0.182,0.94-0.785,1.568-1.042,0.835l-0.022,0.523l-0.58,0.103c-0.719-0.003-0.718-0.004-1.041,0.834
	c-0.162,0.419-0.162,0.419,0.278,0.211c0,0,0,0-0.602,0.627c-0.902,0.94-1.203,1.254-1.479,1.04
	c-0.138-0.107-0.276-0.214-0.739,0.519c-0.3,0.313-0.901,0.939-1.038,0.832c-0.137-0.107-0.3,0.313-0.464,0.734
	c-0.027,0.529-0.028,0.53-0.901,0.94c-0.573,0.097-0.872,0.409-1.037,0.831c-0.465,0.735-0.465,0.736-0.601,0.627
	c0,0-0.178,0.136-0.469,0.313c-0.287,0.181-0.669,0.422-1.051,0.663c-0.943,0.889-1.707,1.37-2.155,1.555
	c-0.448,0.184-0.448,0.184-0.494,0.704c-0.047,0.521-0.047,0.521-0.762,0.48c-0.581,0.071-1.027,0.254-1.521,0.959
	c-0.314,0.296-0.941,0.888-1.073,0.775c-0.314,0.296-0.627,0.592-0.495,0.706c0.264,0.228,0.263,0.228-0.314,0.296
	c-0.132-0.114-0.576,0.068-0.89,0.364c-0.313,0.296-0.94,0.888-1.071,0.773c-0.313,0.296-0.94,0.888-1.566,1.48
	c-0.088,0.211-0.376,0.527-0.65,0.78c-0.27,0.258-0.516,0.466-0.516,0.466c-0.328,0.278-0.655,0.556-0.526,0.674c0,0,0,0-0.457,0.16
	c-0.456,0.16-0.912,0.32-0.783,0.438c-0.071,0.515-1.182,1.232-1.636,1.391c-0.582,0.04-0.908,0.317-0.982,0.835
	c-0.707-0.081-1.36,0.474-1.108,0.715c0.252,0.241,0.378,0.361,0.051,0.64c0,0-0.454,0.158-0.579,0.038
	c-0.377-0.362-0.377-0.362-0.453,0.158c-0.076,0.52-0.732,1.078-0.654,0.557c-0.125-0.121-0.25-0.242-0.452,0.157
	c-0.654,0.557-0.981,0.835-1.105,0.713c-0.124-0.122-0.327,0.278-0.53,0.679c-0.722,1.096-1.287,1.735-1.877,1.741l-0.369-0.373
	c0.216-0.382-0.925,0.267-1.701,1.293c-0.68,0.517-0.899,0.902-1.24,1.161l-0.22,0.385c-0.22,0.385-0.441,0.771-0.782,1.031
	c-0.563,0.646-1.024,0.78-0.802,0.393c-0.239-0.254-0.239-0.254-0.239-0.254c-0.341,0.259-0.681,0.519-0.681,0.519
	c0.119,0.127,0.119,0.127-0.222,0.387c-0.459,0.132-0.682,0.52-0.104,0.515c0.579-0.005,0.578-0.005-0.341,0.26
	c-0.459,0.132-0.8,0.392-0.8,0.392c0.118,0.128-0.565,0.649-1.364,1.04c-1.014,0.479-2.042,1.073-2.8,1.651
	c-0.753,0.587-1.229,1.17-1.177,1.554c0.229,0.264-0.127,0.504-0.469,0.108c-0.228-0.264-0.582-0.025-1.644,0.693
	s-1.77,1.198-1.882,1.064c0,0,0,0-0.354,0.24c0,0-0.354,0.24-0.243,0.374c0.222,0.268,0.222,0.268-0.487,0.748
	s-0.709,0.48-0.465,0.106c-0.11-0.135-0.221-0.269-0.221-0.269c-0.11-0.134-0.354,0.24-0.598,0.615
	c-0.379,0.885-1.909,1.713-1.771,1.201c0.144-0.498-0.686-0.181-2.519,0.898c-1.097,0.652-1.463,0.87-1.251,1.147
	c0.106,0.139,0.473-0.08,0.473-0.08c0.367-0.218,0.367-0.218,0.367-0.218c0.214,0.276-0.889,0.932-1.467,0.873
	c0,0-0.733,0.437-1.1,0.655c-0.262,0.358-0.367,0.219-0.576-0.061c0.157-0.497-0.313-0.419-0.313-0.419
	c-0.365,0.218-0.73,0.435-0.73,0.435c0.104,0.14-0.262,0.358-0.993,0.794c-1.097,0.654-1.828,1.091-1.727,1.232
	c0.101,0.141-0.265,0.36-0.732,0.437c-0.346,0.059-0.58,0.278-0.908,0.66c-2.641,0.911-5.248,1.934-7.866,2.923
	c-0.074-0.11-0.106-0.101-0.449,0.077l-0.376,0.195l0.117-0.012c-0.703,0.262-1.404,0.529-2.111,0.777
	c-8.887,3.127-17.731,6.402-26.727,9.185c-4.467,1.382-9.232,1.792-13.857,2.671c-10.582,2.011-12.287,2.163-26.35,1.835
	c-7.029,0.067-17.725-0.599-28.324-2.073c-6.788-0.944-13.613-1.981-20.198-4.108c-2.232-0.721-4.579-1.08-6.87-1.621
	c-0.882-0.208-1.773-0.403-2.626-0.702c-5.282-1.853-10.553-3.737-15.832-5.6c-0.854-0.301-1.715-0.737-2.591-0.789
	c-2.974-0.176-5.581-1.502-8.324-2.42c-6.201-2.074-12.06-4.888-17.792-8.003c-2.221-1.207-4.502-2.311-6.786-3.397
	c-3.117-1.482-6.007-3.336-8.806-5.328c-4.153-2.956-8.906-4.778-13.402-7.063c-5.668-2.88-11.183-5.868-15.864-10.267
	c-2.313-2.173-4.955-3.892-7.644-5.546c-0.031-0.027-0.055-0.051-0.09-0.08c-0.305-0.256-0.602-0.498-0.721-0.416
	c-0.107-0.065-0.213-0.131-0.32-0.196c-0.014-0.026-0.022-0.039-0.039-0.07c0.194-0.29-0.134-0.565-0.328-0.276
	c-0.237-0.199-0.346-0.174-0.27-0.045c-0.294-0.179-0.586-0.36-0.879-0.54c0-0.001,0.001-0.001,0.001-0.002
	c-0.001,0.001,0,0.001-0.001,0.002c-0.744-0.458-1.485-0.919-2.216-1.395c-2.268-1.477-4.654-2.885-6.574-4.75
	C21.667,153.914,19.88,152.123,18.788,149.695z M26.401,175.458c0.018-0.004,0.039-0.007,0.058-0.011
	c0.2,0.28,0.485,0.533,0.917,0.897c1.155,0.69,1.157,0.69,0.167,0.574c-0.255,0.007-0.631,0.212-0.887,0.483
	c-0.124-0.324-0.24-0.651-0.353-0.977C26.204,176.13,26.291,175.484,26.401,175.458z M173.298,399.164
	c-0.712,0.099-1.448,0.027-2.174,0.027c-0.014,0.08-0.028,0.161-0.042,0.241c-3.393-0.558-6.864-0.833-10.161-1.741
	c-4.877-1.343-9.836-2.506-14.402-4.848c-1.59-0.815-3.402-1.183-5.063-1.875c-5.192-2.162-9.081-5.921-12.258-10.429
	c-4.38-6.215-9.172-12.102-14.43-17.565c-2.415-2.509-4.077-5.475-6.168-8.166c-1.082-1.392-0.907-2.755,0.458-3.792
	c3.573-2.712,7.251-5.286,10.854-7.96c2.743-2.036,5.395-4.197,8.163-6.198c2.036-1.471,4.059-3.08,6.329-4.083
	c4.292-1.898,8.53-3.95,13.184-5.002c2.803-0.633,5.44-1.971,8.189-2.876c1.594-0.525,2.499,0.333,2.074,1.995
	c-0.535,2.089-1.268,4.128-1.947,6.179c-0.739,2.228-1.751,4.394-2.224,6.674c-1.059,5.106-1.947,10.252-2.716,15.41
	c-0.29,1.945-0.231,3.984-0.037,5.95c0.467,4.729,2.159,9.188,3.975,13.482c2.394,5.66,5.365,11.099,9.752,15.576
	c2.793,2.85,5.785,5.466,9.122,7.672c0.276,0.183,0.475,0.483,0.71,0.729C174.09,398.775,173.713,399.106,173.298,399.164z
	 M209.908,382.622c-2.942,3.083-6.428,4.769-10.367,5.342c-3.737,0.544-7.695,0.934-11.365,0.296
	c-8.523-1.481-15.755-5.306-19.704-13.627c-0.155-0.327-0.227-0.707-0.432-0.995c-4.9-6.871-5.255-14.857-5.633-22.83
	c-0.162-6.576,0.864-13.016,2.194-19.405c0.239-1.147,1.028-2.316,1.87-3.173c1.97-2.004,4.491-3.019,7.299-3.148
	c1.806-0.083,3.623-0.01,5.432,0.052c2.512,0.087,2.817,0.445,1.483,2.311c-2.339,3.271-2.904,6.956-3.093,10.799
	c-0.192,3.898,0.876,7.579,2.311,11.084c2.687,6.568,10.976,9.868,17.752,7.544c6.34-2.174,10.753-6.452,14.148-12.031
	c1.471-2.418,1.873-5.073,1.989-7.809c0.046-1.082-0.143-2.18-0.026-3.249c0.043-0.397,0.603-0.822,1.025-1.061
	c0.227-0.128,0.759,0.003,0.985,0.206c0.67,0.602,1.205,1.355,1.882,1.947c6.794,5.944,7.896,13.489,6.141,21.822
	c-1.478,7.014-4.495,13.372-8.606,19.188C213.554,378.205,211.92,380.514,209.908,382.622z M272.667,355.735
	c-3.708,4.717-5.711,10.489-9.323,15.238c-4.909,6.454-11.056,11.331-18.85,13.998c-3.424,1.172-6.812,2.49-10.109,3.979
	c-5.299,2.394-10.923,3.705-16.47,5.281c-0.688,0.195-1.403,0.294-2.063,0.429c-0.222-0.322-0.565-0.652-0.505-0.76
	c0.347-0.625,0.717-1.266,1.209-1.777c6.766-7.02,10.721-15.829,15.472-24.139c3.334-5.832,4.437-12.221,4.609-18.741
	c0.171-6.477-1.782-12.447-5.865-17.611c-0.897-1.134-1.784-2.278-2.615-3.46c-0.146-0.207-0.027-0.633,0.044-0.94
	c0.023-0.099,0.321-0.24,0.434-0.199c3.881,1.413,7.926,2.134,11.693,4.158c5.4,2.902,10.759,5.895,16.099,8.895
	c3.276,1.84,6.148,4.453,9.031,6.918c2.474,2.115,4.717,4.5,7.036,6.792C273.056,354.352,273.19,355.07,272.667,355.735z
	 M340.554,179.235c-0.978,2.475-1.387,5.11-2.658,7.538c-1.243,2.374-1.804,5.111-2.606,7.708c-0.797,2.579-1.38,5.231-2.309,7.759
	c-1.31,3.565-2.828,7.055-4.3,10.559c-2.458,5.849-4.927,11.695-7.44,17.52c-1.146,2.657-2.282,5.332-3.643,7.881
	c-3.62,6.781-5.321,14.192-7.427,21.49c-1.252,4.338-2.978,8.542-4.539,12.789c-0.997,2.714-2.141,5.374-3.114,8.096
	c-2.079,5.812-4.859,11.297-7.629,16.794c-2.196,4.359-4.556,8.657-6.414,13.158c-2.134,5.17-3.599,10.614-5.715,15.792
	c-2.056,5.032-2.925,10.412-4.948,15.433c-0.363,0.9-1.584,1.208-2.216,0.514c-2.192-2.408-4.395-4.811-6.472-7.316
	c-0.335-0.404-0.126-1.33-0.024-1.993c0.046-0.302,0.41-0.591,0.686-0.818c4.199-3.466,5.891-8.156,6.439-13.36
	c0.433-4.108,0.738-8.23,1.122-12.598c-3.114,2.588-4.573,6-6.477,9.031c-1.778,2.829-3.82,5.265-6.463,7.255
	c-1.879,1.415-3.718,2.881-5.575,4.324c-2.518-1.393-5.037-2.785-7.551-4.184c-0.155-0.086-0.277-0.231-0.411-0.352
	c-0.647-0.587-0.688-1.183-0.079-1.842c2.23-2.411,4.071-5.12,5.361-8.112c0.846-1.963,1.431-4.123,1.66-6.245
	c0.291-2.694,0.117-5.439,0.117-8.162c0-1.177-0.373-1.425-1.26-0.872c-5.582,3.481-10.484,7.681-14.054,13.292
	c-0.292,0.459-0.619,0.897-0.945,1.334c-3.444,4.61-3.422,4.546-8.599,2.652c-2.539-0.929-5.198-1.521-7.772-2.361
	c-2.285-0.746-2.446-1.335-1.068-3.217c0.64-0.876,1.163-1.93,2-2.55c1.795-1.329,2.316-3.156,2.575-5.183
	c0.418-3.274,0.161-6.508-0.56-9.714c-0.278-1.233-0.557-2.467-0.887-3.687c-0.068-0.254-0.366-0.634-0.546-0.627
	c-0.322,0.012-0.744,0.192-0.932,0.444c-1.299,1.746-2.766,3.415-3.768,5.324c-2.001,3.813-5.106,6.536-8.346,9.169
	c-1.675,1.362-3.55,2.483-4.721,4.408c-0.62,1.019-1.672,1.372-2.844,1.146c-4.856-0.934-9.762-0.636-14.657-0.651
	c-1.231-0.004-1.635-0.661-1.137-1.724c0.384-0.819,0.754-1.659,1.254-2.408c3.571-5.349,4.862-11.225,4.192-17.584
	c-0.114-1.081-0.083-2.177-0.119-3.265c-0.882,0.725-1.833,1.382-2.635,2.187c-5.538,5.558-9.99,11.887-13.496,18.909
	c-0.882,1.766-2.103,3.37-3.242,4.996c-0.28,0.4-0.813,0.729-1.293,0.863c-1.569,0.436-3.161,1.04-4.757,1.083
	c-4.073,0.11-7.859,1.216-11.594,2.691c-0.823,0.325-1.745,0.435-2.634,0.541c-0.266,0.032-0.596-0.257-0.848-0.459
	c-0.063-0.051,0.019-0.361,0.107-0.51c0.995-1.688,1.885-3.453,3.03-5.034c3.442-4.752,2.66-9.592,0.274-14.358
	c-0.99-1.976-2.051-3.818-1.918-6.113c0.018-0.305-0.273-0.627-0.42-0.941c-0.451,0.256-1.078,0.398-1.329,0.785
	c-4.56,7.015-8.104,14.538-10.863,22.419c-0.736,2.102-1.677,3.943-3.222,5.567c-0.979,1.029-1.621,2.38-2.4,3.596
	c-1.597,2.493-3.614,4.48-6.309,5.832c-1.925,0.966-3.69,2.248-5.548,3.354c-0.261,0.156-0.742,0.259-0.939,0.124
	c-0.235-0.162-0.471-0.699-0.37-0.918c2.77-6.025,1.985-12.443,2.097-18.757c0.016-0.889-0.021-1.898-0.421-2.645
	c-0.556-1.038-0.771-2.586-2.388-2.657c-1.356-0.06-2.616,0.515-3.291,1.621c-2.274,3.727-4.414,7.575-4.765,12.036
	c-0.634,8.047-4.148,14.901-8.56,21.41c-0.758,1.119-2.068,1.008-2.546-0.173c-0.336-0.831-0.706-1.696-0.798-2.573
	c-0.706-6.755-3.069-13.023-5.575-19.249c-1.28-3.18-2.577-6.356-3.943-9.5c-3.112-7.164-7.25-13.779-11.077-20.562
	c-0.612-1.086-1.165-2.22-1.606-3.384c-1.787-4.717-4.064-9.197-6.219-13.747c-1.858-3.922-3.943-7.71-5.843-11.599
	c-3.266-6.687-6.941-13.111-10.999-19.353c-3.046-4.685-5.761-9.574-7.978-14.767c-2.197-5.146-4.831-10.091-7.997-14.8
	c-3.512-5.223-6.518-10.835-9.257-16.512c-1.239-2.567-2.596-5.051-3.999-7.509c-0.009-0.025-0.026-0.051-0.045-0.079
	c-0.487-0.852-0.977-1.703-1.474-2.55c0.05-0.268,0.029-0.558-0.071-0.721c-0.357-0.281-0.623-0.71-0.53-0.858
	c0.092-0.148,0.185-0.296,0.185-0.296c-0.289-0.33-0.504-0.213-0.646,0.071c-0.072-0.122-0.144-0.245-0.216-0.367
	c-0.101-0.169-0.191-0.345-0.279-0.523c0.114-0.1,0.222-0.262,0.349-0.464c-0.077-0.721,0.372-0.589,0.279-0.442
	c0.262,0.427,0.17,0.574,0.077,0.722l-0.093,0.147c0.356,0.28,0.897,0.264,1.082-0.031c0.278-0.443,0.724-0.312,1.079-0.034
	c0.355,0.279,0.629-0.167,0.107-1.018c-0.614-0.703-0.614-0.703-0.446-0.13c0.076,0.721-0.632,0.164-0.8-0.409
	c-0.1-0.162-0.065-0.412,0.034-0.644c0.265,0.204,0.521,0.422,0.766,0.643c0.953,0.859,1.915,1.707,2.884,2.542
	c-0.031,0.052-0.055,0.09-0.055,0.09c-0.565,0.152,0.099,0.375,0.628,0.403c0.253,0.215,0.507,0.43,0.762,0.643
	c-0.499,0.177-0.537,0.561-0.072,1.092c-0.444-0.129-0.8-0.408-0.18,0.3c-0.091-0.072-0.199-0.156-0.355-0.279
	c-0.8-0.408-1.162,0.189-0.54,0.899c-0.09,0.15,0,0,0.09-0.15c-0.086-0.729,0.269-0.45,0.801,0.409
	c0.266,0.429,0.177,1.462-0.626,1.052c-0.446-0.13-0.984,0.77-0.266,1.334c0.355,0.286,0.727,0.551,0.27,0.432
	c-0.622,0.166-0.725,0.333,0.016,0.871c0.281,0.421,0.369,0.271,0.545-0.031c0.088-0.151-0.105-0.721-0.017-0.871
	c-0.643-0.695-0.461-0.999,0.352-0.601c0.455,0.119,0.543-0.032,0.631-0.182c0,0,0.088-0.15,0.176-0.301
	c0,0,0.366,0.268,0.557,0.837c0.458,0.963,0.303,1.266-0.222,0.508c0.009,0.141,0.113,0.352,0.519,0.784
	c0.193,0.571,0.562,0.841,1.102,0.807c0.821,0.386,0.821,0.386,0.087-0.152c-0.734-0.538-0.647-0.689-0.02-0.874
	c0.713-0.337,0.713-0.337-0.105-0.721c-1.185-0.653-0.102-0.719,1.165-0.221c0.729,0.534,1.266,0.497,1.266,0.497
	c0.086-0.152,0.086-0.152,0.364,0.266c0.642,0.685,0.643,0.685,0.021,0.875c-0.257,0.456-0.342,0.609-0.342,0.609
	c0.646,0.688,0.026,0.878-0.794,0.493c-0.452-0.116-0.906-0.234-0.624,0.187c0.282,0.421,0.197,0.574-0.257,0.456
	c-0.994-0.084-1.08,0.069,1.587,1.806c0,0,0.085-0.153,0.169-0.306c0,0-0.368-0.27-0.736-0.539l-0.368-0.27
	c0.171-0.304,1.273,0.502,1.757,1.501c-0.084,0.153-0.168,0.307-0.622,0.19c-0.454-0.117-0.454-0.117-0.454-0.117
	c0.823,0.387,0.656,0.695-0.623,0.188c-0.91-0.236-1.08,0.068-0.625,0.187c0.825,0.389,0.489,1.002-0.424,0.764
	c-0.541,0.033-0.542,0.033-0.169,0.306c0.372,0.273,0.457,0.119,0.541-0.034c0.085-0.153,0.456,0.119,0.827,0.391
	c0.372,0.272,0.455,0.118,0.539-0.035c-0.287-0.425,0.084-0.153,0.455,0.118c0.656,0.699,0.747,0.536,0.828,0.385
	c0.083-0.153,0.166-0.306,1.007,0.057c1.302,0.467,1.68,0.724,1.22,0.62c-0.082,0.154-0.164,0.308,0.134,0.72
	c0.163-0.308,0.623-0.205,0.84,0.362c0.298,0.413,0.38,0.258,0.46,0.103c0.081-0.154,0.541-0.052,0.839,0.361
	c0.298,0.412,0.299,0.413,0.758,0.515c0.16-0.31,0.16-0.31,0.379,0.258c-0.08,0.155,0.22,0.569,0.599,0.826l0.379,0.258
	c-0.079,0.156-0.158,0.312-0.538,0.054c-0.38-0.258-0.919-0.205-0.999-0.05c-0.08,0.155-0.08,0.155-0.46-0.103
	c-0.381-0.259-0.761-0.518-0.761-0.518c-0.08,0.155,0.22,0.569,0.602,0.828c1.525,1.037,2.063,0.983,2.299,0.515
	c0.079-0.156,0.616-0.21,0.616-0.21c-0.759-0.516-0.979-1.085-0.442-1.139c0.458,0.101,0.457,0.101,1.057,0.928
	c0.222,0.57,0.445,1.141,0.367,1.297c-0.083,0.163,0.699,0.648,1.866,1.384c2.724,1.714,2.334,1.468,2.484,1.153
	c0,0,0,0-0.389-0.244c-0.389-0.245-0.388-0.244,0.226-0.472c0.075-0.157,0.538-0.071,0.925,0.172c0,0,0.075-0.158,0.225-0.473
	c-0.312-0.401-0.311-0.4-1.16-0.729c-0.463-0.086-0.85-0.33-0.85-0.33c-0.235-0.557-1.394-1.286-1.161-0.73
	c-0.077,0.156-0.154,0.313-0.464-0.087c-0.387-0.244-0.697-0.643-0.542-0.955c0.23-0.465,0.169-1.35-0.207-1.604
	c-0.376-0.255-0.831-0.355-1.286-0.455c-0.535,0.056-1.369-0.302-1.289-0.457c-0.377-0.256,0.08-0.155,0.536-0.055
	c0.456,0.1,0.911,0.2,0.535-0.055s-0.672-0.666-0.672-0.666c0.161-0.31,2.116,0.809,2.865,1.318
	c0.672,0.666,0.677,0.658,0.531-0.058c0.078-0.157-0.513-0.977-0.887-1.231c-0.748-0.508-1.122-0.762-1.281-0.451
	c-0.159,0.311-0.239,0.466-0.534,0.056c0.08-0.155-0.67-0.665-1.044-0.919c-0.375-0.255-0.669-0.664-0.588-0.818
	c0.081-0.155-0.293-0.409-0.667-0.663c-0.749-0.509-1.041-0.917-0.876-1.224c0.246-0.461-0.126-0.714-0.665-0.661
	c-0.083,0.153-0.456-0.101-0.83-0.355c-0.291-0.406-0.371-0.257-0.456-0.103c0.289,0.41-0.168,0.308-0.084,0.154
	c-0.365-0.267-0.645-0.687-0.561-0.84c0.168-0.307-0.559-0.839-1.093-0.8c0.085-0.153,0.534-0.039,0.982,0.074
	c0.812,0.379,1.175,0.645,1.091,0.798c0.283,0.415,0.289,0.409,1.489,1.018c0.911,0.2,1.282,0.452,0.537-0.054
	c-1.035-0.913-0.579-0.812,0.909,0.198c1.116,0.758,1.115,0.758,1.326,1.32c-0.081,0.154-0.243,0.464-0.778,0.519
	c-0.536,0.055,0.212,0.563,0.747,0.508c0.454,0.099,0.827,0.352,1.2,0.606c0,0,0,0-0.453-0.098c-0.454-0.099-0.161,0.31,0.587,0.818
	c0.374,0.254,0.827,0.352,0.827,0.352c0.079-0.156,0.159-0.311,0.611-0.214c0.825,0.35,0.823,0.352,1.492,1.011
	c0.304,0.396,0.609,0.792,0.532,0.948c-0.077,0.156-0.077,0.156,0.305,0.397c0.383,0.24,0.689,0.638,0.689,0.638
	c-0.076,0.157-0.229,0.47-0.306,0.627c-0.153,0.313-0.537,0.072-0.921-0.17c-0.692-0.639-0.769-0.483-1.078,0.141
	c0.231,0.555-0.154,0.312-0.077,0.156c-0.308-0.398-0.231-0.554-0.308-0.398c-0.077,0.156-0.155,0.312,0.154,0.711
	c0.695,0.642,0.695,0.642,1.158,0.728c0.077-0.157,0.229-0.47-0.079-0.868c-0.308-0.399-0.616-0.796-0.231-0.555l0.385,0.242
	c0.385,0.242,1.153,0.725,1.538,0.967c0.385,0.242,0.844,0.326,0.92,0.169c-0.232-0.555,1.3,0.408,1.845,1.364
	c0.62,0.799,0.473,1.116,0.162,0.716c-0.695-0.641-1.303-0.41-1.527,0.064c0,0-0.149,0.316-0.224,0.474c0,0,0.238,0.559,0.552,0.961
	c0.627,0.803,0.555,0.963,0.093,0.877c-0.924-0.171-1.073,0.145-0.221,0.476c1.167,0.733,1.094,0.892,0.876,1.369
	c-0.609,0.232-0.291,0.636,0.172,0.723c0.391,0.245,0.391,0.245,0.318,0.405c-0.147,0.322,0.249,0.562,0.794,0.472
	c1.342,0.376,1.481,0.057,0.684-0.405c0,0,0.071-0.159,0.142-0.318c0.142-0.318,0.142-0.318-0.256-0.548
	c-0.399-0.23-0.326-0.39-0.181-0.709c0.073-0.161,0.141-0.313,0.538-0.085c0.397,0.23,0.865,0.3,1.332,0.37
	c0.468,0.07,1.725,0.597,2.12,0.826c0.791,0.458,0.792,0.458,0.257,0.549c-0.466-0.069-0.536,0.091-0.208,0.48
	c-0.069,0.16-0.139,0.32-0.536,0.09c0,0-0.398-0.23-0.725-0.619c-0.327-0.389-0.326-0.389-0.935-0.141
	c-0.065,0.147-0.113,0.255-0.141,0.319c0.398,0.23,0.398,0.23,0.398,0.23c-0.07,0.16,0.328,0.39,0.328,0.39
	c0.398,0.23,0.727,0.621,1.057,1.012c0.66,0.782,1.06,1.013,1.128,0.853c0.068-0.161,0.068-0.161,0.331,0.392
	c0.331,0.392,0.331,0.392,0.731,0.623c0.467,0.07,0.533-0.092-0.526-1.105c-0.591-0.943-0.056-1.033,1-0.022
	c0.795,0.46,1.126,0.851,0.992,1.174c0.532-0.093,0.997-0.025,1.792,0.434c0.877,0.27,0.878,0.27-0.066,0.162
	c-0.862-0.298-0.863-0.297-0.066,0.162c0.814,0.43,1.156,0.807,1.156,0.807c-0.065,0.162-0.065,0.162-0.472-0.054
	c0,0-0.823-0.419-1.215-0.659c-0.464-0.07-0.535,0.097,0.203,0.712c0.278,0.539,0.278,0.539,0.408,0.216
	c0.065-0.161,0.946,0.109,1.354,0.324c0.408,0.216,0.88,0.269,0.944,0.107c0.405,0.214,1.25,1.837,0.779,1.784
	c0,0,0.409,0.216,1.636,0.864c1.227,0.648,1.635,0.864,1.758,0.536c0.531-0.112,0.53-0.112,2.101,0.913
	c0.758,0.591,1.188,0.771,2.134,0.848c1.307,0.434,1.779,0.468,1.479-0.06c0.115-0.329,0.173-0.494,0.644-0.46
	c0.943,0.067,1.355,0.264,1.242,0.594c-0.226,0.66-0.226,0.661,1.435,1.455c1.245,0.595,1.245,0.595,1.191,0.761
	c-0.108,0.327,2.322,1.716,3.715,1.893c0.424,0.182,0.424,0.182,0.373,0.348c-0.051,0.167-0.102,0.333-0.527,0.151
	c-0.425-0.182-0.849-0.365-0.901-0.198c-0.104,0.332,0.748,0.698,1.224,0.714c0.527-0.151,1.7,0.729,1.225,0.714
	c-0.201,0.668,0.177,1.019,0.702,0.867c0.575-0.319,0.949,0.03,1.23,0.716c0.378,0.351,0.379,0.351,1.28,0.548
	c0.474,0.014,0.474,0.014,0.474,0.014c-0.426-0.183-0.852-0.365-0.852-0.365c0.048-0.168,0.048-0.168,0.474,0.014
	c0.426,0.183,0.899,0.197,1.372,0.21c0.094-0.337,0.519-0.155,0.472,0.013c0.331,0.519,1.183,0.884,1.275,0.546
	c0,0,0.426,0.181,0.861,0.339c0,0-0.045,0.168-0.09,0.336c0,0-0.045,0.168,0.344,0.501c0.78,0.666,1.215,0.832,1.259,0.663
	c0,0,0.434,0.165,0.869,0.329c0.392,0.334,0.433,0.164-0.304-0.671c-0.346-0.502,0.087-0.338,0.433,0.164
	c0.347,0.502,1.65,0.996,1.692,0.826c0.042-0.169,0.084-0.339-0.349-0.503c0.042-0.169,0.042-0.169,0.042-0.169
	c0.433,0.164,0.865,0.328,0.824,0.497c0.392,0.334,0.392,0.334,0.474-0.006c0.041-0.17,0.041-0.17-0.391-0.333
	c-0.432-0.164-0.39-0.333-0.348-0.503c0,0,0.432,0.163,0.864,0.327c0,0,0.432,0.164,0.473-0.006c0.041-0.17,0.472-0.007,0.904,0.156
	c1.684,0.822,2.077,1.156,1.999,1.497c-0.039,0.17,0.355,0.505,0.355,0.505c0.43,0.171,0.872,0.312,0.834,0.481
	c0.403,0.315,1.728,0.751,2.68,0.699c0.476-0.026,0.51-0.197-0.26-0.997c-0.366-0.485-0.329-0.655,0.109-0.511
	c0,0,0.912,0.117,1.786,0.404c0.91,0.116,0.909,0.116,0.875,0.287c-0.035,0.171,0.369,0.486,1.245,0.773
	c0.876,0.287,0.876,0.287,0.843,0.459c-0.033,0.172,0.373,0.487,0.812,0.631c0.407,0.316,0.407,0.316,0.407,0.316
	c-0.439-0.144-0.472,0.028-0.095,0.516c-0.032,0.172,0.377,0.488,0.818,0.633c0,0,0.031-0.172-0.378-0.489
	c0.031-0.172,0.032-0.172,0.941-0.057c0.439,0.144,0.47-0.029,0.5-0.201c-0.383-0.467,1.453-0.313,1.84,0.153c0,0,0,0,0.029-0.172
	c0.029-0.172,0.029-0.172-0.415-0.295c-0.889-0.247-0.858-0.418,0.059-0.343c1.388,0.026,1.358,0.197,1.274,0.713
	c-0.057,0.344-0.558,0.565-1.062,0.784c-0.979,0.268-1.458,0.314-1.039,0.61c-0.029,0.172-0.058,0.344-0.537,0.39
	c-0.508,0.218-0.508,0.218,0.42,0.297c0.449,0.125,1.376,0.202,1.376,0.202c0.449,0.125,0.898,0.249,1.374,0.201
	c0.476-0.048,0.663-1.255,0.302-1.895c-0.417-0.295,0.028-0.172,0.916,0.074c0.889,0.246,1.777,0.492,2.196,0.788
	c0.839,0.592,0.841,0.592,1.334,0.369c0.913,0.073,0.936-0.101,0.516-0.397c-0.395-0.469-0.37-0.642,0.121-0.866l0.514-0.398
	l0.37,0.642c-0.023,0.173-0.094,0.693-0.141,1.04c-0.093,0.694-0.562,0.744-1.007,0.621c-1.361-0.196-1.362-0.197-0.494,0.223
	c0.844,0.593,0.799,0.94-0.072,0.52c0,0-0.024,0.173-0.048,0.346c-0.022,0.16-0.038,0.277-0.048,0.346
	c0.496-0.223,0.943-0.099,1.368,0.198c0.845,0.617,2.237,0.735,1.824,0.289c-0.474,0.066-0.479,0.079-0.905-0.215
	c0.043-0.342,0.515-0.401,0.948-0.131c0.453,0.103,0.453,0.103,0.453,0.103c0.021-0.173,0.021-0.173-0.432-0.275
	s-0.431-0.275-0.388-0.62c0.495-0.243,0.516-0.416,0.066-0.518c0.122,0.028,0.278,0.063,0.451,0.102c0,0,0.923,0.031,1.394-0.04
	c0.491-0.244,0.49-0.245,0.083-0.692c-0.428-0.274-0.428-0.274,0.449,0.101c0.407,0.447,0.741,1.588-0.182,1.557
	c0,0-0.452-0.102-0.904-0.204l-0.452-0.102c-0.021,0.173,0.41,0.448,0.863,0.55c1.358,0.307,1.357,0.306,1.791,0.582
	c0.453,0.102-0.472,0.071-1.378-0.133c-0.433-0.275-0.453-0.102-0.02,0.173c-0.02,0.173,0.414,0.449,0.869,0.551
	c0.473-0.071,0.908,0.205,0.454,0.102c-0.474,0.071,1.346,0.481,2.724,0.614c1.395-0.041,3.191,0.54,2.709,0.787
	c-0.015,0.174-0.014,0.174,0.454,0.102c0.95-0.319,1.402-0.22,0.922,0.029c-0.016,0.182,0.432,0.433,0.892,0.513
	c0.46,0.08,0.46,0.08,0.472-0.094l0.471-0.094c0.471-0.094,0.918,0.159,0.459,0.08c-0.011,0.174-0.034,0.522,0.415,0.775
	c0.439,0.428,0.44,0.428,0.45,0.254c0.482-0.268,0.941-0.189,1.382,0.239c-0.009,0.174,0.461,0.08,0.93-0.015
	c0.929-0.015,1.388,0.064,1.841,0.318c0.914,0.333,0.914,0.333,0.46,0.079c0.007-0.175,0.014-0.349,0.48-0.445
	c0.472-0.27,1.846-0.034,1.377,0.237c-0.006,0.175-0.006,0.175,0.454,0.254c0.459,0.079,0.464-0.096,0.469-0.271
	c0,0,0.45,0.271,0.912,0.49l0.918,0.633l1.398-0.182l1.856-0.128l0.927,0.459c0.465,0.404,0.466,0.579,0.467,0.754l0.001,0.175
	c0.466,0.055,0.464-0.119,0.463-0.294c-0.001-0.175,0.463-0.12,0.927-0.065c0,0,0.931,0.285,1.396,0.34
	c0.465,0.055,0.465,0.055,0.465,0.055c-0.003-0.175-0.004-0.175-0.471-0.405c-0.928-0.11-0.927-0.11-0.006-0.35
	c0.919-0.24,1.847,0.043,1.393,0.339c-0.455,0.285,0.941,0.845,2.35,0.905c0.468,0.03,0.943,0.235,0.95,0.409
	c0.007,0.174,0.476,0.204,0.469,0.03c0.461-0.144,0.461-0.144,0.461-0.144c0.476,0.204,0.946,0.235,1.863-0.054
	c0.458-0.144,0.915-0.289,0.925-0.115c0.01,0.175,2.337,0.149,2.79,0.003c0.467,0.029,0.467,0.029,0.48,0.204
	c0.013,0.175,0.494,0.378,0.961,0.408c0.935,0.065,1.419,0.249,1.419,0.249c0.015,0.173,0.501,0.351,0.972,0.355
	c0,0,0.454-0.169-0.016-0.173c-0.485-0.177,1.829-0.504,3.233-0.493c0.937,0.007,0.937,0.007,0.449-0.17
	c-0.019-0.173-0.038-0.347,0.41-0.517c0.409-0.517,0.406-0.517,1.421,0.184c0.021,0.174,0.509,0.35,0.509,0.35
	c0.468,0.003,0.468,0.003,0.98,0.354c0.491,0.177,0.491,0.177,0.491,0.177c-0.045-0.347,0.423-0.344,0.938,0.006
	c0.985,0.36,2.396,0.357,2.345-0.01c-0.025-0.172,0.443-0.195,0.912-0.218c0.468-0.023,0.938-0.047,1.351-0.414
	c0.386-0.54,0.384-0.54,1.346-0.414c0.495,0.149,0.495,0.149,0.524,0.321c-0.906,0.219-0.851,0.563,0.087,0.516
	c0.469-0.024,0.469-0.024,0.498,0.148c0.029,0.172,1.908,0.077,3.282-0.167c1.373-0.246,2.811-0.14,3.315-0.003
	c0.035,0.17,1.835-0.374,2.691-0.817c0.015,0.068,0.04,0.183,0.075,0.34c0.037,0.17,0.58,0.459,1.048,0.408l-0.038-0.17
	c-0.038-0.17,0.39-0.392,0.817-0.613c1.32-0.494,1.66-1.055,0.733-0.953c-0.464,0.051-0.967-0.068-1.469-0.187
	c-0.965-0.068-1.001-0.239-0.539-0.289c0.425-0.221,1.348-0.323,1.348-0.323c0.462-0.051,0.924-0.102,0.423-0.221
	c-0.118-0.51,0.263-0.901,0.302-0.731c0.46-0.051,0.46-0.051,0.42-0.221c-0.119-0.51,0.836-0.441,1.419,0.017
	c0.331,1.359,0.374,1.528-0.049,1.75c0,0-0.423,0.221-0.341,0.561c0.041,0.17,0.083,0.34-0.343,0.561
	c0.245-0.027,0.821-0.091,1.399-0.155c1.864-0.207,1.865-0.207,1.018,0.236c-0.891,0.273-0.424,0.222,0.977,0.066
	c0.934-0.104,1.401-0.156,1.356-0.326s-0.045-0.169-0.045-0.169c0.935-0.104,1.575-1.308,0.522-1.642
	c-0.549-0.258-0.135-0.504,0.826-0.493c0.504,0.089,0.963,0.011,0.963,0.011c0.412-0.246,0.869-0.325,1.376-0.236
	c0.964,0.01,1.113,0.512,0.192,0.67c-0.46,0.079-0.27,0.75,0.654,0.591c0.51,0.088,0.511,0.088,0.609,0.423
	c0.049,0.167,0.098,0.335,0.562,0.255c0.464-0.08,0.464-0.08,0.514,0.088l0.514,0.087c0.465-0.08,0.826-0.494,0.723-0.828
	c0.155-1.082,0.562-1.328,0.562-1.328c0.919-0.159,1.536,0.262,1.91,1.429c0.053,0.167,0.518,0.086,1.854-0.321
	c0.467-0.062,1.326-0.447,1.783-0.556c0.401-0.272,0.401-0.272,0.915-0.215c0.114,0.329,0.63,0.386,0.63,0.386
	c0.917-0.215,0.052-1.258-0.858-1.044c-0.057-0.165-0.569-0.222-0.625-0.387c-0.113-0.329,0.341-0.436,0.795-0.543
	c0,0,0.057,0.164,0.114,0.329c0.057,0.165,0.57,0.222,0.57,0.222c0.455-0.107,0.91-0.214,0.969-0.05
	c0.058,0.164,0.117,0.328-0.339,0.436c0,0,0,0,0.058,0.164c0,0,0.457-0.107,0.914-0.215c-0.059-0.164,0.457-0.108,0,0
	c0.059,0.164,0.576,0.221,1.033,0.113c0.518,0.056,0.518,0.056,0.518,0.056c-0.061-0.164-0.12-0.328,0.732-0.707
	c0.334-0.435,0.333-0.435,0.518,0.056l0.123,0.327l1.247-0.651c0.331-0.435,0.787-0.542,0.787-0.542
	c0.519,0.055,1.103,0.273,1.626,0.328c0.52,0.048,0.984-0.039,1.367-0.341c0.385-0.296,0.834-0.431,1.283-0.566
	s0.382-0.296,0.249-0.617c-0.515-0.026-0.581-0.187-0.134-0.322c0.894-0.269,2.889-0.327,3.479-0.143
	c0.589,0.185,0.589,0.184,0.519,0.024c-0.07-0.16,0.309-0.455,0.686-0.75c0.825-0.43,0.753-0.59,0.753-0.59
	c-0.447,0.135-0.072-0.159,0.894-0.27c1.341-0.406,1.342-0.406,1.641-0.859c-0.074-0.159-0.147-0.318-0.593-0.183
	c-0.073-0.159-0.073-0.159,0.298-0.453c0.888-0.275,1.781-0.526,2.369-0.37c0.073,0.151,0.079,0.169-0.366,0.306
	c-0.446,0.135-0.891,0.27-1.189,0.723c-0.373,0.294,0.148,0.317,0.521,0.023c0.448-0.131,1.339-0.409,1.409-0.267
	c0.513-0.005,1.391-0.329,3.144-0.977c2.191-0.81,2.629-0.973,2.906-1.445c-0.16-0.31-0.241-0.465-0.321-0.62
	c-0.516,0.006-2.257,0.651-2.101,0.963c0.078,0.156,0.157,0.312-0.28,0.473c-0.078-0.156-0.078-0.156-0.078-0.156
	c-0.078-0.156-0.156-0.312-1.105-0.145c-0.513,0.005-1.024,0.009-0.589-0.151c0.359-0.317,0.715-0.634,0.127-0.786
	c-0.077-0.156-0.587-0.152-1.452,0.168c-0.433,0.16-0.866,0.32-0.941,0.163c-0.074-0.157,1.653-0.796,2.672-0.804
	c0.51-0.004,1.455-0.169,2.321-0.49c0.866-0.321,1.3-0.482,0.946-0.166c0.08,0.155,0.594,0.15,1.028-0.011
	c0.515-0.006,0.434-0.161,0.353-0.316c-0.675-0.304,1.134-0.79,2.685-0.812c1.032-0.017,2.076-0.023,2.24,0.268
	c0.169,0.304,0.595,0.116,1.447-0.259c0.426-0.188,0.852-0.375,1.191-0.714c0.023,0.041,0.053,0.093,0.087,0.151
	c0.599,0.115,0.6,0.114,0.851-0.375c-0.174-0.302,0.588-0.828,0.588-0.828c0.336-0.338,0.849-0.375,0.424-0.187
	c0.088,0.151,0.176,0.301,0.176,0.301c0.848-0.375,2.148-0.001,1.811,0.337c0.089,0.15-0.427,0.189-0.427,0.189
	c-0.089-0.15-0.089-0.15-0.516,0.038c0,0,0,0,0.089,0.15c0.177,0.301,0.606,0.112,1.461-0.266c0.765-0.527,1.282-0.567,0.946-0.228
	c-0.428,0.189,0.091,0.149,0.428-0.189c0,0,0.337-0.338,0.154-0.637c-0.273-0.448-0.274-0.448,0.335-0.338
	c0.609,0.109,0.611,0.109,0.853-0.377c0.334-0.337,0.056-0.783-0.036-0.932l-0.369-0.595l2.207-0.793
	c2.152-0.913,2.784-1.629,2.401-2.211c-0.191-0.292-0.286-0.437-0.286-0.437c0.599,0.081,1.418-0.341,1.225-0.632
	c0,0,0.408-0.211,0.817-0.421c0,0,0.194,0.29,0.291,0.435c0.097,0.145,0.194,0.29,1.014-0.133c0.41-0.211,0.819-0.423,0.918-0.279
	c0.213-0.5,0.212-0.5,0.41-0.212c0.608,0.076-0.525,0.857-2.267,1.56c-0.918,0.279-1.547,0.992-1.674,1.642
	c-0.034,0.797,2.423,0.311,2.45-0.483c0.219-0.503,1.044-0.928,0.925-0.282c0.196,0.289,0.196,0.289,0.708,0.22
	c0.415-0.214,0.414-0.214,0.316-0.358c0,0,0.217-0.502,1.043-0.929c0.627-0.714,0.627-0.714,0.513-0.07
	c0.299,0.431,0.4,0.574,0.714,0.216c0,0,0.314-0.357,0.213-0.5c-0.1-0.143,0.526-0.857,0.735-1.356
	c1.034-0.925,1.03-0.923-0.197-1.069c-0.714-0.216-1.223-0.148-2.141,0.131c-1.737,0.702-3.759,0.966-3.545,0.465
	c-0.097-0.145,0.309-0.355,0.715-0.565c0,0-0.098-0.144-0.196-0.289c-0.112-0.167-0.059-0.448,0.082-0.725
	c0.382-0.147,0.768-0.285,1.147-0.441c0.062-0.025,0.123-0.05,0.184-0.076c0.113,0.064,0.263,0.083,0.515,0.05
	c0.099,0.144,0.199,0.287-0.207,0.497c-0.406,0.21-0.406,0.21-0.307,0.354c0,0,0.505-0.066,0.912-0.276
	c1.216-0.628,3.76-0.968,3.559-0.474c-0.205,0.496,0.306,0.427,0.204,0.285c0.415-0.202,0.801-0.454,0.906-0.308
	c0.102,0.141,0.204,0.282,0.204,0.282c-0.397,0.235-0.295,0.376-0.091,0.658c0.204,0.282,0.705,0.187,1.103-0.049
	c0.398-0.236,1.299-0.568,1.403-0.428c0.207,0.28,0.208,0.28,0.798-0.473c0.19-0.516,0.484-0.891,0.379-1.03
	c0,0,0.292-0.375,0.585-0.75c0.794-0.471,1.191-0.707,0.794-0.471c0,0,0.106,0.139,0.609,0.042c0.106,0.138,0.212,0.277,0.212,0.277
	c-0.398,0.236-0.796,0.472-0.902,0.333c-0.106-0.139-0.106-0.139-0.106-0.139c-0.398,0.236-0.292,0.375-0.082,0.653
	c0.61,0.041-0.189,0.515-0.797,0.473c0,0,0,0,0.21,0.279c0.21,0.279,0.42,0.557,0.82,0.32c0,0-0.105-0.139-0.21-0.278
	c-0.21-0.278,0.587-0.751,1.199-0.711c0,0,0,0,0.293-0.375c-0.106-0.138,0.292-0.375,0.691-0.612
	c0.399-0.237,0.292-0.375,0.292-0.375c-0.107-0.138-0.107-0.138-0.505,0.098l-0.505,0.098c-0.106-0.138,0.291-0.374,0.689-0.61
	c0.398-0.236,0.398-0.236,0.505-0.098c0.215,0.276,1.194-0.709,0.977-0.983c-0.216-0.275-0.217-0.274,0.506-0.099
	c0.614,0.038,1.34,0.212,1.958,0.248l1.24,0.07l-0.95-0.443c-0.329-0.409-0.439-0.546-0.439-0.546
	c0.398-0.236,0.398-0.236,0.508-0.1c0,0,0.227-0.089,0.503-0.198c0.28-0.109,0.6-0.262,0.789-0.396
	c1.152-0.775,1.04-0.909,0.163-0.527c-0.11-0.135-0.221-0.269-0.221-0.269c0.162-0.527,0.543-0.784,0.765-0.515
	c0.111,0.134,0.716,0.145,1.211,0.02c1.374-0.507,1.986-0.502,1.44,0.283c0.225,0.267,0.337,0.4,0.337,0.4
	c0.386-0.26,0.659-0.653,0.546-0.786c0.272-0.393,0.272-0.392,0.771-0.519c0.884-0.387,0.884-0.387,0.158-0.524
	c-0.227-0.265-0.34-0.398,0.043-0.656c0.498-0.127,0.384-0.259,0.156-0.523c-0.454-0.53,0.232-1.829,1.34-1.949
	c0,0,0.115,0.131,0.23,0.263c0,0,0.382-0.258,0.764-0.516c0.266-0.389,0.266-0.389,0.382-0.258c0.348,0.393,1.497-0.383,1.263-0.643
	c0.032-0.649,0.412-0.906,1.029-0.904c0.502-0.125,0.894-0.372,2.233-1.625c0.615-0.684,0.981-0.961,0.615-0.683
	c-0.851,0.428-0.851,0.428-0.722-0.105c0.129-0.532,0.493-0.809,0.978-0.959c0.485-0.15,0.485-0.15-0.112-0.785
	c-0.049-0.052-0.095-0.104-0.138-0.156c0.782-0.502,1.56-1.01,2.335-1.522c-0.005,0.008-0.007,0.011-0.012,0.02
	c-0.608,0.679,0.238,0.907,0.848,0.227c0.365-0.277,1.703-0.858,1.826-0.734c0.122,0.125,0.244,0.25,0.244,0.25
	c0.122,0.125,2.076-1.141,3.666-2.132c0.366-0.279,0.733-0.557,1.224-0.713c0.951-0.351,0.951-0.351,0.351-0.297
	c-0.249-0.243-0.373-0.365-0.023-0.661c0.226-0.418,0.326-0.957,0.076-1.199c-0.375-0.364-0.374-0.364-0.474,0.174
	c-0.432,0.853-1.533,1.682-1.783,1.432c-0.135-0.135-0.014-0.381,0.327-0.756c1.255-0.945,2.496-1.903,3.719-2.881
	c0.072,0.043,0.136,0.094,0.179,0.135c0.126,0.12,0.728,0.064,0.728,0.064c0.349-0.296,0.349-0.296,0.476-0.176
	c-0.349,0.296-0.35,0.296-0.223,0.416c0.126,0.12,0.253,0.24,0.029,0.657c-0.575,0.714-0.926,1.011-0.926,1.011
	c-0.377-0.362-0.826,0.473-0.451,0.836c0.251,0.242,0.376,0.362,0.602-0.056l1.055-0.893c0,0,0.225-0.418,0.099-0.538
	c0.063,0.06,0.19,0.18,0.379,0.36c1.111,0.422,1.593,0.24,1.309-0.655c-0.157-0.776-0.061-1.311,0.321-0.954
	c0.127,0.119,0.607-0.06,0.958-0.358c0.352-0.298,0.48-0.18,0.608-0.061c0.255,0.238,2.629-1.32,3.687-2.219
	c0.705-0.598,0.574-0.715,0.313-0.948c-0.522-0.466-0.522-0.466,0.442-0.83c0.965-0.364,0.965-0.365,0.703-0.597
	c-0.055-0.659,0.277-0.974,1.006-0.945c0.131,0.115,0.393,0.343,0.524,0.458c0.262,0.229,0.73,0.027,0.467-0.201
	c-0.131-0.114,0.205-0.43,0.54-0.746c0.336-0.316,0.54-0.745,0.072-0.543c-0.467,0.202-0.599,0.087-0.73-0.027
	c0.072-0.543,0.071-0.542,0.67-0.63c0.132,0.114,0,0-0.264-0.227c-0.264-0.228-0.194-0.769,0.007-1.196
	c0.201-0.427,0.534-0.741,0.333-0.314c0.133,0.113,0.063,0.654,0.328,0.881c-0.07,0.542,0.397,0.34,0.732,0.025
	c0.67-0.63,0.803-0.517,0.936-0.404c0,0,0.266,0.226,0.735,0.022l1.072-0.295l-0.065-0.653c-0.267-0.224-0.402-0.336-1.338,0.069
	c-0.468,0.203-0.936,0.404-0.133-0.113c0.335-0.315,0.335-0.315,0.335-0.315c-0.134-0.112-0.267-0.225-0.601,0.09
	c-0.334,0.315-0.467,0.202-0.266-0.225c0.534-0.741,0.4-0.853-0.266-0.225c-0.467,0.201-0.466,0.201-0.067-0.651
	c0.598-1.277,0.597-1.276,0.999-0.94c0.134,0.112,0.735,0.022,1.068-0.292c0.935-0.405,1.206-0.183,0.403,0.335
	c-0.802,0.517-0.868,1.055,0.069,0.65c1.072-0.295,1.408-0.611,1.138-0.833c-0.27-0.222-0.07-0.648-0.07-0.648
	c0.334-0.315,0.532-0.74,0.397-0.85c-0.135-0.111-0.406-0.332-0.406-0.332c0.259-0.959,1.996-1.881,2.073-1.238
	c0.072,0.643,2.098-0.063,2.287-0.497c-0.136-0.108,0.182-0.439,0.5-0.769c-0.136-0.108-0.273-0.216-0.273-0.216
	c0.318-0.33,0.318-0.33,0.454-0.222c0.273,0.216,0.41,0.323,0.092,0.654c-0.318,0.331-0.637,0.661-0.365,0.878
	c0.136,0.108,0.592-0.115,0.592-0.115c0.319-0.331,0.183-0.439,0.046-0.547c-0.136-0.108,0.045-0.546,0.501-0.77
	c1.094-0.886,1.498-2.306,0.809-2.838c-0.276-0.214-0.413-0.32-0.097-0.649c0.138,0.107,0.91-0.445,1.227-0.775
	c0.317-0.329,0.317-0.329,0.455-0.223c0,0,0.456-0.224,0.773-0.553c0.634-0.659,1.292,0.408,0.973,0.739
	c-0.179,0.436-0.498,0.767-0.359,0.873c0.139,0.106,0.458-0.226,0.776-0.557c0.18-0.437,0.498-0.768,0.816-1.099
	c0.318-0.331,0.318-0.331,0.179-0.436c-0.14-0.105-0.14-0.105-0.597,0.121c-0.636,0.661-0.636,0.661-0.279-0.21
	c0.178-0.435,0.356-0.87,0.356-0.87l0.317-0.33c0.177-0.434,0.457-0.226,0.597-0.121c0.14,0.104,0.42,0.313,0.42,0.313
	c0.032-0.034,0.049-0.051,0.075-0.078c-0.355,0.849-0.712,1.697-1.055,2.55C342.733,173.528,341.676,176.394,340.554,179.235z
	 M215.986,98.271c0.06-1.205,1.577-2.659,2.835-2.845c0.175-0.026,0.423-0.101,0.523-0.017c1.195,1,2.369,2.025,3.451,2.96
	c-0.271,0.675-0.325,1.055-0.538,1.292c-0.471,0.524-0.967,1.062-1.554,1.436c-0.856,0.546-1.787,1.458-2.852,0.786
	C216.599,101.092,215.91,99.805,215.986,98.271z M343.082,144.042c0,0-0.144-0.099-0.288-0.197
	c-0.001-0.525,0.284-0.853,0.573-0.656c0.144,0.098,0.289,0.197,0.002,0.525C343.082,144.042,343.082,144.042,343.082,144.042z
	 M341.667,171.529c0,0-0.318,0.331-0.457,0.225c-0.456,0.224-0.456,0.224-0.456,0.224
	C341.39,171.318,341.847,171.093,341.667,171.529z M335.602,177.21c-0.198,0.425-0.198,0.425-0.533,0.741
	c-0.136-0.11-0.272-0.22-0.074-0.645C335.057,176.771,335.664,176.676,335.602,177.21z M334.135,179.545
	c-0.065,0.537-0.738,1.171-1.007,0.948c-0.135-0.111-0.135-0.111-0.47,0.205c0,0-0.336,0.316-0.47,0.204
	c-0.134-0.112,0.201-0.427,0.536-0.743C333.394,179.529,334.199,179.008,334.135,179.545z M325.941,187.016
	c0.126,0.11-0.325,0.328-0.816,0.503c-0.835,0.482-0.835,0.482-0.131-0.116C325.693,186.801,326.14,186.579,325.941,187.016z
	 M315.706,195.052c0.377,0.361,0.024,0.661-0.58,0.718c-0.604,0.057-0.603,0.056-0.024-0.661
	C315.329,194.69,315.328,194.69,315.706,195.052z M312.967,196.235c0.122,0.119,0.255,0.251-0.24,0.406
	c-0.492,0.156-0.984,0.313-0.984,0.313s0.367-0.279,0.734-0.558C312.846,196.118,312.843,196.114,312.967,196.235z M312.241,197.447
	c0.125,0.123,0.125,0.123-0.244,0.403l-0.493,0.157c-0.124-0.124,0.12-0.527,0.12-0.527
	C311.992,197.2,311.992,197.2,312.241,197.447z M309.785,199.531c0,0-0.369,0.28-0.738,0.56c-0.491,0.155-0.491,0.155,0.246-0.405
	C309.662,199.406,309.662,199.406,309.785,199.531z M306.843,200.459c0,0,0.121,0.125-0.247,0.405l-0.489,0.153
	c-0.121-0.126,0.247-0.405,0.247-0.405C306.722,200.333,306.722,200.333,306.843,200.459z M300.78,206.092c0,0,0,0-0.385,0.26
	l-0.502,0.13l0.384-0.26C300.662,205.963,300.662,205.963,300.78,206.092z M301.165,204.981c0.12,0.132-0.099,0.404-0.738,0.722
	c-0.768,0.519-0.768,0.519-1.237-0.001c0.149-0.519,0.148-0.518,0.648-0.647C300.591,204.866,301.051,204.858,301.165,204.981z
	 M298.471,207.652c-0.385,0.26-0.501,0.129-0.849-0.264c-0.348-0.393-0.579-0.655-0.197-0.913c0,0,0.615,0.003,0.732,0.134
	C299.391,206.613,299.359,207.262,298.471,207.652z M291.533,212.328c0,0-0.223-0.268-0.334-0.401
	C292.08,211.542,292.305,211.809,291.533,212.328z M272.767,218.775c-0.409,0.211-0.608-0.076,0.107-0.641l0.407-0.211
	C273.789,217.856,273.584,218.353,272.767,218.775z M262.989,227.36c0,0,0,0-0.428,0.189l-0.52,0.04l0.428-0.189
	C262.897,227.211,262.897,227.211,262.989,227.36z M249.228,231.307c-0.436,0.162-0.873,0.324-0.792,0.479
	c-0.082-0.155-0.244-0.464,0.029-0.935c0.543-0.941,0.973-1.101,1.657-0.8C250.806,230.351,250.539,230.82,249.228,231.307z
	 M244.668,231.518c0,0,0.079,0.156-0.356,0.317c-0.791,0.478-0.869,0.321-0.078-0.156L244.668,231.518z M185.444,244.955
	c-0.471,0.024-1.492-0.446-1.05-0.642c0.468-0.023,0.468-0.023,0.937-0.047C185.828,244.415,185.915,244.931,185.444,244.955z
	 M176.918,244.593c0,0,0.021,0.174-0.449,0.17l-0.49-0.177c-0.02-0.174,0.449-0.17,0.449-0.17
	C176.897,244.419,176.897,244.419,176.918,244.593z M158.689,245.546c0,0,0,0,0.006,0.174c-0.156,0.049-0.312,0.095-0.466,0.132
	l-0.475-0.23C157.75,245.441,158.217,245.512,158.689,245.546z M156.772,243.585c0,0,0,0-0.466-0.055l-0.469-0.23l0.465,0.055
	C156.768,243.41,156.768,243.41,156.772,243.585z M127.831,237.224c-0.02,0.173-0.02,0.173-0.475,0.07c0,0-0.434-0.276-0.413-0.449
	l0.454,0.103C127.851,237.051,127.851,237.051,127.831,237.224z M122.47,235.489c0,0-0.025,0.173-0.473,0.049
	c0,0-0.423-0.297-0.398-0.47l0.448,0.124C122.494,235.316,122.47,235.489,122.47,235.489z M115.271,233.671
	c-0.447-0.128-0.443-0.14-0.475,0.036c-0.031,0.172-0.03,0.173-0.946,0.055c-0.443-0.145-0.885-0.29-0.853-0.462
	c0.032-0.172-0.41-0.317-0.852-0.462c-0.475,0.027-0.409-0.317,0.065-0.344c0.479-0.039,3.139,0.693,3.54,1.129
	C115.749,233.624,115.72,233.796,115.271,233.671z M111.053,231.204c0.78,0.803,0.749,0.975-0.134,0.686
	c-0.441-0.145-0.882-0.289-0.916-0.118c0,0,0,0,0.034-0.171c0.034-0.171,0.102-0.514,0.137-0.685
	C110.681,230.717,110.68,230.717,111.053,231.204z M107.667,231.004C107.496,230.948,107.477,230.942,107.667,231.004
	L107.667,231.004z M109.119,231.481c0.407,0.316-0.58,0.539-1.467,0.248c0,0,0.036-0.171,0.071-0.341
	c0.478-0.025,0.477-0.026,0.071-0.341c0.113,0.037,0.248,0.081,0.442,0.145C108.237,231.191,108.678,231.336,109.119,231.481z
	 M108.117,229.511c0,0-0.403-0.315-0.366-0.485l0.438,0.144c0.438,0.144,0.402,0.315,0.402,0.315S108.556,229.655,108.117,229.511z
	 M103.086,228.863c-0.039,0.17-0.552,0.347-0.552,0.347c-0.434-0.164-0.868-0.328-0.909-0.158c0,0-0.04,0.17-0.475,0.006
	c0,0-0.394-0.334-0.353-0.504c0.041-0.17,0.475-0.006,0.909,0.159c0.434,0.164,0.908,0.158,0.947-0.012
	C103.165,228.523,103.165,228.523,103.086,228.863z M85.057,221.556c-0.154,0.495-0.641,0.491-0.949-0.049
	c-0.259-0.7-0.674-0.898-1.2-0.766c-0.472-0.033-0.89-0.233-0.836-0.399c0.055-0.166,0.526-0.133,0.943,0.067
	c0.054-0.166,0.054-0.166,0.108-0.333c-0.779-0.564-1.667-0.797-1.36-0.266c0,0-0.055,0.166-0.472-0.034
	c-0.835-0.4-0.668-0.896,0.22-0.663c0.472,0.034,1.303,0.431,2.028,1.162c0.363,0.366,0.78,0.565,1.197,0.764
	C85.213,221.06,85.162,221.223,85.057,221.556z M79.486,217.952c0,0-0.057,0.165-0.473-0.034l-0.36-0.364
	c0.057-0.165,0.473,0.034,0.473,0.034C79.543,217.787,79.543,217.787,79.486,217.952z M78.786,218.578
	c-0.057,0.165-0.113,0.33-0.113,0.33s-0.361-0.365-0.304-0.53c-0.361-0.365-0.36-0.365,0.114-0.33
	C78.957,218.083,78.956,218.083,78.786,218.578z M73.57,215.426c0.408,0.215,0.408,0.215,0.408,0.215
	c-0.06,0.164-0.121,0.328-0.529,0.113l-0.348-0.38L73.57,215.426z M64.142,210.569c-0.067,0.161-0.134,0.323-0.067,0.162
	c0.067-0.162-0.333-0.393-0.733-0.624l-0.4-0.231c0.068-0.161,0.467,0.07,0.867,0.301S64.208,210.407,64.142,210.569z
	 M59.412,207.634c0,0-0.4-0.231-0.87-0.303c-0.4-0.232-0.8-0.463-0.8-0.463c0.071-0.159,0.541-0.087,0.941,0.144
	c0,0,0.07-0.16,0.141-0.319c-0.328-0.39,0.469,0.071,0.728,0.622C60.28,207.936,60.142,208.256,59.412,207.634z M54.222,202.471
	c0,0-0.074,0.158-0.463-0.086c0,0-0.314-0.402-0.24-0.56c0.075-0.158,0.463,0.086,0.463,0.086
	C54.37,202.155,54.296,202.313,54.222,202.471z M53.88,200.004c-0.848-0.328-1.083-0.885-0.621-0.8
	c0.461,0.085,0.461,0.085,0.846,0.327L53.88,200.004z M54,202.946c0.243,0.562-1.54,0.056-1.781-0.506c0,0,0,0-0.465-0.088
	c-0.15,0.315-1.322-0.422-1.246-0.579c0.076-0.157,0.466,0.088,0.466,0.088c0.39,0.245,0.465,0.088,0.541-0.069
	C51.666,201.478,53.76,202.385,54,202.946z M50.883,194.832c0,0-0.452-0.097-0.826-0.351l-0.295-0.41
	c0.079-0.156,0.452,0.098,0.826,0.351S50.962,194.675,50.883,194.832z M41.235,194.77c0.299,0.413,0.3,0.414-1.307-0.47
	c-1.972-1.166-2.238-1.621-0.675-0.678C40.09,193.999,40.857,194.509,41.235,194.77z M49.097,173.976l0.072,0.053
	C49.169,174.028,49.161,174.022,49.097,173.976z M48.594,173.609c-0.237-0.173-0.38-0.278-0.115-0.084
	C48.479,173.525,48.528,173.561,48.594,173.609z M49.097,173.976c-0.044-0.032-0.117-0.086-0.238-0.174
	C48.933,173.856,49.012,173.914,49.097,173.976z M48.858,173.801c-0.104-0.076-0.197-0.144-0.264-0.193
	c0.071,0.052,0.15,0.109,0.229,0.168C48.838,173.787,48.845,173.792,48.858,173.801z M34.896,187.424
	c-0.087,0.151-0.456-0.119-0.456-0.119c-0.369-0.27-0.369-0.27-0.281-0.421c0.087-0.151,0.087-0.151,0.456,0.119
	C34.615,187.003,34.983,187.273,34.896,187.424z M31.964,185.241c-0.089,0.151-0.898-0.264-1.167-0.697
	c0.097,0.076,0.222,0.174,0.359,0.282c0.359,0.282,0.449,0.132,0.449,0.132c0.089-0.15,0.089-0.15,0.089-0.15
	C32.053,185.09,32.053,185.09,31.964,185.241z M30.698,184.467c0.025,0.02,0.058,0.046,0.099,0.077
	C30.75,184.507,30.722,184.485,30.698,184.467z M30.698,184.467C30.647,184.426,30.641,184.421,30.698,184.467L30.698,184.467z
	 M32.142,183.176c-0.09,0.15-0.269,0.45-0.627,0.169c0,0-0.268-0.431-0.177-0.58c0.18-0.299,0.627-0.168,0.627-0.168
	C32.322,182.876,32.232,183.026,32.142,183.176z M47.371,197.894C47.45,197.948,47.618,198.062,47.371,197.894L47.371,197.894z
	 M47.336,197.871c0.015,0.01,0.022,0.015,0.035,0.024C47.352,197.881,47.336,197.871,47.336,197.871z M199.89,243.483
	C199.712,243.503,199.739,243.5,199.89,243.483L199.89,243.483z M34.951,185.518C34.983,185.463,34.993,185.447,34.951,185.518
	L34.951,185.518z M34.946,185.527c-0.033,0.056-0.053,0.122-0.047,0.206c-0.015-0.021-0.024-0.033-0.041-0.056
	C34.892,185.62,34.922,185.568,34.946,185.527z M34.951,185.518c-0.002,0.003-0.004,0.006-0.005,0.009l0,0
	C34.949,185.522,34.949,185.523,34.951,185.518z M337.436,175.175C337.754,174.845,337.572,175.283,337.436,175.175L337.436,175.175
	z M32.379,161.573c-0.057,0.085-0.11,0.162-0.142,0.21c0.02-0.03,0.042-0.063,0.065-0.096
	C32.343,161.625,32.365,161.593,32.379,161.573z M148.102,89.836c0,0,0.209-0.027,0.23,0.068c0.23,0.068,0.23,0.068,0.23,0.068
	C148.145,90.026,147.914,89.958,148.102,89.836z M150.272,89.859c0.027,0.109,0.006,0.133-0.026,0.099
	c-0.033-0.039-0.071-0.119-0.094-0.206l-0.008-0.032c-0.011-0.129-0.012-0.127,0.02-0.164
	C150.212,89.644,150.263,89.729,150.272,89.859z M150.12,89.175c-0.088-0.189-0.056-0.233,0.072-0.087
	c0.063,0.074,0.063,0.074,0.089,0.043c0.006-0.005,0.012-0.018,0.106,0.027c0.043,0.092,0.031,0.11-0.005,0.15
	C150.318,89.38,150.204,89.367,150.12,89.175z M153.191,86.303c-0.074-0.064,0.151-0.147,0.377-0.23
	c0.377-0.23,0.377-0.23,0.074,0.064C153.339,86.43,153.114,86.514,153.191,86.303z M157.655,82.381
	c-0.221-0.191-0.07-0.338,0.229-0.357c0.299-0.02,0.299-0.02,0.07,0.338C157.877,82.572,157.877,82.572,157.655,82.381z
	 M159.011,81.608c0.225-0.083,0.451-0.167,0.451-0.167s-0.151,0.147-0.303,0.294c-0.152,0.147-0.152,0.147-0.225,0.083
	C158.86,81.755,158.786,81.691,159.011,81.608z M159.244,80.976l0.225-0.083c0.074,0.064-0.004,0.274-0.004,0.274
	c-0.151,0.147-0.151,0.147-0.299,0.02C159.093,81.123,159.093,81.123,159.244,80.976z M160.153,80.095c0,0,0.151-0.147,0.303-0.294
	c0.225-0.083,0.225-0.083-0.078,0.211C160.227,80.159,160.227,80.159,160.153,80.095z M161.505,79.596c0,0-0.074-0.064,0.078-0.211
	l0.225-0.083c0.074,0.064-0.078,0.21-0.078,0.21C161.579,79.659,161.579,79.659,161.505,79.596z M162.028,78.182c0,0,0,0,0.008-0.04
	l0.1-0.009l-0.009,0.043C162.118,78.219,162.118,78.219,162.028,78.182z M162.749,78.468c-0.317,0.078-0.57-0.079-0.451-0.176
	c0.022-0.098,0.021-0.095,0.391,0.022C162.858,78.433,162.856,78.44,162.749,78.468z M162.251,77.429
	c0.063-0.201,0.158-0.181,0.444-0.119s0.476,0.103,0.414,0.304c0,0-0.253,0.16-0.349,0.14
	C162.253,78.075,162.03,77.811,162.251,77.429z M163.381,73.803c0,0,0.191,0.041,0.286,0.062
	C163.446,74.247,163.255,74.206,163.381,73.803z M166.3,67.097c-0.018-0.197,0.174-0.228,0.306,0.155l0.018,0.198
	C166.547,67.662,166.336,67.491,166.3,67.097z M163.84,62.063c0,0,0,0-0.031-0.187l0.064-0.211l0.031,0.188
	C163.935,62.04,163.935,62.04,163.84,62.063z M163.295,55.887c0.091-0.035,0.271-0.107,0.511,0.006
	c0.479,0.227,0.54,0.416,0.325,0.7c-0.214,0.284-0.456,0.166-0.63-0.378C163.443,56.034,163.385,55.852,163.295,55.887z
	 M163.552,54.128c-0.205-0.329-0.116-0.369,0.09-0.039l0.058,0.185C163.7,54.274,163.61,54.313,163.552,54.128z M148.913,34.89
	c-0.14-0.122-0.272-0.598-0.07-0.564c0.145,0.12,0.145,0.12,0.289,0.24C149.221,34.768,149.056,35.009,148.913,34.89z
	 M146.14,32.629l-0.112-0.185c0.047-0.085,0.207,0.016,0.207,0.016c0.16,0.101,0.16,0.101,0.112,0.185
	C146.348,32.645,146.299,32.73,146.14,32.629z M139.598,29.942c0,0,0,0-0.035,0.091l-0.201,0.011l-0.131-0.171
	C139.265,29.781,139.432,29.862,139.598,29.942z M139.099,28.622l-0.143-0.163l0.175,0.072c0.171,0.081,0.17,0.082,0.137,0.174
	C139.269,28.704,139.269,28.704,139.099,28.622z M127.677,24.206l0.188,0.034c0.188,0.034,0.188,0.034,0.177,0.13
	c-0.011,0.097-0.011,0.097-0.198,0.063C127.845,24.433,127.668,24.303,127.677,24.206z M125.427,23.654l0.19,0.023
	c0.19,0.023,0.184,0.12,0.184,0.12s-0.006,0.097-0.195,0.074C125.605,23.871,125.422,23.751,125.427,23.654z M121.447,23.377
	c0.185-0.084,1.325-0.101,1.514,0.106c0,0-0.001,0.097-0.19,0.084c-0.189-0.013-0.189-0.013-0.189,0.084
	c0,0.097,0,0.097-0.375,0.169c-0.188-0.013-0.375-0.026-0.377-0.124c-0.002-0.097-0.19-0.111-0.378-0.124
	C121.266,23.656,121.26,23.461,121.447,23.377z M120.498,23.248c-0.005-0.097-0.014-0.291-0.018-0.388
	c0.181-0.192,0.183-0.192,0.381,0.005c0.392,0.298,0.393,0.394,0.015,0.388c-0.189-0.002-0.378-0.005-0.374,0.092
	C120.502,23.345,120.502,23.345,120.498,23.248z M119.56,23.332c0.048,0.001,0.106,0.002,0.188,0.003c0,0,0.188,0.003,0.377,0.005
	c0.193,0.099-0.167,0.386-0.54,0.381c0,0-0.006-0.097-0.013-0.194C119.754,23.432,119.755,23.432,119.56,23.332z M119.499,22.458
	c0,0-0.199-0.1-0.207-0.197l0.193,0.003c0.193,0.003,0.199,0.1,0.199,0.1S119.691,22.461,119.499,22.458z M116.564,23.405
	c-0.013-0.097,0.174-0.104,0.361-0.112c0.187-0.008,0.362-0.112,0.351-0.209c0.165-0.201,0.166-0.201,0.188-0.008
	c0.011,0.097-0.153,0.298-0.153,0.298c-0.187,0.008-0.373,0.016-0.361,0.112c0,0,0.012,0.097-0.173,0.104
	C116.776,23.59,116.578,23.501,116.564,23.405z M108.139,24.253c0.134-0.143,0.48-0.251,0.888-0.177
	c0.205,0.041,0.368-0.026,0.548-0.06c0.145-0.133,0.177-0.041,0.239,0.144c0.093,0.278-0.049,0.41-0.287,0.266
	c-0.263-0.222-0.435-0.166-0.536,0.069c-0.134,0.144-0.301,0.197-0.336,0.106c-0.035-0.091,0.099-0.235,0.269-0.288
	c-0.034-0.091-0.034-0.091-0.068-0.182c-0.376,0.017-0.681,0.214-0.44,0.342c0,0,0.035,0.091-0.133,0.143
	C107.948,24.719,107.833,24.45,108.139,24.253z M107.128,24.592l-0.202-0.022c-0.04-0.088,0.123-0.155,0.123-0.155
	c0.163-0.067,0.163-0.067,0.202,0.022C107.252,24.438,107.29,24.526,107.128,24.592z M107.286,24.947
	c0.039,0.089,0.078,0.177,0.078,0.177s-0.198-0.024-0.238-0.112c-0.2-0.024-0.201-0.023-0.08-0.177
	C107.167,24.681,107.168,24.681,107.286,24.947z M105.2,25.732l-0.197-0.009l0.102-0.161c0.151-0.077,0.151-0.077,0.151-0.077
	C105.303,25.571,105.349,25.656,105.2,25.732z M101.208,27.991c-0.059-0.073,0.078-0.188,0.232-0.282
	c0.151-0.099,0.151-0.099,0.211-0.022c0.06,0.077,0.12,0.153,0.06,0.077c-0.06-0.076-0.211,0.021-0.36,0.121L101.208,27.991z
	 M99.386,28.894c-0.205,0.044,0.073-0.186,0.342-0.157c0.341-0.156,0.469-0.011,0.131,0.144c0,0-0.137,0.114-0.208,0.298
	c-0.137,0.112-0.273,0.225-0.273,0.225c-0.067-0.07,0.003-0.254,0.141-0.367C99.519,29.036,99.453,28.965,99.386,28.894z
	 M96.811,30.159c-0.073-0.064,0.053-0.195,0.053-0.195c0.127-0.131,0.206-0.06,0.276,0.003c0,0,0.07,0.063-0.059,0.19
	C97.081,30.157,96.884,30.223,96.811,30.159z M95.725,29.469l0.222,0.189C95.761,29.99,95.48,30,95.536,29.803
	C95.592,29.605,95.593,29.605,95.725,29.469z M96.783,31.306c0.122-0.126,0.048-0.189-0.027-0.251
	c-0.148-0.119,0.319-0.903,0.602-0.892c0.267,0.005-0.02,0.695-0.281,0.7c0,0,0,0-0.048,0.19c0.148,0.127-0.216,0.503-0.292,0.441
	C96.66,31.432,96.783,31.306,96.783,31.306z M83.344,30.961c-0.091-0.036,0.035-0.259,0.035-0.259
	c0.126-0.223,0.126-0.223,0.126-0.223c0.09,0.037,0.18,0.075,0.055,0.297C83.561,30.775,83.435,30.997,83.344,30.961z
	 M93.382,35.481c0.067-0.351,0.284-0.628,0.37-0.777c0.18-0.099,0.179-0.095-0.112,0.525C93.302,36.013,93.141,36.125,93.382,35.481
	z M82.528,31.47c0,0,0,0,0.142-0.499c0.382-0.679,0.383-0.679,0.474-0.642c0.091,0.037,0.181,0.075,0.054,0.299
	c-0.127,0.224-0.253,0.449-0.161,0.484c-0.025-0.01-0.057-0.022-0.091-0.035C82.85,31.039,82.639,31.234,82.528,31.47z
	 M82.002,30.999c0,0-0.003,0.006-0.024,0.05L82.002,30.999z M81.81,31.396c-0.079,0.164-0.127,0.263-0.039,0.08
	C81.771,31.476,81.787,31.442,81.81,31.396z M81.978,31.049c-0.068,0.14-0.13,0.268-0.168,0.347c0.024-0.049,0.05-0.104,0.077-0.159
	C81.936,31.135,81.962,31.082,81.978,31.049z M82.119,33.225c0.11-0.232,0.22-0.463,0.203-0.202c0,0,0.093,0.03-0.016,0.26
	c-0.11,0.23-0.201,0.203-0.201,0.203C81.92,33.697,82.004,33.454,82.119,33.225z M94.891,32.276
	C94.915,32.248,94.94,32.22,94.891,32.276L94.891,32.276z M94.873,32.298c0.011-0.013,0.011-0.013,0.018-0.021
	C94.881,32.288,94.873,32.298,94.873,32.298z M83.539,30.027c0.008-0.015,0.016-0.029,0.04-0.071
	C83.58,29.956,83.556,29.997,83.539,30.027z M83.539,30.027C83.522,30.056,83.525,30.052,83.539,30.027L83.539,30.027z
	 M149.884,89.879C149.832,89.89,149.856,89.785,149.884,89.879L149.884,89.879z"/>
</svg>
