<?xml version="1.0" encoding="utf-8"?>
<!-- Generator: Adobe Illustrator 24.0.1, SVG Export Plug-In . SVG Version: 6.00 Build 0)  -->
<svg version="1.1" id="Layer_0_xA0_Image_1_" xmlns="http://www.w3.org/2000/svg" xmlns:xlink="http://www.w3.org/1999/xlink"
	 x="0px" y="0px" viewBox="0 0 556.734 427.234" style="enable-background:new 0 0 556.734 427.234;" xml:space="preserve">
<path d="M58.866,127.791c0.315-1.04,0.725-2.052,1.036-3.093c0.711-2.379,2.181-3.856,4.417-5.127
	c4.869-2.766,9.429-6.067,14.188-9.034c5.706-3.557,11.815-6.292,18.212-8.343c3.102-0.995,6.253-1.864,9.424-2.607
	c1.365-0.32,2.839-0.205,4.264-0.209c0.183-0.001,0.367,0.472,0.55,0.727c-0.185,0.288-0.306,0.738-0.562,0.837
	c-3.584,1.384-6.508,3.903-9.813,5.692c-3.343,1.81-6.427,3.938-9.598,5.973c-2.584,1.659-5.179,3.301-7.775,4.94
	c-0.762,0.481-1.513,0.997-2.323,1.383c-7.014,3.333-14.04,6.641-21.068,9.946c-0.304,0.143-0.742,0.352-0.973,0.238
	C58.064,128.73,58.736,128.221,58.866,127.791z M38.564,171.197c0.599-0.176,2.043-0.431,3.337-1.018
	c2.798-1.269,5.524-2.7,8.27-4.084c0.803-0.404,1.704-0.734,2.339-1.332c2.958-2.793,6.676-4.237,10.213-6.036
	c4.184-2.128,8.404-4.239,12.358-6.751c4.887-3.104,9.828-6.083,15.116-8.422c6.171-2.73,11.825-6.278,17.215-10.292
	c4.788-3.566,9.701-6.884,15.395-8.939c2.528-0.913,4.878-2.321,7.286-3.551c0.201-0.103,0.371-0.612,0.29-0.836
	c-0.108-0.296-0.445-0.645-0.742-0.711c-0.873-0.193-1.825-0.502-2.655-0.329c-4.41,0.919-8.922,1.418-13.138,3.166
	c-6.176,2.56-12.362,5.095-18.557,7.61c-2.509,1.019-5.047,1.967-7.579,2.929c-1.852,0.704-3.723,1.36-5.574,2.07
	c-6.783,2.6-12.871,6.538-18.957,10.366c-5.638,3.547-10.826,7.812-16.193,11.786c-2.33,1.725-4.512,3.672-6.946,5.229
	c-2.271,1.452-3.556,3.549-4.623,5.835C34.635,169.568,35.88,171.237,38.564,171.197z M290.943,99.249
	c-0.234,0.269-0.538,0.509-0.679,0.821c-1.103,2.442-1.321,5.204-3.131,7.43c-0.913,1.123-0.514,2.842,0.307,4.099
	c0.43,0.658,1.28,1.041,1.603,1.29c3.701,0.045,5.448-2.189,6.918-4.412c0.904-1.367-0.884-2.542-1.361-3.841
	c-0.615-1.676-1.212-3.359-1.831-5.034C292.547,99,291.349,98.781,290.943,99.249z M243.29,81.669
	c-1.534-0.161-2.147,1.114-3.001,1.986c-0.867,0.886-0.51,1.952,0.621,2.468c1.319,0.602,2.516,0.197,3.601-0.395
	c0.708-0.387,1.535-1.023,1.066-2.153C245.145,82.537,244.663,81.579,243.29,81.669z M555.719,199.473
	c-1.861-1.818-2.962-4.091-3.981-6.407c-1.083-2.461-1.869-5.072-3.132-7.431c-2.624-4.9-5.186-9.798-8.455-14.388
	c-2.859-4.014-6.372-6.953-10.45-9.137c-5.231-2.802-10.84-4.899-16.3-7.268c-0.264-0.114-0.735-0.01-0.973,0.171
	c-0.154,0.117-0.185,0.642-0.055,0.847c1.558,2.466,3.407,4.54,6.101,5.964c2.695,1.425,5.115,3.374,7.646,5.106
	c1.819,1.245,3.321,2.765,4.304,4.784c2.999,6.161,7.29,11.563,10.282,17.761c1.878,3.89,4.115,7.538,5.244,11.805
	c0.627,2.37,2.247,4.504,4.415,5.975c0.613,0.416,1.259,0.656,1.92-0.044c0.481-0.509,1.029-0.979,1.618-1.355
	c1.654-1.055,2.072-2.814,2.831-4.602C556.413,200.672,556.196,199.939,555.719,199.473z M305.164,96.709
	c4.524,0.144,7.342-2.507,9.649-5.912c0.23-0.339,0.135-1.112-0.101-1.513c-0.634-1.08-1.318-2.176-2.194-3.053
	c-0.591-0.593-1.508-1.044-2.34-1.177c-2.044-0.327-4.282,0.685-6.167-0.975c-0.176-0.155-0.999,0.24-1.384,0.55
	c-0.554,0.446-0.941,1.094-1.47,1.577c-2.052,1.872-1.719,4.225-1.187,6.5C300.473,94.848,303.169,96.783,305.164,96.709z
	 M509.704,248.134c0.102,0.712,0.24,1.448,0.168,2.153c-0.495,4.869-1.114,9.727-1.537,14.602c-0.178,2.051-0.759,3.811-1.837,5.587
	c-1.956,3.222-4.406,6.27-4.678,10.275c-2.61,4.728-4.717,9.661-8.621,13.715c-2.884,2.995-6.051,5.641-9.073,8.435
	c-2.764,2.556-6.207,4.372-9.318,6.561c-2.959,2.082-5.729,4.478-8.846,6.278c-4.516,2.607-9.266,4.811-13.929,7.161
	c-0.476,0.24-1.033,0.378-1.566,0.436c-6.508,0.704-12.604,2.954-18.813,4.835c-4.142,1.255-8.469,1.892-12.701,2.86
	c-2.117,0.484-4.223,1.034-6.307,1.646c-7.635,2.239-15.221,4.661-22.9,6.737c-7.377,1.994-14.99,2.529-22.599,2.732
	c-6.296,0.168-6.822-0.27-4.318,6.33c1.703,4.487,2.071,9.117,2.405,13.8c0.167,2.339,0.224,4.714,0.694,6.998
	c0.967,4.703,1.063,9.337-0.095,14.016c-0.25,1.012-0.17,2.159-0.012,3.209c0.887,5.909,1.523,11.883,2.891,17.683
	c0.903,3.827-0.338,6.498-3.003,8.604c-2.859,2.259-6.139,3.888-9.957,2.096c-0.806-0.378-1.252-0.117-1.86,0.388
	c-3.88,3.221-8.202,3.861-13.021,2.402c-6.738-2.041-13.424-4.227-20.321-5.786c-4.903-1.108-9.698-2.776-14.661-3.723
	c-5.983-1.142-11.861-1.382-17.418,1.84c-1.391,0.806-2.971,1.422-4.543,1.759c-6.851,1.469-13.149,4.483-19.685,6.833
	c-3.737,1.344-7.473,2.754-11.311,3.733c-4.136,1.055-8.251,1.012-11.883-1.906c-2.529-2.032-5.148-3.965-7.827-5.794
	c-3.143-2.146-6.505-3.804-10.457-3.857c-4.713-0.063-9.425-0.172-14.136-0.295c-3.263-0.085-6.447,0.231-9.569,1.289
	c-1.353,0.458-2.828,0.6-4.261,0.776c-4.314,0.529-8.672,0.796-12.941,1.566c-3.531,0.637-6.961,1.839-10.432,2.805
	c-0.521,0.145-1.007,0.483-1.53,0.541c-4.485,0.501-8.283,2.583-11.78,5.237c-3.139,2.382-6.781,3.456-10.497,4.294
	c-3.796,0.856-5.656-0.453-7.938-3.912c-2.674-4.052-2.777-8.565-3.008-13.051c-0.233-4.521-0.051-9.064-0.051-13.597
	c-0.029,0-0.058,0.001-0.088,0.001c0-5.241-0.327-10.509,0.085-15.718c0.485-6.121,1.588-12.195,2.473-18.282
	c0.337-2.32-0.275-2.946-2.631-2.358c-5.622,1.404-11.249,2.796-16.849,4.285c-4.725,1.256-9.736,1.361-14.226,3.551
	c-6.919,0.89-13.782,2.207-20.802,2.278c-3.249,0.033-6.495,0.519-9.739,0.837c-5.24,0.514-10.439,0.422-15.492-1.23
	c-2.74-0.896-5.407-2.013-8.137-2.942c-1.711-0.582-3.469-1.033-5.221-1.481c-3.691-0.943-7.376-1.883-10.756-3.726
	c-2.876-1.569-5.574-3.23-7.378-6.196c-1.205-1.982-2.974-3.644-4.608-5.337c-4.337-4.494-6.544-10.403-10.263-15.308
	c-0.754-0.995-1.151-2.257-1.736-3.383c-0.747-1.44-1.325-3.019-2.312-4.275c-4.986-6.342-6.835-13.969-8.318-21.552
	c-0.956-4.892-0.536-10.076-0.526-15.129c0.011-5.609,0.335-11.223,1.18-16.768c0.79-5.182,1.781-10.343,2.932-15.457
	c0.556-2.473,1.228-4.889,1.421-7.443c0.107-1.406,0.686-2.8,1.192-4.146c1.721-4.575,3.297-9.221,5.311-13.666
	c3.358-7.414,5.769-15.317,10.07-22.221c3.21-5.153,6.406-10.403,11.12-14.6c4.189-3.73,8.645-7.03,13.044-10.46
	c4-3.118,7.935-6.32,12.016-9.345c4.788-3.548,9.614-6.899,15.113-9.406c8.439-3.846,17.355-6.308,25.928-9.73
	c7.367-1.215,14.068-4.755,21.389-6.132c1.953-0.367,3.902-0.76,5.864-1.072c5.72-0.912,11.444-1.797,17.169-2.675
	c2.152-0.33,4.305-0.786,6.47-0.878c5.625-0.237,11.211-0.862,16.741-1.808c3.502-0.599,6.908-0.375,10.244,0.414
	c7.847,1.855,15.833,2.081,23.813,2.256c2.677,0.059,5.386-0.619,8.056-1.096c4.626-0.826,9.07-2.753,13.911-2.263
	c1.434,0.145,2.865,0.351,4.303,0.407c1.786,0.071,3.578-0.006,5.366,0.024c0.87,0.015,1.747,0.073,2.605,0.213
	c0.85,0.138,1.37-0.117,1.581-0.956c0.044-0.175,0.097-0.354,0.102-0.533c0.124-4.686,0.213-9.372,0.663-14.043
	c0.077-0.797-0.429-1.358-1.333-1.248c-0.536,0.065-1.086,0.405-1.586,0.33c-5.057-0.763-7.937,2.112-10.631,5.836
	c-1.876,2.593-3.718,5.302-6.823,6.888c-1.661,0.848-3.336,1.272-5.068,1.665c-1.137,0.259-2.064-0.168-2.803-1.182
	c-0.625-0.858-1.407-1.655-2.263-2.284c-2.558-1.876-3.49-4.626-3.875-7.514c-0.382-2.87-0.436-5.799-0.422-8.702
	c0.015-3.139,0.916-6.117,2.49-8.826c0.935-1.61,1.533-3.267,1.664-5.107c0.045-0.635-0.828-1.348-1.515-1.115
	c-0.826,0.28-1.743,0.57-2.361,1.138c-4.093,3.759-9.034,5.012-14.416,5.262c-3.545,0.164-6.308-1.06-8.627-3.723
	c-2.528-2.905-4.359-6.135-5.678-9.751c-0.906-2.484-1.204-4.992-0.718-7.485c0.517-2.653,1.358-5.269,2.32-7.802
	c1.028-2.706,2.357-5.298,3.564-7.936c1.784-3.901,4.752-6.942,8.031-9.437c3.288-2.502,7.2-4.173,10.773-6.318
	c1.179-0.707,3.269-0.3,3.491-1.82c0.129-0.886-1.156-2.204-2.094-2.978c-2.773-2.287-3.051-5.667-4.065-8.717
	c-0.203-0.611,0.013-1.427,0.218-2.093c0.372-1.211,1.161-2.352,1.285-3.572c0.745-7.329,5.894-10.438,12.008-12.316
	c5.897-1.811,12.04-2.561,18.201-2.925c1.615-0.095,3.249,0.187,4.875,0.229c3.805,0.098,7.612,0.181,11.418,0.19
	c0.409,0.001,1.068-0.463,1.162-0.827c0.106-0.412-0.173-1.07-0.501-1.416c-0.743-0.785-1.752-1.339-2.413-2.177
	c-1.339-1.7-2.772-3.402-3.711-5.325c-1.899-3.885-0.984-8.639,2.433-11.237c3.277-2.492,6.628-4.986,10.825-6.013
	c2.34-0.573,4.683-0.985,6.993-0.627c7.175,1.11,14.358,2.299,20.923,5.678c1.441,0.742,2.885,1.514,4.211,2.439
	c3.414,2.381,6.752,4.871,10.144,7.285c1.033,0.735,2.063,1.578,3.229,2.004c4.182,1.529,7.544,4.37,10.971,6.992
	c2.4,1.836,4.342,4.37,6.175,6.826c3.906,5.233,8.416,10.054,11.492,15.865c2.964,5.599,5.854,11.25,8.459,17.022
	c2.332,5.167,3.344,10.757,3.729,16.386c0.171,2.492-0.092,5.127-0.75,7.536c-1.005,3.681-2.26,7.269-2.363,11.143
	c-0.023,0.868-0.45,1.743-0.77,2.584c-1.956,5.132-4.623,9.708-9.014,13.275c-2.357,1.914-4.065,4.605-6.231,6.781
	c-3.693,3.71-7.519,7.289-11.283,10.929c-0.653,0.631-1.348,1.236-1.902,1.948c-1.141,1.467-2.492,2.581-4.263,3.233
	c-1.014,0.373-2.032,0.86-2.895,1.501c-4.278,3.176-9.089,4.171-14.329,3.957c-3.986-0.163-7.99-0.083-11.978,0.084
	c-2.877,0.12-5.323-0.977-7.725-2.253c-0.558-0.296-0.977-1.059-1.223-1.698c-0.568-1.476,0.596-3.246,2.086-3.007
	c6.977,1.116,13.723-0.807,20.523-1.615c5.43-0.645,10.244-3.084,14.353-6.987c4.58-4.35,9.635-8.198,14.26-12.504
	c2.771-2.579,5.455-5.39,7.538-8.523c1.54-2.315,2.268-5.266,2.909-8.037c0.276-1.191,0.383-2.42,0.821-3.623
	c0.928-2.552,1.77-5.145,2.472-7.768c1.01-3.778,0.665-7.649-0.316-11.309c-1.452-5.415-3.199-10.777-5.224-16.005
	c-1.889-4.878-5.7-8.333-9.875-11.346c-0.434-0.313-0.956-0.562-1.474-0.692c-3.491-0.877-6.971-1.819-10.497-2.531
	c-2.642-0.534-5.344-0.776-8.025-1.105c-0.715-0.088-1.458-0.094-2.173-0.011c-7.004,0.806-13.982,1.595-20.686,4.103
	c-4.157,1.555-7.165,4.169-9.301,7.889c-1.346,2.344-2.511,4.798-3.658,7.249c-1.321,2.822-2.921,5.437-5.174,7.609
	c-1.607,1.549-3.319,2.871-5.773,1.943c-6.164,0.507-11.599,2.879-16.114,6.996c-2.178,1.986-3.155,4.859-2.881,7.947
	c0.224,2.527,1.341,4.324,3.782,5.496c3.566,1.712,7.246,2.201,11.121,2.06c1.745-0.064,3.079-0.357,4.065-2.085
	c0.698-1.223,1.646-1.187,2.763-0.344c0.847,0.64,1.646,1.392,2.302,2.223c0.828,1.047,0.988,2.198,0.433,3.553
	c-2.765,6.743-4.292,13.829-5.614,20.964c-0.165,0.891-0.398,1.783-0.44,2.682c-0.384,8.335-0.834,16.668-1.034,25.008
	c-0.069,2.872,0.577,5.757,0.751,8.644c0.045,0.739,1.386,1.643,0.092,2.162c-0.701,0.281-1.902,0.025-2.556-0.441
	c-1.308-0.931-2.372-2.199-3.585-3.271c-0.362-0.32-0.939-0.711-1.332-0.634c-4.97,0.983-9.935,2.002-14.879,3.111
	c-1.945,0.436-2.109,0.716-1.777,2.604c1.291,7.338,4.355,13.85,9.667,19.108c2.819,2.79,5.852,5.349,9.422,7.303
	c5.249,2.874,10.876,4.039,16.697,4.223c5.075,0.16,10.177-0.087,15.247-0.44c2.502-0.174,4.979-0.917,7.43-1.546
	c2.449-0.629,4.81-1.685,7.286-2.107c3.454-0.589,6.608-1.764,9.711-3.351c2.726-1.394,5.742-2.217,8.483-3.587
	c4.726-2.361,9.011-5.37,12.482-9.44c1.043-1.223,2.269-2.289,3.38-3.457c0.734-0.773,1.639-1.493,2.073-2.421
	c1.365-2.924,1.705-2.888-1.732-4.079c-0.332-0.115-0.761,0.008-1.064-0.142c-4.343-2.149-8.885-2.878-13.727-2.412
	c-2.465,0.237-4.901-3.61-3.908-5.865c0.27-0.612,0.862-1.239,1.465-1.521c2.131-0.996,4.276-2.038,6.524-2.683
	c1.502-0.431,3.265-0.564,4.778-0.231c4.597,1.014,9.429,0.683,13.882,2.491c0.65,0.264,1.43,0.232,2.154,0.29
	c5.781,0.461,11.58,0.767,17.34,1.42c3.222,0.365,6.397,1.224,9.56,1.998c3.214,0.786,6.357,1.793,9.665,2.205
	c0.002,0,0.004,0.001,0.006,0.001c0.489,0.061,0.981,0.11,1.479,0.142c2.311,0.149,4.624,0.892,6.85,1.629
	c0.847,0.28,1.693,0.557,2.541,0.832c0.121-0.015,0.241-0.023,0.343-0.013c0.268,0.037,0.4,0.138,0.323,0.227
	c1.277,0.41,2.557,0.807,3.842,1.188c-0.002-0.258,0.081-0.384,0.437-0.262c0.502,0.069,1.005,0.138,1.48-0.007
	c0.476-0.145,0.49-0.038,1.032,0.352c0.013,0.107,0.039,0.32-0.449,0.358c-0.408-0.013-0.545,0.047-0.508,0.13
	c0.717,0.199,1.437,0.39,2.159,0.574c0.063-0.025,0.177-0.033,0.405-0.002c0.501,0.069,0.99,0.031,0.954-0.289
	c-0.037-0.317-0.06-0.542,0.441-0.451c0,0,0,0-0.513-0.189c-1.032-0.341-0.072-0.664,0.932-0.477l1.506,0.267
	c-0.011-0.108,0.491-0.019,1.495,0.16c0.502,0.089,1.004,0.178,0.523,0.304c0.021,0.215,0.031,0.322,0.031,0.322
	c0.501,0.089,0.511,0.196,0.511,0.196c0.01,0.107,0.01,0.107,0.01,0.107c0.51,0.196,0.53,0.411,0.558,0.733
	c0.021,0.234,0.033,0.369,0.038,0.429c-0.517-0.303-0.519-0.304-1.485-0.158c-0.275,0.041-0.463,0.08-0.591,0.118
	c0.236,0.045,0.471,0.095,0.708,0.138c1.461,0.261,2.888,0.714,4.308,1.203c0.033-0.007,0.078-0.012,0.108-0.019
	c1.455-0.145,2.412-0.44,1.368-1.424c-0.015-0.216-0.022-0.325-0.022-0.325c0.498,0.109,0.996,0.218,0.989,0.11
	c-0.007-0.108-0.007-0.108,0.997,0.219c0.498,0.109,1.003,0.327,1.009,0.435c0.504,0.217,0.51,0.325,1.013,0.542
	c0.497,0.109,0.503,0.217,0.503,0.217c0.005,0.108,0.01,0.215,0.01,0.215c0.507,0.324,1.499,0.542,1.991,0.544
	c0.489-0.105-1.021-0.864-1.52-0.973c-0.503-0.217-1.511-0.652-1.018-0.65c-0.006-0.108,0.493,0.002,0.499,0.11
	c0.504,0.217,2.004,0.654,2,0.546s-0.508-0.325-1.007-0.435c0,0,0,0,0.998,0.22c0.499,0.11,1.501,0.437,1.505,0.544
	c0.004,0.105,0.503,0.214,0.995,0.352c-0.501-0.347,0.978-0.173,2.466,0.327c0.99,0.261,1.485,0.392,0.993,0.477
	c0.003,0.216,0.004,0.324,0.498,0.454c0,0,0.494,0.13,0.493,0.022s-0.003-0.323,0.493-0.193c0.495,0.131,0.495,0.561-0.49,0.516
	c-0.492,0.086-0.492,0.085,0.494,0.238c0.986,0.153,0.987,0.26,0.986,0.368c-0.493-0.023,0,0.215,0,0.107
	c0.493,0.13,0.493,0.023,0.494-0.085c0-0.107,0.617-0.133,1.36-0.097c0.735,0.064,1.595,0.194,2.085,0.345l0.98,0.303
	c0.49,0.152,0.493,0.044,0.496-0.064c-0.485-0.368,0.5-0.172,1.475,0.348c0.487,0.26,1.467,0.564,1.973,0.394
	c0.501-0.062,0.502-0.062,0.983,0.305c0.482,0.371,2.381,1.619,2.872,1.679c0,0,0.007-0.108,0.022-0.324
	c0.007-0.108,0.022-0.324-0.464-0.498c0,0-0.485-0.174-0.479-0.282c0.013-0.216,0.013-0.216-0.486-0.174
	c-0.498,0.043-0.498,0.043-0.977-0.239c-0.96-0.651-0.466-0.513,2.935,0.718c2.432,0.871,3.405,1.221,3.395,1.328
	c-0.01,0.108,0.459,0.494,0.922,0.885c0.457,0.411,0.911,0.821,0.9,0.929c-0.501,0.027-0.493,0.009-1.433-0.57
	c-0.464-0.387-1.423-0.842-2.383-1.297c-0.961-0.455-0.961-0.455-0.969-0.347c-0.008,0.108-0.016,0.215,0.468,0.389
	c0.484,0.179,3.353,1.631,3.333,1.761c-0.021,0.216-0.023,0.215,1.913,0.669c1.439,0.476,1.44,0.476,1.427,0.583
	c-0.013,0.107-0.013,0.107,0.463,0.302c0.475,0.195,0.462,0.302,0.436,0.515c-0.488-0.087-0.013,0.107,0.461,0.301
	s0.963,0.282,0.977,0.175c0.014-0.107,0.028-0.213,0.028-0.213c0.476,0.195,0.447,0.408,0.418,0.621
	c-0.056,0.423,0.373,0.932,1.297,1.371c0.464,0.214,0.464,0.214,0.016-0.107c-0.464-0.214-0.449-0.322,0.048-0.322
	c0.481,0.107,0.499,0.001-0.372-0.859c-0.856-1.046-0.358-0.977,1.482,0.111c0.937,0.433,1.874,0.866,1.874,0.866
	c0.469,0.217,0.937,0.433,0.919,0.54c-0.018,0.106-0.036,0.213-0.521,0.103c-0.952-0.326-1.003-0.005-0.053,0.319
	c0.467,0.216,0.933,0.431,0.43,0.428c-0.036,0.213,0.875,0.748,1.844,0.968c0.483,0.114,0.504,0.006,0.019-0.106
	c-0.931-0.431-1.305-1.177-0.82-1.067c0.965,0.302,2.586,1.052,4.024,1.775c1.44,0.717,2.697,1.399,2.902,1.623
	c0.439,0.398,4.412,2.88,4.447,2.76c0.082-0.313,0.476,0.155,0.867,0.622c-0.056,0.208-0.056,0.208-0.503-0.051
	c-0.447-0.258-0.474-0.154-0.502-0.05c-0.027,0.104,0.391,0.466,0.363,0.57c0.444,0.26,1.088,0.743,1.546,1.171
	c0.45,0.442,0.728,0.805,0.482,0.771c-0.492-0.068,0.37,0.483,1.296,0.829c0.495,0.07,0.896,0.45,0.8,0.759
	c-0.032,0.103,0.367,0.482,0.797,0.758c0.398,0.378,0.431,0.276,0.53-0.031s-0.301-0.688-1.167-1.242
	c-0.464-0.174-0.433-0.277-0.433-0.277c0.032-0.103,0.063-0.207-0.37-0.484c0,0,0.031-0.104,0.496,0.071
	c0.498,0.072,0.062-0.207-0.868-0.556c-0.902-0.446-1.324-0.741-1.714-1.203c-0.419-0.359-0.414-0.368,0.471,0.161
	c0.87,0.556,1.769,1.008,2.703,1.359c1.402,0.528,1.842,0.81,2.212,1.294c0.37,0.484,0.369,0.484,0.436,0.28
	c0.034-0.104,0.506,0.072,0.856,0.584c0.389,0.402,0.812,0.701,1.271,0.898c0.495,0.095,2.193,1.296,1.731,1.097l-0.111,0.304
	c0.423,0.299,0.348,0.501,0.348,0.501c-0.113,0.305,0.312,0.596,1.225,1.002c0.896,0.432,1.676,1.17,1.186,1.053
	c-0.04,0.101-0.08,0.201-0.08,0.201c0.408,0.317,0.816,0.634,0.816,0.634c0.041-0.1,0.041-0.1,0.449,0.217
	c0.816,0.635,0.858,0.536,0.941,0.337c-0.286-0.618,0.618-0.178,0.902,0.439c-0.043,0.1,0.411,0.316,0.86,0.542
	c0.879,0.476,1.673,1.153,1.143,1.111c-0.396-0.337-0.045,0.098,0.791,0.675c0.791,0.675,1.187,1.013,1.141,1.11
	c-0.046,0.098-0.441-0.24-0.881-0.479c0,0,0.349,0.435,0.743,0.771c1.136,1.107,1.135,1.107,1.182,1.011c0,0,0.048-0.097-0.3-0.531
	c0,0,0.057-0.11,0.921,0.398l0.478,0.161l-0.097,0.194c-0.097,0.194,0.284,0.549,0.284,0.549c0.38,0.355,0.761,0.71,0.711,0.806
	c-0.049,0.096,0.33,0.451,0.76,0.71c0.861,0.519,1.571,1.327,1.089,1.16c-0.811-0.614-0.53-0.072,0.275,0.546
	c0.364,0.37,0.833,0.552,0.886,0.457c0.023-0.042,0.039-0.07,0.053-0.095c0.312,0.467,0.259,0.561-0.158,0.284l-0.106,0.189
	c-0.053,0.095-0.053,0.095,0.31,0.465c0.78,0.646,0.78,0.647,1.089,1.111c0.199,0.649-0.632,0.098-1.611-1.198
	c-0.309-0.464-0.309-0.464-0.626,0.104c-0.265,0.473-0.318,0.567-0.013,1.027c0.664,0.825,1.021,1.19,1.434,1.463
	c0.409,0.277,0.782,0.632,1.369,1.564c0.286,0.473,0.627,0.853,1.027,1.143c0.342,0.381,0.401,0.29,0.115-0.183
	c0.058-0.092,0.115-0.183,0.115-0.183c0.057-0.092,0.344,0.383,0.629,0.856c0.058-0.091,0.46,0.201,0.863,0.494
	c0.747,0.677,0.807,0.588,0.117-0.181c-0.345-0.384-0.631-0.859-0.573-0.95c0,0,0.345,0.385,0.691,0.769
	c0,0,0.345,0.385,0.404,0.294c0.463,0.205,0.464,0.206,0.75,0.681c0.339,0.392,0.54,0.977,0.481,1.065
	c-0.061,0.09-0.061,0.09,0.268,0.488c0,0-0.061,0.089-0.123,0.178c-0.061,0.089-0.123,0.178,0.266,0.487
	c0.328,0.398,0.717,0.707,1.045,1.106c0.328,0.398,0.656,0.797,0.391,0.311c-0.265-0.486-0.86-1.373-1.189-1.772
	c-0.329-0.399-0.329-0.399-0.268-0.488c0,0,0.062-0.089,0.658,0.799c0.329,0.399,0.658,0.799,0.783,0.623
	c0.454,0.225,0.455,0.225,0.267,0.488c-0.126,0.177,0.144,0.659,0.465,1.064c0,0,0.248,0.5,0.183,0.587
	c-0.065,0.087-0.065,0.087,0.246,0.499c0.311,0.411,0.622,0.823,0.376,0.325c0.065-0.086,0.13-0.173,0.442,0.24
	s0.558,0.911,0.492,0.996c-0.133,0.171-0.131,0.169,0.798,1.406c1.244,1.612,1.244,1.613,0.52,0.932
	c-0.656-0.763-0.723-0.678-0.791-0.593c-0.299-0.418-0.238-0.498-0.238-0.498c0.434,0.25-2.393-3.39-3.122-4.083
	c-1.104-1.015-1.102-1.012-1.632-1.982c-0.204-0.575-0.265-0.486-0.388-0.307c-0.036,0.052-0.092,0.046-0.157,0.015
	c1.941,2.232,3.777,4.549,5.539,6.926c-0.011-0.028-0.017-0.055-0.004-0.071c0.123,0.177,0.129,0.217,0.101,0.201
	c1.145,1.548,2.271,3.109,3.371,4.691c0.414,0.596,0.719,1.38,1.289,1.736c2.908,1.814,4.127,5.009,6.276,7.428
	C507.435,238.302,508.971,243.039,509.704,248.134z M240.204,116.288c0.575-3.375,1.156-6.75,1.688-10.132
	c0.159-1.012-0.428-1.585-1.611-1.691c-5.051-0.453-10.097-0.963-15.156-1.305c-2.437-0.165-4.123-1.283-5.218-3.344
	c-1.657-3.116-2.596-6.414-1.751-9.953c0.629-2.635,1.311-5.274,2.211-7.826c3.164-8.97,10.757-14.386,20.157-14.513
	c0.726-0.01,1.452-0.015,2.178-0.005c1.264,0.018,2.229-0.617,2.358-1.797c0.386-3.539,2.308-6.455,3.641-9.608
	c2.229-5.27,5.51-9.999,10.041-13.283c8.383-6.076,17.922-9.418,28.446-9.059c3.606,0.123,7.213,0.634,10.786,1.188
	c3.024,0.469,5.995,1.272,8.999,1.884c0.3,0.061,0.669-0.159,0.988-0.292c0.052-0.022,0.071-0.332-0.001-0.408
	c-2.323-2.465-3.805-5.771-7.339-7.027c-1.523-0.541-2.923-1.436-4.367-2.193c-3.684-1.931-7.466-3.705-11.009-5.868
	c-2.918-1.781-5.752-3.593-8.897-5.041c-6.726-3.096-13.704-4.409-21.025-4.29c-2.018,0.033-3.961,0.419-5.695,1.56
	c-0.689,0.453-0.852,1.206-0.238,1.793c1.048,1.001,2.046,2.098,3.24,2.893c2.209,1.47,3.602,3.527,4.787,5.806
	c1.812,3.486,0.796,7.034-2.725,8.641c-1.961,0.896-4.088,1.882-6.174,1.966c-5.766,0.233-11.448,1.994-16.699,0.906
	c-2.01,0.121-3.45,0.356-4.871,0.267c-5.237-0.327-9.961,1.214-14.529,3.6c-2.232,1.166-2.896,3.172-3.148,5.331
	c-0.213,1.819,1.531,2.275,2.768,2.938c1.899,1.018,3.879,1.884,5.766,2.924c0.942,0.519,1.826,1.199,2.606,1.942
	c2.5,2.382,2.633,4.905,0.034,6.982c-3.241,2.589-6.532,5.133-10.652,6.39c-3.274,0.999-6.471,2.309-9.601,3.709
	c-4.316,1.931-8.403,4.316-10.9,8.532c-2.813,4.749-4.737,9.733-2.838,15.405c0.431,1.288,1.175,2.017,2.38,2.714
	c2.973,1.72,6.133,2.418,9.42,1.915c3.578-0.548,7.145-0.958,10.756-1.176c1.236-0.074,2.387-0.745,3.527,0.304
	c1.061,0.976,2.332,1.749,2.469,3.41c0.102,1.245,0.46,2.482,0.447,3.721c-0.041,4.129-0.029,8.26-1.084,12.322
	c-0.3,1.155-0.136,2.498,0.09,3.704c0.296,1.576,1.268,2.091,2.786,1.584c3.276-1.095,6.616-1.771,10.063-2.066
	c3.428-0.294,6.837-0.8,10.258-1.188C238.978,118.392,239.953,117.761,240.204,116.288z M28.684,256.822
	c-0.276,0.803-0.553,1.607-0.83,2.41c0.391-0.88,1.163-1.669,1.287-1.178c0.212,0.034,0.127,0.501-0.232,1.881
	c-0.275,0.914-0.358,1.379-0.358,1.379s0.296-0.432,0.592-0.865c0.486-0.88,0.782-1.312,0.486-0.88
	c-0.318-0.05-0.234-0.515,0.041-1.43c0.392-0.892,0.3-0.903-0.024-0.958c-0.746-0.124-0.746-0.123-0.333-1.01
	c0.313-0.425,0.413-0.886,0.1-0.461C29.143,256.076,28.886,256.444,28.684,256.822z M27.572,260.688
	c-0.085,0.466,0.128,0.498,0.128,0.498c0.297-0.434,0.488-0.883,0.169-0.932c-0.02-0.454-0.039-0.893-0.042-0.946
	c-0.102,0.297-0.204,0.594-0.308,0.891C27.567,260.267,27.59,260.416,27.572,260.688z M27.021,261.594
	c-0.215,0.598-0.437,1.192-0.664,1.786c0.092,0.013,0.176,0.025,0.176,0.025C26.979,262.597,27.154,261.76,27.021,261.594z
	 M144.229,165.791c0.142,0.023,0.348,0.019,0.625-0.037c0.702-0.069,1.712-0.499,2.112-0.764
	C146.055,165.259,145.143,165.531,144.229,165.791z M154.464,345.44c4.019-1.652,7.987-3.346,12.337-4.07
	c2.29-0.381,4.577-1.183,6.686-2.177c6.122-2.884,12.586-4.536,19.205-5.644c2.073-0.347,3.783-0.881,4.948-2.838
	c0.515-0.864,1.594-1.444,2.505-2.013c5.218-3.255,10.421-6.538,15.72-9.659c1.985-1.17,4.012-1.996,2.42-4.867
	c-0.219-0.395-0.156-1.2,0.113-1.571c1.583-2.183,2.78-4.727,5.321-6.064c0.638-0.336,1.345-0.548,1.959-0.919
	c0.264-0.16,0.481-0.571,0.507-0.885c0.016-0.196-0.338-0.572-0.571-0.614c-0.89-0.16-1.808-0.346-2.699-0.285
	c-2.051,0.139-3.396-1.194-4.757-2.295c-2.648-2.141-2.573-5.768,0.024-7.839c0.561-0.447,1.222-0.777,1.862-1.115
	c5.933-3.128,11.672-6.581,17.247-10.308c0.297-0.199,0.712-0.349,0.842-0.629c0.095-0.204-0.119-0.778-0.317-0.85
	c-0.657-0.238-1.388-0.505-2.058-0.438c-7.029,0.698-14.056,1.417-21.07,2.242c-1.225,0.144-2.463,0.667-3.567,1.255
	c-4.225,2.247-8.747,3.354-13.459,3.956c-2.323,0.297-4.604,0.938-6.896,1.462c-7.208,1.649-14.249,4.007-21.607,5.034
	c-3.035,0.424-6.046,1.025-9.066,1.551c-6.774,1.179-13.534,2.446-20.323,3.523c-10.313,1.637-8.573-0.097-9.181,10.514
	c-0.01,0.18,0.023,0.361,0.109,1.598c-0.012,4.238,0.732,9.368,2.653,14.379c1.615,4.211,2.666,8.637,4.011,12.954
	c0.265,0.851,0.651,1.692,1.129,2.443c1.068,1.679,2.215,3.309,3.358,4.94c0.774,1.104,1.777,1.538,3.214,1.598
	C148.469,347.949,151.462,346.675,154.464,345.44z M144.25,278.188c1.594-7.432,3.439-14.81,4.959-22.256
	c0.621-3.044,1.397-5.986,2.654-8.817c0.366-0.825,0.573-1.72,0.924-2.553c2.005-4.749,2.093-9.891,3.113-14.842
	c1.51-7.331,0.833-14.833,1.951-22.196c0.313-2.063-1.022-3.114-2.901-3.048c-3.816,0.133-7.564,0.445-11.19,1.862
	c-2.691,1.052-5.466,2.045-8.295,2.55c-4.887,0.871-9.366,2.828-13.877,4.688c-5.005,2.063-10.1,3.98-14.482,7.325
	c-2.731,2.084-5.424,4.3-8.419,5.935c-3.566,1.947-6.417,4.741-9.28,7.412c-2.87,2.678-5.716,5.521-7.774,9.033
	c-2.645,4.514-5.483,8.926-8.45,13.235c-2.302,3.343-3.691,7.065-5.056,10.799c-0.993,2.714-1.774,5.528-2.386,8.354
	c-0.728,3.36-1.355,6.762-1.691,10.179c-0.359,3.654,0.785,6.698,4.18,8.793c2.494,1.539,4.843,3.108,7.911,3.292
	c2.883,0.173,5.748,0.634,8.621,0.968c4.222-0.106,8.322-0.571,12.419-1.615c6.314-1.608,12.616-3.353,19.221-3.517
	c1.969-0.049,3.949-0.59,5.879-1.083c6.147-1.572,12.275-3.223,18.407-4.853c1.921-0.511,3.072-1.508,2.746-3.248
	C143,282.275,143.803,280.268,144.25,278.188z M215.907,258.257c-0.022,0-0.044,0-0.066,0c0,5.068-0.018,10.136,0.009,15.204
	c0.011,2.044,0.521,2.476,2.622,2.318c0.899-0.068,1.801-0.188,2.684-0.37c3.363-0.694,6.714-1.448,10.08-2.131
	c2.066-0.42,2.944-1.075,2.879-3.229c-0.141-4.69-0.325-9.404-0.954-14.045c-0.335-2.47-1.609-4.854-4.062-6.147
	c-4.013-2.116-7.669-4.748-11.247-7.511c-0.368-0.284-1.174-0.456-1.48-0.246c-0.335,0.229-0.442,0.961-0.445,1.475
	C215.895,248.469,215.907,253.363,215.907,258.257z M311.014,297.443c0.329-1.022,0.626-2.102,0.66-3.164
	c0.171-5.413,0.28-10.828,0.348-16.243c0.03-2.349-0.053-4.702-0.153-7.051c-0.161-3.799-0.398-7.596-0.561-11.395
	c-0.061-1.426-0.499-2.13-1.772-2.192c-2.355-0.115-4.716-0.168-7.074-0.173c-11.405-0.023-22.81-0.019-34.214-0.028
	c-3.991-0.003-7.906-0.101-11.704-1.818c-2.973-1.344-6.295-1.552-9.59-1.462c-2.706,0.074-4.512,1.343-5.2,3.936
	c-1.165,4.391-1.979,8.845-1.736,13.425c0.055,1.037,0.66,1.717,1.653,1.855c2.593,0.359,4.884,1.359,6.89,3.018
	c2.144,1.773,2.235,3.374,0.681,5.599c-3.082,4.411-7.399,7.402-11.677,10.449c-1.177,0.839-2.434,1.565-3.655,2.343
	c1.184,0.977,2.431,1.888,3.534,2.949c1.04,0.999,2.041,2.079,2.853,3.264c0.882,1.287,0.895,2.723-0.04,4.076
	c-2.113,3.054-4.789,5.371-8.314,6.711c-1.899,0.722-2.024,1.333-0.371,2.316c1.115,0.663,1.5,1.402,1.629,2.534
	c0.182,1.602,0.062,3.362,0.706,4.763c1.363,2.963,1.41,5.928,1.065,9.047c-0.278,2.513-0.404,5.052-0.422,7.582
	c-0.002,0.282,0.004,0.536,0.014,0.774c0.078,0.132,0.157,0.233,0.197,0.23c0.103-0.009,0.112,0.094,0.121,0.198
	c0.018,0.207,0.14,0.405,0.346,0.386c0.225,0.189,0.225,0.189,0.094-0.113c-0.14-0.405-0.046-0.517,0.188-0.225
	c0.112,0.094,0.225,0.189,0.122,0.198c-0.103,0.009-0.094,0.113-0.085,0.216c0,0,0.103-0.009,0.206-0.018
	c0.094-0.113,0.094-0.113,0.085-0.216c-0.112-0.094-0.131-0.301-0.046-0.517l0.076-0.32l0.027,0.31
	c0.14,0.405,0.252,0.499,0.431,0.17c0.179-0.329,0.179-0.329-0.046-0.517c-0.328-0.179-0.252-0.499,0.057-0.526
	c0.206-0.018,0.225,0.189,0.027,0.31c-0.103,0.009-0.094,0.113,0.009,0.103c0.225,0.189,0.403-0.14,0.282-0.338
	c-0.018-0.207-0.018-0.207,0.188-0.225c0.3-0.131,0.319,0.076,0.14,0.405c-0.188,0.225-0.066,0.423,0.131,0.301
	c0.094-0.113,0.197-0.122,0.197-0.122c0.122,0.198,0.225,0.189,0.3-0.131c0.076-0.32,0.3-0.131,0.234,0.292l0.027,0.31l0.3-0.131
	c0.291-0.234,0.291-0.234,0.619-0.055c0.216,0.085,0.216,0.085,0.206-0.018c-0.018-0.207,0.188-0.225,0.413-0.037
	c0.009,0.104,0.215,0.085,0.319,0.076c0.206-0.018,0.206-0.018,0.188-0.225c-0.121-0.198-0.018-0.207,0.085-0.216
	c0.206-0.018,0.422,0.067,0.44,0.274c0,0,0.112,0.094,0.215,0.085c0.215,0.085,0.206-0.018,0.197-0.122
	c-0.018-0.207,0.188-0.225,0.422,0.067c0.112,0.094,0.216,0.085,0.319,0.076c0.188-0.225,0.403-0.14,0.534,0.161
	c0.243,0.396,0.44,0.274,0.403-0.14c0,0,0.103-0.009,0.206-0.018c0.215,0.085,0.319,0.076,0.61-0.159
	c0.291-0.234,0.394-0.244,0.394-0.244c0.121,0.198,0.225,0.189,0.309-0.028c-0.009-0.103-0.009-0.103,0.112,0.094
	c0.122,0.198,0.122,0.198,0.225,0.189c-0.009-0.104,0.094-0.113,0.197-0.122s0.3-0.131,0.291-0.234
	c-0.009-0.103,0.094-0.113,0.112,0.094c0.112,0.094,0.112,0.094,0.103-0.009c-0.009-0.104,0.094-0.113,0.197-0.122
	c0.121,0.198,0.309-0.028,0.197-0.122c-0.009-0.104-0.009-0.104,0.094-0.113c0.206-0.018,0.328,0.179,0.337,0.283
	c0.009,0.103,0.112,0.094,0.215,0.085s0.31-0.027,0.319,0.076c0.112,0.094,0.215,0.085,0.413-0.037c0.3-0.131,0.3-0.131,0.319,0.076
	c-0.103,0.009-0.103,0.009-0.094,0.113c0.121,0.198,0.422,0.067,0.291-0.234c-0.027-0.31-0.027-0.31,0.094-0.113
	c0.112,0.094,0.131,0.301,0.131,0.301c0.009,0.104,0.112,0.094,0.309-0.027c0.282-0.338,0.695-0.375,0.713-0.168
	c0.009,0.104,0.122,0.198,0.319,0.076c0.206-0.018,0.413-0.037,0.525,0.058c0.112,0.094,0.215,0.085,0.309-0.028
	c0.197-0.122,0.91-0.289,1.031-0.092c0.009,0.103,0.319,0.076,0.731,0.039c0.413-0.037,0.731,0.039,0.947,0.124
	c0.112,0.094,0.319,0.076,0.319,0.076s-0.009-0.104-0.018-0.207c-0.027-0.31,0.825-0.073,0.853,0.237
	c0.009,0.103,0.018,0.207-0.094,0.113c-0.112-0.094-0.215-0.085-0.206,0.018c-0.085,0.216-0.076,0.319,0.027,0.31
	c0.215,0.085,0.319,0.076,0.497-0.253c0.094-0.113,0.179-0.329,0.17-0.432c-0.009-0.104,0.094-0.113,0.309-0.027
	c0.206-0.018,0.309-0.028,0.309-0.028c0.103-0.009,0.103-0.009,0.215,0.085c0.112,0.094,0.206-0.018,0.403-0.14
	c0.094-0.113,0.094-0.113,0.103-0.009c0.009,0.104,0.216,0.085,0.731,0.039c0.413-0.037,0.816-0.177,0.816-0.177
	c0.103-0.009,0.206-0.018,0.206-0.018c0.009,0.104,0.215,0.085,0.319,0.076c0.197-0.122,0.413-0.037,0.516-0.046
	c0.112,0.094,0.112,0.094,0.206-0.018c-0.009-0.103,0.094-0.113,0.197-0.122c0.112,0.094,0.215,0.085,0.319,0.076
	c0.197-0.122,0.197-0.122,0.197-0.122c0.009,0.104,0.225,0.189,0.431,0.17c0.413-0.037,0.422,0.067,0.552,0.368
	c0.122,0.198,0.14,0.405,0.243,0.396c0.094-0.113,0.076-0.32-0.055-0.621c-0.112-0.094-0.009-0.104,0.094-0.113
	s0.31-0.027,0.319,0.076c0,0,0.103-0.009,0.206-0.018c0.206-0.018,0.197-0.122,0.188-0.225c-0.122-0.198-0.018-0.207-0.009-0.104
	c0.122,0.198,0.328,0.179,1.369,0.191c0.413-0.037,0.713-0.168,0.816-0.177c0.085-0.216,0.188-0.225,0.206-0.018
	c0.018,0.207,0.225,0.189,0.309-0.028c0.094-0.113,0.206-0.018,0.215,0.085c0.009,0.103,0.112,0.094,0.215,0.085
	c0.094-0.113,0.103-0.009,0.121,0.198s0.14,0.405,0.14,0.405c0.103-0.009,0.094-0.113,0.085-0.216
	c-0.018-0.207,0.085-0.216,0.188-0.225c0.206-0.018,0.206-0.018,0.206-0.018c-0.009-0.103,0.085-0.216,0.179-0.329
	s0.197-0.122,0.206-0.018c0,0,0.018,0.207,0.028,0.31s0.009,0.104-0.094,0.113s-0.206,0.018-0.197,0.122
	c0.009,0.104,0.121,0.198,0.121,0.198c0.206-0.018,0.573-0.572,0.658-0.788c0,0,0,0,0.112,0.094s0.225,0.189,0.422,0.067
	c0.094-0.113,0.403-0.14,0.507-0.149c0.422,0.067,0.422,0.067,0.346,0.386c0.037,0.414,0.037,0.414,0.121,0.198
	s0.179-0.329,0.188-0.225c0,0,0.094-0.113,0.197-0.122c-0.009-0.104,0.197-0.122,0.394-0.244c0.309-0.027,0.309-0.027,0.328,0.179
	s0.131,0.301,0.131,0.301c0.112,0.094,0.206-0.018,0.103-0.009c-0.121-0.198,0.376-0.451,0.695-0.375
	c0.206-0.018,0.309-0.028,0.497-0.253c0.188-0.225,0.188-0.225,0.197-0.122c0.018,0.207,0.346,0.386,0.44,0.274
	c0,0,0.094-0.113,0.085-0.216c0.094-0.113,0.094-0.113,0.103-0.009c0,0,0.018,0.207,0.027,0.31c0.018,0.207,0.121,0.198,0.112,0.094
	c0.094-0.113,0.188-0.225,0.3-0.131c0,0,0.206-0.018,0.403-0.14s0.197-0.122,0.206-0.018l0.103-0.009
	c0.103-0.009,0.206-0.018,0.319,0.076c0.112,0.094,0.319,0.076,0.3-0.131c-0.009-0.104,0.094-0.113,0.197-0.122
	c0.096,0.081,0.56,0.052,0.628,0.048c-0.009-0.103,0.094-0.112,0.3-0.13c0.065-0.006,0.103-0.009,0.131-0.012
	c-0.009,0.001-0.015,0.001-0.027,0.002c-0.103,0.009-0.094,0.113-0.085,0.216c0.009,0.104,0.834,0.03,1.125-0.204
	c0.3-0.131,0.713-0.168,0.844,0.134c0.009,0.104,0.121,0.198,0.215,0.085c0.094-0.113,0.197-0.122,0.206-0.018
	c0,0,0.103-0.009,0.206-0.018c0.103-0.009,0.309-0.027,0.516-0.046c0.525,0.058,1.135-0.101,1.013-0.299
	c-0.103,0.009-0.009-0.103,0.103-0.009c0.103-0.009,0.206-0.018,0.094-0.113c-0.009-0.103,0.076-0.32,0.179-0.329
	c0.188-0.225,0.197-0.122,0.103-0.009c0.018,0.207,0.028,0.31,0.131,0.301s0.112,0.094,0.121,0.198
	c0.018,0.207,0.449,0.377,0.656,0.359s0.31-0.028,0.319,0.076c0.009,0.103,0.121,0.198,0.225,0.189c0,0-0.009-0.104-0.121-0.198
	c-0.122-0.198-0.131-0.301,0.385-0.347c0.31-0.027,0.413-0.037,0.422,0.067c0.112,0.094,0.112,0.094,0.206-0.018
	c-0.009-0.103,0.094-0.113,0.103-0.009c0.121,0.198,0.319,0.076,0.394-0.244c0.085-0.216,0.085-0.216,0.206-0.018
	c0.018,0.207,0.131,0.301,0.225,0.189c0.085-0.216,0.188-0.225,0.309-0.027c0.004,0.045,0.007,0.077,0.009,0.103
	c0.094-0.113,0.197-0.122,0.404-0.14c0.215,0.085,0.422,0.067,0.628,0.048s0.413-0.037,0.422,0.067
	c0.121,0.198,0.956,0.228,1.041,0.012c0,0,0.206-0.018,0.413-0.037c0.215,0.085,0.206-0.018,0.188-0.225l-0.028-0.31l0.328,0.179
	c0.337,0.283,0.665,0.462,0.759,0.35c0.103-0.009,0.206-0.018,0.309-0.027c0.215,0.085,0.319,0.076,0.309-0.027
	c0.094-0.113,0.094-0.113,0.085-0.216c0,0,0.103-0.009,0.413-0.037c0.413-0.037,0.516-0.046,0.507-0.149
	c-0.018-0.207-0.018-0.207,0.103-0.009c0.121,0.198,0.121,0.198,0.103-0.009c-0.009-0.103,0.085-0.216,0.206-0.018
	c0.103-0.009,0.112,0.094,0.121,0.198c0.009,0.104,0.121,0.198,0.234,0.292c0.215,0.085,0.215,0.085,0.094-0.113
	c-0.057-0.092-0.087-0.161-0.105-0.201c0.033-0.007,0.109-0.033,0.18-0.119c0.094-0.113,0.103-0.009,0.121,0.198
	s0.121,0.198,0.206-0.018c0.197-0.122,0.197-0.122,0.309-0.028c0.122,0.198,0.122,0.198,0.206-0.018
	c0.076-0.32,0.385-0.347,0.31-0.027l-0.085,0.216l0.188-0.225c0.188-0.225,0.282-0.338,0.394-0.244
	c0.112,0.094,0.215,0.085,0.206-0.018c-0.009-0.104,0.197-0.122,0.507-0.149c0.206-0.018,0.309-0.027,0.3-0.131
	c0,0,0.103-0.009,0.206-0.018c0,0,0.112,0.094,0.027,0.31c0.018,0.207,0.027,0.31,0.121,0.198c0.103-0.009,0.309-0.027,0.309-0.027
	c0.122,0.198,0.431,0.17,0.413-0.037c0,0,0,0-0.103,0.009c0,0-0.103,0.009-0.112-0.094c-0.018-0.207,0.085-0.216,0.394-0.244
	c0.516-0.046,0.731,0.039,0.646,0.255c-0.085,0.216,0.337,0.283,0.516-0.046c0.094-0.113,0.188-0.225,0.197-0.122
	c0,0,0.009,0.103,0.018,0.207c-0.094,0.113-0.094,0.113,0.112,0.094c0.206-0.018,0.206-0.018,0.188-0.225
	c-0.009-0.104,0.094-0.113,0.094-0.113c0.103-0.009,0.103-0.009,0.103-0.009c0.009,0.104,0.215,0.085,0.525,0.058
	c0.309-0.027,0.413-0.037,0.431,0.17c0.027,0.31,0.131,0.301,0.112,0.094c0.067-0.423,0.676-0.581,1.219-0.317
	c0.216,0.085,0.422,0.067,0.413-0.037c0,0,0.103-0.009,0.215,0.085c0.225,0.189,0.225,0.189,0.103-0.009
	c-0.122-0.198-0.028-0.31,0.085-0.216c0.103-0.009,0.103-0.009,0.094-0.113c0,0,0.103-0.009,0.206-0.018c0,0,0,0,0.018,0.207
	c-0.094,0.113,0.018,0.207,0.215,0.085c0.103-0.009,0.197-0.122,0.291-0.234l0.094-0.113c0.103-0.009,0.197-0.122,0.403-0.14
	c0.291-0.234,0.61-0.158,0.516-0.046c0.009,0.103,0.018,0.207,0.027,0.31c0.122,0.198,0.319,0.076,0.61-0.159
	c0.094-0.113,0.188-0.225,0.197-0.122c0.009,0.104,0.112,0.094,0.319,0.076c0.094-0.113,0.103-0.009,0.112,0.094
	c-0.085,0.216,0.121,0.198,0.206-0.018s0.085-0.216,0.112,0.094c0.009,0.104,0.121,0.198,0.121,0.198
	c0.103-0.009,0.094-0.113,0.076-0.32c-0.018-0.207,0.188-0.225,0.319,0.076c0.085-0.216,0.188-0.225,0.309-0.028
	c0.112,0.094,0.431,0.17,0.516-0.046c-0.009-0.104,0.103-0.009,0.215,0.085c0.112,0.094,0.112,0.094,0.112,0.094
	c-0.009-0.104,0.094-0.113,0.197-0.122c0,0,0.309-0.028,0.403-0.14c0.206-0.018,0.413-0.037,0.516-0.046
	c0.009,0.103,0.215,0.085,0.319,0.076s0.215,0.085,0.225,0.189c0.121,0.198,0.121,0.198,0.103-0.009
	c-0.009-0.103,0.094-0.113,0.197-0.122c0.009,0.104,0.215,0.085,0.319,0.076c0.197-0.122,0.309-0.028,0.431,0.17
	c0.131,0.301,0.131,0.301,0.215,0.085c0.085-0.216,0.085-0.216,0.197-0.122c0.112,0.094,0.328,0.179,0.637,0.152
	c0.215,0.085,0.431,0.17,0.431,0.17c0.009,0.104,0.009,0.104,0.206-0.018c0.094-0.113,0.197-0.122,0.319,0.076
	c0.225,0.189,0.225,0.189,0.309-0.027c0.094-0.113,0.188-0.225,0.197-0.122c0.009,0.103,0.215,0.085,0.319,0.076
	c0.197-0.122,0.206-0.018,0.215,0.085c0.018,0.207,0.121,0.198,0.431,0.17c0.206-0.018,0.206-0.018,0.206-0.018
	c-0.112-0.094-0.112-0.094-0.018-0.207c0.188-0.225,0.188-0.225,0.319,0.076l0.121,0.198l0.085-0.216
	c-0.066,0.423,0.14,0.405,0.319,0.076l0.076-0.32l0.337,0.283c0.234,0.292,0.234,0.292,0.431,0.17
	c0.279-0.251,0.841-0.362,1.216-0.333c0.851-2.4-0.08-4.165-2.211-5.29c-3.622-1.911-6.003-5.197-8.857-7.922
	c-3.283-3.134-1.702-8.342,2.685-9.326c2.637-0.591,5.375-0.788,8.08-0.997c2.705-0.21,5.425-0.215,8.68-0.328
	c-2.395-2.435-4.235-4.708-6.471-6.481C310.481,303.689,309.901,300.898,311.014,297.443z M310.335,337.491
	c-0.103,0.009-0.206,0.018-0.197,0.122c0.009,0.104,0.112,0.094,0.216,0.085c-0.009-0.104,0.103-0.009,0.009,0.103
	c0.018,0.207,0.018,0.207,0.018,0.207c0.197-0.122,0.431,0.17,0.337,0.283c-0.119,0.219,0.206,0.257,0.493,0.193
	c0.003-0.116,0.009-0.23,0.015-0.343c0,0-0.001,0-0.001,0.001c-0.188,0.225-0.291,0.234-0.103,0.009
	c0.085-0.216,0.161-0.536-0.055-0.621c-0.103,0.009-0.215-0.085-0.225-0.189c-0.009-0.103-0.009-0.103-0.215-0.085
	c-0.103,0.009-0.206,0.018-0.216-0.085c-0.009-0.103-0.009-0.103-0.009-0.103c-0.103,0.009-0.094,0.113-0.076,0.32
	C310.438,337.481,310.344,337.594,310.335,337.491z M311.4,337.032c0.017-0.062,0.039-0.123,0.058-0.184
	c-0.011,0.01-0.023,0.011-0.034,0.024C311.353,336.958,311.356,336.986,311.4,337.032z M311.19,339.19
	c0.003-0.073,0.006-0.145,0.008-0.219c0,0.004-0.005,0.004-0.005,0.008c0,0-0.103,0.009-0.206,0.018
	c-0.112-0.094-0.206,0.018-0.103,0.009c0.009,0.104,0.121,0.198,0.225,0.189C311.144,339.191,311.166,339.191,311.19,339.19z
	 M304.967,247.615c-0.501-2.834-3.232-3.585-4.967-5.251c-3.228-3.1-6.989-5.096-11.607-5.221c-2.526-0.068-5.045-0.363-7.57-0.497
	c-5.253-0.28-10.507-0.549-15.763-0.769c-2.683-0.112-5.381-0.288-8.054-0.124c-6.696,0.412-13.353,0.211-19.998-0.695
	c-2.689-0.367-5.393-0.622-6.986-0.803c-2.746,0-4.381-0.026-6.013,0.026c-0.261,0.008-0.665,0.33-0.727,0.576
	c-0.075,0.302,0.118,0.684,0.24,1.015c0.058,0.159,0.207,0.294,0.335,0.418c4.329,4.177,9.765,6.598,14.977,9.362
	c0.595,0.316,1.413,0.286,2.128,0.289c7.62,0.039,15.241,0.104,22.861,0.06c11.435-0.066,22.866-0.216,34.258,1.13
	C300.356,247.401,302.621,248.226,304.967,247.615z M224.627,332.701c0.029,0,0.057,0,0.086,0c0-0.72-0.01-1.441,0.002-2.161
	c0.122-7.229,0.85-7.541-6.196-4.184c-1.941,0.925-3.765,2.1-5.622,3.195c-0.719,0.424-0.722,1.244-0.016,1.664
	c3.883,2.306,7.474,4.95,10.237,8.596c0.162,0.214,0.715,0.313,0.987,0.209c0.244-0.093,0.494-0.538,0.5-0.832
	C224.646,337.026,224.627,334.863,224.627,332.701z M357.752,404.217c-0.049-0.717-0.204-1.44-0.408-2.132
	c-2.526-8.579-3.2-17.463-3.899-26.288c-0.449-5.667-1.14-11.174-3.19-16.473c-1.387-3.583-2.342-7.222-2.01-11.12
	c0.092-1.077-0.014-2.18-0.12-3.263c-0.265-2.703-0.94-3.394-3.784-3.543c-7.112-0.372-14.03-1.89-20.649-4.317
	c-7.146-2.62-7.124-1.385-5.732,4.398c0.042,0.176,0.111,0.349,0.133,0.527c0.352,2.817-0.811,4.947-3.549,5.937
	c-0.423,0.153-0.85,0.303-1.278,0.452c-0.009,0.155-0.083,0.171-0.218,0.077c-0.1,0.034-0.199,0.067-0.299,0.101
	c-0.053,0.068-0.054,0.092,0.04,0.171c0.103-0.009,0.103-0.009,0.094-0.113c-0.112-0.094-0.009-0.103,0.103-0.009
	c0.112,0.094,0.215,0.085,0.319,0.076c0,0,0,0-0.188,0.225l-0.291,0.234l-0.328-0.179c-0.114-0.096-0.172-0.17-0.206-0.26
	c-1.489,0.487-3.001,0.902-4.527,1.08c-4.117,0.478-8.282,0.541-12.425,0.812c-7.592,0.496-15.203,0.818-22.767,1.596
	c-5.426,0.558-10.839,0.842-16.279,0.847c-4.51,0.004-9.022,0.064-13.528-0.058c-3.253-0.088-6.497-0.491-9.751-0.639
	c-1.228-0.056-2.543-0.008-3.692,0.372c-2.481,0.822-4.697,0.31-6.758-1.014c-5.353-3.436-10.433-7.21-14.453-12.231
	c-0.68-0.849-1.387-1.683-2.145-2.463c-1.626-1.675-2.073-1.763-4.32-0.814c-3.667,1.55-7.279,3.24-10.99,4.678
	c-3.04,1.178-5.875,2.616-8.66,4.35c-5.697,3.545-11.79,6.327-18.407,7.818c-2.113,0.476-4.149,1.286-6.249,1.828
	c-1.94,0.501-2.663,1.797-2.533,3.624c0.262,3.658-0.102,7.258-0.917,10.811c-1.878,8.19-1.538,16.607-2.392,24.899
	c-0.612,5.955-1.225,11.91-1.835,17.865c-0.055,0.54-0.148,1.083-0.131,1.622c0.011,0.343,0.098,0.795,0.327,0.983
	c0.177,0.145,0.701,0.061,0.945-0.105c1.341-0.911,2.805-1.719,3.93-2.857c3.885-3.931,8.418-6.759,13.526-8.841
	c3.517-1.434,6.916-3.183,10.287-4.946c5.006-2.619,10.244-4.505,15.745-5.806c5.892-1.394,11.908-0.874,17.848-1.473
	c2.879-0.291,5.811-0.314,8.701-0.147c2.518,0.146,5.196,0.276,7.477,1.21c5.868,2.405,11.562,5.241,16.19,9.767
	c0.649,0.635,1.282,1.287,1.954,1.896c1.205,1.093,2.542,1.189,4.042,0.602c2.021-0.789,4.042-1.643,6.14-2.156
	c2.83-0.692,5.549-1.586,8.256-2.683c5.393-2.186,10.95-3.717,16.906-3.495c3.986,0.148,7.989-0.247,11.982-0.213
	c4.356,0.037,8.78-0.146,13.05,0.541c8.397,1.35,16.934,2.098,25.053,4.924c1.364,0.475,2.833,0.64,4.242,0.995
	c1.927,0.485,3.853,0.979,5.761,1.535c2.608,0.761,5.185,1.631,7.803,2.351c0.833,0.229,1.758,0.189,2.638,0.164
	c1.438-0.041,2.872-0.185,4.309-0.259C357.621,405.639,357.803,404.962,357.752,404.217z M398.082,310.931
	c-0.448-5.765-0.735-11.543-1.094-17.315c-0.011-0.18-0.047-0.361-0.093-0.536c-0.515-1.962-1.695-2.354-3.202-1.958
	c-3.819,1.002-7.641,2.043-11.631,2.092c-2.528,0.031-5.068,0.162-7.581-0.038c-2.685-0.213-5.354,0.113-8.085-0.386
	c-2.347-0.429-4.874-0.372-7.309-0.516c-8.319-0.492-16.479-1.81-24.637-3.378c-2.63-0.506-5.406-0.281-8.116-0.319
	c-0.854-0.012-1.112,0.833-0.524,1.57c1.128,1.414,2.382,2.741,3.391,4.234c1.28,1.894,0.83,3.852-1.065,5.201
	c-0.732,0.521-1.548,0.956-2.38,1.3c-1.169,0.483-2.394,0.833-3.585,1.264c-0.702,0.254-0.821,1.235-0.158,1.649
	c1.067,0.668,2.185,1.254,3.287,1.864c1.097,0.607,2.346,1.036,3.269,1.84c1.493,1.301,2.795,2.827,4.139,4.293
	c1.05,1.145,1.186,2.223,0.321,3.445c-1.901,2.686-4.144,4.82-7.484,5.854c-2.276,0.704-4.47,1.286-6.852,1.268
	c-2.353-0.018-4.708,0.093-7.061,0.189c-0.328,0.013-0.647,0.262-0.971,0.401c0.281,0.198,0.537,0.496,0.849,0.577
	c1.743,0.451,3.499,0.852,5.252,1.267c4.741,1.122,9.446,2.441,14.232,3.319c8.399,1.541,16.903,1.998,24.843,1.779
	c2.774,0,4.95,0.023,7.126-0.004c11.339-0.139,22.259-2.461,32.876-6.345c1.139-0.417,2.136-1.52,1.903-2.395
	C396.814,317.664,398.347,314.349,398.082,310.931z M344.94,229.74c1.774,7.007,2.772,14.2,5.375,21.013
	c0.958,2.505,1.547,5.244,1.766,7.921c0.547,6.688,3.674,12.432,6.233,18.399c0.494,1.152,1.375,1.545,2.586,1.535
	c3.808-0.031,7.617-0.012,11.425-0.012c8.229,1.071,16.223,0.138,24.151-2.325c4.251-1.32,8.028-3.124,11.365-6.02
	c3.721-3.23,6.814-7.051,9.674-10.976c2.377-3.262,1.762-7.238,0.705-10.989c-0.093-0.33-0.341-0.67-0.613-0.887
	c-2.252-1.798-4.313-3.994-6.838-5.258c-5.308-2.658-10.852-4.847-16.325-7.168c-1.158-0.491-2.41-0.791-3.645-1.062
	c-10.75-2.357-21.582-4.3-32.462-5.915c-3.911-0.581-7.949-0.347-11.93-0.403C345.004,227.573,344.569,228.271,344.94,229.74z
	 M494.709,257.147c-1.016-5.57-2.642-11.014-5.017-16.061c-3.426-7.281-8.996-13.092-14.857-18.552
	c-2.912-2.713-5.92-5.327-8.744-8.127c-2.08-2.062-4.221-3.921-6.886-5.24c-1.757-0.87-3.24-2.281-4.893-3.377
	c-3.012-1.998-5.635-4.44-8.342-6.819c-2.957-2.599-6.049-5.15-9.633-6.908c-3.405-1.67-6.845-3.283-10.343-4.745
	c-3.835-1.604-7.82-2.86-11.615-4.548c-2.81-1.249-5.586-2.631-8.631-2.979c-3.63-0.415-6.922-1.747-10.272-3.003
	c-1.188-0.446-2.401-0.855-3.634-1.147c-6.875-1.63-13.737-3.323-20.647-4.788c-4.939-1.047-9.942-1.804-14.928-2.622
	c-2.141-0.351-4.317-0.779-6.464-0.719c-2.266,0.064-4.391-0.305-6.325-1.297c-3.149-1.616-6.626-1.832-9.947-2.7
	c-1.239-0.324-2.158,0.239-2.784,1.207c-1.081,1.673-2.069,3.406-3.085,5.12c-0.92,1.553-1.882,3.086-2.725,4.68
	c-1.731,3.271-4.646,5.507-7.023,8.215c-4.095,4.666-8.806,8.52-14.385,11.279c-2.269,1.122-4.437,2.606-6.832,3.282
	c-6.249,1.762-12.487,3.539-19.003,4.317c-9.791,1.169-19.391,1.233-29.154-0.814c-8.554-1.794-15.082-6.596-21.574-11.791
	c-1.272-1.018-2.567-2.024-3.736-3.154c-3.367-3.254-6.846-6.335-8.8-10.855c-1.375-3.178-2.447-6.426-3.503-9.692
	c-0.44-1.361-1.193-2.211-2.553-2.461c-3.194-0.587-6.382-1.436-9.602-1.606c-5.604-0.296-11.11-1.285-16.669-1.83
	c-5.033-0.494-10.12-0.457-15.185-0.586c-0.876-0.022-2.025,0-2.595,0.508c-1.918,1.71-4.385,1.635-6.593,2.332
	c-2.59,0.817-5.182,1.635-7.779,2.431c0.01,0.026,0.017,0.055,0.028,0.077c0.539-0.007,0.098,0.192-0.44,0.199
	c-0.979,0.206-0.979,0.206-0.931,0.302c0.146,0.288-0.248,0.584-0.296,0.488c-0.535,0.002-1.852,0.586-1.317,0.585
	c0.048,0.096,0.144,0.289-0.295,0.484c0.096,0.193,0.144,0.289,0.192,0.386c1.024-0.101,1.121,0.092,0.144,0.289
	c-0.488,0.099-0.928,0.294-0.88,0.39c-0.392,0.292-1.024,0.101-1.168-0.189c-0.049-0.096-0.628-0.192-1.112-0.095
	c-0.967,0.194-3.094,0.195-3.235-0.093c-0.023-0.046-0.048-0.091-0.118-0.116c-0.16,0.042-0.318,0.089-0.479,0.131
	c-0.683,0.177-1.371,0.334-2.055,0.504c-0.082,0.191,0.198,0.198,1.307-0.03c0.48-0.099,1.008-0.101,1.055-0.005
	c0.048,0.097,0.094,0.193,0.575,0.095c0,0,0,0,0.048,0.096c-0.961,0.197-0.912,0.293-0.433,0.195
	c0.525-0.003,1.061-0.002,0.624,0.191c0.143,0.29,0.191,0.386,1.546-0.098c0.872-0.387,0.872-0.387,0.483-0.097
	c0.048,0.097,0.048,0.097,0.531,0c0,0,0.048,0.097,0.095,0.193c0.095,0.193-0.341,0.387-1.743,0.774
	c-0.483,0.097-0.967,0.194-1.062,0.001c0.389-0.29,0.383-0.292-0.479,0.098c-0.862,0.39-1.818,0.586-2.393,0.492
	c-0.479,0.098-0.048-0.096,0.479-0.098c0.957-0.197,1.436-0.295,1.34-0.488s-0.622-0.191-1.101-0.092
	c-0.958,0.197-0.91,0.293-0.862,0.39c0,0-0.479,0.098-1.005,0.101c-0.57-0.089-0.571-0.089-0.9,0.301
	c-0.233,0.583-0.753,0.589-1.471,0.212c-0.146-0.288-0.67-0.281-0.67-0.281c-0.426,0.199-0.426,0.199-0.9,0.301
	c-0.521,0.011-0.52,0.014-0.892,0.313c-0.322,0.395-0.123,0.776,0.296,0.572c0.885-0.32,1.94-0.319,1.512-0.125
	c-0.382,0.286-2.25,0.725-2.768,0.738c-0.05-0.095-0.518,0.014-0.986,0.123c-0.936,0.218-0.987,0.123-1.088-0.067
	c-0.153-0.286-0.204-0.382-1.133-0.144c-0.981,0.142-1.393,0.355-0.775,0.519c0.566,0.071,0.566,0.071,0.103,0.189
	c-0.926,0.236-2.369,0.495-1.958,0.283l-0.052-0.094c-0.464,0.118-0.411,0.212-0.411,0.212c0.051,0.091-0.407,0.22-0.407,0.22
	c-0.458,0.129-0.458,0.129-0.458,0.129c-0.158-0.28-0.777-0.43-1.237-0.3c-0.46,0.129-0.46,0.129-0.46,0.129
	c-0.027-0.046-0.73,0.124-1.771,0.403c-1.033,0.298-2.391,0.732-3.754,1.154c-0.396,0.233,0.346,0.546,1.304,0.356
	c0.508-0.05,0.564,0.042,0.057,0.091c-0.451,0.141-0.903,0.282-0.846,0.373c0,0-0.45,0.141-1.017,0.099
	c-1.063,0.041-1.51,0.197-0.948,0.221c0.561,0.024,0.174,0.27-0.328,0.335c-0.445,0.155-1.333,0.465-2.282,0.686
	c-1.338,0.457-1.756,0.668-1.386,0.397c-0.061-0.088-0.122-0.176-0.56-0.004c-0.438,0.171-0.438,0.171-0.5,0.084
	c0.439-0.171-0.062-0.088,0,0c-0.439,0.171-0.314,0.346-0.252,0.434c0.093,0.131-0.298,0.367-1.054,0.676
	c-0.378,0.155-0.849,0.325-1.394,0.515c-0.537,0.208-1.15,0.434-1.826,0.672c-1.354,0.473-3.072,1.218-3.479,1.448
	c-1.68,0.819-1.679,0.818-1.818,0.655c-0.139-0.164-0.208-0.246-0.63-0.041c0,0,0,0-0.07-0.082
	c-0.136-0.158-1.424,0.431-2.432,1.365c-0.608,0.686-1.016,0.907-1.573,0.973c-0.485,0.145-0.97,0.29-0.97,0.29
	c-0.412,0.223-0.412,0.223-0.486,0.145c0,0-0.205,0.114-0.462,0.256c-0.251,0.152-0.552,0.334-0.752,0.456
	c-0.802,0.486-1.204,0.729-1.128,0.804c0.074,0.077-1.695,1.511-2.092,1.75c-0.399,0.241-0.157-0.148,0.567-0.706
	c0.724-0.559,0.725-0.559-0.556,0.093c-0.489,0.151-1.412,0.552-1.806,0.808c-0.859,0.453-1.171,0.787-1.09,0.859
	c-0.23,0.405-0.228,0.404-1.559,1.047c-0.865,0.447-0.853,0.467-1.151,0.813c-0.295,0.35-0.213,0.418-0.131,0.487
	c0.082,0.069-0.293,0.349-1.044,0.909c-0.75,0.56-1.209,0.771-1.754,0.917c-0.461,0.213-0.461,0.213-0.461,0.213
	c0.092,0.077-0.309,0.322-1.11,0.869c-0.725,0.599-1.088,0.899-1.088,0.899c-0.277,0.363-0.639,0.662-1.088,0.898
	c-1.263,0.771-1.264,0.772-0.726,0.598c0.45-0.237,0.536-0.172-0.823,1.082c-1.476,1.76-1.904,2.017-2.174,1.838
	c-0.089-0.06-0.527,0.199-0.527,0.199c-0.348,0.317-0.696,0.634-0.516,0.751c0.18,0.117,0.181,0.117-0.348,0.316
	c-0.091-0.058-0.181-0.117-0.362-0.233c0.519-0.749,0.073-0.499-1.315,0.786c-0.334,0.337-0.667,0.673,0.091,0.056
	c0.438-0.263,0.422-0.282-0.243,0.392c-0.424,0.28-0.333,0.336-0.151,0.448c0.182,0.112,0.182,0.112-0.059,0.502
	c-0.995,1.003-1.845,1.562-1.698,1.119c0.148-0.444,0.149-0.445-0.519,0.227c-0.668,0.671-1.001,1.006-1.429,1.288
	c-0.09-0.049-0.344,0.326-0.467,0.789c-0.13,0.455-0.13,0.456-1.398,1.862c-1.268,1.406-1.585,1.756-1.777,1.658
	c-0.509,0.254-0.828,0.606-0.828,0.606c-0.24,0.383-1.126,1.504-1.528,1.821c-0.486,0.284-4.052,4.714-4.359,5.618
	c-0.099-0.042-0.384,0.341-1.238,1.488c-0.57,0.765-1.04,1.569-1.224,1.99c0.1,0.04-0.184,0.421-0.569,0.763
	c-0.388,0.34-0.374,0.353-0.714,1.216c-0.067,0.47-0.335,0.865-0.335,0.865c-0.1-0.037-0.201-0.075-0.201-0.075
	s-0.369,0.358-0.737,0.717c-0.738,0.718-1.646,1.871-1.341,1.977c0,0-0.167,0.431-0.703,1.22c-0.268,0.395-0.166,0.43-0.064,0.464
	l0.102,0.035c-0.275,0.389-0.518,0.801-0.722,0.734c-0.353,0.374-0.604,0.782-0.604,0.782c-0.252,0.408-0.503,0.815-0.959,1.158
	c-0.354,0.375-0.998,1.27-1.717,2.384c-0.359,0.557-0.738,1.169-1.108,1.798c-0.355,0.64-0.684,1.309-0.987,1.951
	c-0.839,1.705-1.074,2.122-1.178,2.095c-0.104-0.028-0.679,0.784-0.915,1.203c-0.236,0.419-0.708,1.257-1.048,1.65
	c-0.347,0.389-0.575,0.815-0.905,1.702c-0.22,0.43-0.22,0.43-0.324,0.405c0,0-0.22,0.43-0.44,0.859
	c-0.335,0.883-0.555,1.312-0.985,1.695c-0.975,1.22-1.197,1.651-1.206,2.126c-0.006,0.477-0.792,2.208-0.881,2.196
	c-0.105-0.021-0.514,0.856-0.922,1.734c-0.613,1.316-0.613,1.316-0.93,1.256c-0.627,0.36-1.143,1.221-0.825,1.278
	c0.317,0.058,0.014,0.954-0.296,1.374c-0.417,0.401-0.826,1.279-0.409,0.877c0.106,0.018,0.106,0.018-0.098,0.457
	c-0.834,1.274-1.235,1.688-1.336,1.674c0.19-0.447-0.106-0.017-0.19,0.447c0,0-0.084,0.464,0.022,0.481
	c0.212,0.034,0.022,0.48-0.167,0.927c0,0-0.106-0.017-0.212-0.033c-0.106-0.016-0.212-0.033-0.212-0.033
	c-0.189,0.447-0.189,0.447-0.296,0.431c-0.106-0.016-0.402,0.415-0.971,1.758c-0.676,1.327-1.079,1.745-1.292,1.715
	c-0.023-0.478-0.32-0.045-0.701,0.853c-0.297,0.434-0.785,1.318-0.892,1.304c-0.405,0.421-0.214-0.028,0.191-0.449
	c0.488-0.884,0.488-0.883,0.762-1.796c0.274-0.913-0.045-0.959-0.129-0.494c-0.191,0.45-0.191,0.45-0.404,0.42
	c0.049-0.271,0.038-0.393,0.054-0.533c-0.128,0.33-0.251,0.663-0.384,0.992c-1.381,3.406-2.073,6.955-2.745,10.513
	c-0.806,4.267-1.421,8.571-2.098,12.862c-0.862,5.464-1.252,20.243,0.23,27.536c0.393,1.933,1.152,3.793,1.524,5.728
	c1.914,9.958,6.313,18.791,12.109,26.993c2.455,3.473,5.504,6.102,9.925,6.813c1.777,0.286,3.489,0.966,5.235,1.449
	c5.638,1.56,11.358,2.447,17.226,1.979c7.774-0.619,15.551-1.203,23.315-1.925c3.608-0.335,7.24-0.73,10.773-1.501
	c7.786-1.699,15.517-3.65,23.267-5.511c0.882-0.212,1.757-0.469,2.613-0.767c1.303-0.453,1.751-1.247,1.294-2.517
	c-0.859-2.386-2.182-4.668-2.655-7.12c-1.54-7.991-4.423-15.684-5.109-23.87c-0.305-3.633-0.717-7.188,0.507-10.734
	c0.449-1.301-0.174-1.92-1.703-1.816c-6.531,0.448-12.908,1.877-19.333,3.022c-2.202,0.392-4.187,1.151-6.036,2.341
	c-3.449,2.22-7.238,3.124-11.318,3.25c-4.311,0.134-8.615,0.507-12.92,0.806c-3.251,0.226-6.425-0.171-9.547-1.061
	c-3.882-1.107-7.289-5.089-10.121-8.669c-2.442-3.088-3.621-6.911-3.859-10.582c-0.249-3.832,0.172-7.885,1.912-11.601
	c1.761-3.764,3.482-7.569,4.868-11.48c2.304-6.498,5.547-12.56,8.382-18.809c0.885-1.951,2.663-3.503,3.511-5.463
	c1.789-4.136,5.118-7.079,8.024-10.194c3.914-4.196,8.602-7.699,13.126-11.288c3.832-3.04,7.464-6.262,11.001-9.643
	c5.181-4.952,11.154-8.521,18.409-9.901c5.32-1.012,10.617-2.41,15.729-4.197c9.359-3.272,18.897-5.08,28.809-4.804
	c1.444,0.04,2.915,0.216,4.313,0.568c2.003,0.506,2.962,2.213,2.854,4.491c-0.163,3.422-0.355,6.846-0.393,10.27
	c-0.042,3.844-0.685,7.538-1.826,11.219c-1.719,5.548-3.036,11.238-3.415,17.034c-0.828,12.659-1.433,25.334-2.024,38.007
	c-0.092,1.969,0.335,3.967,0.588,5.944c0.133,1.035,0.73,1.611,1.867,1.4c5.16-0.958,10.397-1.62,15.462-2.942
	c6.498-1.697,12.985-3.304,19.672-4.021c0.898-0.096,1.819-0.195,2.665-0.483c0.647-0.22,1.059-0.654,1.055-1.598
	c-0.026-6.507,1.567-12.816,3.023-19.066c1.7-7.295,2.387-14.598,2.205-22.027c-0.088-3.6,1.402-5.447,4.748-5.606
	c2.716-0.129,5.51,0.094,8.127-0.485c3.245-0.718,6.489-1.009,9.734-0.835c11.959,0.64,23.959-0.411,35.91,1.201
	c4.63,0.625,9.416,0.102,14.131,0.102c0,0.018,0,0.037,0,0.055c4.905,0,9.811,0.044,14.715-0.024
	c1.698-0.023,3.259,0.235,4.634,1.238c5.283,3.856,10.347,7.921,13.62,13.782c0.61,1.092,1.502,2.039,2.334,2.992
	c3.571,4.085,5.764,8.727,5.904,14.233c0.152,5.987-0.235,11.92-1.47,17.798c-0.693,3.296-0.335,3.556,3.015,3.422
	c5.259-0.21,10.524-0.285,15.783-0.484c2.897-0.11,3.329-0.696,2.246-3.215c-0.73-1.697-1.038-3.421-1.237-5.23
	c-0.456-4.135-0.766-8.316-1.649-12.366c-0.778-3.568-1.099-7.143-1.228-10.74c-0.168-4.677,0.054-9.367-0.11-14.044
	c-0.134-3.814,0.504-7.512,1.026-11.249c0.221-1.582,0.905-2.816,2.089-3.645c1.465-1.025,3.048-2.114,4.739-2.53
	c2.794-0.688,5.706-1.092,8.585-1.203c6.722-0.259,13.41,0.133,20.086,1.175c12.186,1.903,24.413,3.552,35.652,9.121
	c0.486,0.241,0.986,0.545,1.507,0.612c2.638,0.341,4.642,1.931,6.794,3.27c4.992,3.107,8.9,7.314,12.552,11.852
	c1.577,1.96,2.413,4.093,2.438,6.483c0.036,3.43,0.081,6.874-0.927,10.24c-0.53,1.768-1.26,3.25-2.531,4.68
	c-2.991,3.365-5.654,7.02-8.51,10.508c-2.641,3.224-5.295,6.451-8.775,8.845c-4.688,3.227-4.702,3.222-3.408,8.807
	c0.162,0.7,0.571,1.347,0.701,2.049c0.594,3.2,1.426,6.351,1.412,9.66c-0.018,3.992,0.139,7.971-0.635,11.933
	c-0.362,1.85,0.7,2.786,2.489,2.522c0.897-0.132,1.787-0.332,2.671-0.537c5.117-1.186,10.198-2.562,15.356-3.521
	c4.447-0.827,8.719-2.552,13.334-2.531c7.883,0.035,15.115-2.36,21.366-6.976c5.559-4.105,11.82-7.051,17.317-11.172
	c3.173-2.378,6.577-4.787,8.863-7.922c2.732-3.747,4.554-8.208,5.43-12.913C496.008,267.522,495.658,262.345,494.709,257.147z
	 M290.292,79.55c-1.315-0.555-2.8-0.771-4.234-0.965c-1.612-0.218-3.315-0.001-4.86-0.414c-2.068-0.552-1.684-3.033-2.866-4.379
	c-0.788-0.897-2.133-1.095-2.744-0.085c-1.026,1.695-2.334,3.372-2.783,5.236c-1.402,5.822,3.979,12.167,10.893,12.152
	c0.768-0.167,2.343-0.544,3.933-0.848c2.913-0.558,4.727-2.545,6.334-4.804c0.574-0.806,0.621-2.88-0.13-3.539
	C292.772,80.974,291.579,80.094,290.292,79.55z M264.197,105.803c-0.926,0.521-1.774,1.229-2.542,1.972
	c-1.427,1.38-1.669,2.843-0.894,4.857c1.022,2.654,2.798,4.533,4.866,6.25c0.518,0.43,1.29,0.555,1.749,0.741
	c2.529-0.26,4.349-1.234,5.663-3.16c1.052-1.542,1.139-2.456-0.082-3.871c-1.87-2.166-3.806-4.279-5.776-6.355
	C266.357,105.369,265.216,105.23,264.197,105.803z M537.568,228.382c-2.403-4.502-3.834-9.345-5.263-14.172
	c-3.375-11.404-8.038-22.043-16.906-30.37c-0.26-0.244-0.506-0.53-0.674-0.842c-1.953-3.625-6.079-5.041-8.404-8.284
	c-8.032-5.74-17.094-8.438-27.411-9.136c-0.331,0.039-1.219,0.103-2.09,0.26c-0.583,0.105-0.95,1.446-0.479,1.801
	c1.292,0.971,2.521,2.161,3.982,2.744c2.934,1.17,5.265,3.058,7.583,5.112c2.013,1.784,4.302,3.164,6.763,4.418
	c5.005,2.55,9.652,5.786,12.975,10.505c4.709,6.69,8.586,13.758,10.471,21.84c1.892,8.115,4.383,16.033,7.958,23.619
	c1.521,3.227,3.525,5.661,6.592,7.36c0.92,0.509,1.349,0.163,1.599-0.614c0.289-0.898,0.597-1.807,1.67-1.853
	c1.479-0.064,1.615-1.17,1.966-2.179c0.522-1.5,1.928-2.733,1.416-4.542C538.774,232.144,538.482,230.094,537.568,228.382z
	 M24.279,276.416l-0.067,0.464c0.107,0.011,0.107,0.011,0.107,0.011c0.174-0.452,0.349-0.905,0.242-0.916L24.279,276.416z
	 M25.055,270.351c-0.35,0.91-0.35,0.91-0.35,0.91c0.107,0.012,0.282-0.442,0.632-1.352
	C25.406,269.441,25.231,269.896,25.055,270.351z M26.827,267.241c0,0-0.083,0.461,0.131,0.489c0.321,0.042,0.321,0.042,0.297-0.432
	C27.42,266.376,27.1,266.332,26.827,267.241z M26.945,265.364c0.214,0.029,0.214,0.029,0.19-0.448
	c0.083-0.463-0.023-0.478-0.214-0.03C26.731,265.335,26.838,265.349,26.945,265.364z M28.368,264.141
	c-0.273,0.909-0.166,0.924,0.32,0.046c0.296-0.431,0.485-0.878,0.485-0.878s-0.106-0.016-0.213-0.031
	C28.641,263.231,28.641,263.231,28.368,264.141z M37.956,246.371c0,0,0,0,0.219-0.429l0.115-0.452l-0.324,0.405
	C37.746,246.325,37.851,246.348,37.956,246.371z M55.894,217.489c-0.285,0.382-0.186,0.423-0.186,0.423
	c0.099,0.041,0.198,0.082,0.483-0.299c0,0,0.284-0.382,0.185-0.423C56.278,217.148,55.894,217.489,55.894,217.489z M59.306,213.449
	c-0.301,0.367,0.391,0.179,0.691-0.186c0.3-0.366,0.3-0.366,0.203-0.412C60.006,212.76,59.607,213.082,59.306,213.449z
	 M61.208,211.292c0.193,0.093,0.193,0.093,0.793-0.641c0.295-0.372,0.61-0.724,0.61-0.724c-0.101-0.053-0.505,0.258-0.898,0.583
	C61.112,211.245,61.112,211.245,61.208,211.292z M117.836,173.841c-0.453,0.142-0.396,0.233-0.396,0.233s0,0,0.453-0.141
	c0.453-0.142,0.906-0.283,0.906-0.283C118.742,173.558,118.289,173.7,117.836,173.841z M120.557,172.994c0,0,0.11,0.185,0.165,0.278
	c0.165,0.278,0.165,0.278,0.513-0.036C121.584,172.922,121.476,172.736,120.557,172.994z M143.488,167.301
	c0.048,0.097,0.048,0.097,0.531,0c0,0,0.484-0.097,0.436-0.194l-0.531,0C143.44,167.205,143.488,167.301,143.488,167.301z
	 M147.813,167.385c0,0-0.048-0.096-0.096-0.193c0.392-0.291-0.096-0.193-1.953,0.394c-1.85,0.585-1.762,0.78,0.632,0.191
	c0.929-0.294,1.465-0.296,2.002-0.298C148.35,167.383,148.302,167.286,147.813,167.385z M149.046,165.538
	c-0.491,0.103-0.443,0.2-0.394,0.296c0.146,0.288,0.687,0.281,1.13,0.081C150.224,165.715,149.537,165.435,149.046,165.538z
	 M151.062,166.283c1.38-0.503,0.344-0.391-1.577,0.119c-0.444,0.2-0.396,0.296,0.147,0.288c0.049,0.096,0.591,0.088,0.591,0.088
	c0.494-0.104,0.592,0.088,0.642,0.184c-0.396,0.296-0.396,0.296,0.543-0.008c0.445-0.2,0.395-0.296-0.148-0.288
	C150.667,166.579,150.618,166.483,151.062,166.283z M152.192,165.301c-0.592-0.087-0.641-0.184-1.083,0.016
	c-0.393,0.295-0.344,0.391,0.69,0.28C152.836,165.481,152.841,165.47,152.192,165.301z M154.982,165.307
	c-0.498,0.113-0.995,0.226-0.995,0.226c0.051,0.095,0.051,0.095,0.549-0.018C155.532,165.289,155.531,165.289,154.982,165.307z
	 M154.639,165.705c0.051,0.095,0.052,0.095,0.55-0.018l0.499-0.113l-0.551,0.018C154.639,165.705,154.639,165.705,154.639,165.705z
	 M154.396,163.199c-0.491,0.112-0.932,0.319-0.882,0.414c-0.442,0.207-0.935,0.319-0.985,0.224
	c-1.085,0.037-2.352,0.714-1.765,0.808c0.049,0.096,0.639,0.184,0.639,0.184c0.049,0.096,0.049,0.096,0.049,0.096
	c0.49-0.1,0.934-0.308,0.835-0.5c0.343-0.398,0.343-0.398,0.836-0.51l1.479-0.336C155.043,163.372,154.888,163.088,154.396,163.199z
	 M154.279,165.04c0.051,0.095,0.6,0.077,1.097-0.036c0.497-0.113,0.444-0.208-0.652-0.172
	C154.125,164.755,154.126,164.755,154.279,165.04z M155.327,162.881c0,0,0.441-0.219,0.389-0.313
	c-0.053-0.087-1.035,0.143-1.474,0.346C153.802,163.121,154.396,163.199,155.327,162.881z M156.136,163.32
	c-0.496,0.125-0.496,0.125-0.444,0.22c0.052,0.094,0.052,0.094,0.549-0.032l0.497-0.126
	C156.685,163.289,156.136,163.32,156.136,163.32z M158.944,163.252c-0.498,0.126-0.499,0.127-1.051,0.159
	c-0.498,0.126-0.498,0.126-0.498,0.126c0.053,0.094,1.214,0.122,1.714-0.005c0,0,0,0-0.055-0.093
	C158.944,163.252,158.944,163.252,158.944,163.252z M348.188,167.823c0.026,0.105,0.026,0.105,0.026,0.105
	c0.487,0.013,0.974,0.025,0.948-0.079l-0.513-0.117L348.188,167.823z M378.524,158.031
	C378.019,157.981,378.54,158.137,378.524,158.031L378.524,158.031z M380.069,158.426c0.488-0.038,0.488-0.038-0.535-0.283
	c-0.52-0.179-0.521-0.163-1.01-0.112c0.506,0.044,1.01,0.107,1.026,0.219C379.566,158.357,379.566,158.357,380.069,158.426z
	 M382.143,159.13c0.458-0.252,0.444-0.359-0.548-0.39c0,0-0.503-0.069-0.488,0.038c0,0,0.518,0.176,0.533,0.283
	C381.67,159.275,381.67,159.275,382.143,159.13z M395.663,160.943c0.501,0.089,0.493-0.018,0.484-0.125
	c-0.009-0.107-0.529-0.411-0.529-0.411c-0.503-0.089-0.493,0.018-0.484,0.125C395.143,160.639,395.654,160.836,395.663,160.943z
	 M397.266,162.496l-0.507-0.196l-0.491,0.018c0.009,0.107,0.009,0.107,0.009,0.107C396.776,162.515,397.274,162.604,397.266,162.496
	z M396.817,163.05c0,0,0.489-0.019,0.482-0.126c-0.008-0.107-1.005-0.284-1.494-0.266
	C395.315,162.678,395.83,162.981,396.817,163.05z M396.208,161.569c0.526,0.411,0.525,0.41,1.009,0.285
	c0.984-0.036,0.977-0.143-0.033-0.429C396.674,161.229,395.69,161.265,396.208,161.569z M408.11,162.864
	c0,0,0.496,0.131,0.493,0.022s-0.503-0.348-0.503-0.348c-0.497-0.131-0.494-0.022-0.49,0.086
	C407.614,162.733,407.614,162.733,408.11,162.864z M420.956,166.713c0.978,0.412,0.983,0.305,0.499-0.063
	c0.004-0.108-0.488-0.26-0.98-0.413C419.98,166.192,419.977,166.3,420.956,166.713z M433.079,171.135
	c0.489,0.088,0.98,0.176,0.992,0.068c-0.467-0.303-0.947-0.499-1.448-0.479c-0.011,0.108-0.511,0.128-0.511,0.128
	C432.102,170.96,432.101,170.96,433.079,171.135z M433.987,171.955c0.452,0.41,0.451,0.409,0.966,0.283l0.038-0.322
	c0.491,0.089-0.466-0.303-0.968-0.283C433.533,171.545,433.522,171.653,433.987,171.955z M436.385,172.824
	c0.014-0.107-0.464-0.302-0.464-0.302c-0.478-0.195-0.49-0.088-0.504,0.019c0,0,0,0,0.477,0.195
	C435.894,172.735,436.371,172.931,436.385,172.824z M442.114,174.917c0,0-0.453-0.324-0.924-0.542
	c-0.471-0.217-0.471-0.217-0.487-0.11c0,0,0,0,0.47,0.217C441.644,174.699,442.114,174.917,442.114,174.917z M463.911,188.514
	l0.424,0.3c0.036-0.102-0.354-0.505-0.354-0.505c-0.425-0.3-0.459-0.197-0.459-0.197S463.488,188.214,463.911,188.514z
	 M468.021,191.834c0.409,0.319,0.491,0.115-0.294-0.621l-0.424-0.3C466.876,190.617,467.622,191.502,468.021,191.834z
	 M469.781,192.807c-0.782-0.74-0.82-0.638-0.122,0.301C469.7,193.007,469.781,192.807,469.781,192.807z M483.805,207.238
	c-0.889-0.461-0.691,0.185,0.139,0.739c0.345,0.384,0.402,0.291,0.459,0.199c-0.344-0.386-0.291-0.476-0.236-0.568
	C484.278,207.424,483.915,207.053,483.805,207.238z M485.44,209.329c0.749,0.678,0.637-0.07,0.055-1.029
	c-0.291-0.479-0.291-0.479-0.518-0.11C484.635,208.745,484.634,208.743,485.44,209.329z M481.761,203.773
	C481.785,203.73,481.782,203.735,481.761,203.773L481.761,203.773z M481.746,203.799L481.746,203.799
	c0.006-0.011,0.01-0.019,0.015-0.026C481.756,203.782,481.753,203.787,481.746,203.799z M287.545,336.075l-0.103,0.009l0.112,0.094
	c0.103-0.009,0.103-0.009,0.103-0.009C287.648,336.066,287.648,336.066,287.545,336.075z M284.402,336.98
	c0.103-0.009,0.094-0.113,0.085-0.216c0,0-0.103,0.009-0.206,0.018C284.186,336.895,284.196,336.999,284.402,336.98z
	 M283.558,336.847c-0.309,0.028-0.413,0.037-0.319-0.076c-0.009-0.103-0.009-0.103-0.009-0.103
	c-0.103,0.009-0.206,0.018-0.197,0.122c0.018,0.207,0.243,0.396,0.44,0.274c-0.009-0.104,0.197-0.122,0.3-0.131
	c0.206-0.018,0.309-0.028,0.197-0.122C283.962,336.707,283.756,336.725,283.558,336.847z M278.937,336.319
	c-0.197,0.122-0.188,0.225,0.121,0.198c0.206-0.018,0.3-0.131,0.188-0.225C279.143,336.301,279.04,336.31,278.937,336.319z
	 M278.465,336.465c0.034-0.003,0.09-0.008,0.15-0.013c-0.014,0.001-0.037,0.003-0.082,0.007
	C278.51,336.461,278.486,336.463,278.465,336.465z M278.465,336.465c-0.02,0.002-0.035,0.003-0.035,0.003
	C278.351,336.476,278.394,336.472,278.465,336.465z M273.64,336.373c0,0,0.009,0.104,0.018,0.207
	c0.112,0.094,0.422,0.067,0.413-0.037C274.052,336.336,273.837,336.251,273.64,336.373z M272.111,336.717
	c-0.094,0.113-0.085,0.216,0.027,0.31c0.103-0.009,0.103-0.009,0.094-0.113C272.223,336.812,272.214,336.708,272.111,336.717z
	 M271.689,336.651l0.112,0.094c0.103-0.009,0.094-0.113,0.085-0.216c0,0,0,0-0.103,0.009L271.689,336.651z M269.832,336.816
	l-0.103,0.009l0.112,0.094c0.103-0.009,0.103-0.009,0.103-0.009C269.935,336.806,269.935,336.806,269.832,336.816z M267.535,336.707
	c-0.197,0.122-0.197,0.122-0.009-0.103c0.188-0.225,0.188-0.225-0.121-0.198c-0.103,0.009-0.319-0.076-0.319-0.076
	c-0.009-0.103-0.009-0.103-0.112-0.094s-0.094,0.113,0.121,0.198c0.103-0.009,0.112,0.094,0.018,0.207
	c-0.291,0.234-0.17,0.432,0.346,0.386c0.206-0.018,0.403-0.14,0.291-0.234C267.751,336.792,267.638,336.698,267.535,336.707z
	 M266.504,336.799l0.112,0.094c0.103-0.009,0.094-0.113,0.085-0.216c0,0,0,0-0.103,0.009L266.504,336.799z M265.988,336.845
	c-0.112-0.094-0.206,0.018-0.094,0.113c0.018,0.207,0.028,0.31-0.076,0.32c-0.206,0.018-0.206,0.018-0.094,0.113
	c0.103-0.009,0.215,0.085,0.206-0.018C266.119,337.146,266.091,336.835,265.988,336.845z M264.741,336.851
	c0,0,0.009,0.104,0.112,0.094c0.112,0.094,0.206-0.018,0.085-0.216C264.835,336.738,264.835,336.738,264.741,336.851z
	 M264.486,337.499c0,0-0.103,0.009-0.094,0.113l0.112,0.094c0.103-0.009,0.094-0.113,0.094-0.113
	C264.59,337.49,264.59,337.49,264.486,337.499z M263.673,336.529l-0.103,0.009c0.009,0.104,0.121,0.198,0.121,0.198
	c0.103-0.009,0.094-0.113,0.094-0.113S263.776,336.52,263.673,336.529z M263.391,336.867c0.018,0.207,0.121,0.198,0.215,0.085
	c-0.009-0.104-0.018-0.207-0.018-0.207C263.485,336.754,263.382,336.764,263.391,336.867z M262.96,336.697
	c-0.309,0.028-0.3,0.131-0.085,0.216c0.112,0.094,0.516-0.046,0.394-0.244C263.269,336.669,263.063,336.687,262.96,336.697z
	 M260.557,337.744c0,0-0.103,0.009-0.094,0.113l0.112,0.094c0.103-0.009,0.094-0.113,0.094-0.113
	C260.66,337.735,260.66,337.735,260.557,337.744z M257.493,337.183c0.103-0.009,0.094-0.113,0.085-0.216
	c0,0-0.103,0.009-0.206,0.018C257.277,337.098,257.286,337.201,257.493,337.183z M256.546,337.058
	c-0.103,0.009-0.319-0.076-0.44-0.274l-0.328-0.179l0.018,0.207c0.018,0.207,0.131,0.301,0.225,0.189
	c0.103-0.009,0.206-0.018,0.319,0.076c0.225,0.189,0.328,0.179,0.319,0.076C256.649,337.049,256.649,337.049,256.546,337.058z
	 M251.473,337.301c0,0,0.009,0.103,0.018,0.207c0,0,0.103-0.009,0.206-0.018c0,0-0.009-0.104-0.018-0.207
	C251.679,337.282,251.576,337.292,251.473,337.301z M247.684,337.95l-0.103,0.009l0.112,0.094c0.103-0.009,0.103-0.009,0.103-0.009
	C247.787,337.941,247.787,337.941,247.684,337.95z M239.273,338.072c-0.103,0.009-0.206,0.018-0.197,0.122
	c0,0,0.112,0.094,0.215,0.085s0.094-0.113,0.094-0.113C239.376,338.063,239.376,338.063,239.273,338.072z M288.125,336.754
	c0,0,0.007-0.001,0.017-0.003C288.122,336.705,288.12,336.699,288.125,336.754z"/>
</svg>
