<svg xmlns="http://www.w3.org/2000/svg" viewBox="0 0 214.95 143.961"><title>developers-1</title><g id="Layer_2" data-name="Layer 2"><g id="Layer_1-2" data-name="Layer 1"><path d="M41.633,6.008C57.07,6.318,72.353,4.3,87.7,3.084,102.149,1.94,116.612.855,131.117.309c7.409-.279,14.839-.4,22.206-.227,8.1.2,16.242.59,24.362,1.286A180.966,180.966,0,0,1,200.76,4.627c4.708,1.023,8.2,3.892,11.41,7.017a10.377,10.377,0,0,1,2.756,8.062c-.745,12.1-.809,24.226-1.389,36.334-.363,7.579-1.653,15.044-1.811,22.647-.147,7.018-1.754,13.994-2.452,21.015-.93,9.361-3.117,18.591-3.132,28.039-.014,8.194-3.887,12.237-12.133,13.347-11.281,1.518-22.636,2.517-34.12,1.762-7.384-.486-14.848.374-22.276.372-10.665,0-21.333-.427-32-.323-9.962.1-19.917.835-29.879.961-15.765.2-31.582.328-47.212-1.836-7.414-1.026-14.964-2.756-21.18-7.757A18.627,18.627,0,0,1,.229,121.338c-.732-6.382.454-12.7,1.251-18.949,1.4-10.96,2.807-21.925,4.774-32.825,2.771-15.356,3.013-31,3.8-46.551a46.3,46.3,0,0,1,1.521-9.638c1.349-5.06,3.541-6.973,8.829-7.254,4.7-.25,9.43-.1,14.146-.112C36.914,6,39.273,6.008,41.633,6.008ZM68.447,45.3c-1.107,0-2.933.13-4.735-.021-13.4-1.124-26.843-.051-40.241-.858-2.651-.16-3.524.927-3.818,3.312-.488,3.951-1.186,7.877-1.773,11.817-1.6,10.752-2.488,21.59-3.8,32.372-1.04,8.509-.771,17-.871,25.5-.058,4.914,3.247,8.543,8.051,9.576a126.092,126.092,0,0,0,23.031,3.11c12.463.339,24.927.544,37.406.438,16.643-.142,33.285-.885,49.934-.42a20.751,20.751,0,0,0,2.719-.106c8.837-.925,17.716-.619,26.567-.663a246.785,246.785,0,0,0,26.587-1.592c4.061-.461,4.449-.711,4.587-4.523.346-9.627,2.1-19.087,3.67-28.529,2.389-14.348,3.063-28.851,4.782-43.252.084-.708-.106-1.445-.061-2.162.126-1.992-.689-2.909-2.759-3.124-5.228-.544-10.419-1.59-15.656-1.875a236.825,236.825,0,0,0-24.97-.47c-5.251.271-10.452-.407-15.715.165-9.355,1.017-18.765,1.6-28.166,2.124C98.514,46.94,83.827,46.356,68.447,45.3ZM32.686,17.257c-1.187-.389-3.355.527-5.526.226-2.349-.325-3.176.943-3.334,3.159a73.4,73.4,0,0,1-1.726,12.9c-.652,2.573-.1,3.148,2.72,3.282,4.89.232,9.785.358,14.679.484,29.934.766,59.861.15,89.786-.485,9.765-.207,19.514-.7,29.3-.539,13.084.211,26.031,1.826,39.028,2.966,2.715.238,3.071.046,3.184-2.9.152-3.984.079-7.98.015-11.969-.072-4.488-.326-5.08-4.5-6.18a164.069,164.069,0,0,0-18.049-3.688c-4.5-.659-9.093-.314-13.506-1.144-6.806-1.281-13.679-1.465-20.51-1.608a235.093,235.093,0,0,0-23.82.5c-14.443,1.164-28.94,1.68-43.374,2.935C67.475,16.031,57.89,16.62,48.3,17.2,43.439,17.5,38.54,17.257,32.686,17.257Zm43.879,86.574a4.967,4.967,0,0,0-2.684-5.883,25.093,25.093,0,0,0-4.114-1.367c-5.247-1.452-10.007-4.128-15.1-5.973-1.575-.571-1.746-1.338-.43-2.646,4.493-4.463,8.934-8.984,13.242-13.624,1.251-1.347,3.275-2.743,2.022-5.109-.789-1.491-2.49-1.249-5.617,1.207C58.2,74.905,52.612,79.512,47.059,84.152a22.029,22.029,0,0,0-3.653,4.01c-2.275,3.153-1.626,5.773,1.955,7.456,7.2,3.385,14.475,6.613,21.71,9.924a13.92,13.92,0,0,0,4.746,1.067C74.425,106.618,76.058,105.663,76.565,103.831Zm59.914-31.955a2.735,2.735,0,0,0,.66,2.981,59.583,59.583,0,0,0,10.867,9.726c3.3,2.458,3.383,2.476-.23,4.843a84.906,84.906,0,0,0-11.7,8.783,20.664,20.664,0,0,0-2.309,2.262,2.717,2.717,0,0,0-.157,3.514,2.668,2.668,0,0,0,3.375.936,34.876,34.876,0,0,0,3.359-1.764c6.1-3.51,12.05-7.276,18.508-10.178,4.816-2.164,5.064-5.249.814-8.509-5.442-4.174-11.043-8.142-16.616-12.142a8.774,8.774,0,0,0-4.453-1.881A2.368,2.368,0,0,0,136.479,71.876Zm-19.262-3.19c-.139-1.3-.379-2.7-1.757-3.111a2.941,2.941,0,0,0-3.23,1.47,33.281,33.281,0,0,0-2.093,3.164C106.545,76.9,102.849,83.53,99.815,90.5c-1.37,3.147-2.7,6.314-3.945,9.513a4.251,4.251,0,0,0,1.812,5.574c1.906,1.141,4.184.673,5.832-1.235a9.825,9.825,0,0,0,1.937-4.436,55.181,55.181,0,0,1,3.981-10.624c2.229-4.94,4.312-9.947,6.6-14.858a13.926,13.926,0,0,0,1.257-4.664C117.268,69.407,117.255,69.046,117.217,68.686ZM45.753,27.925C45.648,25.2,42.881,22.947,39.7,23c-2.806.049-4.784,2.393-4.615,5.47.135,2.468,2.006,3.707,5.56,3.684C43.773,32.136,45.849,30.417,45.753,27.925Zm40.5-.013c-.107-2.118-2.47-4.3-4.739-4.388-2.176-.079-4.421,2.158-4.514,4.5-.092,2.317,1.478,3.638,4.3,3.614C84.346,31.612,86.365,30.1,86.255,27.912ZM61.878,31.6c2.255-.22,3.425-1.425,3.257-3.357a4.071,4.071,0,0,0-4.177-3.99,4.412,4.412,0,0,0-3.925,4.3C57.149,30.511,59.28,31.853,61.878,31.6Z"/></g></g></svg>