<svg xmlns="http://www.w3.org/2000/svg" viewBox="0 0 183.472 186.252"><title>dynamic-layouts</title><g id="Layer_2" data-name="Layer 2"><g id="Layer_1-2" data-name="Layer 1"><path d="M46.6,2.68c7.049-.349,14.074-.778,21.1-1.028C81.79,1.152,95.876.479,109.965.381c14.111-.1,28.235-.891,42.34.151,7.905.584,15.811,1.207,23.689,2.067,5.22.57,7.682,3.892,7.465,9.518-.259,6.689-.805,13.371-.879,20.06-.107,9.592-.5,19.191.269,28.784a28.58,28.58,0,0,1-.577,6.479,5.508,5.508,0,0,1-3.625,4.421,13,13,0,0,1-6.915,1.091c-9.024-1.464-18.107-.431-27.157-.681-6.158-.169-12.221-1.294-18.406-1.2-7.763.124-15.489-.654-23.31-.4-13,.427-26.039.56-39.062.673-5.78.051-11.5,1.019-17.322.642-10.3-.665-20.639-.816-30.947-1.421a31.841,31.841,0,0,1-8.486-1.861C2.989,67.3.525,64.428.962,60.145c1.326-12.973.59-26.109,3.091-39,.377-1.944.289-3.974.5-5.956A10.657,10.657,0,0,1,11.7,5.819C16.71,3.768,21.941,3.762,27.177,3.67c3.985-.071,7.95.127,11.86-1.085C41.486,1.826,44.084,2.393,46.6,2.68Zm6.625,14.366c-3.8,0-7.645-.35-11.4.077-6.657.758-13.276,1.887-20,1.859-2.159-.009-3.522.759-3.838,2.919-.392,2.684-1.164,5.276-1.423,8.016-.376,3.987.535,8-.256,11.9a70.367,70.367,0,0,0-.919,14.076c0,3.152.088,3.246,3.395,3.343q10.866.319,21.737,0c11.031-.318,22.07-.23,33.1-.939,8.675-.558,17.367-.921,26.056-1.168,7.58-.216,15.172,0,22.75-.245,8.132-.26,16.23.545,24.353.624,5.174.05,10.455-.491,15.649.518a16.03,16.03,0,0,0,4.329-.241c1.715-.154,2.473-1.037,2.509-2.849.053-2.715.46-5.421.57-8.138.372-9.223.681-18.449,1.014-27.674.052-1.431-.247-2.366-2.049-2.438-9.961-.4-19.83-2.187-29.824-2.093-12.666.121-25.333.527-38,.389-4.933-.054-9.745.966-14.641.822C75.285,15.482,64.272,16.672,53.225,17.046Zm23.03,121.676c.808-9.567,1.52-19.144,2.49-28.7.237-2.339.582-4.673.676-7.028a11.7,11.7,0,0,1,1.749-5.635c1.8-3.041,3.537-4.491,7.7-3.577,4.673,1.025,9.741.493,14.621.283,13.928-.6,27.843-1.51,41.773-2.034,7.414-.279,14.856-.188,22.271.1A36.97,36.97,0,0,1,176.549,94c3.924,1.176,6.023,4.429,5.26,8.927-1.558,9.177-.451,18.44-1.32,27.628-.459,4.855-.5,9.752-1.039,14.6-.485,4.316-1.983,6-6.1,6.385-7.173.667-14.279,2.04-21.62.916-5.156-.789-10.492-.513-15.748-.517-16.145-.009-32.29.082-48.435.113a28.772,28.772,0,0,1-4.891-.251c-4.03-.692-5.913-3-5.972-7.079-.029-1.993,0-3.986,0-5.98Zm36.388-29.143c-6.253,0-10.6.06-14.952-.015-5.631-.1-6.062.246-6.522,5.967-.043.541.006,1.089-.016,1.633a102.7,102.7,0,0,1-2.14,16.643c-1.071,5.2-1.16,5.421,4.118,5.538,1.268.028,2.538-.09,3.807-.1,17.03-.135,34.062-.132,51.087-.471,5.246-.1,10.441,1.246,15.724.166,2.109-.431,3.044-1.072,3.259-3.347.787-8.3-.241-16.7,1.284-24.957a4.481,4.481,0,0,0,0-.544c.092-1.582-.592-2.1-2.225-2.268-3.473-.355-6.9.772-10.311.272-5.982-.877-11.941-.238-17.877.126C128.838,108.777,119.807,109.525,112.643,109.579ZM.575,124.418C.5,114.622,1.66,105.24,1.308,95.8c-.266-7.119,2.371-9.316,9.7-8.345,5.062.67,10.134.377,15.2.427,6.5.066,13.005.048,19.5-.192,3.707-.138,7.215.741,10.72,1.54,5.877,1.34,8.153,4.3,8.09,10.453-.052,5.052-.485,10.1-.145,15.157.4,5.962-.153,11.962.8,17.9.724,4.525-.157,9.042-.344,13.555-.127,3.08-2.3,4.756-5.114,5.675-4.43,1.443-9.074,1.256-13.477.723-7.256-.878-14.47-.087-21.691-.433-4.167-.2-8.347-.19-12.508-.462a22.764,22.764,0,0,1-5.3-1.117,5.7,5.7,0,0,1-4.17-4.622C1.422,138.769-1.141,131.6.575,124.418ZM36.027,141.6v-.524q7.052,0,14.1,0c1.809,0,3.1-.318,2.987-2.721-.455-9.911-2.01-19.788-.978-29.753a22.431,22.431,0,0,0-.267-3.789,1.948,1.948,0,0,0-2.062-2c-2.344-.172-4.691-.337-7.026-.6-8.8-.981-17.634-1.475-26.49-1.595-1.747-.024-2.719.594-2.8,2.446-.08,1.808-.221,3.617-.428,5.414-1.136,9.894-1.5,19.836-1.966,29.774-.1,2.09.688,3.031,2.684,3.136,1.266.067,2.532.193,3.8.2C23.73,141.608,29.879,141.6,36.027,141.6Zm135.9,40.741a16.458,16.458,0,0,0,5.851-1.1,4.565,4.565,0,0,0,2.921-5.23,6.724,6.724,0,0,0-4.192-5.835,15.233,15.233,0,0,0-6.917-1.074c-8.155.186-16.32.313-24.455.853-13.528.9-27.067,1.577-40.616,1.653-14.313.081-28.583,1.008-42.869,1.6-7.954.333-15.887,1.463-23.836,1.545-6.711.07-13.392.345-20.053.967a29.176,29.176,0,0,0-10.5,2.541,3.184,3.184,0,0,0-1.806,3.1,2.875,2.875,0,0,0,2.13,2.84,30.3,30.3,0,0,0,4.746,1.131c4.669.8,9.4.416,14.1.684,12.14.694,24.241-.312,36.346-.832,8.319-.358,16.591-1.431,24.953-1.412,11.777.025,23.555-.324,35.332-.571,10.493-.219,20.967-1.336,32.132-.639C160.32,181.651,166.128,182.54,171.924,182.338Z"/></g></g></svg>