<svg xmlns="http://www.w3.org/2000/svg" viewBox="0 0 407.627 484.754"><title>faces</title><g id="Layer_2" data-name="Layer 2"><g id="Untitled_Artwork_12_Image" data-name="Untitled_Artwork 12 Image"><path d="M387.85,336.129c3.629,0,7.259-.006,10.888,0,2.535.005,3.57,1.261,4.417,3.756,6.518,19.2,4.807,38.588,1.8,58.043-3.328,8.236-4.479,17.211-8.515,25.2a5.456,5.456,0,0,0,.015,5.582c2.44,4.649,3.268,9.97,5.98,14.57a13.942,13.942,0,0,1,1.352,5.769c.615,7.209,1.157,14.42,2.165,21.591a13.824,13.824,0,0,1-.145,4.323,2.481,2.481,0,0,1-2.29,1.993,2.1,2.1,0,0,1-2.408-1.715,39.173,39.173,0,0,1-1.386-7.465c-.516-5.775-1.189-11.541-1.98-17.285-1.059-7.687-5.228-14.221-8.142-21.217a18.622,18.622,0,0,0-1.319-2.361c-.731-1.216-1.018-3.383-2.447-3.312-1.742.086-1.193,2.321-1.671,3.608-2.932,7.878-6.516,15.414-13.317,20.715-4.265,3.324-9.368,5.316-14.265,7.587-15.174,7.037-31.236,7.368-47.387,5.719a105.193,105.193,0,0,1-22.223-4.867c-13.463-4.452-22.743-13.18-26.431-27.226-.046-.176-.114-.346-.176-.516-.585-1.6-.27-4.169-2.029-4.444-.85-.133-2.405,2.451-3.2,4.028-2.915,5.819-5.988,11.6-8.349,17.646-2.441,6.253-3.069,13.027-4.019,19.648-.595,4.155-1.811,8.138-2.636,12.222a6.921,6.921,0,0,1-.728,2.038c-.844,1.48-2,2.829-3.866,2.379-1.916-.462-2.356-2.409-2.276-3.942a82.325,82.325,0,0,1,1.255-9.63c1.256-7.289,2.427-14.6,3.983-21.828a46.437,46.437,0,0,1,7.094-16.351c1.365-2.012,1.559-3.715-.079-5.837C236.6,413,234.16,399.289,232.608,385.276c-1.062-9.587-.147-19.182-.453-28.757-.157-4.916.289-9.733.543-14.593.219-4.194,1.456-5.792,5.477-6.971,4.766-1.4,9.678-1.4,14.58-1.464,1.272-.017,2.544.022,3.816,0,1.061-.021,2.407.435,3.071-.542,1.029-1.514.932-3.435,1.148-5.206a.99.99,0,0,0-1.069-.982c-.9,0-1.8.136-2.7.164-7.073.223-12.4-6.349-10.046-13.07,2.265-6.463,5.877-12.176,13.4-13.6,1.815-.345,2.355-1.036,2.548-2.753.729-6.483,1.761-12.934,2.409-19.423,1.837-18.4,10.514-33.254,24.923-44.144,9.654-7.3,20.663-12.963,33.686-11.725a42.714,42.714,0,0,0,5.448-.039c8.247-.276,14.2,3.619,18.62,10.254,2.9,4.363,1.752,8.713-.419,12.882-.9,1.718-.954,2.206,1.17,2.718,4.224,1.017,8.351,2.422,11.886,5.16a20.342,20.342,0,0,1,5.256,5.454c2.957,4.937,2.476,8.074-.86,10.668-1.593,1.238-2.1,2.382.036,3.7,3.354,2.078,5.356,5.367,7.242,8.692,2.33,4.105,1.962,6.112-1.541,9.525-1.528,1.489-3.6,2.735-2.572,5.436.521,1.362.919,2.7,2.946,2.488,3.044-.314,4.973,1.59,6.874,3.691,4.073,4.5,4.856,10.089,4.824,15.678-.019,3.374-2.534,5.9-5.6,7.547-1.257.676-2.849,1.181-2.793,2.956a36.662,36.662,0,0,0,.67,6.437c.209.986,1.471.729,2.37.705,1.816-.047,3.633-.05,5.449-.06,1.634-.008,3.267,0,4.9,0ZM266.316,397.786c.031,5.447.5,10.912.333,16.32-.218,6.988,1.64,13.243,4.523,19.385a21.011,21.011,0,0,0,10.6,10.486,61.1,61.1,0,0,0,9.259,3.175,127.18,127.18,0,0,0,20.285,3.924c9.041.919,18.106,1.375,27.127-.377,5.007-.972,9.667-3.03,14.483-4.6a44.761,44.761,0,0,0,11.432-6.185c4.586-3.161,7.283-7.359,9.086-12.494a52.5,52.5,0,0,0,2.545-19.73c-.391-10.016-2.443-19.8-4.657-29.514-1.447-6.355-2.426-12.823-4.565-19.036-1.067-3.1-2.845-5.006-5.976-5.509a124.732,124.732,0,0,1-13.2-3.236,27.519,27.519,0,0,0-10.774-.988,101.981,101.981,0,0,1-10.3.559c-8.7.192-17.417.243-26.032,1.554a94.969,94.969,0,0,1-13,.916,37.227,37.227,0,0,0-11.741,1.931c-5.09,1.754-7.416,5.088-8.185,10.332C265.93,375.707,266.752,386.762,266.316,397.786Zm22.194-51.861a50.736,50.736,0,0,0,9.726-.793,97,97,0,0,1,13.457-1.865,180.92,180.92,0,0,0,18.456-1.135c12.513-1.757,24.549.152,36.468,3.693,1.766.524,2.05.208,1.731-1.74-2.106-12.855-4.169-25.72-5.959-38.622-1.43-10.31-4.605-20.06-8.517-29.629-1.013-2.478-2.371-4.6-5.391-4.493-9.715.343-19.05,1.718-26.945,8.316-4.47,3.736-6.372,3.532-10.972-.141a44.15,44.15,0,0,0-9.662-6.008,36.745,36.745,0,0,0-17.362-3.468c-2.618.174-3.951,1.292-4.5,3.781-1.255,5.662-2.805,11.264-3.885,16.958-2.331,12.29-3.557,24.743-4.849,37.17-.692,6.655-1.641,13.322-1.429,20.057.052,1.659.539,2.4,2.249,1.449C276.54,346.429,282.457,345.834,288.51,345.925Zm110.323,17.12c-.644-5.039-.046-11.2-.98-17.31-.381-2.5-1.382-2.933-3.561-2.659-5.356.676-10.685,1.747-16.136,1.339-1.339-.1-1.836.464-1.726,1.944.307,4.143-.4,8.55.782,12.4,1.819,5.924,2.642,11.993,3.928,17.982,2.2,10.251,4.067,20.589,4.419,31.094a12.533,12.533,0,0,0,2.769,7.951c.559.687.955,1.774,1.973,1.556.429-.091.718-1.11.963-1.748,5.911-15.352,8.985-31.156,7.583-47.675C398.74,366.657,398.833,365.381,398.833,363.045ZM258,351.936c.167-1.8.218-3.622.535-5.4.325-1.818-.2-2.8-2.095-2.924-3.793-.253-7.583-.627-11.38-.741-4.744-.144-4.846-.055-5.242,4.628-.892,10.537.249,21.066,1.122,31.506,1.027,12.265,4.509,24.174,8.508,35.85a28.715,28.715,0,0,0,1.837,3.939c.6,1.15,1.465,1.669,2.469.419,1.588-1.974,3.143-3.925,3.216-6.7.172-6.486.805-12.928-.135-19.455a87.013,87.013,0,0,1-.748-18.98C256.652,366.692,257.356,359.317,258,351.936Zm5.1-40.215c.234-3.034-.374-3.6-2.575-3.062a7.805,7.805,0,0,0-4.847,3.194c-1.833,2.711-.641,5.7,2.585,5.884,3.463.2,3.745.312,4.352-2.928C262.855,313.571,263.016,312.32,263.109,311.721Zm112.921,4.2c-.341-1.775-.7-3.731-1.1-5.678a4.786,4.786,0,0,0-2.439-3.434,2.135,2.135,0,0,0-1.513-.308,1.511,1.511,0,0,0-.554,1.314q.891,5.088,1.959,10.142c.139.663.425,1.546,1.374,1.315a3.156,3.156,0,0,0,1.775-1.046A6.679,6.679,0,0,0,376.03,315.922ZM283.209,68.912a128.538,128.538,0,0,1-3.219,29.641c-.212.881-.452,1.758-.749,2.613-.768,2.217-2.347,4.489-2.156,6.61.2,2.238,3.378,2.882,4.892,4.669,1.917,2.263,2.949,4.955,4.083,7.6.608,1.415.1,2.8-.675,4.136a14.312,14.312,0,0,1-3.951,4.44,3.493,3.493,0,0,0-1.319,4.725,41.719,41.719,0,0,1,1.872,5.1c.988,3.371,1.865,6.181,6.569,6.289,3.566.082,4.806,2.871,4.427,6.81-.361,3.766-2.692,6.674-5.677,7.086-4.034.557-8.889-4.487-7.439-8.6,2.276-6.448-2.057-11.448-2.743-17.194-.228-1.913-2.193-1.555-3.59-1.527-1.86.037-1.8,1.552-1.764,2.779.17,6.342.359,12.685.666,19.021.14,2.887.949,5.782.785,8.634-.342,5.92,1.185,11.53,2.314,17.2a40.88,40.88,0,0,1,1.139,8.607,9.722,9.722,0,0,0,.718,4.263c2.286,5,2.463,10.556,4.166,15.7.764,2.3-.563,4.473.038,6.781.232.892-1.105,1.772-2.258,1.985A2.514,2.514,0,0,1,277,215.2a8.44,8.44,0,0,1-1.758-3.906c-2.182-8.575-4.438-17.13-6.7-25.684-.3-1.142-.151-2.912-1.569-3.053-1.284-.127-1.945,1.441-2.631,2.494-.888,1.365-1.781,2.734-2.567,4.16-6.412,11.641-17.093,15.464-29.5,16.16-6.289.353-11.662-2.2-16.836-5.341a13.357,13.357,0,0,1-5.411-7.277c-.457-1.252-.973-1.338-1.789-.5a18.182,18.182,0,0,0-2.085,2.512c-4.642,6.948-11.644,9.162-19.369,8.734a58.968,58.968,0,0,1-21.015-5.147,32.262,32.262,0,0,1-10.337-7.765c-2.963-3.166-5.9-6.356-8.927-9.461-2.123-2.178-2.363-2.092-3.711.573a94.163,94.163,0,0,0-8.826,27.3c-.33,2-.563,3.949-2.467,5.2-1.526,1-2.832.778-3.537-.849a9.737,9.737,0,0,1-.442-5.318,127.106,127.106,0,0,1,7.913-29.266c1.5-3.871,2.3-8.066,4.971-11.427.919-1.158.67-2.362.374-3.618-1.777-7.553-1.055-15.161-.293-22.733A74.2,74.2,0,0,0,141,130.16c-.062-1.355-.1-3.017-2.056-3.352-2.515-.428-5.1.721-5.742,2.725-1.055,3.278-2.03,6.584-2.97,9.9-.645,2.27-.877,4.276.577,6.674,2,3.3-1.019,9.865-4.562,10.887a5.615,5.615,0,0,1-6.01-1.5c-1.749-1.852-2.562-3.9-1.757-6.454a8.142,8.142,0,0,1,3.6-4.648c2.164-1.238,2.8-2.993,3.413-5.157a118.042,118.042,0,0,1,3.82-11.318,3.409,3.409,0,0,0-.721-4.245c-5.061-5.675-4.024-15.024,1.968-19.709a12.1,12.1,0,0,1,2.321-1.416c1.705-.794,1.886-1.47.637-3.155a70.061,70.061,0,0,1-10.983-21.715,42.623,42.623,0,0,1,.974-27.188,7.6,7.6,0,0,0-.214-6.663,38.767,38.767,0,0,1-4.49-14.438c-.5-5.093-.234-10.1,3.673-14.18,2.074-2.165,3-2.552,4.615-.277,1.968,2.779,4.936,4.218,7.334,6.392,1.529,1.387,2.617,1,2.942-1.107a95,95,0,0,1,3.176-12.076c.759-2.6,1.7-5.174,3.731-7.147,1.487-1.441,2.833-1.32,3.911.466a9.475,9.475,0,0,1,.78,2c.279.863.471,1.754.759,2.614,2.969,8.842,3.635,9.114,11.946,5.563a145.478,145.478,0,0,1,29.98-9.55C202.474.026,213.317.73,224.181,1.8a61.4,61.4,0,0,1,24.164,7.733c8.664,4.878,17.058,10.421,22.248,19.5,1.882,3.292,4.409,6.215,6.295,9.5,3.931,6.854,6.543,14.141,6.333,22.213C283.15,63.467,283.209,66.19,283.209,68.912Zm-14.331,38.342c5.123-8.583,6.163-18.307,7.715-27.875.288-1.772-.584-2.356-2.232-1.543a38.818,38.818,0,0,1-8.008,3.2c-3.034.733-3.025.816-2.239,4.018,1.591,6.481,3.217,12.952,3.814,19.631a9.262,9.262,0,0,0,1,2.475l-.209.221ZM151.917,177.165l-.094-.7c-.034.092-.123.215-.091.269a1.712,1.712,0,0,0,.312.326c2.472,3.881,6.318,6.387,9.525,9.534a24.744,24.744,0,0,0,11.808,6.266c4.208,1.022,8.488,1.744,12.7,2.728,4.241.991,7.893-.392,11.139-2.836a70.389,70.389,0,0,0,6.316-5.926c.509-.492,1.067-1.086.652-1.878-.392-.746-1.172-.655-1.879-.653-4.672.011-9.331.034-14.009-.319-7.033-.529-13.964-1.71-20.925-2.716-3.939-.569-7.813-1.252-11.4-3.185C154.809,177.441,153.492,176.422,151.917,177.165Zm122.2-127.659c.152.568.379.906.915.3l-.652-.56c-.182-3.229-1.865-5.863-3.59-8.392-2.553-3.746-5.375-7.307-8.025-10.987a25.253,25.253,0,0,0-7.162-6.592c-3.675-2.322-7.5-4.449-10.618-7.555a8.32,8.32,0,0,0-3.927-1.759c-2.788-.78-5.557-1.628-8.347-2.4-11.832-3.282-23.9-5.1-36.053-2.9-12.322,2.232-24.115,6.539-35.775,11.111-1.411.553-1.845,1.137-.664,2.158,3.853,3.33,7.722,6.96,12.71,8.2,7.687,1.911,15.419,4.287,23.555,2.776,2.5-.464,5.035-.745,7.514-1.291a118.2,118.2,0,0,1,27.6-2.3c8.582.143,16.311,3.111,24.134,5.963a8.1,8.1,0,0,1,2.728,1.768c3.936,3.777,8.768,6.489,12.463,10.555A4.847,4.847,0,0,0,274.117,49.506Zm-63,125.233c8.423,0,14.789-.193,21.139.045,9.736.366,19.079-2.194,28.583-3.518,3.3-.46,4.034-1.749,3.888-5.261-.42-10.147-.912-20.291-1.328-30.438-.283-6.888-.25-13.789-1.165-20.644-.769-5.754-1.622-11.5-2.13-17.285-.687-7.821-2.884-15.31-4.752-22.861-1.1-4.468-9.082-9.658-13.617-9.324a7.119,7.119,0,0,0-3.07.97c-4.638,2.82-9.63,5.071-13.874,8.529-4.606,3.752-10.021,5.769-15.654,7.319a79.21,79.21,0,0,1-30.66,2.185c-8.167-.96-16.243-1.632-23.022-6.942-1.421-1.113-2.413-.529-2.878.937a38.009,38.009,0,0,0-1.611,7.98c-.893,9.558-1.145,19.157-1.858,28.729-1.039,13.942-.216,27.916.9,41.846.23,2.876-.161,5.784.752,8.645.415,1.3.673,2.194,2.148,2.689,5.326,1.788,10.582,3.593,16.249,4.284A287.181,287.181,0,0,0,211.114,174.739ZM191.428,75.382A103.34,103.34,0,0,0,214.075,72.1a11.071,11.071,0,0,0,3.956-1.728c6.6-4.859,14-8.37,21.008-12.533,5.123-3.044,10.276-6.181,16.446-6.776.683-.066,1.691-.069,1.748-.943.055-.851-.983-.788-1.569-.985-8-2.684-16.346-3.257-24.657-3.635-8.957-.406-17.6,1.983-26.131,4.358-7.233,2.014-14.545,3.092-21.922,1.99A139.977,139.977,0,0,1,163.878,47.5c-5.189-1.541-10.434-3.356-14.967-6.384-6.456-4.312-13.4-8.069-18.355-14.331a6.341,6.341,0,0,0-.817-.718c-.4-.351-.852-.719-1.349-.375-.2.142-.243.675-.192,1,.734,4.829,1.19,9.7,4.038,13.972a67.841,67.841,0,0,1,4.724,8.562,37.066,37.066,0,0,0,18.556,18.337C167.283,72.99,179.927,74.238,191.428,75.382ZM142.833,24.22c.435,1.745-.084,4.742,2.316,6.672,2.813,2.262,5.524,4.934,8.753,6.342,8.764,3.821,17.388,8.058,26.892,10.032a32.655,32.655,0,0,0,15.04-.074c4.367-1.122,8.681-2.927,12.973-3.712,6.876-1.257,13.77-2.747,20.792-3.389a42.61,42.61,0,0,1,10.794.038c1.608.26,3.228.451,4.845.652.527.065,1.192-.062,1.183-.61-.007-.4-.532-.888-.942-1.166a4.734,4.734,0,0,0-1.519-.561c-8.34-2.073-16.746-2.958-25.309-1.553-7.139,1.172-14.285,2.307-21.445,3.346a46.656,46.656,0,0,1-16.733-.153c-9.71-2.1-17.584-7.406-24.571-14.18a26.923,26.923,0,0,1-7.085-10.154,36.362,36.362,0,0,0-2.137-4.386c-.156-.3-.618-.769-.717-.719-.451.227-1.043.534-1.191.951C143.431,15.39,143.214,19.381,142.833,24.22Zm80.915,159.954c-1.895-.563-4.963.3-8.034,0-2.277-.222-2.569.441-1.68,2.467,3.247,7.4,9.855,9.637,16.979,10.91a11.912,11.912,0,0,0,6.962-.679c2.988-1.316,6.122-2.36,8.959-3.942,4.508-2.514,7.831-6.391,10.807-10.542.376-.524.988-1.363.433-1.876-.4-.369-1.35-.215-2.046-.168a13.072,13.072,0,0,0-1.576.412A153.157,153.157,0,0,1,223.748,184.174ZM126.691,64.1A40.6,40.6,0,0,0,132.6,85.757c1.774,3.033,3.541,6.413,7.227,7.857,1.576.617,2.457.123,2.629-1.539.391-3.783.9-7.563,1.068-11.357.132-2.963,2.532-5.68,1.8-8.332-.755-2.741-4.6-3.2-6.443-5.457a7.118,7.118,0,0,0-.715-.821c-3.414-3.067-5.937-6.84-8.47-10.61a5.032,5.032,0,0,0-1.223-.954,8.536,8.536,0,0,0-.752,1.387C126.744,58.906,126.959,62.032,126.691,64.1Zm133.052-5.909c-2.2.375-5.046.824-7.868,1.375-.442.086-1.093.624-1.107.973-.015.395.509.919.925,1.2,4.257,2.906,7.739,6.455,9.613,11.367a2.631,2.631,0,0,0,2.394,1.875c2.945.194,5.738-.125,8.086-2.219,3.531-3.149,3.747-7.34.035-10.174A19.837,19.837,0,0,0,259.743,58.194Zm-121.1,48.369a7.919,7.919,0,0,0-8.052,9.283c.378,3.139,6,6.552,8.839,5.331.956-.411,1.094-1.383,1.179-2.286.287-3.052.513-6.11.816-9.161C141.7,106.989,141.3,106.505,138.642,106.563ZM270.55,120.775c-.057,3.882.734,5.368,2.858,5.37,3.275,0,7.876-2.626,7.869-4.5-.009-2.259-3.933-6.4-6.339-6.689C273.057,114.732,270.591,118,270.55,120.775ZM286.994,155.1c1.461-.084,3.132-2,3.258-3.735.087-1.2-1.837-2.616-3.48-2.568a2.912,2.912,0,0,0-2.729,3.216C284.2,153.979,285.363,155.193,286.994,155.1Zm-162.813-2.834a3.156,3.156,0,0,0,2.96-3.1c.108-1.14-.5-1.728-1.521-1.682-2.092.092-2.414,1.856-2.782,3.382C122.663,151.593,123.221,152.181,124.181,152.265Zm46.827,149.394c.591,11.69-2.406,22.645-6.4,33.448a91.823,91.823,0,0,0-5.453,25.457c-.675,9.632-.03,19.2,3.468,28.375,1.036,2.719.287,3.613-2.732,3.095a19.864,19.864,0,0,0-13.149,2.38c-5.375,2.969-10.712,3.007-16.192,1.044-1.993-.714-2.55-.117-2.953,1.6-1.032,4.409-2.078,8.817-3.235,13.195a3.785,3.785,0,0,0,.413,2.467c1,2.98,2.893,5.431,4.525,8.01,5.894,9.317,8.81,19.847,12.334,30.1,3.241,9.433,5.665,19.148,10.034,28.18a10.778,10.778,0,0,1,.629,2.077c.3,1.2.191,2.163-1.4,2.17-.726,0-1.453.054-2.178.049-4.648-.031-4.747,0-6.2-4.358-2.64-7.907-5.168-15.852-7.707-23.792-1.406-4.4-1.377-4.3-5.869-4.464-6.926-.252-13.735,1.25-20.637,1.214a4.786,4.786,0,0,0-3.321,1.561c-5.01,4.45-10.215,8.679-14.9,13.487a23.637,23.637,0,0,1-7.9,5.652c-5.314,2.152-6.7.817-8.972-2.188-3.943-5.208-7.85-10.455-11.512-15.861-1.925-2.841-4.066-4.123-7.617-3.893-3.4.221-6.86-.439-10.3-.693-1.443-.107-2.89-.235-4.335-.232-2.324,0-3.527,1.051-3.918,3.537-.926,5.905-2.087,11.777-3.306,17.63-.553,2.657-1.506,5.229-2.211,7.858-.661,2.464-2.069,3.653-4.728,3.246-1.059-.162-2.175.087-3.258.024s-1.536-.677-1.343-1.814c2.446-14.406,3.973-28.971,7.614-43.169a59.171,59.171,0,0,1,6.341-15.564c1.594-2.695,2.01-5.289.661-8.233-2.142-4.672-2.762-9.738-3.4-14.775-.2-1.563-.8-2.341-2.455-1.871-.349.1-.708.162-1.065.231-11.925,2.3-20.237-3.469-27.162-12.231-1.975-2.5-1.562-4.162,1.282-4.651,2.891-.5,6.018-.5,7.7-3.284,2.347-3.891,4.021-8.024,3.88-12.8-.175-5.906-1.857-11.426-3.719-16.916-1.339-3.949-2.937-7.812-4.4-11.719-6.138-16.356-5.138-32.685.4-48.921,1.7-4.969,3.836-9.79,5.85-14.646,5.565-13.414,16.135-20.913,29.581-25.094a59.151,59.151,0,0,1,9.041-1.693,13.56,13.56,0,0,1,8.463,1.088c1.726.88,2.893.755,4.15-.921a23.519,23.519,0,0,1,13.908-8.821c6.173-1.463,12.335-2.985,18.462-4.627a34.17,34.17,0,0,1,21.85,1.48c2.7,1.056,5.416,2.068,8.137,3.069,12.79,4.7,23.083,12.776,31.465,23.389,5.268,6.669,7.471,14.813,10.766,22.448C170.78,288.371,170.9,295,171.008,301.659Zm-25.247,51.634c-.357,5.972-.747,12.669-1.177,19.363a5.058,5.058,0,0,1-.538,1.4c-.392-.338-1.018-.611-1.133-1.026a29.323,29.323,0,0,1-.851-4.237,106.733,106.733,0,0,1-.208-18.969c.037-.7.235-1.543-.557-1.84-.376-.141-1.043.206-1.455.5-2.093,1.5-5.259,1.661-6.662,3.442-1.6,2.037-.245,5.271-.638,7.959-.026.18-.038.362-.051.543a166.181,166.181,0,0,1-2.7,22.625c-.714,3.423-.586,3.462,2.574,4.887,4.326,1.95,8.672,2.414,13.132.335,1.8-.84,3.725-1.414,5.59-2.119,4.386-1.659,4.332-1.651,3.492-6.03a62.99,62.99,0,0,1-1.517-11.851,110.754,110.754,0,0,1,6.559-38.924c4.463-12.013,4.254-24.113,2.7-36.421-.941-7.477-4.533-14.1-7.082-21.055-4.234-11.554-13.115-19.054-23.035-25.237-6.775-4.222-14.66-6.149-22.553-7.626a23.368,23.368,0,0,0-10.224.208c-8.239,2.126-16.679,3.765-24.493,7.132-5.986,2.579-11.637,5.74-18.461,4.936a3.458,3.458,0,0,0-1.074.164c-7.585,1.637-15.473,2.42-21.756,7.731a3.88,3.88,0,0,1-.993.436,22.846,22.846,0,0,0-10.031,8.872c-3.351,5.059-5.155,10.779-7.117,16.408-5.405,15.509-6.241,31.157-1.087,46.953,2.579,7.9,5.387,15.674,6.07,24.16.866,10.752-1.221,20.048-9.6,27.371-.733.642-1.247,1.438.229,1.9,5.331,1.661,10.4,4.241,16.149,4.432,3.665.121,3.714.154,3.71-3.337-.011-7.977-.083-15.954-.032-23.93.018-2.706.375-5.409.494-8.117.074-1.675-.6-2.36-2.51-2.531-4.573-.409-6.769-2.973-6.664-7.488.122-5.3,2.506-9.619,7.17-11.982,2.238-1.134,2.714-2.253,2.723-4.415.022-5.063-.37-10.113.359-15.2.6-4.18.14-4.376-3.931-6.287a18.829,18.829,0,0,1-1.919-1.032,2.158,2.158,0,0,1-1.1-2.289,2.293,2.293,0,0,1,1.751-1.872c4.174-1.19,8.292-2.834,12.552-3.4,6.675-.892,12.413-2.933,17.322-7.89,3.754-3.79,7.9-7,8.1-12.9a4.6,4.6,0,0,1,.347-1.028,4.108,4.108,0,0,1,4.105-2.99c1.981-.089,1.859,1.881,2.427,3.118a3.873,3.873,0,0,1,.273,1.052c.663,4.582,3.556,7.422,7.463,9.391a45.908,45.908,0,0,0,10.64,4.028,100.905,100.905,0,0,0,19.461,1.959c6.346.182,12.751.087,18.93,1.786,5.865,1.614,9.595,5.579,11.241,11.424.259.92,1.075,2.2-.24,2.88-1.009.52-1.433-.714-2.119-1.229a52.6,52.6,0,0,0-5.411-3.606c-1.42-.813-2.059.074-1.865,1.423,1.082,7.545.227,15.166.927,22.731.171,1.848.23,3.259,2.535,3.223,3.02-.047,5,1.746,6.9,3.813,1.705,1.86,1.776,1.789,2.5-.56,1.28-4.149,2.548-8.3,3.882-12.434.14-.434.691-.736,1.052-1.1a6.388,6.388,0,0,1,.407,1.4,6.1,6.1,0,0,1-.192,1.615C146.562,333.381,145.176,342.875,145.761,353.293ZM125.5,325.878c-.49-7.823-.9-14.514-1.335-21.2-.2-3.067-.486-3.509-3.471-3.49-6.534.04-13.108-.109-19.586.57a42.684,42.684,0,0,1-16.593-1.817,20.994,20.994,0,0,1-9.182-5.623c-2.065-2.117-3.09-5.173-5.956-6.549-1.849,2.455-3.825,4.824-5.521,7.381-4.285,6.46-10.347,9.966-17.872,11.251-5.309.907-5.308.949-5.928,5.955-.089.719-.033,1.458-.14,2.173-1.863,12.481-.729,24.987-.171,37.469.6,13.4,1.5,26.783,2.467,40.16.363,5.046,1.361,10.044,1.867,15.085.231,2.308,1.219,3.234,3.461,3.016.721-.07,1.453-.018,2.179-.043q21.225-.731,42.449-1.47a141.059,141.059,0,0,1,20.105,1.158c5.822.625,6.115,2.132,7.147-5.2.379-2.688,1.056-5.334,1.494-8.015,1.663-10.182,3.8-20.264,3.966-30.691.108-6.876-.3-13.826.431-20.615C126.049,338.44,125.427,331.618,125.5,325.878Zm-4.411,117.765c1.536.1,4.422.3,7.311.446,1.772.089,2.276-.882,1.667-2.4-2.083-5.208-4.152-10.425-6.36-15.582-3.481-8.132-3.527-8.113-12.2-8.129-.363,0-.726.032-1.087.017-1.493-.063-2.413.525-2.51,2.121-.431,7.048-1.069,14.089-.344,21.16.157,1.536.883,2.342,2.378,2.36C113.2,443.669,116.462,443.643,121.084,443.643Zm-74.054.431v.021c1.625,0,3.249.008,4.873,0,5.981-.034,4.905-.5,4.787-5.246-.117-4.717.358-9.351.585-14.024.119-2.438,1.5-5.722-.163-7.152-2.051-1.765-5.535-.778-8.392-1.051a3.178,3.178,0,0,0-.539.04,2.126,2.126,0,0,0-1.974,1.544c-2.132,5.706-4.38,11.371-6.406,17.115-.94,2.666-2.542,6.169-1.1,8.141,1.287,1.759,5.1.417,7.788.611C46.668,444.085,46.85,444.074,47.03,444.074Zm32.177-15.232q0-4.349,0-8.7c0-1.521-.682-2.358-2.272-2.358-3.627,0-7.253-.024-10.88-.021-1.166,0-2.174.272-2.313,1.7-.7,7.2-1.838,14.368-1.335,21.644.088,1.27.511,2.054,1.884,2.088,4.166.1,8.332.285,12.5.288,2.6,0,3.385-.717,3.049-3.284C79.342,436.4,79.407,432.633,79.207,428.842Zm6.132,1.055h.314c0,3.434.069,6.869-.023,10.3-.066,2.449,1.128,3.067,3.347,2.945,3.248-.179,6.513-.276,9.761-.157,2.457.091,3.138-1,3.086-3.232-.153-6.661-.195-13.324-.3-19.986-.028-1.864-1.286-2.528-2.862-2.509-3.775.045-7.547.237-11.321.353-1.684.052-2.042,1.063-2.021,2.523C85.372,423.387,85.339,426.642,85.339,429.9ZM71.52,450.568c-1.919-.164-2.764-.34-3.12.382-.4.807.465,1.278.905,1.779,2.616,2.972,5.324,5.865,7.892,8.877,1.143,1.341,2.271,1.614,3.742.7,4.336-2.7,7.368-6.847,11.178-10.132a1,1,0,0,0,.113-.977,1.206,1.206,0,0,0-.963-.285C84.257,451.668,77.262,451.838,71.52,450.568ZM132.2,339.139c.076,1.523.065,2.251.156,2.965.33,2.575,1.589,3.329,4.07,2.474,2.461-.847,3.263-2.955,1.941-5.116-1-1.642-2.682-2.39-4.337-3.086a1.112,1.112,0,0,0-1.619.889C132.271,338.147,132.205,339.039,132.2,339.139ZM32,340.944h.013a6.718,6.718,0,0,0-.01-1.081c-.156-.957.591-2.521-.849-2.678-1.54-.168-1.818,1.429-2.095,2.653a13.744,13.744,0,0,0-.3,2.138c-.155,2.444.685,4.08,1.948,3.709,1.974-.581,1-2.383,1.285-3.661A5.118,5.118,0,0,0,32,340.944ZM333.543,481.691c2.483-2.754,1.333-6.326-2.34-7.206a4.588,4.588,0,0,0-1.607-.064c-3.4.432-6.813.846-10.2,1.372a3.782,3.782,0,0,0-3.511,3.561,3.916,3.916,0,0,0,3,4.052,56.124,56.124,0,0,0,5.879,1.347C329.186,484.791,331.612,483.834,333.543,481.691ZM201.583,217.272c-.241,2.535,1.589,6.127,3.243,6.366,2.4.346,6.5-2.972,6.671-5.4.155-2.174-2.772-5.649-4.856-5.765C204.431,212.347,201.815,214.831,201.583,217.272Zm76.033,255.072a4.352,4.352,0,0,0-3.188-3.955c-1.351-.362-2.966,1.358-3.39,3.6-.628,3.32.365,6.465,1.382,9.55.283.856,1.217,1.086,2.266.578,2.878-1.392,2.589-4.044,2.957-6.526A23.588,23.588,0,0,0,277.616,472.344Zm90.827,2.3a9.626,9.626,0,0,0,.542,2.069c.974,2.467,2.691,2.765,4.308.78a8.42,8.42,0,0,0,.5-9.006c-.714-1.091-1.56-1.97-3.059-1.607a3.355,3.355,0,0,0-2.57,2.452,5.7,5.7,0,0,0-.111,1.626C368.21,472.518,368.28,473.588,368.443,474.645Zm-46.51-115.582c1.984,0,3.978-.119,5.951.032,2.152.165,3.118,1.6,3.154,3.67.109,6.431-5.212,12.846-11.47,13.859a10.752,10.752,0,0,1-11.171-5.855,8.038,8.038,0,0,1,5.98-11.555c2.459-.394,5.034-.066,7.556-.066Zm-1.563,6.127c-2.123.158-4.078.29-6.03.453-1.409.117-1.232,1.016-.771,1.855a5.064,5.064,0,0,0,4.873,2.67,6.851,6.851,0,0,0,5.767-3.293c.5-.739.034-1.371-.809-1.484C322.344,365.251,321.27,365.244,320.37,365.19Zm-21.919,34.762c-.22-2.979-2.38-5.2-4.634-4.811-2.2.378-3.686,2.689-3.191,5.442a76.159,76.159,0,0,0,2,8.346c.676,2.257,2.288,2.491,4.054.852,2.165-2.009,1.407-4.691,1.783-7.264C298.461,401.754,298.517,400.848,298.451,399.952Zm29.893,21.494c-1.923-2.137-3.839-2.055-5.062.475a9.878,9.878,0,0,0-.069,7.884c.582,1.642.491,4.166,2.769,4.057,2.084-.1,3.016-2.339,3.737-4.187a8.73,8.73,0,0,0,.315-2.368C329.952,425,329.811,423.075,328.344,421.446Zm23.169-26.139c-1.661-1.872-3.721-1.523-4.6.846a5.962,5.962,0,0,0-.467,2.655c.441,3.594,1,7.175,1.586,10.75a1.6,1.6,0,0,0,1.392,1.449,1.84,1.84,0,0,0,1.984-1.509c.582-3.023.989-6.08,1.463-9.124C352.921,397.056,352.868,396.834,351.513,395.307Zm-25.838-79.633a4.97,4.97,0,0,1-2.611-4.882c.006-2.169-.158-4.34-.11-6.506a6.787,6.787,0,0,0-.957-3.625,2.774,2.774,0,0,0-3.145-1.614,2.431,2.431,0,0,0-1.953,2.335c.33,5.042-1.226,9.993-.392,15.09.542,3.319,1.593,5.536,5.288,5.556,1.195.006,2.247.322,2.352,1.682.11,1.423.3,3.022-1.4,3.764-.984.43-2.062.645-3.091.976a17.658,17.658,0,0,0-3.063,1.057,3.206,3.206,0,0,0-1.675,4.125c.547,1.751,1.878,2.109,3.44,1.886,3.252-.464,6.462-1.117,9.077-3.315a9.592,9.592,0,0,0,3.672-6.04C330.9,321.55,329.353,317.885,325.675,315.674Zm15.718-24.16c2.2-.506,4.628-2.688,4.351-4.155a5.617,5.617,0,0,0-3.614-4.374,13.046,13.046,0,0,0-8.458-.239,3.82,3.82,0,0,0-1,7.061,11.8,11.8,0,0,0,6.589,1.977A20.911,20.911,0,0,0,341.393,291.514Zm-44.611,41.91c2.321-2.179,2.086-4.269-1.036-4.965a24.015,24.015,0,0,0-11.213.117c-2.314.6-2.94,3.036-1.816,5.222,1.214,2.36,3.323,2.446,5.537,2.371C291.3,335.871,294.348,335.71,296.782,333.424Zm6.448-43.432c.953-1.2,1.15-2.067,0-3.231-2.621-2.653-5.8-2.7-9.066-1.951-2.713.625-3.749,2.2-3.465,4.656.3,2.625,2.024,4.035,5.651,3.97C298.249,292.606,301.234,292.5,303.23,289.992Zm49.41,35.154c-3.182-.046-5.556,1.661-5.414,3.893a4.387,4.387,0,0,0,4.434,3.766c2.9-.16,5.57-2.129,5.568-4.106C357.226,326.94,354.953,325.179,352.64,325.146Zm-11.406-24.875c.061-2.139-1.926-3.761-4.409-3.6a4.378,4.378,0,0,0-4.147,4.72,4.235,4.235,0,0,0,4.134,3.559A4.92,4.92,0,0,0,341.234,300.271Zm-40.075-2.725a4.17,4.17,0,0,0-4.443,3.788c-.088,2.113,1.861,4.869,3.433,4.856,2.062-.018,4.281-2.7,4.46-5.395C304.734,298.923,303.3,297.572,301.159,297.546Zm-84.5-133.858c1.527-3.283,3.759-3.834,6.856-4.1a53.265,53.265,0,0,0,17.262-4.414,9.5,9.5,0,0,0,4.646-3.579,1.836,1.836,0,0,0-.045-2.461,1.781,1.781,0,0,0-2-.368,12.02,12.02,0,0,0-2.432,1.189c-5.387,3.593-11.494,5.078-17.7,6.511-3.574.825-6.265.6-8.474-2.564-.8-1.149-2.2-2.408-3.669-1.176-2.468,2.074-4.678,1.035-6.968-.087-2.259-1.108-4.617-1.079-5.622,1.294-1.611,3.806-4.577,3.479-7.639,3.3a22.583,22.583,0,0,1-8.337-2.272c-4.453-2.1-9.245-3.087-13.9-4.51-.5-.154-1.165-.508-1.426.073a1.6,1.6,0,0,0,.492,1.417,18.846,18.846,0,0,0,4,2.75c5.974,2.567,12,5.057,18.481,6.061,3.975.615,7.709,1.263,9.948,5.373,1.349,2.476,4,3.576,6.807,3.655C211.359,169.507,214.9,167.468,216.659,163.688Zm-13.975-61.781a3.851,3.851,0,0,0-.434-.994,2.171,2.171,0,0,0-2.673-1.275,1.965,1.965,0,0,0-1.4,2.081,14.409,14.409,0,0,0,.164,2.711c1.581,8.449.295,16.557-2.7,24.51-.952,2.524-2.262,4.974-2.262,7.787,0,5.383,4.188,8.141,8.816,5.356,6.613-3.98,9.548-10.569,11.194-17.816a4.712,4.712,0,0,0-.087-1.623,3.146,3.146,0,0,0-2.355-2.706,2.135,2.135,0,0,0-1.5.007.977.977,0,0,0-.047,1.754c2.111,1.387,1.387,3,.629,4.741a29.283,29.283,0,0,1-6.453,9.328,9.783,9.783,0,0,1-2.625,1.867c-2.453,1.142-3.9.051-3.655-2.595.232-2.484,1.664-4.348,3.063-6.259,2.839-3.877,4.212-8.318,5.118-13.161C204.56,111.107,203.632,106.505,202.684,101.907Zm24.629,5.361a12.17,12.17,0,0,1-5.831-1.175c-4.237-1.89-5.157-5.923-1.726-9.113,3.046-2.833,6.541-5.208,10.965-5.482a29.213,29.213,0,0,1,9.7.555,10.7,10.7,0,0,1,4.791,2.438c2.616,2.533,2.591,5.431-.469,7.238A42.27,42.27,0,0,1,227.313,107.268Zm4.088-4.313a22.446,22.446,0,0,0,10.921-2.749,1.616,1.616,0,0,0,.7-1.308,1.585,1.585,0,0,0-.94-1.157,43.7,43.7,0,0,0-5.325-.621c-4.765-.24-4.762-.143-5.554,4.3A1.8,1.8,0,0,0,231.4,102.955ZM224,99.906c-.06-.349.266-1.631-1.47-1.414a2.416,2.416,0,0,0-2.369,2.351c-.094,1.265.716,1.852,1.94,1.963C223.851,102.964,224.182,101.947,224,99.906ZM175.749,94.1a23.812,23.812,0,0,1,7.639.018c3.37.408,5.45,2.168,5.926,4.707a7.315,7.315,0,0,1-3.536,7.361,9.607,9.607,0,0,1-5.169,1.427,43.964,43.964,0,0,1-15.467-2.552,8.9,8.9,0,0,1-2.879-1.467c-3.176-2.814-3.008-5.829.8-7.636C167.217,93.979,171.448,93.935,175.749,94.1Zm-.067,9.8a11.346,11.346,0,0,0,2.651-.3c2.107-.75,5.666-.507,5.781-2.936.143-3.027-3.6-1.849-5.516-2.792a3.174,3.174,0,0,0-1.028-.293c-1.095-.121-2.136-.209-2.392,1.33a7.534,7.534,0,0,1-.875,2.51C173.312,103.116,173.451,104.032,175.682,103.9Zm-8.942-3.879c.01-.771,1.095-2.054-.758-2.334-1.325-.2-3.419,1.137-3.228,1.989a3.336,3.336,0,0,0,2.964,2.662C167.653,102.557,166.655,101.022,166.74,100.016Zm77.46,18.589c4.655.126,6.631,1.087,7.132,3.956.755,4.324.9,7.929-3.523,10.334-5.539,3.009-11.3,1.645-13.97-3.442-1.354-2.576-1.234-4.2.733-6.4C237.214,120.113,240.366,118.182,244.2,118.605Zm-2.4,11.857c1.389-.348,3.2-.352,4.725-1.581a4.993,4.993,0,0,0,1.873-5.293c-.525-2.3-2.584-2.1-4.4-2.187a9.532,9.532,0,0,0-4.2.909c-2.322.988-3.751,3.116-3.427,4.953C236.707,129.122,238.835,130.466,241.8,130.462Zm-62.521-3.51a11.072,11.072,0,0,1-1.931,5.546c-2.527,3.642-4.858,4.179-8.7,2.019-3.4-1.913-4.276-4.975-2.291-8.685a16.6,16.6,0,0,1,2.645-3.365c2.217-2.363,4.231-3.118,6.052-1.887C177.268,122.075,179.494,123.776,179.282,126.952Zm-8,4.127c1.813-.061,3.427-2,3.5-4.148a1.982,1.982,0,0,0-2.347-2.234c-2.159.094-4.435,2.348-4.141,4.088A2.683,2.683,0,0,0,171.281,131.079ZM82.262,257.747a1.133,1.133,0,0,0-.391.374c-.232.459-.692,1.032-.569,1.389.186.538.919.5,1.422.3,5.979-2.332,12.479-2.05,18.617-3.782a21.181,21.181,0,0,1,14.405.708c3.525,1.52,6.527,3.948,9.933,5.537,5.9,2.75,9.377,7.229,11.3,13.22a23.146,23.146,0,0,0,1.4,3.539c.293.568.807,1.379,1.665,1a3.9,3.9,0,0,0,1.612-1.327c.666-1,.22-2.132-.065-3.161-1.323-4.774-3.234-9.354-6.708-12.909-4.18-4.277-8.672-8.265-13.2-12.181a16.142,16.142,0,0,0-10.987-4.152C100.475,247.284,91.082,251.789,82.262,257.747Zm-31.38,5.305a25.349,25.349,0,0,0-5.409.209c-11.241,2.454-17.385,10.464-21.718,20.325a4.471,4.471,0,0,0-.048,2.662c.307,1.254,1.243,1.823,2.436,1.027A8.616,8.616,0,0,0,28,285.364c2.574-3.287,5.365-6.44,7.606-9.944,3.222-5.038,7.805-7.966,13.279-9.816.857-.289,1.749-.486,2.583-.827.251-.1.362-.547.534-.832C51.975,263.216,51.353,263.054,50.882,263.052Zm68.594,16.372c-3.916-4.126-8.218-7.641-14.156-8.311a13.4,13.4,0,0,0-5.847.895,1.983,1.983,0,0,0-1.559,1.956,2.316,2.316,0,0,0,1.527,2.053,26.113,26.113,0,0,0,3.11.927c1.394.363,2.792.716,4.2,1.011,3.321.7,5.818,2.815,8.331,4.86a2.691,2.691,0,0,0,3.454.154,3.5,3.5,0,0,0,1.613-2.166A4.947,4.947,0,0,0,119.476,279.424ZM54,275.083c-1.586-1.641-3.234-1.437-4.689.065A79.511,79.511,0,0,1,41.1,282.9c-1.25.968-1.9,2.379-.811,3.731,1.1,1.372,2.627.814,3.92.076a31.488,31.488,0,0,0,9.422-8.71,2.714,2.714,0,0,0,.276-3.045ZM20.357,327.205c.5.8,1.076,1.561,2.107,1.293,1.25-.324,1.614-1.243,1.277-2.492a46.539,46.539,0,0,1-1.363-10.7c-.067-2.123-1.858-3.649-3.453-3.241-2.01.515-2.17,2.142-2,4.082A23.39,23.39,0,0,0,20.357,327.205ZM54,275.083l.121-.075-.211-.061Zm28.508,60.2a1.8,1.8,0,0,0-.63-1.31c-.827-.4-1.328.285-1.661.934-.412.805-.715,1.665-1.083,2.494-3.34,7.534-4.688,15.544-5.633,23.646-.438,3.747-.416,3.805-4.415,3.4-2.961-.3-5.9-.348-8.244,1.735-3.126,2.774-6.045,5.647-10.569,6.169-1.782.206-1.914,1.957-.495,3.251a5.575,5.575,0,0,0,6.51,1.166,19.865,19.865,0,0,0,6.7-4.592c2.308-2.543,4.7-2.212,7.427-1.485a9.23,9.23,0,0,1,5.213,3.584c2.221,2.928,3.275,3.124,6.473,1.361,2.749-1.515,5.847-1.891,8.612-3.134,3.562-1.6,6.592-1.1,9.735.912a11.471,11.471,0,0,0,6.1,2.031c3.986.033,5.658-1.784,5.21-5.766-.114-1.011-.36-1.639-1.679-1.2-3.882,1.3-7.451.464-10.871-1.675a12.088,12.088,0,0,0-3.606-1.152c-1.609-.382-3.612,1.285-4.684.152-1.287-1.361.453-3.263.557-4.978.058-.966,0-1.88-1-2.278-1.446-.575-2.037.618-2.348,1.57a17.534,17.534,0,0,1-2.893,5.2c-.971,1.268-2.117,3.371-3.493,3-1.651-.446-1.094-2.718-1.03-4.3.036-.9.031-1.806.063-2.709.268-7.607.909-15.188,1.762-22.593C82.535,337.454,82.6,336.362,82.506,335.282Zm-24.1-15.8a17.408,17.408,0,0,1,9.358,2.108c4.665,2.484,5.322,6.893,1.7,10.677-3.113,3.255-6.835,4.605-11.273,3.255-2.925-.89-5.88-1.729-8.345-3.693-3.925-3.127-3.963-6.722-.068-9.882C51.838,320.282,54.46,319.533,58.409,319.485ZM61.6,330.737c2.881.227,5.089-.943,7.137-2.461a1.723,1.723,0,0,0,.333-2.764c-.853-1.015-2.159-2.146-3.12-.891-2.9,3.8-5.524,4.611-9.043.636-.876-.988-2.872.323-3.495,1.615-.532,1.1.656,1.976,1.613,2.381C57.173,330.164,59.376,330.992,61.6,330.737Zm37.533,52.07c1.658-2.212,1.544-3.608.032-4.673-1.816-1.278-2.538.39-3.546,1.3-.134.12-.251.261-.383.385-6.978,6.525-15.143,7.149-23.753,4.4-2.492-.8-4.887-2.412-5.5-5.486a6.806,6.806,0,0,0-.876-1.956,1.189,1.189,0,0,0-1.294-.725,1.317,1.317,0,0,0-1.053,1.616c1.092,7.872,9.091,15.572,16.789,15.095C87.359,392,94.24,389.336,99.133,382.807Zm.164-60.676c4.732.713,9.485,1.563,12.485,6.221a4.464,4.464,0,0,1,.044,5.5,9.324,9.324,0,0,1-5.463,4.175c-5.06,1.315-9.725.152-13.974-2.555a6.5,6.5,0,0,1-3.338-6.393,7.607,7.607,0,0,1,5.231-6.363C95.9,322.081,97.518,322.576,99.3,322.131Zm5.272,11.5A4.558,4.558,0,0,0,109.16,332c1.092-1.45.439-2.7-.574-3.874-1.068-1.232-1.633-.369-2.553.375-3.449,2.789-3.779,2.784-6.308-.6-.893-1.195-1.7-1.787-3.1-1.423a2.538,2.538,0,0,0-1.968,2.3,2.665,2.665,0,0,0,1.795,2.994A18.267,18.267,0,0,0,104.569,333.635ZM78.627,405.6a3.5,3.5,0,0,0,4.008-.589,18.124,18.124,0,0,0,3.732-3.891,1.89,1.89,0,0,0-.213-2.458c-1.355-1.538-3.768-1.8-6.572-.793-1.964.7-2.954,1.97-2.75,4.076C76.971,403.394,76.992,404.92,78.627,405.6ZM57.48,312.1c-1.12.228-1.251,1.335-.543,2.111C59,316.467,66.2,317.072,68.759,315.3c1.524-1.056,1.4-2.349-.1-3.4-1.729-1.214-3.488-.516-5.263-.486C61.421,311.623,59.419,311.706,57.48,312.1Zm35.9.7a1.735,1.735,0,0,0-1.588,1.251,2.364,2.364,0,0,0,.687,2.462c2.24,2.181,6.468,2.146,8.92-.1,1.2-1.1,1.076-2.187-.176-3.147a3.7,3.7,0,0,0-3-.911C96.61,312.5,95,312.638,93.383,312.8Z"/></g></g></svg>