<svg xmlns="http://www.w3.org/2000/svg" viewBox="0 0 518.082 533.607"><title>faces-2</title><g id="Layer_2" data-name="Layer 2"><g id="Untitled_Artwork_15_Image" data-name="Untitled_Artwork 15 Image"><path d="M512.052,105.554c0,11.252-.169,19.791.049,28.321.2,7.8.79,15.587,1.256,23.377.682,11.395,1.754,22.779,1.621,34.2-.108,9.239-.79,18.471-.965,27.711-.217,11.417-1.313,22.789-1.294,34.227.019,11.412-.894,22.825-.969,34.24-.105,16.141-.028,32.291.364,48.427.388,15.958,1.32,31.9,1.9,47.856.236,6.527.361,13.07.2,19.6-.262,10.542,1.083,21.042.751,31.564a237.446,237.446,0,0,0,.392,28.252c1.079,12.288.15,24.594.978,36.864.354,5.247.639,10.524,1.448,15.71,1.533,9.818-2.945,12.221-9.343,13.659a63.569,63.569,0,0,1-17.272,1.661c-12.63-.671-25.248-.669-37.9-.2-12.673.466-25.361-.553-38.019-1.376-11.409-.742-22.738-1.653-34.082,1.22-6.512,1.649-13.347.706-20.048.657-12.489-.09-24.979-1.191-37.467-.04-5.95.548-11.892,1.193-17.837,1.789a78.154,78.154,0,0,1-19-.57,133.446,133.446,0,0,0-33.038-.619c-6.538.68-13.067.189-19.592-.043-11.034-.392-22.063-1.377-33.091-1.331-7.221.03-14.468.782-21.718.985a179.366,179.366,0,0,1-20.64-.8,308.784,308.784,0,0,0-33-1.054c-11.058.217-22.041,2.246-33.14,1.289a99.818,99.818,0,0,1-11.863-1.418c-6.658-1.388-13.419-.76-20.094-.346-9.127.567-18.039-.493-26.99-1.963-6.439-1.058-12.949-1.7-19.438-2.426a14.279,14.279,0,0,0-3.789.307c-3.106.5-4.927-.143-5.936-2.736a14.22,14.22,0,0,1-1.3-7.314,121.745,121.745,0,0,0,.469-15.212c.029-18.834.634-37.679-.21-56.5-.632-14.11-.508-28.215-.275-42.308.391-23.7-.791-47.39-.3-71.087.362-17.418.564-34.841,1.1-52.254.743-24.3,1.06-48.615.556-72.914-.493-23.736-.447-47.468-.665-71.2a184.083,184.083,0,0,0-1.467-18.408C1.294,105.438.547,95.5.305,85.539-.112,68.358-.182,51.176.611,34,.862,28.572,2.154,23.252,1.888,17.75,1.8,15.968,3.26,14.085,4.111,12.3a2,2,0,0,1,2.253-1.2c6.218,1.653,12.54.273,18.787.439,7.4.2,14.814.888,22.286.222,10.66-.951,21.395-1.017,32.085-1.676,11.239-.693,22.514-.159,33.74-1.273,14.467-1.435,29.066-.643,43.5-2,13.611-1.279,27.222-.619,40.8-1.427,14.69-.874,29.4-.311,44.085-1.141,19.2-1.084,38.41-1.963,57.619-2.85a105.153,105.153,0,0,1,11.976.036c7.849.536,15.574-1,23.37-1.114,22.331-.31,44.661-.547,67,.066,9.251.254,18.517-.112,27.774.026,18.691.279,37.392.434,56.064,1.225,6.77.287,13.707.124,20.345,2.776,2.6,1.038,4.015,2.24,4.464,4.679a54.288,54.288,0,0,1,1.157,12.985c-.343,5.781-.864,11.574-1.746,17.294a64.431,64.431,0,0,0-.02,18.94A280.468,280.468,0,0,1,512.052,105.554ZM239.389,214.316c-.784-.4-1.391.045-1.914.5-.286.249-1.28.181-.651.989.077.1.632-.1.917-.257.616-.33,1.334-.566,1.56-1.354l.877-1.765c1.444.764,2.435-.3,3.434-.961,8.286-5.518,17.644-8.405,27.138-10.793a71.334,71.334,0,0,1,23.238-2c2.251.183,3.383-.425,3.519-2.78s.653-4.685.673-7.03c.075-8.91,1.744-17.633,2.946-26.409.885-6.467,3.573-12.528,4.373-19.041a96.8,96.8,0,0,1,2.244-12.844c6.367-24.176,11.563-48.678,19.85-72.326,1.174-3.348,1.735-6.345-.515-9.741-2.04-3.078-1.933-6.891-.986-10.551a70.406,70.406,0,0,1,7.23-17.554c.881-1.529,3.232-3.159,2.441-4.5-1.236-2.094-3.978-.775-6.006-.6-6.794.575-13.53,1.756-20.406,1.285a48.911,48.911,0,0,0-10.837.094c-.671.1-1.549-.159-1.828.746-.246.794.318,1.382.85,1.837,4.841,4.15,7.264,9.788,9.274,15.566a116.346,116.346,0,0,1,5.666,49.705,122.871,122.871,0,0,1-12.2,42.1c-3.39,7.021-6.893,14.017-10.846,20.73-4.7,7.982-10.4,15.264-18.37,20.332-6.616,4.21-13.606,7.759-21.58,8.368a7.492,7.492,0,0,0-6.516,4.011c-.91,1.566-1.952,3.06-2.8,4.659-1.867,3.538-1.832,3.557.979,6.468,5.574,5.771,6.17,9.526,2.56,16.6a12.624,12.624,0,0,1-3.476,4.806Zm152.542-23.271c.375.408.746,1.241,1.137.011,2.437,3.447,6.3,3.929,9.975,4.769,10.262,2.344,20.432,3.253,30.224-1.934a8.768,8.768,0,0,1,4.772-.791c1.04.073,2.266.1,2.82,1.257a2.95,2.95,0,0,1-.692,3.5c-2.776,2.89-5.621,5.727-9.684,6.745-2.628.659-5.285,1.21-7.944,1.73-1.21.237-1.936.583-1.776,2.074a36.99,36.99,0,0,0,4.36,14.346,248.023,248.023,0,0,1,12.2,24.213c1.5,3.584,1.544,3.67,4.9,1.84,6.414-3.5,13.053-6.315,20.369-7.267a18.57,18.57,0,0,0,2.146-.354c2.586-.655,2.978-1.326,1.881-3.851-2.095-4.821-4.311-9.589-6.473-14.381-4.408-9.774-7.467-20-10.2-30.339-2.78-10.53-4.064-21.34-5.977-32.03a166.053,166.053,0,0,1-2.183-34.53c.21-6.73,1.04-13.382,1.861-20.036.276-2.242-.317-3.012-2.434-3-2.716.014-5.438.067-8.146-.089-6.148-.354-4.916-.494-5.9,4.421a42.738,42.738,0,0,1-7.631,16.664c-5.984,8.315-14.837,7.434-21.191,1.721-4.337-3.9-6.735-8.939-8.47-14.359a53.018,53.018,0,0,1-1.371-5.266c-.467-2.231-1.485-3.378-4.03-3.384a91.236,91.236,0,0,0-10.846.581c-3.988.467-3.5.913-4.232,4.368-.561,2.645-.292,5.49-1.7,7.927-2.989,5.168-3.877,10.875-4.509,16.674-.576,5.278.51,6.267,5.609,5.006a11.859,11.859,0,0,0,4.388-2.1,17.706,17.706,0,0,1,2.672-1.862c2.391-1.194,3.736-.669,5.595,1.535,1.533,1.816.274,3.017-.678,4.279a9.528,9.528,0,0,1-2.29,2.287c-2.419,1.569-3.067,3.822-3.1,6.531a173.906,173.906,0,0,0,.359,17.4c.843,9.423,5.046,16.892,12.964,22.121A9.774,9.774,0,0,1,391.931,191.045ZM134.693,386.292c5.317-.821,11.774.409,18.247,1.2a20.48,20.48,0,0,1,5.226,1.414c4.216,1.73,5.94,4.683,5.665,9.312-.119,1.99-.287,3.977-.409,5.967-.1,1.665.919,2.33,2.364,2.25s2.858-.492,4.3-.648c4.295-.466,8.553-1.7,12.915-.078,1.866.7,3-.176,3.221-2.386a24.863,24.863,0,0,1,1.373-5.225c1.409-4.271,4.057-7.082,8.755-7.861,4.657-.773,9.266-1.745,14.026-1.7a57.727,57.727,0,0,0,11.4-.7c7.218-1.376,12.484,2.356,17.407,6.825a7.037,7.037,0,0,1,2.046,5.439,72.752,72.752,0,0,1-.551,13.015c-1.227,7.16-2.133,14.376-1.643,21.654a12.718,12.718,0,0,1-11.855,13.628c-2.433.178-2.932,1.109-3.071,3.3-.775,12.208-4.093,23.913-7.513,35.563-2.909,9.908-6.012,19.767-10.62,29.072-1.072,2.166-.586,2.81,1.986,2.918,3.809.161,7.623.234,11.435.34,5.577.154,6.776.332,4.912-5.739-1.623-5.288-1.272-10.761.076-16.126.213-.848.492-2.114,1.338-2.163.942-.055,1.255,1.12,1.379,2.049.1.719.089,1.46.255,2.161,1.088,4.593,2.249,9.142,4.852,13.2,4.885,7.622,5,7.7,13.961,6.743,1.749-.186,2.839-.423,1.678-2.554a38.822,38.822,0,0,1-4.994-22.457c.215-2.475.348-5.058.7-7.5,1.423-10.007,2.336-20.064,4.933-29.935,2.8-10.657,4.629-21.584,4.127-32.744-.481-10.677-4.433-20.283-10.344-28.779-4.716-6.778-9.1-14.013-15.631-19.43a10.684,10.684,0,0,1-2.4-2.946c-4.031-7.16-10.586-11.193-17.664-14.721a45.145,45.145,0,0,0-9.267-3.086c-5.577-1.41-10.8-4-16.758-4.22a96.573,96.573,0,0,1-17.221-2.017c-7.308-1.618-14.716-1.546-22.07-2.171-3.721-.316-7.548.832-11.342,1.122-10.764.822-20.924,3.993-30.929,7.787-4.9,1.859-9.757,3.833-14.67,5.66-4.085,1.519-8.043,3.178-11.453,6.027C63.442,375.61,53.2,382.391,43.8,390.324c-10.056,8.482-19.256,17.544-26.748,28.36a11.625,11.625,0,0,0-2.186,7.045c.037,22.112-.274,44.228.351,66.335.169,6-.011,11.963-.328,17.943-.258,4.866-.152,4.9,4.542,4.935,4.9.035,9.8-.045,14.649.887,3.026.581,6.115.827,9.142,1.4,2.415.459,3.866-.31,4.42-2.715,1.092-4.741,2.607-9.37,3.394-14.2.646-3.963.4-7.945.8-11.9.122-1.194-.159-2.9,1.5-3.055,1.528-.138,1.885,1.536,2.33,2.663a54.279,54.279,0,0,1,2.77,9.926,42.178,42.178,0,0,1-.17,17.3c-.315,1.4-.345,2.6,1.687,2.394a88.519,88.519,0,0,1,21.7.846c1.973.288,2.549-.616,3.04-2.165a22.28,22.28,0,0,0-.984-16.888,104.934,104.934,0,0,0-8.455-15.2c-8.348-12.04-8.321-35.024,5.868-47.772,6.861-6.164,13.823-12.28,20.061-19.181a21.831,21.831,0,0,0,5.434-9.654c1.238-4.9,2.524-9.837,5.082-14.281,2.523-4.384,6.127-7.081,11.4-7.061C126.541,386.3,129.988,386.292,134.693,386.292Zm114.572-75.414c12.651-.41,23.97,1.982,35.1,5.515,1.723.547,3.374,1.324,5.047,2.02,4.742,1.972,7.9,5.762,10.692,9.8a8.735,8.735,0,0,1,.87,8.839,27.138,27.138,0,0,0-1.774,7.895c-1.023,7.568-3.622,14.332-9.778,19.419-4.6,3.8-8.76,8.143-13.4,11.89-5.678,4.586-12.4,7.383-19.054,10.273-2.282.992-5-.022-7.026,1.768,1.259,2.186,2.453,4.412,3.8,6.544a32.29,32.29,0,0,1,2.473,5.438,4.186,4.186,0,0,0,4.632,2.893c3.822-.184,7.623-.321,11.283-1.515,7.076-2.307,14.171-4.566,21.182-7.058a95.935,95.935,0,0,0,26.3-14.017c2.6-1.981,5.1-4.11,7.852-5.852a30.208,30.208,0,0,0,9.389-9.7,75.532,75.532,0,0,0,8.073-18.345c3.257-10.579,2.549-21.494,3.429-32.278.126-1.538-.607-1.959-1.851-2.714-3.224-1.956-3.27-3.944-.616-6.5a6.909,6.909,0,0,1,1.682-1.365c6.058-2.866,7.541-7.765,7.783-14.2.346-9.232-5.322-11.949-11.752-12.454-3.415-.268-3.811.158-5,3.549-2.53,7.193-3.939,14.661-5.512,22.093-.788,3.723-1.782,7.4-2.68,11.1a4.564,4.564,0,0,1-3.834,3.443c-2.263.44-2.5-1.7-3.05-3.127a108.3,108.3,0,0,1-3.605-10.222c-1.865-6.824-3.807-13.657-5.087-20.6-1.343-7.287-3.584-14.387-3.838-21.937-.152-4.513-.326-9.015-.176-13.526.105-3.141-.842-5.235-3.971-6.819a63.89,63.89,0,0,0-17.032-5.375c-6.2-1.2-12.515-1.849-18.695-3.143a77.8,77.8,0,0,0-26.925-1.028,33.6,33.6,0,0,0-17.579,8.04c-5.441,4.861-10.169,10.844-12.615,18.128-.922,2.745-2.134,5.4-3.272,8.066-4.488,10.525-8.706,21.123-9.967,32.642-.394,3.6-1.074,7.158-1.573,10.743a245.212,245.212,0,0,0-2.455,29.249c-.075,4.015-.086,4.077,3.872,5.01a31.769,31.769,0,0,1,7.766,2.433c1.923,1.013,3.888,1.956,5.875,2.838,1.322.586,2.1-.031,2.165-1.409a14.284,14.284,0,0,0-.738-5.356c-1.606-4.723-1.676-9.614-1.355-14.537.212-3.25,1.277-6.063,4.08-7.92,5.914-3.919,11.969-7.489,19.256-8.306A102.261,102.261,0,0,1,249.265,310.878ZM243.491,168.4A45.218,45.218,0,0,0,250,167.9c6.964-1.535,13.326-4.709,19.7-7.759a14.9,14.9,0,0,0,3.675-3.17c1.409-1.41,2.559-3.11,4.085-4.363,2.006-1.646,2.3-2.969,1.077-5.509-3.208-6.656,1.9-15.666,9.173-16.272a3.538,3.538,0,0,0,3.53-2.52c4.163-9.666,6.68-19.941,10.96-29.568a24.992,24.992,0,0,0,1.185-4.744c2.376-10.693,1.021-21.249-1.334-31.729-.975-4.341-2.984-8.084-7.029-10.554a18.906,18.906,0,0,1-7-7.438c-1.377-2.607-3.81-4.238-6.608-5.408-5.449-2.278-11.217-2.879-16.971-3.588-10.6-1.306-20.745-.415-30.767,4.124a124.514,124.514,0,0,0-21.978,12.884,41.845,41.845,0,0,0-16.34,23.7c-.6,2.258-.571,3.712,1.3,5.2,1.457,1.16,1.924,3.015,2.318,4.787A2.32,2.32,0,0,1,198,88.345a1.954,1.954,0,0,1-2.508-.039c-1.024-.742-1.9-1.692-2.916-2.446-5.038-3.739-9.906-1.978-11.239,4.074a27.219,27.219,0,0,0-.749,4.819c-.173,4.836,1.795,6.647,6.554,6.264a51.9,51.9,0,0,1,5.423-.311c1.608.04,2.066,1.28,1.149,2.616A3.523,3.523,0,0,1,191.654,105c-2.807.552-3.839,2.3-3.808,5.012a6.163,6.163,0,0,1-.628,2.631c-1.689,3.53-.668,6.189,2.358,8.415a31.694,31.694,0,0,1,3.606,3.314,25.4,25.4,0,0,1,5.035,6.391c3.2,6.431.445,9.809-3.789,12.286a17.374,17.374,0,0,1-4.042,1.575c-1.551.44-3.529.2-4.661,1.1-1.766,1.392.868,3.194.308,4.936-.108.336.071.819-.111,1.068-2.533,3.472-.524,5.948,1.694,8.508a17.365,17.365,0,0,1,3.238,6.852c1.431,5.055,2.741,10.144,4.153,15.2.436,1.565.872,2.243,2.929,1.164,10.116-5.309,15.936-2.661,21.365,3.509.957,1.087,1.676,2.72,2.863,3.186,1.674.656,2.523-1.574,3.958-2.164.671-.275,1.347-.841,2-.81,3.645.17,4.853-2.179,5.853-5.1.753-2.2,3.043-4.489,2.638-6.286-.388-1.721-3.381-2.84-5.2-4.257-1.214-.943-3.481-1.556-2.464-3.575.807-1.6,2.813-1.164,4.423-.875a4.2,4.2,0,0,1,1.059.243A15.958,15.958,0,0,0,243.491,168.4ZM344.529,518.428c9.974-.778,19.948.749,29.905-.315,3.1-.331,6.474.279,9.257-1.82a40.67,40.67,0,0,0-5.781-7.074c-3.7-3.974-3.8-6.242-.707-10.548a46.788,46.788,0,0,1,12.044-11.513c4.059-2.758,7.365-3.123,11.5-.849a79.781,79.781,0,0,0,9.434,4.2c2.77,1.085,3.344.741,3.32-2.11-.033-3.974-.31-7.95-.588-11.917a207.2,207.2,0,0,0-2.407-22.634,12,12,0,0,0-5.425-8.349c-9.729-6.341-18.118-14.433-27.61-21.094-8.6-6.031-16.805-12.656-25.669-18.253q-11.028-6.964-21.919-14.132c-4.778-3.138-4.76-3.183-9.454-.017-1.052.71-2.016,1.55-3.075,2.248-4.223,2.779-8.152,6.026-13.08,7.649-12.883,4.244-25.647,8.876-38.827,12.142-2.429.6-2.767,1.417-2.27,3.7a44.947,44.947,0,0,1,.641,8.633c.2,9.7-1.787,19.117-3.85,28.45-2.422,10.955-5.147,21.841-7.082,32.9-1.412,8.07-2.579,16.1.468,24.119,2.783,7.324,2.691,7.34,10.527,6.6,2.52-.239,5.052-.351,7.579-.521.428-2.9-1.594-5.037-2.431-7.538-1.768-5.281-1.058-8.038,3.574-11.131,5.286-3.531,11.06-6.107,16.872-8.685,4.707-2.088,7.752-.863,10.894,2.705,4.425,5.023,8.327,10.5,13.411,14.97,3.618,3.18,3.436,3.385.359,7.366a8.643,8.643,0,0,0-.935,1.324c-.45.886.1,1.4.866,1.509a20.386,20.386,0,0,0,2.718-.01Q330.66,518.426,344.529,518.428ZM454.317,122.914a286.515,286.515,0,0,0,2.931,51.4c1.524,9.848,3.194,19.669,7.532,28.814a71.066,71.066,0,0,1,4.123,10.628c2.174,7.521,5.762,14.462,8.482,21.753.665,1.783,1.521,2.5,3.6,2.285,4.69-.48,9.415-.644,14.13-.852,4.035-.179,4.114-.167,4.5-4.312.15-1.622.147-3.26.176-4.892.145-7.937-.042-15.9.493-23.806.683-10.091-.169-20.116-.564-30.159q-.639-16.255-1.875-32.485c-.616-8.286-.728-16.569-.734-24.865-.007-9.132-.025-18.264-.126-27.395a211.718,211.718,0,0,0-2.241-30.235c-1.987-12.755-3.191-25.469-1.571-38.346.456-3.627.268-3.731-3.076-4.154-8.071-1.019-16.191-.391-24.286-.7-11.527-.444-23.066.981-34.612.109-1.977-.149-3.971-.105-5.957-.1-12.85.07-25.714.688-38.546-.291-11.506-.877-23.006-.34-34.51-.377-1.432-.005-2.923-.563-3.706,1.26-1.968,4.579-5.594,8.018-8.365,12.046-3.1,4.51-4.087,9.652-4.662,14.875-.326,2.962,1.413,4.4,4.358,3.955a20.047,20.047,0,0,0,5.207-1.512c6.432-2.9,13.106-5.275,19.267-8.785,2.882-1.643,4.392-1.018,5,2.15.474,2.476.571,5.024.828,7.542.369,3.624.58,3.952,4.335,3.955A42.893,42.893,0,0,0,396.7,44.2a59.139,59.139,0,0,1,9.607-5.067c2.407-.885,2.794-.653,3.192,1.765,1.046,6.346,1.434,6.69,7.559,6.236a19.98,19.98,0,0,0,6.868-1.573c2.809-1.274,5.635-2.509,8.453-3.761,1.96-.87,4.054-3.03,5.831-2.357,2.793,1.058.84,4.169,1.169,6.348.265,1.757.688,2.587,2.616,2.541a33.5,33.5,0,0,0,11.666-2.387c3.616-1.44,7.447-1.35,11.179-1.945a2.1,2.1,0,0,1,2.289,1.134A2.274,2.274,0,0,1,466.294,48a7.011,7.011,0,0,1-2.276,1.443c-3.093.994-3.911,3.35-4.16,6.243-.28,3.246-.327,6.5-.837,9.743A353.057,353.057,0,0,0,454.317,122.914ZM90.206,260.8c9.527.188,15.1-1.78,21.691-6.624,5.534-4.068,10.389-9.135,16.917-11.776a1.751,1.751,0,0,0,1.168-2.558,17.434,17.434,0,0,1-.8-2.013c-.223-.866-.54-1.943.268-2.544.852-.634,1.7.2,2.4.661a24.143,24.143,0,0,0,12.14,4.362c6.375.4,9.1-2.792,7.489-9.045-1.1-4.278-3.4-8-5.909-11.571-1.177-1.671-2.877-3.537-.816-5.182,1.841-1.468,3.751.216,5.284,1.521a11.815,11.815,0,0,1,1.775,2.049c3.226,4.4,6.265,8.908,7.224,14.44.2,1.137.5,2.061,1.767,2.429,3.565,1.038,6.406,3.422,9.383,5.438,7.211,4.886,14.039,10.254,18.116,18.284.738,1.453,1.406,2.941,2.12,4.4a1.176,1.176,0,0,0,1.252.81c.641-.121.653-.763.687-1.26a168.356,168.356,0,0,0,.2-22.77c-.269-4,.169-7.992-.336-11.941-1.355-10.583-2.923-21.14-4.269-31.725a171.58,171.58,0,0,0-4.186-23.5,55.129,55.129,0,0,0-3.718-10.2c-.686-1.378-1.446-1.886-2.858-.655a15.534,15.534,0,0,1-12.657,3.6,22.967,22.967,0,0,1-10.217-3.454c-1.887-1.292-2.912-.915-4.5.548-8.406,7.768-18.548,9.975-29.621,8.585a54.257,54.257,0,0,1-10.09-2.1c-5.992-1.962-12.237-3.409-17.3-7.612a22.415,22.415,0,0,0-5.191-2.935c-1.481-.666-2.827-.658-2.917,1.639-.222,5.689-2.021,11.033-3.74,16.392-3.172,9.889-8.835,18.225-15.954,25.647-2.617,2.729-3.967,2.616-6.586-.09-2.253-2.328-4.424-4.769-7.757-5.7-3.2-.9-3.743-.807-5.282,1.937a21.058,21.058,0,0,0-2.616,8.8c-.44,6,2.4,10.168,8.077,12.088a53.9,53.9,0,0,0,5.817,1.381c1.536.334,4.1-.3,4.321,1.352.312,2.32-2.439,2.7-4.153,3.435-4.4,1.882-4.853,2.485-3.443,7.082a26.36,26.36,0,0,0,2.886,6.419,79.089,79.089,0,0,0,11.687,14.3,23.4,23.4,0,0,0,12.405,6.4C84.113,260.188,87.917,260.515,90.206,260.8Zm92.021,79.04c3.109.282,3.481-.1,3.169-3.138-.186-1.8-.492-3.6-.535-5.408a129.661,129.661,0,0,1,6.458-44.957c.47-1.393,1.124-2.622.351-4.137-3.7-7.263-6.6-14.94-11.4-21.64a25.816,25.816,0,0,0-8.281-7.712c-4.1-2.325-8.2-4.669-12.116-7.284-2.186-1.461-3.672-1.647-5.523.483-3.669,4.221-8.308,4.791-13.372,2.887-1.354-.509-2.656-1.157-3.967-1.774a2.143,2.143,0,0,0-2.5.176c-4.536,3.614-9.609,6.712-13.553,10.88-12.595,13.308-27.931,14.97-44.5,10.972-8.078-1.949-13.7-7.888-18.719-14.265-.622-.791-1.013-2.335-2.268-1.9-1.134.4-.741,1.889-.733,2.881a31.668,31.668,0,0,0,.5,4.868c1.359,8.226,2.668,16.451,3.447,24.767a60.093,60.093,0,0,0,3.97,15.765c4.2,11.006,8.749,21.861,13.445,32.657,1.871,4.3,3.288,8.832,6.321,12.593,1.217,1.509,2.294,2.045,4.141,1.257,3.834-1.637,7.652-3.375,11.614-4.636,13.579-4.323,27.6-6.136,41.782-6.827a27.119,27.119,0,0,1,3.792.286C156.559,337.836,169.3,339.945,182.227,339.839Zm316.556-84.025c0-2.178.028-4.356-.006-6.533-.053-3.406-.474-4.148-3.525-3.939a52.814,52.814,0,0,1-9.188-.64,20.132,20.132,0,0,0-6.51.129q-9.742,2.187-19.45,4.536a30.275,30.275,0,0,0-8.122,3.073c-7.375,4.246-14.779,8.441-22.148,12.7a61.375,61.375,0,0,0-9.14,6.807c-8.681,7.446-16.779,15.344-23.419,24.771a106.063,106.063,0,0,0-8.885,14.258,89.1,89.1,0,0,0-5.96,17.453,163.448,163.448,0,0,0-4.708,26.193c-.514,5.861-.33,5.872,4.783,3.444a40.786,40.786,0,0,1,4.46-2,5.812,5.812,0,0,1,5.684.875c1.077.85,1.869,2.123.682,3.233-2.358,2.206-2.593,5.188-3.072,7.965-1.354,7.849-2.426,15.747-3.552,23.633-.317,2.226.276,2.763,2.29,2.017,3.061-1.132,6.041-2.538,9.28-3.068,4.023-.659,5.733.644,5.082,4.646-1.477,9.076-1.841,18.448-6.087,26.888-.788,1.567-.825,2.606.621,3.706,2.6,1.977,5.041,4.165,7.7,6.061,5.674,4.054,10.912,8.456,13.645,15.141.582,1.424,1.426,1.792,2.983,1.177a94.406,94.406,0,0,0,21.108-11.082c3.463-2.511,6.032-4.936,5.305-9.638-.324-2.1.681-4.186.6-6.419-.077-2.088,1.256-4.6.13-6.317-1.252-1.913-4.117-1.978-6.266-2.883-2.66-1.121-5.765-1.416-7.894-3.535-5.784-5.761-11.311-11.658-14.994-19.175-4.864-9.929-5.774-20.567-6.042-31.223-.2-8.063-.461-16.191.575-24.269,1.1-8.589.727-17.38,3.333-25.755a8.177,8.177,0,0,0-.465-6.665,15.119,15.119,0,0,1-1.8-9.989c.136-.7.243-1.5,1.115-1.663a1.554,1.554,0,0,1,1.72,1.021,37.591,37.591,0,0,0,5.956,9.069c4.953,5.773,10.989,9.373,18.927,8.91,1.808-.106,3.628,0,5.442-.028,2.624-.043,2.8-.3,1.621-2.866-.832-1.811-1.929-3.516-1.876-5.611a2.164,2.164,0,0,1,.944-1.847,1.511,1.511,0,0,1,1.975.309,27.836,27.836,0,0,1,3.424,3.5,18.386,18.386,0,0,0,4.968,4.138c7.24,4.663,15.53,4.536,23.609,5.372,1.422.148,2-.572,1.183-1.979a12.986,12.986,0,0,1-1.671-10.422c.241-.843.743-1.775,1.768-1.872a2.051,2.051,0,0,1,1.75,1.086c1.036,1.484,2.1,2.952,3.1,4.46,1.555,2.342,3.879,3.787,6.141,5.289.874.58,1.749.485,1.913-.8a21.372,21.372,0,0,0,.13-2.715C497.935,288.422,497.5,272.105,498.783,255.814ZM140.305,519.852l0,.352c3.629,0,7.259-.046,10.887.008,10.521.158,21.044,1.306,31.558.135,4.29-.477,9.334.5,12.673-1.922,3.7-2.676,5.257-7.732,7-12.1,6.124-15.386,10.761-31.024,9.987-47.962-.506-11.1,1.381-8.339-9.122-9.783-2.715-.373-2.844-.069-2.095,2.545,1.25,4.368,2.4,8.748,2.261,13.348-.146,4.885-2.979,8.385-7.862,8.688-6.123.38-12.32.246-18.237-1.674-2.32-.753-4.988-1.706-5.651-4.5-.378-1.593,2.585-2.324,7.119-1.645a41.209,41.209,0,0,0,11.939.1c2.435-.342,2.909-1.616,2.576-3.69a57.35,57.35,0,0,0-3.31-12.592,92.057,92.057,0,0,0-9.852-18.144,18.9,18.9,0,0,1-3.553-7.879,1.71,1.71,0,0,1,2.389-1.918,10.272,10.272,0,0,1,1.433.768c3.376,1.793,3.387,1.794,3.991-2.079.139-.895.146-1.811.268-2.71.277-2.039-.655-3.209-2.642-3.229a106.142,106.142,0,0,1-16.774-1.417c-2.014-.343-3.333.187-3.779,2.581-.764,4.094-1.987,8.1-2.828,12.183-1.023,4.97-1.757,10-2.787,14.968-1.233,5.942-5.459,9.6-10.967,9.278-8.319-.488-16.611-1.3-24.6-3.929a33.786,33.786,0,0,1-9.3-4.415,16.741,16.741,0,0,1-5.987-7.567c-.63-1.574.107-4.236-1.9-4.577-1.848-.314-2.584,2.233-3.894,3.426-.938.853-1.738,1.855-2.613,2.777-6.8,7.159-12.731,14.86-15.55,24.538a68.8,68.8,0,0,1-2.049,6.753c-1.661,4.081-1.038,7.7,1.33,11.336a149.926,149.926,0,0,1,11.255,19.87c2.611,5.758,4.113,11.6,3.057,17.9-.311,1.858.109,2.73,2.084,2.774,2.9.064,5.809.41,8.707.347C117.081,520.542,128.692,520.176,140.305,519.852ZM311.1,186.5a76.7,76.7,0,0,1-.8,14.009c-.4,2.585.464,4.011,2.81,5.072,9.162,4.146,15.9,11.3,22.534,18.538a36.561,36.561,0,0,1,8.075,15.217c2.152,7.668,4.544,15.269,6.7,22.935.478,1.7,1.1,1.447,2.156.693,7.079-5.041,15.1-8.692,21.606-14.581,1.066-.965,2.737-1.569,3.277-2.735.8-1.735-1.291-2.707-2.057-4.044-2.113-3.689-1.707-6.1,1.874-8.219a43.1,43.1,0,0,1,6.9-3.16c8.146-3.042,16.351-5.924,24.488-8.987,2.338-.879,5.769-.434,6.853-2.561,1.185-2.323-.87-5.167-1.353-7.818-.789-4.332-.944-4.184-5.273-5.081-7.677-1.591-15.319-3.529-21.118-9.244-3.865-3.809-7.359-8.008-10.856-12.169a28.837,28.837,0,0,1-5.907-13.277c-1.353-6.778-1.249-13.706-2.339-20.507-.557-3.474-.468-3.489-3.967-3.828-6.572-.638-9.673-4.694-8.512-11.206.286-1.6.791-3.164,1.105-4.761.523-2.659.493-2.665-2.293-2.4-7.684.723-11.337-1.323-14.311-8.467-2.436-5.852-4.412-11.806-4.136-18.36.153-3.619.531-7.228.611-10.823.17-7.611,3.133-14.129,7.3-20.123a7.832,7.832,0,0,0,1.351-6.059c-.141-1.078-.23-2.169-.468-3.227-.5-2.219,1.5-5.366-.8-6.488-1.715-.839-4.474.588-6.787.8-1.939.175-2.814,1.3-3.482,2.921a55.87,55.87,0,0,0-4.243,14.556c-.786,6.471-1.508,12.984-2.9,19.338q-3.134,14.333-6.3,28.659c-2.411,10.948-4.244,22.017-7.19,32.859C310.971,163.853,311.04,174.065,311.1,186.5ZM484.809,329.516c-1.989,0-3.982.075-5.965-.039a1.393,1.393,0,0,1-1.252-1.507,2.312,2.312,0,0,1,.762-1.382c.864-.767,2.012-.7,3.09-.839,4.713-.613,9.406-.921,13.967.843,2.143.829,2.388-.412,2.559-2.087a4.491,4.491,0,0,0-1.942-4.229c-1.573-1.218-3.265-2.282-4.908-3.41a3.154,3.154,0,0,0-3.047-.359c-6.538,2.172-13.34,1.5-19.93.883a41.836,41.836,0,0,0-13.409.371c-9.726,2.107-19.53,1.756-27.71-5.414-.406-.356-.908-.6-1.348-.92-1.089-.791-1.721-.806-2.339.689-1.841,4.452-2.173,9.146-2.247,13.824-.23,14.677.3,29.351,2.675,43.844,2.711,16.527,9.695,30.256,26.346,37.083,3.494,1.432,6.619,3.732,10.606,3.875a5.434,5.434,0,0,1,2.454,1.1c2.117,1.372,2.067,2.852-.071,4a6.8,6.8,0,0,1-3.651.9c-1.942-.109-2.338.966-2.444,2.712-.283,4.692-.4,9.414-1.508,14.023a7.235,7.235,0,0,0,2.357,7.406c6.314,5.63,11.018,12.47,15.459,19.57,2.66,4.253,5.464,4.94,9.507,2.192,5.084-3.456,10.359-6.641,14.976-10.8a10.036,10.036,0,0,0,3.575-7.965c.283-10.647-.731-21.249-.978-31.87-.36-15.526-.062-31.08-1.318-46.6-.786-9.711-.571-19.5-.725-29.262-.067-4.24-.587-4.813-4.9-5.71A42.067,42.067,0,0,0,484.809,329.516ZM43.759,181.737c0,1.633-.042,3.267.014,4.9.041,1.227.386,1.838,1.972,1.54,5.207-.977,9.716.236,12.962,4.779.989,1.384,1.743.636,2.377-.409.659-1.085,1.3-2.178,1.966-3.261,4.867-7.968,7.79-16.747,10.627-25.557,1.536-4.77,3.5-9.47,2.13-14.7-.5-1.892,1.094-2.943,2.3-4.016a2.4,2.4,0,0,1,3.455.273c3.306,3.322,7.772,4.554,11.66,6.817a65.364,65.364,0,0,0,26.171,8.292c8.953,1,16.4-1.811,23.587-6.367,1.825-1.157,3.644-2.362,3.983-4.866.2-1.508,1.341-2.091,2.824-1.735a29.733,29.733,0,0,1,4.692,1.3,65.432,65.432,0,0,0,13.1,3.535c2.266.446,4.8,1.256,6.391-1.337,1.392-2.27-.584-4-1.177-5.988-.6-2.02-4.22-3.063-2.619-5.3,1.152-1.609,4.077-.622,6.206-.827.9-.087,1.825.063,2.721-.041,3.423-.4,6.841-.843,10.258-1.3a4.171,4.171,0,0,0,3.748-2.731c.7-2-.333-3.491-1.667-4.823a11.046,11.046,0,0,0-1.277-1.015,114.1,114.1,0,0,0-30.632-16.162,169.384,169.384,0,0,0-30.039-7.127c-7.842-1.168-15.7-2.156-23.726-.579-9.539,1.875-18.592,4.875-26.81,10.022-8.064,5.049-14.2,12.373-21.121,18.765a6.958,6.958,0,0,0-1.2,1.8C48.706,149.976,44.057,165.247,43.759,181.737ZM11.161,58.926h.351c0,11.072-.021,22.143.038,33.214,0,.938-.66,2.449.784,2.741.971.2,1.058-1.24,1.546-1.944,5.675-8.181,12.035-15.5,22.459-17.618,1.8-.365,2.473-1.43,2.021-3.132-1.614-6.072.046-11.878,1.636-17.6a28.683,28.683,0,0,0,.888-12.808c-.371-2.137-.8-4.264-1.16-6.4-.117-.707-.081-1.549.658-1.872.817-.358,1.3.273,1.638.965,4.074,8.283,6.876,16.779,4.773,26.207a23.138,23.138,0,0,0-.148,8.668c.667,4.2,2.358,5.093,6.4,3.482,1.171-.467,2.241-1.186,3.374-1.757,3.214-1.622,6.089-3.872,9.522-5.092,2.532-.9,3.812-.5,4.125,2.216.193,1.666.6,1.652,1.811,1.454a39.533,39.533,0,0,1,16.166.516c3.13.778,6.474.714,9.727.967A7.115,7.115,0,0,0,104,68.44c2.371-2.737,4.818-5.41,7.307-8.039a2.286,2.286,0,0,0,.222-3.34,26.7,26.7,0,0,1-1.275-2.4c-4.92-8.645-5.283-17.493-1.194-26.54.449-.992.955-1.958,1.417-2.944,1.5-3.2,1.453-3.3-1.879-3.208-4.35.115-8.709.538-13.048.386-13.931-.487-27.821.426-41.729.787-6.3.164-12.581,1.184-18.906.49-6.67-.733-13.4.3-20.077-.658-3.469-.5-3.69-.135-3.684,3.281Q11.183,42.592,11.161,58.926ZM406.578,274.449c-.327-.539-.578-1.014-.885-1.447a85.305,85.305,0,0,0-14.622-15.967c-2.808-2.364-2.67-2.2-6-.793-7.673,3.235-14.648,7.958-22.644,10.488a11.476,11.476,0,0,0-4.641,2.744c-2.169,2.115-2.325,2.713-.505,4.986,1.352,1.689,3.229,2.977,4.03,5.085,3.118,8.208,3.923,16.328-2.008,23.668-2.166,2.681-2.494,5.412-2.252,8.59a119.468,119.468,0,0,1-2,34.055c-3.055,14.414-8.506,27.316-21.039,36.2-2.184,1.548-2.011,2.038.35,3.24,6.616,3.37,13.241,6.724,19.82,10.167a62.443,62.443,0,0,1,6.527,3.928c7.459,5.153,14.856,10.4,22.29,15.586a54.322,54.322,0,0,0,4.563,2.948c.877.49,1.917.335,1.913-.942-.016-5.191,1.811-9.945,3.335-14.777.215-.682.515-1.521-.231-1.97-.663-.4-1.338.155-1.962.489a53.284,53.284,0,0,1-5.306,2.766c-3.652,1.448-6.394-.089-7.376-3.912a8.075,8.075,0,0,1,.044-3.744c1.558-7.62,3.03-15.258,4.492-22.9.293-1.531,1.49-3.306.183-4.508-.428-.394-2.485,1.036-3.823,1.567-3.891,1.544-7.85-.383-7.383-4.125.5-4.03-.422-7.894-.147-11.868a146.591,146.591,0,0,1,7.313-36.648c2.305-6.861,4.766-13.86,9.245-19.6,5.678-7.279,10.617-15.175,17.333-21.628A18.731,18.731,0,0,0,406.578,274.449ZM125.484,96.128c3.23.077,3.571-.092,3.393-1.661a60.149,60.149,0,0,1,.063-17.226,2.55,2.55,0,0,0-1.25-2.821c-4.324-2.2-7.254-5.986-10.637-9.247-1.376-1.327-2.054-.867-2.683.608a37.153,37.153,0,0,1-5.992,9.671,12.193,12.193,0,0,1-9.443,4.7c-3.972,0-8.038-.007-11.82-1.311-6.091-2.1-12.462-2.14-18.719-2.987-3.2-.434-6.047.294-8.157,3.175A16.288,16.288,0,0,1,56.465,82.1c-3.156,2.289-6.557,3.052-10.029.874a7.964,7.964,0,0,0-5.757-.821,29.34,29.34,0,0,0-16.073,7.156c-5.009,4.479-8.129,10.136-11.557,15.663a4.09,4.09,0,0,0-.428,2.609c1,13.368,6.048,25.686,9.954,38.3.777,2.507,1.049,2.46,3.138.869,4.2-3.2,6.471-2.53,8.483,2.5a18.692,18.692,0,0,1,.683,2.065c.487,1.806,1.035,3.654,3.316,3.72s2.3-2.14,2.779-3.5c2.288-6.532,5.777-12.492,8.7-18.717a35.615,35.615,0,0,1,6.728-9.164c5.425-5.729,11.863-10.16,18.4-14.384A88.523,88.523,0,0,1,99.415,98.065C108.294,95.62,117.2,94.572,125.484,96.128ZM436.08,92.7c1.68,0,2.951.016,4.222,0,5.386-.076,5.4-.078,5.954-5.789a101.8,101.8,0,0,1,3.281-18.116c1.042-3.658,2.068-7.322,3.177-10.959.481-1.579-.325-2.072-1.575-1.856-2.5.432-4.949,1.112-7.434,1.622-6.028,1.238-8.624.234-11.694-5.114-1.05-1.831-1.991-1.8-3.374-.889a27,27,0,0,1-11.188,3.866c-7.786,1.177-9.708.352-13.413-6.664-.792-1.5-1.524-1.888-2.894-1.127-.789.438-1.462,1.079-2.24,1.541-9.377,5.566-19.437,8.814-30.422,8.852-4.194.015-6.331-1.376-7.785-5.3a40.763,40.763,0,0,1-1.261-5.264,1.146,1.146,0,0,0-1.56-.975c-4.16.98-6.506,4.07-6.538,8.578-.013,1.995-.041,3.989-.055,5.984-.012,1.564.338,2.713,2.173,3.216,6.13,1.681,9.56,6.365,12.1,11.714A45.9,45.9,0,0,1,369.9,92.778c.142,2.137.946,3.385,3.405,2.94a33.916,33.916,0,0,1,11.917-.21c1.515.264,1.953-.519,2.123-1.695.13-.894.113-1.809.172-2.714a49.366,49.366,0,0,1,7.746-24.017,8.227,8.227,0,0,1,5.518-4.051c8.33-1.581,15.341.963,21.511,6.472,4.691,4.189,5.836,9.828,6.518,15.673.27,2.319-1.2,5.108.437,6.869C431.088,94.026,434.064,92.125,436.08,92.7ZM13.863,288.1c0,.725-.051,1.454.012,2.173.089,1.011-.568,2.308.578,2.948,1.129.63,2.038-.4,2.892-.982a244.825,244.825,0,0,0,21.838-17c4.087-3.525,5.6-7.549,4.832-12.949-1.6-11.292-2.409-22.647-.085-33.97a4.439,4.439,0,0,0-1.548-4.8,16.431,16.431,0,0,1-4.582-6.007c-1.177-2.63-2.64-4.409-5.818-4.736-2.184-.224-3.771-2.02-5.194-3.718-3.622-4.323-7.112-8.7-8.253-14.456-.126-.638-.934-1.721-1.144-1.658a6,6,0,0,0-2.183,1.365c-.919.837-.572,2.016-.566,3.073.021,4.164.081,8.327.1,12.491C14.872,235.96,14.8,262.036,13.863,288.1ZM155.937,405.432c.367-1.318-.334-3.277-.375-5.257-.04-1.92-.766-2.858-2.827-3.19-4.634-.744-9.181-2.191-13.831-2.635-5.546-.529-11.053-1.814-16.75-.924-2.433.38-3.457,1.261-3.923,3.514-1.248,6.019-2.838,11.976-3.887,18.027a141.974,141.974,0,0,0-1.633,15.106c-.285,4.457.361,4.967,4.768,6.545,6.551,2.347,13.4,3.061,20.238,3.738,2.824.28,6.133,1.487,8.476-.174,2.124-1.5,2.058-4.885,3.1-7.384.347-.836.563-1.729.939-2.55C153.743,422.585,155.137,414.44,155.937,405.432ZM27.534,298.941c.262,1.278.509,2.705.85,4.109,2.093,8.627,4.289,17.23,6.276,25.881a65.965,65.965,0,0,0,3.209,10.936c3.445,8.176,7.383,16.159,9.466,24.853a5.507,5.507,0,0,0,.323,1.038c.477,1.029,1.283,1.311,2.159.6,4.71-3.8,10.4-5.876,15.523-8.95,3.187-1.914,3.178-1.975,1.819-5.51-4.619-12.012-9.39-23.968-13.837-36.044-3.129-8.5-6.023-17.1-6.8-26.237-.2-2.346-.381-4.7-.773-7.018-.159-.936-.992-1.614-1.989-.715q-7.469,6.734-14.885,13.529A3.736,3.736,0,0,0,27.534,298.941Zm227.881,20.837c-.714-.047-1.617-.11-2.52-.166a49.438,49.438,0,0,0-21.241,3.476c-2.815,1.1-4.563,2.736-4.265,6.057.194,2.157.046,4.346.026,6.52-.077,7.984,4.06,13.21,10.854,16.766a26.054,26.054,0,0,0,17.784,2.812c4.968-1,10.039-1.477,15.048-2.281,1.777-.286,3.657-.573,5.091-1.758a139.909,139.909,0,0,0,11.112-9.559c3.935-4.012,3.476-8.952-.581-12.984a24.2,24.2,0,0,0-7.781-4.869A52.509,52.509,0,0,0,255.415,319.778Zm-40.635,77.6a124.059,124.059,0,0,0-15.422.778c-4.07.453-4.669.942-5.64,5.227-1.357,5.992-2.462,12.045-3.965,18-1.3,5.152-1.114,9.519,2.555,14.036a10.8,10.8,0,0,0,8.061,4.371c7.444.775,14.828-.009,22.215-.648,6.622-.572,6.609-.668,7.163-7.326.06-.718.262-1.424.318-2.141.683-8.82,1.446-17.636,1.981-26.465.237-3.9-.54-4.66-4.565-5.254C223,397.3,218.5,396.864,214.78,397.38ZM14.813,361.712q0,16.874,0,33.747c0,.856-.317,2.018.876,2.2.494.075,1.273-.631,1.67-1.168a74.44,74.44,0,0,1,18.977-18.528,3.672,3.672,0,0,0,.381-.387c3.071-2.745,3.03-2.728,1.427-6.733a42.886,42.886,0,0,1-2.315-6.669c-1.286-5.891-3.738-11.347-5.852-16.939-1.537-4.064-3.273-8.151-4.042-12.387-1.684-9.276-3.535-18.5-5.748-27.664-.324-1.341.246-3.429-1.455-3.748-1.3-.245-2.316,1.472-3.43,2.361-1.669,1.331-1.554,3.19-1.5,4.987.108,3.792.546,7.587.44,11.37C13.874,335.344,14.024,348.528,14.813,361.712ZM417.311,226.4c-.459.183-.954.422-1.473.58-9.526,2.914-19.075,5.757-28.569,8.77-2.19.695-5.731.557-6.171,2.645-.519,2.458,2.846,3.709,4.607,5.423,7.644,7.447,16.468,13.7,22.813,22.466a15.669,15.669,0,0,0,1.9,1.937c1.237,1.2,2.447,1.381,3.729,0A59.5,59.5,0,0,1,429.6,256.32c1.21-.657,1.344-1.315.69-2.562a97.027,97.027,0,0,1-4.632-11.606c-1.761-4.752-3.915-9.36-5.941-14.011C419.289,227.156,418.791,226.1,417.311,226.4ZM398.4,88.481c-.273,6.933.2,13.758,2.566,20.361a41.383,41.383,0,0,0,5.276,10.085c2.843,3.984,5.369,4.031,8.029.034,3.843-5.775,6.713-11.959,6.3-19.213-.184-3.254-.126-6.528-.04-9.789.092-3.5-.837-6.813-1.666-10.144a7.662,7.662,0,0,0-2.447-4.155c-3.412-2.84-7.181-4.876-11.732-5.18-3.448-.23-4.085.173-5.064,3.436C398.191,78.688,398.66,83.621,398.4,88.481ZM200.149,235.72c0,1.928-.009,2.652,0,3.377q.139,9.759.285,19.518c.014.9-.1,2.064.883,2.345,1.165.331,1.281-1.018,1.573-1.7a68.686,68.686,0,0,1,6.554-12.456c5.064-7.288,10.695-14.139,16.368-20.944,3.634-4.361,3.759-4.22,1.4-9.034a6.783,6.783,0,0,0-2.709-3.269,6.41,6.41,0,0,1-3.322-3.46c-.845-2.773-1.9-1.734-3.179-.427-4.577,4.678-10.2,5.783-16.419,4.68-2.183-.387-2.49.806-2.249,2.508C200.281,223.518,199.846,230.236,200.149,235.72ZM401.228,516.153l0,.2c3.07.262,6.141.516,9.21.788,1.87.165,3.2-.227,3.172-2.526q-.08-5.971,0-11.944c.028-1.991-1.093-2.888-2.782-3.491a53.3,53.3,0,0,1-9.742-4.754c-6.873-4.172-7.307-4.041-12.5,2.019-6.691,7.8-6.724,8.49-.839,17.127a3,3,0,0,1,.287.461c.765,1.751,2.157,2.2,3.965,2.145C395.07,516.086,398.15,516.153,401.228,516.153ZM347.012,91.9a63.873,63.873,0,0,0,1.152,15.084,17.347,17.347,0,0,0,3.842,8.851c2.051,2.311,3.408,2.335,5.278-.006a22.825,22.825,0,0,0,4.124-8.16c1.709-6.029,1.727-12.147,1.16-18.267a32.091,32.091,0,0,0-5.526-15.155c-2.028-2.986-4.341-2.875-6.531.012A16.192,16.192,0,0,0,347,84.831C347.075,87.183,347.011,89.54,347.012,91.9ZM292.231,519.67c1.269.467,3.087.171,4.891.2,1.419.02,2.987.355,4.021-1.011,1.309-1.73,2.6-3.482,3.734-5.328.384-.626-.333-1.278-.816-1.81a99.62,99.62,0,0,1-9.585-12.476c-1.4-2.14-2.816-2.248-5-1.392a92.839,92.839,0,0,0-11.675,5.743c-2.749,1.552-3.426,3.145-1.83,5.759,6.364,10.423,1.641,9.589,15.2,10.317C291.349,519.678,291.531,519.67,292.231,519.67ZM37.81,196.761c-.149-.977-.319-1.69-.358-2.41-.487-9.022-1.5-18.049-.173-27.073.332-2.258-.023-3.687-2.412-4.6-2.755-1.05-2.788-1.207-3.353,1.814a14.793,14.793,0,0,0-.264,2.157A22.281,22.281,0,0,1,26.508,179.7c-1.1,1.432-1.951,3.049-2.96,4.551a2.984,2.984,0,0,0-.706,2.486c1.06,4.6,2.28,9.161,5,13.093,1.745,2.528,3.719,4.945,6.939,5.778C36.869,202.932,37.073,199.644,37.81,196.761ZM154.353,84.032c.115-1.048.212-1.586.222-2.125a10.833,10.833,0,0,0-.115-1.608c-.368-2.819-.5-2.971-3.312-2.493a34.336,34.336,0,0,1-11.283.484c-3.022-.483-3.039-.384-3.058,2.425-.033,5.037,1.089,10.069.031,15.113-.361,1.721.87,2.171,2.174,2.461q6.869,1.529,13.743,3.026c2.612.567,3.042.223,2.767-2.726C155.054,93.573,155.32,88.505,154.353,84.032Zm53.258,105.724a13.2,13.2,0,0,0-6.273.911c-1.031.331-2.2,1-2.222,2.166-.058,3.778-.215,7.71,2.166,10.922,2.777,3.748,7.664,3.994,12.014.618,2.215-1.718,5.049-3.408,4.191-6.968a10.217,10.217,0,0,0-6.539-7.448A7.924,7.924,0,0,0,207.611,189.756ZM14.379,164.342H14.5c0,4.154-.012,8.309.008,12.463.006,1.168.629,1.882,1.592.89,4.9-5.049,8.392-10.882,9.4-17.979.168-1.185-.023-2.233-1.679-1.761-2.54.725-4.1-.832-5.608-2.437-.862-.92-1.575-1.979-2.424-2.913-.343-.378-.906-.839-1.411-.427a1.872,1.872,0,0,0-.578,1.354C13.95,157.138,14.176,160.74,14.379,164.342Zm211.931,39.4c.069,2.122-.582,4.431,2.006,5.654,4.319,2.04,8.4.075,9.437-4.586a15.871,15.871,0,0,0,.409-3.2,5.894,5.894,0,0,0-5.51-6.125c-3.671-.457-4.986.517-5.9,4.539A34.253,34.253,0,0,0,226.31,203.744Zm61.358-68.477c-.123-.134-.222-.325-.375-.39a1.247,1.247,0,0,0-1.41.4c-2.4,2.25-3.045,5.275-3.631,8.312-.054.278.243.623.377.936.317-.15.8-.217.923-.464,1.387-2.742,2.721-5.51,4.058-8.276A1.6,1.6,0,0,0,287.668,135.267ZM173.42,19.546c-.958.343-2.789-1.29-2.81.979A3.59,3.59,0,0,0,172.6,23.9c.561.25,3.666-2.95,3.492-3.634C175.663,18.583,174.231,20.13,173.42,19.546ZM100.84,367.6c-.206-.633-.306-1.577-1.3-1.176a1.811,1.811,0,0,0-.756,1.315c-.62,5.66-2.952,10.788-4.84,16.064-3.046,8.516-8.706,15.034-15.791,20.309a115.734,115.734,0,0,0-11.025,8.824,38.411,38.411,0,0,1-6.5,4.915c-10.911,6.689-20.209,15.321-28.6,24.827a42.333,42.333,0,0,0-10.742,27.271,11.875,11.875,0,0,0,.794,5.872c.221.441.434,1.046.81,1.212.57.25.992-.325,1.261-.787,1.185-2.035,2.405-4.055,3.483-6.147,3.905-7.578,7.451-15.48,13.593-21.525A148.867,148.867,0,0,1,65.675,428.82,100.968,100.968,0,0,0,76.986,420.4c2.611-2.223,5.143-4.553,7.867-6.628,11.941-9.1,17.767-21.162,17.728-36.79C103.393,374.066,101.9,370.87,100.84,367.6Zm78,23.681a9.218,9.218,0,0,0,1.3-.987c4.492-3.389,7.394-7.984,9.459-13.074a10.837,10.837,0,0,0-1.093-9.933c-1.22-2.038-2.485-2.19-3.594-.175a182.484,182.484,0,0,1-10.415,15.923,6.572,6.572,0,0,0-1.388,4.413C173.117,391.43,175.5,392.953,178.838,391.28ZM146.8,360.446c-.643-2.1-2.879-2.569-4.059-.715-3.1,4.869-6.048,9.84-8.9,14.859a3.531,3.531,0,0,0,.643,4.508c1.506,1.358,3.007.448,4.44-.4,5.73-3.388,7.643-8.827,8.265-14.918A18.707,18.707,0,0,0,146.8,360.446Zm101.014-58.5c-1.8-.037-3.777.24-4.685-1.888s.034-3.9,1.36-5.49a9.372,9.372,0,0,1,5.538-3.183c2.459-.514,4.695-1.98,4.43-4.708-.454-4.676-1.463-9.3-2.309-13.932-.161-.884-.694-1.874-1.669-1.912-1.146-.045-1.3,1.083-1.388,1.963-.308,3.067-.686,6.136-.775,9.212-.058,2.01-.571,3.394-2.494,4.353-3.044,1.519-4.96,4.228-6.408,7.19-1.713,3.5-1.775,6.834.975,10.116,2.845,3.395,6.261,4.048,10.255,3.1,1.835-.436,3.878-1.428,3.673-3.379-.258-2.455-2.51-2-4.332-1.6-.177.039-.359.053-1.122.161C248.905,301.944,248.361,301.953,247.817,301.942Zm93.851-3.132c1.229.516,2.019-.361,2.814-1.1a9.805,9.805,0,0,0,3.121-5.592c.525-2.924-2.16-6.372-5.05-6.386-1.266-.007-2.554.979-1.94,1.9,1.972,2.951-.245,5.61-.078,9.032A2.1,2.1,0,0,0,341.668,298.81Zm-75.322-21.091c2.021,0,3.245-1.4,4.148-2.976a6.124,6.124,0,0,0-.86-6.506c-.844-.924-1.776-1.83-3.215-1.129-2.269,1.1-2.512,3.267-2.792,5.4-.024.177-.034.355-.05.533C263.623,275.371,264.931,277.719,266.346,277.719Zm-37.273-2.648c.216,1.522.9,2.812,2.5,3.133,1.663.335,2.618-.814,3.4-2.091a6.139,6.139,0,0,0,.666-5.18c-.552-1.727-1.622-3.563-3.585-3.543-2.25.024-2.572,2.1-2.751,3.952-.069.714-.121,1.429-.236,2.8A3.248,3.248,0,0,0,229.073,275.071Zm39.984-25.555a11.081,11.081,0,0,0-7.362-.293,2.52,2.52,0,0,0-1.178,3.965,5.745,5.745,0,0,0,4.118,2.285c2.273.228,5.786-2.108,5.914-3.861A2.672,2.672,0,0,0,269.057,249.516Zm-31.13,4.967c.035-1.849-3.276-3.751-6-3.449-2.31.255-4.022,1.955-3.709,3.8.383,2.26,2.132,2.647,3.656,2.744C235.088,257.639,237.9,256.108,237.927,254.483Zm88.418,103.644a3.492,3.492,0,0,0-3.615,2.629c-.29,1.922,1.3,4.732,2.693,4.771,1.415.041,4.222-2.3,4.34-3.613C329.871,360.7,327.735,358.33,326.345,358.127ZM310.936,348.09c.146,1.589.865,2.805,2.606,2.887,1.258.059,3.659-2.513,3.565-3.622s-2.361-2.828-3.64-2.759C311.84,344.683,310.757,346.14,310.936,348.09Zm-13.262,27.247c-.008,1.04.234,2.19,1.666,2.289,1.763.122,4.481-1.713,4.428-3.087a2.38,2.38,0,0,0-2.324-2.305C299.485,372.163,297.689,373.6,297.674,375.337Zm-13.018,15.3a2.557,2.557,0,0,0-2.783-2.009,2.647,2.647,0,0,0-2.543,2.878,2.16,2.16,0,0,0,2.2,2.282C283.379,393.655,285.063,391.929,284.656,390.638ZM210.552,125.8c-4.637-.15-6.375-3.709-8.3-6.955-1.776-3-.726-5.526,1.529-7.822,1.267-1.289,2.29-2.834,3.63-4.034,2.95-2.643,5.816-2.637,8.7-.02a21.978,21.978,0,0,1,3.212,3.671,7.581,7.581,0,0,1,.148,9.147C217.339,123.016,215.012,126.051,210.552,125.8Zm.789-6.079c1.717-.044,3.86-2.7,3.741-4.644-.1-1.628-2.846-4.115-4.41-3.994-2.042.157-4.115,1.933-4.159,3.566C206.458,116.652,209.426,119.77,211.341,119.722Zm49.834-17.465c0-.791.461-2-.835-2.123-.486-.046-1.234.687-1.557,1.242-3.042,5.224-4.171,10.709-1.983,16.564.695,1.861,1.429,3.708,2.217,5.531.735,1.7.536,2.656-1.588,2.886-3.31.359-6.5.236-9.519-1.331-.827-.429-1.8-.8-2.513-.048-1.024,1.079.182,1.934.605,2.821a4.935,4.935,0,0,0,1.018,1.251c3.2,3.212,10.7,4.622,14.818,2.8,2.552-1.131,3.428-3.071,2.424-6.125-1.93-5.874-3.369-11.812-3.306-18.058C261.037,105.862,261.168,104.06,261.175,102.257ZM237.066,59.591a14.275,14.275,0,0,0-7.457,6.823,1.622,1.622,0,0,0,.234,1.985c.484.5,1.012.3,1.5.13a23.161,23.161,0,0,1,13.286-.767c3.12.749,5.415-1.322,7.324-3.615a1.488,1.488,0,0,0,.067-1.99c-1.886-2.15-3.5-4.8-7.07-4.5C242.312,58.278,239.544,58.579,237.066,59.591Zm6.048,94.473c2.007-.319,5.108-3.32,5.213-5.046.079-1.274-2.077-3.458-4.284-3.57a14.868,14.868,0,0,1-11.6-6.076c-.863-1.109-2.052-.549-2.589.6a7.456,7.456,0,0,0-.438,2.156C229.348,147.9,237.745,154.916,243.114,154.064ZM275.019,95.83c4.054-.012,6.655-2.876,6.775-7.461.078-2.955-1.616-4.8-4.727-4.451-5.958.66-8.087,2-7.539,5.561Q269.4,95.848,275.019,95.83Zm14.563-27.084a4.217,4.217,0,0,0-2.447-3.9,16.265,16.265,0,0,0-10.915-2.016c-1.505.225-3.27.761-3.985,2.436-.432,1.013,1.718,3.76,3.394,4.457a11.644,11.644,0,0,0,2.595.707c2.664.429,5.339.792,9.19,1.352C288.638,71.9,289.5,71.082,289.582,68.746ZM241.866,81.037c-2.456-.073-5.205,2.421-5.517,5.006-.3,2.508,2.557,5.836,5.162,6.006,2.932.192,5.982-2.632,6.133-5.678C247.77,83.828,244.844,81.126,241.866,81.037ZM187.472,90.85a2.924,2.924,0,0,0-2.548,3.49c.226,1.431,1,2.367,2.572,2.1,1.663-.285,3.084-.981,3.5-2.735A3.532,3.532,0,0,0,187.472,90.85ZM327.534,463.78c-.211-1.038.833-2.081,1.639-3.3,5.254-7.927,12.852-13.1,20.853-17.774,2.628-1.533,4.5-.985,6.731,1.354a78.328,78.328,0,0,1,15.269,22.823,2.63,2.63,0,0,1-.345,2.968,18,18,0,0,1-5.335,5.235,96.961,96.961,0,0,0-19.629,15.2c-3.349,3.342-4.805,3.282-7.983.049-5.53-5.626-8.181-12.678-10-20.135C328.271,468.284,328,466.315,327.534,463.78Zm34.693.886c-.23-.741-.49-1.421-.653-2.123-1.1-4.766-4.149-8.371-7.054-12.1-1.017-1.305-1.611-1.359-2.992-.435-6.26,4.189-11.186,9.763-16.235,15.22a2.425,2.425,0,0,0-.532,2.515c1.2,3.974,1.988,8.1,4.887,11.385,1.253,1.421,1.991,2.177,3.86.605,5.546-4.664,11.045-9.425,17.487-12.895A2.091,2.091,0,0,0,362.227,464.666ZM314.3,430.726c.035,9.817-.781,10.9-9.431,13.578-6.2,1.92-12.622,3.116-18.454,6.212-2.565,1.362-3.849.8-5.6-1.391A6.693,6.693,0,0,1,279.2,444.6c.413-5.762.637-11.587,2.566-17.114,1.588-4.55,5.385-7.251,9.13-9.729a43.739,43.739,0,0,1,13.4-5.892c5.028-1.274,8.184.707,8.871,5.836C313.793,422.351,313.993,427.059,314.3,430.726Zm-27.16,2.652c0,1.637-.038,3.082.011,4.524.045,1.364.83,1.884,2.141,1.636,5.31-1,10.613-2.047,15.931-3,1.236-.222,1.811-.647,1.943-2.023.4-4.145-.252-8.23-.65-12.308-.259-2.642-1.3-3.061-3.691-1.966-3.765,1.721-7.437,3.646-11.175,5.431C288.292,427.268,285.845,429.345,287.136,433.378ZM485.905,99.1a170.014,170.014,0,0,0-4.55-25.021c-.268-.993-.392-2.479-1.767-2.256-.923.149-.574,1.5-.613,2.331-.507,10.862-.8,21.728-.629,32.606.113,7.245.236,14.5,0,21.739-.34,10.477-1.286,20.937-1.028,31.429a73.959,73.959,0,0,0,2.534,16.593,5.426,5.426,0,0,0,.84,1.363c.187-.212.473-.4.547-.642,1.615-5.369,3.857-10.67,4.081-16.288.609-15.19.826-30.4,1.218-46.4A82.042,82.042,0,0,0,485.905,99.1ZM118.956,199.713c-2.13-1.363-4.281-.317-6.134.625-2.814,1.43-2.909,4.373-2.877,7.052.04,3.341,2.933,7.08,5.345,7.354,2.583.294,5.666-2.5,6.627-6.057.233-.862.335-1.759.424-2.244A7.005,7.005,0,0,0,118.956,199.713Zm60.336.546a6.235,6.235,0,0,0-5.607-3.519c-1.961.142-3.471,1.919-3.911,4.561a9.983,9.983,0,0,0,.593,4.244c1.009,3.825,3.194,6.117,5.444,5.836,2.183-.272,4.414-4.113,4.325-7.445A30,30,0,0,0,179.292,200.259Zm-2.357-19.316c1.314-1.253,1.305-2.432.012-3.7-1.678-1.648-4.286-1.834-7.03-.3-1.458.814-2.854,1.9-2.162,3.849.59,1.666,1.777,2.743,3.863,2.274A6.927,6.927,0,0,0,176.935,180.943Zm-66.234,1.51c-2.312.362-3.616,2.014-3.259,4.028.322,1.824,1.666,2.627,4.1,2.385a9.061,9.061,0,0,0,2.085-.437c1.889-.661,4.084-1.506,3.875-3.8-.245-2.686-2.756-2.172-4.659-2.2A13.969,13.969,0,0,0,110.7,182.453Zm-56.38,27.164c.063-1.061-1.972-2.8-3.383-2.891s-2.991,1.421-3.206,3.061c-.211,1.617.97,3.714,2.184,3.875C51.548,213.879,54.214,211.432,54.321,209.617Zm98.233,55.665c9.949-.058,13.164,4.022,12,12.145-1.007,7.014-5.67,10.586-11.44,13.277a8.255,8.255,0,0,1-6.873-.344c-7.75-3.365-11.681-9.96-10.665-19.389a3.114,3.114,0,0,1,1.46-2.174,7.757,7.757,0,0,1,3.467-1.469C145.126,266.566,149.744,265.762,152.554,265.282Zm-3.145,8.753.007.1c-2.158,0-4.318-.048-6.474.024-.832.028-1.916-.323-2.436.587-.622,1.09.13,2.058.644,3a2.11,2.11,0,0,0,2.71,1.036c3.85-.928,7.766-2.063,10.949,1.653.148.173.7.115,1.01.016,1.082-.343,2.884-4.1,2.589-5.651-.372-1.958-1.974-1.069-3.076-1.067C153.357,273.732,151.383,273.923,149.409,274.035Zm12.678,226.017a52.06,52.06,0,0,0,11.028-4.548c.985-.549,1.842-1.3,1.626-2.563a2.605,2.605,0,0,0-2.771-2.141,21.975,21.975,0,0,0-4.835.533c-10.191,2.178-20.371,3.442-30.578.1a7.352,7.352,0,0,0-4.809.137c-2.4.834-2.914,2.712-1.115,4.563a15.51,15.51,0,0,0,3.045,2.276c4.277,2.626,9,3.766,15.852,3.935A86.33,86.33,0,0,0,162.087,500.052Zm173.1-351.3a1.028,1.028,0,0,0-.918-1.13,1.231,1.231,0,0,0-1.234.808c-.44.994-1.066,1.907-1.486,2.908a79.473,79.473,0,0,0-6.254,30.693,63.593,63.593,0,0,0,.592,6.406c2.494-1,3.03-3.468,3.771-5.543a90.9,90.9,0,0,0,5.549-27.159C335.2,153.109,335.232,150.93,335.184,148.753Zm19.828,43.457c-.007-.727-.172-1.552-1.061-1.575a1.8,1.8,0,0,0-1.23.864c-3.834,6.464-6.516,13.283-6.195,20.974a8.8,8.8,0,0,0,1.175,4.673c.539.815,1.307,1.492,2.23,1.118,1.8-.729,3.789-1.362,3.968-3.87.348-4.862.764-9.718,1.124-14.231C355.023,197.279,355.04,194.744,355.012,192.21ZM458.4,377.61c4.954,1.806,12.3-1.9,14-7.1.274-.837.554-1.782-.341-2.487a2.265,2.265,0,0,0-2.562-.146c-1.6.844-3.068,1.962-4.707,2.71-2.56,1.167-3.746.479-3.917-2.4a34.893,34.893,0,0,1,.365-6.5c.278-2.155.873-4.267,1.24-6.413a11.586,11.586,0,0,0-2.345-9.223,1.992,1.992,0,0,0-1.82-.993c-.9.119-.93.94-1.149,1.6-1.142,3.437-2.319,6.864-3.427,10.312a27.215,27.215,0,0,0-1.713,9.415C451.955,371.455,454.565,376.212,458.4,377.61ZM469.963,396.3c2.319-3.545,5.659-5.988,8.716-8.757a46.74,46.74,0,0,0,3.663-4c.449-.513,1.133-1.125.635-1.835-.485-.692-1.394-.439-2.007-.15-2.454,1.153-4.84,2.45-7.291,3.609-1.278.6-2.576,1.366-3.948-.054-1.473-1.525-3.727-2.815-5.256-1.176-1.832,1.963-4.117.847-5.859,1.937a3.49,3.49,0,0,0-1.142,1.777c-1.584,4.546,1.387,11.1,7.827,10.937A4.779,4.779,0,0,0,469.963,396.3Zm-35.375-67.75c-1.034.507-2.388,1.194-1.9,2.832a2.612,2.612,0,0,0,2.5,1.733,15.415,15.415,0,0,0,3.214-.013c3.927-.4,7.848-.863,11.77-1.311.689-.078,1.475-.053,1.766-.88.371-1.058-.335-1.664-1.051-2.226-2.364-1.859-5.164-1.149-7.7-1.331C440.2,327.483,437.251,327.242,434.588,328.547Zm-.186,19.844c2.387-.09,4.112-2.366,4.122-5.438.008-2.883-1.612-4.749-4.092-4.712-2.756.041-4.705,2.611-4.693,6.187C429.748,347.136,431.359,348.5,434.4,348.391Zm37.533-8.305c-.042,2.106,1.249,3.667,3.04,3.677,2.31.013,4.436-2.547,4.325-5.208a3.051,3.051,0,0,0-3.344-2.758A4.58,4.58,0,0,0,471.935,340.086Zm-69.422-164.5a23,23,0,0,0,7.411-6.267c4.6-6.307,4.435-4.527-.607-9.915-2.822-3.015-4.2-3.064-7.545-1.042-3.149,1.906-3.218,1.982-6.078-.593-1.55-1.395-3.037-1.931-4.859-.767-3.838,2.451-5.585,11.193-2.754,14.715,2.461,3.062,5.66,5.049,10.912,5.044A8.149,8.149,0,0,0,402.513,175.584ZM391.847,191.2l1.3-.051C392.711,191.08,392.261,190.666,391.847,191.2ZM17.2,44.5a3.5,3.5,0,0,0,2.775,3,3.544,3.544,0,0,0,3.721-1.721c1.908-2.64,2.7-5.5,1.282-8.65-1.2-2.674-3.907-4.51-5.825-3.969-1.975.558-2.733,2.356-2.5,5.944.012.18.057.357.126.773C16.891,41.257,16.913,42.9,17.2,44.5ZM68.1,27.22c-1.375-.759-2.725-1.128-3.94.17-1.829,1.954-1.6,4.289-1.052,6.642a4.265,4.265,0,0,0,.4,1c.96,1.824,2.133,3.439,4.494,3.244,2.029-.168,3.927-2.68,3.973-5.085C72.213,30.2,70.467,28.524,68.1,27.22ZM69.719,94.6c.646-1.065.057-1.636-.607-2.282-2.15-2.095-3.036-2.136-6.13-.02-4.3,2.944-8.424,6.446-14.246,4.1a1.79,1.79,0,0,0-.54-.013c-.706-.037-1.482-.167-1.858.63a1.854,1.854,0,0,0,.283,2.051c2.563,2.634,5.333,4.934,9.351,4.709C62.3,103.948,66.87,99.3,69.719,94.6ZM242,329.423a1.843,1.843,0,0,0-1.5,3.051c1.665,1.928,3.482,3.778,6.1,4.337a23.7,23.7,0,0,0,16.379-2,6.329,6.329,0,0,0,3.346-3.419,2.949,2.949,0,0,0-.65-3.015c-.64-.793-1.558-1.255-2.362-.669-4.071,2.973-8.763,1.465-13.17,1.686C247.433,329.39,244.712,329.3,242,329.423Z"/></g></g></svg>