<svg xmlns="http://www.w3.org/2000/svg" viewBox="0 0 200.799 186.652"><title>global-cdn-1</title><g id="Layer_2" data-name="Layer 2"><g id="Layer_1-2" data-name="Layer 1"><path d="M200.519,78.015c.545,10.679-2.126,19.7-5.353,28.592a99.169,99.169,0,0,1-26.089,38.862c-5.165,4.843-10.456,9.51-15.926,13.97a78.8,78.8,0,0,1-8.653,5.569,223.873,223.873,0,0,1-23.309,12.713c-5.612,2.6-11.7,3.821-17.591,5.611-7.825,2.379-15.963,2.875-24.1,3.289a56.687,56.687,0,0,1-8.138-.471,84.731,84.731,0,0,1-39.185-13.393c-9.355-6.106-15.97-14.689-21.453-24.206A78.887,78.887,0,0,1,.243,102.193c.8-10.856,3.2-21.125,8.221-30.656a299.926,299.926,0,0,1,19.1-30.909c2.018-2.914,4.931-5.287,7.7-7.586a82.807,82.807,0,0,1,15.81-10.436C56.1,20.091,60.4,16.391,65.552,14.02,75.39,9.489,85.194,4.79,95.846,2.61,103.98.946,112.3-.4,120.629.108a112.086,112.086,0,0,1,38.22,9.076,71.858,71.858,0,0,1,18.567,12.03A64.671,64.671,0,0,1,199.422,60.7C200.39,66.794,201.265,72.875,200.519,78.015ZM13.76,106.475c1,7.027,1.865,14.289,4.468,21.343,1.387,3.76,3.837,6.96,4.848,10.866.545,2.1,1.579,2.253,2.983.544a99.837,99.837,0,0,1,13.326-13.516c1.474-1.225,1.608-2.612,1.261-4.368a17.182,17.182,0,0,1,2.644-12.979c1.6-2.5,4.1-4.06,5.977-6.285,3.892-4.613,9.251-5.587,14.644-2.844,2.394,1.217,4.939,2.262,6.78,4.418.856,1,2.077,1.613,3.362.623,2.3-1.768,4.546-3.595,6.791-5.427a1.09,1.09,0,0,0,.013-1.823c-.394-.373-.817-.719-1.243-1.057C63.959,83.581,48.77,70.691,36,55.214c-1.081-1.311-1.89-.774-2.527.217-2.83,4.4-6.35,8.275-8.914,12.928A89.519,89.519,0,0,0,13.76,106.475ZM185.15,73.246c.355-1.924-.532-5.3-.891-8.712-.322-3.055-.434-3.242-3.22-2.293-6.992,2.382-14.166,4.254-20.759,7.774a124.819,124.819,0,0,1-11.146,5.655c-4.984,2.053-9.869,4.4-14.634,6.92-8.339,4.417-16.98,8.187-25.5,12.2-2.24,1.056-4.89,1.326-6.165,3.872,1.871,1.717,3.727,3.451,6.26,4.19a7.8,7.8,0,0,1,1.485.675c2.457,1.321,4.364,1.207,6.761-.83,6.408-5.447,20.649-5,25.044,2.4a11.007,11.007,0,0,0,2.309,2.286,8.012,8.012,0,0,1,2.619,5.8,40.061,40.061,0,0,1,.015,4.356,2.78,2.78,0,0,0,1.709,3.059c3.826,1.653,7.594,3.457,11.484,4.941,4.125,1.573,5.866.91,8.262-2.745.988-1.508,1.567-3.237,2.775-4.657,7.176-8.439,10.036-18.748,12.147-29.26C184.625,84.285,184.606,79.5,185.15,73.246Zm-50.3-55.373c-2.661-.98-3.957.943-5.316,2.243a141.425,141.425,0,0,0-14.371,16.291c-1.876,2.445-1.865,2.454.814,4.3,5.349,3.694,6.861,7.789,4.968,14.042-.731,2.417-2,4.674-2.689,7.1a12.808,12.808,0,0,1-8.737,8.958,8.311,8.311,0,0,0-6.185,6.647,41.413,41.413,0,0,1-2.52,6c-.272.645-.77,1.39-.166,2,.659.67,1.32-.084,1.858-.367,8.614-4.543,17.68-8.129,26.219-12.883,7.725-4.3,16.066-7.481,24.05-11.332a215.616,215.616,0,0,1,24.538-10.192c1.259-.425,2.485-.768,1.359-2.55a84.271,84.271,0,0,0-15.5-18c-4.422-3.928-10-5.755-15.1-8.451A35.086,35.086,0,0,0,134.854,17.873Zm-25.657-2c-9.614-.6-18.187,3.513-26.8,6.6C71.508,26.383,61.25,31.929,51.336,38.01c-2.217,1.36-3.91,3.225-5.851,4.848-1.222,1.021-1.155,2.14-.152,3.3.952,1.1,1.837,2.256,2.83,3.313,6.312,6.719,12.509,13.554,19.012,20.084,6.246,6.273,12.422,12.653,19.535,18,2.136,1.6,2.315,1.613,2.929-1.172A60.5,60.5,0,0,1,93.281,75c.947-2.154.851-3.563-1.236-5.047-3.868-2.75-5.724-6.829-6.932-11.352-2.258-8.448,2.327-14.2,8.362-19.1A7.212,7.212,0,0,1,97.6,38.245c1.268-.079,2.536-.307,3.8-.281,2.688.056,4.255-1.039,5.233-3.677A104.388,104.388,0,0,1,113.9,19.073c1.619-2.848,1.535-2.9-1.988-3.069ZM93.53,146.362c0,5.45-.074,11.984.024,18.515.071,4.716.284,4.841,4.519,3.55,9.691-2.954,19.305-5.992,28.331-10.828,8.987-4.816,17.154-10.754,25.171-16.918,4.559-3.505,4.242-4.456-.931-6.6a9.082,9.082,0,0,1-1.959-.935c-2.385-1.766-4.437-1.787-6.571.572-1.057,1.169-2.721,1.769-4.043,2.72-4.279,3.078-8.875,2.936-13.475,1.118-6.491-2.565-11.741-6.462-13.467-13.775-.667-2.825.881-6.354-1.058-8.411-2-2.118-5.294-3-8.006-4.458-.957-.514-1.868-1.115-2.8-1.679-.62-.375-1.214-.8-1.861-1.122-2.057-1.016-2.494-.839-2.829,1.366-.381,2.511-.714,5.036-.9,7.568C92.993,126.448,92.339,135.854,93.53,146.362Zm-12.175,2.4c.044-.715.169-1.622.144-2.526a165.624,165.624,0,0,1,.818-22.255,140.2,140.2,0,0,1,1.806-14.013,4.029,4.029,0,0,0-.3-1.489,6.886,6.886,0,0,0-1.459.485c-3.147,1.89-6.253,3.708-4.5,8.395.451,1.206-.3,2.832-.382,4.271-.741,13.556-13.466,21.549-25.871,16.224a10.608,10.608,0,0,1-2.4-1.24c-1.594-1.252-2.827-.814-4.3.337-4.446,3.477-8.047,7.838-12.295,11.515-.9.78-1.338,1.741-.325,2.784,2.008,2.065,3.813,4.406,6.087,6.122,11.6,8.756,24.644,13.383,39.292,13.121,3.547-.064,3.774-.41,3.713-4.214C81.286,160.509,81.355,154.733,81.355,148.766Zm-32.65-33.5A17.876,17.876,0,0,0,51.747,126.4c2.922,4.39,7.223,5.461,11.122,3.154a12.217,12.217,0,0,0,.817-20.663c-2.652-1.865-5.838-3-8.661-1.422C51.805,109.272,48.479,111.6,48.705,115.261ZM103.67,44.555A10.92,10.92,0,0,0,95,48.331c-2.736,2.935-3.449,8.625-1.458,11.627,2.006,3.023,6.527,4,10.783,2.265a14.613,14.613,0,0,0,8.453-8.662c1.863-4.918,1.123-6.372-3.816-8A16.308,16.308,0,0,0,103.67,44.555Zm25.853,65.475a10.07,10.07,0,0,0-10.376,10.241c.113,3.868,4.329,7.359,9.151,7.579,5.516.252,8.913-3.173,9.026-9.1C137.434,112.92,134.931,110.121,129.523,110.03Z"/></g></g></svg>