<svg xmlns="http://www.w3.org/2000/svg" viewBox="0 0 527.484 491.031"><title>growing</title><g id="Layer_2" data-name="Layer 2"><g id="Untitled_Artwork_12_Image" data-name="Untitled_Artwork 12 Image"><path d="M454.074,445.358c10.7.135,21.413.077,32.083,1.173,3.782.388,4.677,1.109,5.439,4.77a6.109,6.109,0,0,1,.222,2.158c-1.207,7.3-.618,14.837-3.176,21.972-1.009,2.815-2.561,4.181-5.534,4.167-3.257-.015-6.5.51-9.778.129-2.471-.287-4.411.226-5.748,2.9-1.818,3.64-5.34,5.251-9.253,6.021-7.7,1.514-14.421-1.214-17.987-7.84-1.18-2.194-2.578-2.61-4.716-2.622-7.973-.048-15.945-.285-23.917-.3-12.69-.02-25.38.068-38.069.138-22.874.126-45.749.419-68.623.353-13.066-.038-26.131-.947-39.2-.933-23.6.026-47.2.3-70.759,2.049-1.812.135-3.625.267-5.44.338a4.318,4.318,0,0,0-4.407,3.225c-1.938,5.491-6.4,8.057-11.828,7.967-5.595-.093-10.9-1.8-13.026-7.932-.792-2.278-2.444-2.491-4.294-2.42-7.106.274-14.135-.8-21.2-1.142-5.636-.275-6.606-1.171-6.861-6.854-.212-4.715-.069-9.445-.221-14.164-.081-2.487,1.082-3.639,3.385-4.069a161.818,161.818,0,0,1,18.37-2.251c8.516-.6,17.048-.993,25.573-1.473.907-.051,1.814-.1,2.722-.127.745-.023,1.611-.084,1.869-.811s-.369-1.338-.957-1.762a79.455,79.455,0,0,1-10.885-9.01c-11.673-12.053-16.527-26.612-15.848-43.176.118-2.884,1.3-5.613,1.547-8.535a5.148,5.148,0,0,1,3.649-4.391,35.97,35.97,0,0,1,4.683-1.407c1.585-.318,3.225-.358,4.841-.52-.791-1.76-2.63-2.235-4.06-3.114a42.607,42.607,0,0,1-16.128-18.028c-.72-1.468-1.5-2.906-2.258-4.355-.507-.97-1.018-.712-1.512.012-.2.3-.394.61-.589.916-7.223,11.326-14.328,22.73-21.716,33.947-4.186,6.356-8.765,12.459-13.321,18.562a20.353,20.353,0,0,1-4.716,4.493c-4.687,3.226-9.134,1.006-9.6-4.622-.485-5.869.612-11.607,1.729-17.288a118.462,118.462,0,0,1,8.119-24.775,64.048,64.048,0,0,1,6.428-10.728,16.333,16.333,0,0,1,8.777-6.18c4.329-1.331,8.573-2.964,13.071-3.755a26.03,26.03,0,0,0,6.267-1.774c4.387-2,9.082-2.513,13.733-3.177a36.976,36.976,0,0,1,18.77,1.755,139.039,139.039,0,0,1,13.461,5.852,22.724,22.724,0,0,1,9.777,9.226c.417.748.7,2.091,1.657,1.857,1.346-.331.785-1.8.822-2.78.191-5.083.512-10.143,1.153-15.2s2.889-8.438,8.012-9.725c2.458-.617,4.836-1.553,7.246-2.358a34.251,34.251,0,0,1,22.942.412c7.329,2.6,11.1,7.893,11.842,15.419a59.912,59.912,0,0,1-.5,16.3c-.068.387-.4,1.03.322,1.149.229.038.614-.376.8-.665,1.387-2.124,2.65-4.335,4.123-6.4,7.014-9.81,16.323-15.214,28.642-14.962,7.989.163,15.969-.7,23.97-.264,7.977.436,10.83,2.677,13.759,10.046,2.542,6.4,5.685,12.553,8.353,18.9,4.217,10.035,8.276,20.137,12.365,30.227,1.269,3.131,2.3,6.556-.815,9.024-3.054,2.418-6.282.941-9.014-1.084-4.078-3.021-8.15-6.079-11.965-9.418-4.214-3.689-8.575-7.19-12.294-11.49-5.42-6.268-9.038-13.57-13.084-20.648-1.5-2.615-1.8-2.783-3.723-.42a44.734,44.734,0,0,1-16.3,12.441c-.432.2-.992.677-1.024,1.064-.056.69.708.62,1.185.658,2.349.19,4.734.152,7.046.545,3.507.6,4.8,2.092,4.688,5.538-.082,2.516-.064,5.091-1.037,7.52-2.712,6.769-4.219,13.9-6.078,20.914-2.792,10.533-8.965,18.921-16.406,26.54-2.329,2.385-5.693,3.181-8.283,5.191-1,.778-2.084,1.459-3.069,2.26-.389.316-.917.891-.851,1.25.151.808.949.961,1.71.952,4.712-.056,9.424-.141,14.136-.163,7.769-.037,15.546.177,23.307-.091,15.777-.544,31.573-.54,47.33-1.678,13.366-.966,26.735-1.909,40.112-2.687,3.09-.18,3.807-.794,2.668-3.907-3.6-9.832-3.495-20.358-5.325-30.527a475.564,475.564,0,0,1-6.037-50.8c-.667-9.442-.764-18.86-.914-28.3-.165-10.372-2.3-20.565-3.711-30.818-.338-2.454-.827-2.605-3.313-1.457-6.094,2.815-12.114,5.794-18.245,8.523-8.709,3.875-8.506,4.516-16.145-2.569-9.65-8.95-16.612-20.136-24.8-30.306-3.211-3.988-3.63-8.57,1.479-12.871,3.222-2.712,5.885-5.9,8.792-8.872a9.489,9.489,0,0,0,2.908-5.137c.41-2.6-.481-3.862-3.059-3.985a14.393,14.393,0,0,0-8.261,2.33c-2.636,1.6-5.261,3.222-7.917,4.791a21.078,21.078,0,0,1-6.122,2.221c-2.34.536-4.016-.194-5.816-1.886-8.009-7.522-11.4-17.062-12.69-27.621-.575-4.685-1.153-9.37-1.806-14.044-.867-6.211-.188-12.326.964-18.425.643-3.407,2.3-5.44,6.131-5.583,4.406-.164,8.385-2.276,12.566-3.478.993-.285,2.227-.637,2.369-1.939a3.015,3.015,0,0,0-1.932-3.012,22.585,22.585,0,0,0-3.99-1.705c-4.007-1.17-7.729-3.216-11.886-3.9-1.8-.295-2.44-1.359-2.364-3.04a37.011,37.011,0,0,1,12.7-26.806c3.05-2.723,7.369-3.957,11.423-4.872,10.152-2.29,20.229-1.125,30.138,1.575,5.4,1.472,10.917,2.785,15.021,7.17,1.484,1.587,2.138.106,2.43-1.255a111.8,111.8,0,0,1,7.576-22.1A58.677,58.677,0,0,1,370.516,96.5c1.952-1.179,2.542-2.214,1.715-4.243-.266-.653-.119-1.469-.356-2.141-1.3-3.662-.165-6.236,3.119-8.28,2.918-1.816,2.818-2,.89-4.877-.707-1.057-1.456-2.087-2.216-3.106-2.676-3.586-2.681-3.582-6.586-1.187-3.125,1.916-4.62,1.18-4.953-2.413a22.59,22.59,0,0,1,.884-8.624,4.323,4.323,0,0,0-.972-4.483,85.7,85.7,0,0,1-6.884-9.79c-3.962-6.214-9.449-11.074-15.244-15.436A225.248,225.248,0,0,0,309.1,12.49c-8.5-4.464-17.7-5.16-26.942-5.6a19.216,19.216,0,0,0-10.369,2.937c-1.249.718-1.6,1.428-.2,2.307q2.074,1.3,4.185,2.552c10.059,5.978,17.236,14.3,20.882,25.536a27.616,27.616,0,0,1,1.241,10.228c-.675,11.413-3.574,22.167-9.832,31.869-.392.609-.782,1.222-1.223,1.8-1.047,1.363-2.218,1.7-3.708.557a28.842,28.842,0,0,1-5.782-5.743,49.14,49.14,0,0,0-7.56-7.811,9.2,9.2,0,0,0-4.228-2.376c-3.959-.762-6.747,1.425-6.982,5.484-.442,7.633,2.373,14.25,6.59,20.344,5.113,7.387,5.159,7.31-2,12.568a125.028,125.028,0,0,1-16.37,10.75,78.192,78.192,0,0,1-30.813,8.227c-3.575.255-4.048-.171-4.278-3.859-.113-1.818-.023-3.642-.808-5.34-1.466-3.172-3.75-3.785-6.585-1.839a7.056,7.056,0,0,0-2.989,4.4,26.246,26.246,0,0,0-.508,3.775c-.147,1.954-1.017,3.162-3.094,2.846-8.795-1.335-17.813-.755-26.493-2.984a175.565,175.565,0,0,1-18.8-5.516,33.939,33.939,0,0,1-7.655-4.049c-3.635-2.572-4.053-5.237-1-8.613a107.9,107.9,0,0,1,13.084-12.283c10.563-8.337,19.654-18.277,29.725-27.151,2.723-2.4,5.423-4.81,8.325-6.977,8.866-6.618,16.843-14.341,25.88-20.745,6.216-4.405,12.395-8.862,18.576-13.314,7.21-5.194,14.816-9.931,21.516-15.717,12.09-10.441,25.341-10.407,39.378-5.773,16.4,5.412,30.579,14.933,44.7,24.526a23.878,23.878,0,0,1,3.97,3.711c5.531,6.016,11.673,11.456,16.807,17.844,1.214,1.511,2.112,1.554,3.279-.183,4.31-6.419,10.052-11.439,16.254-15.922,1.667-1.205,2.528-2.413,2.27-4.462-.316-2.523-.52-5.06-.773-7.591-.419-4.176-.622-8.322.72-12.415,1.24-3.782,2.884-7.214,7.251-8.011a11.743,11.743,0,0,1,11.681,4.3,26.459,26.459,0,0,1,3.031,5.135c1.718,3.4,3.264,6.9,5,10.293,1.18,2.312,1.645,2.41,2.823.446,5.019-8.361,12.858-13.333,21.386-17.048,10.737-4.677,28.146-5.652,39.492,6.217,2.382,2.491,5.155,4.623,7.006,7.591,2.356,3.778,1.95,5.141-1.913,7.263a51.348,51.348,0,0,0-4.62,2.859A6.856,6.856,0,0,0,476,31.567c-.568,2.164.5,3.617,2.718,3.632s4.238-.885,6.31-1.568c7.378-2.43,8.412-1.99,11.306,5.426A87.448,87.448,0,0,1,501.4,82.968c-.546,4.126-.515,8.369-1.933,12.364-.788,2.22-1.483,4.489-2.469,6.62-1.976,4.272-2.051,4.3-7.013,3.9a20.479,20.479,0,0,0-6.484.516c-1.812.436-3.443,1.139-3.631,3.438-.207,2.528,1.358,3.68,3.358,4.291a26.158,26.158,0,0,0,5.34.924c1.837.16,2.722.994,2.352,2.8-2.044,9.967-4.177,19.915-9.9,28.6a41.4,41.4,0,0,1-3.277,4.34,9.14,9.14,0,0,1-8.26,3.3,57.744,57.744,0,0,1-22.236-6.752c-3.006-1.692-4.645-3.767-4.417-7.353a21.537,21.537,0,0,0-.646-7.574c-.576-1.926-1.451-2.36-3.164-1.491a12.749,12.749,0,0,0-4.387,4c-4.251,5.757-8.416,7.22-14.986,4.775A80.222,80.222,0,0,1,408.8,134.62c-2.806-1.555-3.94-.974-3.569,2.5.6,5.592,1.329,11.17,2.037,16.751.242,1.907,1.649,3.162,2.681,4.649,3.372,4.859,5.961,10,4.926,16.216-.44,2.646-.33,5.645-4.157,5.978-.807.07-1.16.816-1.169,1.6-.027,2.36,0,4.721-.03,7.081-.019,1.328.852,1.8,1.866,2.343,3.494,1.863,3.976,4.811,2.986,8.367-.971,3.492-1.552,7.1-2.648,10.549-3.527,11.086-.918,22.346-1.144,33.522-.007.306.15.807.36.891.6.238,1.038-.167,1.292-.674.732-1.46,1.447-2.929,2.13-4.413a72.83,72.83,0,0,1,21.126-27.335,37.639,37.639,0,0,1,14.695-6.8,13,13,0,0,1,8,.882,55.833,55.833,0,0,1,19.25,11.945c6.345,6.213,13.382,11.715,20.045,17.61a57.2,57.2,0,0,1,6.958,6.891c5.916,7.405,12.931,13.741,19.45,20.558.753.788,1.528,1.559,2.222,2.4,2.036,2.459,1.863,3.982-.843,5.79-2.432,1.624-5.083,3.051-8.019,3.224-8.663.51-17.366,1.729-25.961-.671-.874-.243-1.786-.373-2.635-.68-3.227-1.164-3.506-2.011-1.834-5.2.757-1.445,1.523-2.888,2.217-4.364.46-.978.97-2.026.039-3.03a2.991,2.991,0,0,0-3.516-.592,13.1,13.1,0,0,0-4.675,2.721c-.789.749-1.592,1.488-2.433,2.175-3.015,2.462-6.149,2.666-9.559.7a49.093,49.093,0,0,1-12.348-10.6,77.693,77.693,0,0,1-13.126-21.227c-2.077-4.968-3.065-10.07-1.679-15.427a5.5,5.5,0,0,0,.2-1.618c-.035-.705.027-1.682-.385-2.032-.533-.452-1.313.137-1.939.529a45.536,45.536,0,0,0-14.774,15.737A162.783,162.783,0,0,0,416,247.834c-3.525,7.8-3.572,16.215-3.059,24.611.109,1.778,1.408,1.972,2.748,1.744,6.258-1.066,12.546-2.011,18.741-3.374a47.282,47.282,0,0,1,10.8-1.153c3.318.041,4.638,1.039,5.581,4.072a11.659,11.659,0,0,1,.5,4.838c-2.183,19.29-5.073,38.464-8.858,57.512-1.905,9.585-3.237,19.282-5.063,28.884-1.321,6.947-3.1,13.805-4.545,20.728a208.293,208.293,0,0,0-3.805,24.208c-.3,3.424-.116,6.895-.1,10.344.023,6.915-.679,13.785-1.188,20.669-.261,3.537-.142,3.614,3.5,3.745C438.851,444.936,446.463,445.131,454.074,445.358Zm-293.51-31.351q-.088-.754-.332-.249l.435.149a7.605,7.605,0,0,0,.193,2.123c2.629,6.659,6.164,12.652,11.79,17.349,6.9,5.758,14.228,10.466,23.021,12.934,7.088,1.989,14.23,2.524,21.511,2.829,14.671.616,28.1-2.461,39.705-11.941a42.6,42.6,0,0,0,13.372-18.232c.912-2.428.37-4-1.558-5.686-3.949-3.445-8.225-3.445-12.739-1.7-4.572,1.766-9.1,3.635-13.616,5.551a16.741,16.741,0,0,1-7.438,1.248c-1.77-.076-3.815-1.7-5.174-.3-1.3,1.344-1.789,3.51-2.54,5.352-.478,1.174-.685,2.461-1.189,3.621-1.375,3.162-2.651,6.418-4.978,9.023a6.3,6.3,0,0,1-10.246-.654,32.48,32.48,0,0,1-4.352-8.737c-1.239-3.98-2.613-7.926-4.131-11.807-1.835-4.693-6.132-5.534-9.763-1.9a54.961,54.961,0,0,1-6.507,5.785c-5.33,3.872-10.848,5.562-19.137.177C164.609,417.466,163.271,414.87,160.564,414.007ZM273.032,200.138c-.032,8.964,2.079,17.628,3.594,26.379a78.282,78.282,0,0,0,6.216,20.211c1.446,3.062,2.382,3.4,5.575,2.149A28.316,28.316,0,0,0,294.96,245a19.861,19.861,0,0,1,9.942-4.141c6.483-.641,11.659,1.612,11.759,9.925a10.706,10.706,0,0,1-2.334,7.064,103.256,103.256,0,0,1-9.273,10.68c-1.04,1-2.062,2.029-.624,3.67,7.311,8.338,13.569,17.493,20.241,26.326a19.146,19.146,0,0,0,4.917,4.22,4.606,4.606,0,0,0,5.066.322,38.612,38.612,0,0,1,7.535-3.106c5.646-1.329,10.212-4.484,14.9-7.639,5.12-3.449,9.487-7.913,14.985-10.834,2.563-1.361,2.556-1.487.478-3.787-3.162-3.5-6.541-6.792-9.245-10.709a13.587,13.587,0,0,1-2.36-8.759c.293-5.286,4.091-8.148,9.341-7.17a22.12,22.12,0,0,1,2.6.778,26.663,26.663,0,0,1,12.124,7.97c1.254,1.423,2.4,1.348,3.294-.465,1.362-2.766,2.77-5.509,4.157-8.262a95.3,95.3,0,0,0,9.568-31.6,83.036,83.036,0,0,1,3.6-17.01c1.376-4,1.614-4.409-2.732-5.8-1.036-.331-2.024-.816-3.065-1.129a24.693,24.693,0,0,1-10.169-6.12c-2.6-2.534-3.98-5.777-2.918-9.405,1.014-3.467,4.126-4.318,7.3-4.728a18.212,18.212,0,0,1,3.8-.134c3.25.267,6.5.573,9.728,1.027,2.107.3,2.6-.765,2.472-2.481-.33-4.481-2.863-7.841-6.029-10.619a82.583,82.583,0,0,1-8.644-8.268c-6.994-8.2-23.335-11.051-33.223-5.863a60.548,60.548,0,0,0-12.937,8.976,7.463,7.463,0,0,0-2.72,3.963c-.814,4.09-1.9,8.145-2.423,12.272-1.849,14.574-3.493,29.173-5.262,43.758a6.371,6.371,0,0,0,.9,4.59c3.585,5.675,6.918,11.509,10.348,17.283a16.257,16.257,0,0,1,.839,1.4c.221.475.469,1.119-.2,1.368a1.911,1.911,0,0,1-1.482-.133,14.606,14.606,0,0,1-2.089-1.732c-2.672-2.458-5.32-4.942-8-7.387a2.2,2.2,0,0,0-1.322-.687c-.613.029-.639.718-.689,1.237-.069.723-.134,1.448-.171,2.173-.695,13.783-1.8,27.545-2.088,41.35-.037,1.759,1.151,4.873-1.348,4.951-1.639.051-1.487-3.284-1.513-5.262-.09-6.9-.124-13.8-.245-20.7-.31-17.8-.037-35.579,1.969-53.3.427-3.779.363-7.617.461-11.43.017-.644.195-1.558-.761-1.795-.85-.211-1.259.533-1.69,1.059q-6.206,7.588-12.379,15.2c-1.719,2.11-3.429,4.228-5.217,6.279a1.455,1.455,0,0,1-1.374.293,1.506,1.506,0,0,1-.39-1.409c1.472-2.705,2.971-5.4,4.612-8.009q8.129-12.9,16.379-25.73a10.142,10.142,0,0,0,1.854-4.991c.275-4.161.331-8.435,1.4-12.417,1.119-4.184-.642-6.54-3.58-8.675a22.448,22.448,0,0,0-3.747-2.212,43.978,43.978,0,0,0-18.442-4.136c-5.217-.01-10.512-.119-15.55,1.685-8.751,3.133-15.164,9.04-19.9,16.919-.856,1.426-1.393,2.456,1.073,2.877,3.561.609,6.861,2.2,10.422,3.025,6.615,1.527,9.474,11.9,4.986,17.02a7.321,7.321,0,0,1-3.751,2.109c-2.45.657-5,.966-7.411,1.738s-5.616-.309-7.156,1.714C271.911,194.352,273.1,197.452,273.032,200.138ZM496.57,72.632c.429-11.348-2.859-22.914-5.629-34.562-.274-1.152-1.01-1.314-2.027-.9a32.707,32.707,0,0,1-10.026,2.4c-4.616.348-7.653-2.869-7.132-7.434a11.362,11.362,0,0,1,5.09-8.627,50.16,50.16,0,0,1,5.239-2.875c1.508-.745,1.171-1.557.23-2.439-5.99-5.609-12.886-9.419-21.156-10.267a43.332,43.332,0,0,0-29.013,7.022,36.139,36.139,0,0,0-11.841,11.812,6.5,6.5,0,0,0-.469,6.621c5.534,12.23,10.992,24.5,16.268,36.841,3.413,7.987,7.321,15.343,16.337,18.271a15.55,15.55,0,0,1,3.322,1.853c2.447,1.546,5.3,2.445,7.362,4.593a6.162,6.162,0,0,1,.739,1.259c-.523.083-1.1.356-1.56.218-3.643-1.1-7.253-2.307-10.892-3.421-1.151-.352-2.511-1.538-3.5-.466-1.01,1.094.329,2.34.843,3.377,2.977,6.014,6.241,11.892,9.054,17.98,1.819,3.938,3.054,8.148,4.488,12.258.151.434.047,1.3-.24,1.477-.725.444-1.293-.161-1.725-.734a15.811,15.811,0,0,1-.885-1.368c-4.793-7.912-9.765-15.723-14.316-23.772-3.652-6.46-8.075-12.476-10.8-19.491-2.164-5.574-4.906-10.923-7.4-16.367-.443-.966-.673-2.5-1.8-2.485-1.319.02-1,1.686-1.165,2.566-1.015,5.34-1.831,10.717-2.75,16.075-.142.828,0,2.149-1.128,2.146-1.356,0-.8-1.36-.792-2.1.148-8.879,1.258-17.75.155-26.642a5.822,5.822,0,0,1,.245-2.156c.752-2.792.026-5.4-.925-7.975-.754-2.043-1.569-4.064-2.3-6.116-2.623-7.39-2.8-7.505-10.494-6.06a21.25,21.25,0,0,0-2.081.634c-13.491,4-23.456,12.668-31.485,23.858a67.363,67.363,0,0,0-3.624,6.075c-.334.587-.918,1.327-.418,1.954.61.766,1.312.07,1.9-.277a18.654,18.654,0,0,1,11.5-2.554c7.055.673,10.76,7.036,7.688,13.392a31.292,31.292,0,0,1-9.5,11.02c-2.884,2.221-2.825,2.207-.989,5.016,5.473,8.372,11.943,15.982,18.3,23.656A59.817,59.817,0,0,0,422.927,133.7c3.923,1.469,4,1.448,6.466-2.1,2.448-3.515,5.644-5.5,10.01-5.54,3.951-.039,5.75,1.164,6.4,5.095a34.434,34.434,0,0,1,.436,8.138c-.205,2.742.954,3.845,3.352,4.666,6.73,2.3,13.779,3.162,20.642,4.843,2.364.58,3.677-.408,4.6-2.592,2.972-7.019,6.127-13.96,9.1-20.978.766-1.809,2.032-3.721,1.518-5.689-.58-2.217-3.107-1.191-4.667-1.944-3.6-1.737-5.714-4.9-5.309-8.641.426-3.932,3.373-6.749,7.62-7.213a21.682,21.682,0,0,1,7.047.192c1.757.385,2.748-.3,3.082-2.082.232-1.245.66-2.452.917-3.694C495.7,88.67,496.086,81.054,496.57,72.632ZM292.346,48.825A39.088,39.088,0,0,0,281.73,27.456c-3.823-3.959-8.591-6.658-12.976-9.859-3-2.187-6.13-2.827-9.325.094-1.584,1.449-3.49,2.537-5.091,4.05A204.848,204.848,0,0,1,232.2,40.233a44.816,44.816,0,0,0-13.79,15.735c-4.323,7.976-8.946,15.79-13.478,23.652-.814,1.411-1.788,2.734-2.738,4.063a1.306,1.306,0,0,1-1.867.434,1.685,1.685,0,0,1-.5-1.414,11.963,11.963,0,0,1,.921-2.543c1.257-2.818,2.485-5.652,3.835-8.426,2.145-4.406,4.376-8.77,6.579-13.147.245-.487.607-1.078.043-1.4-.3-.172-.959.125-1.377.355a10.268,10.268,0,0,0-1.263,1.03c-18.085,14.279-36.025,28.729-52.748,44.618a28.684,28.684,0,0,0-2.913,3.231c-.615.8-.671,1.543.566,2.06,5.014,2.1,10.1,4.067,14.957,6.49,7.678,3.832,16.03,4.375,24.272,5.514,2.109.291,3.951.109,3.963-2.914.01-2.727,1.873-4.685,3.741-6.422,3.835-3.567,7.961-3.206,11.273.811a11.558,11.558,0,0,1,2.666,5.866c.3,2.174,1.56,3.129,3.791,2.731,1.425-.255,2.868-.405,4.3-.633,15.333-2.447,28.348-9.7,40.2-19.377,1.086-.887,1.255-1.668.207-2.613-3.319-2.992-5.035-7.082-7.313-10.773-2.77-4.487-3.391-9.6-2.99-14.686.564-7.172,6.884-10.643,13.428-7.68,1.151.521,2.195,1.273,3.308,1.882,4.685,2.561,8.28,6.471,12.3,9.865,2.111,1.785,2.815,1.683,4.1-.79C289.753,67.916,292.052,59.591,292.346,48.825ZM162.932,458.918c-1.679-.092-2.405-.146-3.131-.17q-10.625-.364-21.246.073c-2.285.095-3.3,1.046-3.2,3.326.106,2.359.11,4.723.173,7.084.1,3.864.152,3.982,3.8,4.527a139.122,139.122,0,0,0,15.727,1.335c16.394.573,32.635-1.592,48.9-2.853,15.014-1.165,30.023-2.03,45.06-2.273,13.587-.219,27.186,0,40.776.23,10.7.178,21.365-.531,32.044-.839,10.152-.293,20.281-1.176,30.459-1.057q19.05.222,38.105.009c18.166-.227,36.3.489,54.438,1.322,9.594.442,19.178,1.084,28.769,1.6a26.247,26.247,0,0,0,3.792-.1,1.687,1.687,0,0,0,1.751-1.7q-.027-6.54-.151-13.079c-.024-1.334-.894-1.9-2.122-1.979-.9-.057-1.814-.073-2.721-.06-19.749.284-39.5.507-59.247.888-13.228.256-26.463.337-39.668,1.372-9.215.722-18.438,1.436-27.671,1.8-18.148.721-36.306.451-54.46.051-9.065-.2-18.134-.64-27.195-.521-13.059.171-26.108-.076-39.16-.282-12.533-.2-25.093-.9-37.582.282C180.1,458.759,171.055,458.883,162.932,458.918Zm233.25-67.473c8.526-.528,15.586-1.054,22.656-1.376,5.851-.267,4.434.278,6.421-5.277a6.531,6.531,0,0,0,.242-1.061c2.54-14.262,5.118-28.519,7.594-42.793.836-4.818,1.435-9.677,2.09-14.525.092-.678.077-1.9-.214-2.006-1.042-.4-1.524.635-2.06,1.328-.554.719-1.022,1.5-1.585,2.216-3.279,4.139-5.771,8.8-8.751,13.134-2.9,4.222-6.026,4.05-8.946-.209-.409-.6-.705-1.271-1.09-1.887-5.749-9.223-12.517-17.824-16.952-27.848-.073-.164-.209-.3-.3-.456-.865-1.553-1.82-1.6-2.851-.166-.529.737-1.05,1.481-1.55,2.239-5.593,8.485-11.077,17.047-17.542,24.915a5.439,5.439,0,0,0-1.3,4.028c.182,2.353.312,4.714.6,7.054q2.5,19.977,5.075,39.946c.416,3.255.464,3.529,3.651,3.138C386.8,391.174,392.246,392.174,396.182,391.445ZM201.857,362.109c.2,8.171.709,16.317,1.1,24.475.7,14.635,5.669,28,10.646,41.437a17.282,17.282,0,0,0,1.58,2.859c.9,1.486,1.959,1.556,2.851.053a28.628,28.628,0,0,0,2.471-4.84c3-8.374,6.741-16.456,9.491-24.938,4.489-13.842,9.067-27.625,9.328-42.389.073-4.161.632-8.331-.362-12.457a11.075,11.075,0,0,0-7.049-8.245c-8.553-3.6-16.954-2.935-25.566-.6a4.932,4.932,0,0,0-4.027,4.5,69.464,69.464,0,0,0-.445,7.609C201.808,353.75,201.857,357.93,201.857,362.109Zm236-83.546c-5.235,1.545-11.267,1.187-17.217,1.669-12.291,1-24.378,3.75-36.723,4.231-5.783.225-10.309,2.685-14.182,6.962-1.543,1.7-2.11,3.142-1.631,5.276a99.869,99.869,0,0,1,1.973,15.63c.342,5.43.816,10.852,1.231,16.277.056.731.113,1.605.926,1.761.774.149,1.2-.632,1.592-1.226q3.469-5.211,6.931-10.426A111.635,111.635,0,0,1,390.4,305.56c2.519-2.812,5.028-2.564,7.117.584a58.03,58.03,0,0,1,4.019,7.1c3.718,7.806,9.319,14.229,14.944,20.634,1.8,2.052,2.483,2,4.106-.337a176.438,176.438,0,0,1,15.431-19.69,7.73,7.73,0,0,0,2-4.368c1.247-9.154,2.5-18.308,3.669-27.473C442.057,279.087,441.426,278.52,437.856,278.563Zm64.144-7.6c5.557-1.031,11.8-.325,17.861-1.638.819-.177,1.989,0,2.266-1.022.27-.99-.7-1.605-1.326-2.213-7.927-7.72-15.718-15.561-23.125-23.8a66.188,66.188,0,0,0-12.835-10.9c-1.173-.774-2.511-2.614-3.657-1.844-1.24.834.212,2.576.546,3.9.443,1.755,1.045,3.472,1.454,5.234.1.438-.274.987-.43,1.485-.445-.256-1.141-.407-1.3-.782-1.721-4.188-3.981-8.164-5.064-12.605a7.432,7.432,0,0,0-1.71-3.915c-6.381-6.279-13.413-11.1-22.912-10.745-3.044.114-3.971.841-4.06,3.707a18.934,18.934,0,0,0,.286,2.7c1.385,12.017,6.473,22.527,12.983,32.518,2.923,4.487,6.195,8.476,11.02,11,3.306,1.732,3.447,1.781,6.133-.754,1.844-1.74,3.536-3.577,5.987-4.6a7.094,7.094,0,0,1,7.627,1.145c2.215,1.749,2.617,4.076,1.958,6.856-1.223,5.155-1.11,5.2,3.95,5.947C498.909,270.827,500.187,270.837,502,270.965Zm-104.632-129.1c-.615-5.783-1.176-11.189-1.776-16.591-.157-1.421-.229-2.86-1.715-3.767-6.5-3.969-11-9.87-15.327-15.942-2.107-2.953-2.2-2.923-4.9-.775-6.473,5.149-10.768,12.173-15.823,18.534-3.558,4.476-5.257,9.877-7.087,15.183-.921,2.669-2.813,5.1-2.11,8.192,2.58-.8,4.733-2.481,7.161-3.559,7.65-3.4,15.356-6.209,24.083-4.381,5.378,1.126,10.492,2.6,15.177,5.51,1.72,1.07,2.247.729,2.317-1.15C397.386,142.579,397.368,142.035,397.368,141.868ZM195.059,406.847c4.557-.073,4.562-.074,3.752-3.63a65.912,65.912,0,0,1-1.987-11.789c-.094-2.217-1.163-2.674-3.105-2.665-5.261.024-10.532.072-15.783-.2a112.021,112.021,0,0,0-15.75.135c-4.563.4-5.573,1.442-5.946,6.066-.283,3.517.952,6.805,1.592,10.176a4.234,4.234,0,0,0,1.575,2.143,72.571,72.571,0,0,0,13.51,9.125c4.828,2.349,7.93,1.556,11.532-2.5.845-.951,1.759-1.851,2.508-2.872A9.2,9.2,0,0,1,195.059,406.847ZM155.918,346.61c-1.978-.208-4.452.5-6.893,1.114-3.042.767-3.845,2.513-2.374,5.256a66.357,66.357,0,0,0,8.078,12.219,22.8,22.8,0,0,0,8.53,6.608c6.034,2.427,12.107,4.771,18.235,6.947a26.842,26.842,0,0,0,10.71,1.475c1.349-.085,2.044-.628,1.3-2.059-.914-1.764-1.948-3.478-2.72-5.3A47.358,47.358,0,0,0,179.036,356.1,34.954,34.954,0,0,0,155.918,346.61Zm228.573,72.1c11.253-1.162,22.552-3.026,34.009-3.1,2.515-.015,3.118-1.474,3.033-3.452-.2-4.743.832-9.366,1.221-14.05.28-3.375.371-3.528-2.872-3.028-10.079,1.552-20.223,1.778-30.39,1.86a54.215,54.215,0,0,0-7.557.924,2.442,2.442,0,0,0-2.3,3.048c.688,5.4,1.345,10.8,2.046,16.2C381.894,418.724,382.842,419.269,384.491,418.71ZM251.64,386.927c-1.577,0-4.293-.035-7.007.008-3.6.059-3.579.091-4.69,3.733a164.465,164.465,0,0,1-5.857,16.315c-1.731,4.077-.835,5.5,3.612,6.019a7.977,7.977,0,0,0,5.566-1.768,41.344,41.344,0,0,1,9.606-4.993c5.765-2.084,11.352-2.207,16.193,2.388a23.712,23.712,0,0,0,2.072,1.752c.842.633,1.611.747,2-.514a118.79,118.79,0,0,0,4.171-19.059c.287-2.061-.867-3-2.877-2.962C267.193,387.985,260.039,386.263,251.64,386.927Zm50.318-41.922a47.35,47.35,0,0,0-5.565.314c-6.44,1.191-6.483.616-4.13,6.955.251.677.658,1.294.96,1.953,1.9,4.15,4.876,7.663,6.985,11.667,6.948,13.184,18.412,22.194,29.117,31.917a3.272,3.272,0,0,0,.925.412c.072-.343.273-.72.194-1.023-.318-1.227-.678-2.447-1.1-3.641q-5.824-16.4-11.676-32.8a49.9,49.9,0,0,0-7.158-12.777c-1.531-2.081-3.305-3.269-5.957-3A20.361,20.361,0,0,1,301.958,345.005Zm-53.016,34.788c13.156-.154,28.1-8.423,34.755-14.856,3.413-3.3,5.127-6.253,2.821-10.766-1.159-2.269.692-5.778-1.464-7.151-2.189-1.394-5.258.306-7.98.282-5.916-.051-10.862,2.577-15.273,6.211-7.378,6.077-11.309,14.482-15.029,22.98C245.415,379.6,245.694,379.934,248.942,379.793ZM421.6,430.226a64.553,64.553,0,0,1,.057-6.88c.221-2.229-.706-2.342-2.5-2.181-7.767.7-15.546,1.258-23.316,1.92-3.433.292-6.863.642-10.279,1.087-2.951.384-3.1.617-2.666,3.388.677,4.291,1.376,8.58,2.155,12.854.756,4.147.87,4.358,4.755,3.867a95.75,95.75,0,0,1,27.1-.037c2.941.464,3.628-.072,3.974-2.981C421.292,437.848,421.349,434.39,421.6,430.226ZM100.673,401.452a16.956,16.956,0,0,0-.157,2.172c.032.648-.236,1.613.813,1.675a1.928,1.928,0,0,0,1.3-.744c3.338-4.067,6.764-8.07,9.92-12.276,7.2-9.6,12.932-20.169,19.616-30.115,1.924-2.863,3.753-5.791,5.556-8.732.432-.7,1.221-1.6.482-2.4-.669-.725-1.707-.348-2.575-.081-4.506,1.389-8.975,2.911-13.521,4.155a14.325,14.325,0,0,0-8.834,6.762A92.875,92.875,0,0,0,100.673,401.452Zm303.163-141.2-.483,0c0-2.715.049-5.431-.014-8.145-.06-2.573.454-5.24-1.043-7.622-1.179,2.188-2.46,4.329-3.514,6.576a62.938,62.938,0,0,1-6.841,11.061c-2.963,3.937-5.475,4.2-9.646,1.422-3.009-2.007-5.916-4.179-9-6.052-1.814-1.1-4.208-2.563-5.969-.667-1.721,1.852-.241,4.385,1.009,5.931,4.087,5.051,7.346,10.77,12.287,15.155a3.828,3.828,0,0,0,3.295,1.274c5.717-.853,11.421-1.788,17.141-2.619,2.325-.338,2.846-1.743,2.806-3.823C403.78,268.577,403.836,264.413,403.836,260.25ZM398.957,7.073c-2.168.038-5.032,2.577-5.479,5.411a49.25,49.25,0,0,0-.418,13.51c.161,1.357.9,1.974,2.174,1.65a51.988,51.988,0,0,1,14.447-2.075c1.5.046,1.778-.973,1.276-2.191-2.075-5.037-5.134-9.538-7.857-14.218C402.226,7.657,400.539,7.255,398.957,7.073ZM396.31,180.391a21.88,21.88,0,0,0-2.7.188c-2.453.417-3.136,1.747-1.716,3.714a11.211,11.211,0,0,0,7.374,4.9c1.242.2,2.126-.323,2.047-1.729a33.638,33.638,0,0,0-.43-3.718C400.307,180.386,400.287,180.39,396.31,180.391Zm58.183,301.99a13.44,13.44,0,0,0,5.748-.987,1.979,1.979,0,0,0,1.023-1.1c.215-.725-.508-.858-.994-.885-4.486-.248-8.973-.473-13.462-.651-.487-.02-1.18.228-1.09.888a1.8,1.8,0,0,0,.82,1.214C449.2,482.147,452.169,481.8,454.493,482.381Zm-282.477-1.552c-1.237.191-3.633-.9-5.259.911-.793.885,2.951,2.305,6.544,2.1a4.31,4.31,0,0,0,1.079-.088c1.468-.479,3.757-.528,3.456-2.548-.184-1.242-2.191-.238-3.369-.363C173.931,480.782,173.383,480.829,172.016,480.829ZM384.03,71.639a4.3,4.3,0,0,0-.371-1.31c-.477-.756-1.181-1.5-2.121-.818-.779.565-.036,1.228.287,1.758a3.4,3.4,0,0,0,1.052,1.126C383.422,72.727,383.8,72.38,384.03,71.639ZM134.267,238.157c4.519-.6,8.547-2.746,12.81-4.145,5.517-1.809,11.038-3.665,16.391-5.9,9.186-3.833,18.4-3.362,27.739-.915,4.912,1.287,9.843,2.5,14.748,3.807,5.6,1.5,6.656,4.758,3.295,9.674-3.5,5.12-7.943,9.449-11.79,14.276-5.435,6.818-11.074,13.47-16.091,20.624-2.622,3.739-4.594,3.5-6.714-.557-1.874-3.585-2.555-7.531-3.094-11.5-.489-3.6-.96-7.2-1.6-10.773-.5-2.778-.869-2.911-3.678-1.876a20.8,20.8,0,0,0-3.473,1.529c-9.543,5.686-19.758,9.976-29.9,14.419a167.939,167.939,0,0,0-27.129,15.015c-5.854,3.983-12,7.567-15.634,14.013a6.615,6.615,0,0,1-1.071,1.232c-3.608,3.76-5.82,4.107-9.825.715-5.672-4.8-11.214-9.78-16.558-14.946-5.083-4.915-9.715-10.3-14.77-15.244-7.655-7.492-14.649-15.584-21.908-23.438-4.1-4.44-6.192-10.249-10.443-14.564-1.185-1.2-.4-2.794.291-4.078a43.783,43.783,0,0,1,7.606-9.9c1.629-1.652,4.9-3.36,4.339-5.146-.839-2.663-4.435-1.439-6.779-1.616-13.1-.99-18.965-9.941-20.545-21-2.248-15.737,3.4-28.811,14.4-39.938,5.4-5.461,11.5-9.273,19.186-10.584,9.818-1.676,16.9,2.665,22.565,9.983a23.91,23.91,0,0,1,4.975,11.935,24.679,24.679,0,0,0,.778,3.727c1.472,5.278,2.3,5.535,6.08,1.829q14.571-14.28,29.109-28.593c5.273-5.16,8.074-7.076,17.454-1.75,6.039,3.428,11.025,8.265,16.013,13.036,9.846,9.419,19.591,18.943,27.582,30.06,2.535,3.527,4.988,7.123,6.391,11.32a11,11,0,0,1-.823,9.428c-3.683,6.459-7.2,12.921-12.513,18.378-5.557,5.711-10.389,12.132-15.488,18.284-.785.948-1.783,1.858-1.8,3.265l-.03.2ZM110.3,269.611c3.046.2,5.563-1.448,8.143-2.591,15.583-6.907,31.1-13.97,46.629-20.989,1.323-.6,2.607-1.282,3.927-1.885,1.991-.909,3.645-.407,4.54,1.558,1.575,3.457,3.378,6.908,3.351,10.827-.021,2.941.679,5.76,1.009,8.639.095.82-.135,1.979,1.11,2.131.778.1,1.22-.633,1.655-1.209,2.838-3.765,5.665-7.538,8.522-11.289a149.956,149.956,0,0,1,14.289-16.4c1-.982,1.751-1.979-.486-2.6q-12.065-3.328-24.075-6.854a5.754,5.754,0,0,0-4.656.377c-9.988,5.188-20.488,9.264-30.695,13.975-5.593,2.582-11.063,5.464-16.422,8.5-4.728,2.684-8.985,5.966-11.791,10.886a70.623,70.623,0,0,1-5.167,7.008l-.011.265Zm45.777-70.569c.395-.909-.261-1.046-.724-1.195-5.821-1.877-10.439-5.725-15.346-9.154-5.2-3.634-10.688-6.846-15.966-10.37A41.364,41.364,0,0,1,109.6,161.671a122.975,122.975,0,0,1-5.658-14.714c-.935-2.766-1.322-2.895-3.514-.908-3.486,3.161-6.841,6.471-10.4,9.546-7.965,6.881-15.525,14.211-22.79,21.789-9.035,9.425-17.547,19.356-26.2,29.145-3.955,4.476-7.669,9.164-11.559,13.7-1.529,1.784-3.208,3.446-4.878,5.1-1.151,1.142-.952,2.026.054,3.21,5.274,6.21,10.467,12.47,15.992,18.482,13.04,14.191,27.252,27.158,41.109,40.5,2.613,2.516,2.8,2.5,4.966-.357,5.7-7.518,11.777-14.726,18.042-21.77,1.613-1.813.972-2.66-.673-3.777q-7.878-5.349-15.642-10.868c-8.12-5.794-16.307-11.5-23.909-17.988-8.383-7.153-6.823-7.988-2.183-15.733,7.383-12.324,17.169-22.921,24.86-35.023,2.432-3.826,6.457-4.595,10.423-2.38a60.329,60.329,0,0,1,5.89,3.807c3.162,2.285,5.255,5.5,8.13,8,9.177,7.976,18.78,15.489,27.011,24.508,1.078,1.181,1.908,1.3,3.036-.035,4.443-5.261,8.973-10.446,13.464-15.666C155.529,199.832,155.826,199.374,156.073,199.042Zm-22.111,26.29a1.339,1.339,0,0,0-.4-1.7,35.264,35.264,0,0,0-2.931-2.425c-13.034-9.227-25.222-19.42-35.807-31.431-1.324-1.5-2.1-1.417-3.317.16-2.984,3.875-6.221,7.554-9.227,11.412-5.678,7.288-11.428,14.527-15.954,22.64-.866,1.553-.967,2.479.574,3.591,4.408,3.178,8.692,6.528,13.092,9.718,8.938,6.479,17.019,14.136,26.8,19.458,3.222,1.753,3.171,1.832,5.29-.706,7.918-9.485,14.131-20.192,21.521-30.055A3.242,3.242,0,0,0,133.962,225.332ZM56.021,174.52a38.324,38.324,0,0,0-2.8-15.867c-2.944-6.785-7.619-11.885-14.86-14.078a11.248,11.248,0,0,0-9.009.616,49.9,49.9,0,0,0-8.2,5.308c-8.193,7.1-12.445,16.434-14.529,26.726-2.64,13.036,5.038,23.546,18.2,25.02,5.385.6,10.634.071,14.56-5.027a170.918,170.918,0,0,1,13.434-14.956C55.169,179.855,56.4,177.349,56.021,174.52ZM109.2,138.967c-1.283.318-1.049,1.276-.714,2.091,2.217,5.4,5.356,10.268,8.5,15.164a113,113,0,0,0,29.286,30.393,48.072,48.072,0,0,0,11.182,5.564,2.336,2.336,0,0,0,2.581-.119c.79-.789.165-1.744-.271-2.438-2.027-3.222-3.97-6.52-6.27-9.542-7.5-9.849-16.423-18.416-25.069-27.213A79.977,79.977,0,0,0,113.18,140.6C111.953,139.846,110.8,138.892,109.2,138.967ZM226.8,270.488a31.007,31.007,0,0,0,2,5.012,6.445,6.445,0,0,0,9.7,2.076c2.1-1.568,2.45-3.812.561-5.514a18.5,18.5,0,0,0-9.87-4.553C226.681,267.434,226.075,268.231,226.8,270.488Zm-30.889,10.828c-.486,2.213.518,4.262.787,6.391a4.122,4.122,0,0,0,4,3.743c2.282.256,3.73-1.026,4.679-2.954,2.186-4.439-1.425-9.319-7-9.482C196.75,278.909,196.205,280,195.915,281.316Zm32.97,19.97c2.694-.919,3.127-2.865,1.014-4.891a12.929,12.929,0,0,0-3.51-2.511c-1.874-.842-3.755-3.42-5.779-1.8s.121,4.032.543,5.994c.67,3.118,1.886,3.732,5.527,3.641A13.273,13.273,0,0,0,228.885,301.286Zm161.928,33.12a5.472,5.472,0,0,0-2.927,6.232c.619,2.258,2.192,3.43,4.289,3.2,2.252-.252,3.674-2.027,3.986-5a10.394,10.394,0,0,0,0-1.074C396.165,333.634,394.593,332.651,390.813,334.406Zm25.22-20.615a4.629,4.629,0,0,0,5.472-1.006,8.961,8.961,0,0,0,2.9-6.768,4.138,4.138,0,0,0-6.016-3.935c-2.937,1.251-4.284,3.716-4.808,6.606C413.487,310.928,413.9,312.8,416.033,313.791Zm-369.7-145.3a24.523,24.523,0,0,1-10.578,18.642,10.235,10.235,0,0,1-13.052-.621c-3.573-3.29-5.068-9.8-2.885-14a52.2,52.2,0,0,1,9.165-12.038c3.227-3.321,7.59-4,12.046-1.863C45.2,160.613,46.343,164.2,46.334,168.493Zm-15.916,14.4a8.038,8.038,0,0,0,4.106-1.13,17.186,17.186,0,0,0,7.635-11.376c.945-5.123-2.834-8.374-7.874-6.831a11.643,11.643,0,0,0-5.3,3.63c-2.089,2.374-2.927,5.335-4.075,8.184C23.248,179.486,25.7,182.879,30.418,182.891Z"/></g></g></svg>