<?xml version="1.0" encoding="UTF-8"?>
<svg width="979px" height="414px" viewBox="0 0 979 414" version="1.1" xmlns="http://www.w3.org/2000/svg" xmlns:xlink="http://www.w3.org/1999/xlink">
    <!-- Generator: Sketch 62 (91390) - https://sketch.com -->
    <title>Untitled</title>
    <desc>Created with Sketch.</desc>
    <g id="Page-1" stroke="none" stroke-width="1" fill="none" fill-rule="evenodd">
        <g id="lines" transform="translate(6.000000, 0.000000)" fill="#000000" fill-rule="nonzero">
            <path d="M966.428838,401.668652 C865.928838,401.668652 814.428838,381.149725 814.428838,252.334326" id="b5" transform="translate(890.428838, 327.001489) rotate(180.000000) translate(-890.428838, -327.001489) "></path>
            <path d="M725,403.249735 C725,342.301776 624.856,371.346054 624.856,304.834326" id="b4" transform="translate(674.928000, 354.042031) rotate(-180.000000) translate(-674.928000, -354.042031) "></path>
            <line x1="475.876" y1="413.334326" x2="475.876" y2="304.834326" id="b3" transform="translate(475.876000, 359.084326) rotate(-180.000000) translate(-475.876000, -359.084326) "></line>
            <path d="M333.376,403.249737 C333.376,342.301778 233.232,371.346056 233.232,304.834328" id="b2" transform="translate(283.304000, 354.042033) scale(-1, 1) rotate(-180.000000) translate(-283.304000, -354.042033) "></path>
            <path d="M0,250.332837 C0,379.148236 51.5,399.667163 152,399.667163" id="b1" transform="translate(76.000000, 325.000000) rotate(90.000000) translate(-76.000000, -325.000000) "></path>
            <path d="M966.428837,158.667162 C865.928837,158.667162 814.428837,138.148235 814.428837,9.33283625" id="a5" transform="translate(890.428837, 83.999999) rotate(-90.000000) translate(-890.428837, -83.999999) "></path>
            <path d="M623,10.084591 C623,76.596318 723.144,47.55204 723.144,108.5" id="a4" transform="translate(673.072000, 59.292295) scale(-1, 1) translate(-673.072000, -59.292295) "></path>
            <line x1="483.5" y1="0" x2="483.5" y2="108.5" id="a3"></line>
            <path d="M236.376,10.084591 C236.376,76.596318 336.52,47.55204 336.52,108.5" id="a2"></path>
            <path d="M0,7.331348 C0,136.146747 51.5,156.665674 152,156.665674" id="a1"></path>
        </g>
    </g>
</svg>