<?xml version="1.0" encoding="UTF-8"?>
<svg viewBox="0 0 972 414" version="1.1" xmlns="http://www.w3.org/2000/svg" xmlns:xlink="http://www.w3.org/1999/xlink">
    <!-- Generator: Sketch 62 (91390) - https://sketch.com -->
    <title>lines</title>
    <desc>Created with Sketch.</desc>
    <g>
            <path
              d="M969.428834,401.668652 C868.928834,401.668652 817.428834,381.149725 817.428834,252.334326"
              id="b5"
              transform="translate(893.428836, 327.001489) rotate(180.000000) translate(-893.428836, -327.001489) "
            ></path>
            <path
              d="M728,403.249736 C728,342.301777 627.856,371.346055 627.856,304.834327"
              id="b4"
              transform="translate(677.928000, 354.042031) rotate(-180.000000) translate(-677.928000, -354.042031) "
            ></path>
            <line
              x1="478.876"
              y1="413.334326"
              x2="478.876"
              y2="304.834326"
              id="b3"
              transform="translate(478.876000, 359.084326) rotate(-180.000000) translate(-478.876000, -359.084326) "
            ></line>
            <path
              d="M336.376,403.249736 C336.376,342.301777 236.232,371.346055 236.232,304.834327"
              id="b2"
              transform="translate(286.304000, 354.042032) scale(-1, 1) rotate(-180.000000) translate(-286.304000, -354.042032) "
            ></path>
            <path
              d="M3,250.332837 C3,379.148236 54.5,399.667163 155,399.667163"
              id="b1"
              transform="translate(79.000000, 325.000000) rotate(90.000000) translate(-79.000000, -325.000000) "
            ></path>
            <path
              d="M969.428836,158.667161 C868.928836,158.667161 817.428836,138.148234 817.428836,9.3328355"
              id="a5"
              transform="translate(893.428837, 83.999998) rotate(-90.000000) translate(-893.428837, -83.999998) "
            ></path>
            <path
              d="M620,10.084591 C620,76.596318 720.144,47.55204 720.144,108.5"
              id="a4"
              transform="translate(670.072000, 59.292296) scale(-1, 1) translate(-670.072000, -59.292296) "
            ></path>
            <line x1="477.5" y1="0" x2="477.5" y2="108.5" id="a3"></line>
            <path
              d="M228.376,10.084591 C228.376,76.596318 328.52,47.55204 328.52,108.5"
              id="a2"
            ></path>
            <path
              d="M3,7.331348 C3,136.146747 54.5,156.665674 155,156.665674"
              id="a1"
            ></path>
          </g>
</svg>