<svg id="Layer_1" data-name="Layer 1" xmlns="http://www.w3.org/2000/svg" viewBox="0 0 73.982 72.459"><path d="M20.832.2A.7.7,0,0,0,20.414,0,3.141,3.141,0,0,0,18.2.778,32.827,32.827,0,0,0,12.2,6a31.554,31.554,0,0,0-4.943,6.5c-.262.445-.506.9-.757,1.35-.009-.008-.02-.011-.028-.021a.114.114,0,0,1,.016.042c-.032.058-.066.116-.1.175-.115-.083-.235-.036-.166.058.052.071.065-.008.124.018-.114.206-.235.409-.346.617l-.05-.077c-.041-.07-.218.258-.188.312.056.1-.065.093-.038.232a.271.271,0,0,1-.015.1l-.013.027c-.2-.267-.058-.252-.127-.017-.013.038-.181.084-.085.2,0,0,0,0,0,.005.056-.053.126-.1.164-.1-.065.127-.128.254-.193.38a.114.114,0,0,0-.1-.029c-.032.013,0,.073.043.139l-.079.155c-.042-.055-.081-.088-.1-.023-.052-.061.167-.271-.007-.23s-.08.208-.052.254c.057.092.058.1.011.045-.039.066.06.072-.018.112-.028.015-.136.013-.136.067,0,.246-.16-.059-.2.007a.387.387,0,0,0,.046.174c-.025-.028.094-.008.161,0-.039.025-.022.069.027.117-.041.084-.086.166-.127.25a.252.252,0,0,0-.054-.034c-.1-.02-.077.022-.032.074a.217.217,0,0,0-.182,0c-.113.045-.115.136-.035.222-.028-.031-.1-.167-.076-.037.009.04-.027.017.026.1,0,.009,0,0-.007,0a1.382,1.382,0,0,1,.124.172l-.026.057c-.017-.017-.032-.029-.057-.056a.169.169,0,0,1,.045.082c-.026.056-.05.112-.076.168a.2.2,0,0,0-.082.18l-.011.024c-.019.011-.092-.051-.172-.04-.055.035-.081.256-.131.25a.369.369,0,0,0-.057.161c-.163-.156-.015.01-.164-.059s-.084.25-.243.1c.056.054-.078.145-.1.163-.034.032.029.165.027.231s-.074.36-.209.21c0,0,.145.17.117.158-.121-.048-.112-.012,0,.107.009.009-.193-.08-.2-.076a2.177,2.177,0,0,1,.078.208c-.144-.191-.319-.13-.235-.056.066.057.116.007.21.109-.174-.189-.245.207,0,.23.091.009.133-.095.093-.2a.208.208,0,0,1,.2-.082c.08,0,.067.019.1.106l-.1.232a.359.359,0,0,1-.235-.029.769.769,0,0,1,.2.123l-.011.025a2.174,2.174,0,0,1-.292-.113c-.034-.025-.188-.29-.245-.166a.476.476,0,0,1,.085.067c.072.093-.049.064-.049.057-.2-.168.161.284.134.211.049.127-.146.191-.01.352.078.094.211.265.033.239.029-.073-.16-.254-.225-.27s-.05.075-.09.089c-.075.027-.2-.148-.228,0,.189-.1.065.2.222.272.081.037.091-.059.183.093.071.118-.131.064.01.11.024.008.047.028.072.039-.161.4-.33.786-.482,1.184l0,0a.364.364,0,0,1-.089-.03c-.1-.044-.03-.154-.13-.2-.008,0-.14-.011-.107.025.051.055.079-.035.09.093,0,.031,0,.2-.027.2a1.055,1.055,0,0,1,.226.022c-.008.02-.014.04-.021.06a.042.042,0,0,0-.017.047c-.015.041-.029.083-.044.124a.337.337,0,0,0-.274.129.079.079,0,0,1-.036.016.378.378,0,0,1,.057.036c0,.009-.61-.04-.242.193.024,0-.007.151-.1.134-.088.016-.009.136.041.127-.284.053-.086.123.106.288.023.02-.007.1-.014.109a.26.26,0,0,0,.093.027c-.023.069-.042.14-.064.21-.1.05-.3.029-.141.164-.284-.1-.282.417-.386.4.079.05.23.053.321.1-.014.048-.029.095-.043.142-.084-.049-.156-.094-.171-.1-.13-.08-.387-.251-.366-.04.017.169.154.133.213.065.116-.028.081.1.156.128-.16-.06-.181.049-.02.133a.15.15,0,0,0-.115-.025,1.427,1.427,0,0,0-.11-.11c-.188-.049.188.337.2.343a1.293,1.293,0,0,1,.072.124c-.012.045-.023.09-.035.135-.021-.066-.082-.271-.192-.327-.013.035-.014.276.043.3-.137-.042-.129-.065-.113-.134-.007.029-.169.046-.089.135s.131,0,.224.15c-.01.044.031.064.072.085-.026.1-.052.2-.077.3-.091.011-.18-.007-.185-.081,0-.026.079-.089.031-.118,0,0-.163-.029-.131-.056.064-.056.259.008.271-.046.017-.073-.32-.163-.356-.17-.232-.009.236.5.245.542s-.356-.12-.393-.137c-.036.158.372.177.431.234.027.025-.1.239-.191.2-.236.078-.074-.219-.167-.26-.072-.032-.156.135-.26.073.136.081.168.169.3.228.035.015.21.068.2.13-.007.03-.015.064-.048.065a.058.058,0,0,1,.04.05c-.035-.031-.44-.072-.241.011s-.014.144-.083.152c.149.06.017.227.077.279a.078.078,0,0,1,.077.019c-.032.18-.32-.086-.312.147.007.192-.065.213-.286.178a1.32,1.32,0,0,0,.394.123c.181,0,.124.154-.008.159-.03,0-.281.127-.189.16.116.159.193-.117.239-.1,0,.047.043.094.029.147.114.04.04-.177.075-.174a.083.083,0,0,1,.042.012c-.018.09-.033.181-.05.272a.482.482,0,0,1-.355-.129c-.109-.106-.363-.239-.3.015.027.1.151.188.16.273.007.059-.115.06-.082.1,0,0,.172.2.131.176a1.054,1.054,0,0,0,.338.036l-.008.015c-.058.081-.324-.084-.364.014s.173.14.249.155c-.012.09.033.069.08.026,0,.054,0,.112,0,.171-.011-.015-.021-.031-.031-.034-.086-.026-.357.062-.327-.154.018-.129-.15-.137-.25-.168l.223.385a1.205,1.205,0,0,1,.246.239.258.258,0,0,0-.041.081l.033,0c.029,0,.045.076.059.155l-.018,0c-.045-.032.023-.068-.06-.091-.125-.033-.13-.176-.276-.132A1.169,1.169,0,0,1,.7,28.86c0-.049.13-.036.148-.051-.13.11.157.164.093.272v.011c-.081.1-.412.012-.2-.1.077-.04-.141-.192-.158-.04-.013.132-.313-.109-.292,0,.007.04.192.056.183.146-.006.067-.165,0-.21.025-.137.068.143.159.22.089l-.224.153a1.351,1.351,0,0,0,.44.2c0,.019-.01.041-.017.077-.011-.014-.025-.022-.042-.01-.073.052-.042.1.016.144l0,.018c-.012.065-.019.106-.025.147A.191.191,0,0,0,.51,29.9c-.025,0,.045.135.048.143a.8.8,0,0,0-.245-.2c-.074-.037-.154.06-.048.082.131.028.367.457.406.236a.225.225,0,0,0,.068.116.1.1,0,0,0-.026.052c-.01.085-.065.154-.071.243,0,.05.108,0,.1.074-.005-.079.012-.134.037-.146-.01.111-.018.222-.027.333l-.01,0C.737,30.8.708,30.79.674,30.811c-.04-.022-.08-.048-.1-.059a.661.661,0,0,0,.074.077.212.212,0,0,0-.038.089c-.1-.058-.2-.1-.206-.015-.009.149.08.2-.125.3,0,.021.029.036.068.049l-.022.042c-.011.089.044.178.11.178.187.088.209.176.209.176a.273.273,0,0,1-.081.155c.015-.14-.144-.1-.119-.06s.06.07.082.107a.445.445,0,0,1-.248.064c-.033,0-.044.089-.045.354,0,.005,0,.014,0,.02-.016.066-.015.159-.066.2-.078.057-.024.09.067.117,0,.006,0,.016,0,.021a.176.176,0,0,1-.013.178c-.066,0-.105.092-.105.092-.012.179.225.08.237-.1.034,0,.073-.091.106-.091.066,0,.06.086.053.174l-.066,0c-.024,0-.046.041-.059.067a.465.465,0,0,0-.146.116v0h0v.012c-.035.043-.032.063,0,.069l-.006.1c.033,0-.006.089,0,0-.033,0-.072.092-.078.181l-.04.091c.034,0,.067,0,.088.172.06.085.06.085-.04.091l-.066,0,.048.262a.29.29,0,0,1,.055.173c-.039.091-.112.185-.151.277a.348.348,0,0,0-.015.266.725.725,0,0,1,.031.265c0,.089.032.086.1.079.034-.091.066-.094.066-.006a.983.983,0,0,1-.018.164c-.034-.019-.06-.042-.08-.021-.041.043,0,.092.054.134a1.348,1.348,0,0,1-.125.362c-.066.1-.066.1-.033.093s.065.081.1.166c.032.174.065.17.065.17,0-.089.033-.005,0,.177,0,.266,0,.266.064.345.033,0,.066-.008.066-.1.033,0,.033,0,.066.08a.964.964,0,0,1-.066.45c-.031,0-.035.005-.035-.084a.364.364,0,0,0-.064-.256c-.033-.084-.066.009-.034.093,0,.089,0,.266-.03.271a2.47,2.47,0,0,0,0,.624l0,.046h0l0,.007c.005.1.01.177.015.241a.2.2,0,0,0-.025.064c0,.023.018.044.037.064a.307.307,0,0,0,.069.186l.088-.016a1.007,1.007,0,0,0,.2.012.358.358,0,0,0-.02.133c-.016.056-.009.073.005.079a.274.274,0,0,0,.027.277c.072.1-.057.077-.125.123-.1.069.108.121.122.146v0c-.053.183-.109.363-.169.376s-.053.095-.037.238c0,0-.007.01-.013.014l.015.01v.015a.717.717,0,0,0,.062.256l-.032.007c-.054.1-.054.1.021.175.064-.015.117.153.117.153.042.08.02.175.01.087l-.064.015c.02.175-.121.39-.163.31C.266,40.8.288,40.7.288,40.7c.032-.008.032-.008.022-.1l-.033.008c-.064.015-.054.1-.033.28.053.168.031.264-.012.184-.01-.088-.032.008.011.088,0,0,.042.08.106.064.1-.025.1-.025.043.079s-.054.105.021.176c.042.08.138.054.171.046l.128-.034.02.445a1.538,1.538,0,0,0,.087.412c.005.041.006.082.011.123.013.084.035.167.049.251l-.017.007A.4.4,0,0,0,.7,42.494c-.142-.051-.192.422-.049.471.079.068.11.241,0,.184-.063.019-.063.019-.079.116.015.087.015.087.047.077a.42.42,0,0,1,.11.241c.094.154.094.154-.016.1-.095.03-.127.04-.079.117,0,0,.047.077.078.067s.126.143.205.209l.019.038c-.01.049,0,.074.033.07.059.115.077.087.153-.084a.4.4,0,0,0,.019-.043l0,.012c.01.091.02.181.031.272l0,0h0l.018.165c-.02-.05-.048-.052-.1-.034s-.074.118-.053.2.03.267,0,.278c-.063.022-.063.022.041.171.083.064.134.138.165.127l.063.09v.005a.269.269,0,0,0-.153.13.245.245,0,0,1,0-.192l-.062.023c-.063.022-.125.045-.1.13l.062-.022c.062-.023.1.148.062.257l.027.04-.009,0c.009.063.039.089.079.095.009.029.018.061.026.1.021.085.052.074.052.074.031-.012.031-.012.011-.1L1.3,45.8l.007,0c.027,0,.047.073.066.153s.021.085-.01.1c-.048.018.013.156.072.21.006.036.011.071.016.107a.1.1,0,0,0-.065.064c-.008.006-.046-.091-.043-.089-.039-.025-.181.156-.176.2a.3.3,0,0,0,.261-.055c-.038.079-.079.159-.107.235l-.082.221.133-.147.124-.049c.021.085.021.085-.01.1l.007.1a.832.832,0,0,0,.028.165c.076.252.107.239.086.059l.062-.025c.086.059.111.142.05.167-.03.013-.066.122-.071.219.015.277-.02.388-.132.245l-.092.039c.026.084.082.156.112.143a.168.168,0,0,1,.051.168c.021.182.021.182.086.058.061-.026.092-.039.117.045-.005.1.025.084.086.058.122-.053.319.144.278.352l-.06.027.05.167c.056.07.056.07.026.084-.091.041-.015.293.046.265a.166.166,0,0,1,.106.237c0,.1.017.183.17.5.089.149.119.231.089.149-.03-.178-.03-.178.059-.125a.245.245,0,0,1,.119.231c0,.1,0,.1.149.024l.036-.016a.3.3,0,0,0,.121.145c.186.448.362.9.567,1.34.864,1.61,1.894,3,3.91,3.213a4.551,4.551,0,0,1,.678.249c.529.15.792-.085.652-.578A30.811,30.811,0,0,0,7.3,49.528,30.367,30.367,0,0,1,4.763,37.609a40.688,40.688,0,0,1,.325-8.18,39.56,39.56,0,0,1,1.406-6.078,68.124,68.124,0,0,1,4.421-9.641,29.4,29.4,0,0,1,3.421-5.246C16.453,5.832,18.587,3.218,20.708.59,20.793.484,20.882.264,20.832.2ZM4.209,18.323c-.032-.016-.036-.029-.034-.041A.367.367,0,0,0,4.209,18.323ZM.435,37.542l.019.041a.278.278,0,0,1-.075.04C.405,37.536.43,37.459.435,37.542ZM.618,37.4v.063h0Q.617,37.435.618,37.4ZM4.709,17.267c-.057-.062.071-.211-.024-.314-.009-.013.147-.006.185-.031l.011.011c-.055.114-.109.23-.164.345Zm-3.536,10.3-.01.059a.267.267,0,0,0-.087-.1A.257.257,0,0,0,1.173,27.564Zm-.1.261c-.057-.013-.246.027-.232-.076.012-.085.129.011.176.04-.034-.021-.14-.207-.069-.227.053-.014.142.087.2.136-.007.037-.013.075-.019.112l-.006.015A.161.161,0,0,1,1.077,27.825ZM.724,29.272a.479.479,0,0,1,.119.01l-.031.163L.8,29.529C.8,29.437.536,29.292.724,29.272Zm.049.3a.044.044,0,0,0,.02-.03,1.362,1.362,0,0,1-.041.179l-.009,0c-.009,0-.017-.034-.031-.107,0-.027,0-.038,0-.053C.734,29.567.764,29.575.773,29.569ZM.391,38.192a.939.939,0,0,0-.018-.174c.058,0,.216-.183.069-.167-.065.006-.039.1-.1.06,0,0-.042-.036-.081-.066l0-.007.033-.006c.026,0,.051-.012.072-.1a1.7,1.7,0,0,0,.169.021c.114.015.063.12.048.178L.6,37.915c0,.016,0,.034,0,.051a.525.525,0,0,0-.112.057c-.033.028.053.063.109.083a.262.262,0,0,0,0,.028v.006c-.13.049-.139.119,0,.079v.023C.568,38.273.48,38.244.391,38.192ZM.9,42.818c.028.164.065.326.095.49l-.016.01A2.036,2.036,0,0,1,.9,42.889a.4.4,0,0,0-.017-.068Zm.362,2.754c.031.011.064.023.082.032l.008.053h0l-.072.018A.518.518,0,0,1,1.259,45.572ZM22.2,23.36c.088.133.268.286.24.373a3.272,3.272,0,0,1-.406.847,23.626,23.626,0,0,0-2.351,4.178,22.126,22.126,0,0,0-1.457,8.925c.01,1.283-.022,2.566-.052,3.85a1.361,1.361,0,0,1-.176.431,1.58,1.58,0,0,1-.422-.208,6.89,6.89,0,0,1-1.957-2.975l-.018.06c0-.039,0-.079,0-.118-.021-.064-.048-.127-.067-.192-.125.015-.129.012-.106-.04a.112.112,0,0,0-.053-.152c-.069-.044-.069-.044-.086.063.007.052,0,0-.045-.1-.063-.2-.063-.257-.034-.313.06-.059.057-.111-.039-.154-.062.007-.071-.15.023-.16.032,0,.032,0,0-.052l-.006-.1.063-.006c.088-.114-.045-.258-.17-.247-.062.006-.093.009-.065-.046,0-.053-.034-.05-.1-.044-.091.061-.091.061-.065-.047.028-.056.029-.056-.005-.106-.032,0-.066-.047-.068-.1l.094-.008c.067.1.127.042.182-.121.029-.055.089-.113.12-.115.063,0,.06-.057,0-.1l-.063.005c-.026.108-.057.11-.065-.047a.315.315,0,0,1,.016-.1l.018-.06c.032,0,.032,0,.034-.055l-.126.009-.16.064.13-.115c.066-.057.162-.116.228-.173.1-.059.1-.058.033-.054s-.119-.15-.056-.154c.031,0,.031,0,.034-.054s0-.1-.027-.1l-.034.054c0,.053,0,.053-.034.055,0,0-.031,0-.029-.051s0-.1-.027-.1l-.03-.051c.066-.057.07-.162.007-.159l-.063,0c0-.053.065-.056.129-.06l.063,0c-.066.056-.07.161-.005.105.063,0,.1-.005.092.048H15.2c-.032,0-.034.055-.036.107l.063,0c.033-.055.065-.056.065-.056l0-.105-.058-.1c-.032,0-.061-.049-.121-.1-.059-.1-.059-.1,0-.106.032,0,.068-.108.07-.16a.106.106,0,0,1,.1-.109c.063,0,.094,0,.092.048l.063,0,0,0c.016-.068.022-.136.04-.2.007-.044.019-.087.026-.13a.4.4,0,0,1-.1.079c-.141.109-.141.11-.183-.046-.056-.05-.105-.153-.137-.152s-.056-.051-.056-.051c-.024-.052.007-.053.1-.056.088.05.088.05.039-.053a.184.184,0,0,0-.042-.157c-.031,0-.031,0-.024-.052.039-.053.039-.053.1-.054.088.05.1-.055.046-.106-.119-.051.044-.316.162-.265a.2.2,0,0,1,.091.26c-.061.21-.05.366.02.312.063,0,.063,0,.007-.052.032,0,.039-.053.046-.1.01-.072.028-.089.049-.1.017-.09.037-.181.054-.271-.117-.005-.163-.108-.1-.362l.092-.26h-.127c-.032,0-.127,0-.147-.053-.051-.052-.051-.053.025-.1s.075-.051-.02-.052a.088.088,0,0,1-.082-.054c-.02-.052.024-.105.012-.052.02.053.063,0,.056-.105.025-.1.037-.158.1-.156h.031c-.012.053-.012.053-.044.052,0,0-.044.052-.012.053.019.052.2-.05.226-.154h.064c-.013.052.031,0,.012-.052,0,0-.007-.1-.07-.106-.051-.054-.051-.054.024-.105h.032a.275.275,0,0,1,.005-.158c.025-.1.037-.157.1-.154s.161-.1.258-.2l.014-.017c.079-.309.167-.615.255-.921a.216.216,0,0,0-.07.057c-.066.1-.1.1-.129.1l-.032,0c-.017.052.014.054.046.056.063,0-.006.21-.055.26l-.126-.007c-.046-.055-.029-.107.059-.367a1.127,1.127,0,0,1,.153-.361c.029,0,.072-.1.095-.151-.009-.054.045-.1.054-.049a.142.142,0,0,1,0,.158c-.022.051-.018.052.012.054a.3.3,0,0,0,.1-.1c.02-.066.035-.133.055-.2a.039.039,0,0,0-.02-.006.07.07,0,0,1-.085.046c-.041-.057-.041-.057.027-.21.076-.1.067-.153.045-.1,0,0-.032,0-.018-.108-.009-.054-.018-.109-.049-.112s-.031,0,.054-.048a1.083,1.083,0,0,0,.314-.343c.022-.051-.009-.055-.063-.007-.062-.006-.093-.01-.07-.061a.285.285,0,0,0,.037-.157.166.166,0,0,1,.08-.152c.059-.047.148-.09.207-.137A.112.112,0,0,0,17,28.767l.02-.159.062.008c.094.012.094.012.059-.047.024-.105-.007-.109-.038-.113l.059-.046c.028-.051.086-.1.117-.093l.055-.1.031,0c-.015.027-.012.04,0,.047.023-.044.05-.085.073-.129-.089.041-.211.034-.17-.041a.182.182,0,0,1,.12-.037c.059-.046.059-.046.056-.1a1.75,1.75,0,0,1,.087-.205c.066-.153.1-.2.13-.2a.758.758,0,0,0,.106,0c.046-.08.088-.162.136-.241a.072.072,0,0,1-.045-.111l.063-.044c.03.006.03.006.063-.044a.077.077,0,0,1,.054-.04c.125-.2.268-.38.4-.571a.748.748,0,0,1,.08-.118c.031-.04.042-.052.062-.076A14.152,14.152,0,0,1,20.125,24.5,4.417,4.417,0,0,1,22.2,23.36ZM73.9,34.935a28.188,28.188,0,0,1-2.269,9.284,5.685,5.685,0,0,1-1.744,2.271,1.692,1.692,0,0,1-2.786-1,3.064,3.064,0,0,1,.174-1.892c.406-.961.8-1.927,1.161-2.906a21.773,21.773,0,0,0,1.546-8.938c-.018-.32,0-.644,0-.966H69.9a39.573,39.573,0,0,0-.029-4.343c-.256-2.3-.653-4.586-1.1-6.857-.123-.63-.168-1.267-.309-1.89a28.668,28.668,0,0,0-3.86-9.279A17.354,17.354,0,0,0,62.49,5.8a3.877,3.877,0,0,1-.718-.951A1.025,1.025,0,0,1,61.9,3.715a.9.9,0,0,1,.872-.3,2.455,2.455,0,0,1,.7.156c.146.063.281.144.423.213l.212.067c0,.011-.015.018-.028.025.288.147.57.3.842.476,0-.007.011,0,.02.013.058.037.114.077.171.114,0-.018-.011-.039.005-.05.05,0,.051-.007.149.12l.024.049c.027.019.055.035.082.054a.436.436,0,0,0-.076-.234l.2.062a.423.423,0,0,0-.01.084c.048.093,0,.061,0,.03-.05-.063-.048-.094-.05-.063a.164.164,0,0,0,.042.116.291.291,0,0,0-.062.035c.144.1.284.207.422.316a.211.211,0,0,1,.023-.025c0-.011.014-.013.027-.014-.056-.045-.085-.1-.044-.091a.153.153,0,0,1,.106.043l-.007.063a.154.154,0,0,1,.024.01l.01-.087c-.047-.065-.047-.066-.151-.108a.26.26,0,0,1-.1-.041.288.288,0,0,0-.117-.124c-.005-.009,0-.016-.011-.024-.05-.063-.1-.127-.048-.094l.052.033c.053.031.157.106.209.143s.108.045.111.015c-.048-.1.166.052.258.217.1.14.087.2.04.128s-.1-.07-.128-.053a1.392,1.392,0,0,0,.078.14c.09.136.085.164.031.154-.013,0-.011,0-.021,0,.1.09.212.173.311.267a.4.4,0,0,1,0-.043c.006-.028.011-.058.06-.016a.365.365,0,0,0,.158.07,1.131,1.131,0,0,1,.26.155c.1.088.1.089.035.1-.055-.018-.062.009-.02.081-.008.027-.015.053-.062.009a.492.492,0,0,1-.091-.109c-.042-.068-.042-.069-.11-.028v.008c.133.133.256.277.382.418-.024-.095.031-.083.138.071.093.083.128.156.115.206l.006.006c.062,0,.117.018.208.108.1.068.1.068-.009.025-.1-.067-.1-.067-.009.026a.754.754,0,0,1,.13.162c-.009.025-.009.025-.056-.021l-.09-.089c.041.053.076.11.117.163A.456.456,0,0,1,67.7,6.9c.045.049.1.072.111.048a.639.639,0,0,1,.08.253c.086.118.171.236.254.356.041.041.07.059.085.032.064,0,.065,0,.215.212a.493.493,0,0,0,.211.235c.133.135.188.168.176.076.028-.039.042-.059.1-.026.111.068.153.122.124.16-.058.075-.059.076.1.3.116.168.116.168.1.186a1.458,1.458,0,0,0,.324.533c.037.058.037.058.02.075s-.034.031-.07-.027-.073-.116-.09-.1c-.034.034.038.148.092.191.071.026.146.231.092.188-.07.062-.052.133.02.16.09.011.106.089.086.192.015.074.015.074.1.178l.052.046-.068-.119c.018-.015.018-.015.052.046a.629.629,0,0,0,.14.152c.037-.027.072.034.053.047,0,.087.067.207.105.181l.065.124-.038.026s-.019.013-.007.087c.026.148.057.209.077.2l.065.123c.012.073.032.062.026-.1.007-.087.04-.024.032.062s.091.271.11.259.041-.022.008-.084l.02-.011c.032.062.065.125.045.136.01.075.01.075.051.053.02-.011.02-.012-.011-.076s-.013-.074.007-.085c0,0,.035.062.064.128,0,0,.031.064.051.053s.051.054.082.119c.1.27.112.344.07.364-.021.01-.011.083-.011.083.03.064.061.128.04.138a1,1,0,0,0,.191.381c.05.056.072.049.079-.109.015-.084.036-.093.065-.027a2.1,2.1,0,0,1,.135.258c.079.125.079.125.058.133s-.015.082.042.215.053.134.032.141-.018.081.007.148l0,.073c-.026-.066-.048-.059-.067.021-.022.007-.019.079.007.145,0,0,.022-.006.019-.079.022-.007.022-.007.1.12.026.066.048.06.07.054.019-.08.169.176.15.256l.022-.006c.023-.006.023-.006,0-.074-.053-.134-.03-.141.045-.011.125.191.1.2.032.214-.046.011-.115-.045-.187-.1-.12-.116-.168-.175-.165-.1-.023.006-.045.012-.094-.047-.07-.054-.071-.054,0,.071a1.885,1.885,0,0,0,.1.191.644.644,0,0,0,.092.193c.046.061.207.026.253-.058,0-.072.023-.005.07.131a1.5,1.5,0,0,1,.1.343c0,.144,0,.143.071.2.071.132.092.129.094.056.023-.075.047-.08.117-.019l.094.058-.05.08-.142.022a.14.14,0,0,1-.16-.117c-.093-.2-.094-.2-.07-.06,0,.142-.05.149-.07.012l-.047.007-.047.008a.227.227,0,0,1,.086.2c-.006.139.079.335.107.263A.145.145,0,0,1,72,15.127c.048-.007.092.057.089.127l.021.067c.024,0,.024,0,0-.07s0-.07.051-.076c.068.061.092.058.071-.01l.021.068a2.256,2.256,0,0,0,.111.2c.069.062.069.063.1-.011,0-.072,0-.072.021.069-.026.074-.149.155-.215.023l-.042-.135-.021-.068c-.024,0-.027.074-.006.14.062.2.063.2.059.272.021.067-.045-.065-.087-.2,0-.07-.02-.067-.024,0-.024,0-.027.072-.006.139.045.064.041.133.021.066-.042-.064.031.2.109.4.1.2.152.467.084.4-.024,0-.025,0,.019.067.111.133.125.2.06.133-.025,0-.035.067-.02.133s.016.066.041.066L72.5,17c.041.067.031.133.016.067a.07.07,0,0,0-.085.063c-.035.065-.035.065-.01.066a.16.16,0,0,1,.046.2c-.025,0,.015.065.056.133a.431.431,0,0,1,.056.264c0,.129,0,.129.013.066.025,0,.05,0,.089.072.063.07.1.269.038.2-.026,0-.026,0-.013.064s.038.068.063.071l-.025.127-.052.122c.031.068.06.136.085.2l.091.269-.032.122c-.042.056-.069.051-.094.047l-.026-.005c.009.065.035.069.061.074s.036.07.046.135a1.4,1.4,0,0,0,0,.189l.008.064c.026.006.027.006.045-.053-.02-.13-.02-.13.052.011s.054.263,0,.187-.092.105-.072.3c.007.063-.012.121-.039.114s-.019.057.007.063l.033.071c-.021.056-.009.122.051.261.03.07.06.14.034.133a1.038,1.038,0,0,0,.049.385c0,.062,0,.063-.023.054s-.03.02-.038.053c.05.272.105.543.152.816.013.073.021.146.034.218a.074.074,0,0,1,.005.035A54.8,54.8,0,0,1,73.9,34.935ZM2.223,22.294s0,.008.005.012C2.191,22.3,2.2,22.294,2.223,22.294Zm2.3-5.173c.043.011.039.047.046.045A.263.263,0,0,0,4.519,17.121ZM2.328,22.314c-.014,0-.022.006-.01-.008Zm3.145-6.782a.263.263,0,0,0-.05.06C5.4,15.508,5.445,15.522,5.473,15.532Zm0,0,.01-.01C5.5,15.539,5.489,15.539,5.473,15.532ZM2.318,22.306c-.006-.005,0-.014,0-.019a.332.332,0,0,1-.09.007c-.127-.141.175-.278.3-.154C2.51,22.127,2.36,22.255,2.318,22.306ZM47.549,33.073v-.017a.1.1,0,0,1,.037-.03c0,.008.093.063.046-.029.034.028.148-.017.149-.052-.016,0-.033,0-.049,0,0-.031.043-.034.043-.048,0-.03-.136-.042-.226-.036v-.134l.039.018c-.006-.02,0-.033.026-.038,0,.005.089.134.112.073-.009.025-.02.029-.041.045.076,0,.078-.074.008-.078.074-.009.046-.116-.011-.117.147,0,.021-.061.032-.094.022-.069.011-.05-.072-.081.009,0,.13-.034.108-.051-.005-.005-.141.032-.141,0s.066-.039.035-.064a.176.176,0,0,0-.1-.018v-.037c.043-.024.1-.053,0-.064v-.1c.064.044.066-.042.094-.043,0,0,.071.125.077.064s-.055-.1-.128-.082c0-.027.076-.026.1-.023,0-.051-.078-.023-.14.01v-.086c.019,0,.069-.012.066-.011.02-.006-.035-.049,0-.055-.008,0,.151-.014.067-.032a.866.866,0,0,1-.139-.031v-.267c0-.018,0-.036,0-.054a.039.039,0,0,1,.01.026c.015.019.042.066.078.071.064.009.134-.119,0-.077,0-.038.049-.014.071-.018s0-.047,0-.058c.012-.053.029-.115-.063-.141.13-.023-.023-.085-.115-.1v-.013c.069-.024.185-.082.153-.115-.011-.012-.129.034-.049-.051.038-.04-.017-.044-.038-.068s.084-.006.084-.006-.066-.043-.067-.046c-.016-.041.059-.015.072-.02.048-.019-.064-.1-.065-.109s.047-.088.043-.09c-.042-.02-.094-.01-.046-.079a.489.489,0,0,1-.143.1c-.078.017.039-.1.081-.113.144-.05-.024-.2-.139-.087-.01.009,0,.031-.008.054l-.016-.069,0-.008c.016-.018-.036-.05.015-.052s.029.028.065.013.133-.051.128-.079-.034-.054-.063-.048c-.059.012.013-.059.013-.059.007-.029-.108-.008-.214.016l-.017-.078a.234.234,0,0,0,.2-.039c-.006-.024.015-.085-.034-.074-.011,0-.1.007-.052.033.051.05-.077.067-.128.04-.007-.031-.013-.062-.02-.094a.065.065,0,0,1,.02,0c.029.011.034.052.074.05s.019-.025.021-.038l.1-.018a.066.066,0,0,0,.014-.044c-.054-.006-.184.079-.2.008-.007-.028-.022-.038-.039-.04l-.01-.045c.067-.026.14-.057.149-.021.005.017-.091.1-.023.08.038-.01.073-.028.109-.04-.065.016.009-.17-.108-.155a.908.908,0,0,0-.15.036l-.007-.032a1.314,1.314,0,0,0,.136-.065c.031-.012.065-.037.014-.043-.015-.006-.093-.085-.019-.077,0-.013-.05-.109-.012-.121l-.094.029c-.021-.059.1-.05.1-.1s-.083-.074-.065-.023c-.018-.052-.029-.045-.086-.049.018,0,.1-.1.1-.1-.018,0-.072.048-.084.012-.031,0,.064-.041.052-.038-.152.068-.032-.105-.029-.1-.046-.027-.124.077-.144.017s.056-.061.055-.1c0-.021-.1-.038-.106-.051-.015-.043.083-.056.036-.119.122-.014-.024-.1-.059-.114.1.031.059-.156-.01-.1.031-.024.073-.018.037-.072a.086.086,0,0,0-.082-.039c.039,0,0,.087-.031.105,0,0-.087.035-.089.047a.037.037,0,0,1,0,.034c-.044.042-.032-.026-.055-.031l-.01-.021c.04-.013.077-.015.119-.032h0a.051.051,0,0,0,.021-.017h0a.038.038,0,0,0,.008-.017c-.012-.013-.112.044-.153.065l-.036-.076a.272.272,0,0,0,.081,0c.059-.018-.03-.049.029-.079.021-.011.1-.066.1-.087,0,.009-.177-.028-.093-.067.052-.023.036-.029.009-.048s0-.051,0-.077c0,.048-.15.136-.224.151l-.021-.048c.024-.033.052-.1.105-.091a.091.091,0,0,0,.1-.041c.022-.031-.081-.013-.067-.044,0-.005.051-.046.05-.049s-.046-.013-.056-.032c0-.041,0-.046-.05-.041-.041.021-.022-.044-.078-.013a.506.506,0,0,0-.1.078c-.01-.028-.022-.056-.032-.084a.027.027,0,0,1,.01.011c.02.037.07-.025.056-.052-.044-.082-.081-.083-.108-.055-.009-.02-.018-.04-.03-.062l.011,0c.045-.013-.008-.07.007-.105.032-.076-.068.015-.052.007s0,.014-.008.022c-.009-.017-.016-.031-.026-.048.019-.014.092-.074.092-.074-.026-.048-.057-.012-.117.005l-.015,0-.04-.067-.022-.034c.037-.015.072-.093.094-.123s.027-.149-.047-.092,0,.122-.058.156a.049.049,0,0,0-.016.016l-.065-.1a.348.348,0,0,0,.08-.1c.026-.055.121-.126.046-.156-.059-.024-.026.039-.066-.025-.029-.045-.088.025-.122.009s.059-.064.079-.076c-.011-.024-.042-.075-.081-.059-.009,0,0,.1-.043.045-.007-.013-.089-.11-.02-.109.22,0,.024-.1.01-.116.046.059-.089.175-.155.2l-.035-.046a.243.243,0,0,1,.063-.062c-.034,0-.089.009-.062-.031s.145-.036.165-.121c.011-.047-.086.033-.118-.01-.044-.061-.1.071-.136.021.04.056.057.035.117-.007,0,0-.02.041-.042.081l-.036.065-.061-.079v0l-.029-.038c.005-.009.009-.017.005-.021s-.016-.009-.03-.011l-.037-.046a.044.044,0,0,1,.072,0c.043.06.106-.106.044-.1.05-.007.1.014.063-.071-.008-.019-.068-.071-.072-.013s-.022.032-.073.03c-.018,0-.092.048-.1.016s.08-.058.1-.078-.028-.029-.015-.044.05,0,.07-.019c-.032-.04-.164.009-.161.075-.018-.022-.043.012-.062.025l0,0c.021-.034,0-.045-.031-.037-.019-.024-.039-.048-.059-.071a.065.065,0,0,0,0-.076c-.007-.01-.025,0-.046.021l-.1-.119c.051,0,.1,0,.112-.053s.1.052.094.052c.072.014.053-.1.036-.121s0-.114-.076-.054c-.034.028-.076.026-.1.046.08-.067.11-.117-.018-.074-.014.006-.111.038-.177.054l-.027-.03c.075-.063.212-.143.2-.22-.007-.033-.115.076-.156.084.047-.033.1-.09.036-.107-.06,0-.041.106-.123.083-.142.01.2-.223.063-.262-.038.035-.076-.081-.129-.033-.021.019-.011.081-.066.061-.014-.006.07-.149,0-.125-.031.011-.131.133-.147.05-.017.038-.016.06-.03.074l-.08-.085a.03.03,0,0,1,.021,0c.019,0,.026.026.044.031s.043-.041.065-.083a.39.39,0,0,1,.031-.062c.057-.054-.118-.159-.14-.182-.034.034-.037.172-.056.212l.09-.034a.237.237,0,0,1-.075.1l-.067-.067c.017,0,.03-.013.023-.048-.023-.025.035-.083.041-.112,0-.007-.086.009-.093.057a.063.063,0,0,1-.038.039l-.036-.034c.029-.036.153-.1.138-.146-.009-.029-.011-.068-.022-.094s-.06-.016-.061.009.059.029-.006.092a.365.365,0,0,1-.036.074.433.433,0,0,0-.14-.046l0-.005c.017-.026.063-.066,0-.059a.29.29,0,0,0-.025.043l-.016-.013-.009-.007c.037-.1.326-.113.252-.2a1.148,1.148,0,0,0-.15-.069c0-.023.062-.067.016-.077a.592.592,0,0,0-.073,0c-.012-.012,0-.063-.03-.091-.022.027-.076-.045-.106-.048a.763.763,0,0,0-.128.023c-.049.008-.09,0-.106-.056,0-.01.006-.059,0-.1s-.03-.073-.061-.035c-.038.021-.045.1-.008.068-.03.022-.154.13-.144.171-.017-.066.054-.171.056-.243s-.073.047-.079.062c-.018.041-.023.1-.043.142l-.037-.027c.017,0,.026-.011,0-.07-.061-.063.014-.062.057-.083.047-.111-.12-.012-.145.047a.279.279,0,0,0-.011.035l-.02-.014a.179.179,0,0,1,.037-.079c.008-.009.126-.1.088-.116,0-.006-.046-.088-.053-.084s-.032.042-.054.04c-.011-.041-.1-.088-.192-.123-.044-.017-.087-.032-.12-.042a.344.344,0,0,0-.054-.014c0,.015.059.066.03.091s-.063.011-.063.074a.027.027,0,0,0,.007.018l-.048-.028a.853.853,0,0,0,.032-.093c.019-.074-.006-.138-.074-.122s-.079-.018-.124-.042a.969.969,0,0,1-.193-.083c-.037-.032-.05.046-.065.031s-.031-.1-.064-.106c-.048-.007-.065.054-.113.03.083-.016.028-.1-.033-.062-.09.053,0,.029-.074-.023s-.048.047-.067.052c-.048.033-.061-.069-.074-.059-.036.029-.007.058.013.065a.108.108,0,0,1-.021.028l-.033-.015c0-.011.007-.023,0-.033l.025-.065c.02-.071-.04-.02-.066-.025-.084-.016-.164-.071-.247-.094-.025-.007-.091-.038-.119-.018-.013,0-.021.009-.027.027-.021-.008-.042-.013-.063-.021h0a1.137,1.137,0,0,1-.035-.113c-.013.025-.023.038-.049.03-.017-.044-.032-.005-.06.011-.082.048-.057-.012-.095-.049-.056-.056-.073.034-.1-.069-.008-.025-.032.022-.052.069l-.039-.012,0,0c.01-.015-.023-.066-.03-.077a.69.69,0,0,1-.043.059l-.033-.01c.011-.037.022-.075,0-.087s-.031.042-.072,0a.771.771,0,0,1-.1-.027,2.218,2.218,0,0,0-.308-.1.328.328,0,0,0-.059-.006c-.085-.037-.186.044-.27.006a5.224,5.224,0,0,0-1.644-.158l.057.018c-.165,0-.328-.016-.494-.006-.053,0-.1.016-.156.022l.045-.05c-.029.019-.063.039-.1.057-.3.036-.588.082-.877.141.007-.005,0-.008.013-.013,0-.023,0-.023-.05-.033-.1,0-.1,0-.136.085-.266.057-.528.124-.788.2-.055-.024-.08-.018-.1.031a11.171,11.171,0,0,0-3.84,2.066l-.016,0c.021-.063-.022-.034-.071.076l-.045.039h0c.02-.067-.164.047-.268.178-.116.113-.285.243-.255.2s-.013-.016-.042.034c-.041.034-.1.053-.108.037-.054.018-.067,0-.013-.017.083-.068.154-.154.113-.119-.055.018-.055.018-.18.122-.042.034-.1.053-.11.037l.042-.035.084-.069c.071-.086-.047-.148-.116-.144-.1.054-.1.054-.043.035.069,0,.069,0,.052.064a1.412,1.412,0,0,1-.1.136l-.042.035q.063-.052.039.048c.027.031.04.047.082.013s.042-.035.055-.019l-.042.034c-.055.019-.084.069-.057.1.055-.018.055-.018.083-.068.068,0-.043.116-.153.153a.151.151,0,0,0-.11.118l-.027-.031-.027-.03c.1-.055.069-.087-.041-.046-.094.058-.095.058.014-.067a.092.092,0,0,0,.017-.147l-.081-.093-.084-.01,0,.082c-.014.068,0,.083.068.076s.068-.006,0,.083c-.014.067-.013.067-.123.11a1.051,1.051,0,0,0-.219.169c-.082.073-.123.109-.067.087.084.007.184.11.158.161a.423.423,0,0,1-.105.121,1.257,1.257,0,0,1-.1.126c-.062.089-.062.088-.053.023s.008-.066-.006-.08c-.054.024-.03-.028,0-.146.009-.067.021-.132-.009-.161s-.06-.058-.149.086c-.064.091-.049.105.03.028.039-.038.039-.038.054-.024l.015.014c-.07.01-.2.192-.128.181.015.014.03.028-.009.066-.063.089-.063.089-.048.1.055-.024.07-.011.07-.011-.039.038-.093.062-.108.048-.07.011-.085,0-.046-.04l-.055.024c-.039.038-.094.062-.109.049s-.017-.014-.093.064-.129.106-.145.094-.016-.013-.076.079a1.364,1.364,0,0,0-.134.172c-.038.039-.021.052.049.037.124-.042.139-.029.119.023a.634.634,0,0,1-.2.247c-.017-.012-.052.028-.087.069,0,0-.052.028-.069.017-.033-.024-.086,0-.245.157-.036.041-.071.081-.054.092s-.018.052-.018.052c-.036.04-.068.082-.068.082.018.011.035.022.068-.02s.036-.04.053-.03c.035.022.035.022-.017.052-.018-.011-.051.03-.084.072l.018.01c.033-.041.05-.03.068-.02s-.08.134-.149.154-.1.062-.032.042c.119-.052.136-.041.086-.011l-.065.082c.018.01-.014.05-.116.112-.051.031-.069.022-.069.022l-.037-.02c-.033.041-.065.083-.065.083.037.019-.023.1-.091.127-.019-.009-.049.033-.012.051a.353.353,0,0,1-.053.143c-.03.042-.03.042-.011.051l.06-.084-.011.051c-.041.091-.04.091-.09.124-.087.016-.139.051-.107.117.012.058-.034.092-.113.062.008-.051-.114.062-.1.12-.008.05-.063.134-.1.121-.02-.007.008-.05.036-.093s.008-.05-.012-.057-.02-.007-.048.036c-.051.143-.22.4-.26.385-.02-.006-.02-.006-.1.126-.1.175-.1.174-.186.156-.042-.01-.064.036-.065.134,0,.048.021.052.064.06.064-.036.064.013.021.146a.3.3,0,0,1-.083.217c-.091.168-.091.168-.064.214.045,0,.028.046-.025.171a1.14,1.14,0,0,0-.051.136l-.014.04c-.007-.047-.192.09-.209.137.023,0,.03.046.014.092s-.02.136,0,.136c.046,0,.046,0-.014.045-.051.093-.074.094-.084.049l.042-.138c.014-.046.014-.046-.009-.045a.455.455,0,0,0-.065.14c-.028.092-.029.092-.024,0-.018-.091-.018-.092-.023,0-.028.093-.019.138.014.181-.046,0-.087.052-.109.144-.083.144-.047.185.047.086.082-.142.105-.143.117-.1a.191.191,0,0,1-.047.093c-.058.05-.058.05-.035.048s.013.042-.058.139a.4.4,0,0,0-.078.143s-.009.045-.033.049l-.009.045-.048.008c-.062-.035-.061-.036-.028-.085a.3.3,0,0,0,.042-.1c.012-.047-.012-.044-.035-.041-.036.05-.06.054-.072.01-.034-.042-.036-.042-.058.053a.727.727,0,0,0,0,.228.25.25,0,0,1,.019.132c-.01.046.016.041.039.037.048-.009.071-.013.081-.059s.009-.046.057-.054l.047-.008c.019-.091.066-.1.087.028.037.036.03.08-.017.089-.024,0-.024,0-.03.048.017.039-.013.088-.078.059-.072.014-.1.019-.116.155.01.084-.038.1-.072.016-.017-.04-.041-.036-.1.068a.657.657,0,0,1-.071.093c-.027-.016-.041-.046-.019-.1s-.016-.043-.079.065c-.084.114-.1.307-.049.246.024-.007.044.034.039.081s-.014.143-.014.189v.047c0,.046.024-.008.049-.062,0-.007.009-.009.013-.015a.181.181,0,0,1,.042-.119A.18.18,0,0,0,26.206,34c-.016-.086-.015-.086.013-.138l.072-.019a.064.064,0,0,0,0,.02l-.052.014a.109.109,0,0,0,.015.087c.015.03.041-.006.05-.058.006.009.014.017.023.015.068.025.068.025.072-.02l0-.044c.049-.013.051-.057.024.252,0,.13-.007.217-.031.225a.567.567,0,0,0-.123.129c-.052.106-.047.105-.023.14.049.025.094-.036.093-.121,0,0,.048.025.072.016.072-.025.121,0,.127.164a.123.123,0,0,1-.046.1l0-.084c0-.041,0-.041-.025-.032A.063.063,0,0,1,26.4,34.6c0-.043-.025-.034-.049-.025v.043a.122.122,0,0,1-.045.1c-.046.062-.046.062,0,.043.025.033.025.033,0,.086s0,.085.029.074.048-.02.028.032c-.043.062-.015.093.032.071a.11.11,0,0,1-.066.074c-.028-.031-.024.012.036.113.03.072.059.058.081.047s.047-.023.038.067c.007.039.014.078.03.027l.007,0c0,.045-.007.089-.01.133-.012.015-.028.029-.015.052.03.026-.016.053-.077,0-.068-.095-.115-.071-.077,0l-.03-.028a.053.053,0,0,0-.045-.016c.062.219.121.44.178.661l.014-.015A7.86,7.86,0,0,0,28.2,41.474a11.736,11.736,0,0,0,3.938,3.079c.256.122.327.261.311.436l-.055.059-.018.022a.04.04,0,0,1,.009-.021.479.479,0,0,0,.026-.111c.005-.073-.037-.105-.026.033-.014.017,0-.049,0-.072s-.017.019-.021.02-.04.01-.052.122c-.005-.137-.031.059-.039.167l0,.007c-.008-.069-.027-.178-.04-.129,0,.018.01.134-.02.077-.015-.027-.018.038-.028.071s0-.095,0-.095-.018.095-.019.1c-.017.036-.005-.063-.007-.075-.006-.049-.041.116-.044.121s-.036-.018-.036-.012c-.009.059-.006.115-.034.088a.384.384,0,0,1,.039.125c.006.082-.039,0-.045-.046-.019-.149-.084.12-.038.205,0,.007.013-.02.022-.016l-.029.051h0c-.008-.01-.022.067-.023.008,0-.044.013-.048.007-.083s-.02-.137-.033-.117a.241.241,0,0,0-.022.1c0,.065-.026.012-.026.012a.951.951,0,0,0,0,.251l-.035.061a.512.512,0,0,0-.016-.229c-.011.019-.039.024-.034.079,0,.013,0,.126.014.047s.03.06.018.134l-.043.074v-.026a.566.566,0,0,0,.024-.116c0-.032-.011-.01-.017-.006l-.008-.108c-.007-.006-.013,0-.021,0,0,.07.036.184,0,.243a.157.157,0,0,0-.019.07l-.021.035a.351.351,0,0,1-.01-.172c.008-.014.046.06.038-.014,0-.041-.013-.075-.019-.114.008.073-.082.079-.075.219,0,.058.01.113.017.166l-.015.027c-.01-.056-.029-.117-.032-.133-.006-.032-.019-.061-.022.007,0,.023-.043.166-.039.068-.007.009-.057.128-.063.087l.015.1c-.031.062-.027-.092-.053-.07s-.04.155-.012.1a.235.235,0,0,0-.026.14c0-.023-.056-.062-.056-.062,0,.022.028.062.008.1,0,.044-.024-.056-.022-.042.04.152-.059.11-.058.106-.016.08.045.111.012.178s-.036-.032-.058,0-.02.16-.028.175c-.025.05-.035-.07-.072.039-.011-.153-.063.11-.068.163.016-.158-.1.042-.065.094-.017-.023-.014-.085-.048.007a.373.373,0,0,0-.023.143c0-.056.057-.069.069-.043,0,0,.025.089.033.081s.014-.024.021-.026c.028.024-.015.063-.017.1l-.013.031c-.01-.042-.012-.09-.024-.132v0c0-.009-.007-.013-.011-.014h0a.01.01,0,0,0-.011,0,.458.458,0,0,0,.047.15L31,47.675a.8.8,0,0,0,0-.1c-.014-.064-.031.081-.053.027-.008-.02-.048-.076-.062-.063.006,0-.012.267-.041.186-.019-.051-.023-.023-.034.029s-.036.04-.054.068c.033-.045.1.084.114.169l-.031.072c-.024,0-.074.024-.068-.059.005-.063-.009-.1-.034-.1s0,.124-.028.134l-.038-.024c-.008.014-.007.077-.02.109-.031.035-.034.046-.028.109.018.036-.031.073,0,.121a.146.146,0,0,0,.062.057c-.019.043-.038.086-.059.128a.117.117,0,0,1,.008-.025c.026-.064-.023-.071-.041-.025-.06.145-.058.2-.035.2-.015.034-.03.068-.045.106l0-.012c-.014-.047-.054.086-.082.1-.064.04.016.077.009.065s.01-.015.017-.013l-.036.089c-.012-.011-.065-.045-.065-.045-.037.09-.006.092.013.156l0,.016c-.017.044-.034.086-.051.133l-.026.069c-.016-.033-.084.011-.111.015s-.134.147-.075.179.105-.145.138-.108a.016.016,0,0,0,.015,0c-.025.066-.05.135-.076.206a.107.107,0,0,0-.089.007c-.051.032-.125-.011-.145.136-.016.117.039-.014-.016.128-.038.1.033.091.022.16-.008.049-.066.005-.08-.008-.021.048-.066.165-.047.2,0,.007.1-.141.048,0-.011.029-.094.281-.1.183-.023-.32-.1.118-.115.157.053-.155.181-.13.213-.074l-.04.115a.077.077,0,0,1-.066,0c.007.043.018.11-.023.133s-.053-.151-.141-.052c-.051.057.045.072,0,.183-.056.16.084.032.039.16.05-.142.027-.133-.021-.154,0,0,.043-.035.085-.065l.067-.047-.069.2,0,0-.033.1a.047.047,0,0,0-.022.026.2.2,0,0,0-.007.058l-.041.123c-.034.014-.026-.05-.01-.1.055-.155-.123.021-.105.093-.015-.058,0-.162-.085.028-.019.043-.066.217,0,.125s.037-.021.043.051c0,.028.064.05.032.116-.019.039-.073-.013-.1,0s-.027.089-.046.1-.012-.064-.032-.066c-.039.116.036.215.106.1-.02.061.019.039.036.043l0,.01a.092.092,0,0,0-.035.106c-.023.068-.045.137-.068.206a.31.31,0,0,0-.082.135c-.01.028.007.03.03.025l-.116.358c-.009-.068-.015-.139-.08-.052-.079.106.043-.236.043-.23,0-.127-.127.118-.149.182-.009.028-.139.233-.051.214.041-.009.047.052.075.046-.1.021-.164.082-.086.174a.675.675,0,0,1,.1.133l-.031.1c-.089.027-.216,0-.312.195-.041.081.122,0,.141.033a.189.189,0,0,0-.144.184c.017.074.143-.174.131-.012.04.168-.335.219-.356.5.056-.028-.095.3-.014.255.031-.017.112-.176.1-.054,0,.032-.222.265-.169.3.022.016.21-.143.1.075a1.659,1.659,0,0,1,.105-.137c-.031.1-.064.209-.093.308,0,0-.008-.011-.006-.027,0-.038.029-.1.031-.132s-.065.043-.126.116c-.006.008-.031.039-.1.115-.092.06-.2.572-.227.662.059-.045.259-.4.319-.481a.438.438,0,0,1-.071-.03.467.467,0,0,1,.154-.148c-.026.087-.051.171-.075.253-.006-.02-.025-.006-.073.094-.028.092-.127.171-.169.237-.011.017.034.09.1-.029.035-.045.056-.06.064-.051-.013.047-.025.088-.038.133-.058.058-.182.065-.249.215-.04.091-.1.2-.137.292-.026.062-.007.124.032.054.062-.112.028-.159.142-.252a1.7,1.7,0,0,1,.116-.152c0,.009-.008.053-.015.1,0,.008-.005.012-.007.021a.161.161,0,0,0,0,.037c0,.025,0,.05-.007.072l-.007.02a.077.077,0,0,0,0,.071c-.042.048-.1.1-.083.148a.34.34,0,0,0-.017.072c-.127.094-.217-.115-.32.194-.027.08-.058.387-.064.4-.039.075-.132.132-.133.221.009.019.008.08.024.092-.016.053-.105.2-.145.332.054-.06-.051.244-.045.288s.056.044.085.079.032.105-.059.314c-.017.039-.1.2-.173.34a1.316,1.316,0,0,0-.074.182c-.028.06-.048.12,0,.109.03-.006.043.021.058.034l-.012.028c-.075.028-.125.078-.057.158a.782.782,0,0,1,.1.131c-.031.035-.061.072-.09.112a.293.293,0,0,0-.251.182c-.041.081.121,0,.14.034a.187.187,0,0,0-.144.183c.013.053.078-.053.112-.063a1.6,1.6,0,0,0-.052.155.4.4,0,0,0,.06-.069c-.02.14-.325.207-.344.468.055-.027-.095.3-.015.256.031-.018.112-.176.1-.055,0,.032-.221.266-.168.3.022.016.209-.143.1.075a1.443,1.443,0,0,1,.1-.136c-.031.1-.063.209-.093.307,0,0-.007-.01-.006-.027,0-.037.029-.1.032-.131s-.066.043-.127.115c-.005.008-.031.04-.1.115-.093.061-.2.572-.227.662.058-.045.258-.4.318-.481,0,.005-.062-.027-.07-.03a.477.477,0,0,1,.153-.148c-.026.087-.051.171-.075.253,0-.02-.025-.006-.073.094-.028.092-.126.171-.169.237-.011.018.035.09.106-.029.034-.045.055-.06.064-.051-.014.047-.026.088-.038.133-.059.058-.183.066-.25.216-.04.091-.1.2-.136.291-.027.062-.007.125.032.055.062-.112.027-.16.141-.253.014-.019.117-.162.116-.152a1.667,1.667,0,0,0-.029.3l0,.02c-.043.051-.114.1-.087.156a1.055,1.055,0,0,0,.069-.088l-.015.058-.007.029c-.162.242-.264-.1-.383.262-.026.08-.058.388-.064.4-.038.076-.132.132-.133.221.01.02.009.08.024.092-.016.054-.105.2-.144.333.054-.06-.051.243-.045.288s.055.044.084.078.032.105-.058.314c-.017.039-.105.2-.173.34s-.122.3-.04.2c.051-.029.186-.289.121-.228a1.687,1.687,0,0,0,.335-.408c-.1.234-.3.511-.428.761-.153.306.109-.084.136-.129.076-.121.178-.32.25-.43-.011.044-.021.087-.031.131,0-.025-.027.007-.115.238-.085.285-.109.2-.16.224-.215.349.022.177.13,0,.022-.037.043-.074.062-.108l-.017.069a1.7,1.7,0,0,1-.145.235c-.018.022-.223.223-.237.322-.011.022-.143.382-.133.375.029-.022.09-.127.094-.094a2.974,2.974,0,0,0-.15.676c-.015.115-.025.218-.031.291a.56.56,0,0,0,0,.11,2.5,2.5,0,0,1,.155-.387c.048-.057.044.019.155-.219.013-.028.021-.052.029-.074-.01.05-.022.1-.032.153-.058.1-.118.212-.177.325-.145.275-.255.559-.2.56s0,.149-.027.291a4.587,4.587,0,0,1-.08.53c-.044.166.109-.152.087-.076-.04.142-.181.465-.176.514.007.071.132-.18.105-.033-.064,0-.2.405-.1.3.138-.155.058-.127-.012.16-.074.3.108-.163.126-.171.079-.1-.106.354-.081.32a.778.778,0,0,0,.116-.292,1.477,1.477,0,0,1,.09-.158l-.006.052h0a1.059,1.059,0,0,0-.1.238l-.133.265c-.146.305-.021.12-.019.164,0,.138-.067.447-.075.614,0,.05-.034.239.015.169,0,.053.1-.174.166-.328l-.01.07c-.031.088-.069.191-.108.3a.3.3,0,0,0,.068.351.082.082,0,0,1,.027,0l.031-.057c0,.01,0,.021,0,.031s-.011.02-.017.028.011.015.017.022c0,.11,0,.22,0,.331,0,.014.006.028.007.042-.013.04-.032.1-.067.193-.028.077.021.029.086-.065,0,.024.006.048.011.072a1.653,1.653,0,0,0-.093.183.557.557,0,0,1,.1-.133l0,.024a1.736,1.736,0,0,0,2.1,1.269c.714-.1,1.441-.115,2.157-.191s1.427-.086,2.149-.228c2.432-.483,4.891-.826,7.338-1.23a21.626,21.626,0,0,1,4.048-.492,1.8,1.8,0,0,0,1.642-1.786,5.467,5.467,0,0,0-.238-1.656c-.313-1.154-.47-2.352-.74-3.52-.865-3.736-1.526-7.521-2.654-11.208-.127-.357-.226-.722-.334-1.084l-.432-2.823a.681.681,0,0,0,0,.136c.015.182-.024.19-.1.2a.515.515,0,0,0-.062.015c-.033-.194-.049-.389-.077-.583.088.013.161-.017.128-.078a.383.383,0,0,1,.019-.3L39.7,46.445c-.008,0-.008-.016-.018-.014-.077.013-.111.112-.106.2.012.184.05.178.089.171a.576.576,0,0,1-.028.191.235.235,0,0,0-.024.051c-.029-.292-.05-.585-.067-.879.054-.022.058-.076-.01-.27l0-.095c.037-.006.038-.008.033-.1l.02,0-.05-.324a.13.13,0,0,1-.018.015c0-.058-.005-.115-.006-.173l.024.158a.09.09,0,0,0,.009-.135c-.012,0-.022-.017-.033-.029,0-.144-.017-.288-.015-.432,0-.043-.007-.085-.008-.128.024.008.047-.006.069-.065.039-.006.074-.1.074-.1,0-.093.075-.1.113-.11.082.081.081.081.036-.1q-.063-.129-.117.018c-.075.1-.114.109-.156.022s-.048-.11-.064-.11a2.8,2.8,0,0,0-.088-.37c-.019-.059-.03-.11-.043-.163a.247.247,0,0,0,.054-.171c0-.072-.027-.081-.073.012,0-.173.069-.3.356-.384a11.435,11.435,0,0,0,4.783-3.144,10.083,10.083,0,0,0,.674-.76l-.03.124c.061-.234,1.415-.891,2.3-4.473.022-.027.2-.077.191-.113.006.022-.092.022-.1-.01,0,0,.079-.012.087-.033s-.008-.069,0-.1c0,.018-.026.019-.047.012.008-.021.015-.043.021-.064l.005,0a.292.292,0,0,0,.031-.18h-.008c0-.021,0-.041,0-.062.032.007.064,0,.057-.065.063.01.059-.2-.061-.173v-.075l.011.009c.009.016-.007.059.034.048a.1.1,0,0,0,.072-.056c-.039-.038.006-.057-.01-.089a.121.121,0,0,0-.045-.045.679.679,0,0,0,.051-.082c.023-.006.028-.045.032-.06A.543.543,0,0,0,47.7,33.5c-.009-.039-.108-.022-.027-.075.042-.042.012-.08-.045-.043a.073.073,0,0,1-.081.011v-.153c.009.012.018.021.025.022a.237.237,0,0,0,.159-.028.025.025,0,0,0-.02-.04c.074.005.045-.121-.012-.138a.088.088,0,0,1,.028-.017c-.023.017.061-.029.013-.007.022-.01.062-.032.05-.046S47.607,33.115,47.549,33.073ZM27.365,58.716l-.007-.043c.015-.025.03-.052.046-.08Zm.74-2.554-.013-.008.023-.03Zm-.655,2.171c-.009.025.008.025.026.022-.053.091-.1.179-.152.271a.118.118,0,0,0-.04.038c-.061.083,0-.1.028-.186C27.346,58.446,27.394,58.4,27.45,58.333Zm12.482-9.446a1.75,1.75,0,0,1,0,.28c-.019-.1-.043-.191-.062-.287C39.917,48.814,39.925,48.809,39.932,48.887Zm-.247-1.714c.2.058.167.156-.021.283l0,0c-.013-.112-.03-.223-.042-.335A.275.275,0,0,0,39.685,47.173Zm1.322-8.013a13.727,13.727,0,0,1-3.689,2.212,1.972,1.972,0,0,0-1.3,2.1,16.406,16.406,0,0,0,.465,4.3c.593,1.9,1.09,3.838,1.613,5.768v.021a.294.294,0,0,0-.047.137c.01.091.053.055.085-.02l.023.085-.017.017.018.158c.018-.019.009.079,0,0a.39.39,0,0,0-.02.2l-.009.1c.018-.019.037-.039.073.1.045.04.045.039-.01.1l-.037.039.063.2a.209.209,0,0,1,.055.119c-.01.1-.038.218-.048.318a.431.431,0,0,0,.029.236.66.66,0,0,1,.053.209c.012.076.03.055.067.014.006-.1.024-.117.036-.041a2.808,2.808,0,0,1-.008.638c-.024.118-.024.118-.006.1s.048.034.078.089c.042.131.06.109.06.109-.012-.076.018-.021.024.152.035.228.035.228.083.261.018-.022.036-.044.024-.12.018-.021.018-.021.048.032a1.384,1.384,0,0,1,.025.421c-.017.021-.019.023-.031-.053s-.024-.151-.072-.183c-.03-.054-.036.044-.006.1a.89.89,0,0,1,.02.247,2.988,2.988,0,0,0,.086.533c.074.365.089.438.14.465l.07-.091c0-.1-.056-.385-.092-.34-.018.022-.035.045-.05-.028l.018-.023c.017-.022.035-.044.023-.212,0-.095.006-.189.021-.117.032.051.065.1.086-.017a.482.482,0,0,0-.009-.26c-.015-.072-.029-.144-.012-.166a1.128,1.128,0,0,1,.071.454,2.015,2.015,0,0,0,.038.405c.029.144.044.217.012.167a.343.343,0,0,0-.006.19c0,.095.015.073.032.05.039-.141.08.169.072.456a1.365,1.365,0,0,1-.045.429c-.035.047-.017.116.019.255a.512.512,0,0,0,.07.184l-.017.024c-.017.117-.017.117.036.139.034-.048.087.066.087.066.035.045.035.138.017.069l-.034.048c.036.138-.014.4-.049.354-.017.024-.018-.07-.018-.07.017-.024.017-.024,0-.094l-.017.024c-.034.049-.017.119.019.258.053.115.054.208.019.163-.018-.069-.017.025.018.07a.04.04,0,0,0,.069,0c.051-.074.051-.074.035.045s-.016.119.036.139c.035.044.086-.03.1-.055l.068-.1.072.369c.086.352.161.433.227.332l.051-.075c-.013.115.027.245.061.194l.041.13-.05.077c-.017.025-.034.05.008.181.02.065.041.13.024.156.054.014.054.013.021.065-.013.116-.091-.054-.157-.341-.024-.156-.1-.236-.169-.226-.088.035-.051.465.036.43.054.014.1.146.025.157-.033.051-.033.051-.029.142.021.066.021.066.037.041,0,0,.054.014.095.145.075.08.075.08.005.092-.05.077-.066.1-.029.143,0,0,.037.04.054.014s.091.054.144.067c.095.144.095.144.119-.091a.949.949,0,0,0,0-.39c-.065-.287-.081-.648-.027-.634.017-.025.037.039.058.1l.016-.024.045.225a.708.708,0,0,0,.024.148c.061.193.081.648.028.636s-.049.078-.033.052c.02.067.045.125.028.152l-.032.053c-.024-.062-.04-.036-.072.017a.246.246,0,0,0,0,.2.585.585,0,0,1,.037.239c-.032.052-.032.053.047.124.055.008.095.044.111.017l.078.07c.047.123.07.185.047.123a.222.222,0,0,0-.009.115L40.457,64c-.023-.062-.046-.124-.03-.15l.016-.027c-.024-.062-.04-.035-.072.018-.008.115-.055-.009-.046-.124l-.033.054a.186.186,0,0,0-.04.168l.032-.053c.032-.053.078.07.07.186l.039.035c.016-.027.04.035.063.1s.039.035.039.035c.016-.027.016-.027-.007-.089l-.008-.089c.016-.026.04.035.063.1s.023.062.007.089c-.031.054.07.185.1.13s.032-.054.007.089c-.008.116-.032.259-.04.376l-.016.233.055-.2.063-.11c.023.062.023.062.008.089l.018.083a.686.686,0,0,0,.038.126c.078.174.093.147.057,0l.031-.055a.071.071,0,0,1,.052.115.565.565,0,0,0-.01.226c.046.229.041.342-.041.281l-.047.083c.026.059.068.089.083.061.042.031.041.031.052.117.037.144.037.144.057,0,.031-.055.046-.083.072-.025.01.085.026.058.056,0,.007-.012.016-.014.024-.022.048.171.1.342.142.513.157.607-.047.891-.725.908-2.094.053-4.112.648-6.177.863a33.587,33.587,0,0,1-5.734.647c-.358-.024-.508-.128-.452-.58a76.947,76.947,0,0,1,3.712-14.653c1-3.043,1.832-6.134,2.649-9.228a3.307,3.307,0,0,0,.088-.715.986.986,0,0,0-.473-1.017c-.488-.279-.945-.611-1.42-.912a8.442,8.442,0,0,1-2.164-2.223,3.361,3.361,0,0,1-.514-3.177,14.664,14.664,0,0,1,3.526-5.966,10.271,10.271,0,0,1,3.612-2.772,4.769,4.769,0,0,1,4.173.077c.143.072.288.147.435.211a4.262,4.262,0,0,1,2.45,3.853,12.2,12.2,0,0,1,.008,1.392C44.58,35.893,43.038,37.717,41.007,39.16ZM24.858,70.47c-.092.123-.22.126-.185.079a.167.167,0,0,1,.144-.081c.008.009.017.018.015.023l.012-.023A.059.059,0,0,1,24.858,70.47Zm14.9-25.633a.548.548,0,0,0-.023.375c.059.455-.018.467-.113.111s-.1-.45-.016-.37l.078-.011C39.682,44.849,39.721,44.843,39.76,44.837ZM39.7,46.445l-.114-.742.058-.009c.078-.013.12.073.174.343.005.092.01.184-.068.2-.083-.08-.083-.08.005.092a.472.472,0,0,1,.026.459c.006.093-.038.007,0-.091C39.764,46.532,39.75,46.456,39.7,46.445Zm-.136-2.876.037-.1,0,.092c0,.092,0,.091-.036.1Zm.4,4.621-.093-.6c.013-.013.026-.014.038.009a.86.86,0,0,1,.079.541C39.972,48.14,39.967,48.164,39.964,48.19Zm-.478-4.518c0,.093,0,.093-.037.1l0-.185C39.481,43.488,39.481,43.488,39.486,43.672ZM26.235,34.747,26.2,34.61l.006.01c.05.027.076.106.053.115C26.256,34.761,26.248,34.759,26.235,34.747Zm-.056-.54a.161.161,0,0,1,.084-.06c.023.038.023.038,0,.136l0,.006c-.011-.008-.02-.018-.019-.028.025-.052,0-.045-.023-.037C26.191,34.251,26.18,34.236,26.179,34.207Zm.076.082c.036.029.11.049.073.061a.308.308,0,0,0-.165.135l-.045-.16a.393.393,0,0,0,.069-.018c.049-.062.048-.016.024-.008-.026.054-.05.062-.026.054A.108.108,0,0,0,26.255,34.289ZM57.247,22.847c-.017-.02-.008-.024.009-.021l.114.083-.01,0C57.3,22.915,57.234,22.869,57.247,22.847Zm1.661,7.529c.011.109.011.109-.009.109s-.046.054-.056.163-.013.109-.033.108-.048.053-.056.107l-.027.053c.007-.054-.013-.055-.061,0-.021,0-.048.051-.055.105,0,0,.02,0,.048-.051.02,0,.02,0,.026.11-.007.054.014.056.034.058.048-.052.06.169.012.22l.02,0c.021,0,.021,0,.028-.053.014-.109.034-.107.04,0,.02.169,0,.167-.063.16-.041,0-.072-.063-.106-.121-.047-.114-.061-.168-.088-.117-.02,0-.041,0-.054-.059-.034-.056-.034-.056-.027.052a1.108,1.108,0,0,0,0,.161.429.429,0,0,0-.007.16c.011.056.153.075.224.028.03-.052.02,0,0,.11a.974.974,0,0,1-.067.268c-.059.1-.059.1-.028.163,0,.112.02.115.052.065.049-.048.07-.045.1.017l.05.066-.072.044-.122-.023a.092.092,0,0,1-.078-.125c.008-.165.008-.165-.03-.061-.061.1-.1.092-.061-.011l-.04-.007-.04-.007a.15.15,0,0,1-.013.161c0,.006-.006.014-.01.021,0,.036,0,.073,0,.11,0-.007,0-.011.012-.022.04.008.049.065.017.114l-.011.053c.02,0,.02,0,.031-.049s.032-.048.072-.04q.044.093.06.012l-.011.054a1.436,1.436,0,0,0,.005.17c.029.063.029.063.081.018.031-.05.031-.05-.012.054-.052.045-.183.07-.18-.041l.023-.107.011-.053c-.02,0-.052.044-.063.1-.034.159-.034.16-.065.208-.012.053-.009-.058.013-.164.03-.045.013-.048-.015-.009A20.674,20.674,0,0,1,56.847,38.5c-.185.526-.535.993-.754,1.51-.251.59-.792.773-1.291,1.012a.892.892,0,0,1-1.034-.362,2.232,2.232,0,0,1-.125-2.087c.431-.953.666-1.972,1.011-2.946a18.073,18.073,0,0,0,.211-9.737,1.885,1.885,0,0,0-.223-.68c-1.013-1.519-1.5-3.414-3.185-4.463a2.411,2.411,0,0,1-.579-.757.931.931,0,0,1-.111-.2.919.919,0,0,1,.516-1.194,1.887,1.887,0,0,1,1.63-.065,5.471,5.471,0,0,1,1.619,1.03A10.576,10.576,0,0,1,56.7,22.214l.071.053a.062.062,0,0,1-.033.011c.053.093.107.185.157.279.075.034.1.058.069.052a.141.141,0,0,0-.005.079l.007.015c.024-.032.057-.026.061.042.017.052.029.029.042.007s.054-.017.069.04.014.056.055.066c.025-.045.026-.044.028.033a.122.122,0,0,0,.029.11l.027.032c-.013.022-.026.044-.053.011a.062.062,0,0,0-.091,0c.02.043.043.085.062.129a.076.076,0,0,0,.07-.043c.014-.022.067-.032.067-.032-.054-.066-.056-.142,0-.153.04.013.044.008.069.124a.549.549,0,0,1-.017.178c-.013.021.038.091.116.2.17.259.145.223.175.183l-.025-.037c-.024-.038-.024-.038.045-.06.005-.008.017-.006.027,0-.025-.047-.027-.091,0-.076a.1.1,0,0,1,.066.059l-.032.042c.005.006.011.008.015.014l.045-.059c-.011-.059-.011-.059-.076-.116a.183.183,0,0,1-.064-.057.18.18,0,0,0-.041-.119c0-.008,0-.012,0-.02-.014-.058-.027-.117,0-.079l.028.037c.029.036.081.117.106.157s.067.06.081.04c0-.08.11.081.115.223.018.124-.013.162-.022.1s-.048-.073-.079-.068a.829.829,0,0,0,0,.117c.016.12,0,.138-.038.117-.077-.042-.107,0-.047.057.068.119.053.138.006.194-.07.017-.063.074-.025.094.022.039.022.039.006.057-.031.036-.01.075.042.08.094.085.127.051.085-.032l.033-.036c.032-.036.032-.036.011-.078s-.005-.059.026-.1c.016-.018.033-.038.054,0a.247.247,0,0,0,.1.091.725.725,0,0,1,.142.18c.041.088.04.089-.013.078-.037-.028-.053-.01-.05.051-.017.018-.034.035-.053-.009a.307.307,0,0,1-.026-.1c0-.059,0-.059-.076-.049l-.032.036.021.041c-.017.018,0,.059,0,.059a.387.387,0,0,1,.028.161c.005.119.024.162.04.145s.018-.016,0,.059a.184.184,0,0,0,.021.1c.036.026.054.011.03-.151.012-.136.065-.126.09.038.04.086.038.149,0,.18.052.014.088.044.123.134.054.076.053.075-.018.015-.053-.074-.053-.074-.017.016a.481.481,0,0,1,.036.15c-.018.014-.018.014-.036-.03l-.053-.134c-.035-.03-.053-.014-.035.09-.018.075-.018.074.018.044.016-.014.072.058.086.105s.05.078.068.064c.016.047-.044.269-.078.237l.013.04a1.255,1.255,0,0,1,.044.139c.037.13.049.173.087.149.05.018.05.019.082.207a.3.3,0,0,0,.07.222c.049.131.079.169.108.1.038-.02.058-.031.087.008.06.077.071.126.032.145-.078.038-.079.038-.049.238.022.15.022.15,0,.158a.9.9,0,0,0,.035.463c0,.051,0,.051-.015.058s-.041.014-.045-.037-.01-.1-.03-.095c-.04.015-.031.115-.006.159.045.038.02.2,0,.158-.081.025-.1.08-.051.118.067.032.048.091-.011.159-.018.056-.018.056.006.153l.023.046-.005-.1c.021,0,.021,0,.023.046a.38.38,0,0,0,.047.145c.041-.009.043.043.023.048-.038.061-.033.163.007.156,0,0,0,.052,0,.105l-.041.007s-.021,0-.041.06c-.042.112-.042.163-.021.16V29c-.02.055,0,.053.062-.062.041-.059.041-.006,0,.053s-.041.215-.021.212.041,0,.041-.057l.02,0c0,.053,0,.106-.02.108-.023.056-.024.056.018.051.02,0,.021,0,.022-.056s.021-.055.041-.058c0,0,0,.053,0,.107,0,0,0,.054.018.052s.018.051.015.1c-.03.218-.053.273-.094.276-.021,0-.044.056-.044.056,0,.053-.005.107-.025.108a.622.622,0,0,0-.006.32c.015.053.036.054.107-.056.046-.055.067-.056.062,0A1.36,1.36,0,0,1,58.908,30.376ZM57.539,23.1a.118.118,0,0,0-.013.093c-.046,0-.118.031-.1,0a.306.306,0,0,0,.046-.208l.135.1a.391.391,0,0,0-.043.057c0,.079-.028.042-.014.021C57.54,23.1,57.553,23.082,57.539,23.1Zm.1.111a.151.151,0,0,1-.029.1c-.041-.016-.041-.015-.081-.11,0,0,0,0,0-.007s.025,0,.031.01c.013.057.027.036.041.016C57.6,23.186,57.616,23.192,57.635,23.214ZM64.963,4.349c-.03-.016-.024-.024,0-.028l.172.052h-.013C65.065,4.407,64.963,4.381,64.963,4.349Zm.514.31-.005-.008a.046.046,0,0,1,.041,0c.048.062.05.032.052,0-.021-.042,0-.042.034-.024a.219.219,0,0,1,.032.129C65.577,4.754,65.578,4.755,65.477,4.659Z"/></svg>