<svg id="Layer_1" data-name="Layer 1" xmlns="http://www.w3.org/2000/svg" viewBox="0 0 75 75"><path d="M68.366,35.114q0,1.583,0,3.164a17.594,17.594,0,0,1-2.858,9.261,34.691,34.691,0,0,1-7.131,8.032A35.984,35.984,0,0,1,50.367,60.9a39.966,39.966,0,0,1-5.935,2.569A44.63,44.63,0,0,1,39.4,64.627a41.286,41.286,0,0,1-8.891.243,13.456,13.456,0,0,1-5.326-1.449c-2.329-1.142-4.723-2.154-6.983-3.435a21.3,21.3,0,0,1-4.756-3.52,11.352,11.352,0,0,1-2.91-5.3A23.692,23.692,0,0,1,9.892,42.7c.207-1.856.177-3.706.322-5.551a26.605,26.605,0,0,1,.94-5.827A19.276,19.276,0,0,1,15.1,24.442a18.815,18.815,0,0,1,3.263-3.03A13.491,13.491,0,0,0,19.6,20.289a55.117,55.117,0,0,1,7.022-5.467,23.42,23.42,0,0,1,7.01-2.84,42.223,42.223,0,0,1,4.317-.97,23.286,23.286,0,0,1,3.335-.148c1.3-.014,2.611-.05,3.908.05a42.224,42.224,0,0,1,8.031,1.175,26.688,26.688,0,0,1,3.51,1.146,19.223,19.223,0,0,1,7.986,6.438,13.212,13.212,0,0,1,1.563,3.14,35.922,35.922,0,0,1,1.765,6.017A37.738,37.738,0,0,1,68.366,35.114Zm-3.431-.132h.01v-1.3a29.161,29.161,0,0,0-.3-4.624c-.188-1.177-.62-2.265-.876-3.41-.8-3.6-3.1-6.109-6.055-8.089A15.862,15.862,0,0,0,53.024,15.4a30.556,30.556,0,0,0-3.973-.858,62.98,62.98,0,0,0-6.425-.654,26.146,26.146,0,0,0-7.536.709,30.538,30.538,0,0,0-5.41,1.861,20.641,20.641,0,0,0-6.054,4.2c-2.025,2.085-4.039,4.179-5.891,6.418a17.706,17.706,0,0,0-2.909,4.508,29.615,29.615,0,0,0-1.487,4.378,36.9,36.9,0,0,0-1.149,6.366,25.794,25.794,0,0,0,1.041,9.128,7.137,7.137,0,0,0,2.4,3.656,28.022,28.022,0,0,0,7.494,4.363,11.138,11.138,0,0,1,1,.485,15.71,15.71,0,0,0,7.252,1.99,1.23,1.23,0,0,1,.548.07,5.361,5.361,0,0,0,2.015.226c.821.073,1.585-.3,2.38-.292A18.148,18.148,0,0,0,40,61.506a22.453,22.453,0,0,0,3.755-.952,36.925,36.925,0,0,0,13.506-8.6c.257-.268.542-.511.814-.764a13.688,13.688,0,0,0,1.863-1.771,35.406,35.406,0,0,0,3.095-4.391,15.017,15.017,0,0,0,1.9-6.514C64.964,37.341,64.935,36.161,64.935,34.982Zm-42.46,6.79c-.239-3.753,1.313-6.973,3.236-10.043A36.973,36.973,0,0,0,28,27.7a5.351,5.351,0,0,1,1.933-2.187A15.219,15.219,0,0,1,35.357,23.2c4.013-.879,3.069-.836,6.777-.826.683,0,1.366,0,2.049,0a9.3,9.3,0,0,1,6.649,2.819,8.9,8.9,0,0,1,2.353,3.725,19.833,19.833,0,0,1,1.365,6.675A14.967,14.967,0,0,1,52.3,43.325a3.43,3.43,0,0,1-.453.584c-1.22,1.236-2.409,2.507-3.685,3.684a12.745,12.745,0,0,1-5.1,2.935,14.929,14.929,0,0,1-3.069.65,18.178,18.178,0,0,0-2.927.4,15.665,15.665,0,0,1-4.551.377,14.134,14.134,0,0,1-4.154-.829,7.925,7.925,0,0,1-5.192-5.17A9.249,9.249,0,0,1,22.475,41.772ZM41.708,24.327a20.964,20.964,0,0,0-5.969.832A11.434,11.434,0,0,0,32.3,26.483,9.519,9.519,0,0,0,29.4,29.014c-.663.9-1.232,1.854-1.838,2.784a21.319,21.319,0,0,0-2.623,5.894,12.316,12.316,0,0,0-.158,6.753,5.534,5.534,0,0,0,3.63,4.108,18.747,18.747,0,0,0,3.926.964,9.919,9.919,0,0,0,3.491-.16,17.462,17.462,0,0,1,3.465-.561,9.151,9.151,0,0,0,2.89-.524,13.05,13.05,0,0,0,4.738-2.839c.617-.608,1.217-1.233,1.842-1.833a11.868,11.868,0,0,0,1.848-2.538c1.222-2.028,1.29-4.337,1.581-6.588a3.258,3.258,0,0,0-.131-.908c-.05-.3-.126-.6-.156-.907a11.86,11.86,0,0,0-1.27-4.222,6.631,6.631,0,0,0-2.814-2.865,8.48,8.48,0,0,0-4.949-1.248C42.626,24.347,42.376,24.327,41.708,24.327ZM33.277,37.406a6.705,6.705,0,0,1,2.278-5.561c.279-.243.565-.48.83-.736a3.054,3.054,0,0,1,2.175-.851,5.206,5.206,0,0,1,3.032.578,4.912,4.912,0,0,1,2.561,4.2,7.676,7.676,0,0,1-1.584,4.628,12.449,12.449,0,0,1-1.516,1.864,4.075,4.075,0,0,1-3.328,1.14,4.974,4.974,0,0,1-4.445-4.856A1.99,1.99,0,0,1,33.277,37.406Zm2.308-.731h-.009c0,.308.009.616,0,.924a1.9,1.9,0,0,0,.7,1.447,4.179,4.179,0,0,0,1.837.786.653.653,0,0,0,.493-.174A9.348,9.348,0,0,0,40.91,36.8a3.957,3.957,0,0,0,.5-2.126c-.054-.653-.8-1.69-1.423-1.753a8.242,8.242,0,0,0-2.208.014,2.754,2.754,0,0,0-2.188,2.447A10.928,10.928,0,0,0,35.585,36.675Z"/></svg>