<svg id="Layer_1" data-name="Layer 1" xmlns="http://www.w3.org/2000/svg" viewBox="0 0 75 75"><path d="M46.082,35.01a8.031,8.031,0,0,1-2.309,5.53,9.184,9.184,0,0,1-3.841,2.524c-.357.1-.323.289-.236.567a2.238,2.238,0,0,1,.113.759,17.032,17.032,0,0,0,.993,5.873c.906,2.961,1.436,6,2.131,9,.217.938.343,1.9.594,2.827a4.368,4.368,0,0,1,.191,1.33A1.447,1.447,0,0,1,42.4,64.854a17.322,17.322,0,0,0-3.251.395c-1.965.324-3.939.6-5.892.988-.58.114-1.151.122-1.726.183s-1.159.07-1.732.153A1.394,1.394,0,0,1,28.073,65.3a3.91,3.91,0,0,1,.051-.967A66.363,66.363,0,0,1,30.743,54.07c1.036-2.773,2.02-5.566,3.025-8.352.109-.3.181-.621.311-.913.122-.275.135-.45-.18-.6a9.419,9.419,0,0,1-3.162-2.472,6.311,6.311,0,0,1-1.393-4.309,8.16,8.16,0,0,1,.981-3.7,16.474,16.474,0,0,1,3.353-4.229,8.966,8.966,0,0,1,5.186-2.336,6.605,6.605,0,0,1,6.226,3.5A11.63,11.63,0,0,1,46.082,35.01Zm-2.408-.02a9.742,9.742,0,0,0-.006-1.118A3.424,3.424,0,0,0,41.7,30.778c-.118-.051-.234-.111-.349-.169A3.829,3.829,0,0,0,38,30.547a8.246,8.246,0,0,0-2.9,2.226,11.778,11.778,0,0,0-2.832,4.791,2.7,2.7,0,0,0,.413,2.551A6.771,6.771,0,0,0,34.419,41.9c.381.242.748.508,1.14.732a.793.793,0,0,1,.38.817,2.629,2.629,0,0,1-.071.574c-.656,2.485-1.321,4.967-2.127,7.41A61.777,61.777,0,0,0,30.76,63.2c-.045.363.076.446.363.465a26.925,26.925,0,0,0,4.605-.519c1.658-.173,3.278-.651,4.96-.693.544-.014.708-.242.582-.729-.227-.871-.522-1.729-.682-2.612-.426-2.348-1.062-4.642-1.7-6.936-.5-1.8-.946-3.611-1.5-5.39a13.163,13.163,0,0,1-.373-3.45,1.583,1.583,0,0,1,1.047-1.685,11.034,11.034,0,0,0,2.962-1.776C42.655,38.716,43.893,37.251,43.674,34.99ZM8.487,36.731A16.887,16.887,0,0,1,8.6,38.856a21.183,21.183,0,0,0,.162,3.68,27.813,27.813,0,0,0,2.25,7.372c.694,1.293,1.521,2.409,3.14,2.58a3.733,3.733,0,0,1,.544.2c.425.121.636-.068.524-.464A24.732,24.732,0,0,0,13.959,48.2a24.38,24.38,0,0,1-2.039-9.571,32.713,32.713,0,0,1,.261-6.568A31.746,31.746,0,0,1,13.31,27.18a54.692,54.692,0,0,1,3.55-7.742,23.66,23.66,0,0,1,2.747-4.212c1.7-2.114,3.414-4.213,5.117-6.323.068-.085.14-.262.1-.316a.559.559,0,0,0-.336-.155,2.523,2.523,0,0,0-1.782.622,26.369,26.369,0,0,0-4.818,4.189,25.337,25.337,0,0,0-3.969,5.222,50.127,50.127,0,0,0-3.608,7.492,26.043,26.043,0,0,0-1.69,8.876A7.875,7.875,0,0,0,8.487,36.731Zm55.805-3.576c0,.259-.014.519,0,.776a17.487,17.487,0,0,1-1.241,7.177c-.29.786-.607,1.562-.933,2.334a2.461,2.461,0,0,0-.139,1.519,1.359,1.359,0,0,0,2.237.8,4.562,4.562,0,0,0,1.4-1.824,22.615,22.615,0,0,0,1.822-7.455,43.978,43.978,0,0,0-.663-10.389,59.133,59.133,0,0,0-1.618-6.932,17.514,17.514,0,0,0-2.89-5.431A8.367,8.367,0,0,0,59.059,11.3a1.967,1.967,0,0,0-.56-.125.723.723,0,0,0-.7.237.823.823,0,0,0-.1.909,3.126,3.126,0,0,0,.576.764,13.883,13.883,0,0,1,1.7,2.108,23.033,23.033,0,0,1,3.1,7.451c.113.5.149,1.012.248,1.518.358,1.823.677,3.66.882,5.506a31.667,31.667,0,0,1,.024,3.487Zm-9.307-2.342c-.041-.508-.223-1-.3-1.512a8.5,8.5,0,0,0-2.8-5.166,4.392,4.392,0,0,0-1.3-.827,1.516,1.516,0,0,0-1.309.052.739.739,0,0,0-.325,1.122,1.919,1.919,0,0,0,.465.608c1.357.842,1.744,2.364,2.557,3.584a1.5,1.5,0,0,1,.179.546,14.517,14.517,0,0,1-.169,7.819c-.277.782-.466,1.6-.812,2.365a1.793,1.793,0,0,0,.1,1.676.718.718,0,0,0,.831.291c.4-.192.835-.339,1.036-.813.176-.415.457-.79.606-1.212A16.606,16.606,0,0,0,55,32.812C55,32.107,55.037,31.456,54.985,30.813ZM24.256,28.1a11.423,11.423,0,0,0-2.792,4.343,27.562,27.562,0,0,0-.934,3.916,5.542,5.542,0,0,0,1.675,5.6,1.232,1.232,0,0,0,.339.167,1.076,1.076,0,0,0,.141-.346c.024-1.031.05-2.061.042-3.091a17.765,17.765,0,0,1,1.17-7.167,18.954,18.954,0,0,1,1.888-3.355,2.63,2.63,0,0,0,.326-.68c.022-.07-.122-.193-.193-.3A3.549,3.549,0,0,0,24.256,28.1Z"/></svg>