<svg id="Layer_1" data-name="Layer 1" xmlns="http://www.w3.org/2000/svg" viewBox="0 0 75 75"><path d="M21.551,23.564c-.893,1.162-1.973,2.171-2.88,3.338a35.59,35.59,0,0,0-4.923,8.3A71.913,71.913,0,0,0,11.1,42.86a16.331,16.331,0,0,0-.707,4.762,9.755,9.755,0,0,1-.46,3.693,3.757,3.757,0,0,1-.284.589.859.859,0,0,1-1.163.189,3.341,3.341,0,0,1-1.272-2.248,14.339,14.339,0,0,1-.492-4.271,12.1,12.1,0,0,1,.64-4.629,49.077,49.077,0,0,1,2.914-7.819c.525-1.045,1.137-2.047,1.738-3.052.565-.945,1.136-1.89,1.762-2.8.666-.963,1.355-1.917,2.113-2.809a52.827,52.827,0,0,1,5.381-5.831,28.979,28.979,0,0,1,5.717-4.446,3.115,3.115,0,0,1,1.469-.378,1.206,1.206,0,0,1,1.23.751,1.309,1.309,0,0,1-.306,1.612c-1.344.922-2.408,2.158-3.664,3.171A24.992,24.992,0,0,0,21.551,23.564Zm46.2,9.3a7.525,7.525,0,0,0-.761-2.052,2.95,2.95,0,0,0-1.32-1.432.723.723,0,0,0-1.01.509,5.208,5.208,0,0,0,.247,2.172,2.927,2.927,0,0,1,.048,1.953,9.316,9.316,0,0,0-.26,2.621,14.505,14.505,0,0,1-.109,1.983,40.735,40.735,0,0,1-2.955,9.636,17.632,17.632,0,0,1-1.227,2.339c-.883,1.348-1.877,2.623-2.769,3.965a26.881,26.881,0,0,1-6.938,7.02,19.489,19.489,0,0,0-2.124,1.571,1.621,1.621,0,0,0-.382,2.188,6.241,6.241,0,0,0,.47.741,1.254,1.254,0,0,0,1.4.414,8.8,8.8,0,0,0,1.782-.856,27.5,27.5,0,0,0,6.3-5.135c.811-.948,1.675-1.857,2.414-2.859,1.131-1.536,2.26-3.086,3.237-4.721a30.944,30.944,0,0,0,3.924-10.681,14.292,14.292,0,0,0,.53-4.652C68.521,36.023,67.879,34.471,67.754,32.86ZM44.789,36.693a6.907,6.907,0,0,1,.452,6.34,19.256,19.256,0,0,1-2.951,5.136,8.43,8.43,0,0,1-4.136,2.779,4.25,4.25,0,0,1-3.627-.392c-1.1-.723-2.12-1.561-3.156-2.373a1.161,1.161,0,0,1-.281-.572c-.169-.561-.268-1.146-.478-1.69a5.829,5.829,0,0,1-.415-2.7c-.139-2.29.721-4.262,1.351-6.283a1.355,1.355,0,0,1,.334-.56c1.436-1.361,2.831-2.752,4.872-3.247a4.669,4.669,0,0,1,2.8.006,16.17,16.17,0,0,0,1.667.537A5.748,5.748,0,0,1,44.789,36.693ZM42.133,40a2.775,2.775,0,0,0-1.858-2.949,11.3,11.3,0,0,0-1.244-.434,2.317,2.317,0,0,0-2.629.548,2.6,2.6,0,0,1-.7.529c-1.6.856-2.117,2.572-3.113,3.906a.878.878,0,0,0-.111.421A5.563,5.563,0,0,0,35.5,47.674a2.294,2.294,0,0,0,2.3-.089,5.678,5.678,0,0,0,2.172-2.128A30.816,30.816,0,0,0,41.5,42.534,5.309,5.309,0,0,0,42.133,40Zm-11.6-11.653a.394.394,0,0,0-.556-.164,7.745,7.745,0,0,0-.986.481,14.62,14.62,0,0,0-3.67,3.116A15.071,15.071,0,0,0,21.273,41.7c0,.44-.009.88,0,1.32.007.293.035.586.066.878.077.734.164,1.5.969,1.806.557.215,1.269-.5,1.6-1.528a3.4,3.4,0,0,0,.1-.424c.159-.861.326-1.719.47-2.582a19.729,19.729,0,0,1,2.734-7.345,47.072,47.072,0,0,1,2.9-4.124,2.842,2.842,0,0,0,.476-.729A.938.938,0,0,0,30.533,28.349ZM50.794,52.424a3.778,3.778,0,0,0,.468-.47,15.244,15.244,0,0,0,3.754-9.413c.02-.441,0-.884,0-1.327h.017c0-.957.027-1.915-.013-2.87a2.59,2.59,0,0,0-.3-1.043.839.839,0,0,0-.941-.413.706.706,0,0,0-.595.572,14.458,14.458,0,0,0-.432,4.365,7.466,7.466,0,0,1-.538,3.455A15.086,15.086,0,0,1,49.6,49.6,5.175,5.175,0,0,0,48.541,51a1.011,1.011,0,0,0-.036.838A1.34,1.34,0,0,0,50.794,52.424Z"/></svg>