<svg xmlns="http://www.w3.org/2000/svg" viewBox="0 0 62 61"><g id="Page-1"><g id="live-2"><path d="M31.5 19.8a8 8 0 017.7 4.2c.7 1.6 1 3.2 1.1 4.9 0 2.5-1 4.7-2.7 6.5-.8 1-1.9 1.7-3 2.3 0 1.8.2 3.3.7 4.7.5 1.3.8 2.7 1 4l.3.8.4 1.9a119.7 119.7 0 00.6 3l.3 1.3c.2.6.2 1.2.2 1.8a3.3 3.3 0 01-3 3.2 148.3 148.3 0 01-4.5.6l-3.7.6a10.8 10.8 0 01-1.9.2H24.4l-.7.2a3.2 3.2 0 01-3.9-3l.1-1.3c.6-3.4 1.4-6.6 2.5-9.8l2-5.5.6-1.7-1-1-1.3-1.4a7.8 7.8 0 01-1.7-5.2c0-1.5.4-3 1.2-4.3.9-1.6 2-3.1 3.4-4.4 1.7-1.5 3.7-2.4 6-2.6zm5.2 8.2v-1.1c0-1.4-.8-2.6-2-3.1l-.3-.2c-1.1-.5-2.3-.5-3.4 0a8.2 8.2 0 00-2.9 2.2c-1.3 1.3-2.3 3-2.8 4.8-.3.8-.2 1.8.4 2.5.4.7 1 1.3 1.7 1.8l1.2.7c.2.2.4.5.3.8v.6l-2.2 7.4a61.8 61.8 0 00-3 11.8c0 .4.1.4.4.5 1.6 0 3.1-.2 4.6-.6 1.7-.1 3.3-.6 5-.6.5 0 .7-.3.6-.8a77.7 77.7 0 00-2.4-9.5l-1.5-5.4c-.3-1.1-.4-2.3-.4-3.5 0-.7.4-1.4 1-1.6 1.1-.5 2.1-1 3-1.8 1.7-1.2 2.9-2.6 2.7-5zM17 1h1.2l-.4.7c-1.4 2.5-3 4.5-4.7 6.6a54.4 54.4 0 00-6.4 12A31.2 31.2 0 007.4 41c.6 1.3 1 2.7 1.3 4.1-1 1-1.3 1-1.6 1-1.8-.3-2.8-1.5-3.5-3-1.2-2.4-2-4.9-2.3-7.5C1 34.4 1 33.1 1 32L1 29.8l.1-2c0-3.1.7-6.2 1.7-9 1-2.6 2.3-5.2 3.7-7.6 1.1-2 2.5-3.7 4-5.3 1.5-1.6 3.1-3 4.9-4.2A3 3 0 0117 .9zM51 3.6l1.3.1c1.4.6 2.6 1.5 3.5 2.6a18 18 0 013 5.6 59.7 59.7 0 012.2 17.5c-.1 2.6-.8 5.2-1.8 7.6a5 5 0 01-1.6 2 1.9 1.9 0 01-1.8.4 1.9 1.9 0 01-1.2-1.4 3 3 0 01.2-1.9l.9-2.3a17 17 0 001.2-7.5v-3.7a66.5 66.5 0 00-1.2-7c-.6-2.5-1.6-5-3-7.2-.5-.8-1-1.4-1.7-2-.2-.3-.5-.6-.6-1a1.3 1.3 0 01.1-1.4l.5-.4zm-9 11.8c.6-.4 1.4-.4 2-.1.7.2 1.2.6 1.7 1a9.5 9.5 0 013 5.8l.2.5.2 1v2.1a17.6 17.6 0 01-1.7 7.7c-.5 1.1-1 1.4-1.6 1.7l-.5.2c-2.6-1.4-2.4-2.5-2-3.3V32c.3-.5.4-1 .5-1.4l.3-.9c.7-2.3.8-4.8.2-7.2l-.8-1.5-.2-.4c-.3-.6-.7-1.3-1.3-1.7a3 3 0 01-.8-1 1.7 1.7 0 01.8-2.4zM19.6 19l.3.9c.2 1 0 1.4-.3 1.7-.7 1-1.3 2-1.8 3.2-.8 2.2-1.2 4.4-1 6.7a92.8 92.8 0 01-.1 4.3c-.5 0-1-.2-1.4-.4a4.7 4.7 0 01-2.6-2.7 6 6 0 01-.1-3.7c.2-1.3.5-2.6 1-4 .6-1.8 1.6-3.4 3-4.7a4.5 4.5 0 013-1.3z" id="Shape"/></g></g></svg>