<svg id="Layer_1" data-name="Layer 1" xmlns="http://www.w3.org/2000/svg" viewBox="0 0 75 75"><path d="M39.693,12.79c.693,0,1.283,0,1.872,0a20.111,20.111,0,0,1,6.623.69,26.474,26.474,0,0,0,3.592.756,14.9,14.9,0,0,1,3.507,1.126,27.4,27.4,0,0,1,4.968,2.661,45.664,45.664,0,0,0,4.216,2.554,15.716,15.716,0,0,1,3.828,3.36,19.8,19.8,0,0,1,1.293,1.678,4.187,4.187,0,0,1,.532,1.107,1.408,1.408,0,0,1-.37,1.616,1.513,1.513,0,0,1-1.79.251,4.608,4.608,0,0,1-1.391-1.069c-.786-.8-1.562-1.605-2.356-2.4a5.228,5.228,0,0,0-1.537-1.169,36.235,36.235,0,0,1-4.095-2.424,38.719,38.719,0,0,0-5.138-2.7,12.97,12.97,0,0,0-1.351-.378,68.986,68.986,0,0,0-7-1.629,9.589,9.589,0,0,0-1.763-.1c-2.713-.009-5.425-.02-8.137.007a6.688,6.688,0,0,0-2.614.291,1.532,1.532,0,0,1-.525.05,34.863,34.863,0,0,0-5.867,1.035,14.4,14.4,0,0,0-3.619,1.344c-1.671.862-3.4,1.583-5.138,2.3A32.284,32.284,0,0,0,9.71,25.924a19.1,19.1,0,0,0-3.994,3.684c-.4.551-.91.743-1.17.524a1.11,1.11,0,0,1-.227-1.307,12.281,12.281,0,0,1,1.149-2.372,23.6,23.6,0,0,1,1.86-2.348,14.356,14.356,0,0,1,3.836-3.077,67.4,67.4,0,0,1,7.073-3.56,12.1,12.1,0,0,0,1.75-.831,22.112,22.112,0,0,1,7.394-2.695c1.655-.362,3.335-.6,5.02-.834A66.5,66.5,0,0,1,39.693,12.79ZM31.839,27.665a19.213,19.213,0,0,0-4.1.95c-1.825.644-3.587,1.467-5.365,2.238A12.754,12.754,0,0,0,16.994,35a20.532,20.532,0,0,0-1.645,2.716,1.982,1.982,0,0,0-.143,1.207.641.641,0,0,0,.954.423,3.8,3.8,0,0,0,.551-.436c.552-.533,1.076-1.1,1.643-1.613a17.161,17.161,0,0,1,4.72-3.364c1.3-.55,2.621-1.032,3.921-1.574a18.235,18.235,0,0,1,7.367-1.477,9.705,9.705,0,0,0,1.4-.109,14.7,14.7,0,0,1,3.825-.056A37.529,37.529,0,0,1,47.1,32.356a23.25,23.25,0,0,1,8.828,5.356,6.353,6.353,0,0,0,.628.622,5.245,5.245,0,0,0,1.05.635,1.29,1.29,0,0,0,1.462-.321,1.215,1.215,0,0,0,.3-1.429,3.92,3.92,0,0,0-1.126-1.755q-1.042-.939-2.111-1.848a24.081,24.081,0,0,0-5.691-3.5c-4.052-1.838-6.778-2.79-13.515-2.79A31.156,31.156,0,0,0,31.839,27.665ZM33.8,39.77c-.622.168-1.209.487-1.837.6a8.528,8.528,0,0,0-4.9,2.929c-.584.659-1.138,1.347-1.683,2.039a13.8,13.8,0,0,0-1.971,4.49,2.716,2.716,0,0,0-.032,1.054,1.613,1.613,0,0,0,.237.649.7.7,0,0,0,1.262.05c.131-.2.228-.412.341-.618a35.1,35.1,0,0,1,2.512-3.833,10.9,10.9,0,0,1,2.6-2.633,12.252,12.252,0,0,1,5.456-1.841,25,25,0,0,1,3.183-.066,5.534,5.534,0,0,1,1.4.155c.96.261,1.906.574,2.849.893a11.074,11.074,0,0,1,4.5,3,11.622,11.622,0,0,1,1.215,1.728,1.446,1.446,0,0,0,1.531.64,1.1,1.1,0,0,0,.927-1.278,3.3,3.3,0,0,0-.222-.666,9.762,9.762,0,0,0-1.823-2.8A13.377,13.377,0,0,0,44.3,40.8c-2.149-.811-4.294-1.622-6.634-1.367A11.365,11.365,0,0,0,33.8,39.77Zm1.825,13.087a3.168,3.168,0,0,0-2.121.714,2.612,2.612,0,0,0-1.091,1.735,10.154,10.154,0,0,1-.395,1.159,21.543,21.543,0,0,0-.754,2.694,5.188,5.188,0,0,0,.58,3.909,6.237,6.237,0,0,0,2.783,2.588,5.165,5.165,0,0,0,5.438-.91,7.451,7.451,0,0,0,2.562-4.855,4.709,4.709,0,0,0-.833-3.961c-1.448-1.771-3.161-3.157-5.64-3.072C35.976,52.858,35.8,52.867,35.624,52.857Zm-1.6,4.325a2.431,2.431,0,0,1,2.748-1.337A5.839,5.839,0,0,1,38.914,57a2.035,2.035,0,0,1,.8,1.685,5.415,5.415,0,0,1-2.023,4.122,2.109,2.109,0,0,1-2.019.213,3.229,3.229,0,0,1-1.787-1.357A1.3,1.3,0,0,1,33.7,61c-.027-.468-.009-.939-.009-1.409A5.471,5.471,0,0,1,34.02,57.182Z"/></svg>