<svg id="Layer_1" data-name="Layer 1" xmlns="http://www.w3.org/2000/svg" viewBox="0 0 75 75"><path d="M68.443,37.691a40.687,40.687,0,0,1-3.125,15.181q-1.087,2.6-2.209,5.186a6.161,6.161,0,0,1-.644,1.13A1.993,1.993,0,0,1,58.8,58.171a4.418,4.418,0,0,1,.131-1.5,25.631,25.631,0,0,1,1.294-3.448A36.525,36.525,0,0,0,63.5,42.943a42.562,42.562,0,0,0,.571-9.09,58.023,58.023,0,0,0-.894-8.4,37.138,37.138,0,0,0-2.8-8.182,15.444,15.444,0,0,1-1.252-3c-.09-.4.051-.622.578-.648a1.284,1.284,0,0,1,1,.337,9.936,9.936,0,0,1,1.344,1.419,26.787,26.787,0,0,1,3.865,7.244c.312,1.035.735,2.029,1.038,3.075a27.108,27.108,0,0,1,1.142,6.812,12.778,12.778,0,0,0,.307,2.575A11.57,11.57,0,0,1,68.443,37.691ZM5.687,49.033a40.717,40.717,0,0,0,1.4,6.773A16.189,16.189,0,0,0,9.4,60.444a2.617,2.617,0,0,0,2.942.763c.343-.135.485-1.433.22-2.267-.11-.343-.29-.664-.433-1-.457-1.064-.959-2.111-1.353-3.2a23.382,23.382,0,0,1-1.068-3.511c-.286-1.485.009-3.039-.4-4.526.47-.959-.236-1.958.12-2.938s.059-2.027.254-3.018c.223-1.138.235-2.324.523-3.416.279-1.06.266-2.139.561-3.191a56.281,56.281,0,0,1,7.093-15.071,8.735,8.735,0,0,1,2.517-2.666c.113-.075.3-.2.287-.276-.028-.244-.272-.247-.465-.281a2.9,2.9,0,0,0-2.4.78,17.269,17.269,0,0,0-2.538,2.681A49.617,49.617,0,0,0,12,24.183,38.854,38.854,0,0,0,7.559,34.258,54,54,0,0,0,5.674,47.075,15.4,15.4,0,0,0,5.687,49.033ZM30.126,35.741a9.767,9.767,0,0,0,.029,2.172,16.3,16.3,0,0,1,.27,3.457c.015.726.09,1.453.066,2.177a5.893,5.893,0,0,0,.593,2.293,1.474,1.474,0,0,0,1.958.849c1.024-.354,2.044-.723,3.046-1.135A50.175,50.175,0,0,0,42.034,42.9a24.169,24.169,0,0,0,2.712-1.8,1.415,1.415,0,0,0,.463-1.925A2.373,2.373,0,0,0,43.647,37.5a8.453,8.453,0,0,1-.789-.363,35.638,35.638,0,0,1-7.48-3.936,5.45,5.45,0,0,0-3.751-.776A1.721,1.721,0,0,0,30.082,34c-.045.578-.009,1.162-.009,1.743Zm2.934,3.7c.112-.334.025-.733.118-1.077.2-.738-.274-1.587.379-2.243a7.366,7.366,0,0,1,2.026,1.182,18.106,18.106,0,0,0,3.622,1.936,5.049,5.049,0,0,1,1.108.661c.165.1.167.241.025.357a3.066,3.066,0,0,1-.511.393q-3.3,1.656-6.608,3.291c-.323.159-.472.023-.473-.4v-1.3A9.325,9.325,0,0,1,33.06,39.445ZM22.3,30.421a4.974,4.974,0,0,0-2.343,2.733,12.439,12.439,0,0,0-1.332,5.2,26.162,26.162,0,0,0,.864,6.406,13.082,13.082,0,0,0,1.506,3.573,1.135,1.135,0,0,0,1.457.606c.638-.276.826-.8.493-1.631a43.125,43.125,0,0,1-2.119-6.8,7.731,7.731,0,0,1-.228-1.7,14.255,14.255,0,0,1,1.5-6.467q.439-.871.861-1.752c.016-.034-.04-.118-.082-.16a.89.89,0,0,0-.173-.109A2.622,2.622,0,0,0,22.3,30.421Zm32.147,5.2A14.87,14.87,0,0,0,52.8,31.178a1.7,1.7,0,0,0-.725-.773.525.525,0,0,0-.4-.023.47.47,0,0,0-.237.332,5.476,5.476,0,0,0,.08,1.07,27.878,27.878,0,0,1,.7,3.8c.1,2.367.379,4.757-.307,7.106a5.319,5.319,0,0,0-.064,1.722,1.247,1.247,0,0,0,.923,1.083,1.3,1.3,0,0,0,1.169-.427,2.006,2.006,0,0,0,.608-1.116,10.824,10.824,0,0,0,.379-4C55.3,38.557,54.739,37.084,54.446,35.621Z"/></svg>