<svg xmlns="http://www.w3.org/2000/svg" viewBox="0 0 172 216.5"><path d="M172 88l-1-10c1-7-2-10-8-12h-5l-4-17a109 109 0 00-35-45c-3-2-7-4-12-4-18 0-35 6-49 18-9 9-17 18-23 29-5 7-9 15-11 23 0 3-2 4-4 5-7 1-8 3-9 10l-2 16c-5 20-7 41-8 63a179 179 0 000 36c1 5 5 9 9 9l26 2 27 3 19 2a261 261 0 0051-2c10-1 20-4 30-8 5-3 8-8 8-14l-1-6c-1-21 0-41 2-61V88zM27 112l-2 24-2 26-1 35h-9l1-34 3-40 5-27 1-9c1-4 1-4 5-3a12 12 0 010 2l-1 26zm15-50c7-12 14-23 24-31 8-6 17-11 27-12l9-1a20 20 0 0117 7c8 8 15 17 19 27l5 13h-14a47 47 0 00-11-18c-6-7-13-9-22-9-20 0-32 16-38 30l-2 4H37l5-10zm73 4l-45 4c6-8 12-14 22-15 4-1 8-1 12 1 5 2 8 5 11 10zm47 60l-2 27v40c-4 4-10 5-15 6-33 6-67 6-100-4l-8-2c-2-37 4-74 6-111 39-1 78-4 118-3l2 12a246 246 0 01-1 35zm-58-38c-6 0-14 2-18 8a36 36 0 01-4 5c-5 4-8 9-8 16a30 30 0 007 19c2 3 2 5 2 8l-8 28c-2 9 1 14 10 13l22-3 17-1c3 0 6-2 8-5 2-2-1-4-1-6l-3-10-4-20a8 8 0 011-6 46 46 0 008-17c2-7 0-14-5-19-6-7-15-9-24-10zm8 51l5 22 2 10-32 3 12-33c1-4 1-7-2-10a47 47 0 01-5-9c-3-5-2-10 0-15a8 8 0 015-4c7-3 14-1 21 3 2 1 3 3 3 6a23 23 0 01-6 17c-3 3-4 6-3 10z"/></svg>