<svg xmlns="http://www.w3.org/2000/svg" viewBox="0 0 154.2 214.8"><path d="M151 108a222 222 0 00-17-39 80 80 0 00-9-13c-5-6-6-6-13-3L98 33A72 72 0 0059 3L48 0C31-2 18 3 10 18a53 53 0 00-7 24C2 54 5 65 6 77c1 9 4 17 7 25a9 9 0 01-1 9 113 113 0 00-11 27 14 14 0 002 14 13 13 0 012 3 108 108 0 0038 49c9 7 19 11 30 11l23-4c6-1 10-4 15-7a51 51 0 0021-20l16-29c7-15 8-31 3-47zM18 25c1-8 7-12 14-14 12-3 22 0 32 7 9 6 17 15 23 25l10 16-5 2-8-14c-5-9-12-15-20-21-7-5-20-4-28 3S24 46 23 56c-1 9 0 19 3 28l4 13-7 4c-2-12-5-22-5-33l-2-27a69 69 0 012-16zm69 39L39 92l-1-7-5-27c-1-13 4-24 17-27a15 15 0 0111 2c5 3 10 6 13 11l11 17a25 25 0 012 3zM49 193c-13-9-20-21-28-34l-4-9c-4-7-4-7 0-15 12 35 35 59 72 66-14 3-28 0-40-8zm87-49c-3 14-8 26-17 37a25 25 0 01-20 10c-21 1-38-8-53-23l-7-11-5-8c-8-10-10-21-12-33-1-2 0-3 2-4l28-17 30-16 33-19a12 12 0 012-1c9 15 17 30 20 47a88 88 0 01-1 38zm-33-9c-2-5-5-9-2-15a6 6 0 000-2c1-8-5-17-15-22s-21 5-22 12v8c-1 7 2 12 7 16a8 8 0 013 6l6 28 3 10c0 3 1 7 5 8a39 39 0 005-2c7-5 14-10 22-13l8-6-5-7-15-21zm-7 36a109 109 0 01-6-23l-2-12c-1-6-3-11-9-13-6-3-7-8-6-14a8 8 0 012-4c4-4 14-3 16 3l3 8c0 2 0 5-2 7-2 1-3 4-2 6l6 12 13 17 3 4z"/></svg>