<svg viewBox="0 0 189 265" xmlns="http://www.w3.org/2000/svg"><g id="Page-1" stroke="none" stroke-width="1" fill-rule="evenodd"><path d="M142 167l-1-3-6-9-13-11c-2-2-3-3-2-6l2-7-2-7c-3-4-5-8-9-11l-7-6c-3-2-7-2-10-1l-5 2c-3 3-5 6-5 10l-1 14c0 5 1 9 5 13l5 6 2 3 2 10 3 17 3 7c3 3 6 4 10 3 6-2 11-5 15-9l11-11 3-4zm46 2c1 7 0 14-3 20l-5 10-10 19c-4 7-8 15-15 20l-12 9-10 4-10 5c-6 3-13 6-20 7l-7 1c-9 1-17 0-26-3l-5-3-2-3-7-5c-3 1-5-1-8-2s-6-2-9-5l-10-12h-1v1-1-1 1h-1v-1h0v-1h-1l-1-2c0 1 0 1 0 0v1c0 1 0 1 0 0l-1-1-1-1v1h1v2l1 1h-1-1s1 1 0 0v-1c0-1 0-1 0 0h1l-1-1v-1c0-1 0-1 0 0h-1s0-1 0 0l-1-1v-1l-1-1v-1l-1-1v-1h-1l-1-2v-1h-1 1v2c1 0 1 0 0 0l1 1v1l-1-1v1l-1-1v-1h1v-1h-2-1v-1l-1-1h1v-1h1c0 1 0 1 0 0v-1-1h-3v-1l-1-1v-1-1 1l-1-1 1 1-1-1v-1l-1-2v-1-1l-1-2-1-1v-1l-1-1v-2 1l-1-1v-2-1l1-1v-2-1H5h1v-2 1H5v-1-1-1-1 1a25 25 0 01-1-5v-2-1l1-1v1l1-2v-1-1c0-1 0 0 0 0l-1 1c1 0 0 0 0 0v0-2-1-1-1-1l1-1v-1-1c-1 1-1 0 0 0v-2c0 1 0 0 0 0v-1-2l1-1v-1c0 1 0 0 0 0v-1h1v-1 1h1v-1-1l1-1H9l1-1H9c1-1 0-1 0 0v-1l1-1v-1s0-1 0 0v0c0-1 0-1 0 0v-1h1v-1-1-1h1v1l-1 3-1 1v1l1 1v-1-1a99 99 0 014-14l5-10v-4l-4-16-4-15-2-4-2-4 1-2c1-2 0-3-1-5L3 69c-3-9-3-18-2-26s4-15 9-21l6-7c4-6 9-9 15-12l6-1 10-1c8-1 15 1 22 6l9 10 4 5c4 6 9 11 11 18 1 2 1 2 3 1l4-1c2 1 4 1 5 3l5 8 14 25 2 3c2 0 3 1 4 3l6 8 11 7a198 198 0 0117 9c5 5 11 10 14 16l4 9a122 122 0 016 38zM26 57v8l1 3 1 1 6-2 5-3c5-1 9-4 14-6 5-3 11-6 18-8l11-3 1-2c-4-8-10-15-16-21-1-2-4-3-6-4-8-2-15-2-22 1-6 2-10 6-11 12l-2 24zm-5 15v-2c-3-3-3-7-4-11l-1-17v-8l-1-3-1 2-2 3-3 18 1 15 3 8h2l6-5zm150 60c-2-7-8-10-13-15-5-1-9-4-13-6-5-2-9-5-12-8l-8-8c-3-2-4-5-6-8l-9-14-11-18-3-1-5 2-9 2-10 4-11 3c-6 3-13 6-20 6l-1 3 5 8 13 24 2 3-1 3c-2 1-3 3-4 6l-4 14-4 23v14l1 9 2 8v1l3 9c2 5 5 9 10 12l9 6c5 3 11 5 17 6a294 294 0 0026 3c10-2 20-6 30-11l10-7c10-6 16-15 18-27l1-9 2-10c0-10-3-18-5-27z" id="Shape" fill-rule="nonzero"/></g></svg>