<svg xmlns="http://www.w3.org/2000/svg" viewBox="0 0 172.6 216.5"><path d="M170 144c2-20 4-40 1-60a35 35 0 010-6c1-7-2-10-8-12l-6-1c-1-8-2-16-6-24l-17-23c-4-6-9-11-15-14-3-2-7-4-12-4-18 0-35 5-48 18-17 15-30 33-36 56l-3 1c-7 1-8 2-9 10l-1 10a395 395 0 00-9 60c-1 15-2 30 0 45 1 5 4 9 9 9l12 1 34 3c8 1 16 3 25 3 21 1 43 1 65-4 6-2 13-4 19-8 4-3 6-6 6-12a297 297 0 01-1-48zM42 62c6-11 14-22 24-31 8-6 17-11 27-12l9-1a21 21 0 0118 7c7 8 14 18 19 28l4 12h-14c-2-7-6-13-11-19-6-6-13-8-21-8-21 0-33 15-39 29l-2 5H37l5-10zm73 4c-12 2-42 4-44 3 4-6 9-12 17-14 8-1 15-2 21 4l6 7zm-88 53l-2 21-2 33v25h-7a17 17 0 01-3-1A485 485 0 0124 83h4v2l-1 34zm135 12l-2 39v25c-41 12-82 11-123-2-1-37 4-74 6-111h4l59-2 45-1c13 0 10-1 11 10 2 14 0 28 0 42zm-40-4a21 21 0 01-5 11 12 12 0 00-2 8 76 76 0 01-2 13 15 15 0 01-6 9c-4 3-6 3-9 0a16 16 0 01-4-7 71 71 0 01-1-13c0-3 1-5-2-6-7-3-10-8-10-15 0-8 3-13 9-16a27 27 0 0116-4c8 1 16 10 16 20z"/></svg>