<svg xmlns="http://www.w3.org/2000/svg" viewBox="0 0 195.895 195.253"><title>marketers</title><g id="Layer_2" data-name="Layer 2"><g id="Layer_1-2" data-name="Layer 1"><path d="M167.559,123.989c-5.977.3-11.906-.692-17.864-.754-4.531-.047-4.472,0-5.459,4.258-1.184,5.107-2.22,10.271-3.792,15.261-2.571,8.158-8.139,13.076-16.758,14.437-13.642,2.155-27.257,4.479-40.9,6.633-6.188.978-6.2.87-3.857,7.017.849,2.227,1.767,4.435,2.483,6.706,1.367,4.337.4,7.785-3.529,10.58a41.775,41.775,0,0,1-17.8,7,8.143,8.143,0,0,1-9.123-5.247c-2.319-5.481-4.5-11.028-6.476-16.641-1.008-2.865-2.337-3.578-5.3-2.669-3.628,1.113-7.451,1.588-11.189,2.345a13.264,13.264,0,0,1-11.933-2.938A34.528,34.528,0,0,1,5.427,155.12C2.674,147.694-.019,140.446,0,132.362a11.656,11.656,0,0,1,3.016-8.415c8.922-9.913,17.576-20.07,26.627-29.862C40.962,81.84,52.37,69.662,64.138,57.852A239.407,239.407,0,0,1,86.4,37.732c2.777-2.163,5.363-2.39,8.576-1.128a75.5,75.5,0,0,1,15.572,8.7c2.351,1.643,3.724,1.2,5.256-.964q13.212-18.658,26.553-37.227a30.941,30.941,0,0,1,4.6-5.421,7.43,7.43,0,0,1,9.8.325c1.882,2.008,1.992,5.765-.251,8.516-5.859,7.188-11.925,14.207-17.878,21.32-5.64,6.739-11.2,13.548-16.89,20.244-1.379,1.622-1.177,2.874.009,4.385A112.063,112.063,0,0,1,136.42,80.014c1.24,2.791,3.166,2.126,5.33,1.209,8.331-3.53,16.711-6.944,25.051-10.453,3.95-1.662,7.729-3.766,12-4.561,2.528-.47,4.937-.259,5.972,2.5a4.731,4.731,0,0,1-2.221,6.144c-3.654,2.21-7.1,4.659-11.317,5.993-9.3,2.944-18.444,6.374-27.664,9.571-1.688.585-3.276,1.141-2.322,3.428,2.143,5.135,2.267,10.678,3.12,16.055.531,3.347,2.022,4.2,5.216,4.141,11.2-.2,22.4-.083,33.6-.179a30.815,30.815,0,0,1,8.5.837c2.212.608,3.983,1.843,4.187,4.316.231,2.815-2.08,3.416-4.077,4.2-2.286.9-4.7.742-7.074.761C179.005,124.02,173.282,123.989,167.559,123.989ZM79.835,71.849c0-2.158.051-5.249-.028-8.336-.027-1.058.691-2.557-.709-3.038-.635-.218-1.72.566-2.472,1.084a14.873,14.873,0,0,0-2.07,1.959c-6.978,7.142-14.162,14.1-20.867,21.49-6.873,7.576-14.536,14.4-20.912,22.446A257.652,257.652,0,0,1,11.1,132.068c-2.133,2.081-2.879,3.932-1.679,6.888a166.337,166.337,0,0,0,10.776,20.879c1.934,3.324,4.643,4.734,8.97,3.92,24.761-4.657,49.547-9.176,74.187-14.457.9-.193,2.07-.064,2.315-1.225.221-1.053-.676-1.65-1.437-2.2-7.119-5.176-12.009-12.014-15.531-20.04a75.789,75.789,0,0,1-5.032-17.046C81.5,96.879,78.057,85.106,79.835,71.849ZM93.453,93.467c.228.76.607,2.133,1.051,3.484,1.486,4.524,1.832,4.85,5.878,2.642,7.746-4.226,15.893-7.542,23.937-11.1,1.085-.48,2.15-1.016,3.187-1.593a1.993,1.993,0,0,0,.836-3c-3.784-6.581-6.953-13.543-12.133-19.263-1.445-1.6-2.375-1.833-3.812.011-6.287,8.071-12.176,16.421-17.83,24.942A4.826,4.826,0,0,0,93.453,93.467Zm27.58,20.449c3.611,0,7.16-.03,10.709.01,2.568.028,3.316-1.369,2.9-3.627-.768-4.181-1.586-8.353-2.422-12.521-.5-2.467-1.932-2.889-4.161-1.984q-13.481,5.469-27.011,10.813c-.926.368-1.756.743-1.649,1.905A7.262,7.262,0,0,0,106.932,115C111.652,114.692,116.366,114.281,121.033,113.916Zm-1.825,7.627c-3.072,0-6.147-.084-9.215.028-2.245.082-2.935,1.105-1.628,3.208a37.412,37.412,0,0,0,20.131,15.99c2.071.72,3.242-.122,3.64-2.045.911-4.395,1.733-8.809,2.5-13.232.345-1.986-.508-3.08-2.661-3.215C127.724,122.011,123.484,121.474,119.208,121.543ZM89.841,67.3c.183,3.292.341,6.845.607,10.39.06.808-.482,2.148.9,2.265,1,.086,1.427-1.015,1.926-1.8,2.786-4.407,5.484-8.875,8.417-13.183,6.958-10.223,7-10.191-3.76-16.092-4.679-2.565-5.962-1.971-7.312,3.339C89.37,57.11,90.053,62.1,89.841,67.3Zm-24.7,99c-2.718.357-5.311.6-7.867,1.055-5.372.953-5.361,1-3.431,6.43.554,1.559,1.089,3.126,1.631,4.69,3.133,9.035,2.267,7.691,10.833,4.85,7.4-2.454,7.349-2.819,4.755-9.976-.563-1.553-1.273-3.06-1.743-4.639C68.641,166.424,67.2,165.744,65.142,166.3ZM32.519,139.913c2.178-.613,3.536-2.216,4.964-3.855,2.649-3.041,5.338-6.075,8.273-8.831,5.19-4.873,10.608-9.5,15.865-14.306a41.559,41.559,0,0,0,4.88-5.156,4.438,4.438,0,0,0,.057-5.9c-1.471-1.8-4.169-1.886-6.43-.29a13.912,13.912,0,0,0-1.56,1.458,380.129,380.129,0,0,1-29.382,25.83c-2,1.574-3.338,3.335-3.308,5.952A4.962,4.962,0,0,0,32.519,139.913Z"/></g></g></svg>