<?xml version="1.0" encoding="UTF-8"?>
<svg viewBox="0 0 52 87" version="1.1" xmlns="http://www.w3.org/2000/svg" xmlns:xlink="http://www.w3.org/1999/xlink">
    <!-- Generator: Sketch 62 (91390) - https://sketch.com -->
    <title>mobile</title>
    <desc>Created with Sketch.</desc>
    <g id="Page-1" stroke="none" stroke-width="1" fill="none" fill-rule="evenodd">
        <g id="dato-omnichannel" transform="translate(-250.000000, 0.000000)" fill="#000000" fill-rule="nonzero">
            <g id="Group-2" transform="translate(214.000000, 0.000000)">
                <path d="M64.4165,74.7318442 C64.8185,73.6018442 64.4265,72.5898442 63.7485,71.7228442 C63.3195,71.1758442 62.7565,70.6768442 62.1525,70.3358442 C60.3655,69.3248442 57.9275,70.7398442 57.8135,72.7988442 C57.6885,75.0378442 59.1525,76.5808442 61.3865,76.5658442 C62.7745,76.5578442 64.0315,75.8148442 64.4165,74.7318442 L64.4165,74.7318442 Z M62.2775,11.9038442 C59.7565,12.0288442 57.2325,12.1078442 54.7205,12.3288442 C54.3435,12.3608442 53.8485,13.0058442 53.7305,13.4528442 C53.6185,13.8818442 53.7645,14.5928442 54.0745,14.8798442 C55.0025,15.7408442 56.1475,16.4438442 57.4205,16.4688442 C60.8495,16.5328442 64.2855,16.5188442 67.7105,16.3698442 C68.8575,16.3208442 69.5235,15.3218442 69.8965,14.2318442 C70.1985,13.3458442 69.6405,12.1798442 68.7775,12.1578442 C66.6145,12.1018442 64.4485,12.1388442 62.2845,12.1388442 C62.2815,12.0608442 62.2795,11.9818442 62.2775,11.9038442 L62.2775,11.9038442 Z M61.8285,52.6598442 C65.4165,49.1308442 68.5295,45.1108442 72.7395,42.2218442 C73.4805,41.7128442 73.0995,40.8908442 72.6565,40.3078442 C71.6675,39.0078442 70.2655,38.9028442 68.9375,40.1658442 C65.8035,43.1478442 62.7225,46.1888442 59.6615,49.2478442 C59.0345,49.8738442 58.4425,50.6188442 58.1035,51.4218442 C57.8495,52.0238442 57.9115,52.8318442 58.0515,53.5028442 C58.1505,53.9808442 58.5585,54.4558442 59.3135,54.4148442 C60.3775,54.2678442 61.0615,53.4148442 61.8285,52.6598442 L61.8285,52.6598442 Z M51.8315,52.7588442 C58.2245,46.3668442 64.6365,39.9948442 71.0225,33.5958442 C72.3665,32.2498442 72.6285,31.2138442 72.0435,30.2718442 C71.3885,29.2148442 69.9965,29.2178442 68.2095,30.4048442 C65.0175,32.5238442 62.3815,35.2878442 59.9695,38.1998442 C58.4655,40.0168442 56.8845,41.6438442 55.1285,43.2208442 C52.7335,45.3728442 50.7715,48.0138442 48.6785,50.4908442 C48.3615,50.8658442 48.2955,51.4828442 48.1925,52.0028442 C48.0485,52.7318442 49.1675,53.7648442 49.9395,53.6588442 C50.6975,53.6268442 51.2935,53.2958442 51.8315,52.7588442 L51.8315,52.7588442 Z M42.9055,43.4428442 L42.7535,43.4428442 C42.7535,49.0718442 42.7425,54.7008442 42.7575,60.3298442 C42.7705,64.8698442 42.9095,69.4118442 42.8235,73.9488442 C42.7125,79.7268442 43.9845,80.0638442 48.6345,79.7758442 C51.5275,79.5958442 54.4525,79.9018442 57.3445,79.7068442 C60.1205,79.5198442 62.7015,80.4728442 65.4075,80.6798442 C68.3665,80.9058442 71.0995,79.7358442 74.0245,79.7738442 C80.1975,79.8508442 79.4855,80.4928442 79.5975,74.2908442 C79.7015,68.4798442 79.4885,62.6378442 80.0405,56.8698442 C80.4885,52.1698442 80.6695,47.4878442 80.7615,42.7878442 C80.8745,36.9778442 80.8965,31.1648442 81.0485,25.3558442 C81.1005,23.3798442 81.8925,21.3198442 81.5235,19.4608442 C80.8785,16.2038442 81.2065,12.9478442 80.8735,9.71084416 C80.7295,8.31084416 80.2665,7.77584416 78.8315,7.77881918 C73.3845,7.78884416 67.9385,7.84684416 62.4925,7.89084416 C57.2285,7.93284416 51.9625,7.97184416 46.6975,8.03084416 C45.9805,8.03984416 45.2505,8.09284416 44.5535,8.24684416 C43.7985,8.41384416 43.2295,8.97884416 43.0825,9.70284416 C42.9025,10.5758442 42.9125,11.4968442 42.9125,12.3968442 C42.9015,22.7458442 42.9055,33.0938442 42.9055,43.4428442 L42.9055,43.4428442 Z M37.1815,58.9968442 C37.1815,54.4588442 37.1985,49.9208442 37.1725,45.3828442 C37.1625,43.5778442 36.7895,41.7918442 36.6165,40.0198442 C36.2155,35.8898442 36.3855,31.7048442 36.3245,27.5418442 C37.6405,25.1968442 36.2555,22.6428442 36.9735,20.1408442 C37.6025,17.9468442 37.2065,15.4578442 37.2505,13.0988442 C37.3065,10.1948442 37.2875,7.28884416 37.4175,4.38884416 C37.5225,2.03484416 39.1605,0.375844159 41.5465,0.117844159 C42.8055,-0.0181558405 44.0835,-0.00115584055 45.3535,0.00284415945 C50.4355,0.0188441595 55.5175,0.114844159 60.5985,0.0628441595 C63.3305,0.0338441595 65.9805,0.764844159 68.6495,0.858844159 C72.5975,0.998844159 76.5525,1.33484416 80.5135,1.15984416 C81.2355,1.12784416 81.9735,1.11384416 82.6855,1.21884416 C85.0445,1.56584416 87.0155,3.40784416 87.4055,5.77184416 C87.6415,7.19684416 87.7115,8.66484416 87.7005,10.1118442 C87.6365,17.7348442 87.9785,25.3978442 87.3235,32.9718442 C86.2445,45.4648442 86.7095,57.9678442 86.2835,70.4588442 C86.1415,74.6038442 85.6425,78.7398442 85.2205,82.8718442 C85.1045,84.0198442 84.2915,84.8048442 83.1895,85.2018442 C79.5145,86.5268442 75.6855,86.6898442 71.9445,85.9438442 C69.9535,85.5468442 68.0135,85.3998442 66.0335,85.3948442 C59.8625,85.3778442 53.6915,85.4208442 47.5205,85.4308442 C46.0685,85.4328442 44.6145,85.4378442 43.1645,85.3728442 C39.2575,85.1978442 37.8755,84.0458442 37.8655,80.1138442 C37.8565,77.0438442 37.0955,74.0608442 37.2875,70.9738442 C37.4785,67.9008442 37.2945,64.8058442 37.2785,61.7198442 C37.2735,60.8118442 37.2775,59.9038442 37.2775,58.9968442 L37.1815,58.9968442 Z" id="Fill-1"></path>
            </g>
        </g>
    </g>
</svg>