<svg xmlns="http://www.w3.org/2000/svg" viewBox="0 0 205.953 232.584"><title>multilanguage-2</title><g id="Layer_2" data-name="Layer 2"><g id="Layer_1-2" data-name="Layer 1"><path d="M195.549,149.226c0-9.983.348-19.98-.08-29.944-.684-15.948-2.066-31.865-2.805-47.811-.586-12.667-.754-25.357-.874-38.039-.029-3.052.529-6.09-.05-9.175-.282-1.5-.852-1.946-2.34-2.313-4.5-1.112-9.007-.4-13.443-.157-11.568.646-23.137,1.534-34.643,2.872-3.945.459-7.974.429-11.854,1.364a8.609,8.609,0,0,1-5.805-.852c-2.185-1.012-4-2.417-4.088-5.24a6.264,6.264,0,0,1,3.465-6.265c4.927-2.645,10.307-3.371,15.763-3.7,8.842-.53,17.685-1.185,26.537-1.408,9.217-.233,18.469-.385,27.567,1.654C198.62,11.5,201.31,14.5,201.648,20.4a169.231,169.231,0,0,1,.144,24.451c-.312,3.577.426,7.236.571,10.863.484,12.142.851,24.289,1.384,36.429.595,13.558,1.536,27.1,1.938,40.664.522,17.6.187,35.215-.2,52.82-.107,4.887-2.514,7.333-7.27,7.8-.361.035-.729,0-1.088.048-1.957.253-4.629-1.278-5.711.3-1.267,1.845.067,4.487.631,6.695,1.792,7.022,3.754,14,5.62,21a30.609,30.609,0,0,1,.739,3.738c.736,5.382-3.286,8.727-8.43,6.854a68.047,68.047,0,0,1-13.172-6.453c-8.884-5.63-18.084-10.771-26.6-16.97-3.513-2.557-6.835-5.392-10.113-8.25a9.641,9.641,0,0,0-7.39-2.609c-13.016.756-26.039,1.516-39.07,1.816-8.836.2-17.691-.335-26.536-.6a12.544,12.544,0,0,1-3.183-.675c-5.285-1.6-7.35-3.884-7.485-9.329-.45-18.141-.43-36.283.825-54.4a39.354,39.354,0,0,1,.631-4.862c.508-2.58,1.792-3.908,3.818-3.867a4.687,4.687,0,0,1,4.583,3.213,15.157,15.157,0,0,1,.809,4.805c.576,10.527.067,21.052.021,31.579-.025,5.808.013,11.621.213,17.425.151,4.378.46,4.411,4.736,4.622,15.415.762,30.766-.687,46.144-1.2,3.977-.133,7.973,1.116,11.925.352,6.186-1.2,10.683.758,15.441,5.075,9.4,8.533,20.51,14.837,31.614,20.989a24.972,24.972,0,0,0,2.891,1.476c.843.332,1.389-.095,1.336-1.028a18.217,18.217,0,0,0-.317-2.7c-1.113-5.308-2.229-10.616-3.411-15.908a19.811,19.811,0,0,1-.759-5.912c.286-3.673,2.31-5.9,5.914-5.442,3.276.415,6.529-.241,9.772.353,2.05.376,2.972-.68,2.994-2.75.069-6.534.226-13.068.3-19.6.047-3.992.009-7.986.009-11.978ZM62.889,14.794c-1.451-.086-2.9-.2-4.351-.25-1.634-.061-3.27-.06-4.9-.1-3.925-.1-4.243-.342-3.321-3.982a10.487,10.487,0,0,0,.077-6.4,6.055,6.055,0,0,0-6.4-3.989C41.279.52,40.03,2.085,39.8,5.507c-.123,1.811-.083,3.633-.127,5.449-.094,3.85-.423,4.449-4.342,4.472-5.121.031-10.062,1.032-15.048,1.925a21.918,21.918,0,0,1-5.425.347c-3.664-.272-7.245.425-10.859.677-3.524.246-3.853.935-3.991,4.414a5.178,5.178,0,0,0,2.27,4.65,17.518,17.518,0,0,0,9.555,3.519,57.931,57.931,0,0,0,14.076-1.185q7.489-1.3,15.03-2.295c13.021-1.729,26.053-.518,39.078,0,2.548.1,2.959.832,1.807,2.967-3.78,7-7.364,14.123-11.467,20.931A105.388,105.388,0,0,1,56.589,69.52c-.931.982-2.006,1.627-3.2.323-3.4-3.714-7.788-6.5-10.333-11.017a17.8,17.8,0,0,0-1.5-2.271c-2.059-2.614-5.013-3.543-7.688-2.469-2.844,1.143-4.232,3.556-4.069,7a11.857,11.857,0,0,0,2.286,6.034c3.032,4.5,5.433,9.494,9.582,13.155,1.855,1.636,1.482,3.017-.009,4.483a36.654,36.654,0,0,1-3.6,3.309C32.392,92.3,26.786,96.6,20,99.066c-3.687,1.339-4.923,3.851-4.271,7.227.553,2.868,3.539,4.933,7.078,4.627a17.81,17.81,0,0,0,5.823-1.272A83.666,83.666,0,0,0,52.447,93.665c2.741-2.606,3.026-2.8,5.987-.658,4.027,2.909,8.616,4.678,13.029,6.768,3.437,1.628,7.188,2.6,11.093,1.542,2.057-.56,3.807-1.695,3.992-3.952.179-2.194-.286-4.377-2.417-5.693a14.2,14.2,0,0,0-2.421-1.237c-4.985-1.878-9.264-4.864-13.453-8.095-1.766-1.363-1.855-2.148-.453-3.746,3.471-3.958,6.978-7.961,9.465-12.6C81.481,58.122,86.889,51.07,91.8,43.68c3.227-4.855,6.033-9.908,7.025-15.781,1.423-8.418-2.084-13.275-10.449-14.276a53.041,53.041,0,0,0-13.031.344c-4.129.523-8.29.8-12.436,1.181Zm38.288,142.423a1.783,1.783,0,0,0,.932,1.157c3.533,1.309,7.555-1.021,8.712-4.751,2.2-7.073,4.533-14.1,6.809-21.15.341-1.055.7-2.182,2.061-2.147,6.357.167,12.625-1.444,18.991-.958,5.365.41,5.706.583,6.546,5.948.786,5.016,2.5,9.823,3,14.908.268,2.71,1.212,5.335,4.15,6.561,3.557,1.485,6.794-.648,6.461-4.468a35.016,35.016,0,0,0-1.27-5.827c-1.019-3.847-2.164-7.661-3.162-11.513-2-7.718-3.747-15.505-5.947-23.164-2.3-8.009-4.4-16.056-6.168-24.2-.919-4.239-1.885-8.471-2.963-12.671-.521-2.03-1.7-3.686-4.014-3.917a5.068,5.068,0,0,0-5,2.634,26.393,26.393,0,0,0-1.331,2.358A284.453,284.453,0,0,0,116.586,105.5c-4.551,12.606-8.888,25.291-13.163,37.994-1.089,3.236-2.688,6.385-2.624,10.463C100.877,154.7,100.939,155.976,101.177,157.217Zm28.513-37.642c-7.682.533-7.689.532-4.791-6.843,2.319-5.9,4.639-11.8,7.012-17.684a7.836,7.836,0,0,1,1.311-1.689c.448.546,1.119,1.023,1.308,1.647,2.2,7.289,4.337,14.6,6.463,21.908.367,1.265-.051,2.086-1.513,2.147-2.72.114-5.44.254-8.16.383l0,.126C130.779,119.57,130.232,119.538,129.69,119.575Z"/></g></g></svg>