<svg xmlns="http://www.w3.org/2000/svg" viewBox="0 0 181.407 177.024"><title>multilanguage-1</title><g id="Layer_2" data-name="Layer 2"><g id="Layer_1-2" data-name="Layer 1"><path d="M59.892,14.78c7.36.944,13.962-.714,20.637-1.243a31.643,31.643,0,0,1,13.887,1.8A5.875,5.875,0,0,1,98.1,19.617c1.7,5.569.776,10.678-1.509,15.834C94.217,40.812,90.8,45.518,87.4,50.181,82.581,56.8,78.9,64.113,74.143,70.743c-1.9,2.651-3.955,5.2-6.071,7.687-1.4,1.641-1.757,2.543.4,4.15,4.249,3.162,8.536,6.129,13.511,8.02a10.859,10.859,0,0,1,2.4,1.273c2.007,1.426,2.415,3.593,2.212,5.81-.185,2.032-2.03,3.418-4.715,3.822A17.553,17.553,0,0,1,71.275,99.8c-4.366-2.2-8.984-3.9-12.99-6.842-2.754-2.023-3.049-1.866-5.547.558a80.663,80.663,0,0,1-23.747,16.061,20.525,20.525,0,0,1-5.776,1.476c-3.471.417-6.593-1.555-7.329-4.327-.924-3.479.43-6.119,4.364-7.613,7.079-2.689,12.988-7.191,18.857-11.772a40.914,40.914,0,0,0,3.081-3.056c1.352-1.309,1.13-2.405-.218-3.624-4.24-3.832-6.822-8.911-9.908-13.592a11.464,11.464,0,0,1-2.2-6.6,6.3,6.3,0,0,1,4.233-6.31c2.473-1.006,5.253-.189,7.274,2.175A12.86,12.86,0,0,1,42.9,58.586c2.46,4.577,6.844,7.367,10.241,11.072,1.21,1.319,2.437,1.227,3.683-.148A114.733,114.733,0,0,0,70.513,51.319c4.07-6.829,7.68-13.933,11.467-20.93,1.287-2.377,1.04-2.922-1.591-2.955-12.668-.161-25.354-1.415-38,0-8.1.906-16.116,2.477-24.2,3.536-5.118.671-10.141.189-14.714-2.611A6.389,6.389,0,0,1,.062,21.6C.3,19.538,1.33,18.478,3.121,18.525c3.832.1,7.531-1.107,11.387-.835,3.443.242,6.821-.635,10.226-1.137a79.4,79.4,0,0,1,11.311-1.244c3.532-.013,3.594-.367,3.693-3.8.058-2-.005-4,.128-5.994.219-3.3,1.6-5.007,4.225-5.457,2.474-.424,5.378,1.415,6.365,4.093a8.55,8.55,0,0,1,.361,4.825,27.536,27.536,0,0,0-.62,3.182c-.141,1.492.473,2.433,2.144,2.418,1.447-.013,2.9.024,4.343.065C57.953,14.679,59.22,14.751,59.892,14.78ZM181.206,165.925a15.762,15.762,0,0,0-1.015-3.089,117.1,117.1,0,0,1-8.294-24.644c-.691-3.187-1.411-6.384-2.387-9.492-2.5-7.969-3.919-16.193-5.914-24.28-1.387-5.625-2.405-11.351-4.018-16.908-2.223-7.655-4.9-15.175-6.348-23.049a8.736,8.736,0,0,0-1.891-4.456c-3.2-3.5-7.877-2.9-10.4,1.464-4.261,7.358-7.118,15.39-10.956,22.977-6.923,13.685-13.973,27.328-19.909,41.511-4.746,11.34-10.233,22.371-14.381,33.965a88.938,88.938,0,0,0-3.431,10.851c-.7,3.218.777,4.919,4.153,5.924,2.863.852,5.115.072,6.142-2.86,1.209-3.453,3.154-6.527,4.476-9.893,4.249-10.818,9.711-21.052,14.905-31.419,1.018-2.032,2.278-3.131,4.552-3.118,2.175.012,4.353-.159,6.526-.111,5.8.13,11.587.429,17.382.483,6.3.06,6.3-.028,8.158,5.971.107.345.182.7.259,1.055,2.187,10.067,4.412,20.119,7.727,29.9,1.219,3.6,5.167,6.676,8.984,6.536C179.72,173.09,182.144,170,181.206,165.925Zm-49.52-47.063c-1.8.02-2.277-.741-1.51-2.323,2.452-5.054,4.887-10.116,7.385-15.146,2.094-4.218,4.256-8.4,6.418-12.585.326-.631.846-1.684,1.224-1.661.943.056,1.352,1.089,1.617,1.915a51.842,51.842,0,0,1,2.263,7.8c.884,5.752,2.833,11.215,4.149,16.844.165.705.338,1.413.437,2.129.353,2.57.161,2.833-2.373,2.866-3.268.043-6.537.01-9.806.01v.146C138.223,118.852,134.954,118.826,131.686,118.862Z"/></g></g></svg>