<svg xmlns="http://www.w3.org/2000/svg" viewBox="0 0 207 234"><g id="Page-1"><g id="multilanguage-2"><path d="M165.3 7.6c9.3-.3 18.6-.4 27.8 1.6 3.2.7 5.4 2 7 3.8a12 12 0 012.5 7.3c.7 8.2.7 16.4.2 24.6-.2 2.2 0 4.5.2 6.7l.4 4 .5 15.1.8 21.4.8 15.9c.5 8.2 1 16.5 1.2 24.8.5 17.6.2 35.2-.2 52.8a9 9 0 01-2.1 6.2 9.1 9.1 0 01-6 2.6h-1.1a9 9 0 01-2.7-.1c-.7-.2-1.4-.3-1.9-.2-.2 0-.3 0-.5.2-.7 1-.2 2.5.2 3.8l.6 2.1 3.6 13.5 2 7.5c.4 1.3.6 2.6.8 3.9.4 3-.6 5.6-2.4 7-1.8 1.5-4.4 2-7.4.9a69 69 0 01-13.3-6.5l-8.5-5.3a149.8 149.8 0 01-28.4-20 8.7 8.7 0 00-6.6-2.4c-13.3.7-26.2 1.5-39.1 1.8-6.5.1-13-.1-19.5-.4L67 200c-1.3-.1-2.4-.3-3.5-.7-3-1-4.9-2-6.2-3.6-1.3-1.6-1.9-3.7-2-6.7a580 580 0 01.9-54.5c0-1.6.3-3.3.6-5 .3-1.5.9-2.6 1.6-3.4.8-.8 1.9-1.3 3.2-1.2a5.7 5.7 0 015.5 3.9c.6 1.6.9 3.3.9 5 .3 6 .3 12 .2 18v5.8a615.9 615.9 0 000 25.3c0 1.7 0 2.6.5 3.1s1.3.4 2.7.5h.6c9.3.5 18.5.1 27.7-.3l1.8-.1 3.6-.2 13-.6 5 .3c2.3.3 4.5.5 6.7 0 6.6-1.2 11.3.8 16.3 5.4 8.8 8 19.1 14 29.5 19.7l2 1.1 2.7 1.5a1237.6 1237.6 0 00-3.7-18.5c-.6-2-.8-4-.8-6.2.2-2.2 1-4 2.1-5 1.2-1.1 2.9-1.7 5-1.4 1.4.2 2.9.2 4.3.1 1.9 0 3.7 0 5.5.3.6 0 1 0 1.4-.2.3-.3.4-.9.4-1.6l.2-10 .1-9.6v-8.3-3.6c-.2-4.8-.2-9.6-.2-14.4 0-5.2 0-10.4-.2-15.6-.4-8.3-1-16.5-1.5-24.8-.5-7.7-1-15.3-1.3-23a1036.2 1036.2 0 01-.8-41.2c.1-2 .2-4-.1-5.9-.1-.4-.2-.8-.5-1-.2-.2-.6-.4-1.1-.5-3.5-.8-7-.6-10.4-.3l-2.8.2a578.9 578.9 0 00-38.6 3.2c-2.6.2-5.2.4-7.7 1-2.2.5-4.5.1-6.5-1a9 9 0 01-3.4-2.4 6 6 0 01-1.2-3.6 7.3 7.3 0 014-7.2c5-2.7 10.5-3.5 16.1-3.8l6-.4c6.9-.4 13.7-.9 20.6-1zM63 14.8c-1.5 0-3-.2-4.4-.3h-4.9c-3.9-.2-4.2-.4-3.3-4 .7-2.1.7-4.3 0-6.4A6 6 0 0044 0c-2.7.4-4 2-4.2 5.4l-.1 5.5c-.1 3.8-.5 4.4-4.4 4.4-5 0-10 1-15 2a22 22 0 01-5.4.3c-3.7-.3-7.3.4-10.9.7-3.5.2-3.9 1-4 4.4-.1 1.8.7 3.6 2.3 4.6 2.7 2.1 6 3.4 9.5 3.6A58 58 0 0026 29.8c5-.9 10-1.7 15-2.3 13-1.7 26-.5 39.1 0 2.6 0 3 .8 1.8 3-3.8 7-7.3 14-11.4 20.9-4 6.5-8.6 12.6-13.8 18.1-1 1-2 1.6-3.2.3-3.4-3.7-7.8-6.5-10.3-11l-1.5-2.2c-2.1-2.7-5-3.6-7.7-2.5-2.9 1.1-4.3 3.5-4.1 7 .2 2.2 1 4.3 2.3 6 3 4.5 5.4 9.5 9.6 13.2 1.8 1.6 1.4 3 0 4.5A36.7 36.7 0 0138 88c-5.7 4.2-11.3 8.5-18.1 11-3.7 1.3-5 3.8-4.3 7.2.6 2.9 3.6 5 7.1 4.6 2 0 4-.5 5.8-1.3 8.8-3.9 16.9-9.3 23.8-16 2.8-2.5 3-2.7 6-.6 4 3 8.6 4.7 13 6.8 3.5 1.6 7.3 2.6 11.2 1.5 2-.5 3.8-1.7 4-4 .1-2.1-.3-4.3-2.5-5.6-.7-.5-1.5-1-2.4-1.3-5-1.8-9.3-4.8-13.4-8-1.8-1.4-1.9-2.2-.5-3.8 3.5-4 7-8 9.5-12.6 4.2-7.9 9.6-15 14.5-22.3a41 41 0 007-15.8c1.4-8.4-2-13.3-10.4-14.3a53 53 0 00-13 .4c-4.2.5-8.3.8-12.5 1.1v-.3zm38.3 142.4c.1.5.4 1 1 1.2 3.4 1.3 7.5-1 8.6-4.8l6.8-21.1c.4-1 .7-2.2 2-2.2 6.4.2 12.7-1.4 19-1 5.4.5 5.8.7 6.6 6 .8 5 2.5 9.8 3 15 .3 2.6 1.2 5.3 4.2 6.5 3.5 1.5 6.8-.7 6.4-4.5-.2-2-.6-4-1.2-5.8l-3.2-11.5c-2-7.7-3.7-15.5-6-23.2-2.2-8-4.3-16-6.1-24.2-1-4.2-1.9-8.5-3-12.7-.5-2-1.7-3.6-4-3.9a5 5 0 00-5 2.7 284.5 284.5 0 00-13.7 31.8c-4.6 12.6-8.9 25.3-13.2 38-1 3.2-2.7 6.4-2.6 10.5 0 .7.1 2 .4 3.2zm28.5-37.6c-7.7.5-7.7.5-4.8-6.9l7-17.7 1.3-1.6c.5.5 1.1 1 1.3 1.6l6.5 22c.4 1.2 0 2-1.5 2l-8.2.4v.2h-1.6z" id="Shape"/></g></g></svg>