<svg xmlns="http://www.w3.org/2000/svg" viewBox="0 0 786.539 588.284"><title>onichannel-matters</title><g id="Layer_2" data-name="Layer 2"><g id="Layer_1-2" data-name="Layer 1"><path d="M624.079,245.588c7.628.208,16.278-.265,24.93-.886a102.122,102.122,0,0,1,23.2.886c6.955,1.091,11.948,4.8,14.391,11.165,3.677,9.577,8.458,18.661,12.09,28.238a56.311,56.311,0,0,1,2.316,8.547c1.027,4.951,1.091,5.834-3.182,7.56-3.721,1.5-3.76,3.672-3.709,6.812.093,5.693,0,11.406-.4,17.083-.32,4.514.323,8.112,5.243,9.684a10.465,10.465,0,0,1,2.875,1.826,142.6,142.6,0,0,0,25.522,15.732c10.6,4.961,17.678,13.475,23.515,23.144,3.76,6.227,7.761,12.33,10.737,19.031a35.226,35.226,0,0,0,7.075,10.009,90.888,90.888,0,0,1,13.13,18.287c4.476,7.852,5.439,16.946,4.272,25.91-1.759,13.516-4.081,26.959-6.091,40.445-1.343,9.006-2.789,18.007-3.757,27.057a27.773,27.773,0,0,1-8.187,17.567c-13.334,13.093-26.8,26.02-43.655,34.71a63.148,63.148,0,0,1-13.213,5.334c-8.146,2.094-16.221,4.475-24.4,6.421a102.134,102.134,0,0,1-14.087,2.271c-11.081,1.039-21.868,4.328-33.089,4.225-2.28-.021-4.608.383-6.833.051-10.027-1.5-19.88-.376-29.848.945-8.059,1.068-16.312.643-24.442-.1-9.229-.847-18.56-.532-27.7-2.21a91.2,91.2,0,0,1-22.759-7.042,43.3,43.3,0,0,0-13.7-4.046,60.457,60.457,0,0,1-13.244-3.251c-15-5.3-30.568-6.751-46.341-6.358-13.608.339-27.234,1.5-40.811.117-12.9-1.312-25.735-3.254-38.594-4.95-9.474-1.25-18.9-2.922-28.36-4.129-9.268-1.181-18.636.668-27.956,1.286-12.5.829-24.759,3.493-37.2,4.714-14.454,1.418-28.524-.786-42.558-4.187-17.764-4.3-34.691-10.975-51.607-17.64a132.215,132.215,0,0,1-24.788-12.8,6.639,6.639,0,0,1-3.112-4.239c-2.241-9.963-5.061-19.852-5.941-30.033-.485-5.6.472-11.336.807-17.008a14.137,14.137,0,0,1,2.048-5.746,61.088,61.088,0,0,1,13.536-17.02c12-10.664,22.7-22.419,29.766-37.07,4.3-8.921,10.926-15.418,19.653-20.19,10.39-5.683,20.472-11.936,30.63-18.036a55.7,55.7,0,0,1,17.661-7.134c10.277-2.062,19.3-6.8,27.951-12.349a168.52,168.52,0,0,1,22.745-12.476c2.177-.96,3.366-1.934,3.221-4.434-.224-3.865-.156-7.745-.324-11.614-.157-3.59-1.189-4.582-4.432-4.45a236.311,236.311,0,0,1-61.554-5.391c-7.07-1.582-14.383-2.039-21.529-3.319-13.465-2.413-26.614-5.936-39-11.933-3.277-1.587-6.581-3.131-9.938-4.542a23.764,23.764,0,0,0-16-1.393A81.727,81.727,0,0,0,152.5,304.88c-7.637,3.987-15.536,7.48-23.377,11.064-3.514,1.606-6.984,3.287-10.459,4.967-9.843,4.758-20.359,7.849-30.883,10.582-6.589,1.711-13.579.2-20.384-.1-1.361-.061-2.728-.577-4.064-.485-16.607,1.152-30.269-7.074-44.1-14.255-7.405-3.845-12.589-10.4-15.587-18.393C1.067,291.393-.476,284.5.132,276.947.788,268.8,1.673,260.7,2.656,252.6c1.018-8.381,5.089-15.47,9.348-22.52,5.564-9.21,11.85-17.795,20.117-24.808,4.427-3.756,6.316-8.258,6.027-14.394-.524-11.126-.016-22.288-.858-33.436-.948-12.534.454-25.038,1.565-37.5.512-5.732-.528-11.346-.211-17.026.117-2.1-.7-3.04-3.343-2.883-4.313.256-5.689-2.192-3.922-5.912,4.4-9.254,8.549-18.629,15.712-26.27a14.4,14.4,0,0,0,3.033-6.059c1.265-4.817,4.863-8.191,7.228-12.308,1.849-3.217,5.935-3.032,9.218-3.609a60.975,60.975,0,0,1,8.87-.494c16.18-.433,32.327-.987,48.4-3.391,11.938-1.786,22.254,1.406,30.692,10.917a213.107,213.107,0,0,0,22.432,22.038,34.72,34.72,0,0,1,2.883,2.921c1.4,1.491,1.1,2.947-.364,4.108-2.534,2.015-5.351,3.654-8.665,3.672-2.977.016-3.929.909-3.529,4.071,2.494,19.7,2.792,39.5,2.347,59.319-.108,4.786-.235,9.58-.075,14.361.144,4.311.489,4.725,4.546,5.423,16.6,2.856,33.059,6.72,50.017,7.075a39.456,39.456,0,0,1,4.726.7c6.161.889,12.128.917,18.093-1.669,7.249-3.144,15.158-3.188,22.894-3.148,5.949.031,11.26-1.249,16.1-4.657a11.828,11.828,0,0,1,2.974-1.66c10.9-3.608,20.336-10.065,30.374-15.359,2.077-1.1,1.515-2.3,1.353-3.88-1.3-12.665-2.614-25.357-2.534-38.084.1-14.987.314-29.987,5-44.558,2-6.224,2.644-12.877,3.991-19.317,1.933-9.238,6.314-16.949,13.951-22.767,3.162-2.409,6.4-4.239,10.407-4.685a48,48,0,0,0,7.38-1.312c21.2-5.815,42.96-8.017,64.736-10.039C441.707,3.775,459.9,2.774,478.053.943c16.518-1.667,33.286-.9,49.887.585,13.878,1.244,27.8.879,41.679,1.81a220.8,220.8,0,0,1,24.465,2.537,35.829,35.829,0,0,1,19.7,10.138c4.088,4.143,4.646,8.456,2.5,12.988-6.545,13.828-10.717,28.591-17.022,42.478-4.924,10.845-11.539,20.645-21.047,28.194-3.381,2.686-6.529,5.672-9.966,8.28a32.221,32.221,0,0,1-11.942,5.922c-12.3,3.022-24.775,3.213-37.3,3.162A208.551,208.551,0,0,1,487,114.681c-12.465-1.983-25.06-1.195-37.519-.051-10.546.968-20.92.258-31.321-.886-8.77-.964-16.31-5.431-24.149-9.029-11.077-5.084-19.418-14.264-30.069-19.951C358.5,81.859,353.056,79,348.715,74.492c-1.3-1.353-2.173-1.294-2.781.643a68.753,68.753,0,0,0-3.148,20.835c.012,7.731.616,15.472.375,23.19-.3,9.647,2.1,19.02,2.283,28.588a3.967,3.967,0,0,0,2.925,4.056c2.345.881,4.568,2.363,6.976,2.744,9.727,1.541,17.923,6.4,26.035,11.48,4.815,3.016,9.41,6.4,14.31,9.26,8.695,5.08,14.936,12.6,20.863,20.429a46.926,46.926,0,0,0,6.834,7.612c7.359,6.262,13.2,13.826,18.763,21.636a11.7,11.7,0,0,1,2.455,5.528c.986,8.369,1.6,16.751,1.749,25.179a10,10,0,0,1-3.08,8c-4.509,4.146-8.757,8.744-13.824,12.071a158.278,158.278,0,0,0-21.881,17.309c-6.919,6.535-14.993,10.776-23.916,13.746-9.057,3.015-18.036,6.262-27.062,9.37-6,2.064-6.014,2.035-6.04,8.683-.017,4.1-.095,8.207.016,12.306.112,4.13.21,4.376,4.206,4.214a75.453,75.453,0,0,1,23.671,2.773c14.679,4.135,29.545,7.59,44,12.529a67.42,67.42,0,0,0,43.7.231c15.776-5.216,31.429-10.837,47.152-16.238,9.371-3.219,18.972-4.741,28.682-6.032,1.58-.21,3.168-.363,4.75-.557a2.581,2.581,0,0,0,2.545-2.645c.637-9.571-.33-19.107-.624-28.658a2.358,2.358,0,0,0-2.731-2.365c-2.507.054-5.023.241-7.519.1-5.02-.289-6.73-3.594-3.935-7.9a69.7,69.7,0,0,1,6.692-8.637c10.525-11.683,21.257-23.18,31.676-34.957,2.637-2.98,5.619-3.45,9.138-3.439C595.659,245.614,609.345,245.588,624.079,245.588ZM764.354,477.445c-3.041,2.374-3.559,6.049-4.577,9.364-2.069,6.737-4.329,13.357-8.174,19.328a9.6,9.6,0,0,0-1.473,5.162q-.154,9.185-.316,18.369c-.011.674.038,1.527.786,1.627.5.065,1.154-.417,1.6-.809a28.816,28.816,0,0,0,10.428-22.681c0-1.586.14-3.171.14-4.756,0-8.613,2.182-17.1,1.43-25.758a4.244,4.244,0,0,0,.743-1.03c.124-.365.106-1.135-.008-1.168-1.08-.305-.74.637-.808,1.108A3.937,3.937,0,0,0,764.354,477.445ZM680.1,272.031c.815-4.952-2.157-9.189-2.64-13.931-.361-3.554-3.8-4.7-6.185-2.031a29.388,29.388,0,0,1-5.637,4.853c-6.266,4.213-8.051,4.234-13.778-.736-1.945-1.688-2.91-2-4.808.14-5.492,6.188-10.5,6.827-17.253,2.382-1.579-1.039-2.521-1.572-3.838.2-3.708,4.992-8.576,4.379-13.521,2.443-3.211-1.257-6.415-3.013-8.116-6.008-2.463-4.337-6.149-4.043-10.039-3.629-2.863.3-3.289,1.127-1.593,3.339a97.2,97.2,0,0,1,6.287,9.737c2.584,4.359,11,6.573,14.895,3.34,3.207-2.662,5.208-2.151,8.241-.052,5,3.464,7.917,3.169,12.387-.254,5.329-4.08,5.329-4.081,11.2-.309.574.369,1.147.742,1.711,1.126,2.195,1.494,4.2,1.422,6.047-.63.605-.674,1.393-1.186,1.984-1.87,1.73-2,3.251-1.743,5.206-.093,4.785,4.037,9.9,5.428,15.354,1.062,1.644-1.315,2.963-.188,4.268.743-.563,5.879-4.455,9.281-10.275,8.917a16.836,16.836,0,0,1-8.807-3.429c-2.043-1.467-3.478-1.982-5.788.144-4.095,3.768-6.893,3.437-11.393-.211-3.013-2.443-3.013-2.443-5.584.208-4.292,4.426-8.481,5.235-13.506,3.264-2.978-1.169-4.118-5.785-6.533-5.277-2.382.5-4.451,3.555-7.4,4.334-.439.117-.9.139-1.34.264-3.379.965-3.553,1.451-1.551,4.489a16.292,16.292,0,0,1,1.912,2.725c.939,2.439,2.607,2.794,5.1,3.22,9.766,1.673,19.487-.246,29.239.206,12.5.579,25.065-.415,37.547,1.275,2.929.4,5.9.475,8.847.736.919.082,1.926.22,2.539-.509.78-.929-.2-1.695-.659-2.36C688.475,283.888,684.277,277.965,680.1,272.031ZM617.932,522.787c14.421.3,25.577.984,36.661-1.131,8.065-1.539,16.2-2.791,24.439-2.055,11.083.991,21.258-2,30.935-6.941,10.832-5.528,20.444-12.22,27.111-23.109a180.686,180.686,0,0,0,11.068-21.813c4.23-9.6,8.3-19.294,10.576-29.542,2.585-11.614,3.08-23.03-5.6-32.927a22.285,22.285,0,0,1-5.266-11.724c-.818-6.179-4.347-10.5-8.945-13.983a91.67,91.67,0,0,0-13.78-8.806,124.543,124.543,0,0,1-17.208-10.995,80.051,80.051,0,0,1-9.349-7.938c-.969-.968-1.918-2.31-3.4-1.555-1.457.741-.721,2.4-.833,3.681a11.517,11.517,0,0,0-.012,2.051c.77,8.393,1.451,16.785,1.439,25.23,0,3.627.565,7.251.76,10.882.122,2.272.605,3.477,3.385,4.035A13.479,13.479,0,0,1,710.8,406.305c.546,1.939,1.8,3.672,2.651,5.533,3.835,8.359,6.658,17.148,6.693,26.3.045,11.74.188,23.425-3.331,35.1-3.182,10.561-9.216,16.634-19.572,18.137-9.892,1.436-19.927,2-29.92,2.593-7.9.468-15.3-1.666-22.291-5.415a8.371,8.371,0,0,1-4.6-5.526,97.93,97.93,0,0,1-2.853-14.726c-.406-3.717-1.381-4.683-4.793-4.16-6.789,1.041-13.675-.19-20.436,1.264a9.842,9.842,0,0,1-7.776-1.529c-9.147-5.956-18.864-10.973-28.184-16.674-8.546-5.228-17.22-10.261-25.73-15.564a7.117,7.117,0,0,1-3.556-5.332,96.659,96.659,0,0,1-.805-24.56c1.328-16.535,2.506-33.06,2.594-49.651.023-4.257,0-4.324-4.47-4.161a128.451,128.451,0,0,0-31.546,5.108c-13.941,4.076-27.856,8.144-41.549,13.034-12.9,4.607-26.408,5.034-39.85,3.315-10.849-1.387-20.98-5.917-31.627-8.385-14.825-3.435-29.2-8.889-44.689-9.206-4.751-.1-4.972-.263-5.121,4.677-.193,6.371.048,12.816-1.309,19.04a56.608,56.608,0,0,0-1.33,14.91c.152,3.17-1.282,6.869.6,9.385,2.156,2.876,6.317,1.7,9.588,2.254,13.008,2.2,26.042,4.248,39.075,6.3,7.51,1.182,14.371,4.017,21.239,7.224,6.492,3.03,9.115,8.068,9.558,14.527.75,10.937-4.25,20.034-15.085,22.98-4.186,1.138-8.353,2.426-12.751,2.272-13.876-.486-27.726,1.6-41.606.412-9.27-.793-18.706.1-27.812-2.225a109.875,109.875,0,0,0-30.493-3.188c-10.929.317-21.841.895-32.784.6-6-.165-11.869-.829-17.134-3.831-8.722-4.973-10-13.9-3.1-21.1a62.738,62.738,0,0,1,6.193-5.355,15.727,15.727,0,0,0,4.911-5.567c5.218-11.229,14.77-15.46,26.46-16.149a21.953,21.953,0,0,0,4.753-.421c8.341-2.41,16.726-1.54,25.122-.558,1.813.212,3.619.486,5.418.794,2.67.459,3.826-.622,3.614-3.317-.646-8.2-.033-16.406-.1-24.608-.034-4.312-.568-8.628-1.023-12.927-.185-1.755-.628-3.165-2.907-1.313-4.578,3.719-9.327,7.213-13.786,11.1-10.787,9.408-22.514,16.472-37.449,17.816-8.7.782-17.58,2.4-25.789,5.964-6.052,2.624-11.925,5.658-17.968,8.305-8.8,3.855-15.194,9.986-18.4,19.12-2.918,8.315-8.188,15.187-13.235,22.2-5.353,7.44-12.088,13.6-18.639,19.928-1.955,1.889-4.209,3.508-5.586,5.965-2,3.571-2.1,7.633.362,9.272,7.939,5.278,15.177,11.758,24.654,14.472a48.72,48.72,0,0,1,7.575,3.1A134.909,134.909,0,0,0,228.5,503.67a59.844,59.844,0,0,0,23.747.3c5.817-.975,11.632-2.152,17.433-3.312,13.845-2.766,27.445-6.6,41.305-9.378a58.7,58.7,0,0,1,29.626,1.34c1.737.539,3.451,1.17,5.213,1.6,6.872,1.691,13.779,3.418,20.916,2.947,4.118-.272,8.179.107,12.266.156,10.922.131,21.786,1.438,32.735,1.188,14.582-.333,29.154-.037,43.566,2.753,2.935.568,5.921,1.051,8.459,2.56,7.155,4.258,14.9,5.037,23.016,4.96a74.675,74.675,0,0,1,26.146,4.421,83.589,83.589,0,0,0,22.635,5.04c10.67.7,21.288,1.49,31.829,3.648a106.84,106.84,0,0,0,33.329,1.893C607.5,523.037,614.364,522.98,617.932,522.787ZM170.95,201.321h.167c0,6.378.03,12.755-.01,19.133-.029,4.563-1.687,8.011-6.625,8.95a14.864,14.864,0,0,0-4.864,2.388,70.458,70.458,0,0,1-14.687,7.124c-6.275,2.041-12.663,3.781-18.822,6.123a45.227,45.227,0,0,1-15,3.115c-20,.692-40.038-.652-60.02,1.12-6.839.607-10.142-2.6-10.434-9.394-.254-5.889-1.6-11.7-1.211-17.635.07-1.063.426-2.464-.715-3.107-1.5-.843-2.532.552-3.569,1.3-4.667,3.348-8.416,7.671-12.212,11.911a12.512,12.512,0,0,0-2.922,8.9c.21,9.321,2.183,18.047,8.432,25.405a63.269,63.269,0,0,1,4.648,6.717,19,19,0,0,0,10.6,8.157A48.528,48.528,0,0,0,57.761,283.9c18.254.205,35.6-4.331,52.792-9.718a34.99,34.99,0,0,0,7.583-3.031c10.994-6.6,23.2-10.575,34.587-16.3,4.741-2.385,9.863-3.562,14.932-4.776a22.48,22.48,0,0,1,15.322,1.672c13.159,6.332,27.074,10.751,40.789,15.623,14.182,5.039,28.951,7.643,43.809,10.173,16.033,2.73,31.754,1.627,47.619-.084,11.843-1.277,23.214-4.563,34.49-8.21,20.142-6.514,40.064-13.51,58.849-23.518a39.346,39.346,0,0,0,16.486-15.748c3.385-5.993,3.432-8.265-1.68-13.022a260.332,260.332,0,0,1-28.328-30.483,11.822,11.822,0,0,0-5.568-3.743c-4.69-1.736-9.254-3.82-13.968-5.484-9.12-3.219-16.814-9.028-25.214-13.549-2.627-1.414-3.15-1.158-3.044,1.681.314,8.413.747,16.821,1.165,25.23.251,5.064.282,5.048,5.623,6.454,2.424.639,4.87,1.23,7.234,2.053a38.825,38.825,0,0,1,23.5,21.467c2.535,5.586,1.812,10.544-2.333,15.115-3.786,4.174-8.733,6.433-13.74,8.542-8.214,3.462-17.1,4.571-25.626,6.974-13.087,3.688-26.343,6.724-40.121,6.116-12.718-.562-25.307-1.518-37.556-5.666-7.285-2.467-14.524-5.193-22.2-6.605-6.81-1.253-11.715-5.587-15.25-11.682-2.73-4.705-2.4-9.689-2.158-14.623.514-10.551,6.641-18.278,16.593-21.672,1.292-.441,2.493-1.171,3.8-1.538,10.51-2.953,20.966-6.432,32.113-3.245,3.787,1.083,7.716.7,11.576.674a113.1,113.1,0,0,1,20.38,1.951,86.67,86.67,0,0,0,9.514.867c1.909.122,2.977-.841,2.977-2.84,0-6.378.343-12.777-.062-19.129-.668-10.455-1.5-10.872-10.693-6.074-9.361,4.886-19.48,7.617-29.469,10.716a20.848,20.848,0,0,1-8.109.684,72.752,72.752,0,0,0-24.345,2.372c-12.991,3.252-26.194,3.327-39.347,1.5-11.973-1.666-23.975-2.717-36.034-3.242-3.713-.161-3.735.015-3.709,3.781C170.98,189.48,170.95,195.4,170.95,201.321Zm328.3-143.773v.125c5.688,0,11.375-.009,17.062,0,17.965.035,35.818.557,53.654-3.739,13.451-3.241,23.254-10.884,32.047-20.452,4.925-5.359,3.882-8.176-2.887-11.1-12.094-5.215-24.959-7.067-37.933-7.634-18.377-.8-36.746-1.692-55.1-2.918-13.107-.876-26.2-1.541-39.337-.381-8.385.74-16.789,1.289-25.227,1.424-23.1.369-45.727,4.491-68.14,9.625a163.665,163.665,0,0,0-24.819,7.437c-5.81,2.344-8.558,6.272-9.7,11.97-.809,4.016-1.407,8.1-2.6,12.007-2.869,9.358-5.2,18.852-7.346,28.384-1.334,5.911-2.981,11.747-2.6,18.022.675,11.124.4,22.311,1.206,33.422,1.057,14.537,2.421,29.044,2.639,43.634.105,7.049-.564,14.132.8,21.147a6.337,6.337,0,0,1-.3,3.356c-1.132,2.871-1.058,5.834-.867,8.777a133.847,133.847,0,0,1-.648,20.478c-.983,11.156.668,12.386,11.07,8.041,1.094-.457,2.138-.887,2.208-2.249.392-7.671,3-15.175,1.738-22.97-.723-4.461-2.026-8.917-2.065-13.384-.155-17.514-3.1-34.816-3.5-52.324-.3-13.4-3.21-26.612-3.963-40.035-.693-12.369-.108-24.488,3.305-36.448,1.69-5.923,4.915-11.268,6.563-17.1,1.582-5.6,5.256-7.611,10.2-8.586a35.88,35.88,0,0,1,14.29.048c14.966,3.133,30.284,3.744,45.279,6.584,8.08,1.531,16.419.552,24.432,2.619a82.8,82.8,0,0,0,21.68,2.253C473.334,57.455,486.293,57.548,499.251,57.548ZM69.213,98.816l-.019-.288c-6.12.543-12.233,1.188-18.362,1.587-3.013.2-3.746,1.485-3.479,4.373,1.212,13.147.7,26.36,1.175,39.541.53,14.73-.22,29.515-.655,44.268-.188,6.405,1.649,12.757.906,19.035-.945,7.976.221,15.844.014,23.761-.153,5.838.2,6.108,6.288,5.824a312.391,312.391,0,0,1,36.859.44c5.449.39,10.915.548,16.364.943,2.117.154,2.9-.859,3-2.7.051-.9-.123-1.806-.153-2.711-.522-15.433-1.669-30.836-1.814-46.294-.056-6.067,1.135-12.292-1.036-18.292a5.708,5.708,0,0,1,.289-2.633,91.734,91.734,0,0,0,1.222-16.262c.032-8.87.03-17.74.231-26.612.133-5.883,1.217-11.764.6-17.629-1-9.561-.474-7.806-8.15-7.7C91.4,97.617,80.309,98.338,69.213,98.816Zm589.746,203.25c-10.223-1.379-22.8,2.2-35.553,1.529-1.951-.1-2.93.594-3.128,2.6-.83,8.373-1.872,16.727-2.569,25.109-1.04,12.5-.515,25.014-.135,37.527.634,20.9-1.183,41.766-.9,62.658a157.9,157.9,0,0,0,1.2,17c.725,5.931.942,5.887,6.652,5.536q3.408-.209,6.827-.264c5.228-.092,5.162-.09,6.411-5.427a78.6,78.6,0,0,1,9.748-23.86c2.818-4.526,6.56-8.358,11.649-8.538,8.852-.313,12.5-5.743,15.621-12.64,1.388-3.07,2.881-6.713,6.292-7.773,4.674-1.451,4.771-4.511,4.592-8.389-.483-10.446-1-20.9-1.014-31.354-.015-16.594-.61-33.2.625-49.782.148-1.985-.652-2.835-2.657-3.04A188.957,188.957,0,0,0,658.959,302.066ZM590.076,404.454c-.918,12.066.739,24.153-.158,36.208-.172,2.3.453,3.934,2.581,5.034,4.646,2.4,9.245,4.893,13.854,7.367,1.959,1.052,3.077.569,3.032-1.719a59.877,59.877,0,0,0-.456-8.858c-.771-4.53-.55-9.053-.693-13.593-.352-11.163,1.289-22.224,1.419-33.353q.287-24.58.446-49.163a99.774,99.774,0,0,0-.254-10.236,159.569,159.569,0,0,1-.2-27.283c.249-3.3,1.046-6.286-3.077-7.815-1.582-.586-1.754-2.574-2.368-4.014a78.1,78.1,0,0,0-8.1-14.195,118.046,118.046,0,0,1-8.99-14.493c-1.785-3.537-4.361-6.675-6.583-9.991l-8.315,6.956c-.7.584-1.413,1.151-2.087,1.762-3.869,3.51-7.871,6.889-11.537,10.6-2.282,2.311-3.914,5.157-1.946,8.619,1.083,1.9.729,4,.707,6.029-.056,5.237-.547,10.492-.263,15.706.777,14.288-.359,28.532-.633,42.793-.17,8.864-.7,17.721-1.067,26.581-.479,11.573-.465,23.17-2.091,34.682-.567,4.019-2.122,8.872-.538,11.97,1.918,3.754,7.571,4.493,11.417,6.88,1.528.948,2.535.5,2.512-1.488-.094-7.95.311-15.941-.369-23.84-1.1-12.782-.04-25.36,2.046-37.92a14.581,14.581,0,0,1,4.52-8.248c4.83-4.608,11.238-4.225,15.6.783,2.569,2.951,3.269,6.257,3.059,10.105C590.919,381.69,590.546,393.075,590.076,404.454ZM119.6,184.813c0,1.6.085,3.2-.013,4.787-.887,14.358-.094,28.729-.326,43.092-.054,3.317.85,3.852,4.212,2.741,1.847-.611,4.99-.889,4.54-3.287-1.032-5.493.356-10.9-.232-16.328a75.937,75.937,0,0,1,3.54-32.859,36.067,36.067,0,0,1,5.531-10.158c3.216-4.266,7.763-4.409,11.867-.958a14.05,14.05,0,0,1,5.349,10.691c.226,12.018.132,24.043.124,36.065,0,1.528-1.114,3.471.527,4.405,1.709.972,3.435-.576,5.064-1.223a2.8,2.8,0,0,0,1.542-2.827c-.018-2.279-.031-4.558-.052-6.837-.122-13.623-.405-27.246-.33-40.867.091-16.8.869-33.584-.44-50.4-1.162-14.921-1.485-29.909-2.125-44.87a3.584,3.584,0,0,0-1.493-2.842c-3.327-2.757-6.543-5.649-9.9-8.372-2.117-1.718-4.346-4.408-6.629-4.521-2.661-.131-3.213,3.9-5.03,5.851a27.7,27.7,0,0,0-2.932,3.775c-6.457,9.917-12.922,19.816-13.031,32.323q-.156,17.754.421,35.493C120.3,153.374,120.555,169.108,119.6,184.813Zm228.4,359.893c3.181.2,6.371.3,9.538.624,2.632.272,3.8-.642,3.641-3.364-.466-8.008,1.182-15.865,1.818-23.794.181-2.258.546-4.5.789-6.753.216-2-.733-2.911-2.731-2.94-9.385-.134-18.479-2.027-27.541-4.333a39.426,39.426,0,0,0-17.6-.327c-13.162,2.621-26.134,5.984-39.094,9.432-6.067,1.614-6.077,1.485-5.8,7.487a92.183,92.183,0,0,1-2.3,27.09c-1.173,4.617-.726,5.081,4.052,5.239a13.215,13.215,0,0,0,2.049-.013c14.894-1.84,29.844-3.331,44.657-5.68A183.056,183.056,0,0,1,347.991,544.706ZM647.1,464.429c-.985,4.61.144,9.112-.105,13.589-.14,2.531.615,3.739,2.8,4.633a19.436,19.436,0,0,0,5.827,1.855,57.374,57.374,0,0,0,18.348-1.074,81.113,81.113,0,0,1,14.8-2.414,38.433,38.433,0,0,0,10.683-2.195c5.3-1.9,8.284-5.476,8.516-11.137.355-8.651.785-17.3.855-25.959.033-4.077-1.207-8.191-.959-12.232.342-5.577-.787-10.909-1.684-16.27-1-5.984-6.033-9.365-11.918-8.409-3.592.584-7.136,1.459-10.7,2.184-2.326.473-4.376,1.363-5.357,3.717-3.1,7.428-8.914,11.909-16.139,14.774a10.636,10.636,0,0,0-6.555,7.327,51.116,51.116,0,0,1-3.272,8.952C648.457,448.93,646.1,456.335,647.1,464.429ZM441.7,529.083c.284-4.76.191-9.585.993-14.256.485-2.821-.965-3.3-2.7-3.517-4.955-.624-9.936-1.158-14.923-1.394-10.438-.492-20.9-.221-31.328-1.234-5.651-.549-11.351-.633-17.032-.823-3.441-.114-3.331.03-3.6,3.839-.761,10.637-.313,21.352-2.027,31.927-.387,2.385.675,3.023,2.965,3.3,13.768,1.665,27.48,3.873,41.279,5.169,8.125.763,16.377.143,24.571.221,2.291.022,2.66-.946,2.066-2.926C439.954,542.665,441.36,535.853,441.7,529.083ZM477.939,80.907c-1.955,0-5.608.24-9.219-.047A40.4,40.4,0,0,0,443.4,87.152c-8.928,5.643-18.635,8.276-29.025,8.986-2.868.2-5.842-.3-8.556,1.113,1.365,3.583,5.027,4.177,7.822,5.794a24.275,24.275,0,0,0,7.032,2.605c9.14,1.941,18.284,3.643,27.758,3.18,5.5-.268,10.96.305,14.438-5.257.446-.714,1.48-1.042,2.186-1.615,9.1-7.384,20.291-8.884,31.225-11.086,4.548-.915,8.993-.979,13.383,1.105,1.788.849,3.985.836,6,1.221a160.183,160.183,0,0,0,23.049,2.522c2.352.105,4.793.392,6.354,2.087,3.367,3.655,6.885,2.76,10.494.854a107.712,107.712,0,0,0,21.294-14.679A41.967,41.967,0,0,0,588.186,67.9a2.332,2.332,0,0,0-.031-1.874c-.536-.757-1.085.1-1.584.366a106.4,106.4,0,0,1-25.428,9.562c-15.723,3.865-31.863,3.976-47.811,4.827C502.183,81.38,490.867,82.238,477.939,80.907ZM378.385,442.03c2.674,0,7.692.067,12.706-.045,1.362-.03,2.2-1.109.965-2.218-4.676-4.216-8.554-9.724-15.547-10.443-5.887-.605-11.7-1.87-17.671-1.771a51.607,51.607,0,0,1-12.9-1.318c-5.444-1.3-5.451-1.216-5.141-6.757.51-9.1,1.412-18.2,1.412-27.3,0-17.3,1.2-34.543,1.574-51.819.109-5.01.605-10.013.657-15.021.046-4.5-.5-4.814-4.641-3.732q-2.31.6-4.6,1.3c-4.516,1.377-4.905,1.582-5.032,5.981-.288,10.016-.781,20.026.506,30.045a141.016,141.016,0,0,1,.964,23.822c-.376,9.1-1.472,18.185-.7,27.316a17.916,17.916,0,0,1-1.185,6.7,3.893,3.893,0,0,1-3.834,3.191c-9.814.619-19.316,3.061-28.9,5.061-7.783,1.624-13.575,6.145-18.892,11.593a1.6,1.6,0,0,0-.357,1.22c.155.874.974.83,1.58.743,11.123-1.589,22.332-.424,33.451-1.021,12.9-.694,25.429,1.734,38.08,2.977C359.262,441.361,367.567,442.848,378.385,442.03ZM514.429,547.561h.152c0-4.091-.1-8.185.037-12.27.094-2.708-.794-4.04-3.633-4.633-5.329-1.111-10.556-2.706-15.832-4.076-5.49-1.425-10.914-3.406-16.5-4.1a98.758,98.758,0,0,1-25.018-6.222c-2.412-.973-3.555-.225-3.166,2.382,1.33,8.9-.066,17.673-.758,26.49a35.3,35.3,0,0,0,.254,4.049c.076,1.949,1,2.91,3,2.775,1.362-.092,2.727-.2,4.091-.2,15.341-.01,30.409,1.47,44.662,7.8a87.715,87.715,0,0,0,9.678,3.287c1.956.608,3.038-.207,3.035-2.319Q514.422,554.044,514.429,547.561ZM584.765,558.4c0-3.42.026-6.841-.006-10.261-.046-4.789-.059-4.837-4.655-5.408-7.865-.979-15.766-1.594-23.469-3.718-10.553-2.91-21.7-1.759-32.3-4.483-2.8-.721-2.918.98-2.7,3.074.807,7.691,1.633,15.381,2.294,23.085.38,4.438.227,4.507,4.751,5.792,17.191,4.883,34.814,6.627,52.6,7.218,2.717.09,3.594-1.113,3.512-3.68C584.666,566.144,584.757,562.268,584.765,558.4ZM290.086,215.481c-5.756,0-10.988-.084-16.216.022-6.309.128-12.164,1.744-16.946,6.1-3.682,3.355-4.659,7.574-3.777,12.423.8,4.426,4.6,4.634,7.7,5.605,17.929,5.615,36.383,4.961,54.821,4.357.452-.015.9-.151,1.352-.192,2.341-.213,3.411-1.253,3.824-3.815,1.023-6.343.822-12.7.846-19.057.019-4.906-.521-5.109-5.619-5.516C307.23,214.7,298.4,214.275,290.086,215.481Zm-69.972,69.208c.358-7.616.373-7.652-5.149-10.019-3.129-1.341-6.3-2.593-9.485-3.8-5.53-2.09-11.262-3.909-15.722-7.935-3.523-3.179-7.5-3.925-11.945-3.79-5.393.164-10.028,2.539-14.726,4.794-4.18,2.006-6.29,4.761-4.885,9.784.905,3.237.771,6.758,1.181,10.142.285,2.359,1.322,3.473,4.078,3.233,9.311-.813,17.917,1.482,26.2,5.875a94.391,94.391,0,0,0,25.683,8.954c2.415.487,3.289-.133,3.461-2.556C219.185,293.944,219.761,288.527,220.114,284.689Zm43.65,234.18c.332-1.789.2-3.286-2.306-2.4-1.494.53-3.041.918-4.513,1.5-15.119,5.964-30.116,6.149-44.98-.868-.822-.389-1.66-.744-2.485-1.126-1.7-.787-2.657-.039-2.882,1.606-.433,3.152-.82,6.317-1.045,9.489-.622,8.766-.584,8.764,7.884,11.907,2.559.95,5.057,2.1,7.668,2.87,11.776,3.462,23.48,7.222,35.593,9.391,4.914.879,6.1-.229,5.4-5.322a56.533,56.533,0,0,1,.46-16.936C263.111,525.635,263.373,522.241,263.764,518.869Zm31.659-216.421-.051,0c.133-2.043.325-4.084.38-6.129.043-1.585-.516-2.307-2.434-2.232-4.911.192-9.807.608-14.762-.006-12.176-1.511-24.269-3.158-35.555-8.442-3.486-1.633-7.186-2.822-10.819-4.128-3.3-1.186-4.243-.8-4.438,2.65-.348,6.127-.269,12.279-.352,18.42-.019,1.439.985,1.868,2.179,2.044,2.023.3,4.046.6,6.072.873,7.656,1.023,15.393,1.637,22.951,3.143,10.306,2.054,20.737,2.567,31.14,3.448,5.21.441,5.221.2,5.412-4.871C295.206,305.625,295.329,304.037,295.423,302.448Zm75.78-18.684c0,3.258.029,5.31-.008,7.361-.039,2.167.948,2.9,2.974,2.2,8.155-2.827,16.412-5.339,23.534-10.57,7.89-5.795,15.867-11.466,25.02-15.278,3.331-1.388,6.173-3.8,9-6.131a7.722,7.722,0,0,0,2.971-5.86c.237-5,.378-10,.364-15-.009-3.535-1.011-4.123-3.954-2.6a11.876,11.876,0,0,0-5.08,4.375c-5.877,9.73-14.947,15.754-24.9,20.46a143.65,143.65,0,0,1-20.881,8.339C372.75,273.243,369.9,277.525,371.2,283.764Zm-68.022,19.247c0,2.264-.05,4.529.017,6.791.046,1.579.859,2.6,2.553,2.484,7.46-.537,15.076-.006,22.307-2.248,8.893-2.758,17.583-6.174,26.491-8.875,4.842-1.468,8.246-3.244,7.269-9.189-.317-1.932.608-4.035.657-6.067.21-8.629-.292-7.279-6.853-5.316-1.959.587-4.017.9-5.905,1.658-11.847,4.721-24.213,7.4-36.692,9.778C302.269,294.076,303.182,291.757,303.181,303.011ZM314.5,207.878l.014.277a28.878,28.878,0,0,1,4.089.038c1.827.264,3.059.032,3.406-2.108.422-2.594-1.185-3.07-3.145-3.378a84.39,84.39,0,0,1-9.387-1.625,53.871,53.871,0,0,0-18.194-1.743,65.263,65.263,0,0,1-14.924-.551,49.977,49.977,0,0,0-20.908,1.075c-9.557,2.463-16.891,7.672-19.49,17.936-1.434,5.665.533,11.2,5.064,13.571,1.472.769,2.645.635,3.155-1.117,1.377-4.727,5.252-7.94,7.35-12.225a9.22,9.22,0,0,1,6.262-4.922c8.368-2.072,16.841-4.492,25.455-4.034a166.581,166.581,0,0,0,22.43-.474Q310.091,208.241,314.5,207.878Zm-2.066,196.88v-.079c-1.364,0-2.739-.114-4.089.018-9.7.948-19.261,2.952-29.082,3.175a15.764,15.764,0,0,0-14.066,8.256c-.92,1.666-2.594,2.425-4.024,3.527a63.715,63.715,0,0,0-8.642,7.615,8.334,8.334,0,0,0-1.152,9.607c1.5,2.862,4.717,3.168,7.828,2.964,2.048-.134,3.085-1.548,4.447-2.773,6.589-5.926,13.242-11.856,21.878-14.7,10.739-3.537,21.318-7.913,32.94-7.524,2.578.086,3.684-.975,4.148-3.357.951-4.874.153-6.154-4.737-6.7A49.743,49.743,0,0,0,312.436,404.758ZM654.775,558.277h-.327c0-5-.064-10,.028-15,.046-2.465-1.074-3.249-3.3-2.746-6.9,1.559-13.889,1.674-20.91,1.5-2.208-.054-3.349,1.1-3.345,3.347q.027,14.328.03,28.656c0,1.963.948,2.893,2.887,2.91,6.357.057,12.714.178,19.07.149a13.3,13.3,0,0,0,3.977-.87,2.51,2.51,0,0,0,1.979-2.951C654.609,568.288,654.775,563.278,654.775,558.277ZM410.105,85.557c4.1,0,8.193-.008,12.29,0,5.826.013,11.186-1.786,16.385-4.208.61-.284,1.225-.7.91-1.493a1.618,1.618,0,0,0-.926-.87c-1.311-.357-2.666-.551-3.988-.876-10.54-2.6-21.51-2.811-31.938-6.217-12.706-4.15-26-6.543-37.9-13.046a15.861,15.861,0,0,0-3.136-1.329c-3.238-.94-5.245,1.083-4.568,4.41.631,3.1,3.154,4.466,5.491,5.7a70.782,70.782,0,0,1,19.611,15.678,6.537,6.537,0,0,0,6.67,2.15A69,69,0,0,1,410.105,85.557Zm268,450.8c-2,.8-5.22-.177-8.379.259-7.537,1.04-7.547,1.009-7.463,8.8.02,1.824.22,3.655.115,5.47-.394,6.787,1,13.671-1.183,20.368-.65,1.988.692,2.37,2.262,2.1,6.739-1.152,13.465-2.374,20.2-3.526,2.488-.425,3.263-2.039,3.486-4.32.82-8.384,1.8-16.753,2.558-25.141.391-4.324-.275-4.921-4.358-4.692C683.3,535.784,681.268,536.048,678.1,536.353Zm-89.7-155.77c.311-3.558-.71-6.865-1.435-10.181-.5-2.267-2.426-3.189-4.667-3.255a3.923,3.923,0,0,0-4.142,2.872c-.518,1.507-1.1,3-1.473,4.548a104.955,104.955,0,0,0-3.4,23.585c-.12,10.932-.185,21.84-2.044,32.655-.423,2.458,0,4.392,2.806,5.4,2.557.919,4.9,2.42,7.4,3.519,2.566,1.128,3.017.787,3.016-2.114a419.317,419.317,0,0,1,2.932-47.625C587.746,386.826,588.752,383.733,588.4,380.583Zm21.978,161.57c-4.9-.92-9.959,1.073-15.164,1.027-2.712-.024-3.889,1.572-3.716,4.47.485,8.149.76,16.312,1.079,24.471.049,1.255.39,2.448,1.668,2.585,6.733.722,13.366,2.668,20.284,1.221,2.4-.5,2.825-1.559,2.741-3.672a166.627,166.627,0,0,1,1.045-21.763C619.073,542.161,619.013,542.156,610.375,542.153ZM165.842,493.106c-1.4-.49-1.6.3-1.641.9a14.722,14.722,0,0,0,1.14,5.974,59.193,59.193,0,0,1,3.778,18.537c.127,4.193,2.353,6.238,5.723,7.486q10.531,3.9,21.184,7.471c2.921.986,3.142.785,2.488-2.135a37.819,37.819,0,0,1,.034-14.806c1.039-6.091,1.075-6.13-3.944-8.917-2.181-1.211-4.456-2.26-6.727-3.3-7.231-3.3-14.555-6.418-21.235-10.8A4.964,4.964,0,0,0,165.842,493.106Zm190.86-81.78c-2.046,0-4.095-.075-6.137.024-1.5.073-2.281.91-2.734,2.476-1.547,5.35-.983,6.26,4.746,6.717a21.352,21.352,0,0,0,3.409.084c8.007-.654,15.793,1.391,23.7,1.952a10.61,10.61,0,0,1,5.139,1.665c6.926,4.852,15.192,7.1,22.234,11.682.99.644,1.883,1.256,3.087.581,3.192-1.793,6.275-3.747,8.1-7.059,1.514-2.742,1.109-4.126-1.686-5.44-3.925-1.845-8.143-2.783-12.346-3.818-10.387-2.559-21.24-2.611-31.467-5.93A58.764,58.764,0,0,0,356.7,411.326Zm340.18,137.623c0,3.85-.041,7.7.015,11.55.035,2.4.841,3.918,3.744,3.211a90.8,90.8,0,0,0,17.259-6.118,3.681,3.681,0,0,0,2.413-3.725c-.389-6.375.9-12.647,1.2-18.983.116-2.51-.781-3.174-3.172-2.567a81.048,81.048,0,0,1-17.439,2.531c-4.407.137-4.269.353-4.707,5.294A26.383,26.383,0,0,0,696.882,548.949ZM68.038,309.735c0,2.492.028,4.984-.011,7.475-.024,1.532.48,2.87,2.086,2.936,7.666.316,15.433,1.254,22.592-2.705,1.173-.649,2.305-1.168,2.327-2.935.057-4.739.447-9.475.49-14.214.034-3.811-.1-3.761-3.635-3.294-4.46.588-8.931,1.107-13.4,1.611C67.128,299.891,68.006,297.308,68.038,309.735ZM101.194,72.7c2.472.178,5.576-.616,8.718-1.12,3.017-.484,5.673-3.11,9.086-1.507.294.138,1.162-.571,1.547-1.057a89.815,89.815,0,0,0,8.6-13.092c.939-1.742-.666-1.7-1.735-1.772-1.835-.123-2.97,1.008-3.819,2.416-.938,1.553-1.687,3.22-2.616,4.779-4.007,6.73-11.62,9.376-16.61.972-1.468-2.473-2.7-2.719-4.566-.656a10.4,10.4,0,0,1-1.523,1.365c-5.747,4.252-8.969,4.247-14.463-.485-1.628-1.4-2.737-1.633-4.76-.8-3.816,1.574-7.465.953-10.861-1.715-1.845-1.449-2.935-5.005-5.409-4.162-2.12.723-2.421,4.128-3.541,6.339-.411.81-.788,1.638-1.179,2.458-2.062,4.337-1.5,5.65,3,6.276a14.382,14.382,0,0,0,5.4-.152c1.713-.435,3.219-1.633,4.864-2.392,2.77-1.277,2.258,2.874,4.737,2.8,3.188-.095,6.385.416,9.267-1.391,2.22-1.392,4.032-1.306,6.062.626C93.876,72.794,97.25,72.609,101.194,72.7Zm46.758,120.5c-.491-4.776-.851-9.542-1.528-14.263-.288-2.011-1.163-4.028-3.574-4.523-2.377-.488-3.742.942-5.091,2.65A14.129,14.129,0,0,0,135,186.691c.141,4.548.538,9.09.617,13.639.163,9.313,2.842,18.368,2.776,27.7a2.076,2.076,0,0,0,.936,1.583c2.258,1.044,7.293-2.347,6.7-4.665-1.167-4.543-.277-8.97.131-13.436C146.715,205.409,147.349,199.31,147.952,193.2ZM59.969,310.017c0-.911-.01-1.822,0-2.733.016-1.136.111-2.274.063-3.407-.15-3.572-.819-4.6-4.312-4.624-7.032-.056-13.362-2.272-19.368-5.616-1.69-.942-2.384-.773-2.607,1.142-.578,4.951-1.152,9.9-1.781,14.849a2.848,2.848,0,0,0,1.849,3.231c5.953,2.867,11.9,5.875,18.619,6.325,8.691.583,8.145,1.1,7.547-7.118C59.931,311.387,59.974,310.7,59.969,310.017ZM77.421,85.673c10.089.769,21.03-2.575,32.218-2.083a3.4,3.4,0,0,0,3.367-1.826c1-1.783,1.923-3.618,2.809-5.464a1.58,1.58,0,0,0-.058-1.227c-.412-.8-1.146-.537-1.76-.281a7.23,7.23,0,0,0-1.109.773c-9.27,6.158-13.371,6.285-22.183.025-2.208-1.568-3.052-.42-4.525.742-5.947,4.69-8.942,4.611-14.033-.647-1.433-1.48-2.183-1.591-3.885-.511-4.491,2.849-9.129,3.973-13.769.066-1.221-1.028-2.07-.071-2.616,1-1.653,3.239-3.292,6.485-4.865,9.762-.7,1.464.064,2.24,1.482,1.912C57.663,85.8,67.02,86.261,77.421,85.673Zm434.084,23.165c9.025.791,19.381-1.619,29.544-5.133.546-.189,1.329-.665,1.385-1.09.1-.779-.784-.952-1.418-1.149a14.164,14.164,0,0,0-5.4-.147c-10.826.815-21.664,1.953-32.306-1.47a6.418,6.418,0,0,0-2.677-.074c-9.892,1.264-19.778,2.57-29.166,6.207-.608.236-1.506.254-1.418,1.121.082.8.885.873,1.563.829,7.741-.506,15.433.38,23.111,1.038A82.024,82.024,0,0,0,511.505,108.838ZM152,280.724c0-2.732.039-4.558-.009-6.382-.064-2.451-1.276-2.5-3.118-1.514-5.011,2.675-10.146,5.131-15.074,7.949-8.582,4.908-9.04,6.029-7.77,15.751.059.452.11.906.168,1.358.263,2.042,1.313,2.859,3.278,1.959,4.973-2.277,9.846-4.794,14.9-6.86C150.445,290.506,153.556,286.574,152,280.724ZM102.27,302.736h.131c0,1.13-.048,2.263.008,3.39.366,7.262.576,7.384,7.2,4.325.615-.285,1.235-.563,1.832-.882,8.841-4.721,9.7-6.116,10-16.119.134-4.47-.391-4.895-4.446-3.658-2.8.855-5.6,1.708-8.42,2.51-6.1,1.736-6.324,2.021-6.307,8.4C102.272,301.379,102.27,302.058,102.27,302.736ZM12.4,283.078c0,1.814-.064,3.631.012,5.441a24.555,24.555,0,0,0,6.362,16.095c.608.665,1.111,1.567,2.174,1.156,1.043-.4.817-1.485.872-2.319q.627-9.486,1.175-18.979a8.063,8.063,0,0,0-1.074-5.209c-2.492-3.787-4.838-7.67-7.273-11.5-.474-.743-1.135-1.826-2.009-1.382-.526.267-.583,1.6-.718,2.471C11.18,273.624,12.546,278.326,12.4,283.078ZM743.171,523.6c-.18-.54.928-2.7-.446-3.5-2.152-1.257-2.836,1.532-4.239,2.437a20.266,20.266,0,0,1-2.76,1.956c-2.939,1.238-3.921,3.677-4.128,6.51a136.954,136.954,0,0,1-2.4,16.824,9.792,9.792,0,0,0,0,1.952,6.052,6.052,0,0,0,1.806-.369c3.987-2.247,7.278-5.418,10.8-8.282a2.894,2.894,0,0,0,1.173-3.033C741.467,533.522,743.473,529.084,743.171,523.6ZM353.224,207.038c-3.8-.567-4.385.225-4.043,2.732.457,3.348,3.229,3.672,5.521,4.144,4.48.922,7.788,3.37,10.829,6.608,2.138,2.277,2.965,5.038,3.96,7.806,1.03,2.863,1.727,3.086,4.324,1.914,2.466-1.113,3.308-2.825,2.734-5.47a15.859,15.859,0,0,0-3.16-5.971C368.047,211.528,359.809,209.438,353.224,207.038Zm9.427,23.8c-.153-5.768-3.72-9.562-9.183-9.9-1.755-.11-3.239.233-2.925,2.524.488,3.562,1.027,7.117,1.532,10.677a1.98,1.98,0,0,0,2.351,1.82c1.566-.109,3.127-.361,4.678-.626C361.724,234.88,363.091,233.436,362.651,230.836Zm254.841,31c4.395.175,6.33-1.917,7.746-4.7,1.02-2.007.461-3.235-1.7-3.064-5.414.432-10.808,1.138-16.2,1.789a1.281,1.281,0,0,0-.854.849,1.332,1.332,0,0,0,.522,1.092A31.469,31.469,0,0,0,617.492,261.837ZM93.507,54.361v.186c-2.047,0-4.1-.059-6.14.027a2.146,2.146,0,0,0-2.014,1.555c-.233.971.557,1.679,1.36,2.148,2.831,1.653,8.687.437,11.245-2.365.481-.526.518-1.395-.368-1.507A32.872,32.872,0,0,0,93.507,54.361ZM634.295,253.722c-.874,1.007-2.964-.592-3.085,1.587-.063,1.151,1.24,1.8,2.236,2.33a9.569,9.569,0,0,0,5.956.944c1.532-.222,3.74-.511,3.88-2.174.22-2.614-2.313-1.164-3.568-1.58A44.178,44.178,0,0,0,634.295,253.722ZM71.272,53.394c-1.594.14-3.805-1.209-4.291.758-.407,1.647,2.014,2,3.278,2.8a6.929,6.929,0,0,0,4.566,1.033c1.856-.214,3.958-.665,3.769-2.943-.14-1.681-2.161-1.048-3.391-1.243C73.861,53.581,72.5,53.513,71.272,53.394Zm40.972,1.4c-.673.089-1.345.185-2.018.266-1.235.15-3.22-.693-3.462.881-.265,1.725,1.9,2.312,3.21,3a4.554,4.554,0,0,0,3.264.283c1.672-.576,3.675-1.654,3.284-3.652-.258-1.325-2.3-.8-3.6-.835A5.935,5.935,0,0,0,112.244,54.793ZM663.806,255.806c-.334-.218-.671-.628-1-.624-2.716.039-5.435.1-8.145.274-1.1.07-.757,1.037-.45,1.5a5.456,5.456,0,0,0,5.2,2.6c1.938-.175,3.015-1.854,4.313-3.082C663.844,256.352,663.781,256.034,663.806,255.806Zm-115.879,35.4a1.642,1.642,0,0,0-.917-1.877c-.954-.4-1.638.541-2.225,1.226a17.31,17.31,0,0,0-1.656,2.163c-.327.534-.743,1.273-.6,1.777.291,1.049,1.409.954,2.284,1.061C547.3,295.864,547.982,294.4,547.927,291.21ZM166.206,78.955a1.25,1.25,0,0,0,1.368,1.087.654.654,0,0,0,.461-.43,1.1,1.1,0,0,0-1.048-1.291C166.768,78.283,166.465,78.732,166.206,78.955Zm327.2,342.724c3.331-.169,7.108-.011,9.82,3.6,2.273,3.027,2.36,4.485-.695,6.807a52.718,52.718,0,0,1-16.4,8.058c-7.089,2.232-12.347.189-16.77-5.315-1.707-2.125-3.585-4.112-5.268-6.255a16.2,16.2,0,0,1-2.053-3.507c-1.718-3.936-1.125-8.658,1.51-9.916,3.431-1.638,6.071.148,8.293,2.724a7.3,7.3,0,0,0,.874,1.044c.925.727,2.013,1.582,2.166-.547a15.264,15.264,0,0,1,1.477-5.917c1.307-2.57,3.14-4.349,6.3-4.471,4.763-.185,6.627,1.555,6.49,6.423-.032,1.133-.222,2.262-.334,3.394C488.42,421.862,488.421,421.862,493.408,421.679ZM474.84,431.934l.318.1-.449-.179c-.21-4.365-3-7.307-5.7-10.285-.443-.488-1.208-.859-1.695-.351a1.948,1.948,0,0,0-.372,1.781C469.026,426.447,471.076,429.961,474.84,431.934Zm7.183-12.08c.139,1.4-.78,3.561.739,3.908.881.2,1.685-2.287,2.015-3.813.375-1.729.726-3.464,1.031-5.206.122-.7-.246-1.444-.884-1.489a2.353,2.353,0,0,0-1.617.865C481.9,415.781,482.107,417.861,482.023,419.854Zm8.728,13.745c1.731-.691,3.66-1.378,5.5-2.248.516-.243.776-1.027,1.154-1.563a6.807,6.807,0,0,0-1.868-.43c-2.155.121-3.819,1.378-5.454,2.622a3.8,3.8,0,0,0-.687,1.082Zm35.374,49.292c-9.151-.837-17.612-3.242-23.888-10.636-3.245-3.822-4.081-7.142-2.413-9.812,1.808-2.893,6-4.04,10.445-2.861A17.159,17.159,0,0,0,521.223,458a8.19,8.19,0,0,1,1.253-.527c2.775-1.014,5.795-2.443,8.253.084,2.478,2.548,1.1,5.5-.254,8.211a8.21,8.21,0,0,1-.714,1.158c-1.18,1.62-.821,2.512,1.225,2.393,2.3-.135,4.547-.2,6.542,1.2,2.186,1.541,3.56,3.492,3.093,6.327a5.517,5.517,0,0,1-4.346,4.67A41.041,41.041,0,0,1,526.125,482.891Zm-14.036-8.7q-.057.861.347.283l-.489-.153c.569-2.047.075-4.061-.393-6.011a5.433,5.433,0,0,0-4.744-4.248,2.688,2.688,0,0,0-2.959,1.094,2.327,2.327,0,0,0,.135,2.568C506.005,470.693,508.263,473.447,512.089,474.188Zm12.373,4.269c3.511-.163,6.653-.283,9.609-1.485.543-.22,1.295-.581.769-1.419a1.732,1.732,0,0,0-.98-.811c-3.919-.529-7.514.632-10.985,2.284-.3.145-.425.676-.63,1.028a2.033,2.033,0,0,0,.6.287C523.508,478.416,524.174,478.439,524.462,478.457Zm-3.2-8.212a18.439,18.439,0,0,0,4.908-5.367c.455-.7,1.2-1.494.375-2.337-.864-.879-1.65-.041-2.327.412a9.2,9.2,0,0,0-3.919,6.016C520.165,469.607,520.306,470.238,521.262,470.245ZM485.919,29.336c5,0,10.007.017,15.011-.01a51.139,51.139,0,0,0,5.456-.221,3.265,3.265,0,0,0,3.143-3.073c.065-2.076-1.706-2.445-3.386-2.369-11.57.525-23.181.175-34.707,1.567a27.675,27.675,0,0,0-5.267,1.368c-.531.175-1.235.839-1.267,1.318-.085,1.281,1.039,1.2,1.906,1.2q9.555.026,19.11.01Zm60.874,16.376c1.14,0,2.281.024,3.42-.006a17.5,17.5,0,0,0,4.079-.234c1.791-.487,3.456-1.928,3.49-3.622.039-1.887-1.616-3.146-3.749-3.211-.455-.014-.909-.11-1.362-.1q-14.012.23-27.95,1.672c-1.148.118-2.573.344-2.635,1.66-.085,1.776,1.637,1.986,2.909,2.11,7.253.709,14.517,1.313,21.778,1.953ZM406.464,30.523c-2.531.424-6.535.1-6.52,3.22.015,3.181,4.259,2.754,6.65,3.25,5.209,1.082,10.3-.345,15.145-2.349a2.72,2.72,0,0,0-1.151-5.31c-1.355-.007-2.71,0-4.979,0C413.157,29.643,409.791,29.965,406.464,30.523Zm157.842,1.2c1.422-.036,2.846-.485,2.8-2.141-.031-1.255-1.3-1.84-2.478-1.82q-7.746.135-15.488.482a1.867,1.867,0,0,0-1.284,1.277c-.054.431.574,1.174,1.075,1.411,2.977,1.407,6.141,1.156,10.06.8C560.257,31.732,562.282,31.77,564.306,31.72ZM447.452,41.082c-2.406.893-2.637,3.079-.684,4.741,1.935,1.649,4.592,1.456,7.432-.589,1.136-.818,2.1-1.858,1.741-3.377-.389-1.656-1.775-1.819-4.277-1.689A23.227,23.227,0,0,0,447.452,41.082Zm51.289,1.488c-1.1.028-2.457.18-2.613,1.512-.161,1.375,1,1.927,2.215,1.845,1.321-.088,2.706-.289,3.114-2.137C500.95,42.666,499.824,42.543,498.741,42.57Zm93.067,260.573c-.649,3.8-1.062,7.659-2,11.384-1.152,4.549-4.606,7.226-8.789,8.811-3.106,1.177-5.727.183-7.688-2.589a15.782,15.782,0,0,1-3.093-11.511c.74-5.485,3.128-10.428,5.687-15.175,2.545-4.718,7.563-5.064,11.379-1.181C590.052,295.684,592.415,298.765,591.808,303.143Zm-13.993,2.814h.11a33.892,33.892,0,0,0,.035,4.729c.578,4.05,3.207,5.284,6.8,3.271,3.956-2.218,4.244-6.2,4.406-10.016.164-3.873-2.708-6.215-7.165-6.345-2.783-.081-3.888,1.4-4.176,5.654C577.763,304.148,577.815,305.055,577.815,305.957ZM150.668,103.219a21.536,21.536,0,0,1-1.813,8.652c-2.187,5.1-7.706,7.94-12.217,6.466-3.9-1.274-7.492-7.871-6.593-12.424a19.889,19.889,0,0,1,4.069-8.551c3.2-4.039,6.409-5.406,9.905-4.15A9.912,9.912,0,0,1,150.668,103.219Zm-6.31,2.021a6.638,6.638,0,0,0-1.174-3.65,2,2,0,0,0-2.38-.773c-2.144.988-2.718,2.871-2.459,5.031.231,1.931,4.084,6,4.467,5.273a25.08,25.08,0,0,0,1.538-5.069A3.689,3.689,0,0,0,144.358,105.24ZM668.112,477.01c2.3.171,3.709-1.256,4.185-4.369.17-1.119.071-2.278.186-3.409,1.285-12.578,2.823-25.045,14.014-33.5a2.149,2.149,0,0,0,.484-3.047c-.888-1.227-2.022-.463-3.031-.006-9.655,4.364-15,12.33-17.625,22.134-1.464,5.459-.705,11.346-2.23,16.458C663.988,474.787,665.527,476.818,668.112,477.01Z"/></g></g></svg>