<svg xmlns="http://www.w3.org/2000/svg" viewBox="0 0 617.648 510.037"><title>oniric-world</title><g id="Layer_2" data-name="Layer 2"><g id="Layer_1-2" data-name="Layer 1"><path d="M79.664,296.994c.868-3.747.144-7.536.223-11.3.161-7.641.312-15.367,2.013-22.743,3.256-14.123,6.828-28.239,16.008-40.1,4.735-6.12,10.045-11.391,17.151-14.708,3.021-1.411,2.958-1.556,2.129-4.971a80.436,80.436,0,0,1-1.8-25.3c1.142-15.206,2.68-30.331,6.094-45.193,4.706-20.491,8.919-41.11,15.391-61.164,3.122-9.677,8.412-18.142,14.8-25.846,6.36-7.669,12.773-15.372,21.152-21.1,2.854-1.95,5.595-4.092,8.744-5.506,6.793-3.05,13.265-6.756,20.013-9.858,16.5-7.583,33.755-10.984,51.94-8.282.9.133,1.808.178,2.715.227,20.051,1.084,34.986,10.507,45.419,27.542a84.536,84.536,0,0,0,22.488,24.823c13.1,9.476,26.9,9.523,41.269,3.48,7.522-3.165,14.766-7,22.7-9.16,5.45-1.483,11.012-2.809,16.582-2.891,13.607-.2,25.877,3.647,35.06,14.366,2.746,3.205,3.788,7.41,4.423,11.545.907,5.912,1.418,11.886,2.352,17.794A80.374,80.374,0,0,0,452,107.967c2.894,6.723,7.571,10.86,15.28,11.088a86.461,86.461,0,0,0,13.039-.509,84.175,84.175,0,0,1,23.856.215c7.244,1.176,12.853,4.771,17.9,9.568,5.345,5.078,9.476,10.952,10.9,18.442a16.441,16.441,0,0,0,2.2,5.55c2.517,4,2.946,8.493,3.71,12.964,1.3,7.572.794,15.21,1.12,22.817a39.778,39.778,0,0,1,.194,4.353c-.229,3.341-.463,6.568,4.418,6.246a12.813,12.813,0,0,1,5.537,19.438c-4.747,6.405-9.929,12.486-14.851,18.763-1.424,1.816-4.4,3.981-3.28,5.786,1.306,2.111,4.251-.115,6.37-.733a47.441,47.441,0,0,1,10.682-1.877,12.407,12.407,0,0,1,13,12.784,36.009,36.009,0,0,1-3.878,14.613,90.93,90.93,0,0,1-19.58,27.017c-.394.374-.784.755-1.156,1.151-1.113,1.183-3.008,2.729-2.281,3.975.874,1.5,2.946.091,4.46-.27,3.174-.756,6.284-1.887,9.5-2.368,8.208-1.23,12.579,2.313,14.07,10.465,1.548,8.465-.309,16.16-4.4,23.493-1.459,2.613-1.5,2.778,1.664,2.934,5.765.285,10.335,3.453,14.834,6.36,7.782,5.03,14.947,10.914,20.648,18.359,2.744,3.584,5.7,6.982,8.4,10.622,6.205,8.367,9.24,18,12.059,27.718,2.266,7.816.788,15.843.475,23.811-.667,17-8.733,30.577-19.865,42.446a90.728,90.728,0,0,1-30.948,21.636,121.616,121.616,0,0,1-27.622,7.841c-9.292,1.576-18.382,4.214-27.613,6.051-13.321,2.65-26.861,3.9-40.429,4.828-10.86.739-21.729.421-32.586.813-13.6.491-27.191,1.05-40.773,1.816-20.26,1.143-40.445,3.315-60.769,3.7-18.066.345-36.039.286-54.04-1.776-8.959-1.026-18.05-1.141-27.061-2.066a35.878,35.878,0,0,1-10.015-2.181,21.087,21.087,0,0,0-14.387-.69c-1.244.368-2.958,2.033-3.857-.672-.069-.208-1.363-.086-2.071.008-12.6,1.669-25.292,1.915-37.954,2.667a433.073,433.073,0,0,1-44.549.858c-6.693-.291-13.417-.395-20.063-1.147-12.421-1.406-24.83-2.817-37.343-3.021-2.533-.042-5.07-.012-7.6.061-17.914.52-35.821.96-53.532,4.262-4.173.778-8.609,1.41-12.819-.507a4.129,4.129,0,0,0-3.2-.2c-1.837.715-3.011-.078-4.316-1.294C-.171,500.785-1.1,496.3,1.412,492.1c1.953-3.266,3.988-6.5,7.14-8.846a18.063,18.063,0,0,0,6.279-9.351,69.028,69.028,0,0,1,5.387-12.445c2.5-4.523,2.67-9.754,3.7-14.711.442-2.122.681-4.287.991-6.436a32.146,32.146,0,0,0-.793-13.987c-1.738-5.885-3.706-11.778-3.149-18.123.546-6.218,1.773-12.17,5.124-17.568A110.989,110.989,0,0,0,36.667,369.2a84.256,84.256,0,0,0,3.489-14.8,184.74,184.74,0,0,1,10.711-38.739c.736-1.854,1.294-3.779,2.055-5.622.968-2.344,1.732-4.863,3.155-6.911,4.967-7.148,10.746-10.715,21.092-6.86a4.691,4.691,0,0,0,2.584.612c.159.369.374.24.2.068C79.437,296.435,80.367,296.81,79.664,296.994ZM319.743,499.53c12.2.465,23.063-.8,33.961-.881a99.992,99.992,0,0,0,10.89-.315c17.327-2.038,34.75-2.578,52.144-3.6,15.6-.911,31.235-.172,46.84-1.259,12.5-.87,24.929-2.058,37.324-3.993,13.306-2.077,26.113-6.241,39.318-8.665a107.591,107.591,0,0,0,23.286-7.374,63.238,63.238,0,0,0,25.576-20.628c7.623-10.171,12.312-21.789,11.455-34.986-.363-5.584.432-11.371-1.776-16.66-5.17-12.384-10.074-24.951-20.236-34.452A138.732,138.732,0,0,0,561.882,353.7a17.153,17.153,0,0,0-6.947-2.765,19.832,19.832,0,0,1-5.7-1.742c-2.485-1.253-4.287-.3-5.83,1.375-6.54,7.092-14.567,12.421-21.894,18.574-5.248,4.407-19.6,7.49-26.06,5.621a97.169,97.169,0,0,1-12.335-4.252,19.36,19.36,0,0,0-13.719-1.033c-5.206,1.525-10.427,3.075-15.473,5.045-5.76,2.25-11.734,1.72-17.65,2.059a10.3,10.3,0,0,1-5.195-1.455c-3.718-1.9-7.474-3.727-11.123-5.751a21.7,21.7,0,0,0-12.549-2.725,31,31,0,0,0-14.719,5.164c-5.154,3.331-10.084,7.018-15.864,9.323-4.893,1.951-9.79,2.686-14.705.457a35.8,35.8,0,0,1-8.7-5.506c-4.659-4.021-7.6-9.108-10.509-14.4-4.045-7.375-7.171-7.828-14.543-3.669a34.742,34.742,0,0,0-3.064,2.268,52.559,52.559,0,0,1-12.329,6.8c-9.307,3.477-18.562,7.1-27.931,10.4-8.69,3.064-16.832,2.806-23.377-4.925-3.047-3.6-6.221-7.1-9.452-10.536-2.458-2.615-5.485-4.51-9.187-3.629-4.389,1.043-8.939,1.932-12.818,4.358-5.434,3.4-11.474,5.342-17.3,7.814-7.7,3.267-15.836,3.739-24.013,3.605a23.887,23.887,0,0,1-11.4-3.277,110.2,110.2,0,0,1-12.369-7.909,15.694,15.694,0,0,0-9.557-3.2c-5.746-.11-10.559,2.267-15.246,4.99-4.8,2.79-4.926,4.648-1.124,8.8a4.676,4.676,0,0,0,.391.38c8.118,7,16.37,13.554,26.746,17.343,7.233,2.641,14.566,6.054,19.633,12.3,4.359,5.373,9.466,10.031,13.821,15.379a30.789,30.789,0,0,1,3.044,3.826C208.7,433,218.26,439.472,226.933,446.8c2.611,2.206,4.983,4.787,8.106,6.38,6.681,3.408,12.354,8.248,18.16,12.889a49.3,49.3,0,0,1,16.194,22.046c.975,2.71,1.748,5.811,3.614,7.792,1.84,1.955,5.2.856,7.864,1.077C294.241,498.088,307.5,501.063,319.743,499.53ZM267.23,203.459c.65-2.632-.546-5.43-.819-8.3-.518-5.467-4.516-8.071-10-6.886a42.026,42.026,0,0,0-7.286,2.165c-9.764,4.038-19.682,6.969-30.55,6.007a28.516,28.516,0,0,1-14.5-5.309,36.007,36.007,0,0,1-6.77-6.285c-1.922-2.309-2.044-2.266-4.631-.319a103.714,103.714,0,0,1-24.233,13.293c-6.714,2.667-13.624,4.83-20.11,8.1-10.2,5.137-20.541,10.024-29.96,16.578a32.938,32.938,0,0,0-6.761,6.225c-5.517,6.731-7.641,14.654-8.954,23-.984,6.248-1.422,12.547-2.2,18.809-.554,4.489-1.521,8.921-1.956,13.45a81.548,81.548,0,0,1-2.614,15.491c-1.243,4.191-1.137,4.09,2.58,6.869,8.585,6.417,15.437,14.04,18.408,24.788,2.616,9.467,8.429,17.605,12.017,26.7.524,1.328,1.3,1.105,2.034.438,2.556-2.313,4.974-4.781,7.575-7.04,8.951-7.771,21.349-10.873,32.047-3.78a62.332,62.332,0,0,1,5.214,3.936,97.545,97.545,0,0,0,15.02,9.821,17.06,17.06,0,0,0,12.618,1.7c6.79-1.57,13.036-4.391,19.2-7.49s12.268-6.256,19.108-7.772a14.827,14.827,0,0,1,11.04,1.4c3.463,1.982,6.891,4.049,10.183,6.3,9.186,6.281,19.156,8.457,29.977,5.7,5.026-1.282,5.436-.569,2.359-5.69a16.891,16.891,0,0,0-1.631-2.181c-4-4.711-6.02-10.331-7.309-16.234-1.528-7-.5-13.179,5.317-18.252,5.462-4.764,10.609-9.909,15.669-15.107,4.311-4.428,3.845-8.023-1.033-11.713-3.487-2.638-6.866-5.375-8.557-9.622-3.286-8.259-2.529-16.347,1.3-24.166a53.031,53.031,0,0,1,15.329-18.84c7.237-5.607,7.751-7.892,4.91-16.081-2.936-8.464-3.342-16.693,3.019-24.06,1.059-1.228,1.824-2.706,2.765-4.041a18.576,18.576,0,0,1,13.5-8.256c2.7-.312,5.405-.766,8.115-.828,2.091-.047,2.331-.946,2.216-2.719-.288-4.415-2.027-8.446-3.1-12.653-2.676-10.529-4.349-21.292-7.453-31.724a108.085,108.085,0,0,0-5.644-15.893c-2-4.2-3.582-4.9-8.156-4.244a45.257,45.257,0,0,0-18.7,6.9A43.447,43.447,0,0,1,292.867,131a8.856,8.856,0,0,1-7.78-1.338,31.1,31.1,0,0,1-7.094-6.684c-5.111-6.911-7.679-14.771-9.145-23.065a106.783,106.783,0,0,0-3.762-14.759c-1.388-4.219-4.2-7.446-9-7.5-6.8-.083-13.485.774-18.918,5.48-6.551,5.673-14.465,8.91-22.193,12.408-5.038,2.281-10.5,3.137-15.82.841a38.863,38.863,0,0,1-10.176-6.213c-5.224-4.528-8.533-10.306-11.1-16.591-.412-1.009-.729-2.055-1.117-3.074-.167-.44-.225-1.116-.962-.855a1.339,1.339,0,0,0-.769.706,27.428,27.428,0,0,0-.755,3.162,66.373,66.373,0,0,0-.262,18.45c1.072,10.481,3.336,20.747,5.548,31.022a18.174,18.174,0,0,1-.124,9.125c-1.654,5.752-2.951,11.606-4.452,17.4-.446,1.724.142,2.612,1.832,2.109,3.669-1.091,7.557-1.245,11.136-2.375,2.556-.807,3.347.115,4.054,1.934a35.1,35.1,0,0,0,5.773,9.771A13.826,13.826,0,0,1,200,165.285c1.5,4.3,3.992,8.1,6.351,11.989,3.126,5.15,7.509,6.762,13.316,6.464,7.028-.36,13.438-2.958,20.049-4.805a41.261,41.261,0,0,0,8.985-3.724,13.494,13.494,0,0,1,13.6-.066c5.893,3.451,11.35,7.278,13.513,14.673,3,10.267-1.885,24.065-11.248,29.319a1.2,1.2,0,0,1-1.484-.051c-.521-.486-.122-.983.145-1.42C265.828,213.4,267.593,208.9,267.23,203.459Zm259.2-19.487c-.665-18.915-.81-18.88-5.4-38.107-2.307-9.669-8.472-14.7-17.735-16.931-6.468-1.559-12.943-.872-19.42-.6-6.326.263-12.621.85-18.963-.059A27.915,27.915,0,0,1,446.9,118.049c-3.811-4.542-6.058-9.9-8.222-15.273-3.547-8.815-5.314-18.091-6.513-27.474-1.285-10.061-3.513-12.6-13.1-15.534a56.389,56.389,0,0,0-21.949-2c-8.273.755-15.884,3.585-23.262,7.131a96.645,96.645,0,0,1-13.524,5.679C346.48,74.81,333.5,73.35,321.652,64.615a92.912,92.912,0,0,1-15.244-13.962,101.519,101.519,0,0,1-14.4-21.1,35.188,35.188,0,0,0-13.4-14.687c-5.9-3.614-11.96-6.742-18.959-7.831C251.766,5.812,243.992,3.9,235.9,4.6a84.845,84.845,0,0,0-41.062,14.684,47.1,47.1,0,0,1-6.685,3.634,69.335,69.335,0,0,0-14.941,9.872c-5.122,4.243-8.389,9.985-12.651,14.911a71.314,71.314,0,0,0-15.377,30.851c-4.8,20.134-6.824,40.764-11.217,60.965a51.107,51.107,0,0,0-1.3,12.387c.319,10.367-.689,20.641-1.587,30.939-.47,5.4-.5,10.841-.574,16.266-.034,2.472.485,2.773,3.006,2.157a53.01,53.01,0,0,0,10.715-3.906,152.063,152.063,0,0,1,18.491-7.933,61.66,61.66,0,0,0,19.655-10.37c7.887-6.449,8.072-4.94,3.072-15.627-1.042-2.228-2.129-2.845-4.613-1.919-4.059,1.512-8.255,2.813-12.731,2.235-4.059-.524-7.087-5-5.418-8.664,3.393-7.453,5.326-15.447,8.755-22.866,1.066-2.308,1.525-4.39-.087-6.636-5.107-7.12-5.74-15.414-6.423-23.787-.79-9.686.426-19.156,2.041-28.639.92-5.4,3.773-9.863,7.2-13.822,3.139-3.625,5.248-3.014,7.255,1.386.446.979.659,2.061,1.009,3.086a39.1,39.1,0,0,0,10.638,16.838c6.037,5.434,13.082,8.091,21.022,5.161,7.118-2.627,14.449-4.943,20.726-9.485,3.815-2.76,8.23-3.726,12.812-4.1,2.172-.179,4.382-.071,6.523-.417,3.305-.536,6.092.582,8.726,2.3a21.674,21.674,0,0,1,9.032,11.249c1.481,4.286,2.854,8.609,4.32,12.9,2.152,6.3,5.164,11.8,11.218,15.485,4.518,2.751,8.871,3.258,13.395,1.081,6.5-3.13,13.5-4.117,20.448-5.391a16.2,16.2,0,0,1,15.357,4.987c2.794,2.881,5.438,5.976,6.815,9.766,2.97,8.179,6.268,16.312,8.317,24.734,2.737,11.253,5.469,22.54,7.062,34.066.821,5.942,2.609,11.686,7.766,15.693a24.937,24.937,0,0,1,4.025,4.422A18.081,18.081,0,0,1,374.5,213.6a32.788,32.788,0,0,1-1.144,11.814,20.608,20.608,0,0,0-.591,10.741c.152.68.065,1.629.871,1.78s1.212-.674,1.542-1.315c2.907-5.65,5.768-11.323,8.7-16.959,4.81-9.245,10.62-17.689,18.618-24.58,7.442-6.41,15.066-12.6,23.074-18.239a85.73,85.73,0,0,1,34.807-14.637c9.75-1.719,17.408,1.131,23.687,8.684,6.116,7.356,6.259,12.514-.187,19.6-3.173,3.49-6.635,6.715-9.88,10.142-1.623,1.714-1.46,2.194.817,2.7,6.05,1.334,12.113,2.57,16.863,7.038,1.117,1.051,2.3.545,3.487-.145,2.98-1.723,5.983-3.414,9.037-5a25.384,25.384,0,0,1,10.814-3.279c3.193-.136,6.324-1.473,9.508-2.159,1.61-.347,1.937-1.314,1.923-2.75C526.4,192.683,526.427,188.327,526.427,183.972Zm-285.6,309.07c6,0,10.722-.02,15.448.01,1.816.011,2.9-.561,2.135-2.562-2.193-5.751-5.283-10.891-11.2-13.424-5.31-2.275-10.541-4.687-16.178-6.295a68.229,68.229,0,0,1-18.983-8.911,90.3,90.3,0,0,1-13.993-11.982,22.652,22.652,0,0,1-5.047-8.292,122.77,122.77,0,0,1-6.4-25.787c-1.02-7.42-4.881-11.062-12.312-12.384a72.546,72.546,0,0,0-18.957-.956A34.292,34.292,0,0,1,134.4,398.03c-9.761-5.838-17.6-13.868-24.414-22.9a35.007,35.007,0,0,1-4.339-7.532A236.32,236.32,0,0,1,92.709,328a11.807,11.807,0,0,0-4.065-6.887c-1.548-1.257-3.141-2.459-4.693-3.713-5.108-4.127-11.234-6.666-16.514-10.467-4.5-3.241-4.518-3.261-6.863,2.528a12.352,12.352,0,0,0-.371,1.588,293.4,293.4,0,0,0-6.9,39.62,95.018,95.018,0,0,1-14.238,40.119,38.707,38.707,0,0,0-5.722,27c.849,6.044,2.174,12.158.728,18.384-.738,3.174-2.022,6.155-2.515,9.437-1.921,12.793-5.987,25-10.7,37.01a31.371,31.371,0,0,1-4.043,7.077,23.979,23.979,0,0,0-2.121,3.159c-1.2,2.338-.6,3.369,1.942,3.458a28.579,28.579,0,0,0,5.952-.523c12.161-2.136,24.363-3.985,36.758-3.922,7.451.037,14.9.138,22.351.238a266.662,266.662,0,0,1,28.777,2.055c7.385.9,14.786,1.91,22.207,2.228a611.117,611.117,0,0,0,64.27-.954c4.349-.271,8.7-.43,13.059-.614C220.711,494.365,231.361,492.933,240.827,493.042ZM345.754,342.3l-.149.008c.139,2.719.3,5.437.4,8.158a3.5,3.5,0,0,0,1.177,2.872c6.188,5.2,12.821,9.472,21.017,10.788a23.275,23.275,0,0,0,8.646-.192,4.8,4.8,0,0,0,3.713-2.74c3.437-7.056,8.091-13.331,12.725-19.627,2.959-4.02,2.691-8.511-.262-12.536a22.262,22.262,0,0,0-6.425-5.787,103.519,103.519,0,0,1-16.887-12.739c-5.5-5.189-8.7-16.237-4.07-23.985a47.954,47.954,0,0,1,7.449-9.992c3.639-3.555,7.348-7.043,10.886-10.7,3.006-3.1,2.908-4.856-.305-7.732a24.319,24.319,0,0,0-4.469-3.078c-2.058-1.138-4.269-2-6.358-3.08-10.635-5.524-14.353-11.717-13.942-22.989.1-2.746,1.052-5.317,1.805-7.938,1.217-4.232,2.369-8.97-.552-12.564-3.748-4.611-8.442-8.7-14.242-10.535-3.542-1.118-7.679-1.28-11.046,1.12a16.59,16.59,0,0,0-4.084,23.6c2.593,3.72,2.711,7.278,1.115,11.251a32.54,32.54,0,0,1-4.376,7.468c-3.094,4.109-7.284,6.953-11.09,10.255-7.089,6.15-11.025,13.8-10.756,23.369.109,3.892,1.4,7.116,5.01,9.021,2.818,1.486,4.555,4.137,6.829,6.205a6.378,6.378,0,0,1,1.943,5.424c-.322,5.636-3,9.94-7.126,13.549-3.822,3.345-7.791,6.555-11.338,10.174-3.45,3.519-5,7.391-2.812,12.74,2.831,6.933,6.6,13.325,9.946,19.952,2.16,4.279,2.951,4.34,7.9,2.7,6.369-2.112,12.643-4.642,19.529-4.5,1.89.039,2.493-.984,2.529-2.73.11-5.447.3-10.892.458-16.338.047-1.574-.822-2.675-1.739-3.853-1.671-2.145-3.243-4.38-4.692-6.68a21.536,21.536,0,0,1-1.731-3.972,1.985,1.985,0,0,1,.8-2.394,2.048,2.048,0,0,1,2.551.065c1.089.939,1.98,2.106,2.984,3.149.353.367.745.9,1.347.487a1.161,1.161,0,0,0,.474-.861c-.492-5.289,1.039-10.479.729-15.762-.415-7.061-.8-14.126-1.065-21.194a9.524,9.524,0,0,0-2.008-5.461,102.739,102.739,0,0,1-6.123-9.659c-1.657-2.955-1.45-4.787.341-5.707,2.566-1.318,3.425,1,4.757,2.364.83.85,1.174,2.859,2.523,2.341,1.171-.449.423-2.273.427-3.458a48.526,48.526,0,0,0-.528-4.85c-.179-1.805-.4-3.614-.418-5.423-.012-1.494.42-3,2.015-3.533,1.976-.659,3.094.831,3.923,2.2a14.483,14.483,0,0,1,1.876,7.85q-.066,5.179-.017,10.358a1.951,1.951,0,0,0,.614,1.347c.471.379,1,0,1.412-.374,1.333-1.232,2.6-2.545,4.019-3.669a2.073,2.073,0,0,1,2.962.037c.806.85.2,1.756-.334,2.428-1.8,2.273-3.688,4.48-5.558,6.7-1.633,1.939-3.533,3.76-3.525,6.542.014,4.89-.745,9.765-.122,14.67.891,7.012,1.668,14.04,1.164,21.131-.153,2.165-.385,4.325-.523,6.491-.093,1.448.606,1.988,2.009,1.513a49.585,49.585,0,0,1,5.675-1.877,4.35,4.35,0,0,1,4.859,2.7c.778,1.8-.719,2.606-1.619,3.66a5.171,5.171,0,0,1-3.152,2.032c-6.607.795-8.073,4.913-7.1,10.7A6.716,6.716,0,0,1,345.754,342.3Zm117.154-170.23a66.219,66.219,0,0,0-35.386,13.748c-8.047,6.2-15.507,13.134-23.085,19.859-6.008,5.331-11.4,11.864-10.772,21.029a7.331,7.331,0,0,1-.321,2.14c-1.305,5.472-1.949,11.112-4.007,16.391a4.018,4.018,0,0,0,1.08,4.873,71.156,71.156,0,0,1,4.988,5.755c3.606,4.407,3.79,8.73.653,13.414a31.7,31.7,0,0,1-4.113,5.053c-3.354,3.3-6.67,6.644-9.8,10.149a13.145,13.145,0,0,0-3.58,9.385c.1,4.712,2.793,7.575,5.878,10.557,1.771,1.712,3.619,2.155,5.357,1.073,5.207-3.244,11.153-5.477,15.458-9.971,6.263-6.538,9.233-14.538,9.659-23.613a49.453,49.453,0,0,1,4.879-19.942,20.916,20.916,0,0,1,12.923-10.886,47.9,47.9,0,0,1,16.12-2.016c6.621.133,10.921,3.909,11.673,10.467.805,7.021,1.56,14.053,2.088,21.1,1.028,13.719,1.635,11.865,9.766,19.32,1.676,1.537,2.825,2,4.266-.169a15.661,15.661,0,0,1,5.813-4.822c2.858-1.578,5.594-3.381,8.473-4.917,4.077-2.177,6.545-5.1,5.449-10.053a19.563,19.563,0,0,1-.056-2.174c-.518-5.038-2.918-7.5-7.992-7.978-2.163-.2-4.357-.066-6.535-.117-5.128-.12-7.57-2.343-8.3-7.382-.938-6.439.263-12.276,4.657-17.26,2.642-3,5.311-5.972,7.941-8.981a26.272,26.272,0,0,0,2.711-3.395c1.452-2.356,1.236-3.825-.678-5.844a13.1,13.1,0,0,0-6.463-3.829,95.959,95.959,0,0,0-13.359-2.487c-5.77-.585-8.347-6.652-5.038-11.355a27.279,27.279,0,0,1,5.711-5.809,60.563,60.563,0,0,0,8.268-7.867c2.247-2.546,2.337-5.13.468-7.9a11.113,11.113,0,0,0-5.146-3.888A21.3,21.3,0,0,0,462.908,172.074Zm22.479,170.294c.349-4.8-.56-10.025-.625-15.268a13.125,13.125,0,0,0-2.507-7.539c-3.5-5.177-8.094-9.3-12.749-13.347s-9.244-8.115-12.888-13.194a29.784,29.784,0,0,1-5.8-17.728c-.056-7.284,1.068-14.47,1.237-21.72.082-3.511-.148-3.71-3.5-4.109-1.253-.15-2.533-.062-3.794-.157-5.086-.387-9.445,2.13-14.128,3.39a6.1,6.1,0,0,0-4.642,4.721,87.667,87.667,0,0,0-4.014,23.507c-.148,9.088-3.712,16.874-8.667,24.146A49.637,49.637,0,0,1,401.386,316.9c-2.305,1.7-2.234,1.8-.413,4.174.22.288.481.546.7.836,5.72,7.651,7.592,15.871,3.735,24.965-.99,2.334-1.818,4.737-2.822,7.064-1.664,3.86-1.676,4.1,2.316,3.753a30.63,30.63,0,0,1,19.682,4.667c4.39,2.739,9.3,5.08,14.866,4.567,6.833-.63,13.585-1.19,19.808-4.812,7.644-4.45,15.885-6.154,24.519-2.787,1.605.626,1.76-.111,2.054-1.33a12.212,12.212,0,0,0,.128-4.856A71.019,71.019,0,0,1,485.387,342.368Zm49-93.36c-3.377-.091-5.894-.394-7.523-2.8-1.455-2.147-1.266-4.511-.625-6.812a56.825,56.825,0,0,1,6.439-14.357,100.414,100.414,0,0,1,8.208-11.516c1.067-1.3,2.072-2.74,1.253-4.442-.873-1.816-2.748-1.572-4.32-1.363-2.687.357-5.328,1.286-8.013,1.4-12.076.5-20.65,8.1-29.839,14.458a4.721,4.721,0,0,0-1.324,1.709,60.785,60.785,0,0,1-13.96,17.928,7.982,7.982,0,0,0-2.6,5.776c-.154,1.978.44,3.1,2.652,3.07,4.255-.06,7.986,1.607,11.933,3.047,3.463,1.263,4.442,3.313,5.125,6.148,1.238,5.137,1.36,10.418,1.808,15.653.315,3.683-.971,6.49-3.849,9.043-4.21,3.735-9.062,6.678-12.93,10.813-4.5,4.811-4.507,4.757-.391,9.714,4.061,4.889,7.959,9.851,10.366,15.872,3.844,9.612,4.815,19.617,4.8,29.831a90.157,90.157,0,0,1-.786,12.467c-.128.913-.239,2.033.518,2.539,1.01.675,1.988-.027,2.957-.645a68.705,68.705,0,0,0,9.216-6.736c13.136-11.823,24.018-25.647,34.9-39.448a26.417,26.417,0,0,0,6-13.8c.184-1.862-.557-2.713-2.354-2.831a16.647,16.647,0,0,0-6.882,1.365,57.8,57.8,0,0,1-11.418,3.375c-4.357.641-7.106-.673-8.465-4.174-1.682-4.334-2.13-8.706-.255-13.233,3.092-7.466,7.764-13.9,12.731-20.143,4.891-6.147,8.478-13.083,12.334-19.853,1.348-2.366.8-3.063-1.992-3.56a23.457,23.457,0,0,0-9.17.459C537.171,248.347,535.413,248.771,534.389,249.008ZM24.7,78.256a9.535,9.535,0,0,0-1.392,1.659,2.142,2.142,0,0,0,.044,2.534,1.86,1.86,0,0,0,1.955.648c.874-.221,1.735-.494,2.593-.772,3.1-1.006,6.171-2.1,9.3-3.015,3.163-.932,6.264-1.3,9.514.186,4.134,1.887,6.691.548,8.032-3.971.825-2.781,1.836-5.482,2.8-8.21,1.4-3.956,3.637-7.455,5.48-11.168.541-1.09,1.057-2.589.162-3.616-1.019-1.168-2.323-.07-3.424.3a10.547,10.547,0,0,0-5.307,4.451,38.6,38.6,0,0,0-4.53,9.232c-1.176,3.485-1.213,3.472-5.134,3.428C38.082,69.869,29.376,73.465,24.7,78.256Zm.037,39.343c-1.858.4-3.094,1.825-4.691,2.649a2.493,2.493,0,0,0-1.425,3.157c.411,1.325,1.629,1.32,2.683,1.309a16.69,16.69,0,0,0,3.776-.395c5.842-1.436,11.33-2.109,15.879,3.364,1.693,2.036,3.169,1.506,4.944-.732a13.147,13.147,0,0,0,1.634-2.795,14.916,14.916,0,0,1,5.932-6.886,26.458,26.458,0,0,0,6.383-5.861c.453-.545.969-1.047.822-1.875-.354-1.993-3.14-4.112-5.155-3.858a10.1,10.1,0,0,0-5.321,2.479,25.9,25.9,0,0,0-7.524,10.476c-.976,2.426-1.158,2.431-3.28.66s-4.332-3.3-7.914-3.323C29.652,116.415,27.207,117.066,24.737,117.6ZM423.465,448.655c-1.517-.563-2.817.074-4.155.686-3.886,1.778-8.142,1.918-12.238,2.014-4.245.1-8-1.909-11.172-4.9-2.36-2.228-4.671-4.707-7.462-6.243-9.958-5.48-13.372-5.855-21.92.085-3.1,2.154-4.56,5.581-6.261,8.78-1.62,3.047-2.342,3.376-5.415,2.314-2.688-.929-4.348-3.05-6.283-4.992-6.459-6.483-9.832-7.041-17.7-2.3-2.011,1.211-3.827,2.748-5.72,4.152-.728.541-1.437,1.11-2.126,1.7-3.271,2.791-6.845,3.793-11.1,2.429-4.661-1.492-9.416-2.69-14.131-4.013a24.548,24.548,0,0,0-3.137-.812,1.669,1.669,0,0,0-1.391.586,1.83,1.83,0,0,0,.135,1.514,5.081,5.081,0,0,0,1.39,1.646c6.468,4.747,13.243,8.886,21.248,10.55a8.28,8.28,0,0,0,7.98-2.273q4.263-4.178,8.634-8.245c4.128-3.843,6.344-4.027,10.884-.538,5.3,4.07,11.427,6.1,17.694,8a5.058,5.058,0,0,0,5.828-1.569c.724-.8,1.367-1.681,2.017-2.547,4.6-6.131,10.318-7.233,16.6-3.5,4.946,2.942,9.979,5.871,15.769,7.194,10.447,2.387,16.91-.393,21.936-9.816ZM360.7,409.769c.437-.359-.125-1.108-.657-1.027-5.642.855-9.032-2.84-12.626-6.148-1.332-1.227-2.626-2.5-4.035-3.638-9.456-7.605-19.027-6.362-26.3,3.356-1.739,2.323-3.409,4.719-5.347,6.868-4.392,4.871-8.222,5.412-13.934,2.207-1.108-.621-2.17-1.325-3.281-1.94a66.711,66.711,0,0,0-15.149-5.945c-4.584-1.231-8.6-.017-12.313,2.594a41.833,41.833,0,0,0-5.073,4.1c-5.12,4.966-10.489,5.716-16.743,1.933a41.926,41.926,0,0,0-12.481-5.268c-2.126-.475-3.07.438-2.337,2.485a15.907,15.907,0,0,0,5.572,7.214c2.3,1.763,4.777,3.313,6.958,5.209a9.35,9.35,0,0,0,10.622,1.68c3.444-1.553,6.931-3.164,9.693-5.937,4.874-4.893,11.08-6.569,17.714-7.259a8.186,8.186,0,0,1,6.529,1.986c2.626,2.227,5.151,4.681,8.09,6.408,8.285,4.872,11.137,5.314,19.858-.728a25.149,25.149,0,0,0,6.665-7.068c.693-1.063,1.342-2.159,2.1-3.172,3.656-4.872,9.524-5.647,14.265-1.879,1.419,1.128,2.693,2.444,4.147,3.52,3.411,2.526,7.4,3.756,11.455,4.936C357.04,413.888,358.636,411.46,360.7,409.769Zm91.214,33.937a13.808,13.808,0,0,0-1.775,1.109c.479.683,1.227.592,1.878.537,4.176-.348,6.913,1.6,8.618,5.271,1.279,2.752,3.625,4.541,6,6.167,7.377,5.057,12.22,4.77,19.16-.823,3.41-2.747,6.138-6.155,9.167-9.272,4.156-4.277,8.511-4.435,12.958-.639a18.637,18.637,0,0,1,1.5,1.576c5.114,5.519,15.291,6.23,19.727-2.291,2-3.842,5.134-5.931,9.053-7.187,2.585-.828,5.142-1.784,7.776-2.414,2.288-.547,4.7-.843,6.794.744,1.3.983,2.516,2.069,3.775,3.1.542.446,1.244,1.127,1.818.606a2.74,2.74,0,0,0,.407-2.032c-.517-4.738-5.356-10.026-10.416-11.481-9.848-2.833-22.713,3.314-26.639,12.747-.346.83-.445,1.773-.847,2.567-1.519,3-3.715,3.746-6.705,2.186-2.566-1.339-4.976-2.989-7.576-4.252a14.266,14.266,0,0,0-15.829,1.524c-2.03,1.524-4.145,2.937-6.254,4.352-6.367,4.273-9.222,4.3-15.188-.329a18.3,18.3,0,0,0-9.38-3.6A23.264,23.264,0,0,0,451.91,443.706Zm63.028-38.762c-.954-3.549-3.647-5.794-6.337-7.854-5.96-4.564-13.037-4.375-19.029.238-2.013,1.55-4.006,3.13-5.943,4.773a7.9,7.9,0,0,1-4.438,1.843c-5.9.626-11.559.445-16.415-3.735a16.947,16.947,0,0,0-5.082-3.106c-7.319-2.741-15.2-.562-20.39,6.105-2.019,2.592-4.212,4.552-7.534,4.657-6.725.213-13.526.714-18.418-5.538-1.38-1.764-3.165-1.311-4.486.55a6.226,6.226,0,0,0-.908,4.68c.476,3.592,2.787,5.89,5.69,7.523a27.313,27.313,0,0,0,18.41,2.986,12.4,12.4,0,0,0,8.71-5.96c1.146-1.846,2.082-3.824,3.235-5.665,3.747-5.981,12-8.216,18.018-3.659,1.012.766,2.067,1.485,3.018,2.321,5.185,4.558,11.4,6.93,17.951,8.682,3.686.985,6.756.336,9.36-2.593,1.678-1.887,3.556-3.6,5.391-5.344a13.126,13.126,0,0,1,9.937-3.526c3.382.092,6.22,1.779,9.363,2.518Zm-91.58,43.612a1.388,1.388,0,0,0,.39-.162c.05-.041.01-.193.01-.3l-.293.556Zm91.683-43.716a1.5,1.5,0,0,0,.116.457c.043.069.315.083.318.074.09-.31-.1-.454-.537-.427ZM185.193,322.6c-8.109.25-14.7-3.017-20.145-8.9-5.807-6.265-6.426-6.261-14.594-3.5-4.606,1.554-9.023,3.658-14.05,4.09-5.346.459-9.152-1.715-12.264-5.6-5.677-7.079-4.778-16.945-1.183-23.636,2.256-4.2,6.416-5.654,11.232-4.481a25.924,25.924,0,0,1,2.534.977c6.917,2.487,8.854,1.583,11.192-5.6a37.885,37.885,0,0,1,4.184-9.41c.5-.757.989-1.524,1.517-2.261a10.047,10.047,0,0,1,10.93-4.34c5.368,1.087,10.637,2.424,14.961,6.086,1.233,1.044,2.124,2.014,2.664-.747a10.76,10.76,0,0,1,7.429-8.626,9.109,9.109,0,0,0,4.553-3.672c2.14-2.929,4.268-5.879,6.608-8.645a22.48,22.48,0,0,1,4.83-4.371c3.139-2.027,6.378-2.081,8.694.978a46.546,46.546,0,0,1,3.567,5.427c2.771,4.96,4.05,5.343,8.994,2.381a76.848,76.848,0,0,0,6.6-4.782c1.593-1.2,3.045-2.608,4.71-3.692a11.366,11.366,0,0,1,15.135,2.2,26.68,26.68,0,0,1,1.672,2.151c3.045,4.431,6.373,7.1,12.586,5.749,6.248-1.358,10.127,1.678,12.674,7.642,3.158,7.4,1.245,13.847-3.839,19.565-4.907,5.519-11.456,8.1-18.461,9.707-2.9.667-5.323-.447-7.587-2.13a18.173,18.173,0,0,0-8.375-3.563c-4.556-.684-8.317-.123-12.174,2.824-3.993,3.051-8.7,5.213-13.215,7.519-2.013,1.027-3.2,2.084-2.771,4.509,1.087,6.143-1.427,11-5.718,15.107C201.662,317.707,194.579,322.535,185.193,322.6Zm.411-11.624a23.783,23.783,0,0,0,14.246-4.624,10.61,10.61,0,0,0,4.577-8.763c.07-2.714-.626-3.426-3.235-4.273-8.568-2.782-15.736-7.453-18.365-16.868-.243-.871-.391-1.867-1.35-2.223-4.55-1.685-8.6-4.528-13.536-5.368-6.953-1.184-8.265-.55-10.483,5.976a39.628,39.628,0,0,1-2.39,6.049c-3.946,7.347-9.088,9.091-16.757,5.815-1.834-.784-3.558-1.87-5.44-2.487-3.221-1.057-5.135.059-6.333,3.276-1.333,3.579-.916,7.17-.014,10.717,1.743,6.862,4,8.109,11.457,7.89a20.536,20.536,0,0,0,5.247-1.373c2.251-.7,4.534-1.35,6.7-2.269,7.607-3.231,14.364-2.464,20.553,3.422C174.619,309.813,180.014,310.892,185.6,310.979Zm3.982-42.463c0,1.442-.023,2.35,0,3.256a10.681,10.681,0,0,0,5.9,9.708c5.773,3.132,11.761,3.655,17.788,1.062,5.324-2.29,10.5-4.923,15.718-7.463,1.8-.876,3.54-1.888,5.581-2,6.422-.359,12.718-.025,18.387,3.555,1.064.672,2.1,1.642,3.45,1.429,6.028-.956,11.7-2.708,15.459-8.011,2.041-2.88,1.336-6.011-.015-8.813-1.083-2.243-3.492-1.26-5.416-1.23-.182,0-.363.027-.544.037-6.143.33-10.471-2.272-12.927-7.954a24.281,24.281,0,0,0-1.534-2.878c-3.029-5.025-6.019-5.578-10.61-1.949a31.336,31.336,0,0,0-2.4,2.213c-2.591,2.529-5.024,5.244-7.78,7.578-8.777,7.433-16.274,4.929-19.509-4.512-1.9-5.542-1.711-6.671-7.221-1.063a83.157,83.157,0,0,1-10.832,9.867C190.294,263.33,188.472,265.441,189.586,268.516Zm70.929-132.183c-.176,8.977-3.9,15.341-9.446,20.569-4.912,4.63-9.273,4.382-16.644,1.123a14.677,14.677,0,0,1-2.234-1.554c-8.116-5.626-10.177-11.942-6.823-21.218a23.969,23.969,0,0,1,4.308-7.538c6.047-7.036,15.277-8.324,23.036-3.018C259.409,129.278,260.406,131.282,260.515,136.333Zm-29,5.777c-.073,1.621-.284,4.841,2.576,6.979,2.736,2.044,5.49,4.6,8.938,4.8,6.354.361,11.75-7.37,11.524-15.833-.133-4.958-5.665-9.055-12.065-8.936C236.006,129.24,231.271,134.187,231.512,142.11Zm-32.624-22.072a98.491,98.491,0,0,0,20.781-10.03,2.939,2.939,0,0,0,.787-.737c.706-.98,2.023-1.946,1.23-3.247a4.029,4.029,0,0,0-4.038-2.2,9.746,9.746,0,0,0-3,1.142c-6.024,3.214-11.758,6.976-18.083,9.615-1.476.615-2.629,1.352-2.358,3.105.312,2.017,1.916,2.395,3.556,2.539A6.644,6.644,0,0,0,198.888,120.038Zm43.16-91.629a5.634,5.634,0,0,0-4.7-.612c-2.62.662-5.216,1.439-7.783,2.286-8.631,2.847-16.194,7.906-24.3,11.839-.983.477-1.911,1.1-1.333,2.5.525,1.273,1.566,1.362,2.685,1.223a21.947,21.947,0,0,0,7.126-2.486,166.562,166.562,0,0,1,16.849-7.373q5.074-1.883,10.072-3.966c.961-.4,1.947-.984,2.177-1.947C243.005,28.962,242.475,28.7,242.048,28.409Zm146.576,129.1c12-3.406,24.016-6.754,35.981-10.273,2.582-.759,5.143-1.91,6.7-4.376a4.766,4.766,0,0,0,.348-1.509,4.383,4.383,0,0,0-1.544-.294c-3.727.724-7.551,1.179-11.133,2.361-8.08,2.665-16.074,5.607-24.026,8.639a56.724,56.724,0,0,0-7.158,3.868c-.471.263-.917.681-.615,1.27.12.233.6.279.92.409C388.271,157.575,388.453,157.561,388.624,157.512Zm16.232-62.378a15.342,15.342,0,0,1-5.274.859,19.739,19.739,0,0,0-8.451,1.653c-5.088,2.326-10.162,4.689-15.16,7.2-2.246,1.129-4.3,2.651-6.429,4-.441.28-.939.747-.561,1.193a1.717,1.717,0,0,0,1.472.265,16.515,16.515,0,0,0,3.011-1.175,76.73,76.73,0,0,1,11.08-4.357c4.119-1.326,8.229-2.627,12.479-3.563,3.385-.746,7.217-1.578,7.736-6.191Zm15.8,65.15c4.6-.743,8.572-2.734,11.33-6.672.294-.42.645-1.052.522-1.448-.163-.527-.893-.461-1.343-.221-1.684.9-3.5.64-5.293.766a25.838,25.838,0,0,0-15.7,6.385c-.533.469-1.258.9-.989,1.734.3.924,1.14.552,1.5.55C414.207,161,417.456,160.8,420.654,160.284ZM259.787,37.336c-2.775-.451-5.216,1.189-7.953,1.2-8.41.043-15.662,3.782-22.9,7.478a5.23,5.23,0,0,0-1.688,1.292.754.754,0,0,0,.484,1.214,5.134,5.134,0,0,0,2.044-.358c7.486-2.507,14.7-5.842,22.891-5.946a7.076,7.076,0,0,0,7.024-4.981Zm133.58,53.269c1.055-1.18,3.281-2.3,2.688-3.721-.5-1.2-2.547.414-3.987.365a19.114,19.114,0,0,0-9.883,2.472c-2.009,1.1-1.86,3.059.094,4.229a7.218,7.218,0,0,0,3.391.8A11.351,11.351,0,0,0,393.367,90.605ZM259.686,37.239a1.491,1.491,0,0,0,.456-.117c.064-.041.069-.318.055-.322-.341-.091-.48.1-.41.536ZM404.759,95.023c.4.134.581.026.531-.322a.764.764,0,0,0-.308.011c-.693.219.285-.178-.126.422ZM65.094,470.578c.088,1-.026,2.42,1.261,2.691,1.322.279,1.781-1.077,2.23-1.993a20.7,20.7,0,0,0,1.242-3.591,56.765,56.765,0,0,0,1.821-17.25c-.167-4.525,1.589-6.61,5.5-7.874a19.725,19.725,0,0,0,5.343-2.6c1.062-.757,2.31-2,1.453-3.7a3.173,3.173,0,0,0-4.064-1.819,24.739,24.739,0,0,0-3.569,1.321c-1.93.931-2.117-.057-2-1.615.136-1.809.3-3.626.261-5.437a2.492,2.492,0,0,0-2.064-2.245c-1.383-.37-1.989.822-2.275,1.813-.6,2.082-.943,4.236-1.434,6.351-.153.658-.129,1.579-1.1,1.605-.824.022-1.11-.765-1.527-1.336a39.767,39.767,0,0,0-3.611-4.743c-1.38-1.389-3.309-.546-3.618,1.388a5.444,5.444,0,0,0,.777,3.656,66.207,66.207,0,0,0,3.937,6.515,8.913,8.913,0,0,1,1.8,5.514c.1,4.907-1.421,9.72-.881,14.652C64.736,464.783,64.84,467.687,65.094,470.578Zm8.819-74.323c.568.632,1.09,1.413,2.214,1.223a6.533,6.533,0,0,0,4.958-6.573c-.4-5.227-.788-10.456-1.229-15.68-.13-1.539.228-2.225,2-2.321,2.905-.158,5.771-.765,7.911-3.061,1.591-1.708,1.259-3.956-.9-4.078-2.938-.165-3.707-.976-2.632-3.687a3.322,3.322,0,0,0-.1-2.126,3.37,3.37,0,0,0-2.753-2.332,2.5,2.5,0,0,0-2.591,1.6c-.578,1.125-1.093,2.29-1.763,3.358-.987,1.572-1.851,1.524-2.541-.182-.953-2.357-1.773-4.766-3.706-6.56a2.012,2.012,0,0,0-2.43-.583,2.3,2.3,0,0,0-1.519,2.064,9.755,9.755,0,0,0,.438,2.634,40.851,40.851,0,0,0,3.963,8.911c.827,1.385,1.729,2.77,1.341,4.566-.8,3.725-.214,7.585-1.144,11.326a68.228,68.228,0,0,0-1.011,7.212C72.934,393.222,72.771,394.982,73.913,396.255Zm68.322,86.889a1.774,1.774,0,0,0,1.374,1.526,2.082,2.082,0,0,0,2.232-1.237,22.583,22.583,0,0,0,1.278-4.686c.462-3.044.844-6.11,1.059-9.18.188-2.679,1-4.6,3.532-6.122a32.354,32.354,0,0,0,7.925-6.569c.829-.967,2.073-2.158,1.429-3.282-.806-1.408-2.265-.274-3.392.132a30.69,30.69,0,0,0-2.979,1.315c-2.431,1.181-2.412,1.192-2.549-1.285-.1-1.789.186-3.658-1.03-5.23-.682-.88-1.435-1.718-2.663-1.569a2.454,2.454,0,0,0-2.123,2.169c-.286,1.406-.484,2.832-.681,4.255-.1.709-.048,1.612-.775,1.867-.971.341-1.1-.766-1.312-1.292a17.668,17.668,0,0,0-3.263-4.971,2.245,2.245,0,0,0-2.919-.677,2.537,2.537,0,0,0-1.5,2.665,23.02,23.02,0,0,0,1.439,4.653,45.883,45.883,0,0,1,3.836,19.952C140.744,477.9,141.822,480.48,142.235,483.144Zm-29.628-38.91c.223,1.336.305,3.152,2.2,3.286,1.939.137,2.129-1.615,2.509-2.976a21.45,21.45,0,0,0,.655-3.169c.326-2.685.671-5.374.833-8.071a7.365,7.365,0,0,1,2.926-5.5,67.579,67.579,0,0,1,7.54-5.249,2.108,2.108,0,0,0,1.173-2.233,2.559,2.559,0,0,0-2.363-1.932,9.521,9.521,0,0,0-2.109.425c-1.636.259-2.443.055-1.535-1.947.955-2.105-.461-3.475-2.209-4.228-1.555-.669-2.822.28-3.715,1.52-.948,1.318-1.761,2.734-2.618,4.117-.932,1.5-1.826,2.063-3.251.372a52.761,52.761,0,0,0-4.6-4.593,2.128,2.128,0,0,0-2.523-.384c-1.116.636-1.056,1.81-.862,2.889.34,1.89,1.866,3.068,2.956,4.462,3.14,4.015,5.05,8.338,4.22,13.561C111.091,437.878,112.076,441.047,112.607,444.234Zm63.862-26.545c-2.936-.345-3.011-3.321-4.587-4.892-1.477-1.473-2.511-1.2-3.822.839-2.336,3.635-2.34,3.639-5.385.706-.521-.5-.974-1.074-1.494-1.577-.816-.789-1.754-1.452-2.857-.633-1.071.8-.919,1.855-.242,2.872a8.26,8.26,0,0,0,1.259,1.76c3.163,2.733,3.637,6.5,4.015,10.288.341,3.417.3,6.883,1.384,10.2.229.7.5,1.4,1.36,1.473a1.742,1.742,0,0,0,1.923-1.5,69.271,69.271,0,0,0,1.907-8.463c.354-3.065,1.234-5.454,4.228-6.868a5.016,5.016,0,0,0,2.708-3.25C176.733,418.3,176.635,417.709,176.469,417.689ZM55,415.6a10.19,10.19,0,0,0,7.314-5.9c.357-.819.233-2.387-.6-2.265-3.562.52-4.279-.766-3.909-4.153.176-1.611-2.45-2.49-4.333-1.987a4.546,4.546,0,0,0-2.693,1.7c-1.418,2.013-2.5,2.115-3.69-.275-.66-1.33-1.9-2.374-3.557-1.427-1.731.989-1.756,2.6-1.067,4.251,1.043,2.5,2.142,4.975,3.243,7.45,1.071,2.406,2.621,3.956,4.894,3.068A34.462,34.462,0,0,0,55,415.6Zm136.136,70.823a28.592,28.592,0,0,0,1.076-6.945c.11-2.914.445-5.695,4.1-6.673,1.713-.459,3.021-1.963,4.069-3.467a1.433,1.433,0,0,0-1.1-2.351,4.7,4.7,0,0,0-1.608.152c-1.726.51-2.695.826-3.2-1.818-.657-3.427-2.558-3.861-5.354-1.672-.9.707-1.3.929-2.1.222-.541-.481-1.068-.977-1.62-1.445a2.8,2.8,0,0,0-3.5-.409c-1.653.993-1.146,2.5-.735,3.865a13.249,13.249,0,0,0,4.051,6.331c2.874,2.391,3.253,5.4,3.4,8.679q.127,2.966.408,5.924c.057.6.649.775,1.323.859A5.086,5.086,0,0,0,191.137,486.423Zm-101.7-23.489a24.788,24.788,0,0,0,4.583,10.8,4.481,4.481,0,0,0,4.771,1.93,27.653,27.653,0,0,0,5.936-2.523c1.206-.677,2.427-1.771,2.023-3.475-.345-1.454-1.517-1.875-2.911-1.859-1.437.015-1.92-.556-1.339-2.008.68-1.7-.421-2.9-1.713-3.5s-2.38.36-3.187,1.43c-.434.575-.874,1.146-1.3,1.726-.779,1.055-1.567.779-2.035-.178s-.57-2.085-.99-3.071a2.481,2.481,0,0,0-2.258-1.536A1.911,1.911,0,0,0,89.436,462.934ZM80.851,330.016c-2.406-1.256-3.843-2.84-3.03-5.839.2-.753-.691-1.619-1.632-1.94a1.922,1.922,0,0,0-2.527,1.424c-.842,2.228-1.486,2.062-2.292.021-.352-.891-1.044-1.731-2.007-1.447a2.1,2.1,0,0,0-1.308,2.661A30.111,30.111,0,0,0,72,334.342a3.127,3.127,0,0,0,4.17,1.473c2.17-.894,4.316-1.92,5.316-4.368C81.279,330.951,81.211,330.2,80.851,330.016ZM422.2,219.681l.316-.067c-.611-1.531.109-2.8.765-4.106,2.612-5.222,5.6-10.11,10.657-13.42,1.124-.736,2.47-1.755,1.5-3.487-1.01-1.813-2.542-2.239-4.634-1.162a19.3,19.3,0,0,0-4.051,2.695,51.782,51.782,0,0,0-13.1,18.43,17.565,17.565,0,0,0-1.379,7.957c.359,6.53,5.135,9.776,11.261,7.476,3.393-1.274,6.733-2.628,10.417-2.609a7.263,7.263,0,0,0,3.528-1.242c1.132-.607,2.508-1.447,2.437-2.677a4.863,4.863,0,0,0-2.711-3.757,5.034,5.034,0,0,0-3.681-.471c-2.635.608-5.291,1.126-7.939,1.681l-.253.053q.308.395.224-.089c1.364-2.638,3.922-4.156,5.862-6.253,1.219-1.316,2.509-2.576,3.625-3.975a1.973,1.973,0,0,0-.286-2.883,1.865,1.865,0,0,0-2.441-.312,23.46,23.46,0,0,0-3.124,2.1c-2.309,2.007-4.529,4.115-6.785,6.183Zm20.079,94.112c.007,0,1.266.152,2.5.411a8.742,8.742,0,0,1,6.183,12.182c-1.916,4.417-7.95,7.991-12.786,7.574-6.345-.549-9.076-5.565-6.092-11.235,1.234-2.347,3.235-4.151,3.911-6.972C436.5,313.655,438.9,313.307,442.28,313.793Zm-1.71,4.639c-1.034-.062-2.883-.683-2.881.374,0,2.211-1.658,4.012-1.157,6.192a2.057,2.057,0,0,0,.945,1.2c2.257,1.174,6.917-.063,8.442-2.169,1.665-2.3.761-4.56-2.118-5.172C442.742,318.635,441.649,318.571,440.57,318.432Zm33.108,20.707c-.1,4.463-2.219,7.9-5.416,10.837-3.17,2.91-8.917-.465-9.743-4.263-.954-4.382,2.108-10.851,6.216-12.854C468.779,330.886,473.641,334.3,473.678,339.139Zm-12.31,2.332c.006.065.055.958.157,1.846a3.074,3.074,0,0,0,.308,1.02,2.085,2.085,0,0,0,3.161.745,3.848,3.848,0,0,0-.248-6c-.847-.6-1.849-1.483-2.9-.913C461.006,338.615,461.3,339.76,461.368,341.471Zm-22.974-62.125-.213-.328c.566-1.051-.4-1.608-.738-2.38-.324-.751,1.087-1.831-.106-2.27-.839-.309-1.594.68-2.082,1.449-1.378,2.171-2.42,4.471-2.162,7.128a4.276,4.276,0,0,0,3.8,3.993c2.232.456,4.829-.984,6.316-3.333,1.037-1.637.53-2.857-.411-4.433-1.6-2.68-3.157.771-4.605-.257Zm-19.537,59.12c-1.926-.218-3.943,2.01-4.016,4.252a2.9,2.9,0,0,0,3.013,3.019c1.708-.144,3.422-2.259,3.436-4.449C421.146,339.949,420.558,338.659,418.857,338.466ZM512.416,321.7a9.018,9.018,0,0,0-1.2,5.189,42.869,42.869,0,0,0,1.5,10.177c1.425,4.808,2.948,5.481,7.089,2.573a8.752,8.752,0,0,0,1.938-1.885c2.067-2.758,4.1-5.541,6.076-8.367.97-1.39,1.521-2.783-.079-4.3a3.432,3.432,0,0,0-4.9-.349,62.242,62.242,0,0,0-4.724,4.392c-1.8-1.971-.292-4.4-.91-6.54a3,3,0,0,0-2.548-2.379A2.962,2.962,0,0,0,512.416,321.7Zm10.471-61.44c-2.477.706-6.884,6.572-6.851,9.119a2.366,2.366,0,0,0,2.706,2.569c2.138-.413,8-6.633,8.3-8.813C527.3,261.287,524.964,259.669,522.887,260.262Z"/></g></g></svg>