<svg xmlns="http://www.w3.org/2000/svg" viewBox="0 0 74.395 65.604"><title>online-store</title><g id="Layer_2" data-name="Layer 2"><g id="Layer_2_Image" data-name="Layer 2 Image"><path d="M48.84,44.954c-3.776.279-14.188.221-15.615.169-3.086-.113-6.178-.058-9.266-.127-4.217-.094-6.948-1.844-8.248-5.747-1.136-3.409-1.938-6.937-2.758-10.442-1.315-5.624-2.495-11.28-3.8-16.906a22.332,22.332,0,0,0-1.3-3.557c-1-2.372-2.62-3.879-5.4-3.743A2.9,2.9,0,0,1,.884,4.309,1.991,1.991,0,0,1,.008,3.05a1.764,1.764,0,0,1,.55-1.4A7.977,7.977,0,0,1,7.789.357c2.075.614,3.856,1.68,4.555,4.2.62,2.238,1.92,4.267,2.157,6.683a2.018,2.018,0,0,0,2.286,1.866,18.255,18.255,0,0,0,3.805-.141c6.287-1.3,12.656-.723,18.988-.965,3.793-.144,24.79-1.034,31.512-1.012,2.26.007,3.361,1.28,3.3,3.432a14.148,14.148,0,0,1-.674,4.275c-2.172,6.329-4.187,12.711-6.377,19.033-1.671,4.822-5.112,7.155-10.328,7.219C54.289,44.982,51.564,44.954,48.84,44.954ZM33.81,40.079A96.551,96.551,0,0,0,43.6,40.2c2.805.079,8.656-.728,13-.793a7.775,7.775,0,0,0,3.7-.688,4.085,4.085,0,0,0,2.249-2.2c1.223-3.4,2.535-6.766,3.747-10.168.466-1.307-.36-2.317-1.646-1.932a28.3,28.3,0,0,1-9.7.778c-2.153-.11-16.506.05-22.615.482a62.839,62.839,0,0,1-7.53.707c-1.27.025-2.543-.061-3.813-.033-2.214.048-2.824.892-2.21,3.153.8,2.961,1.667,5.906,2.525,8.851.459,1.573.945,1.936,2.772,1.916C27.33,40.244,30.57,40.149,33.81,40.079Zm15.2-23.553c-7.959-.563-17.5.959-27.1,1.277A20.651,20.651,0,0,0,17.2,18.914a1.059,1.059,0,0,0-.5.842,3.04,3.04,0,0,0,2.9,3.158c.727,0,1.455-.005,2.18-.044,5.389-.294,10.774-.682,16.166-.871,5.082-.178,10.176-.04,15.257-.244,4.692-.188,9.373-.634,14.057-.992.913-.07,1.415-1.049,1.419-2.581a1.449,1.449,0,0,0-1.652-1.647C61.58,16.514,56.13,16.526,49.005,16.526Zm-18.86,34.75a8.631,8.631,0,0,1,5.732,1.687,6.243,6.243,0,0,1,1.5,8.592c-2.7,4.017-7.306,4.443-10.483,3.812a6.235,6.235,0,0,1-5.011-5.646,8.252,8.252,0,0,1,2.761-7.27C26.107,51.085,27.973,51.32,30.145,51.276Zm-.311,4.674a2.393,2.393,0,0,0-2.426,1.778,2.476,2.476,0,0,0,1.006,2.8,4.912,4.912,0,0,0,3.618.546,2.594,2.594,0,0,0,1.777-2.428,1.708,1.708,0,0,0-1-1.721A5.675,5.675,0,0,0,29.834,55.95Zm28.1,1.184c-.081,3.612-1.563,5.4-4.9,6.643-1.408.526-2.8,1.019-4.2.472-2-.783-4.195-1.342-5.623-3.121a2.967,2.967,0,0,1-.62-2c.4-3.174,1.673-5.835,4.587-7.565,3.832-2.275,8.9.256,10.423,3.784A6.93,6.93,0,0,1,57.937,57.134Zm-7.29,3.074c1.605-.031,2.545-.65,2.773-1.64A3.037,3.037,0,0,0,52.3,55.225a3.513,3.513,0,0,0-3.961.707c-1.168,1.009-1.6,2.007-1.181,2.727.73,1.256,1.948,1.486,3.246,1.548C50.58,60.215,50.76,60.208,50.647,60.208Z"/></g></g></svg>