<svg xmlns="http://www.w3.org/2000/svg" viewBox="0 0 395.935 567.03"><title>people</title><g id="Layer_2" data-name="Layer 2"><g id="Untitled_Artwork_6_Image" data-name="Untitled_Artwork 6 Image"><path d="M106.011,443.66c0,4.351-.049,8.7.049,13.051.016.713-.508,1.976.76,2.13.37.045,1.1-.931,1.277-1.55,1.207-4.214,3.405-7.985,5.175-11.949,5.47-12.251,13.446-22.722,22.734-32.265,2.851-2.93,6.01-5.133,10.511-4.738a6.289,6.289,0,0,1,5.081,2.671c1.079,1.682,2.242,3.284,3.44,4.868a4.189,4.189,0,0,1,.77,3.069,108.273,108.273,0,0,0,2.229,31.283c2.142,10.348,3.034,20.794,3.763,31.294q1.017,14.658,1.119,29.338c.015,2.178-.046,4.361-.183,6.535-.545,8.669-5.615,14.009-14.373,15.289-7.3,1.067-14.391-.064-21.421-1.94a120.326,120.326,0,0,1-19.506-6.629c-2.335-1.076-2.855-.844-3.1,1.656-.368,3.789-.51,7.607-.582,11.416-.16,8.421-1.471,16.564-5.2,24.221-.778,1.6-1.386,1.139-2.319.253a12.022,12.022,0,0,1-3.263-5.572,90.621,90.621,0,0,1-3.384-16.485c-.085-.935.639-2.475-.755-2.682-.934-.139-.852,1.344-1.129,2.164a9.338,9.338,0,0,1-.919,1.953c-3.33,5.328-8.741,5.931-13.217,1.492-4.831-4.79-5.021-4.812-9.02.594a61.964,61.964,0,0,0-3.418,5.549,25.713,25.713,0,0,1-6.756,7.75c-4.881,3.623-9.856,2.6-13.175-.97-3.234-3.475-5.861-7.393-8.731-11.136a43.276,43.276,0,0,0-2.734-3.367c-1.952-2.076-4.167-2.843-6.789-1.109a9.78,9.78,0,0,1-1.955.955c-4.635,1.734-6.84,4.868-6.223,9.973.236,1.949-.222,3.977-.323,5.971-.241,4.754-2.909,7.46-6.98,9.692-2.075,1.138-2.852.487-3.986-.639A10.337,10.337,0,0,1,.5,557.963c.055-3.074.178-6.152.425-9.216.773-9.571.091-19.176.916-28.757,2.082-24.172,4.345-48.307,7.934-72.324,2.2-14.689,4.109-29.426,6.915-44.007a221.684,221.684,0,0,1,14.048-46.8c3.745-8.6,7.16-17.438,12.563-25.242,1.093-1.578,1.107-2.618-.678-3.957A37.721,37.721,0,0,1,28.308,305.8a10.012,10.012,0,0,1-.645-3.728c1.148-6.87.188-13.669-.311-20.5A22.007,22.007,0,0,1,28.635,273a128.275,128.275,0,0,1,9.379-21.961,39.949,39.949,0,0,1,7.75-10.461c1.729-1.568,2.369-3.169,1.192-5.715-2.645-5.719-2.582-12-2.656-18.16-.037-3.073.709-6.172.527-9.226-.576-9.641,3.322-18.031,7.021-26.489a12.112,12.112,0,0,1,3.442-4.845c3.779-2.97,7.768-1.5,8.258,3.3a45.417,45.417,0,0,1-.4,13.574c-.9,4.495-.776,9.03-.862,13.562-.013.682-.2,1.733.491,1.9,1.181.284,1.257-1.011,1.622-1.743q1.576-3.164,3.026-6.391a25.673,25.673,0,0,1,4.769-6.6c1.94-2.139,4.608-3.436,7.323-2.386a7.416,7.416,0,0,1,4.806,6.679,31.632,31.632,0,0,1-1.073,10.77c-.743,2.73-.386,2.95,2.2,2.112a39.505,39.505,0,0,1,4.133-1.357c4.475-.922,8.078,1.4,8.735,5.941.757,5.231-.516,10.467-.47,15.72a4.741,4.741,0,0,1-1.167,2.41c-1.722,2.37-3.718,2.136-4.871-.509-1.136-2.606-.762-5.342-.655-8.047.02-.522.445-1.028.469-1.552.089-1.945,1.611-4.768-.057-5.624-2.158-1.106-4.189,1.386-5.776,2.914-2.079,2-3.7,4.405-6.651,5.417-1.142.393-1.845.616-2.876-.228-2.743-2.248-3.947-4.9-3.219-8.5.724-3.58,1.983-6.981,3.043-10.45.9-2.956,1.778-5.922,1.456-9.068a2.187,2.187,0,0,0-.553-1.427c-.67-.491-1.437-.076-1.974.389a13.058,13.058,0,0,0-3.193,4.366c-1.4,2.95-2.8,5.907-4.285,8.813a33.109,33.109,0,0,1-2.565,4.172,3.445,3.445,0,0,1-3.914,1.167c-1.429-.376-1.779-1.68-1.85-3.018a120.263,120.263,0,0,1,1.111-20.631c.449-3.76.856-7.557.013-11.341-.13-.583-.409-1.12-.92-1.107a1.748,1.748,0,0,0-1.282.781,46.665,46.665,0,0,0-5.357,16.977c-.9,9.545-1.988,19.157.386,28.65.511,2.045-1.023,4.99,1.235,5.926,1.374.569,3.608-1.138,5.509-1.606a26,26,0,0,1,19.943,3.086c8.272,4.918,16.007,10.6,22.046,18.36a33.181,33.181,0,0,1,7.325,18.453c.557,9.38.948,18.864-1.026,28.217a56.575,56.575,0,0,1-9.14,20.745c-4.2,6.055-10.287,9.517-16.56,12.8-1.11.581-2.4.834-3.468,1.477-.965.582-1.532,1.4-.405,2.582,1.879,1.966,3.676,4.019,5.39,6.132,7.025,8.657,10.654,18.869,13.2,29.519,1.687,7.055,3.1,14.176,4.651,21.263.088.4-.088,1.2.774.909a1.263,1.263,0,0,0,.752-.723c.249-1.05.406-2.125.555-3.2,1.669-12,3.549-23.958,6.125-35.807a229.052,229.052,0,0,1,7.715-27.66c4.346-12.316,8.662-24.643,13.094-36.928,4.639-12.864,12.622-23.61,21.653-33.665a9.374,9.374,0,0,1,1.532-1.545c2.113-1.45,1.218-2.526-.27-3.757q-3.348-2.772-6.523-5.755c-7.935-7.45-11.9-16.737-12.611-27.513a12.083,12.083,0,0,0-.384-3.755c-4.969-11.849-3.17-23.511,1.133-34.973a97.743,97.743,0,0,1,12.062-23.1c6.711-9.286,16.092-13.955,27.2-15.09a73.058,73.058,0,0,1,16.31.283c12,1.477,22.007,6.943,30.711,15.106,10.878,10.2,18.59,22.187,21.058,37.149a16.194,16.194,0,0,1,.424,3.213c-.3,7.613-.185,15.295-1.806,22.764-3.35,15.441-11.5,28-23.8,37.846a31.594,31.594,0,0,1-5.238,2.881c-1.616.846-1.862,1.784-.862,3.468a98.7,98.7,0,0,1,10.4,25.022q4.082,15.228,7.365,30.646a424.7,424.7,0,0,1,8.1,62.488c.957,15.567,1.285,31.172,1.949,46.758.042.974-.521,2.629.537,2.823,1.278.235,1.217-1.481,1.538-2.433,4.756-14.072,9.046-28.323,14.356-42.182,4.808-12.544,10.79-24.605,21.188-33.792,2.342-2.069,5.076-3.485,7.606-5.236,1.314-.908,1.715-1.645.371-2.878-4.3-3.945-7.615-8.757-11.382-13.17-4.574-5.357-7.167-11.72-8.946-18.463-1.155-4.378-.283-8.674.664-12.9a76.032,76.032,0,0,0,1.547-10.2,25.706,25.706,0,0,1,5.485-14.536c3.558-4.363,7.121-8.721,11.9-11.843a20.251,20.251,0,0,1,10.241-3.116c11.11-.66,20.6,2.759,29.174,9.756,5.515,4.5,11,8.864,14.268,15.381a43.413,43.413,0,0,1,4.424,25.315c-.514,4.119-.865,8.3-2.121,12.315-4.286,13.72-13.033,23.589-25.779,30.02-.913.46-2.243.375-1.168,2.029,4.671,7.191,6.016,15.533,7.595,23.675a392.775,392.775,0,0,1,5.743,41.393c1.372,16.062,2.111,32.167,3.7,48.219,1,10.074.831,20.275.952,30.422.129,10.885.344,21.764,2.243,32.5.664,3.753.208,7.579,1.3,11.309.585,2-3.315,5.8-5.855,6.247a6.7,6.7,0,0,1-6.937-4.161c-1.617-4.834-2.873-9.767-1.573-14.922.184-.729.508-1.618-.134-1.951-.461-.239-1.4.146-1.984.5a29.6,29.6,0,0,1-9.6,3.5c-5.669,1.128-10.744-.679-15.757-2.928-4.128-1.852-8.244-3.733-12.373-5.583-8.174-3.663-11.871-10.591-12.541-18.929A21.3,21.3,0,0,1,270.929,492c4.526-7.854,8.841-15.9,15.267-22.437,6.325-6.438,14.07-10.8,22.28-14.34,2.8-1.2,5.754-.732,8.491.454,2.136.925,2.535-.087,2.578-1.874.148-6.172-.308-12.359-.768-18.467-.7-9.374-.809-18.822-2.367-28.131-.179-1.072-.211-2.171-.417-3.237-.313-1.614-1.1-2.481-3-2.238a18.967,18.967,0,0,1-9.612-1.16c-5.463-2.188-7.959-6.665-6.223-12.149,1.851-5.848,4.85-10.914,11.214-12.927,1.115-.353,1.381-.939,1-2-.97-2.737-1.756-5.549-2.877-8.222-2.315-5.518-7.061-7.692-12.9-5.914a26.068,26.068,0,0,0-13.743,9.2c-6.1,8.188-11.073,16.991-13.966,26.884-.605,2.068-.721,3.351,1.7,4.152,5.671,1.872,9.138,6.427,12.449,10.982a71.491,71.491,0,0,1,5.633,9.3c3.149,6.111,3.252,12.028-1.268,17.76-5.547,7.036-12.958,9.564-21.52,9.436-3.641-.055-6.4-2.091-8.914-4.648-2.725-2.774-3.091-2.651-3.886.863-2.921,12.909-6.49,25.68-8.386,38.81-.234,1.616-.442,3.237-.6,4.862-.332,3.33-.319,3.343,3.178,4.427,6.891,2.135,12.909,11.374,11.66,16.6-1.491,6.241-5.513,10.234-11.918,10.6-4.312.245-4.364.254-3.651,4.595.966,5.891,1.8,11.816,3.095,17.638,1.613,7.272-2.617,12.217-6.719,16.921-3.54,4.06-8.3,2.51-9.89-2.63-.759-2.451-1.339-4.885-.413-7.444a11.018,11.018,0,0,0,.508-2.656c.542-5.493-.366-6.038-5.455-4.225-12.647,4.506-24.482,10.808-36.7,16.259a15.527,15.527,0,0,1-4.578,1.614c-5.149.6-7.094-.8-7.7-5.851a25.725,25.725,0,0,1,.349-8.675,96.57,96.57,0,0,0,2-17.8,107.843,107.843,0,0,1,2.318-18.311c1.586-7.626,2.893-15.31,4.29-22.975.461-2.532,1.128-4.9,3.045-6.825,2.827-2.834,5.988-3.268,9.22-.968a30.051,30.051,0,0,1,2.868,2.506c2.133,1.97,4.125,4.114,6.393,5.912,7.222,5.727,12.455,13.118,17.637,20.577,1.266,1.822,2.132,5.135,4.567,4.413,1.5-.446.565-3.908.656-6.025.372-8.7.8-17.393,1.136-26.091.135-3.442.535-5-3.927-5.734a5.585,5.585,0,0,1-3.17-2c-4.381-4.837-9.664-8.76-13.771-13.9-5.437-6.8-12.372-12.263-17.6-19.291A13.875,13.875,0,0,0,185.079,435a27.809,27.809,0,0,1-7.76-8.3c-2.1-3.333-1.828-5.509,1.229-8.074a28.952,28.952,0,0,1,8.431-4.889c7.779-2.951,15.9-3.416,24.076-3.748,4.53-.183,9.048-.685,13.571-1.043,1.576-.124,2.021-.9,1.932-2.512-.7-12.825-.729-25.694-2.593-38.442-.606-4.149-.595-4.135-4.519-3.294-17.66,3.784-35.192,8.087-52.656,12.691-5.6,1.477-11.336,2.47-17.033,3.566a21.279,21.279,0,0,1-4.869.233c-4.563-.188-6.858-3.245-5.746-7.663a13.544,13.544,0,0,1,2.555-4.749c5.237-6.98,10.737-13.835,17.171-19.639,14.686-13.247,28.051-27.787,42.1-41.657,2.841-2.807,5.793-5.5,8.646-8.3,1.03-1.009,2.051-2.073,1.647-3.779-2.217-9.363-4.608-18.643-9.389-27.143-1.98-3.521-4.355-5.48-8.654-4.933a32.141,32.141,0,0,1-7.557-.348c-2.425-.275-3.519.671-4.3,2.983-5.194,15.482-12.742,29.993-18.81,45.121a38.977,38.977,0,0,1-5.763,10.452c-3.882,4.727-8.472,5.351-12.98,1.164-3.178-2.952-5.893-6.406-8.793-9.655-2.1-2.357-2.276-2.437-3.276.436-3.991,11.466-8.5,22.772-11.353,34.606a680.057,680.057,0,0,0-13.445,76.017A130.915,130.915,0,0,0,106.011,443.66ZM94.148,301.449c-1.232.25-2.467.486-3.7.752-5.2,1.13-9.165-.78-11.413-5.638a32.742,32.742,0,0,1-1.328-4.118c-1.665-5.4-1.687-5.412-7.056-3.943a2.122,2.122,0,0,0-.5.2c-2.387,1.392-4.03,1.127-5.928-1.311-2.554-3.282-3.915-3.093-7.241-.4a18.719,18.719,0,0,0-1.974,1.845c-4.475,4.856-9.926,7.146-16.495,5.842-2.347-.466-2.542.733-2.445,2.27a21.387,21.387,0,0,0,10.962,17.685c8.65,5.152,18.62,5.593,27.928,3.721,8.949-1.8,16.739-6.933,19.324-16.969-.282-.178-.054-.3.037-.084C94.6,301.962,94.719,301,94.148,301.449ZM183.23,149.612c-3.45,0-6.008-.274-8.488.051-7.685,1.006-15.33,2.929-20.176,9.373a73.338,73.338,0,0,0-13.338,28.336,82.291,82.291,0,0,0-1.3,24.273c1.077,14.119,7.662,24.317,20.88,29.931,2.171.923,4.558,1.556,6.443,2.892,6.041,4.278,12.754,5.63,20,5.743,15.317.238,27.322-5.658,36.083-18.341,6.448-9.335,8.287-19.885,9.366-30.857,2.118-21.526-14.119-40.555-28.2-47.174A45.185,45.185,0,0,0,183.23,149.612ZM90.937,491.793h.024c.155-1.961.208-3.937.493-5.879.3-2.034.188-3.573-2.354-3.925-1.974-.273-2.974-1.895-4.045-3.383-1.5-2.087-2.3-4.521-3.472-6.763-1.3-2.477-1.837-6.475-4.94-6.451-2.73.021-4.262,3.51-5.869,5.894-2.753,4.086-4.539,8.666-6.6,13.1a16.509,16.509,0,0,1-4.81,6.462c-3.766,2.877-6.257,2.646-9.263-1.059a48.372,48.372,0,0,1-8.518-15.676,75.984,75.984,0,0,0-3.618-9.07c-1.174-2.474-2.409-2.768-4.768-1.185a42.067,42.067,0,0,0-7.288,5.648c-3.488,3.691-6.242,7.738-6.592,13.277-.9,14.281-2.348,28.528-3.285,42.807-.153,2.338-1.07,4.91.332,7.254,2.169-1.012,3.689-2.873,5.572-4.252,4.63-3.391,8.908-3.232,13.361.344a29.191,29.191,0,0,1,6.344,6.658,89.041,89.041,0,0,0,6.124,8.3c2.132,2.544,2.944,2.468,4.943-.361A60.2,60.2,0,0,1,64.06,531.887c4.262-3.491,7.663-3.027,11.31,1.068,1.324,1.486,2.554,3.076,4.011,4.419,2.255,2.077,3.655,2.045,5.347-.5,1.994-3,3.836-6.121,4.053-9.935C89.448,515.224,90.211,503.51,90.937,491.793Zm2.117-44.439c0-5.107.009-12.714-.007-20.321,0-1.958-.273-3.583-2.991-3.324-2.13.2-3.726-1.115-5.179-2.587a25.227,25.227,0,0,1-6.151-9.5c-.827-2.383-1.012-5.008-2.559-7.132-2.793,1.555-3.253,4.633-4.549,7.133a63.039,63.039,0,0,0-2.39,6.055c-1.055,2.693-1.743,5.623-3.269,8.019-3.279,5.147-9.205,8.244-14.438,1.26a24.081,24.081,0,0,1-3.019-5.764,58.924,58.924,0,0,0-5.3-10.106c-2.3-3.61-3.4-3.736-6.714-.7-2.534,2.32-4.908,4.815-7.339,7.248a12.756,12.756,0,0,0-3.6,8.282c-.485,5.413-1.26,10.8-1.829,16.206-.663,6.3-1.243,12.616-1.831,18.927-.048.514-.072,1.284.225,1.526.722.586,1.256-.134,1.734-.619a35.778,35.778,0,0,1,7.711-6c5.032-2.882,8.2-2.382,12.05,1.883a57,57,0,0,1,9.645,15.039c.881,1.962,1.525,5.02,3.39,5.266,2.21.292,2.615-2.952,3.688-4.683a65.5,65.5,0,0,1,10.072-12.8c4.251-4.1,8.211-3.553,12.053.892,2.353,2.722,3.193,6.054,4.57,9.182.584,1.327,1.058,2.7,1.641,4.028.375.854,1.007,1.694,1.98,1.6,1.045-.105,1.313-1.087,1.356-2.054.024-.544.078-1.087.1-1.631C92.389,465.066,92.674,457.461,93.054,447.354Zm57.533,35.41c.422-12.645-.684-28.873-2.735-45.051-.319-2.514-.41-5.056-.625-7.584-.079-.931-.345-1.978-1.222-2.269-.937-.311-1.61.609-2.242,1.25A142.761,142.761,0,0,0,125.5,451.289c-6.407,9.843-12.182,20.1-18.179,30.206a9.17,9.17,0,0,0-1.36,4.654c-.043,7.6-.27,15.195-.834,22.784-.35,4.705-.15,4.673,4.167,5.976a142.7,142.7,0,0,0,33.185,5.42c7.053.408,7.93-.3,8.068-7.276C150.72,504.183,150.587,495.307,150.587,482.764ZM330.686,302.9c-.035-10.564-2.562-18.479-11.03-24.724-1.6-1.179-2.978-2.652-4.471-3.975-6.747-5.977-14.813-7.951-23.591-7.784a9.945,9.945,0,0,0-6.062,2.12,45.294,45.294,0,0,0-10.5,10.92c-.778,1.211-2.028,2.718-1.813,3.852.575,3.024-1.68,5.351-1.407,8.259.271,2.875-.232,5.829.1,8.692.981,8.542,2.661,16.9,9.066,23.336,3.065,3.077,5.965,6.5,9.545,8.847,10.837,7.092,20.737,9.24,30.563-1.636.608-.672,1.236-1.332,1.9-1.945a14.158,14.158,0,0,0,4.2-6.239A68.6,68.6,0,0,0,330.686,302.9ZM320.622,494.292h.052c0-3.442.092-6.887-.019-10.325q-.351-10.863-.89-21.718c-.19-3.793-.3-3.762-4.263-3.656a11.929,11.929,0,0,0-5.3,1c-9.871,5.141-19.412,10.662-24.314,21.462q-2.47,5.44-5.194,10.764a30.721,30.721,0,0,0-2.871,10.957c-.489,4.641,1.109,8.145,5.234,10.415a52.22,52.22,0,0,0,17.46,5.748,9.452,9.452,0,0,0,3.228-.208c4.631-.941,9.267-1.8,14.024-1.433,2.159.168,2.879-.882,2.868-2.89C320.6,507.7,320.622,501,320.622,494.292ZM92.015,413.631c-1.874-13.54-4-27.5-8.072-41.077-.615-2.047-.375-5.32-2.274-5.789-1.767-.437-3.06,2.633-4.7,4.012a8.517,8.517,0,0,0-1.417,1.647c-2.107,3-4.983,5.258-7.659,7.667-5.182,4.668-10.188,4.121-14.386-1.4a43.38,43.38,0,0,1-3.041-5.136c-2.236-3.986-4.767-7.745-8.663-10.3-2.565-1.683-3.664-1.2-4.673,1.751a154.658,154.658,0,0,0-7.31,30.029c-.269,2.059-2.169,4.747-.338,6.058,1.339.958,3.231-1.738,5-2.6,4.729-2.309,8.035-1.577,11.494,2.474a22.069,22.069,0,0,1,4.123,8.2,71.683,71.683,0,0,0,4.481,10.48c.634,1.3,1.368,2.808,2.98,2.906,1.838.112,2.162-1.709,2.742-2.957,1.755-3.778,3.363-7.625,5.1-11.413a26.7,26.7,0,0,1,6.932-9.633c3.846-3.226,6.134-2.844,8.831,1.28a22.571,22.571,0,0,1,2.174,4.952c1.093,3.066,2.331,6.087,3.671,9.054a9.908,9.908,0,0,0,2.252,3.018,1.582,1.582,0,0,0,2.742-1.109C92.064,415.2,92.015,414.653,92.015,413.631Zm7.669-135.642c0-2.4,0-4.033,0-5.668a23.4,23.4,0,0,0-7.164-17.12,105.076,105.076,0,0,0-18.544-14.176,20.017,20.017,0,0,0-5.5-2.317c-4.99-1.241-9.483-.724-13.605,3.071-10.852,9.992-13.625,23.463-16.455,36.936-.472,2.244,1.592,4.182,3.9,4.158a6.47,6.47,0,0,0,4.779-2.257,59.153,59.153,0,0,1,4.5-4.73c4.778-4.1,10.044-4.211,14.547.274,2.457,2.448,4.454,2.335,7.152,1.067,4.353-2.046,8.186-.854,11.377,2.441,3.028,3.126,5.822,6.449,6.81,10.9a8.011,8.011,0,0,0,1.278,2.953,3.509,3.509,0,0,0,3.844,1.449c1.233-.333,1.315-1.576,1.571-2.635A46.611,46.611,0,0,0,99.684,277.989Zm121.8,71.954c-.029-.423-.03-.788-.081-1.146-1.352-9.483-2.521-18.993-4.763-28.328-.971-4.042-1.756-8.127-2.649-12.188-.3-1.355-1.211-1.271-1.936-.516-2.129,2.218-4.075,4.611-6.227,6.8-6.335,6.453-12.768,12.809-19.1,19.266-6.711,6.845-12.8,14.286-19.884,20.777a80.024,80.024,0,0,0-11.608,13.571c-.391.564-1.038,1.3-.551,1.909.5.638,1.349.086,2-.123,10-3.225,20.011-6.4,29.969-9.736a174.1,174.1,0,0,1,26.774-7.008c1.965-.326,3.948-.542,5.911-.878C220.675,352.118,221.809,351.61,221.482,349.943Zm-39.465,193.47c-.214,1-.7,1.6-.153,1.946a1.735,1.735,0,0,0,1.414-.184c4.268-2.378,8.532-4.765,12.757-7.22a45.607,45.607,0,0,1,15.567-6.083c3.561-.584,7.063-1.554,10.574-2.419,1.842-.454,3.364-1.269,3.515-3.534a3.956,3.956,0,0,0-2.214-3.987c-5.407-3.188-9.508-7.729-12.983-12.859-4.54-6.7-10.988-11.458-16.89-16.775-.986-.889-1.644-.5-1.987.493a27.187,27.187,0,0,0-.663,3.169C187.526,511.87,186.6,528.252,182.017,543.413Zm-6.386-279.878c.08-1.353-.261-2.27-1.215-2.545-3.557-1.025-6.922-3-10.856-.389a34.9,34.9,0,0,0-6.751,5.348,81.6,81.6,0,0,0-17.683,29.059c-1.092,3.226-4.029,6.465-3.076,9.569,1,3.27,4.645,5.394,7.49,7.655.426.338.813.728,1.248,1.053,3.066,2.287,3.131,2.272,5.223-1.053,8.991-14.294,16.064-29.622,23.972-44.5a30.5,30.5,0,0,0,1.316-2.983A8.236,8.236,0,0,0,175.631,263.535ZM227.448,440.6h.2c-.22-7.051-.367-14.106-.69-21.153-.169-3.689-.357-3.84-3.817-2.783a220.352,220.352,0,0,1-23.659,6.019c-3.009.565-5.94,1.529-8.927,2.22-1.567.362-1.731,1.081-.733,2.166.733.8,1.636,1.436,2.386,2.219,8,8.358,17.229,15.561,23.814,25.269,1.928,2.843,4.04,5.564,6.13,8.3.843,1.1,1.52,2.875,3.271,2.347,1.884-.569,1.845-2.456,1.921-4.1.017-.362.094-.722.094-1.084Q227.452,450.312,227.448,440.6ZM57.1,337.155c-4.064-1.3-6.7.469-8.506,3.486-2.321,3.874-4.351,7.924-6.458,11.924-.774,1.471-.654,2.637,1.079,3.555,2.459,1.3,4.034,3.576,5.623,5.8,2.317,3.243,4.657,6.471,7.074,9.64,1.873,2.456,2.563,2.37,4.331-.281a44.99,44.99,0,0,1,12.39-12.772c1.6-1.069,4.537-1.018,4.654-3.121.1-1.726-1.449-3.616-2.469-5.313a53.581,53.581,0,0,0-3.47-4.872C67.685,340.406,63.373,336.727,57.1,337.155Zm219.746,87.91a1.72,1.72,0,0,0-.007-.542,45.523,45.523,0,0,0-11.324-17.714c-1.352-1.323-3.049-.74-3.971,1.1a31.349,31.349,0,0,0-1.482,4.082c-2.026,6.018-3.952,12.071-6.092,18.047-1.086,3.03.016,5.364,1.889,7.46s4.177,2.521,6.924,1.573a75.13,75.13,0,0,0,8.028-3.339C275.332,433.566,277,429.847,276.85,425.065Zm37.813-31.443c-.787-3.5-1.609-6.993-2.346-10.5-.363-1.727-1.012-2.962-3.011-3.235a4.285,4.285,0,0,0-4.583,1.958,12.418,12.418,0,0,0-1.9,9.255c.378,2.581,3.5,2.71,5.581,3.611,1.142.495,2.416.677,3.612,1.059C314,396.4,314.676,395.588,314.663,393.622ZM249.2,505.714c-.013-2.586-1.56-4.42-4.54-5.384-3.31-1.07-5.166.181-5.461,3.726-.09,1.084.051,2.2-.12,3.263-.637,3.993,1.24,4.706,4.763,4.546C247.418,511.7,249.218,509.581,249.2,505.714ZM208.645,97.22a10.016,10.016,0,0,0-7.087-9.275c-5.877-1.57-19.194,1.768-22.677,8.614-2.117,4.161-5,7.918-6.844,12.277-1.024,2.422-2.073,2.521-4.144.826a38.785,38.785,0,0,1-7.33-8.74c-1.894-2.823-4.823-3.327-7.678-.025a15.174,15.174,0,0,0-3.833,8.856c-.237,3.475-1.37,6.725-1.952,10.106-.529,3.071-.921,3.062-4.043,1.921-5.147-1.882-9.737-4.837-14.541-7.383-3.525-1.868-7.079-3.672-11.192-3.976-5.026-.372-7.457,4.174-5.225,7.886,5.863,9.757,9.732,20.781,18.434,28.729,2.277,2.079,4.278,4.472,6.63,6.455,1.786,1.5,3.792.844,5.735-1.016,1.832-1.753.421-2.939-.5-4.18a16.074,16.074,0,0,0-2.6-2.763c-5.618-4.693-9.861-10.624-14.638-16.076A8.256,8.256,0,0,1,123.1,125.7c-.2-.922.226-1.447,1.11-1.1a15.884,15.884,0,0,1,2.836,1.581,128.406,128.406,0,0,0,16.322,8.613c2.7,1.261,5.371,1.551,7.678-.36s4.361-4.041,4.454-7.585c.17-6.515.774-13.019,1.268-19.523.051-.661.535-1.779.915-1.821.755-.085,1.011.908,1.25,1.559a71.677,71.677,0,0,0,7.146,14.043c4.522,7.039,9.4,7.23,15.209,1.066a58.177,58.177,0,0,0,6.079-8.3c2.474-3.778,4.894-7.6,7.587-11.217.622-.837,1.8-2.257,3.089-1.8,1.411.5.921,2.159.886,3.35a33.507,33.507,0,0,1-.479,4.323c-.863,5.366-1.648,10.747-2.694,16.077-.6,3.052.415,5.8,1.351,8.448,1.164,3.3,4.494,4.234,7.441,2.383a16.755,16.755,0,0,0,3.632-3.244c8.121-9.367,19.1-14.855,29.166-21.583.465-.311,1.061-1.349,1.739-.339.178.264-.174.991-.428,1.419-1.943,3.272-4.245,6.375-5.806,9.816-1.863,4.109-3.278,8.455-1.626,13.125,2.208,6.242,4.024,7.044,9.784,3.663a34.616,34.616,0,0,1,9.132-3.337c3.079-.8,7.576,2.489,7.945,5.845.256,2.336-.744,3.791-2.068,5.315-2.5,2.877-5.608,5.178-7.78,8.363-2.157,3.162-2.346,4.6-.719,6.26,1.35,1.375,3.072.909,5.919-2,3.047-3.11,6.049-6.284,8.839-9.622,4.465-5.342,4.4-10.716.023-16.286-1.008-1.282-2.2-2.416-3.244-3.674-2.568-3.1-5.81-3.951-9.736-3.453-6.055.767-6.178.6-3.842-4.944,1.476-3.5,3.566-6.757,4.947-10.291,1.282-3.28,1.3-6.438-1.4-9.541-2.731-3.134-5.457-2.086-8.378-1.118-4.523,1.5-8.383,4.288-12.431,6.686-5.778,3.424-11.463,7-17.217,10.47-.7.423-1.413,1.415-2.383.714-.836-.606-.578-1.617-.512-2.507.2-2.715.4-5.431.564-7.6C208.67,103.756,208.773,100.484,208.645,97.22ZM267.2.013c6.534.17,17.58.522,28.112,4.676a63.742,63.742,0,0,1,27.993,20.817,31.115,31.115,0,0,1,5.171,11.3c2.045,7.934-1.579,14.047-6.714,19.543a22.128,22.128,0,0,1-5.16,3.9,66.088,66.088,0,0,1-28.657,8.917,122.9,122.9,0,0,1-23.773-.369,6.615,6.615,0,0,0-5.841,1.756c-3.228,2.909-6.576,5.685-9.864,8.528-1.816,1.569-3.661,3.241-6.259,1.854-1.716-.915-1.714-2.823-.258-6.358.277-.67.589-1.327.845-2.006,2.18-5.768,2.167-5.712-3.725-6.813C228.925,63.86,219,61.14,209.718,56.564a67.1,67.1,0,0,1-20.357-15.24c-6.1-6.769-4.7-14.6,3.393-18.891a36.5,36.5,0,0,0,6.539-4.8,45.781,45.781,0,0,1,11.5-7.155C227.321,3.251,244.62-.238,267.2.013Zm4.836,55.064a207.192,207.192,0,0,0,21.751-1.234c6.951-.631,13.432-2.959,19.766-5.727,4.115-1.8,5.838-5.175,6.008-9.515.215-5.483-2.228-9.763-5.971-13.5a50.689,50.689,0,0,0-27.514-14.48c-24.026-4.126-47.914-3.644-71.6,3.117-7.488,2.136-12.715,6.617-17.464,12.149-2.873,3.347-2.479,6.566.974,9.418a78.952,78.952,0,0,0,30.289,15.423C242.651,54.583,257.423,53.953,272.038,55.077ZM253.453,259.535c-.09,5.159-.022,5.251,5.029,6.614a12.016,12.016,0,0,1,2.1.533c2.485,1.2,2.812,3.472.621,5.061-1.756,1.275-3.726,2.492-5.954,2.453-2.742-.049-3.963,1.485-4.633,3.721a56.829,56.829,0,0,0-1.515,6.329,2.814,2.814,0,0,0,2.39,3.6c1.963.438,3.966.9,5.866.033,1.118-.508,1.95-.912,2.66.434a2.306,2.306,0,0,1-.481,2.971c-3.086,2.865-6.78,2.1-10.327,1.424-2.97-.563-4.636-2.6-5.062-5.641-.566-4.041-.269-8,1.761-11.566,1.361-2.391,1.618-3.955-.212-6.591a24.3,24.3,0,0,1-3.92-17.18c1.352-9.178,6.978-13.726,16.606-12,4.816.863,7.947.119,11.394-3.036,3.97-3.634,9-6.361,14.392-4.851,4.863,1.36,7.236-.262,10.141-3.759,4.622-5.564,10.251-6.088,16.533-2.208,2.017,1.246,3.615,1.773,5.979.741,4.361-1.9,9.021-1,13.4-.021,3.239.728,5.488,3.44,7.079,6.39a93.149,93.149,0,0,1,4.318,8.763c.75,1.83,1.415,3.025,3.713,3.063,4.36.074,7.36,2.611,9.718,6.086,4.025,5.931,7.366,12.115,7.246,19.557a5.691,5.691,0,0,0,1.715,4.38c3.766,3.84,4.7,8.869,5.589,13.882a5.03,5.03,0,0,1-.158,3.206c-2.451,5.008-5.66,9.273-11.246,11.048-3.064.974-5.969-.769-7.069-4.047-.976-2.91.09-5.195,3.155-6.429,1.509-.608,3.155-.875,4.672-1.468,4.112-1.61,4.958-3.283,3.9-7.558a15.989,15.989,0,0,0-1.172-3.6c-.682-1.305-1.725-1.85-2.912-.37a12.029,12.029,0,0,1-6.044,4.427c-3.026.86-4.376.209-5.468-2.7-2.479-6.6.707-10.887,6.841-10.839.907.007,1.816-.019,2.722-.067,1.451-.077,1.69-.858,1.48-2.2-.879-5.61-3.73-10.222-7.455-14.269-2.662-2.893-6.2-2.027-7.6,1.647-1.447,3.81-3.325,7.256-6.959,9.413-3.659,2.173-6.076,1.421-7.892-2.412-2.26-4.767-1.8-10.04,2.849-13.169,5.164-3.476,4.289-7.281,2.808-11.762a28.343,28.343,0,0,0-1.05-3.085c-1.365-2.939-2.843-3.734-6.04-3.3-1.256.169-2.5.441-3.743.695-4.485.915-4.851,1.028-3.569,5.721,1.59,5.821-4.1,11.681-9.551,12.178-5.122.466-8.533-5.842-6.179-11.126.926-2.079,2.676-3.392,4.145-4.985,1.406-1.526,1.156-2.333-.769-3.163-3.753-1.617-6.526-1.052-9.3,1.96-.853.927-1.581,1.967-2.4,2.924-1.127,1.315-1.729,2.487-.656,4.333a4.924,4.924,0,0,1,.154,4.707c-1.192,2.406-4.681,5.059-6.706,4.876s-4.065-2.8-4.651-6.1a9.8,9.8,0,0,1-.036-2.167c.072-1.467-.854-1.723-2.039-1.912a7.535,7.535,0,0,0-4.737.894c-2.239,1.178-4.336,2.63-6.481,3.984-1.212.765-1.756,1.755-1.089,3.205,1.135,2.469.681,4.964-.045,7.423a2.242,2.242,0,0,1-1.91,1.707,2.442,2.442,0,0,1-2.216-1.3,4.416,4.416,0,0,1-.316-.444c-1.1-1.9-.621-5.753-4.667-4.107-5.906,2.4-6.291.756-6.74,7.413C253.421,258.444,253.453,258.991,253.453,259.535ZM355.885,277.65c.319-1.223-.374-1.213-.8-1.252-1.436-.133-2.933-.2-3.333,1.665a1.575,1.575,0,0,0,.5,1.356C353.228,280.023,355.692,278.522,355.885,277.65ZM79.443,39.469c14.1-1.9,24.508,5.18,34.039,14.039,5.979,5.556,6.375,12.227,1.668,18.911A72.935,72.935,0,0,1,98.767,88.951a200.945,200.945,0,0,1-34.456,20.482,65.471,65.471,0,0,1-13.946,4.306c-1.59.348-3.2.633-4.769,1.046-3.517.923-3.493.947-3.215,4.381q.372,4.608.67,9.221c.155,2.351.563,5.129-2.153,6.1-2.645.941-4.267-1.411-5.782-3.182a55.7,55.7,0,0,1-7.079-10.934,7.415,7.415,0,0,0-6.234-4.405,24.836,24.836,0,0,1-14.892-7.031c-7.75-7.595-9.294-17.267-3.038-25.993A189.9,189.9,0,0,1,20.92,62.5a20.968,20.968,0,0,1,5.5-4.4c12.277-6.136,23.911-13.661,37.5-17A66.757,66.757,0,0,1,79.443,39.469Zm.6,3.579c-11.491-1.063-21.415,2.211-30.8,7.3-6.053,3.282-11.8,7.129-17.774,10.559a24.663,24.663,0,0,0-6.941,6.028c-1.251,1.545-2.688,2.964-3.914,4.473-3.628,4.469-7.359,8.941-9.431,14.454-3.385,9.007-.451,14.212,9,16.232,9.1,1.942,18.092.7,27.043-.821a82.694,82.694,0,0,0,23.6-8.024C83.158,87.005,95.451,80.775,105.954,71.6a21.486,21.486,0,0,0,5.023-5.663c2.615-4.736,2.367-6.946-1.446-10.618-.913-.879-1.96-1.617-2.9-2.467C98.906,45.891,90.328,41.275,80.047,43.048ZM395.7,146.93c1.034,6.173-1.4,12.217-5.531,17.846-4.924,6.711-8.689,7.991-16.795,6.022a63.765,63.765,0,0,1-14.649-5.681,7.3,7.3,0,0,0-5.64-.7c-3.681.9-7.463,1.4-11.22,1.946-1.431.21-2.915.192-3.772-1.419-.971-1.828,0-3.2,1.138-4.359,1.52-1.548,3.237-2.9,4.878-4.332,1.5-1.308,1.6-2.5.229-4.138-3.257-3.893-6.264-7.994-9.469-11.932-8.59-10.557-10.485-22.335-6.7-35.252,1.7-5.8,5.084-9.906,10.928-11.849,2.921-.972,5.774-2.151,8.7-3.1a16.843,16.843,0,0,1,13.221,1.087c7.329,3.762,13.7,8.6,18.441,15.62,4.683,6.928,8.6,14.234,12.625,21.532C395.209,133.893,396.138,139.743,395.7,146.93Zm-7.5-5.8c.777-4.486-.576-8.538-2.712-12.458-1.647-3.022-3.03-6.189-4.689-9.2a49.189,49.189,0,0,0-14.365-16.812c-4.759-3.388-9.787-6.59-16.025-5.286-3.885.812-7.637,2.265-11.438,3.468a4.611,4.611,0,0,0-2.762,2.468c-1.98,3.943-3.463,8.12-2.92,12.516a26.705,26.705,0,0,0,6.073,14.352c5.445,6.287,11.208,12.31,17.026,18.259,6.058,6.195,14.272,8.349,22.1,11.118,2.58.913,4.586-.57,6.2-2.4a13.351,13.351,0,0,0,3.056-7.371A37.286,37.286,0,0,0,388.2,141.131ZM261.959,465.7l.47-.127-.419-.22ZM177.494,234.715c-7.271-.173-15.046-4.554-19.67-13.933a40.764,40.764,0,0,1-4.7-18.267,7.366,7.366,0,0,1,1.192-4.632,3.59,3.59,0,0,1,4.223-1.536c5.27,1.573,10.71,1.557,16.1,1.381a238.014,238.014,0,0,0,24.945-1.814,69.608,69.608,0,0,1,12.5-.166c3.41.149,3.752.983,4.862,4.482,3.418,10.778-2.345,22.528-11.937,28.336C197.983,232.817,191.753,234.379,177.494,234.715ZM164.28,201.354c-2.122-.49-2.564.7-2.44,2.429a37.163,37.163,0,0,0,4.58,16.049c1.125,1.968,2.6,3.833,4.879,3.778,1.7-.041,1.96-2.332,2.791-3.666,2.8-4.5,4.948-5.062,9.212-2.041,1.465,1.038,2.468,1.57,4.314.609,3.538-1.841,7.123-1.59,9.885,1.588,1.489,1.712,2.71,1.16,4.222.313,6.415-3.595,8.795-9.83,10.75-16.344.458-1.528-.441-1.9-1.72-1.833-4.52.242-9.055.34-13.555.781a93.573,93.573,0,0,1-20.591.244A86.527,86.527,0,0,1,164.28,201.354Zm17.223,25.13a61.64,61.64,0,0,0,11.133-1.94c.458-.124,1.173-.7,1.135-.977a1.837,1.837,0,0,0-1.388-1.484c-1.99-.542-3.453.541-4.875,1.664-1.84,1.453-3.578,1.423-5.289-.215a11.839,11.839,0,0,0-1.669-1.355c-.911-.6-1.89-1.184-2.849-.083-.816.937-2.176,1.794-1.991,3.063.242,1.661,2,1.043,3.121,1.3A14.467,14.467,0,0,0,181.5,226.484Zm-26.609-45.375c1.617,3.747,4.661,4.368,7.751,1.625a11.039,11.039,0,0,0,3.346-6.1c.6-2.739-1.334-4.4-3.067-5.953a3.84,3.84,0,0,0-5-.491,9.523,9.523,0,0,0-4.155,7.327A34.473,34.473,0,0,0,154.894,181.109Zm47.459-5.913c.246,3.415,3.291,6.423,6.246,6.169,2.286-.2,5-3.885,4.714-6.408-.263-2.324-3.823-5.411-6.073-5.265C204.732,169.855,202.176,172.734,202.353,175.2ZM303.2,312.55c-8.183-.061-13.519-3.586-16.79-10.15-1.641-3.294-.873-4.9,2.544-6.33a16.783,16.783,0,0,1,7.476-.979c6.812.329,13.074,2.97,19.6,4.47,2.92.671,3.508,3.29,1.412,5.328a67.981,67.981,0,0,1-5.412,4.534C309.242,311.622,306.153,313,303.2,312.55Zm-7.515-12.214-2.968-.18c-.547-.033-1.1.02-1.147.691a1.115,1.115,0,0,0,.476.861c4.754,2.637,9.934,2.973,15.211,2.744a.562.562,0,0,0,.6-.743,1.689,1.689,0,0,0-.392-.932,6.058,6.058,0,0,0-2.907-1.348C301.523,301,298.539,300.148,295.689,300.336Zm-.513,21.945c-1.683.374-1.832,1.741-1.028,2.963,1.643,2.492,4.173,3.252,7.06,3.34,3.565.108,6.928-1.867,6.6-4.061-.289-1.945-3.287-3.267-6.722-3.076C299.114,321.712,297.113,321.851,295.176,322.281Zm-4.051-43.619a3.817,3.817,0,0,0-3.574,3.987c-.08,2.619,1.587,5.348,3.393,5.556,1.9.22,5.253-2.735,5.305-4.68C296.3,281.709,293.028,278.605,291.125,278.662Zm17.8,4.608a3.438,3.438,0,0,0-3.677,3.084c-.208,2.075,1.473,5,2.988,5.206,1.436.191,4.725-2.351,4.847-3.748C313.186,286.594,310.394,283.544,308.921,283.27ZM58.928,267.557a3.723,3.723,0,0,0,4.45-.739c1.576-1.576,2.041-4.681,1.041-7.079-1.042-2.5-3.878-4.557-5.806-3.954-2.627.822-2.51,3.168-2.577,4.892C55.97,264.494,56.924,266.693,58.928,267.557Zm24.935-1.54c.287-1.906-1.863-4.814-3.842-5.2-2.465-.477-5.453,1.932-5.645,4.551s1.48,4.418,4.433,4.784A4.644,4.644,0,0,0,83.863,266.017ZM57.48,298.081c-2.681.286-3.349,1.808-1.873,4.115a8.323,8.323,0,0,0,14.338-.391,1.9,1.9,0,0,0-.213-2.451c-1.093-1.257-2.225-2.5-4.154-1.77a11.764,11.764,0,0,1-4.837.479A31.1,31.1,0,0,0,57.48,298.081ZM258.387,24.191c-1.84,2.462-3.734,4.889-5.466,7.426a12.949,12.949,0,0,0-1.842,3.886,3.08,3.08,0,0,0,1.243,3.355,2.6,2.6,0,0,0,3.054-.045,39,39,0,0,0,3.5-2.507c2.88-2.139,2.863-2.132,4.765.7a33.781,33.781,0,0,0,2.851,3.96c3.094,3.41,6.079,3.279,8.936-.474a60.582,60.582,0,0,0,4.087-6.393c3.155-5.449,4.976-5.808,9.458-1.646a12.707,12.707,0,0,0,3.876,2.918c2.147.83,5.247-.3,6-2.363.875-2.392-1.735-2.25-2.72-3.3a2.114,2.114,0,0,0-.46-.287c-8.423-5.075-8.718-5.085-17.36-.539-4.434,2.333-4.385,2.3-7.3-1.521a40.61,40.61,0,0,0-4.03-4.392,4.429,4.429,0,0,0-4.093-1.233A5.522,5.522,0,0,0,258.387,24.191ZM228.59,39.74c1.631-.742,3.107-1.823,4.673-2.714,1.633-.928,3.305-1.484,5.081-.312.74.488,1.649,1.207,2.4.5.86-.813.6-2.01.092-3.028a6.439,6.439,0,0,0-7.226-3.524c-1.415.229-2.77.8-4.177,1.1-1.044.223-1.253-.547-.96-1.278A10.637,10.637,0,0,1,232.3,25.36c.444-.3.907-.761.49-1.316a2.62,2.62,0,0,0-1.267-.856,3.452,3.452,0,0,0-1.6-.052c-4.153.789-9.41,7.23-9.409,11.484C220.512,39.413,224.143,41.761,228.59,39.74ZM41.893,69.689c-4.1,5.885-6.37,12.563-8.549,19.285-.33,1.017-.583,2.261.73,2.81,1.237.518,2.049-.43,2.707-1.287,2.2-2.873,4.315-5.82,6.548-8.672.875-1.119,1.381-2.982,2.848-3.09,1.486-.11,1.908,1.859,2.9,2.817,3.978,3.835,7.9,3.736,11.545-.536a24.593,24.593,0,0,0,3.8-5.948,49.468,49.468,0,0,1,2.709-5.336c2.372-3.94,5.8-5.185,10.231-3.809a20.966,20.966,0,0,1,2.469,1.094c3.2,1.473,5.939.708,8.446-1.618a23.325,23.325,0,0,0,3.647-4.7,4.2,4.2,0,0,0,.3-1.389,5.555,5.555,0,0,0-1.523.182,14.186,14.186,0,0,1-7.945,1.09c-7.922-1.355-14.153,1.443-19.373,7.308-1.919,2.155-3.2,6.034-5.768,6.129-2.443.091-3.768-3.746-5.528-5.905-.967-1.187-2.124-1.958-4.913-1.718C45.6,66.279,43.5,67.384,41.893,69.689Zm307.5,48.425c-1.125.86-2.284,1.733-1.847,3.515.412,1.679,1,3.079,2.978,3.31.533.062,1.052.236,1.583.321,2.775.441,2.781.438,2.152,3.1-.208.879-.529,1.737-.669,2.626-.891,5.653,1.529,8.215,7.233,7.257,2.783-.468,4.493-.421,5.895,2.658,1.129,2.481,3.929,4.069,5.3,6.667a1.9,1.9,0,0,0,2.818.7,2.1,2.1,0,0,0,.792-2.837c-1.119-2.466-2.222-4.944-3.451-7.355s-3.061-3.541-6.008-3.763c-6.373-.48-6.857-1.714-3.978-7.74.467-.979,1.046-1.912,1.431-2.92.478-1.25,2.269-2.242,1.137-3.82-1.034-1.44-1.985-3.125-3.871-3.642a13.775,13.775,0,0,0-2.564-.323C354.841,115.89,351.035,116.863,349.4,118.114Z"/></g></g></svg>