<svg xmlns="http://www.w3.org/2000/svg" viewBox="0 0 453.903 451.29"><title>rocket</title><g id="Layer_2" data-name="Layer 2"><g id="Untitled_Artwork_12_Image" data-name="Untitled_Artwork 12 Image"><path d="M360.689,345.343c.035-.726.073-1.451.106-2.177.2-4.5.209-4.8-4.055-4.927-9.351-.27-18.39-2.389-27.257-4.9-9.153-2.59-18.441-3.892-27.8-5-10.264-1.217-20.434-3.168-30.8-3.6a42.758,42.758,0,0,1-10.638-2.11c-2.643-.816-4.592-.8-6.966.942-5.837,4.284-12,8.092-17.6,12.744a125.95,125.95,0,0,1-19.726,13.5,35.388,35.388,0,0,0-6.466,4.867c-4.711,4.222-9.6,8.254-15.28,11.174-8.9,4.57-16.524,11.075-24.962,16.34-9.813,6.122-18.929,13.4-29.678,17.979a6.336,6.336,0,0,0-1.407.828c-11.5,9.013-25.292,14.082-37.555,21.824-6.851,4.324-14.457,7.471-21.8,10.983a19.02,19.02,0,0,1-6.249,1.751c-4.115.4-8.231.95-12.323,1.259-5.532.419-9.63-3.155-12.4-7.571C42.973,421.5,40.7,413.234,43.2,403.9c2.1-7.845,3.263-15.937,5-23.883,3.088-14.092,8.679-27.115,15.666-39.782,9.546-17.305,17.182-35.562,23.928-54.166.828-2.284,1.071-4.029-.886-5.84C77.95,271.94,70.777,262.04,62.5,253.133c-4.324-4.653-9.78-8.143-13.54-13.365-.936-1.3-2.117-1.1-3.331-.279-5.506,3.729-11.661,5.771-18.119,7.139-4.5.951-6.946-.618-6.954-5.259-.007-4.313.556-8.624.684-12.941.2-6.737,1.794-13.241,3.113-19.792a10.291,10.291,0,0,1,1.232-3c7.3-12.752,13.812-25.894,20.046-39.2,3.916-8.359,8.815-16.26,13.305-24.348,1.408-2.538,2.909-5.026,4.393-7.522a24.7,24.7,0,0,1,2.9-4.593c3.086-3.237,6.126-6.353,11.52-5.134,4.032.911,8.3.9,12.466,1.055,3.41.124,6.317,1.607,9.229,3.007,2.455,1.18,3.075,3.658,3.951,6.148.913,2.593,1.791,4.631-.533,6.84-1.38,1.312-.716,2.278.943,2.567,2.859.5,5.727.959,8.607,1.311,3.45.421,6.911.932,9.895,2.77,5.923,3.65,12.855,3.634,19.236,5.59,1.135.348,1.685-.253,2.049-1.171,1-2.527,2.164-5.008,2.932-7.606,1.23-4.166,2.284-8.391,3.253-12.627,2.481-10.834,5.423-12.335,16.034-13.843,14.1-2.005,28.229-.668,42.2,2.033,3.033.586,6.069,1.03,9.149,1.337,6.49.646,12.985,1.226,19.155,3.764,3.4,1.4,3.534,1.01,5.477-2.224,6.255-10.413,11.408-21.48,18.4-31.447,4.8-6.834,9.72-13.576,14.109-20.684a24.222,24.222,0,0,1,5.368-6.106c3.462-2.815,6.363-2.474,9.63.442,3.749,3.348,4.742,7.6,4.631,12.263-.169,7.144,1.218,14.027,2.869,20.924.86,3.593,2.167,5.8,6.14,7.082,6.2,2.008,10.349,7.153,14.282,12.181a28.4,28.4,0,0,1,6.487,19.138c-.139,3.482.1,3.432,3.895,4.35,10.2,2.468,20.491,4.638,30.556,7.577a113.2,113.2,0,0,1,40.341,20.8,52.025,52.025,0,0,1,9.273,9.891c2.682,3.7,3.18,7.52.946,11.692a55.526,55.526,0,0,1-15.149,17.487c-4.573,3.58-8.4,7.91-12.438,12.029-1.294,1.319-.693,2.337.8,2.825,3.446,1.129,6.882,2.363,10.413,3.147a98.445,98.445,0,0,1,17,5.64,86.123,86.123,0,0,0,10.882,3.457c1.862.511,3.141.205,4.073-1.582a21.744,21.744,0,0,1,2.142-3.15c2.521-3.27,6.291-4.283,9.39-1.734,3.3,2.718,7.117,3.4,10.965,4.336a27.047,27.047,0,0,1,3.162.817c3.031,1.147,4.076,3.008,3.937,6.26a12.944,12.944,0,0,1-1.844,5.61,263,263,0,0,1-16.954,27.842,204.141,204.141,0,0,0-13.26,22.488,327.067,327.067,0,0,1-24.459,39.78,36.547,36.547,0,0,0-2,3.2c-.9,1.545-2.01,3.217-3.839,3.7-6.1,1.625-11.19,5.255-16.251,8.662-3.948,2.658-7.982,1.246-11.933,1.805-1.544.219-2.262-1.823-2.46-3.193a42.365,42.365,0,0,1-.071-5.977ZM125.941,193.956c-3.8,5.037-6.385,10.889-10.529,15.688A98.884,98.884,0,0,0,100.694,231.7a13.392,13.392,0,0,1-1.763,2.736c-6.371,7.72-10.68,16.785-16.357,24.949-1.445,2.079-1.2,3.512.386,5.206,2.6,2.775,5.087,5.66,7.65,8.472,1.981,2.175,2.1,2.166,3.726-.589a68.5,68.5,0,0,0,6.838-14.737c2.764-9.025,6.652-17.563,10.733-26.069,4.373-9.114,8.228-18.495,11.868-27.931,1.183-3.068,2.883-6.3,2.053-9.906l.349-.012Zm223.892,56.93c-1.323-.913-2.462-.233-3.457.547a69.547,69.547,0,0,0-7.9,6.6c-5.122,5.41-10.63,10.467-17.109,14.134A66.951,66.951,0,0,0,307.423,283.3a56.1,56.1,0,0,1-12.764,9.975c-9.7,5.149-16.911,13.624-26.358,19.05-1.128.647-.543,1.523.431,1.932a21.158,21.158,0,0,0,2.572.8c8.961,2.481,18.287,2.617,27.382,4.244a2.957,2.957,0,0,0,3.517-1.825,32.423,32.423,0,0,1,5.817-7.835,150.373,150.373,0,0,0,12.223-15.277c5.248-7.387,10.048-15.108,16.108-21.9,5.733-6.43,9.711-13.952,13.357-21.674a4.307,4.307,0,0,0,.68-.831,1.708,1.708,0,0,0,.135-.922c-.772-.292-.824.372-.893.834A3.114,3.114,0,0,0,349.833,250.886ZM169.709,130.632l-.006.156c-1.812,0-3.639-.143-5.435.03-3.892.374-3.9.437-4.638,4.553-.986,5.528-2.024,11.028-3.441,16.481-3.816,14.676-11.049,27.99-16.425,42.039-3.106,8.119-7,15.978-9.371,24.335-5.3,18.626-14.128,35.7-22.983,52.707A214.676,214.676,0,0,0,95.583,297.1c-1.6,4.426-3.068,8.932-5.418,13.028A94.252,94.252,0,0,0,82.7,327.021a317.18,317.18,0,0,1-16.158,39.733,58.81,58.81,0,0,0-4.634,13.91c-1.328,6.207-2.734,12.4-4.142,18.588a53.635,53.635,0,0,0-1.706,13.466,13.72,13.72,0,0,0,1.82,6.722,3.865,3.865,0,0,0,4.452,2.185c2.679-.436,5.445-.428,8.08-1.024,6.684-1.511,13.34-3.358,19.837-5.358,6.814-2.1,13.233-5.967,19.3-9.869,8.234-5.29,16.072-11.187,24.876-15.581a34.943,34.943,0,0,0,5.011-3.279A157.917,157.917,0,0,1,159.4,374.363c5.112-2.712,10.7-4.678,15.1-8.59a67.713,67.713,0,0,1,13.448-9.211,65.073,65.073,0,0,0,13.759-9.682,67.123,67.123,0,0,1,11.785-8.716,106.77,106.77,0,0,0,17.415-12.073,50.511,50.511,0,0,1,6.58-4.832,330.658,330.658,0,0,0,32.451-23.779c12.5-10.192,26.185-18.913,37.67-30.351A18.323,18.323,0,0,1,310.3,265.3c4.927-3.374,10.233-6.231,14.637-10.32,3.185-2.957,6.072-6.235,9.27-9.176,7.348-6.759,16.019-11.884,23.228-18.852,5.469-5.287,11.535-9.973,16.832-15.416,4.81-4.943,9.56-9.9,14.836-14.362a33.179,33.179,0,0,0,7-8.3c1.652-2.754,1.515-3.181-.886-5.545-4.607-4.536-10.692-6.7-16.049-10.024-4.376-2.718-8.653-3.612-12.7.65a8.5,8.5,0,0,1-1.893,1.053c-10.933,6.489-22.895,10.828-34.281,16.374a55.212,55.212,0,0,1-8.22,2.832c-2.771.841-5.751,2.012-8.215-.45-2.564-2.563-1.514-5.676-.75-8.69,2.093-8.254,6.927-15.127,11.224-22.254,2.623-4.351,2.75-4.161-2.07-4.961-6.915-1.147-14.048-1.262-20.614-4.121-1.132-.493-1.7.255-2.319.814-4.3,3.882-8.81,7.573-12.788,11.766-5.981,6.3-12.434,12.059-18.844,17.9-10.235,9.323-21.831,16.683-33.377,24.153-3.653,2.363-5.879,2.282-7.714-1.847-.941-2.118-2.228-4.138-2.831-6.4-1.308-4.909-2.733-9.814-3.576-14.81-.654-3.881-1.555-8.058-.206-11.829,3.419-9.558,7.326-18.941,10.99-28.413.937-2.424,4.258-4.676,2.734-7.06-1.387-2.169-5.118-.675-7.69-1.526a2.141,2.141,0,0,0-.542,0c-8.234-.391-8.224-.383-13.79,5.9-7.212,8.141-14.2,16.506-22.736,23.352-2.232,1.79-4.144,4.062-7.309,4.46-1.353.17-2.334.2-3.4-.843-1.924-1.883-3.26-4.106-2.72-6.715,1.916-9.248,1.849-18.726,3.473-27.989.395-2.254-.453-3.136-2.252-3.415C174.435,130.877,172.061,130.82,169.709,130.632ZM354.1,327.7c1.633,0,3.278-.128,4.895.028,2.909.28,4.606-.971,6.071-3.482,2.276-3.9,4.967-7.57,7.585-11.264,1.57-2.214,3.77-4.075,4.941-6.46,5.718-11.647,14.254-21.372,21.493-31.973,5.107-7.479,10.816-14.553,14.8-22.758,1.622-3.34,1.519-3.131-1.7-4.525-11.981-5.179-25.124-6.885-36.955-12.473a2.564,2.564,0,0,0-3.36.718c-5.542,5.983-11.171,11.864-15.5,18.873-4.374,7.089-8.519,14.368-13.968,20.713a71.8,71.8,0,0,0-7.888,11.02,150.806,150.806,0,0,1-12.954,18.774c-3.045,3.827-6.193,7.571-9.228,11.4-.884,1.116-2.641,2.254-2.2,3.539.466,1.346,2.5.962,3.888,1.065,6.526.482,12.839,2.073,19.206,3.452C340.116,325.838,346.887,328.2,354.1,327.7ZM96.55,151.335a1.923,1.923,0,0,0-2.16,1.226c-.558,1.136-1.019,2.319-1.554,3.467-4.287,9.187-8.234,18.573-14.58,26.616a62.947,62.947,0,0,0-7.156,11.5,208.7,208.7,0,0,1-11.879,21.317c-2.676,4.172-4.008,8.9-5.956,13.376a2.69,2.69,0,0,0,.666,3.424c7.773,6.848,14.593,14.6,21.314,22.451,1.943,2.27,2.481,2.253,3.792-.385,4.054-8.159,9.334-15.51,14.54-22.928a40.817,40.817,0,0,0,3.625-6.68,79.249,79.249,0,0,1,10.1-16.684,121.935,121.935,0,0,0,9.083-13.521c5.644-9.492,11.272-19,17.109-28.369,2.618-4.2,2.835-4.046-2.256-4.96-1.055-.19-2.058-.66-3.109-.895-5.311-1.188-10.077-4.21-15.537-4.794-5.207-.556-10.323-1.28-15.006-3.818A6.1,6.1,0,0,0,96.55,151.335Zm146.094,34.988c-.092,1.032-.414,1.91.3,2.32.746.43,1.284-.407,1.881-.768,6.736-4.078,11.878-10.072,17.957-14.933,7.957-6.363,14.361-14.369,22.246-20.8,3.368-2.746,6.777-5.441,10.186-8.136,1.213-.959,2-2.01,1.691-3.7-.64-3.557-1.194-7.131-1.737-10.7-.237-1.555-1.052-1.712-2.253-1.058a4.3,4.3,0,0,0-1.314.943c-3.681,4.572-8.662,7.711-12.87,11.7a30.116,30.116,0,0,1-8.8,6.309c-2.788,1.176-4.971.329-6.379-2.3-3.878-7.235-3.191-13.277,2.315-19.518,7.323-8.3,13.445-17.6,21.181-25.55a3.411,3.411,0,0,0,.8-3.944c-1.156-3.246-2.045-6.588-3.216-9.828-.71-1.965-.041-5.35-2.185-5.618-2-.25-2.494,3.166-3.753,4.88-3.958,5.385-8.111,10.712-11.33,16.536-6.128,11.09-12.683,21.963-18.02,33.486a34.032,34.032,0,0,1-3.307,5.614c-6.407,8.846-10.274,19.181-16.566,28.09-.953,1.349-.128,2.062,1.132,2.154,3.258.238,6.532.259,9.792.484,5.278.365,6.939,3.276,4.581,8.079C243.928,182.187,242.592,184.169,242.644,186.323ZM88.238,141.612a1.716,1.716,0,0,0-1.555-1.96,71.826,71.826,0,0,1-9.49-2.266c-3.69-1.35-3.94-1.308-6.242,1.886A73.82,73.82,0,0,0,62.1,155.4c-2.321,5.894-4.258,11.941-6.645,17.806a148.373,148.373,0,0,1-15.341,29.273c-2.376,3.409-4.453,7.029-6.6,10.59-1.3,2.144-1.159,4.009,1.08,5.617,2.647,1.9,5.112,4.05,7.719,6.008,2.683,2.016,2.823,1.963,4.175-.992,3.767-8.236,7.423-16.521,12.152-24.281,3.293-5.4,6.817-10.648,9.339-16.537,3.275-7.648,5.842-15.611,9.955-22.895q4.54-8.042,9.059-16.1C87.433,143.107,87.857,142.31,88.238,141.612ZM435.73,242.891c-2.421-.5-3.375.673-4.391,2.111-4.71,6.668-9.555,13.24-14.279,19.9-2.726,3.842-5.546,7.646-7.914,11.707a103.285,103.285,0,0,1-15.2,20.5,16.651,16.651,0,0,0-2.753,3.345,239.067,239.067,0,0,1-15.487,24.871c-1.476,2.02-1.136,2.515,1.42,3.222,4.009,1.107,8.37.182,12.243,2.161,1,.511,1.656-.284,2.206-1.046,5.74-7.946,11.97-15.673,15.9-24.664,3.808-8.707,9.143-16.473,13.708-24.7,5.719-10.3,12.262-20.149,18.3-30.278,3.43-5.751,3.091-6.227-3.7-7.116C435.616,242.881,435.441,242.823,435.73,242.891ZM354.4,165.726a2.3,2.3,0,0,0-2.077-1.652c-4.373-.851-8.767-1.6-13.154-2.378-3.694-.653-3.706-.653-5.507,2.5-2.678,4.693-5.379,9.373-7.982,14.108-.814,1.48-2.858,3.279-1.519,4.654,1.322,1.357,3.269-.5,4.814-1.288,7.069-3.611,12.944-9.166,20.223-12.453a37.082,37.082,0,0,0,4.229-2.416A4.972,4.972,0,0,0,354.4,165.726Zm-169.8-21.6h-.112c-.166,3.078-.345,6.156-.487,9.235-.031.683-.214,1.51.494,1.945.812.5,1.333-.256,1.866-.686,6.283-5.061,10.884-11.631,15.9-17.821,1.022-1.261.523-2.362-1.237-2.6-4.286-.577-8.583-1.132-12.894-1.446-3.522-.257-3.533-.1-3.532,3.242Q184.6,140.063,184.6,144.127Zm108.385-27.48c-.327-1.718-.79-4.38-1.362-7.019-.2-.918-1.065-.972-1.687-.551a10.281,10.281,0,0,0-1.921,1.873q-8.13,9.435-16.226,18.9a24.287,24.287,0,0,0-2.642,3.405,2.251,2.251,0,0,0,.487,2.96c.811.589,1.689-.207,2.383-.778.837-.688,1.581-1.5,2.454-2.132,5.957-4.338,10.58-10.415,17.519-13.466C293.051,119.373,293.042,118.523,292.984,116.647Zm-64.84,64.923a13.207,13.207,0,0,0,.277,2.681c.667,2.139.256,5.493,2.672,5.9,1.627.274,1.763-3.177,2.842-4.807a11.772,11.772,0,0,0,.747-1.442c2.236-4.678,1.87-3.706-2.637-4.82-.347-.086-.723-.048-1.078-.113C228.863,178.582,227.844,179.328,228.144,181.57Zm140.5,160.252c.091,4.714.458,4.93,4.444,2.754,1.747-.954,3.476-1.946,5.164-3,.525-.327,1.486-.621,1-1.548a2.092,2.092,0,0,0-1.26-.874c-2.442-.587-5.04-.456-7.309-1.88-.676-.424-1.352.321-1.507,1.085C368.926,339.59,368.792,340.844,368.648,341.822ZM30.141,233.391c-.175,3.133.379,3.572,3.2,2.425a20.805,20.805,0,0,0,2.867-1.456c2.5-1.507,2.652-2.042.36-3.718-1.662-1.215-3-4.269-5-3.259C30.163,228.1,30.2,231.227,30.141,233.391ZM362.43,91.647c-.1-.181.262-.261.434.1-.7-1.213.02-2.136.779-2.873a58.272,58.272,0,0,1,5.153-4.818,120.023,120.023,0,0,0,9.6-8.017c6.732-6.342,13.246-12.915,19.991-19.244a37.16,37.16,0,0,0,5.4-6.8c1.876-2.828,1.449-4.541-.608-7.368-3.243-4.456-7.837-6.273-12.991-7.08-13.517-2.117-26.8-.34-39.923,2.815a93.324,93.324,0,0,0-28.481,11.865c-2.3,1.461-4.45,3.867-7.712,3.355a21.662,21.662,0,0,1-.234-8.658c1.087-6.575.024-13.042-.56-19.512-.6-6.637-5.448-10.307-10.691-13.391a6.971,6.971,0,0,0-3.713-.566c-6.921.381-13.134,2.455-18.106,7.606-3.651,3.782-7.544,7.331-11.2,11.106-7.113,7.337-13.592,15.108-16.685,25.14-.915,2.967-1.072,2.988-3.869,1.1a36.2,36.2,0,0,0-7.714-3.979,26.73,26.73,0,0,1-9.606-5.975,47.734,47.734,0,0,0-8.834-7.235c-6.542-3.875-12.57-2.013-15.593,4.933a20.911,20.911,0,0,0-1.72,10.1c.158,1.976.073,3.977.313,5.94,1.23,10.091,2.467,20.194,7.276,29.4,2.942,5.629,5.9,11.25,8.951,16.82a19.375,19.375,0,0,0,4.186,5.661,2.332,2.332,0,0,0,3,.217c.947-.611.818-1.518.565-2.417-.243-.868-.5-1.733-.8-2.582-2.169-6.155-4.814-12.11-7.492-18.055-2.007-4.455-4.137-8.878-4.873-13.789-.7-4.656-1.6-9.291-2.052-13.971a65.555,65.555,0,0,1-.048-10.336c.242-3.923,2.21-4.885,5.32-2.7a32.833,32.833,0,0,1,5.409,4.53,42.7,42.7,0,0,0,19.1,12.04c8.836,2.75,11,1.431,14.769-4.25A114.566,114.566,0,0,1,267.313,49.9c6.349-7.473,14.154-13.465,20.773-20.67a13.491,13.491,0,0,1,9.172-4.291c3.468-.239,4.194-.118,5.4,3.126,2.587,6.974,5.032,14,4.305,21.676A71.477,71.477,0,0,0,306.84,59c.159,4.452,1.98,5.881,6.328,4.728,3.669-.973,7.235-2.345,10.83-3.589,4.785-1.657,9.058-4.466,13.935-5.981,8.305-2.581,16.651-5.1,25.287-6.049,7.134-.782,14.344-1.867,21.55-.84,2.112.3,5.362-.585,6.093,1.119.839,1.955-2.533,2.939-3.681,4.7-1.078,1.66-2.537,3.068-3.779,4.627a61.474,61.474,0,0,1-9.287,9.907A120.442,120.442,0,0,0,359.5,82.238c-3.781,4.3-6.635,8.979-7.147,14.895-.275,3.18-.132,3.741,3.137,4.078a53.189,53.189,0,0,0,13-.536c5.738-.816,11.486-1.632,17.256-2.136,4.916-.43,9.783.059,14.22,2.571,2.028,1.148,2.189,1.719.545,3.149a34.83,34.83,0,0,1-5.229,3.891c-9.406,5.477-16.425,13.63-23.95,21.209a15.89,15.89,0,0,0-4.138,6.327,2.832,2.832,0,0,0,.693,3c.989,1.051,1.957.478,2.921-.084,5.33-3.111,10.742-6.2,14.876-10.845a84.547,84.547,0,0,1,12.242-10.676c4.421-3.383,9.372-6.145,12.7-10.931,1.843-2.652,1.953-4.862.313-7.461-4.461-7.072-10.572-11.337-19.167-11.548a71.5,71.5,0,0,0-14.6,1.487c-4.817.879-9.45,2.631-14.373,2.976C362.082,91.716,362.77,92.281,362.43,91.647Zm82.553,245.792c-2.349-3.41-5.168-3.869-8.877-1.393a47.441,47.441,0,0,0-15.554,16.485c-6.864,12.454-15.374,23.695-24.386,34.618a189.065,189.065,0,0,0-15.734,22.185c-6.778,11.152-12.5,22.941-20.212,33.531a21.873,21.873,0,0,0-2.209,4.366,7.52,7.52,0,0,0-.565,2.6,1.37,1.37,0,0,0,2.264,1.149,9.381,9.381,0,0,0,1.235-1.058A158.836,158.836,0,0,0,389.1,413.5c5.2-9.009,11.642-17.019,18.37-24.867,4.478-5.222,9-10.427,13.144-15.912,6.961-9.218,12.122-19.8,21.062-27.522a19.749,19.749,0,0,0,2.753-3.365,25.413,25.413,0,0,0,1.4-2.409A10.784,10.784,0,0,0,444.983,337.439ZM5.525,101.965A102.957,102.957,0,0,1,17.759,91.239,70.263,70.263,0,0,0,33,75.171a45.931,45.931,0,0,1,7.009-7.557C44.673,63.338,49.457,59.2,53.554,54.3c3.707-4.43,7.355-8.985,11.99-12.541a87.325,87.325,0,0,0,7.533-7.047,45.7,45.7,0,0,0,6.728-9.173c1.343-2.189.926-4.151-.732-5.354-1.788-1.3-3.444-.629-4.98.522a22.513,22.513,0,0,0-2.9,2.459A150.418,150.418,0,0,1,59.6,33.871a59.652,59.652,0,0,0-8.935,8.7A116.176,116.176,0,0,1,36.093,57.94,55.46,55.46,0,0,0,25.718,69.761,87,87,0,0,1,13.345,84.88c-3.668,3.756-7.478,7.391-10.4,11.812a22.167,22.167,0,0,0-2.867,5.826c-.317,1.057.428,1.632,1.435,1.966A7.247,7.247,0,0,0,5.525,101.965ZM268.141,364.9a8.119,8.119,0,0,0-5.592,3.016c-2.033,2.307-4.075,4.62-5.921,7.074a118.4,118.4,0,0,1-11.644,13.606c-9.739,9.537-17.716,20.509-25.4,31.7a42.988,42.988,0,0,1-4.655,5.992,30.966,30.966,0,0,0-4.805,6.563,3.321,3.321,0,0,0,.729,4.374c3.218,3.226,5.035,3.248,7.95-.282,1.031-1.248,1.786-2.719,2.7-4.066,5.789-8.518,11.525-17.107,18.7-24.537a86.491,86.491,0,0,0,10.1-12.014c1.2-1.8,2.628-3.454,4-5.134,5.494-6.72,11.018-13.415,16.5-20.142.67-.822,1.5-1.608,1.52-2.8C272.368,366.468,270.275,364.751,268.141,364.9Zm50.9-286.433a26.684,26.684,0,0,0-12.31,9.522,1.916,1.916,0,0,0-.139,2.488,2.079,2.079,0,0,0,2.421.777,44.73,44.73,0,0,0,5.01-2.089,32.457,32.457,0,0,1,11.481-3.05c2.547-.26,3.057.369,1.908,2.688a65.849,65.849,0,0,0-5.109,13.158,13.443,13.443,0,0,0-.617,5.889c1.158,6.181,5.218,10.225,11.577,11.369,2.309.416,4.726.188,6.937,1.18,2.593,1.162,3.364,3.3,1.929,5.73-.641,1.085-1.592,1.985-2.259,3.058-1.069,1.718-.19,3.2.979,4.373,1.06,1.066,2.429.68,3.491-.12,3.349-2.525,5.606-5.565,5-10.144a13.372,13.372,0,0,0-11.028-11.245c-1.6-.315-3.26-.324-4.847-.678-3.74-.835-4.773-2.305-4.439-6.192a27.139,27.139,0,0,1,.636-3.187C330.8,96.577,333.814,91.962,336.01,87c1.9-4.3,1.671-4.735-1.433-8.095-1.875-2.031-4.108-2.035-5.766-2.059A26.393,26.393,0,0,0,319.042,78.463ZM150.8,34.269c-3.764.331-6.138,2.994-8.652,5.279-7.029,6.387-12.682,13.94-18.013,21.752a163.642,163.642,0,0,0-10.584,17.118c-.6,1.162-1.236,2.31-.2,3.5,1.223,1.406,2.589.865,3.937.164a17.525,17.525,0,0,0,5.528-5.162c5.8-7.439,11.483-14.968,17.333-22.366,3.484-4.405,7.248-8.589,10.784-12.954a8.7,8.7,0,0,0,2.389-5.359C153.3,34.522,152.3,34.137,150.8,34.269Zm168.041,346.4c-1.5-.973-3.153-.338-4.555.644a12.125,12.125,0,0,0-3.737,5.252c-4.818,10.611-11.644,19.943-18.327,29.376a10.3,10.3,0,0,0-1.455,2.27,4.2,4.2,0,0,0,1.464,4.829c1.418,1.268,2.836.419,3.964-.282a13.466,13.466,0,0,0,3.04-3.035,246.077,246.077,0,0,0,21.709-31.687c.545-.93,1.024-1.9,1.706-3.17A12.316,12.316,0,0,0,318.838,380.668ZM37.412,293.591a14.386,14.386,0,0,0-6.471,3.805c-4.7,5.117-7.83,11.239-11.014,17.308-.944,1.8.35,5.181,2.154,6.125,2.067,1.083,3.782,0,5.261-1.36a14.413,14.413,0,0,0,2.463-2.879c3.353-5.349,6.63-10.744,9.931-16.125a6.053,6.053,0,0,0,1.027-4C40.93,293.387,40.185,292.708,37.412,293.591ZM243.435,94.125c-.067-4.459,1.164-5.509,5.555-4.741,1.236.216,2.418.756,3.655.936a4.451,4.451,0,0,0,4.962-2.5c1.038-2.132-1.26-2.678-2.258-3.711a7.472,7.472,0,0,0-3.211-1.915c-3.863-1.1-8.05-1.978-11.4.681-2.611,2.071-5.231,4.975-5.117,8.6A21.84,21.84,0,0,0,240,103.491a1.949,1.949,0,0,0,2.376.8,2.256,2.256,0,0,0,1.516-2.063c.039-1.627.01-3.255.01-4.539A32.545,32.545,0,0,1,243.435,94.125ZM441.987,130.79c-6.748,3.781-10.612,10.1-14.3,16.542a1.754,1.754,0,0,0,.44,2c.855.869,1.713.251,2.4-.218,4.921-3.34,9.842-6.682,14.674-10.149a17.377,17.377,0,0,0,2.9-3.2c.818-.984,1.623-2.032.847-3.411a4.372,4.372,0,0,0-3.814-2.526A15.262,15.262,0,0,0,441.987,130.79ZM247.637,7.261A11.11,11.11,0,0,0,243.644.978c-2.333-1.809-5.149-1.041-6.065,1.743a9.49,9.49,0,0,0-.292,3.737c.294,3.218,1.609,6.221,2.034,9.453a4.638,4.638,0,0,0,4.661,3.755c1.819-.15,3.879-2.214,4.245-4.354a9.48,9.48,0,0,0,.019-1.835A16.829,16.829,0,0,0,247.637,7.261ZM422.661,66.906c1.046,3.245,2.872,3.976,5.672,2.3,3.364-2.014,5.468-5.22,7.539-8.414a1.907,1.907,0,0,0,.076-1.514,7.054,7.054,0,0,0-7.442-4.059c-3.309.726-6.849,4.641-6.771,8.231C421.408,64.256,422.227,65.559,422.661,66.906ZM354.225,16.792a22.322,22.322,0,0,0,3.978-5.721c1.205-2.453.577-4.056-1.927-4.949-1.644-.587-3.368-.521-4.486.781-1.725,2.008-3.377,4.131-2.4,7.211a4.935,4.935,0,0,0,2.873,3.513A2.478,2.478,0,0,0,354.225,16.792ZM123.7,279.285c-.486-9.866,1.05-18.792,3.194-27.607a52.01,52.01,0,0,1,11.315-21.423c3.046-3.591,6.292-7.024,9.168-10.745,7.216-9.334,17.114-13.78,28.364-15.464,6.023-.9,12.258-2.679,18.26-.27,6.85,2.75,14.274,4.2,20.432,8.555,3.964,2.8,6.965,6.392,7.777,11.36,1.239,7.589,1.088,14.949-2,22.3-3.445,8.2-7.435,16.1-11.321,24.068a61.84,61.84,0,0,1-20.861,23.767c-8.008,5.589-15.759,11.583-24.47,16.116-3.688,1.919-7.458,3.651-11.232,5.4-8.268,3.823-23.5-2.311-25.556-13.761C125.406,293.937,122.652,286.512,123.7,279.285Zm62.387-65.177c-2.776.424-6.578.774-10.269,1.615-9.412,2.145-17.776,6.041-23.506,14.376-1.721,2.505-4.238,4.558-5.976,6.979-4.143,5.77-9.1,11.5-6.87,19.65.194.709-.478,1.681-.81,2.5a63.54,63.54,0,0,0-3.57,14.186c-.432,2.809.641,3.5,3.432,2.71,1.668-.476,1.578-1.618,1.732-2.914.715-6.029,5.841-6.926,10.69-4.521a4.9,4.9,0,0,1,1.945,6.627,8.966,8.966,0,0,1-1.622,2.17c-.985,1.031-1.295,1.866-.368,3.272,3.286,4.984.818,7.728-2.672,10.548a10.594,10.594,0,0,1-1.977.9c-.48.24-1.059.562-.745,1.21a2.229,2.229,0,0,0,1.063,1.107,14.4,14.4,0,0,0,11.076-.814c1.64-.755,2.03-1.487,1.657-3.286-1.027-4.962-.266-6.186,4.4-7.391,1.487-.384,2.571-.676,3.181-2.363,1.549-4.279,4.885-5.467,9.18-4.869,3.152.439,4.517,1.674,4.671,4.838.07,1.434.111,2.9-.967,4.128-.607.689-1.085,1.543-.294,2.406,1.031,1.126,1.894.352,2.8-.3,6.675-4.845,12.718-10.226,16.2-17.975,1.337-2.975,3.088-5.763,4.471-8.72,4.152-8.881,8.111-17.838,9.416-27.7a9.668,9.668,0,0,1,.812-2.563c1.669-3.8,1.639-4.285-1.348-6.8a43.2,43.2,0,0,0-3.657-2.328c-3.375-2.3-7.58-2.442-11.1-4.251C193.881,214.9,190.521,214.49,186.091,214.108Zm-18.543,74.637c-1.244-.008-2.438-.281-2.865.469-.62,1.091.335,1.991,1.125,2.736.9.845,1.8,1.691,2.757,2.464a2.168,2.168,0,0,0,2.921.273c1.359-1.038,3.752-1.713,3.548-3.468-.192-1.658-2.67-1.338-4.146-1.837A21.417,21.417,0,0,0,167.548,288.745Zm-30.359-3.211a8.562,8.562,0,0,0,1.412-.106c.658-.143,1.541-.236,1.422-1.166-.045-.352-.67-.754-1.109-.9a7.906,7.906,0,0,0-2.074-.317c-.932-.048-1.847.136-1.774,1.335C135.14,285.6,136.155,285.5,137.189,285.534Zm129.986-19.488a13.662,13.662,0,0,0,5.975-2.45,111.529,111.529,0,0,0,16.523-13.2,62.713,62.713,0,0,1,13.7-10.6,89,89,0,0,0,8.668-5.559c8.494-5.994,15.328-13.793,23.059-20.607a11.9,11.9,0,0,0,2.02-2.553,1.979,1.979,0,0,0-.46-2.869c-1.512-1.238-3.147-1.909-4.988-.857-1.407.8-2.709,1.795-4.057,2.7-6.609,4.457-12.557,9.77-18.892,14.577-7.358,5.583-15.406,10.215-22.473,16.223-6.618,5.627-13.243,11.258-20.11,16.57-1.725,1.334-3.192,2.156-2.455,3.924C263.206,265.3,264.108,266.387,267.175,266.046ZM78.2,401.731c2.191.733,3.492-1,4.743-2.631,1.6-2.09,2.271-4.525,3.02-6.94,2.2-7.1,4.464-14.193,8.085-20.7A202.33,202.33,0,0,0,105.129,348.5a108.667,108.667,0,0,1,6.243-13.268,11.881,11.881,0,0,0,.7-1.474c.328-.823.837-1.755-.233-2.362-.942-.535-1.709.07-2.389.709a35.342,35.342,0,0,0-5.337,6.154,98.848,98.848,0,0,0-7.691,13.752c-1.954,4.282-4.021,8.532-6.341,12.624a267.033,267.033,0,0,0-13.45,28.5,9.168,9.168,0,0,0-.933,4.18A3.963,3.963,0,0,0,78.2,401.731Zm62.951-55.457a16.321,16.321,0,0,1-1.95,7.63c-3.631,6.29-7.512,12.405-12.753,17.536a20.9,20.9,0,0,1-5.234,3.811c-3.03,1.537-5.633.344-8.278-.852-.991-.448-.936-1.345-.716-2.317.776-3.411,2.854-6.238,4.161-9.416,2.27-5.521,4.585-11.045,8.291-15.847,2.6-3.369,5.53-6.272,9.689-7.549,3.794-1.164,6.438.7,6.781,4.629C141.2,344.619,141.149,345.349,141.149,346.274Zm-22.324,25.035a23.636,23.636,0,0,0,3.725-2.583,63.208,63.208,0,0,0,11.706-16.81,7.251,7.251,0,0,0,.82-3.66,1.3,1.3,0,0,0-2.236-1.05,17.044,17.044,0,0,0-2.8,2.547c-5.168,6.13-7.858,13.762-12.251,20.368C117.434,370.654,117.857,371.074,118.825,371.309Zm143.4-153.77c-1.609-3.957,1.436-6.087,4.136-8.175A32.375,32.375,0,0,1,278,203.7c3.305-.873,6.052-.206,8.131,2.7,1.893,2.644,2,5.4.007,8.573-3.543,5.653-8.891,8.866-15.108,10.73C264.52,227.653,260.66,223.748,262.226,217.539Zm18.118-7.329c-.841.291-1.673.587-2.511.866-3.719,1.237-6.2,4.14-9,6.628-.575.511-1.17,1.153-.831,1.778s1.216.523,1.944.264a38.371,38.371,0,0,0,8.219-3.914,9.7,9.7,0,0,0,3.406-3.353,1.937,1.937,0,0,0,.168-1.527C281.567,210.593,280.89,210.478,280.344,210.21ZM166.285,320.925c-.1,2.99,2.489,5.887,5.165,5.785,2.533-.1,6.417-3.565,6.4-5.714a5.4,5.4,0,0,0-5.126-5.282C169.249,315.692,166.381,318.014,166.285,320.925Zm33.782-22.718c-.975,1.57-1.3,2.989.18,4.351s3.029,2.672,5.269,1.388a10.132,10.132,0,0,0,3.557-3.261c.733-1.117,1.293-2.239.523-3.508a6.036,6.036,0,0,0-4.063-3.112C202.759,294.35,201.352,296.139,200.067,298.207ZM219.7,264.553c.118,2.877,2.544,5.7,4.775,5.565,2.156-.134,5.7-3.382,5.571-5.108-.124-1.677-4.47-5.367-6.265-5.319C221.668,259.747,219.6,262.212,219.7,264.553Zm15.977-36.016a3.77,3.77,0,0,0-3.721,1.691,13.367,13.367,0,0,0-1.738,2.715c-.955,2.242,1.094,5.9,3.148,5.8,2.191-.114,5.253-3.7,5.184-6.068C238.5,231.006,237.045,228.769,235.672,228.537Zm132.94,36.229c5.849.036,8.86,3.192,11.273,7.27,2.206,3.729.794,6.94-1.384,10.031a31.2,31.2,0,0,1-6.916,6.838,9.7,9.7,0,0,1-12.01.178,10.539,10.539,0,0,1-3.515-12.073,23.438,23.438,0,0,1,8.629-10.876A6.343,6.343,0,0,1,368.612,264.766Zm3.9,11.371a2.061,2.061,0,0,0-1.017-2.184,1.792,1.792,0,0,0-2.011.2c-2.4,1.693-3.9,4.142-5.373,6.581-.472.781.088,1.34.92,1.465C367.674,282.6,372.387,278.487,372.51,276.137Zm-287.4-64.6c-1.537.409-3.318.663-4.655-1.047a9.967,9.967,0,0,1-2.382-7.556,116.128,116.128,0,0,1,2.463-11.617,5.069,5.069,0,0,1,5.03-4.17c3.265-.138,6.54-.225,9.634,1.052,4.271,1.763,5.917,5.089,4.891,9.546a21.74,21.74,0,0,1-4.951,9.515C91.851,211.039,90.788,211.547,85.11,211.536Zm-.657-12.551c-.094,2.988.406,3.79,2.4,3.849,3.134.092,4.67-1.294,4.823-4.348.14-2.824-.665-3.888-3.025-3.993C85.369,194.346,84.573,195.2,84.453,198.985Zm87.975,74.449c-4.548-.94-10.164-1.025-14.091-5.617a15.179,15.179,0,0,1-4.09-10.314c.034-9.538.836-18.82,6.412-27.008,1.2-1.766,2.065-4.148,4.656-4.071,2.776.082,3.7,2.544,4.848,4.578a8.413,8.413,0,0,1,.416,1c1.985,4.979,2.962,5.485,7.913,4.685a3.644,3.644,0,0,0,2.872-2.1c1.048-1.9,2.158-3.77,3.309-5.611,1.015-1.621,2.435-2.84,4.446-2.553,1.965.281,2.918,1.759,3.635,3.581,1.724,4.378,1.746,9.227,3.878,13.488.6,1.2.1,2.542-.271,3.721-1.9,6.045-3.984,12.03-7.271,17.493A19,19,0,0,1,172.428,273.434ZM161.1,251.278c0,2.352-.147,4.715.03,7.053.392,5.189,2.367,7.135,7.44,7.52,1.446.11,2.906.064,4.359.047,6.668-.076,8.85-1.655,11.2-8.078,1.306-3.567,2.477-7.192,3.96-10.685,1.006-2.368.637-4.6.095-6.895-.245-1.037-.992-1.71-1.918-.842-3.835,3.594-8.763,3.082-13.354,3.5-5.281.485-5.959-.21-7.783-5.406-.224-.638-.159-1.693-1.131-1.5-.551.111-1.1.857-1.408,1.444C160.283,241.82,160.5,246.549,161.1,251.278Zm16.323-.642c-.751-1.333-1.828-2.457-3.434-1.8-1.99.817-4.783-1.773-6.139,1.529-.666,1.622,1.226,7.188,2.793,8.125a1.522,1.522,0,0,0,1.459.091c1.938-.71,5.463-5.107,5.531-6.927A3.432,3.432,0,0,0,177.418,250.636Z"/></g></g></svg>