<svg xmlns="http://www.w3.org/2000/svg" viewBox="0 0 394.701 491.55"><title>rock-balloons</title><g id="Layer_2" data-name="Layer 2"><g id="Untitled_Artwork_13_Image" data-name="Untitled_Artwork 13 Image"><path d="M103.912,54.864c5.066.4,10.144.679,15.192,1.24,2.107.235,2.9-.666,3.535-2.4,1.306-3.577,2.4-7.334,4.807-10.326,6.256-7.765,11.728-16.128,18.3-23.657a33.643,33.643,0,0,1,8.868-7.093A92.017,92.017,0,0,1,212.227.659a21.943,21.943,0,0,1,3.2.6c15.029,4.069,29.155,9.782,40.788,20.7,6.914,6.489,13.569,13.127,18.685,21.138,1.228,1.924,2.354,2.117,4.455,1.524a106.547,106.547,0,0,1,39.383-3.361c10.29.99,20.154,3.8,28.964,10.073,7.689,5.475,15.811,10.263,22.2,17.406A137.023,137.023,0,0,1,388.173,94.4c3.648,6.678,4.7,14.114,5.4,21.49.791,8.294,1.135,16.66,1.123,24.994-.012,8.561-1.225,17.062-5.105,24.835-4.062,8.138-9.038,15.463-16.276,21.477-6.542,5.435-13.75,9.278-21.193,13.049a167.529,167.529,0,0,1-31.848,12.439c-5.939,1.615-11.876,1.076-17.816,1.418-2.7.156-5.433-.126-8.15-.231-3.625-.142-4.086.148-4.053,3.8A13.5,13.5,0,0,1,286.7,227.1c-2.527,2.843-4.719,3.6-8.191,1.877-2.468-1.228-3.2-.215-3.964,1.648-1.643,4.031-3.318,8.05-4.9,12.106a138.1,138.1,0,0,1-12.063,23.122c-5.609,8.949-9.406,18.814-14.483,28.029a123.5,123.5,0,0,1-6.825,11.714,92.584,92.584,0,0,0-8.945,16.773c-2.518,5.82-5.471,11.453-8.23,17.17-.216.447-.624.987.134,1.261a1.281,1.281,0,0,0,.99-.307,67.671,67.671,0,0,0,6.273-5.213c8.872-9.139,19.92-14.93,30.851-21.121,12.2-6.906,25.268-9.779,38.883-11.288a13.79,13.79,0,0,1,10.7,3.012c3.249,2.673,3.4,4.486,1.089,7.951a21.343,21.343,0,0,1-4.236,4.207,171.464,171.464,0,0,1-28.067,19.592c-5.065,2.807-9.976,5.892-14.94,8.879-6.722,4.045-14.26,6.262-21.322,9.543-1.639.761-3.329,1.414-5,2.093-3.8,1.539-7.812,2.619-11.04,5.332,3.939.625,7.872,1.3,11.821,1.856,2.874.4,5.77.642,8.655.967,9.386,1.056,17.789,4.871,25.99,9.258a25.553,25.553,0,0,1,5.927,4.749A76.87,76.87,0,0,0,291.8,392.39a17.944,17.944,0,0,0,7.625,2.538c8.036.711,14.94,4.131,21.195,9a6,6,0,0,0,3.454,1.269c7.441.6,11.009,3.393,13.131,10.454a15.815,15.815,0,0,0,2.143,4.333,78.624,78.624,0,0,1,7.63,15.011c2.662,6.751,1.7,10.2-3.816,14.939-8.525,7.328-17.036,14.654-26.836,20.351-4.025,2.34-7.2,6-11.792,7.61a49.68,49.68,0,0,1-12.114,2.845q-28.145,2.531-56.259,5.368c-4.68.477-9.291,1.749-14.041,1.282-1.571-.155-2.153.818-3.075,1.712-3.066,2.971-8.581,3.426-11.237.333-2.305-2.686-5.186-3.878-8.156-5-6.589-2.487-13.065-5.3-20.107-6.507-5.83-1-11.574-1.26-17.238.523-12.469,3.926-25.555,5.419-37.915,9.8-4.691,1.663-9.7.974-14.587.956a5.767,5.767,0,0,1-4.217-2.2c-1.116-1.189-2.153-2.453-3.193-3.709a10.235,10.235,0,0,0-8.435-3.93c-9.6-.175-19.189-1.054-28.786-1.564-3.14-.167-5.927-1.591-8.946-2.181-1.962-.384-2.952-1.983-3.512-3.814-3.215-10.513-1.336-26.083,13-32.868,5.712-2.7,10.932-6.435,16.431-9.605a6.126,6.126,0,0,0,2.727-3.245A53.284,53.284,0,0,0,87,420.5a19.929,19.929,0,0,1,12.574-14.031c6.911-2.711,13.547-6.183,20.9-7.7a34.651,34.651,0,0,0,11.459-4.878c2.916-1.834,5.928-3.527,8.966-5.153a75.183,75.183,0,0,0,14.278-9.913c2.587-2.277,5.327-4.382,7.882-6.694,5.313-4.809,11.655-6.35,18.612-6.228,2.5.044,5.008-.175,7.513-.274-2-1.595-4.506-1.979-6.808-2.823a105.5,105.5,0,0,1-15.513-6.585,145.382,145.382,0,0,0-15.815-7.183c-11.176-4.622-19.137-12.933-26.122-22.342a15.731,15.731,0,0,1-2.967-9.757,9.136,9.136,0,0,1,13.031-8.42,18.264,18.264,0,0,1,4.136,2.6c5.787,4.7,11.974,8.85,18.123,13.039a86.2,86.2,0,0,1,14.173,11.869c4.922,5.2,10.9,9.024,16.349,13.532a7.43,7.43,0,0,0,1.427.739,4.516,4.516,0,0,0,.042-1.514c-1.832-5.5-3.519-11.034-5.705-16.436-5.1-12.613-11.007-24.877-15.784-37.642-4.316-11.535-9.466-22.765-14.481-34.026a148.393,148.393,0,0,1-7.069-19.993c-.4-1.4-.81-2.789-1.164-4.2-.385-1.535-.919-2.07-2.62-1.179-5.281,2.767-14.948-1.133-15.3-8.1-.083-1.649.342-4.21-1.243-5.02-1.611-.824-3.174,1.346-4.888,1.841-10.135,2.93-20.328,5.453-31.018,5.124-9.818-.3-19.528-.984-28.861-4.516a117.7,117.7,0,0,1-27.994-15.47,33.691,33.691,0,0,1-5.488-5.271c-3.543-4.129-6.732-8.571-10.391-12.589C9.631,182.961,5.734,172.9,3.6,162.089c-1.691-8.572-1.338-17.276-.652-25.95.215-2.711.552-5.42.612-8.134a41.962,41.962,0,0,1,8.548-24.743c8.338-11.239,16.627-22.434,28.11-30.825C49.425,65.71,59.142,60.311,70.6,58.513c3.033-.476,5.989-1.448,8.98-2.19C87.6,54.332,95.729,54.237,103.912,54.864Zm84.844,303.745q.364-.344.119.125l-.186-.23c-.885-1.866-2.513-3.051-4.076-4.235a203.317,203.317,0,0,1-20.661-17.623,47.963,47.963,0,0,0-5.088-4.069c-6.811-5.114-14.128-9.467-21.33-13.988-1.709-1.073-3.917-3.376-5.577-1.595-1.293,1.388.082,4.062,1.4,5.875.318.439.526.963.869,1.378,5.211,6.308,10.735,12.227,18.317,15.832a96.5,96.5,0,0,1,11.994,6.34C172.144,351.462,180.548,354.818,188.756,358.609Zm17.776-194.162a72.492,72.492,0,0,0,11.793-1.251c16.272-3.148,29.24-12.352,41.781-22.359a28.474,28.474,0,0,0,5.322-6.157c3.566-5.11,5.847-10.862,8.47-16.425a77.39,77.39,0,0,0,7.8-37.322A40.225,40.225,0,0,0,277.862,65.2c-2.751-5.693-5.739-11.283-8.851-16.789A68.253,68.253,0,0,0,242.5,22.412c-10.249-5.745-21.212-10.218-33.236-11.349a84.055,84.055,0,0,0-20.053.323c-17.316,2.513-32.719,9-45.022,21.842-2.386,2.491-4.71,5.049-6.944,7.676a28.924,28.924,0,0,0-5.728,9.813c-2.516,7.768-4.912,15.569-6.865,23.5-2.164,8.793-1.629,17.6-.575,26.479,1.022,8.614,4.5,16.362,7.647,24.266a29.675,29.675,0,0,0,7.766,11,123.9,123.9,0,0,1,10.082,9.933c3.912,4.518,8.72,7.562,14,10.1C176.443,162.2,190.154,164.255,206.532,164.447ZM86.943,220.281c6.313.133,12.312.032,18.131-1.608,5.388-1.518,11.023-2.338,15.945-5.269,4.053-2.413,8.089-4.856,12.127-7.295a59.991,59.991,0,0,0,13.087-10.551c3.7-3.986,7.367-8,11.191-11.865a38.642,38.642,0,0,0,8.191-12.073c1.5-3.5,1.611-3.467-1.721-5.138-.971-.488-1.948-.972-2.953-1.383a45.926,45.926,0,0,1-15.98-11.039c-4-4.2-8.323-8.093-12.477-12.149a39.938,39.938,0,0,1-9.984-14.75c-.939-2.546-1.786-5.13-2.836-7.629-4.745-11.294-5.931-23.079-5.134-35.186a92.6,92.6,0,0,1,2.352-13.325c.206-.958.689-2.289-1.009-2.5a193.367,193.367,0,0,0-24.9-1.7,61.5,61.5,0,0,0-16.593,2.6c-6.426,1.841-13.138,2.695-19.107,6.043a109.428,109.428,0,0,0-34.7,30.809c-3.544,4.792-6.676,9.837-7.949,15.918a117.885,117.885,0,0,0-2.236,34.093,57.191,57.191,0,0,0,7.582,24.783c4.481,7.48,10.575,13.814,16.082,20.555a13.72,13.72,0,0,0,3.319,2.792C52.618,214.018,68.5,221.678,86.943,220.281Zm301.145-96.172c0-3.086.2-6.188-.042-9.255-.532-6.685-1.082-13.416-4.212-19.533-5.894-11.524-14.67-20.628-24.5-28.818a19.688,19.688,0,0,0-2.316-1.423c-9.106-5.65-19.294-8.072-29.624-10.291-14.4-3.094-28.527-.017-42.749,1.252-2.284.2-2.145,1.634-1.389,3.064a47.138,47.138,0,0,1,3.479,8.548c3.323,11.061,2.864,22.211.946,33.406-1.788,10.438-5.848,20.161-9.631,29.953a52.407,52.407,0,0,1-14.524,20.7c-6.029,5.3-13,9.136-19.848,13.157-2.115,1.242-2.3,2.547-1.307,4.294,2.058,3.625,4.564,7.024,6.341,10.775a32.217,32.217,0,0,0,12.811,13.7c7.878,4.855,15.792,9.523,25.124,11.36,7.581,1.493,15.149,1.246,22.765,1.252a63.566,63.566,0,0,0,29.31-7.337c11.374-5.865,23.038-11.373,32.414-20.668,6.1-6.043,10.865-12.689,13.269-20.8C387.622,146.6,388.251,135.377,388.088,124.109ZM291.8,471.689a22.081,22.081,0,0,1,3.808.032c5.55.988,9.679-1.384,13.641-4.992,8.192-7.458,17.223-13.9,26.186-20.375,3.147-2.272,4.343-4.6,3.636-8.149-.353-1.771-.85-3.513-1.317-5.259-1.565-5.854-5.448-10.592-7.756-16.069-1.18-2.8-3.115-3.79-5.805-4.062-6.672-.676-13.35-1.307-20.016-2.039-5.048-.554-10.071-1.457-15.169-.458a4.347,4.347,0,0,1-3.172-.447,2.067,2.067,0,0,1-.985-1.148,1.326,1.326,0,0,1,1.221-1.5c.709-.125,1.442-.117,2.155-.227a97.564,97.564,0,0,1,14.608-1.494c2.06,0,2.36-.976,1.384-2.8-1.252-2.345-3.594-2.485-5.642-2.588a18.261,18.261,0,0,1-9.127-3.054c-5.671-3.59-11.269-7.235-16.019-12.046a20.778,20.778,0,0,0-5.094-4.029c-7.6-3.967-15.481-7.131-24.01-8.386-6.812-1-13.628-2.047-20.479-2.688a76.966,76.966,0,0,0-17.37.068,5.115,5.115,0,0,0-4.075,2.867,46.837,46.837,0,0,0-5.631,14.038c-2.39,10.759-2.191,21.668-.7,32.469,1.309,9.5,3.351,18.913,5.311,28.313a187.687,187.687,0,0,0,7.046,25.142c.743,2.072,1.6,3.2,4.221,3.038,5.967-.376,11.969-.171,17.95-.376,6.328-.216,12.652-.925,18.973-.877,5.628.042,11.175-.657,16.743-1.083C274.805,472.86,283.238,471.415,291.8,471.689Zm-221.769-1.1c3.434-.686,8.2-.275,12.817-1.477,1.76-.459,2.982-1.013,2.159-3.246-.7-1.9.669-2.7,2.211-2.932a8.236,8.236,0,0,1,3.764.133c4.8,1.659,9.488,3.456,12.783,7.78a62.491,62.491,0,0,0,6.806,7.037c3.905,3.726,6.514,4.245,11.262,1.832a56.8,56.8,0,0,1,15.353-5.367c8.4-1.555,16.546-4.031,24.773-6.2,9.777-2.577,19.033-1.617,27.819,3.315,2.75,1.544,5.809,2.009,8.692,3.064,1.3.475,1.521-.431,1.273-1.5a9.819,9.819,0,0,0-.432-1.575c-5.285-12.633-7.294-26.16-10.771-39.286a18.119,18.119,0,0,1-.6-5.367c.239-6.868.431-13.74.509-20.611a134.73,134.73,0,0,1,1.11-14.636c.571-4.73,2.53-9.082,3.291-13.712.365-2.214,2.394-4.841.455-6.614-.972-.889-3.7.151-5.64.31-.543.045-1.094.017-1.632.091-8.166,1.128-16.087,2.85-22.082,9.2-.87.921-1.8,1.788-2.67,2.709-2.738,2.893-5.215,6.094-8.238,8.648a62.139,62.139,0,0,1-33.53,14.229,83.363,83.363,0,0,0-18.95,4.695c-4.4,1.609-5.371,4-4.528,8.558.347,1.879,1.211,1.838,2.663,1.365,3.27-1.065,6.574-2.028,9.868-3.018a6.621,6.621,0,0,1,3.732-.445,2.632,2.632,0,0,1,1.355.78c.642.851-.184,1.363-.726,1.7-4,2.5-8.158,4.755-12.034,7.427C90,434.986,79.34,442.835,68.333,450.165a12.581,12.581,0,0,0-6.117,9.623c-.1.9-.4,1.773-.518,2.671C60.633,470.276,60.752,470.406,70.03,470.589Zm136.128-150.7c0,3.445-.047,6.891.015,10.336.048,2.7.231,5.4.354,8.1,2.6-1.517,3.455-4.339,4.914-6.685,3.646-5.866,6.173-12.305,9.248-18.464,3.346-6.7,8.658-12.083,12.558-18.4,13.43-21.759,25.958-44.027,37.394-66.906.939-1.878.407-2.042-1.366-2.08-5.808-.123-8.854-4.3-7.093-9.754a14,14,0,0,1,3.172-5.648c2.444-2.486,1.5-2.824-.658-3.835-13.5-6.331-22.365-17.574-30.963-29.1a14.682,14.682,0,0,1-1.621-3.428c-1.426-3.6-1.156-3.508-5.2-2.641-5.279,1.132-10.333,3.274-15.87,3.259-1.709-.005-1.423,1.206-.806,2.272,1.813,3.129,3.9,6.138,4.741,9.725,1.463,6.224-2.348,11.386-8.685,11.454-1.776.019-2.2.532-2.261,2.032-.137,3.258-.417,6.512-.465,9.77-.11,7.6-.97,15.272.545,22.766,1.314,6.5.882,12.974,1.029,19.483.253,11.183-.991,22.333-.254,33.538C205.638,297.066,206.649,308.457,206.158,319.892Zm-9.832-5.1.117,0c-.318-11.777-.485-23.562-1.034-35.328-.2-4.214.5-8.31.722-12.456.277-5.113-1.32-10.025-.92-15.136.978-12.5-.047-25.025-.2-37.534-.057-4.679-.187-9.413-.6-14.106-.115-1.3-.173-2.119-2.025-2.432-4.785-.808-6.592-3.89-5.63-8.616a21.987,21.987,0,0,1,3.395-7.381c.879-1.377,1.952-2.64,2.734-4.066,1.694-3.089,1.419-3.63-1.988-4.2-3.932-.656-7.945-.97-11.789-1.956-2.46-.631-3.318.323-4,2.232a45.7,45.7,0,0,1-9.644,15.619c-4.3,4.655-9,8.948-13.173,13.71-4.528,5.169-5.636,4.517.749,8.4.311.189.633.361.93.569,4.175,2.908,5.354,6.627,3.481,11.385-1.151,2.926-2.664,5.578-6,6.571-1.823.543-2.042,1.789-1.3,3.393,3.131,6.73,5.786,13.732,9.472,20.142,5.813,10.109,10.267,20.822,14.806,31.477,5.036,11.824,9.216,24.01,13.926,35.977,1.857,4.717,4.124,9.274,6.246,13.885.205.445.727,1.087,1.067,1.066,1.132-.071.619-1.121.624-1.668C196.348,327.824,196.326,321.31,196.326,314.8Zm106.041-4.126a1.246,1.246,0,0,0-1.105-1.166,16.037,16.037,0,0,0-3.777-.373c-10.342.922-20.652,2.513-29.988,7.143-12.8,6.349-25.721,12.656-35.861,23.228-5.035,5.249-11.213,9.135-16.96,13.53-.365.279-.84,1.035-.725,1.2.361.532.97.154,1.464,0a176.785,176.785,0,0,0,17.152-6.893c10.791-4.673,22.213-7.9,32.25-14.327a122.423,122.423,0,0,1,11.536-6.076c8.459-4.22,16.253-9.543,24.265-14.5C301.37,311.967,302.2,311.526,302.367,310.669ZM134.561,219.655a54.544,54.544,0,0,0,1.48,6.438c.918,2.721,1.973,2.956,3.512.689,1.959-2.884,4.474-3.407,7.566-2.83a17.305,17.305,0,0,0,2.153.319c2.7.154,3.651-.95,3.252-3.541a4.413,4.413,0,0,0-2.52-3.3c-2.854-1.62-6.111-2.173-9.069-3.6C138.5,212.651,134.512,216.024,134.561,219.655Zm73.917-30.889A10.671,10.671,0,0,0,208,186.73q-2.508-5.671-5.123-11.295a1.21,1.21,0,0,0-1.292-.756c-.779.091-1.387.391-1.513,1.232-.491,3.286-2.321,6.019-3.653,8.96a34.33,34.33,0,0,0-1.339,3.538c-.362,1.109.213,1.917,1.275,1.7,3.156-.657,6.027.118,8.973,1.128C207.3,191.908,208.542,190.781,208.478,188.766Zm73,29.717a18.634,18.634,0,0,1,.236-3.2c.8-2.549-.289-3.853-2.745-3.9-1.571-.033-3.142-1.729-4.6-.382a8.861,8.861,0,0,0-2.8,6.279c-.076,2.05,2.168,1.437,3.16,2.326.8.719,1.7,1.339,2.561,1.987.963.722,1.632,2.378,2.968,1.916s.975-2.177,1.189-3.371A5.233,5.233,0,0,0,281.474,218.483ZM56.105,279.9c2.838-1.492,7.22-11.265,6.317-14.368-.609-2.088-1.844-4.225-4.078-4.727-2.352-.528-4.084,1.018-5.186,3.1a16.428,16.428,0,0,0-1.391,2.937c-.722,2.456-2.3,2.486-4.232,1.666-2-.85-3.941-1.862-5.986-2.581a4.109,4.109,0,0,0-5.244,1.647,4.051,4.051,0,0,0,.575,5.037c4.183,4.562,9.795,6.617,15.59,8.433A20.85,20.85,0,0,0,56.105,279.9Zm-35.76,42.525c-.339-1.744-.5-3.533-1.891-4.966-2.63-2.7-5.351-2.485-6.835.91a19.418,19.418,0,0,0-1.448,5.717c-.185,1.8.035,3.9-.985,5.224-1.566,2.034-3.578.095-5.4-.25a2.965,2.965,0,0,0-3.3,1.311A2.945,2.945,0,0,0,.73,333.91a10.833,10.833,0,0,0,2.363,2.2c4.644,3.443,9.093,1.977,13.555-.523,3.81-2.135,3.8-5.78,4.015-8.944A37.679,37.679,0,0,0,20.345,322.422ZM374.72,244.5c-.343-.828-.526-1.794-1.57-2.023a2.414,2.414,0,0,0-2.76,1.288,30.431,30.431,0,0,0-3.359,11.33c-.113,1.576.677,3.326,2.184,3.3,2.675-.05,4.793,1.571,7.308,1.77a9.627,9.627,0,0,0,7.56-2.21c1.8-1.552,1.7-2.671.54-4.553-1.746-2.824-4.5-2.731-7.138-3.012-1.766-.188-3.468-.125-2.761-2.159A4.866,4.866,0,0,0,374.72,244.5Zm11.527,108.335a3.665,3.665,0,0,0,.682-4.469,4.156,4.156,0,0,0-3.988-2.3,13.425,13.425,0,0,0-4.662,1.311c-3.745,1.57-4.706,1.144-6.491-2.648a25.111,25.111,0,0,0-1.829-3.272c-.616-.922-1.5-1.7-2.708-1.337a2.8,2.8,0,0,0-1.982,2.909,20.106,20.106,0,0,0,2.378,9.348,5.661,5.661,0,0,0,4.158,3.153c2.127.371,4.243.8,6.363,1.209A10.3,10.3,0,0,0,386.247,352.839ZM204.061,127.367a16.85,16.85,0,0,0,7.338-1.811,9.541,9.541,0,0,0,5.6-7.539,5.676,5.676,0,0,0-3.074-6.38c-3.444-1.8-7.039-1.374-10.557-.3-1.158.353-2.339,1.206-2.054,2.775a2.53,2.53,0,0,0,2.6,2.278,30.123,30.123,0,0,1,4.323.5c1.169.233,2.748.052,3.047,1.716.33,1.843-1.159,2.528-2.446,3.142a20.671,20.671,0,0,1-8.935,2.08c-4.171,0-8.348-.026-12.513-.229a49.88,49.88,0,0,0-19.773,2.731c-5.939,2.181-6.683,6.782-2.368,11.421a34.147,34.147,0,0,0,11.18,7.564c4.978,2.276,10.286,3.472,15.533,4.892,9.226,2.5,18.3,1.84,27.287-1.112a44.839,44.839,0,0,0,24.737-19.325,5.441,5.441,0,0,0,1.27-2.934,1.3,1.3,0,0,0-.475-.9,1.006,1.006,0,0,0-.932-.094c-.824.694-1.552,1.5-2.347,2.228-10.985,10.079-24.2,14.19-38.83,14.289-9.4.064-18.238-2.561-26.735-6.381a22.727,22.727,0,0,1-4.571-2.9c-1.457-1.138-1.28-2.021.39-2.738.826-.354,1.719-.551,2.579-.825,6.5-2.076,13.226-1.966,19.934-2.159C197.53,127.36,200.8,127.337,204.061,127.367Zm15.2-92a4.114,4.114,0,0,0,1.514-.055c-.193-.487-.246-1.171-.6-1.425a23.608,23.608,0,0,0-3.7-2.222,72.352,72.352,0,0,0-14.325-5.029c-7.227-1.654-14.4-1.512-21.322,1.321a62.568,62.568,0,0,0-16.51,10.352,30.115,30.115,0,0,0-4.894,5.778c-1.224,1.736-.654,3.485,1.134,4.53a4.1,4.1,0,0,0,4.139.187c2.59-1.29,5.223-2.494,7.8-3.8,6.763-3.433,13.31-7.191,20.9-8.886,6.467-1.444,12.9-1.509,19.609-1.446C214.96,34.891,217.162,34.583,219.266,35.366ZM191.725,58q3.238-.255,6.478-.512a8.594,8.594,0,0,0,1.611-.183c2.375-.666,4.585-3.748,4.1-5.658a4.343,4.343,0,0,0-5.2-2.9c-4.242.765-8.594,1.243-12.534,3.2-1.255.624-3.059,1.136-2.755,2.892.338,1.96,1.89,3,3.963,3.012,1.443.011,2.886,0,4.329,0ZM102.763,189.376l-.015.182c-.583,2.649-1.2,5.291-1.739,7.95s-.167,5.032,2.315,6.66a6.209,6.209,0,0,0,7.156-.079,31.938,31.938,0,0,0,8.268-7.785c5.615-7.112,8.485-15.5,11.137-23.983a24.1,24.1,0,0,0-.811-16.485c-1.671-4.255-4.05-6.1-8.551-6.1a8.241,8.241,0,0,0-4.686,1.14,19.261,19.261,0,0,0-9.154,16.367c-.035,1.056-.092,2.477,1.18,2.743,1.761.368,1.181-1.352,1.45-2.205.927-2.948,1.778-5.921,3.934-8.274,1-1.095,2.124-1.98,3.769-1.763,1.976.261,1.9,1.95,2.27,3.275,3.678,13.236-.578,24.586-8.525,34.965-1.008,1.316-2.4,3.58-4.279,2.611-1.775-.913-.722-3.274-.477-4.973.308-2.134,1.534-4.091,1.339-6.343-.233-2.691-2.027-3.882-4.535-2.926a11.389,11.389,0,0,0-5.349,4.463,1.922,1.922,0,0,0-.141,1.521c.2.558.844.488,1.4.423,1.405-.166,2.417-1.775,4.047-1.09Zm-63.48-13.921c1.228,1.725,2.865,3.229,4.905,2.9,2.351-.379,3.094-2.767,3.894-4.795.662-1.677-.595-2.682-1.3-3.907-5.125-8.912-7.69-18.331-5.553-28.65,1.175-5.673,2.355-11.346,3.594-17.006.453-2.069.889-3.993-1.877-4.8-.455-.132-.825-.651-1.175-1.045-2.319-2.614-2.41-2.672-4.064.3a61.484,61.484,0,0,0-7.563,29.63C29.617,158.444,33.464,167.27,39.283,175.455Zm19.735-30.98c.208-2.859-1.452-5.006-3.954-5.133-1.923-.1-4.144,2.746-3.4,5.188.778,2.541,1.38,5.135,2.238,7.645a2.319,2.319,0,0,0,2.085,1.491c1.271.069,1.766-.826,2.353-1.8,1.148-1.9.036-3.893.48-5.793C58.89,145.543,58.98,145.011,59.018,144.475Zm236.171-15.726c-.408-.8-.965-1.6-2.086-1.34-1.089.249-1.118,1.1-1.293,2.045a34.166,34.166,0,0,1-8.211,17.379c-3.294,3.6-6.419,7.388-9.36,11.287a26.873,26.873,0,0,0-5.727,16.636c.064,7.334,4.907,10.264,11.755,7.466,3.3-1.346,5.67-3.844,8.274-6.075,3.023-2.591,5.818-5.465,9.282-7.5.754-.443,1.6-1.241,2.47-.68.843.543.644,1.684.392,2.479a19.911,19.911,0,0,0-.951,7.513c.284,3.9,2.858,5.872,6.657,5.2,1.107-.195,1.677-.79.453-1.665-2.3-1.647-2.374-3.739-1.671-6.265a20.545,20.545,0,0,0,.743-5.914c-.138-5.742-3.65-8.034-8.579-5.462-4.7,2.455-8.821,5.69-13.1,8.732-1.686,1.2-3.588,3.538-5.378,2.272-1.035-.732.792-3.529,1.567-5.326,2.542-5.9,6.717-10.7,10.467-15.8,3.5-4.752,6.222-9.825,5.761-16.221A13.658,13.658,0,0,0,295.189,128.749Zm65.736-13.506c-.85-10.4-6.171-18.785-11.958-26.9-2.889-4.053-7.641-5.3-12.306-6.3a1.818,1.818,0,0,0-1.471.389c-.557.6-.263,1.322.22,1.927a10.954,10.954,0,0,0,1.353,1.7c5.16,4.293,7.972,10.174,11.16,15.877a41.753,41.753,0,0,1,5.242,15.846c.39,3.415.712,6.847,1.32,10.224.639,3.548.829,7.2,2.121,10.609.52,1.373,1.174,2.831,2.979,2.635,1.6-.174,2.458-1.342,2.894-2.865a14.382,14.382,0,0,0,.681-4.283C362.4,127.813,361.44,121.546,360.925,115.243Zm-20.615-6.611a9.452,9.452,0,0,0-1.4-2.921,2.874,2.874,0,0,0-5.1.966,28.637,28.637,0,0,0,2.324,15.349c.7,1.537,2.035,1.881,3.654,1.274,1.638-.614,3.012-1.359,2.629-4.377C341.848,116.1,341.153,112.349,340.31,108.632ZM222.543,402.365c-2.071.4-5.681-.043-5.511,2.855.129,2.212,3.619,1.883,5.621,1.977,11.677.544,22.831,3.735,34.11,6.34a15.194,15.194,0,0,1,7.433,4.1c4.721,4.562,8.446,9.934,12.729,14.844,1.325,1.518,2.829,3.318,5.02,1.895,2.337-1.517.937-3.553-.011-5.258-3-5.4-7.039-10.047-10.731-14.962-4.811-6.4-10.673-9.521-18.552-10.432-6.079-.7-12.1-2.194-18.673-2.81C230.435,401.337,226.441,401.607,222.543,402.365Zm26.586,38.447c.665-3.33-.591-4.7-3.883-4.192-5.627.876-9.7,4.552-13.914,7.9-1.264,1.006-.88,2.377.621,2.968a27.8,27.8,0,0,0,7.889,1.442C245.728,449.063,247.883,447.054,249.129,440.812ZM122.47,464.962c1.184,2.426,3.277,2.762,5.229.83a14.4,14.4,0,0,0,4.007-6.976c.668-2.816,1.512-5.6,1.96-8.457.524-3.337,2.411-5.348,5.2-7.024,4.548-2.727,9.62-4.188,14.341-6.449,1.634-.783,4.323-.489,4.691-3.06.208-1.448-2.5-1.835-6.307-1.082-7.716,1.526-14.763,4.808-21.808,8.121a5.36,5.36,0,0,0-2.832,2.432,97.616,97.616,0,0,0-5.758,17.734A27.233,27.233,0,0,0,122.47,464.962Zm36.379-54.032c3.243-1,5.4-3.421,7.056-6.212a3.358,3.358,0,0,0-.428-4.022c-1.176-1.348-2.53-1.053-3.868-.266-1.539.906-3.073,1.822-4.579,2.78a4.716,4.716,0,0,0-2.248,3.348C154.609,410.512,156.157,411.762,158.849,410.93Z"/></g></g></svg>