<svg xmlns="http://www.w3.org/2000/svg" viewBox="0 0 26 18"><g id="Page-1"><path d="M20.4 2.4c.6 1.3.6 1.9.6 2.5v1.4L21 8.9c1-.1 1.7 0 2.2.3l1.3.8a2.5 2.5 0 011 3.4 4.5 4.5 0 01-3.9 2.8c-1.9.2-2.4-.4-3-1-.2-.2-.3-.6-.3-.9 0-1 0-2 .2-3v-1l.1-1.1v-3c0-1 .2-2 .4-2.9.3-.5.5-.7.7-.8.3-.2.6-.2.8 0zm2 8.2c-.5-.3-1.1-.5-2.3 1.3 0 .8 0 1.6.8 3a6 6 0 001.2-.3c.4 0 .8-.2 1.1-.5l.7-1c.2-.5.2-.8.2-1.1-.1-.3-.3-.5-.7-.8l-1-.6z" id="Shape" fill-rule="nonzero"/><g id="scontent" transform="translate(6.2 6)" fill-rule="nonzero"><path d="M5.7.4c.2.1.4.4.6.8a17.8 17.8 0 011 3.4l.4 1.3c.2.5.5.9 1 1.1.6-.2.7-.3.7-.4l.7-.8c1.5 1.6 1 2.6.4 3.4a2.3 2.3 0 01-2.6.4c-.6-.3-1-.7-1.5-1.2L5 9.4a3 3 0 01-2.9.1C1.1 9 .3 8 .2 6.7v-1A6 6 0 013.6.7C4 .4 4.3.2 4.7.2c.5 0 .8 0 1 .2zM4.1 1.6l-1 1a4.7 4.7 0 00-1 4.6 1.2 1.2 0 001.2.8A2 2 0 005 6.5c.3-.7.4-1.5.4-2.3v-.8c-.2-.6-.3-1.1-1.4-1.8z" id="Shape"/></g><path d="M-2 8.9l-2.6.3-.7.3.2.8c.2.4.6.4.9.4h1.7l.9-.3h4.3L4 10l4.8-.3 1.2-.3h.6c.3-.1.2 0 .5-.3.4-.3.2-1-.1-1.2-.1-.2-.7 0-.9 0H6.8l-2.5.4-1.5.2c-.4 0-1.9.3-2 .2h-2.9z" id="Path" transform="scale(-1 1) rotate(84 0 6)"/></g></svg>