<svg xmlns="http://www.w3.org/2000/svg" viewBox="0 0 442.011 364.906"><title>space</title><g id="Layer_2" data-name="Layer 2"><g id="Untitled_Artwork_6_Image" data-name="Untitled_Artwork 6 Image"><path d="M258.607,233.845c-.488,10.7-1.192,21.392-4.869,31.559-3.631,10.041-9.778,18.453-17.618,25.679A91.17,91.17,0,0,1,208.637,308.2c-5.508,2.271-10.9,4.842-16.245,7.487-16.657,8.246-33.881,8.657-51.5,3.916-6.124-1.648-12.011-3.8-17.265-7.566-4.413-3.167-9.2-5.81-13.671-8.9-4.493-3.107-8.7-6.672-11.511-11.416-6.894-11.631-12.184-23.972-13.14-37.6-1.459-20.781,4.795-39.314,17.614-55.679a53.886,53.886,0,0,0,5.064-7.684c6.1-11.3,14.341-20.477,26.56-25.422a35.5,35.5,0,0,1,13.707-3,9.366,9.366,0,0,0,5.557-1.623,19.321,19.321,0,0,1,10.294-2.959,151.221,151.221,0,0,1,25.52,1.268,31.285,31.285,0,0,1,12.291,4.12c2.859,1.736,6.09,2.323,9.167,3.322a43.232,43.232,0,0,1,15.447,8.856,162.471,162.471,0,0,1,22.388,23.635c6.03,7.971,9.043,17.273,9.666,27.275C258.741,228.754,258.607,231.3,258.607,233.845ZM132.473,173.4c-6.884,1.153-9.865,6.155-11.909,12.081-.337-.167-.51-.09-.5.231a.664.664,0,0,0,.276.021c.713-.143-.319.207.127-.367a6.64,6.64,0,0,0,5.683-2.333,29.252,29.252,0,0,0,6.345-9.607.926.926,0,0,0,1.213-.463c.187-.3-.051-.562-.46-.5C132.752,172.541,132.321,172.75,132.473,173.4Zm36.769,49.639c3.422-.16,6.863-.328,10.305-.48a12.883,12.883,0,0,0,7.067-2.516,67.322,67.322,0,0,0,7.133-5.838c3.536-3.365,7.173-6.641,10.95-9.731,5.693-4.658,12.52-6.364,19.69-6.889,1.639-.12,3.872,1.962,4.766.08.717-1.51-1.761-2.894-2.887-4.224-3.377-3.987-6.547-8.14-11.942-9.917a60.948,60.948,0,0,1-14.085-7.029,26.659,26.659,0,0,0-20.325-3.89c-11.295,2.416-21.86,6.81-26.944,18.637a15.645,15.645,0,0,1-.967,1.95c-2.917,4.808-5.976,9.442-10.482,13.048a11.458,11.458,0,0,1-10.1,2.6,44.2,44.2,0,0,0-7-.945c-4.785-.2-9.457.327-13.275,3.674-2.45,2.147-4.736,4.487-7.241,6.563a14.623,14.623,0,0,0-4.817,8.316c-.619,2.645-1.077,5.329-1.569,8-.126.683-.5,1.536.2,2.025s1.325-.105,1.833-.6c4.674-4.554,10.573-6.859,16.5-9.223,15.18-6.06,30.6-8.745,46.738-4.232A13.041,13.041,0,0,0,169.242,223.041Zm-32.815,29.944c-4.617-.076-8.356-.092-12.121,1.01-4.063,1.189-7.364,3.882-11.308,5.161-4.753,1.542-7.729,5.164-10.871,8.659a3.9,3.9,0,0,0-.91,4.481c1.906,4.5,3.416,9.178,6.162,13.281,1.3,1.942,1.829,2.008,2.857-.023,2.761-5.455,6.995-9.666,11.329-13.794a20.412,20.412,0,0,1,20.253-4.806,176.717,176.717,0,0,1,21.045,7.138,25.943,25.943,0,0,0,17.569,1.061,41.842,41.842,0,0,0,13.438-6.977c8.971-6.75,18.339-12.979,26.6-20.641a14.775,14.775,0,0,1,7.224-3.5,30.522,30.522,0,0,1,13.468-.373c.885.2,1.87.392,2.234-.778a15.091,15.091,0,0,0,.44-6.478c-.208-1.561-2-1.284-3.056-1.846-8.539-4.545-9.056-10.159-1.041-15.4,2.212-1.447,2.466-2.466,1.663-4.679-1.861-5.128-2.927-5.654-7.166-2.459a155.393,155.393,0,0,0-31.783,31.735c-9.114,12.357-20.631,18.941-36.1,18.205a12.166,12.166,0,0,1-6.135-1.864C152.719,255.365,144.7,252.29,136.427,252.985Zm26.531,56.83A58.38,58.38,0,0,0,179.6,307.57a14.6,14.6,0,0,0,9.331-6.94c3.214-5.671,8.074-9.683,12.59-14.122,8.058-7.921,17.573-12.07,28.88-11.651a5.719,5.719,0,0,0,5.723-3.256,51.249,51.249,0,0,0,6.577-19.965c.231-2.474-.755-3.664-3.051-4.286-6.223-1.683-12.059-1.179-16.419,3.944a234.444,234.444,0,0,1-21.38,21.586c-5.106,4.628-10.271,9.082-16.372,12.357-7.775,4.174-15.946,5.095-23.82,1.123a104.8,104.8,0,0,1-18.837-11.791c-3.781-3.057-7.726-3.4-12.112-1.272-7.434,3.608-12.685,9.491-17.324,16.072-.82,1.163-.363,2.065.66,2.729q3.192,2.071,6.457,4.033c2.91,1.751,2.922,1.729,4.928-.86,1.219-1.573,2.4-3.183,4.475-3.747,3.489-.951,6.965-1.953,10.463-2.867a8.111,8.111,0,0,1,8.024,2.161,27.657,27.657,0,0,1,4.671,5.241c2.3,3.629,3.61,7.114.656,11.011-.947,1.248-.192,2.1,1.091,2.232C157.519,309.573,160.243,309.656,162.958,309.815ZM134.324,202.808c3.895-.012,5.59-2.683,6.742-5.559,1.814-4.531,3.258-9.21,4.85-13.829a25.388,25.388,0,0,1,5.527-9.22,49.035,49.035,0,0,1,8.373-6.849,5.227,5.227,0,0,0,.96-1.224,5.277,5.277,0,0,0-1.591-.188c-2.478.479-4.921,1.361-7.412,1.513-7.042.429-10.449,4.919-12.776,10.8-.333.841-.646,1.692-1.011,2.52-2.971,6.724-7.5,11.363-15.346,11.878a49.47,49.47,0,0,0-6.895,1.4,3.938,3.938,0,0,0-2.683,1.721c-2.551,4.377-5.736,8.373-7.841,13.014-.192.424-.755.988-.171,1.372.51.335.948-.2,1.268-.622,6.5-8.605,15.327-9.356,24.954-7.4C132.335,202.345,133.39,202.6,134.324,202.808ZM205.625,296c.337-.129.68-.245,1.009-.391a66.66,66.66,0,0,0,17.684-11.2c1.44-1.291,4.3-2.939,3.579-4.275-.859-1.6-3.361.468-5.186.737a15.205,15.205,0,0,0-7.231,3.526,83.706,83.706,0,0,0-10.279,10.37,1.484,1.484,0,0,0-.452.951C204.8,296.13,205.219,296.208,205.625,296Zm-71.167,7.734a1.985,1.985,0,0,0,.418.3c3.535,1.324,7.1,2.747,10.864,2.974,2.359.143,4.363-3.654,3.695-6.157-.751-2.815-2.238-3.714-5.345-2.512a99.176,99.176,0,0,0-9.151,4.491C134.689,302.956,134.613,303.425,134.458,303.735Zm109.365-78.324a19.34,19.34,0,0,0-.17-2.118c-.119-.648-.056-1.467-.961-1.681a1.874,1.874,0,0,0-1.835.777,11.232,11.232,0,0,0-1.323,1.647,1.744,1.744,0,0,0,.3,2.4c.938.755,1.916,1.9,3.2,1.632C244.488,227.761,243.7,226.357,243.823,225.411ZM1.462,127.926c-.508-12.291,4.763-21.678,13-29.719a12.586,12.586,0,0,1,3.169-2.043c1.05-.53,2.688.267,3.27-1.341.406-1.12-.366-2.093-.579-3.139a48.162,48.162,0,0,1,1-23.04,19.939,19.939,0,0,0,1.223-4.722c.185-8.5,5.193-14.161,11.374-18.843,3.745-2.837,7.82-5.206,11.2-8.574a16.094,16.094,0,0,1,4.995-3.252c9.549-4.062,19.321-7.317,29.878-7.289,1.088,0,2.182.145,3.264.077,2.825-.178,5.257,2.579,7.716,1.826,2.427-.742,4.266-3.155,6.636-4.563,12.9-7.665,28.8-2.107,35.888,5.883A29.228,29.228,0,0,1,141.023,47.4c.163,3.526-1.512,7.011-3.223,10.258a75.166,75.166,0,0,1-8.206,12.775,5.517,5.517,0,0,0-1.133,4.89c1.159,8.259,1.39,16.4-1.512,24.614-4.147,11.733-12,20.493-20.8,28.7a62.674,62.674,0,0,0-4.693,4.521C92.728,143.167,76.178,147.494,63.839,143a19.467,19.467,0,0,1-8.081-5.338c-1.655-1.86-3.256-1.8-5.176-.512-3.01,2.02-6.154,3.845-9.115,5.932a33.723,33.723,0,0,1-26.3,5.855C9.689,147.923,5.537,143.869,3.27,138.7,1.762,135.255.773,131.475,1.462,127.926ZM106.383,97.141c-1.745-.613-2.574.964-3.756,1.635-.782.444-1.525,1.3-.622,2.187,1,.978,1.765,2.563,3.309,2.544,1.215-.015.8-1.367.85-2.19.08-1.424.732-2.839.1-4.279.624-.373.206.626.408-.073a.627.627,0,0,0-.005-.314C106.309,96.592,106.212,96.765,106.383,97.141ZM43.051,48.086c-6.086,2.661-6.393,3.688-2.6,8.826a1.413,1.413,0,0,0,.824.584c.679.068.833-.575.9-1.035.4-2.819,1.455-5.584.76-8.5l.308-.107Zm46.276-2.06c.017-.369.046-1.273.1-2.176.251-4-.132-4.621-3.55-6.289a19.973,19.973,0,0,0-7.387-1.679c-3.759-.286-4.459.312-4.722,4.12q-.467,6.78-.581,13.583a11.691,11.691,0,0,1-2.744,7.463c-1.153,1.4-2.62,1.253-3.521-.342a29.294,29.294,0,0,1-3.289-9.712,23.071,23.071,0,0,0-4.089-10.541c-.89-1.16-1.652-2.623-3.44-1.808-1.851.844-4.458.579-5.083,3.353-1.151,5.107-3.036,10.032-3.431,15.33-.324,4.335-1.088,8.635-1.474,12.967a33,33,0,0,1-1.827,7.342,1.723,1.723,0,0,1-1.558,1.328c-.762-.012-1.182-.689-1.455-1.384-2.053-5.212-3.179-10.766-5.722-15.79-.845-1.67.013-4.78-2.079-4.895-1.633-.09-2.335,2.907-3.318,4.558a23.037,23.037,0,0,0-3.382,14.035,5.706,5.706,0,0,0,3.266,5.158c1.914.989,3.971,1.81,5.49,3.471.946,1.034.876,1.956-.247,2.691a16.365,16.365,0,0,1-2.895,1.483c-1.639.652-1.649,1.76-.934,3.045,2.909,5.23,5.734,10.522,9.613,15.128,1.78,2.114,3.78,1.93,5.277-.336a6.551,6.551,0,0,0,.866-3.105c.38-3.779.758-7.559,1.2-11.33.862-7.313,3.851-13.92,7-20.446.948-1.964,3.194-1.854,4.272.042a3.686,3.686,0,0,1,.444,1.545c.255,4.031,1.743,7.766,2.783,11.6.5,1.823.088,4.685,1.888,5.165,1.74.463,3.172-2.01,4.742-3.192a8.62,8.62,0,0,0,2.868-4.5c2.908-8.951,6.414-17.732,7.79-27.125a8.867,8.867,0,0,1,.6-2.082c.733-1.765,2.022-2.021,3.32-.7,1.445,1.475,2.045,3.422,2.759,5.263a29.5,29.5,0,0,0,4.05,7.04c.971,1.294,1.915,1.508,3.081.318,2.539-2.592,5.05-5.212,7.64-7.751,1.182-1.158,1.086-2.11-.039-3.189a24.624,24.624,0,0,1-1.8-2.039c-2.166-2.59-2.153-2.585-4.422.265a9.511,9.511,0,0,1-1.507,1.547c-1.959,1.546-4.05.936-4.5-1.509A35.973,35.973,0,0,1,89.327,46.026ZM21.78,141.535a33.188,33.188,0,0,0,5.006-.9,48.861,48.861,0,0,0,11.879-5.309c4.235-2.78,8.465-5.571,12.773-8.235,5.254-3.247,10.464-6.622,14.865-10.927C73.819,108.813,82.618,102.936,89.8,95.2c5.045-5.437,10.88-10.079,15.863-15.625,4.478-4.983,8.17-10.638,13.181-15.155a37.228,37.228,0,0,0,12.081-21.248c1.06-5.383-.751-8.647-3.929-12.048a1.331,1.331,0,0,0-1.422-.536c-.6.2-.631.791-.616,1.314.062,2.193.073,4.42-1.053,6.363-3.792,6.543-7.025,13.415-13.041,18.486A145.165,145.165,0,0,0,94.432,72.511,96.048,96.048,0,0,1,83.813,82.639c-2.486,2.116-4.689,4.581-7.213,6.533-4.478,3.463-8.052,7.664-11.7,11.868a14.574,14.574,0,0,1-2.654,1.876c-2.209,1.586-4.365,3.251-6.618,4.771-7.313,4.935-12.742,12.3-20.911,16.143a16.586,16.586,0,0,0-5.068,3.117c-4.155,4.4-9.888,5.768-14.993,8.337-1.072.539-2.983.213-3.107,1.59-.111,1.236,1.6,1.877,2.648,2.477A17.771,17.771,0,0,0,21.78,141.535Zm94.411-49.659c-.031,5.719-1.522,10.758-2.844,15.827a7.216,7.216,0,0,1-1.388,2.905c-2.587,3.116-5.09,3.325-7.56.217a52.8,52.8,0,0,1-4.029-6.45c-.891-1.532-1.656-2.139-3.3-.667-2.949,2.645-6.88,4.561-8.926,7.734-1.7,2.64-1.288,6.645-1.812,10.045-.166,1.075-.284,2.16-.517,3.221A9.327,9.327,0,0,1,85,127.263c-1.929,3.439-4.992,3.706-7.329.509a28.83,28.83,0,0,1-2.733-5.284c-.495-1.1-1.046-1.356-1.957-.553a85.815,85.815,0,0,1-11.353,8.4c-1.737,1.082-1.636,2.025.2,3.116A12.786,12.786,0,0,0,69.1,135.18c7.179-.284,13.727-3.2,20.607-4.7,1.884-.413,2.3-1.705,2.471-3.609.335-3.765.89-7.562,2.78-10.971,1.694-3.055,3.4-3.328,5.911-.848A28.03,28.03,0,0,1,103.25,118c1.757,2.283,1.764,2.3,4,.272a59.274,59.274,0,0,0,5.143-4.855c7.073-8.19,10.77-17.492,8.888-28.491-.232-1.353-.956-1.9-2.206-.813C116.558,86.293,115.3,88.908,116.191,91.876ZM34.362,115.53c-.5-.978-.943-1.954-1.471-2.886-2.877-5.081-2.886-5.08-7.183-1.231-1.612,1.444-3.262,2.85-4.8,4.364a29.37,29.37,0,0,0-6.649,10.453c-.387.984-1.235,2.134-.128,2.941.959.7,2.085-.152,2.961-.68,4.031-2.426,8.079-4.836,11.972-7.471a31.157,31.157,0,0,0,4.281-4.138A13.115,13.115,0,0,0,34.362,115.53Zm82.06-82.79a2.734,2.734,0,0,0-.538.049c-4.294,1.268-8.6,2.489-12.866,3.855-1,.322-1.172,1.339-.485,2.2,1.932,2.437,2.973,5.339,4.264,8.1.756,1.62,1.79,1.528,2.926.657,3.82-2.933,6.138-7,8.214-11.216a5.052,5.052,0,0,0,.315-1.583C118.422,33.445,117.723,32.821,116.422,32.74Zm-28.6,36.876c-1.424-1.838-2.977-4.013-4.739-6-.477-.539-.677.4-.833.83-1.647,4.539-3.3,9.076-4.924,13.624a1.141,1.141,0,0,0,.084.973c.468.465.932.016,1.3-.254A59.189,59.189,0,0,0,86.865,71.8,2.408,2.408,0,0,0,87.823,69.616ZM55.438,90.789c-.213.239-.536.448-.632.733q-1.349,4.038-2.611,8.1c-.091.3.086.675.138,1.015.458-.113,1.026-.091,1.354-.361,1.372-1.13,2.651-2.371,4-3.525.965-.823,1.218-1.478.148-2.529a13.071,13.071,0,0,1-1.562-2.758C56.115,91.2,55.762,91.044,55.438,90.789ZM65.689,43.6c.17-.3.467-.589.486-.9.076-1.255,0-2.521.1-3.771.256-2.976-.157-3.3-2.907-2.193-1.148.462-1.938,1.058-1.128,2.385.848,1.39,1.765,2.738,2.623,4.123C65.114,43.65,65.34,43.8,65.689,43.6Zm13.873,77.314c1.349-.787,1.166-2.134,1.357-3.283a.684.684,0,0,0-.95-.789c-1.236.563-1.969,1.506-1.4,2.931C78.745,120.219,79.225,120.542,79.562,120.916ZM93.949,47.369a2.611,2.611,0,0,0,1.167-2.185.91.91,0,0,0-1.075-.924c-1.262.181-1.074,1.2-1,2.077C93.086,46.817,93.119,47.4,93.949,47.369ZM29.608,84.891l.872-.379c-.117-.121-.222-.328-.352-.345a4.232,4.232,0,0,0-.852.046C29.386,84.439,29.5,84.665,29.608,84.891Zm67.179,39.9.342.236.047-.382ZM403.122,252.679c.092-9.343-2.149-18.807-4.668-28.314-4.328-16.328-12.784-30.622-20.874-45.176a160.23,160.23,0,0,0-19.287-26.838,186.368,186.368,0,0,0-24.184-23.421c-9.613-7.722-19.4-15.194-30.219-21.24-11.248-6.285-22.656-12.206-34.758-16.671-3.563-1.314-7.291-2.173-10.922-3.311a9.035,9.035,0,0,1-3.912-1.8,1.245,1.245,0,0,1-.307-.953c.045-.27.385-.683.615-.7a23.983,23.983,0,0,1,3.217.008c11.777.889,22.695,4.963,33.2,9.873a294.82,294.82,0,0,1,51.643,31.131,185.627,185.627,0,0,1,34.751,33.508,151.164,151.164,0,0,1,19.123,32.15q2.329,5.216,4.931,10.308c3.731,7.32,6.011,15.156,8.447,22.952a136.518,136.518,0,0,1,6.1,42.87c-.109,8.067-2.847,15.259-7.375,21.833a8.184,8.184,0,0,1-1.785,2.034c-8.523,6.167-17.992,9.4-28.541,8.08a25.992,25.992,0,0,1-18.342-11.555,177.707,177.707,0,0,1-16.394-28.561c-1.23-2.8-3.088-5.316-4.546-8.023a99.74,99.74,0,0,1-7.56-17.978,40.034,40.034,0,0,0-3.638-7.871c-6.8-11.942-13.9-23.722-20.5-35.77-3.706-6.758-9.2-12.053-13.572-18.24-.343-.484-.725-.879-1.293-.774-.647.12-.571.761-.617,1.26-.281,3.1.43,6.107.933,9.129.48,2.88-.025,3.971-2.244,5.255-2.135,1.234-3.755.551-5.3-1.062-3.272-3.421-6.406-6.962-8.445-11.276-.885-1.873-1.691-1.472-2.7-.3-1.772,2.066-3.412,4.253-5.285,6.22-1.36,1.427-2.9,2.918-5.215,1.716-2.019-1.047-2.776-2.809-2.237-5.556a25.792,25.792,0,0,1,2.857-7.03,3.089,3.089,0,0,0-.384-3.942c-2.208-2.454-3.32-5.6-4.739-8.537-.631-1.306-1.535-2.605-.328-4.014,1.259-1.47,2.844-1.295,4.5-.778,2.251.7,4.5,1.479,6.8,1.958,1.621.337,3.586,1.606,4.838-.7,1.22-2.244-.706-3.322-1.929-4.524a164.9,164.9,0,0,0-23.841-18.92,13.5,13.5,0,0,1-3.8-3.031c-.4-.561-1.1-1.2-.425-1.873a3.045,3.045,0,0,1,1.882-.868c1.868-.035,3.461.9,5.066,1.757a175.49,175.49,0,0,1,24.579,16.028c1.631,1.262,2.77,2.5,5.038.789,1.7-1.284,3.52-.17,4.544,1.6a10.8,10.8,0,0,1,1.386,3.513c.815,4.859,4.02,7.488,8.275,9.165,1.755.692,3.532,1.511,3.88,3.462.493,2.754,2.417,4.437,4.137,6.226,5.937,6.173,10.769,13.09,15.465,20.263,6.56,10.022,11.707,20.854,18.486,30.728A36.836,36.836,0,0,1,342.5,226.6c2.239,7.2,6.193,13.465,9.7,20.009,4.882,9.11,9.76,18.216,14.955,27.153,2.856,4.913,7.148,8.1,12.1,10.558a8.9,8.9,0,0,0,6.891.334c7.567-2.391,12.789-7.242,15.353-14.787C403.33,264.461,403.391,258.851,403.122,252.679ZM275.705,169.052a3.721,3.721,0,0,1,2.732,1.035c1.79,1.519,3.562,3.06,5.39,4.532.959.771,1.605.559,1.652-.782.019-.535.109-1.069.1-1.6-.029-3.429-.363-6.871,4.244-8.042,1.138-.289.78-2.091-.492-2.408-3.784-.944-6.225-2.748-5.7-7.106.042-.348-.581-.832-.984-1.134-.093-.069-.621.3-.833.555-1.823,2.232-3.506,4.591-5.452,6.709-2.834,3.086-4.744,3.347-8.548,1.5-.481-.234-1.045-.758-1.4-.327-.565.683.238,1.376.641,1.638,3.531,2.293,4.138,5.116,1.817,8.613a3.369,3.369,0,0,0-.333,1.029c-.123.479-.382,1.066.293,1.279.239.076.671-.222.921-.452,1.329-1.223,2.594-2.516,3.951-3.705A15.572,15.572,0,0,1,275.705,169.052Zm114.807,84.087c.557,2.745-1.571,5.426-3.4,7.933-2.327,3.187-9.441,2.653-11.437-1.1-4.769-8.965-12.312-16.235-15.7-26.008a1.837,1.837,0,0,0-.259-.479c-8.445-11.393-13.343-24.846-21.513-36.479a290.333,290.333,0,0,1-17.677-28.059c-5.385-9.908-12.952-18.3-20.53-26.589-11.478-12.549-25.273-22.284-39.208-31.827-1.2-.82-2.391-1.648-3.6-2.457-.437-.293-.98-.567-.388-1.129a1.456,1.456,0,0,1,1-.247c1.338.1,2.3,1.023,3.392,1.645,5.043,2.867,10.107,5.7,15.119,8.618a116.059,116.059,0,0,1,19.227,14.1c4.971,4.471,10.233,8.591,14.955,13.37a95.833,95.833,0,0,1,16.834,22.523c5.009,9.429,10.747,18.485,16.432,27.537,3.874,6.17,7.51,12.4,9.973,19.292a48.658,48.658,0,0,0,3.519,7.345c1.526,2.717,1.767,2.657,3.729.43a66.584,66.584,0,0,1,5.153-5.6c2.459-2.214,2.678-2.19.766-4.69a85.089,85.089,0,0,1-10.732-18.2,63.95,63.95,0,0,0-7.393-12,13.81,13.81,0,0,1-1.333-1.7c-3.127-6.222-7.707-11.375-12.053-16.723-6.616-8.141-12.882-16.561-20-24.3a94.878,94.878,0,0,0-11.686-11.345,18.352,18.352,0,0,1-2.553-2.02,3.472,3.472,0,0,1-.57-4.07c.91-1.511,2.641-1.1,3.892-.327,2.768,1.708,5.668,3.237,8,5.592,8.04,8.1,15.918,16.351,23.121,25.228a77.492,77.492,0,0,0,7.03,7.564,100.783,100.783,0,0,1,18.634,23.318c5.82,10.243,12.041,20.263,17.643,30.622,6.281,11.614,9.176,24.377,11.58,37.246A20.989,20.989,0,0,1,390.512,253.139Zm-8.329-8.257c.421-6.684-2.121-12.455-5.728-17.8-1.7-2.514-3-5.415-5.893-7-1.083-.593-1.824-.814-2.859.093-4.377,3.836-5.4,8.1-2.695,13.164,3.8,7.1,9.954,12.426,14.652,18.861.538.737,1.265.5,1.614-.342C382.2,249.617,382.069,247.227,382.183,244.882ZM59.374,322.846a5.872,5.872,0,0,0-.482-4.234c-3.753-8.563-5.189-17.732-6.831-26.816-.969-5.358-2.779-10.532-3.256-15.992a45.8,45.8,0,0,1-.009-9.24,1.889,1.889,0,0,1,.812-1.288c.907-.484,1.121.583,1.612.98.979.792.624,1.993.791,3.038.628,3.937,1.3,7.866,1.918,11.8a27.713,27.713,0,0,0,2.818,8.782c7.209,13.44,10.071,28.321,14.3,42.731,1.367,4.655,1.346,9.675,1.151,14.57a8.516,8.516,0,0,1-3.145,6.68c-2.129,1.695-4.154,3.523-6.231,5.285a2.951,2.951,0,0,1-.9.613c-7.35,2.406-14.848,3.4-22.314.935-3.517-1.16-6.01-4.024-7.6-7.435-5.753-12.321-11.856-24.507-13.994-38.166-1.375-8.778-3.01-17.516-4.315-26.3a60.017,60.017,0,0,1-.2-8.7c0-.439.029-1.215.867-1.029a1.2,1.2,0,0,1,.776.6,31.1,31.1,0,0,1,1.487,4.64,331.352,331.352,0,0,0,10.759,41.019c2.168,6.682,2.424,6.629,7.445,2.221,2.357-2.071,2.943-3.765,2.182-6.962-2.18-9.16-4.238-18.392-4.738-27.851-.105-1.986-1.325-5.057,1.355-5.561,2.263-.425,2.188,2.842,2.985,4.54,3.96,8.441,5.742,17.491,7.229,26.607.254,1.555.491,3.287,2.417,2.75,4.71-1.313,8.886.573,13.215,1.679q-.041.631.249.217ZM47.092,355.552c5.088-.235,10.086-1,14.607-3.453,5.28-2.867,6.215-5.364,4.457-11.135-.629-2.067-1.471-4.07-2.25-6.09-2.613-6.77-10.868-10.519-17.28-7.516a29.931,29.931,0,0,0-10.386,8.526c-1,1.23-1.7,2.687-.673,4.452,2.011,3.458,3.025,7.308,4.157,11.118,1.2,4.047,1.3,4.018,5.742,4.1C46.008,355.561,46.55,355.552,47.092,355.552ZM36.028,197.6a8.274,8.274,0,0,1,1.981.467,81.271,81.271,0,0,1,9.557,5.049c3.572,2.439,6.741,5.457,11.307,6.01a4.289,4.289,0,0,1,3.023,2.125,3.164,3.164,0,0,1-1.311,4.949,4.089,4.089,0,0,1-1.535.525c-6.356.3-11.19,3.783-15.931,7.5A17.787,17.787,0,0,1,36.5,227.87c-.52.128-1.353.179-1.487.5-1.986,4.749-4.656,1.875-6.719.389-5.443-3.921-11.855-6.17-17.1-10.465-3.66-3-6.8-6.518-10.46-9.477-1.391-1.123-.54-1.878.508-2.334a18.862,18.862,0,0,1,4.12-1.32c9.623-1.741,19.212-3.6,28.458-6.893C34.495,198.024,35.2,197.849,36.028,197.6Zm-.5,6.42a3.708,3.708,0,0,0-1.151.24c-5.152,3.323-10.969,4.633-16.889,5.654-.662.114-1.646.247-1.556,1.081.062.576.752,1.2,1.308,1.587,2.963,2.082,5.98,4.086,8.963,6.14,1.695,1.168,2.595,4,5.051,3.4,2.024-.5,3.859-1.942,5.646-3.159a35.653,35.653,0,0,0,3.2-2.941c1.764-1.551,3.567-3.059,5.353-4.585-1.557-1.923-4.156-2.319-5.876-4.014-.9-.89-1.851-1.737-2.81-2.568A10.994,10.994,0,0,0,35.527,204.022ZM380.032,102.069c1.209-4.831.847-9.863.372-14.925-.445-4.748-1.192-9.341-4.315-13.183-1.677-2.064-1.076-3.943.305-5.889a139.809,139.809,0,0,0,8.412-13.318,21.178,21.178,0,0,0,2.921-12.485,45.153,45.153,0,0,1,.548-9.744c.13-1.065.223-2.18,1.252-2.871,1.185-.8,2.52-2.405,3.516-2.216,1.682.32.794,2.408.93,3.682.81,7.577,1.822,15.058,4.9,22.162,1.573,3.628,3.016,7.406,3.068,11.481a4.219,4.219,0,0,0,1.214,2.931c1.621,1.7,1.914,3.6.413,5.327-7.555,8.695-12.233,19.2-18.324,28.816-.388.611-.732,1.25-1.124,1.859-.691,1.074-1.406,2.356-2.937,1.817S380.134,103.45,380.032,102.069Zm15.075-30.856c-1.512-5-2.83-9.7-4.392-14.311-.453-1.338-1.444-.514-1.944.242-2.6,3.922-5.121,7.889-7.726,11.8a2.309,2.309,0,0,0-.181,2.939c2.849,4.218,3.591,9.007,3.642,13.97,0,.339.056.894.245.976.6.257,1.07-.2,1.292-.67A76.072,76.072,0,0,1,394.272,72.8,9.044,9.044,0,0,0,395.107,71.213ZM301.173,329.447c-3.007-3.958-7.315-5.056-11.937-5.5-3.754-.358-3.772-.366-3.974-4.184q-.286-5.427-.5-10.859c-.084-2.141-.709-4.155-2.905-4.71-2.4-.606-3.509,1.352-4.435,3.18a14.371,14.371,0,0,0-.777,2.031c-.959,2.923-2.076,5.809-2.8,8.79-.791,3.255-2.246,5.462-5.787,6.25a23.032,23.032,0,0,0-5.9,2.7c-3.667,2.043-2.22,5.447.214,6.874a9.386,9.386,0,0,0,4.084,1.337c3.419.174,4.515,1.95,4.96,5.158a36.693,36.693,0,0,0,2.472,9.987c1.211,2.72,2.569,3.044,4.95,1.259a5.14,5.14,0,0,0,2.144-3.57,50.466,50.466,0,0,1,1.909-7.319c1.131-3.548,1.194-3.538,4.807-3.538a32.091,32.091,0,0,0,10.163-1.4c2.386-.784,3.014-2.966,4.269-4.523A2.847,2.847,0,0,0,301.173,329.447ZM198.321,90.314c3.171-.058,6.179.449,8.75,2.4,4.228,3.2,4.448,8.052.436,11.54a20.218,20.218,0,0,1-4.585,2.824c-8.641,4.122-17.281,8.25-26,12.2a35.238,35.238,0,0,1-11.074,2.474c-2.458.25-4.7-.117-6.047-2.6s-1.077-4.477.656-6.929a59,59,0,0,1,12.931-13.768C180.784,92.975,189.438,91.268,198.321,90.314Zm-31.679,27.474a20.5,20.5,0,0,0,8.031-1.477c9.052-3.644,18.028-7.475,27.008-11.294a15.714,15.714,0,0,0,3.215-2.007c1.054-.8,1.848-1.863,1.222-3.26a2.544,2.544,0,0,0-2.668-1.488,49.534,49.534,0,0,0-5.915.612c-11.959,2.417-22.246,8.294-31.842,15.566-.868.657-1.9,1.326-1.37,2.6C164.748,118.061,165.863,117.656,166.642,117.788ZM424.986,223.593c-2.474-8.9-5.027-17.777-7.367-26.711a36.847,36.847,0,0,0-4.028-10.028c-4.133-6.768-10.093-12.287-13.424-19.609-.124-.274-.577-.4-.877-.591-.1.29-.354.625-.282.863,1.559,5.168,1.9,10.669,4.794,15.482a49.14,49.14,0,0,1,6.8,18.214,87.187,87.187,0,0,0,2.952,11.548c3.091,10.6,5.943,21.27,6.875,32.334a12.553,12.553,0,0,0,.92,4.222,1.868,1.868,0,0,0,3.094.85,5.137,5.137,0,0,0,2.4-3.487c.311-2.15.546-4.312.793-6.306C426.976,234.637,426.5,229.032,424.986,223.593ZM211.071,35.957a37.621,37.621,0,0,1-.729,5.23c-1.232,4.874-4.843,5.933-8.284,2.221-5.051-5.448-9.677-11.268-12.62-18.21a49.444,49.444,0,0,0-5.688-10.424c-3.733-5.023-2.858-9.359,2.065-13.163a6.266,6.266,0,0,1,7.091-.887c7.455,3.729,12.759,9.44,14.971,17.542C209.347,23.652,211.235,29.006,211.071,35.957Zm-6.762-.209c-1.062-10.931-5.331-20.2-13.9-27.268A5.393,5.393,0,0,0,189,7.673a2.133,2.133,0,0,0-2.068-.087,1.891,1.891,0,0,0-.679,2.4c.894,2.369,1.966,4.67,2.882,7.031C192,24.4,196.665,30.6,201.869,36.446c.471.529.976,1.2,1.772,1.037C204.653,37.278,204.124,36.335,204.309,35.748ZM386.236,317.282a57.968,57.968,0,0,1,8.276-4.056c7.4-2.957,12.383-9.331,19.056-13.3a.99.99,0,0,0,.321-.9,1.025,1.025,0,0,0-.849-.435,14.335,14.335,0,0,0-7.054,2.469c-6.229,4.173-13.191,6.685-20.383,8.6a10.735,10.735,0,0,1-4.259.652c-6.571-1.093-13.351-1.55-19.218-5.217-4.6-2.875-9.135-5.859-13.739-8.73-.963-.6-1.761-2.42-3.072-1.336-1.048.866-.279,2.413.214,3.537a22.935,22.935,0,0,0,1.95,3.251c4.473,6.822,11.212,11.211,17.486,16.061,2.477,1.915,5.791,1.88,8.548,2.651C377.907,319.51,382.341,319.616,386.236,317.282Zm-69.224-80.495A11.113,11.113,0,0,0,316,234.272c-3.843-7.365-6.881-15.127-11.084-22.319a41.14,41.14,0,0,0-4.894-7.149c-.325-.356-.975-.77-1.337-.668-.98.277-.614,1.075-.352,1.724,2.654,6.584,3.858,13.567,5.722,20.371,1.62,5.913,3.068,11.933,5.947,17.44a46.022,46.022,0,0,0,9.025,12.156,4.473,4.473,0,0,0,1.432.594l.273-1.262C318.5,249.4,318.478,242.949,317.012,236.787Zm55.508-106.97a29.208,29.208,0,0,0-6.622-6.373c-3.6-2.716-7.351-5.279-9.663-9.379a33.225,33.225,0,0,0-14.422-13.533c-5-2.516-10.133-4.809-14.631-8.253a17.317,17.317,0,0,0-3.9-1.836,1,1,0,0,0-1.376.364c-.1.209.134.717.363.929,3.184,2.947,5.632,6.6,9.172,9.225,7.694,5.711,15.566,11.187,22.407,18a141.389,141.389,0,0,0,11.118,9.55,47.714,47.714,0,0,0,6.287,4.141c.757.433,1.789.193,2.244-1.18C373.225,131.007,372.916,130.381,372.52,129.817Zm-65.439-117.3c-4.7,2.467-5.3,10.578-1.007,13.765a3.334,3.334,0,0,0,1.415.732c3.585.442,9.215-4.881,8.99-8.446C316.218,14.437,310.469,10.736,307.081,12.514Zm-143.1,330.325c-2.049-1.953-3.669-1.985-5.36.179a5.454,5.454,0,0,0-1.206,3.525,34.352,34.352,0,0,0,1.3,9.674c.522,1.749,1.291,3.592,3.379,3.878,2.465.337,3.2-1.922,4.394-3.42.749-.94.5-2.076.573-3.73C165.987,349.976,167.129,345.845,163.977,342.839Zm-32.936,4.44c-1.308,3.91-2.383,7.9-3.51,11.869a5.023,5.023,0,0,0-.2,2.142c.242,1.4.337,3.039,2.06,3.512,1.788.492,2.826-.862,3.367-2.126,1.9-4.447,4.357-8.712,4.811-13.682.228-2.491-1.183-4.634-3.192-4.638C132.66,344.353,131.858,344.839,131.041,347.279ZM336.223,174.667c1.994,4.259,4.2,8.434,5.911,12.805A26.118,26.118,0,0,0,347.6,196.1c3.618,3.822,7.314,7.6,9.452,12.549a4.362,4.362,0,0,0,1,1.272c.239.235.672.547.895.47a.981.981,0,0,0,.572-1.306c-.968-2.141-1.942-4.288-3.072-6.346-5.075-9.251-12.18-17.141-17.631-26.148a12.082,12.082,0,0,0-2.32-2.2ZM432.251,11.038a4.537,4.537,0,0,0-2.638.094c-5.29,1.937-9.016,5.891-12.552,10.039a2.225,2.225,0,0,0-.084,2.552c1.215,2.412,3.574,2.828,5.713.3a45.669,45.669,0,0,1,9.444-8.008,3.954,3.954,0,0,0,1.906-2.6A2.444,2.444,0,0,0,432.251,11.038Zm8.11,33.942c1.011-1.1,2.173-2.17,1.4-3.752a3.521,3.521,0,0,0-4.076-1.961c-3.539.685-7.107,1.309-10.281,3.178a8.124,8.124,0,0,0-1.763,1.213,1.852,1.852,0,0,0,.9,3.279c1.947.364,3.937.5,6.531.812C435.4,47.725,438.192,47.333,440.361,44.98ZM284.832,42c.15-1.6-2.444-4.374-4.084-4.364a3.579,3.579,0,0,0-3.56,3.767c.007,2.613.748,3.506,2.868,3.461C281.872,44.829,284.728,43.117,284.832,42Zm48.428,128.08c-.076,1.541,1.094,2.439,1.835,3.558l-.126.145c.7-1.866-.5-2.753-1.832-3.578Zm1.835,3.558c.267.462.466,1,1.128,1.025l.274-.278c-.255-.847-.725-1.148-1.528-.6Zm-3.312-4.4c-.5-.448-.521-.364-.156.142Zm1.354.968a1.041,1.041,0,0,0-1.51-.826l.156-.142,1.477.843Zm-151.093,18.1c6.311-.137,10.168,4.272,9.758,9.442-.52,6.563-4.135,10.365-10.091,12.71-5.907,2.327-11.76,3.289-17.983,1.62-2.435-.653-4.326-1.57-4.971-4.291-.661-2.784.69-4.558,2.716-5.966a71.865,71.865,0,0,0,9.214-8.316C174.193,190.042,178.154,187.784,182.044,188.31Zm-2.092,6.1a4.542,4.542,0,0,0-1.919.135c-5.122,1.442-9.918,3.356-11.67,9.143-.761,2.515-.506,3.084,1.914,3.849,4.528,1.433,12.9-2.41,15.733-7.267a10.871,10.871,0,0,0,1.466-3.441c.355-1.841-.084-2.824-2.07-2.756C182.687,194.094,181.97,194.205,179.952,194.406ZM373.62,232.211c-1.629-.029-2.157,1.013-2.141,2.465.022,2.007,1.334,3.991,2.75,4.171,1.208.155,2.482-1.332,2.531-2.953A3.457,3.457,0,0,0,373.62,232.211ZM57.649,345.64c.674-1.085,1.154-2.3.086-3.476-1.027-1.13-2.2-1-3.42-.354-1.734.92-3.354,2.213-5.5,1.9-1.619-.238-3.081.125-3.29,1.86-.2,1.679,1.356,2.428,2.674,2.967a6.919,6.919,0,0,0,2.048.445C54.174,349.253,56.217,347.947,57.649,345.64Z"/></g></g></svg>