<svg xmlns="http://www.w3.org/2000/svg" viewBox="0 0 403.488 462.303"><title>flower-stale</title><g id="Layer_2" data-name="Layer 2"><g id="Untitled_Artwork_6_Image" data-name="Untitled_Artwork 6 Image"><path d="M209.882,23.1c1.337-2.7.64-5.685,1.17-8.505.2-1.048-.163-2.448,1.406-2.278a1.884,1.884,0,0,1,1.7,2.752c-.538,1.283-.187,2.387-.006,3.64.467,3.239.557,6.144,5.06,6.871,2.132.345,3.986,2.976,5.766,4.77a5.064,5.064,0,0,1,.924,6.09c-1.326,2.335-.7,3.637,1.118,4.991a5.264,5.264,0,0,1,1.131,1.172,1.9,1.9,0,0,1,.165,2.04,2.328,2.328,0,0,1-2.2,1.317,3.471,3.471,0,0,1-1.521-.5c-3.648-1.941-3.656-1.952-4.585,2.318-1,4.6-1.752,9.285-3.564,13.651a4.238,4.238,0,0,0,.684,4.506c2.053,2.99,3.892,6.137,6.075,9.025,6.631,8.773,7.752,19,7.555,29.415-.177,9.405-1.155,18.789-.9,28.217.123,4.574.081,4.852,4.458,4.239,7.41-1.038,14.353.371,21.353,2.678,13.7,4.518,23.58,13.21,29.635,26.214a144.854,144.854,0,0,0,8.64,16.32c6.247,9.892,10.5,20.678,14.143,31.7a134.616,134.616,0,0,1,6.411,50.925c-.489,7.921-1.2,15.829-1.825,23.742a62.756,62.756,0,0,1-4.5,18.392c-1.858,4.66-5.474,8.19-9,11.444a35.672,35.672,0,0,1-10.954,6.84c-3.583,1.429-7.225,1.909-10.6.55-10.65-4.286-19.228-10.918-22.772-22.478a86.885,86.885,0,0,1-2.659-13.875c-1.367-10.058-4.1-19.858-5.374-29.943a444.483,444.483,0,0,1-3.831-50.213c-.145-11.36-2.9-22.252-6.611-32.923-.24-.691-.493-1.359-1.292-1.588-.041-.322.365-.991-.514-.663l.633.562c-.635,4.151-.3,8.309-.162,12.473.339,10.522.852,21.056-.276,31.557a120.923,120.923,0,0,1-5.258,24.921c-3.191,9.691-5.094,19.648-7.3,29.555-1.651,7.42-3.161,14.851-4.1,22.413a25.749,25.749,0,0,1-7,15.029,6.271,6.271,0,0,0-1.909,5.364,24.234,24.234,0,0,1-1.619,10.14,66.758,66.758,0,0,0-3.757,26.083,183.715,183.715,0,0,1-.307,24.409c-.037.517-.051,1.4.194,1.509.906.408,1.179-.547,1.539-1.081,6.324-9.357,15.027-15.636,25.524-19.457,6.954-2.531,14.206-2.783,21.482-1.831a22.507,22.507,0,0,1,10.873,4.761c4.476,3.494,5.051,8.756,4.437,13.847a12.771,12.771,0,0,1-5.449,9.061c-3.239,2.312-6.344,4.816-9.726,6.94-.713.448-1.879.816-1.462,1.935.264.708,1.236.423,1.927.425,3.27.01,6.543-.075,9.807.066,5.872.252,11.538,1.428,16.64,4.516,6.064,3.67,9.345,14.54,6.031,20.785a12.052,12.052,0,0,1-8.425,6.3,36.235,36.235,0,0,1-8.115.772,266,266,0,0,1-41.719-3.7A106.567,106.567,0,0,0,213,419.914c-5.553-.244-8.007,1.619-9.772,6.707-2.66,7.671-2.662,7.682,5.2,9.387,5.311,1.152,10.55,2.671,16.007,3.1.822.064,1.939.243,1.779,1.511-.1.822-.9,1.033-1.611,1.174a43.671,43.671,0,0,1-10.849.606c-5.449-.284-10.816-1.189-16.2-1.99-9.575-1.425-19.137-1.816-28.642.566a22.947,22.947,0,0,1-12.871-.558c-1.424-.46-2.83-1.164-2.914-2.841a3.426,3.426,0,0,1,2.825-3.537,24.989,24.989,0,0,1,9.1-1.137c2.609.229,2.879-.305,1.38-2.7-2.382-3.8-3.831-8.239-7.726-11.028a20.048,20.048,0,0,0-9.943-3.9c-5.394-.55-10.859-.493-16.187-1.8a12.165,12.165,0,0,0-6.958.379,126.564,126.564,0,0,1-20.591,4.776c-2.883.471-5.612,1.392-8.407,2.131a32.847,32.847,0,0,1-17.681.25,17.932,17.932,0,0,1-13.243-13.821c-1.554-6.726,1.848-11.976,6.446-16.433,7.888-7.645,17.759-9.57,28.217-8.845A66.958,66.958,0,0,1,126,388.562c5.343,2.674,10.951,4.82,16.454,7.169.449.192,1.222.37,1.473.143.781-.706-.168-1.213-.459-1.76-.766-1.44-1.567-2.865-2.416-4.258-5.147-8.439-5.706-17.794-5.124-27.256.393-6.379,8.828-12.493,15.026-11.39a7.746,7.746,0,0,1,4.436,2.947,31.727,31.727,0,0,1,5.582,9.9c3.44,9.061,5.14,18.516,6.394,28.061.736,5.6,2.267,11.01,3.488,16.5.1.453-.007,1.226.7,1.09.323-.062.768-.835.726-1.242-.578-5.645.516-11.188.931-16.772.35-4.714-.923-9.3-1.076-14.008-.35-10.724.736-21.3,1.874-31.908.386-3.6.766-7.2,1.051-10.81.512-6.472-2-12.463-3.081-18.684-.28-1.617-1.648-2.273-2.912-3.021a33.33,33.33,0,0,1-12.676-13.843c-7.235-13.95-11.959-28.717-15.3-44.039-1.847-8.477-4.55-16.765-6.813-25.153-.849-3.146-1.533-6.336-2.324-9.5-.125-.5-.3-1.228-.949-1.087-.27.059-.428.856-.551,1.339-2.241,8.871-1.874,17.928-1.862,26.953.008,5.79.131,11.581.241,17.37.19,9.934-2.128,19.448-5.146,28.774a39.117,39.117,0,0,1-11.048,17.249c-5.105,4.6-10.074,9.378-15.389,13.727-8.35,6.833-15.856,4.86-23-1.113-8.267-6.908-11.3-16.164-12.4-26.36-1.956-18.112-1.05-36.164,1.422-54.156,1.553-11.3,2.391-22.7,4.9-33.863.754-3.362,1.517-6.724,2.156-10.109a71.089,71.089,0,0,1,9.4-24.168c2.551-4.165,4.517-8.684,6.807-13.012a46.826,46.826,0,0,1,17.7-18.762c5.618-3.348,11.129-6.8,17.5-8.645a37.715,37.715,0,0,1,10.63-1.977c2.445,0,5.382-.3,7.182-1.667,1.488-1.132.14-4.03.058-6.13-.239-6.2.884-12.29,1.83-18.328.842-5.378,1.1-10.8,1.938-16.169a168.7,168.7,0,0,1,8.026-32.058A37.186,37.186,0,0,1,165.9,39.989c8.008-5.359,16.049-4.718,24.342-1.171,1,.426,1.881,1.1,2.854,1.585,1.924.963,3.581,3.4,5.594,2.918,1.884-.448,3.373-2.571,5.027-3.965,1.249-1.052,2.51-2.093,3.724-3.184,3.046-2.739,3.327-3.808,1.559-7.413a22.116,22.116,0,0,0-4.985-7.088,4.677,4.677,0,0,1-1.659-4.309c.1-1.373.372-2.679,1.924-2.817,1.706-.152,3.168,1.183,2.833,2.564-.734,3.023,1.413,4.184,2.911,5.852l.684,1.158c.071-.145.214-.3.2-.433C210.84,23.04,210.46,22.882,209.882,23.1ZM201.189,404.42c1.733.66,2.662-.807,3.786-1.544,7.766-5.1,15.747-9.727,25.1-11.2,11.011-1.733,19.783-7.618,27.882-14.779a10.252,10.252,0,0,0,2.206-3.038c1.266-2.5.592-5.294-1.842-6.509-3.56-1.777-7.263-3.231-11.387-3.232-13.954,0-24.941,6.175-32.676,17.281a132.981,132.981,0,0,0-12.943,23.112c-.382.619-.445-.413-.339.306a.8.8,0,0,0,.119.271C201.427,404.975,201.457,404.745,201.189,404.42ZM140.271,180.637c0,2.35.119,4.707-.02,7.049-.664,11.158,1.325,22,3.637,32.832,1.7,7.958,2.562,16.078,5.206,23.85,5.065,14.892,8.526,30.31,16.238,44.31,3.482,6.321,7.535,11.239,14.07,14.428,5.938,2.9,11.879,2.9,18.019,1.57,6.017-1.3,9.647-5,11.38-11,3.22-11.138,7.011-22.108,8.788-33.633.689-4.468,1.726-8.895,2.827-13.285a188.39,188.39,0,0,0,5.9-44.034q.162-15.761.452-31.519a35.747,35.747,0,0,0-1.788-12.836,11.522,11.522,0,0,0-9.728-8.218c-6.151-1.073-12.3-.759-18.463-.768-8.34-.012-16.726.517-24.977-.853-6.594-1.095-13.011-3.169-19.667-4.062-1.415-.189-3.085-.954-4.04.421-3.3,4.758-6.871,9.525-6.9,15.659C141.185,167.26,140.887,173.95,140.271,180.637ZM71.762,273.1c0,4.84-.242,9.213.054,13.55.5,7.406.818,14.88,3.621,21.915,2.154,5.409,6.711,7.857,11.88,9.5,4.478,1.419,7.747-1.075,10.79-3.687,3.436-2.948,6.614-6.2,9.917-9.3a15.971,15.971,0,0,0,3.758-5.293A71.52,71.52,0,0,0,117.409,275c.11-1.928-.6-2.693-2.39-2.722-1.27-.021-2.543-.069-3.812-.031-3.085.094-6.179.308-9.218-.425-1.949-.47-4.082-.912-4.251-3.454-.105-1.576,1.847-2.575,4.736-2.6a16.3,16.3,0,0,1,2.166.192c2.879.364,5.749.816,8.636,1.1,3.628.353,4.075-.064,3.972-3.771-.192-6.886-.453-13.77-.714-20.654-.543-14.272,2.544-28.072,5.713-41.815,1.714-7.433,3.415-14.821,4.016-22.442a102.158,102.158,0,0,1,1.263-10.234c1.138-6.263,2.481-12.461,6.719-17.6,1.251-1.515,1.916-3.5,3-5.166.89-1.361.671-2.05-.674-3.034-3.112-2.279-6.253-1.522-9.33-.356-7.679,2.91-14.618,7.2-21.286,11.932a31.644,31.644,0,0,0-3.657,3.248,1.727,1.727,0,0,0-.017,2.807c1.965,1.832,3.693,3.811,6.426,4.813,2.135.782,1.938,3-.1,4.119a9.583,9.583,0,0,1-6.861.949c-1.413-.311-2.819-.653-4.224-1-2.268-.553-3.669.2-4.645,2.432a82.583,82.583,0,0,1-4.917,9.7,59.405,59.405,0,0,0-6.8,18.218c-2.879,12.929-4.421,26.05-6.159,39.149C73.453,250.062,72.194,261.784,71.762,273.1Zm227.031-10.264c-.013-10.569.024-18.47-1.335-26.351-3.282-19.034-7.777-37.61-18.419-54.136-2.508-3.894-2.722-4.167-7.412-3.365-1.6.273-3.146.962-4.748,1.1-2.46.218-5.64-3.034-4.386-4.13,2.5-2.185,3.317-6.5,7.7-6.407,1.972.04,1.948-.947,1.257-2.458a22.82,22.82,0,0,0-9.512-10.873,123.719,123.719,0,0,0-12.612-6.321,36.153,36.153,0,0,0-13.761-2.848c-1.372-.009-2.675.3-3.2,1.584-.482,1.179.656,1.953,1.385,2.721a52.777,52.777,0,0,1,9.691,14.358,107.174,107.174,0,0,1,10.318,44.1c.094,11.061.664,22.106.686,33.167.011,5.239.62,10.476.929,15.716.5,8.523,2.669,16.809,3.569,25.28.555,5.222,1.575,10.393,2.163,15.613.987,8.756,6.741,13.577,16.338,15.707a8.7,8.7,0,0,0,7.21-1.55c4.54-3.217,8.091-7.184,9.671-12.719a107.192,107.192,0,0,0,3.333-18.649C298.415,275,299.131,267.626,298.793,262.836ZM211.674,134.261c2.36,0,4.722-.068,7.078.024,1.514.059,2.4-.38,2.558-2,.124-1.256.439-2.492.619-3.745a117.877,117.877,0,0,0-.71-36.757,29.811,29.811,0,0,0-2.575-8.284,241.1,241.1,0,0,0-11.943-22c-3.625-5.753-7.979-10.852-14.126-14.039-7.051-3.656-16.16-5.2-23.577,2.138a25.251,25.251,0,0,0-6.885,10.919c-2.537,8.857-5.392,17.646-6.666,26.819-1.871,13.468-2.333,27.1-4.72,40.508-.636,3.574-.451,3.791,3.139,3.633a50.25,50.25,0,0,1,16.179,1.559,74.12,74.12,0,0,0,20.463,2.406C197.612,135.456,204.57,133.706,211.674,134.261ZM181.566,426.948c-.082,6.185-.082,6.186,6.351,6.1,1.269-.018,2.538-.035,3.806-.08a1.988,1.988,0,0,0,2.086-2.034,18.818,18.818,0,0,0-.714-7.515,28.577,28.577,0,0,1-.918-13.389,121.287,121.287,0,0,0,1.4-17.826c-.011-8.141.3-16.264.515-24.394.067-2.526-.262-5.088.034-7.58a234.759,234.759,0,0,0,1.624-25.932,64.271,64.271,0,0,1,.776-9.729c1-6.222.67-6.108-4.336-4.477-1.669.544-3.23-.069-4.833.131-1.411.176-2.273.625-2.206,2.351.289,7.433-.529,14.856-.557,22.262-.061,15.743-1.916,31.411-1.613,47.158a46.489,46.489,0,0,1-.636,5.937c-.438,3.951-1.8,8.079-1.1,11.815C182.351,415.559,181.789,421.213,181.566,426.948Zm78.4-7a36.951,36.951,0,0,0,13.021-1.487c1.489-.486,3.129-1.02,3.549-2.984a9.351,9.351,0,0,0-7.187-10.841c-9.714-2.1-19.491-1.134-29.21-.393a187.069,187.069,0,0,0-19.32,2.983c-5.582,1.021-10.564,3.621-15.352,6.581a1.324,1.324,0,0,0-.54.861c-.086.761.586.835,1.083.866,1.448.09,2.9.163,4.353.123a142.8,142.8,0,0,1,23.8,1.732C242.571,418.563,250.957,420.3,259.965,419.943ZM91.544,392.623a27.349,27.349,0,0,0-3.253.019,18.919,18.919,0,0,0-11.474,5.564c-3.945,4.028-2.115,10.038,3.318,11.24a48.266,48.266,0,0,0,6.474.638c6.376.522,12.616-1.113,18.956-1.212a99.225,99.225,0,0,0,16.714-1.81c3.553-.666,7.219-1.306,10.765-.13,2.623.871,5.364.8,8,1.455.486.12,1.478.014,1.506-.129.163-.843-.51-1.212-1.2-1.4-10.143-2.751-19.595-7.491-29.627-10.466C105.185,394.454,98.537,392.4,91.544,392.623Zm67.7-3.9c-.1-6.717-1.476-13.288-2.251-19.905-.46-3.93-1.211-7.894-3.311-11.395-1.632-2.722-3.136-3.275-5.849-2.237a8.3,8.3,0,0,0-5.093,8.269c.656,5.73,1.336,11.48,3.534,16.946,2.477,6.159,7.123,10.894,10.388,16.526.7,1.2,1.745,3.511,2.61,3.053,1.473-.78.077-2.734,0-4.2C159.158,393.429,159.244,391.073,159.244,388.721ZM206.164,50.6c.3-.124.619-.228.908-.38a.883.883,0,0,0,.38-.378c1.42-3.172,3.884-5.614,5.854-8.4a2,2,0,0,0-.152-2.5c-.785-1.066-1.57-.472-2.246.125-2.573,2.271-5.116,4.569-8.443,5.737a.992.992,0,0,0-.786,1.191C201.809,46.6,205.574,50.49,206.164,50.6Zm10.708-6.181c-.093-.175-.2-.637-.4-.689a1.05,1.05,0,0,0-.85.389c-1.2,1.575-2.329,3.207-3.532,4.78-3.8,4.973-3.8,5.172.391,9.915a1.955,1.955,0,0,0,.393.357c.525.336,1.062.344,1.2-.345C215.022,54.055,215.931,49.28,216.872,44.415ZM172.4,413.388l.2-.3-.28-.083ZM402.091,148.416c.184,3.061-1.47,4.611-4.262,5.328-.86.221-2.085.758-1.892,1.635.2.915,1.5.443,2.332.528.51.052,1.367.094,1.443.337.174.554-.475.73-.951.888a15.1,15.1,0,0,0-7.837,5.437,13.069,13.069,0,0,1-4.2,3.382c-2.082,1.164-3.467,2.52-3.323,5.086.047.84-.015,1.892-1.256,2.031a2.29,2.29,0,0,1-2.3-1.144c-.723-1.183-.925-2.694-2.911-2.705-2.3-.012-4.379-.063-5.112,2.767a1.293,1.293,0,0,1-1.64,1.032c-.845-.27-.76-1.095-.854-1.779-.164-1.2.794-2.842-.59-3.524-2.942-1.452-3.841-5.4-7.51-5.892a26.331,26.331,0,0,1-4.758-1.067,3.4,3.4,0,0,1-2.515-3.212,3.346,3.346,0,0,1,2.749-3.559c1.927-.448,3.949-.476,5.919-.758,2.076-.3,4.3-.57,2.453-3.585,1.831-4.253-.214-8.427-.239-12.641-.031-5.026,2.84-8.017,7.075-7.6,2.4.234,3.865,1.831,5.217,3.567a11.5,11.5,0,0,1,1.448,2.292c.773,1.718,1.622,2.209,3.129.661a28.851,28.851,0,0,1,4.087-3.577c2.115-1.476,4.539-2.83,7.061-1.339s2.472,4.293,2.29,6.84c-.274,3.839-2.65,6.682-5.06,9.384-1.468,1.647-.424,2.549.609,3.566a1.414,1.414,0,0,0,2.336-.057c2.279-3.348,5.659-2.6,8.872-2.538Zm-26.354-5.6c-.056-2.937-.794-5.448-2.982-7.336-1.006-.868-2.163-.452-2.186.872-.049,2.855.044,5.715.151,8.57a1.9,1.9,0,0,0,1.554,1.927,2.9,2.9,0,0,0,3.1-1.556A7.654,7.654,0,0,0,375.737,142.816Zm14.762-6.478c-.032-1.147-.805-1.332-1.44-1a16.233,16.233,0,0,0-7.4,8.242c-.4.923-.676,2.133.79,2.678a2.194,2.194,0,0,0,2.845-.757c1.539-2.211,3.106-4.407,4.528-6.692A8.575,8.575,0,0,0,390.5,136.338Zm-6.416,21.2c-.128.115-.378.25-.363.341a5.483,5.483,0,0,0,.308.919c.128-.116.377-.251.362-.343A5.283,5.283,0,0,0,384.083,157.542ZM93.38,38.386c-.768-.157-1.648-.362-2.538-.511-.562-.095-1.131.015-1.249.667a1.176,1.176,0,0,0,.4.869c1.21,1.09,2.474,2.119,3.684,3.209.4.365.726.958.335,1.415a2.281,2.281,0,0,1-1.4.67c-2.071.2-3.275-1.278-4.571-2.528-.68-.656-1.365-1.221-2.352-.661a2.059,2.059,0,0,0-.819,2.814c.554,1.523,1.237,3,1.716,4.548a1.642,1.642,0,0,1-.556,1.383,1.313,1.313,0,0,1-1.893-.374,12.958,12.958,0,0,1-1.608-2.813c-.756-1.88-1.374-3.375-4.078-3.224-1.735.1-3.168-1.569-3.416-3.646-.107-.9-.238-1.793-.371-2.688-.592-3.962-.593-3.962-4.57-4.635-7.693-1.3-12.759-6.635-13.441-14.154-.4-4.395,2.174-6.52,6.415-5.063a30.13,30.13,0,0,1,10.746,6.192,5.186,5.186,0,0,0,1.4.656,3.744,3.744,0,0,0,.211-1.431c-1-3.566-.408-7.217-.642-10.82A8.973,8.973,0,0,1,76.332,2.6,5.09,5.09,0,0,1,81.374.038,4.714,4.714,0,0,1,85.617,3.7a45.984,45.984,0,0,1,1.97,12.812c-.036,1.647.046,2.963,1.663,4.166,1.531,1.138,2.534,3.019,3.671,4.642a5.7,5.7,0,0,1,.857,4.637c-.744,3.733-.652,3.754,2.7,5.278.659.3,1.346.543,1.98.885.258.138.626.564.569.7a1.964,1.964,0,0,1-.767.735C96.8,38.482,95.113,38.2,93.38,38.386ZM74.451,27.6a1.516,1.516,0,0,1,.409-.256c.094-.025.223.082.336.131l-.828.034c-1.937-2.656-5.176-3.4-7.688-5.209a.876.876,0,0,0-1.322.32c-.085.161.266.637.511.87C68.28,25.788,71.468,26.481,74.451,27.6ZM80.87,10.1c-.808.267.254-.024-.158.574-.609.884-.175,8.432.6,9.432a1.3,1.3,0,0,0,.879.357c.29-.385.707-.906.633-1.295-.5-2.632-1.119-5.243-1.7-7.861C81.037,10.911,80.956,10.511,80.87,10.1ZM361.38,56.373c-.735.519-1.52.981-2.2,1.568-2.068,1.8-5.2.907-6.991,2.248-1.872,1.4-2.968,4.005-5.039,5.526a2.211,2.211,0,0,1-2.494.492A2.441,2.441,0,0,1,343.5,63.9a7.259,7.259,0,0,1,2.576-5.764c.736-.633,1.269-1.411.488-2.3-.987-1.118-1.9-.548-2.74.309a13.753,13.753,0,0,1-4.766,3.535c-.99.375-2.207.569-2.963-.524a2.576,2.576,0,0,1,.2-3.045,7.528,7.528,0,0,1,4.89-3.156c1.766-.4,2.3-1.37,1.447-3.178a34.484,34.484,0,0,1-2.153-7.269c-.967-4.282.875-7.4,3.747-10.125.951-.9,1.99-.995,1.63.963a2.918,2.918,0,0,0,.365,1.54c.555,1.249,1.315,1.651,2.424.5.877-.912,1.793-1.792,2.747-2.624.306-.267.675-.928,1.192-.336.129.149-.076.655-.212.958-.371.825-.868,1.6-1.17,2.45-.571,1.605-.888,3.124,1.122,4.149,1.637.835,3.006,1.769,4.739,0a28.343,28.343,0,0,1,7.685-5.036,13.614,13.614,0,0,1,8.486-1.025,7.531,7.531,0,0,1,6.372,5.933,7.117,7.117,0,0,1-2.957,7.13c-1.111.854-2.716,1.167-3.254,2.715a41.6,41.6,0,0,0,4.051,1.093,6.555,6.555,0,0,1,4.864,3.077c2.3,3.728,1.461,7.28-2.592,8.912a22.846,22.846,0,0,1-13.881,1.048c-4.123-.951-4.489-4.187-4.571-7.584,4.932,3.89,10.523,2.071,15.923,1.782a1.4,1.4,0,0,0,.928-1.03,1.556,1.556,0,0,0-.868-1.166,32.724,32.724,0,0,0-10.578-1.382C364.657,54.491,362.766,54.679,361.38,56.373ZM370.6,39.336a21.4,21.4,0,0,0-11.106,4.94,1.439,1.439,0,0,0-.482.935c-.035,1.348,2.91,3.507,4.192,3.046a47.112,47.112,0,0,0,5.043-2.031,28.2,28.2,0,0,0,5.127-3.036c1.626-1.3,1.055-3.05-.973-3.556C371.871,39.5,371.325,39.454,370.6,39.336ZM32.156,131.5c.09,3.941-1.179,5.554-5.451,6.908-.628.2-1.51-.081-1.8.667-.079.207.6.886,1.053,1.093,4.933,2.265,4.183,6.713,4.081,10.814-.054,2.125-2.038,3-3.616,3.678a3.7,3.7,0,0,0-2.651,4.035c.06,3.891-1.605,4.87-5.247,3.533a3.406,3.406,0,0,1-2.332-2.059c-.29-.84-.588-1.878-1.786-1.428a2.336,2.336,0,0,0-1.334,2.206c-.141,2.026-.388,3.919-2.319,5.222-1.892,1.278-3.908.925-4.03-1.286-.226-4.073-.122-7.8-5.726-8.147-.882-.054-1.15-2.332-.924-3.851.591-3.977,3.658-6.091,6.275-8.5,2.351-2.163,2.477-2.077.96-5.313a17.28,17.28,0,0,1-1.122-10.117c.454-3.056,1.856-5.4,5.319-6.025,3.391-.616,6.159.09,7.744,3.392,1.334,2.781,2.33,2.591,4.09.733a3.03,3.03,0,0,1,.931-.545C28.933,124.31,32.037,126.277,32.156,131.5Zm-20.98,3.659c.679.924-.5,3.592,1.68,3.322,1.408-.174-.245-2.441.005-3.788a3.3,3.3,0,0,0-.222-1.556c-.1-.293-.436-.505-.666-.754a3.454,3.454,0,0,0-.534.861A16.4,16.4,0,0,0,11.176,135.161ZM189.685,457.035c.591-.2,1.557-.007,1.461-1-.026-.264-.835-.563-1.321-.656-8.341-1.584-16.523-4.149-25.031-4.66-7.918-.475-15.735-2.451-23.772-1.346a193.066,193.066,0,0,1-22.639,1.931,8.336,8.336,0,0,0-2.637.547c-.468.171-.8.7-1.2,1.074.375.351.694.89,1.134,1.022a48.6,48.6,0,0,0,8.417,1.986c7.717.892,15.411,1.987,23.131,2.848,5.386.6,10.692,2.035,16.193,1.7C172.176,459.375,181.157,459.958,189.685,457.035Zm28.166-2.537c-1.809-.059-3.618-.065-5.134,1.217-1.029.869-.936,2.017.267,2.517a8.1,8.1,0,0,0,1.033.313c7.843,2.1,16.212.583,23.962,3.589,2.106.816,3.094-1.5,4.042-2.917.972-1.445-.79-2.121-1.409-3.067-.873-1.335-2.37-1.479-3.837-1.625a50.76,50.76,0,0,0-11.3.315C223.262,454.738,220.557,454.587,217.851,454.5Zm184.24-306.082a1.332,1.332,0,0,0,1.4-.6.834.834,0,0,0-.381-.341c-.592-.114-1.084.011-1.2.719Zm.65,6.933-.363-.031.151.362ZM188.031,173.4c1.08,0,2.165.065,3.238-.014,2.175-.161,4.128-1.885,3.9-3.591a3.259,3.259,0,0,0-3.352-2.912c-1.789-.114-3.588-.183-5.379-.131-5.165.147-10.288,1.81-15.507.35a1.535,1.535,0,0,0-2.1,1.107c-.207,1.039-.464,2.2.468,3.031a6.265,6.265,0,0,0,1.872,1.011c4.243,1.681,8.523,2.811,13.12,1.306a16.7,16.7,0,0,1,3.732-.356Zm-2.206,56.766c.088-.107.375-.027.515-.118.46-.3,1.714.1,1.127-1.111a1.847,1.847,0,0,0-1.28-.832,100.341,100.341,0,0,0-19.959-.471,7.42,7.42,0,0,0-2.107.474c-1.4.567-2.656,1.525-2.463,3.142.163,1.365,1.5,1.933,2.774,2.227,2.666.616,5.364.452,8.7.253C177.268,233.789,182.219,234.511,185.825,230.166Zm7.434-47.023c.7-1,1.734-2.042.858-3.407a2.92,2.92,0,0,0-3.7-1.345c-2.053.678-4.159,1.193-6.214,1.864-1.312.429-3.324.367-3.387,2.124-.057,1.559,1.867,2.028,3.041,2.74a9.458,9.458,0,0,0,2.814.762C189.3,185.443,191.741,185.324,193.259,183.143Zm3.046,58.72c.825-.422,1.342-1.409.088-2.047-4.464-2.269-9.071-1.74-13.666-.484a1.727,1.727,0,0,0-1.257,1.6,2.106,2.106,0,0,0,1.527,2.01c1.575.659,3.219-.015,4.827.14C190.708,243.054,193.645,243.224,196.305,241.863Zm88.524,11.177c1.742-.278,3.608-2.5,3.15-3.75-.547-1.5-2.095-1.437-3.252-1.388a44.819,44.819,0,0,0-6.4.9,2.074,2.074,0,0,0-1.758,1.832,2.172,2.172,0,0,0,1.8,2.36,15.43,15.43,0,0,0,2.094.334C282.305,253.214,283.585,253.24,284.829,253.04ZM197.171,114.892a1.674,1.674,0,0,0,1.166,1.627,2.161,2.161,0,0,0,2.313-1.009c1.217-1.585,1.476-3.661,2.014-5.448a13.015,13.015,0,0,0-1.683-10.824c-.737-1.17-1.795-1.19-2.585-.032a11.906,11.906,0,0,0-1.911,8.811C196.74,110.6,196.938,112.748,197.171,114.892ZM185.742,70.274c-3-.25-2.661,2.838-3.856,4.406a1.52,1.52,0,0,0-.176.5c-.813,2.839-1.168,5.6,1.2,7.97.928.928,1.93.648,2.957.29,2.182-.761,3.964-3.819,4.036-6.914C189.964,73.964,187.833,70.448,185.742,70.274ZM175.27,97.43c-.263-1.374-1.018-1.873-2.214-.987a10.466,10.466,0,0,0-3.521,11.483c.873,2.247,2.166,2.617,4.048,1.072,2.156-1.77,2.385-4.266,2.452-7.407C175.85,100.583,175.571,99,175.27,97.43Zm60.5,281.886c1.035-1.126,3.076-2.295,2.377-3.649-.548-1.061-2.53.453-3.886.725a20.743,20.743,0,0,0-7.831,3.385,1.714,1.714,0,0,0-.735,1.3c.076.384.707.752,1.17.94a5.209,5.209,0,0,0,1.4.214C231.153,381.914,233.8,381.461,235.768,379.316ZM94.61,401.2c.263-1.664-1.464-3.346-3.424-3.256a4.309,4.309,0,0,0-3.991,3.05c-.38,1,1.648,2.309,3.558,2.37C92.566,403.416,94.423,402.374,94.61,401.2Z"/></g></g></svg>