<svg xmlns="http://www.w3.org/2000/svg" viewBox="0 0 334.67 530.282"><title>statue</title><g id="Layer_2" data-name="Layer 2"><g id="Untitled_Artwork_13_Image" data-name="Untitled_Artwork 13 Image"><path d="M192.4,529.088c-11.642-.973-23.208.67-34.81,1.035a164.478,164.478,0,0,1-27.718-.977,89.158,89.158,0,0,0-17.408-.327c-11.177.675-21.527-2.259-31.821-6.07-5.277-1.953-8.214-5.664-9.946-10.713A8.416,8.416,0,0,1,72.684,503a22.349,22.349,0,0,1,8.549-5.7c17.608-6.826,28.3-19.641,33.21-37.621.286-1.047.593-2.089.835-3.146.318-1.381-.331-2.04-1.688-2.041-2.522,0-5.148.5-7.317-1.325-2.4-2.016-.964-4.784-1.266-7.195-.823-6.567-.756-6.785-7.59-6.69-6.365.088-12.639-.977-19.007-.973a16.5,16.5,0,0,1-12.421-5.934c-2.521-2.893-4.867-4.4-8.676-2.519a8.1,8.1,0,0,1-4.273.4c-9.889-1.119-19.794-1.993-29.054-6.3A102.021,102.021,0,0,1,4.84,412.689C1.2,409.905-.153,406.023.014,401.682a83.57,83.57,0,0,1,1.3-13.539q3.221-15.7,7.175-31.247c1.606-6.31,3.139-12.8,5.954-18.605,6.266-12.917,13.718-25.183,23.99-35.457,2.342-2.342,5.31-3.79,8.14-5.4a75.808,75.808,0,0,0,9.227-5.753,115.932,115.932,0,0,1,20.343-12.517,62.56,62.56,0,0,0,11.91-7.623,23.467,23.467,0,0,1,3.065-2.269c9.841-5.609,18.321-12.982,26.793-20.395a73.9,73.9,0,0,1,8-5.6,5.192,5.192,0,0,0,2.67-4.889c-.11-5.079.029-10.171.28-15.247.091-1.829-1.014-2.626-2.105-3.509a81.918,81.918,0,0,0-14.217-9.056c-6.952-3.568-9.886-9.224-10.264-16.654-.35-6.887-.73-13.773-1.076-20.661-.143-2.847-.665-3.4-3.228-2.033-6.485,3.463-13.48,3.962-20.587,4.288-10.169.467-18.751-3.449-26.524-9.482a19.9,19.9,0,0,1-5.86-7.775c-2.6-5.886-4.13-11.966-3.277-18.486.752-5.745.948-11.563,2.271-17.233a3,3,0,0,0-.855-2.957c-5.171-5.511-4.98-12.173-3.779-18.927,1.523-8.561,6.238-15.791,10.094-23.373,1.249-2.455,5.141-3.645,4.842-6.076-.231-1.875-3.61-3.184-5.195-5.229a14.6,14.6,0,0,1-2.928-11.222c1.067-9.292,5.653-16.706,11.984-23.218,3.163-3.252,6.657-6.19,9.724-9.526,4.875-5.3,10.964-8.227,17.811-9.863,9.362-2.237,18.684-4.517,28.487-3.764,4.927.378,9.815.845,14.4,2.616a8.878,8.878,0,0,0,8.25-.731c3.312-1.879,6.739-3.563,10.159-5.243C158.751-.761,171.2-.729,183.766,1.057a23.518,23.518,0,0,1,10.106,3.827,50.888,50.888,0,0,0,12.221,5.805c3.857,1.383,8.124,2.423,9.668,7.1.481,1.456,1.454,1.05,2.6.6,11.717-4.658,23.084-3.781,33.956,2.543,6.75,3.926,13.31,8.145,18.549,14.1a35.107,35.107,0,0,1,9.191,21.554,16.741,16.741,0,0,0,.555,3.716c1.531,5.325.922,10.376-2.454,14.935a9.834,9.834,0,0,1-.942,1.333c-3.844,3.682-5.776,7.376-2.037,12.581,1.776,2.473.876,6.033.493,9.072a21.4,21.4,0,0,0-.152,5.362,80.182,80.182,0,0,1-9.539,49.908,39.719,39.719,0,0,1-15.753,16.119c-3.338,1.8-6.484,3.971-10.236,5.029a5.716,5.716,0,0,0-4.322,5.119c-.522,5.818-3.76,10.04-7.663,13.991-3.7,3.744-7.154,7.736-10.928,11.4a7.941,7.941,0,0,0-2.45,7.379c.805,5.381,1.726,10.745,2.554,16.122.239,1.55,1.3,2.6,2.181,3.7a122.655,122.655,0,0,0,26.84,25.29,131.337,131.337,0,0,1,20.123,16.6c5.694,5.832,12.3,10.773,16.963,17.608,2.043,3,4.523,5.735,6.25,8.894,6.962,12.74,15.215,24.7,22.339,37.338a70.6,70.6,0,0,1,3.8,9c4.524,11.462,9.115,22.9,13.589,34.38,1.9,4.869,2.8,10.087,5.041,14.841a3.431,3.431,0,0,1-.693,3.978,29.2,29.2,0,0,1-8.972,7.789,105.3,105.3,0,0,0-13.314,8.439c-5.617,4.2-12.1,6.463-18.957,7.735-3.744.694-7.482,1.428-11.2,2.247a33.366,33.366,0,0,1-16.709-.214,3.431,3.431,0,0,0-3.853.742c-4.928,4.431-10.871,6.882-17.3,8.205-4.613.949-9.242,1.822-13.872,2.689-1.914.358-2.862,1.393-2.7,3.378a14.969,14.969,0,0,1-.725,5.367c-1.138,3.966-3.2,5.605-7.4,5.792-6.632.3-6.52.282-5.7,6.7a37.72,37.72,0,0,0,8.179,19.241,49.815,49.815,0,0,0,13.277,11.012c4.9,2.923,10.569,4.595,14.348,9.425,6.726,8.6,5.579,19.415-6.434,23.409a135.219,135.219,0,0,1-42.8,6.848Q195.931,529.09,192.4,529.088Zm1.267-102.816c15.761,1.739,31.16-.408,46.271-4.744,3.977-1.141,8.536-2.214,11.368-4.873,3.328-3.124,4.36-8.266,5.6-12.809.9-3.291,1.013-6.789,1.79-10.122,2.057-8.829,4.269-17.622,6.458-26.42a10.515,10.515,0,0,1,1.174-3.02c1.4-2.233,3.565-2.3,5.4-.347a6.417,6.417,0,0,1,1.864,4.949,46.481,46.481,0,0,1-.634,5.394c-.851,4.638-2.082,9.225-2.629,13.9-.781,6.664-1.1,13.383-1.6,20.081-.794,10.694-1.474,9.976,9.672,8.555a7.462,7.462,0,0,0,1.574-.434c6.133-2.221,12.225-4.559,18.4-6.656,7.653-2.6,13.97-7.651,21.088-11.239,7.053-3.555,6.9-2.325,3.789-10q-8.383-20.68-17.117-41.219a68.46,68.46,0,0,0-7.871-14.283c-4.666-6.286-8.587-13.046-12.628-19.711-6.241-10.3-12.841-20.17-22.327-27.893-6.043-4.92-11.432-10.66-17.984-14.95a133.082,133.082,0,0,1-21-16.331,10.037,10.037,0,0,0-2.56-1.99c-6.335-3.04-9.12-8.474-10.418-15.006-1.094-5.508-2.3-11-3.452-16.492-.425-2.024-.979-2.336-2.223-.94-2.331,2.616-5.271,4.442-8,6.536-2.29,1.757-4.535,4.092-7.164,4.784-5.977,1.573-12.069,3.773-18.237-.437-1.77-1.208-3.823-3.435-6.116-3.035-2.2.383-4.075,2.309-6.244,3.183-4.768,1.921-9.58,3.148-14.474.069-2.291-1.441-4.821-2.5-7.245-3.734-1.327-.674-2.04-.3-2.059,1.225-.015,1.271-.078,2.545-.029,3.814.388,9.969-.025,19.976,1.178,29.9a7.949,7.949,0,0,1-2.033,6.471c-.757.908-1.611,1.625-2.741,1.418a2.651,2.651,0,0,1-1.923-2.38q-1.013-5.055-1.965-10.122c-.456-2.413-.618-2.468-2.636-1.5-5.294,2.534-9.362,6.807-14.207,9.948-13.521,8.764-25.665,19.653-40.546,26.319a11.739,11.739,0,0,0-1.328.948c-6.421,4.069-12.04,9.356-18.835,12.817-7.041,3.586-12.1,9.16-16.617,15.367-2.558,3.518-4.89,7.2-7.37,10.773a47.848,47.848,0,0,0-6.361,13.779A208.256,208.256,0,0,0,14.465,372.8c-1.539,9.681-3.34,19.293-2.975,29.18.208,5.614.12,5.908,5.159,8a41.894,41.894,0,0,0,5.209,1.587c3.675.989,7.5,1.581,11.018,2.963,6.742,2.65,13.763,3.041,20.828,3.357,3.995.179,4.392-.047,3.521-3.763-2.578-11-1.335-22.032-.362-33.02.474-5.364,1.184-10.824,3.31-15.891.593-1.413,1.08-3.592,3.142-3.14,1.768.388,1.254,2.454,1.251,3.78-.015,8.886.636,17.747.892,26.619.26,9.063,1.987,17.688,6.4,25.605,2.884,5.175,6.587,9,13.347,9.63,20.293,1.893,40.226-.224,60.062-4.181,4.958-.989,9.781-2.332,9.551-8.956a1.384,1.384,0,0,1,.107-.531c.786-2.038,2.614-2.484,4.346-1.075a7.479,7.479,0,0,1,2.557,4.1c1.223,5.53,5.106,7.49,10.129,8.333a42.91,42.91,0,0,0,7.554.885C184.229,426.239,188.947,426.272,193.665,426.272Zm37.34-279.655c.257-13.243,2.291-27.794,3.682-42.392.236-2.484-.157-5.14,1.114-7.479.385-.707.414-1.92,1.663-1.725a1.485,1.485,0,0,1,1.147,1.636c-.211,3.589,1.617,5.246,5,5.7a9.557,9.557,0,0,1,2.5,1.044c6.142,2.825,8.328,7.8,5.407,13.738-1.877,3.815-2.74,7.394-1.318,11.474a11.95,11.95,0,0,1,.431,3.775c.041,4.683-1.448,6.922-5.895,8.678a40.93,40.93,0,0,1-5.717,1.7c-1.215.284-1.982.773-2.024,2.09q-.28,8.679-.569,17.358c-.054,1.567.57,2.665,2.212,2.057,5.386-1.993,11.3-3.133,14.7-8.58,1.055-1.688,2.391-3.208,3.38-4.93C266,134.588,269,116.845,269.382,98.519a21.825,21.825,0,0,0-1.094-7.506c-.884-2.58-1.24-2.873-3.093-1.073a14.663,14.663,0,0,1-8.055,4.211,6.121,6.121,0,0,1-6.955-6.419c.049-1.076.336-2.145.334-3.217a4.9,4.9,0,0,1,3.958-5.156c2.969-.813,5.97-1.741,9.1-.812,1.068.317,2.264.789,3.034-.214,2.633-3.433,5.813-6.6,6.537-11.127,1.9-11.883-2.39-21.777-10.335-30.223-2.7-2.87-6.156-5.055-9.368-7.414-10.978-8.06-22.668-9.919-35.214-3.855a10,10,0,0,1-2.044.736c-2.561.6-4.082.042-4.5-2.462-.68-4.076-3.231-5.731-6.8-6.8-11.842-3.541-23.814-6.238-36.226-6.8-9.659-.44-18.639,1.961-27.373,5.754-1.548.672-1.924,1.4-1.634,3.287.821,5.345-3.448,11.053-8.6,12.14-4.555.961-7.853-1.474-8.414-6.092a10.861,10.861,0,0,1,1.209-5.768c1.187-2.735,1.147-2.8-1.722-3.438-9.821-2.188-19.413-1.021-28.99,1.692-4.944,1.4-9.657,3.115-13.8,6.162a142.786,142.786,0,0,0-16.01,13.9,30.619,30.619,0,0,0-8.379,15c-1.191,5.082.168,8.251,4.718,10.968.621.371,1.352.564,1.956.957,3.057,1.988,3.469,4.776.681,7.115a26.2,26.2,0,0,0-5.366,6.091,61.431,61.431,0,0,0-7.613,17.932c-.742,2.94-1.833,5.88-1.608,9.066.217,3.078.146,3.193,2.69,1.549a10.972,10.972,0,0,1,9.412-1.084c1.3.367,2.439,1.427,1.879,2.843-1.8,4.554-3.426,9.7-8.122,11.8-3.256,1.455-3.571,3.684-4.029,6.272a42.01,42.01,0,0,0-.139,4.33c-.864,12.351,1.733,23.307,11.513,31.972,3.881,3.438,7.9,5.518,13.013,5.872,9.6.662,17.01-4.233,24.27-9.436a7.161,7.161,0,0,0,3.021-7.068,52.605,52.605,0,0,1-.3-8.684c.133-2.685-.728-3.7-3.43-3.168-1.5.3-2.858-.529-4.157-1.109-4.44-1.982-5.676-4.912-4.526-9.661a17.052,17.052,0,0,1,2.855-5.817c1.212-1.723.824-3.02-.817-4.127-.9-.609-1.837-1.179-2.688-1.854-2.249-1.784-3.287-4.466-2.085-6.8,2.9-5.638,6.129-11.305,13.453-12.127a4.528,4.528,0,0,0,3.161-1.672c1.42-1.568,2.417-1.225,2.574.889.348,4.7.638,9.424.64,14.138,0,8.332-.434,16.66.837,24.962a61.18,61.18,0,0,1,.909,11.364c-.553,15.325,2.347,30.341,3.757,45.488a7.7,7.7,0,0,0,4.112,6.584,52.04,52.04,0,0,1,6.222,4.391c6.944,5.23,13.652,10.757,21.328,14.989,8.157,4.5,8.375,6.694,19.42.724a5.749,5.749,0,0,1,6.537.134c4.243,2.673,8.585,2.435,13.516.983,9.643-2.841,16.328-9.147,22.213-16.666a88.128,88.128,0,0,1,13.961-14.413c5.614-4.541,11.333-9.292,10.554-17.756-.016-.168.132-.345.141-.522C229.84,164.324,231.435,156.267,231.005,146.617ZM152.853,525.2c14.023-.972,26.313-1.851,38.607-2.667q15.439-1.024,30.782-3a75.788,75.788,0,0,0,17.371-4.2c5.388-2.036,5.64-2.327,2.411-8.316a7.767,7.767,0,0,0-3.106-2.98c-5.1-2.837-10.365-5.215-16.3-5.606-12.313-.812-24.624-1.684-36.946-2.341a247.719,247.719,0,0,0-27.761.169c-12.853.756-25.73,1.821-38.6.045a16.385,16.385,0,0,0-3.781.038c-12.054,1.164-23.241,5.58-34.613,9.291a18.4,18.4,0,0,0-2.935,1.421c-.852.46-1.58,1.288-1.275,2.184,1.094,3.22,1.723,6.825,5.361,8.411,5.989,2.611,12.037,5.077,18.69,5.349,9.422.385,18.863.473,28.265,1.138C137.544,524.737,146.046,525.278,152.853,525.2Zm38.1-36.556c7.857.834,15.654.659,23.448.623a22.82,22.82,0,0,0,2.706-.133.682.682,0,0,0,.487-1.167,9.315,9.315,0,0,0-1.963-1.84c-6.237-4.27-9.228-10.329-10.395-17.666a93.633,93.633,0,0,1-.69-12.456c-.047-1.813-.263-3.195-2.7-2.932-11.385,1.224-22.8-.661-34.192.214-4.871.374-9.769,1.034-14.622.824-7.259-.314-14.477.387-21.723.288-5.176-.071-4.593-.489-5.484,4.65a45.54,45.54,0,0,1-6.221,16.6c-1.524,2.453-2.616,5.172-3.992,7.723-1.091,2.022-2.315,3.974-3.479,5.957,2.428,1.174,4.862-.065,7.254-.166,9.975-.42,19.94.015,29.9.119,9.6.1,19.12-1.665,28.741-.912C182.34,488.708,186.679,489.29,190.951,488.644ZM174.827,438.9c-12.649-.736-25.317-.675-37.964-.328-7.608.209-15.218.634-22.836.743-1.75.025-2.679.71-2.7,2.579-.036,2.584.567,3.715,2.76,3.688,4.748-.056,9.4.825,14.1,1.166,10.72.778,21.381-.094,32.031-1.186,1.976-.2,3.835-1.059,5.883-1.015,6.534.142,13.069.174,19.6.306,9.973.2,19.945.5,29.919.655,2.83.044,3.06-.459,3.055-3.085,0-2.252-1.1-2.781-3.1-2.568-2.161.231-4.34.372-6.513.415C197.62,440.5,186.232,439.473,174.827,438.9ZM101.149,113.883v-6.515c0-1.44-.832-2.045-2.071-1.559-3.418,1.343-5.154,4.389-6.97,7.3-.444.712.018,1.415.4,2,.589.906,1.274,1.749,1.923,2.616,2.073,2.769,2.411,5.566.234,8.473a9.28,9.28,0,0,0-2,3.809c-.535,2.869,1.015,4.731,4.209,4.988,2.807.226,4.193-.776,3.789-3.807C99.886,125.371,101.049,119.651,101.149,113.883Zm137.133,18.278c-.3,1.117-.258,2.205,1.134,2.534,2.341.555,5.4-1.353,5.677-3.724a10.98,10.98,0,0,0-.255-4.289c-.9-3.033-.011-5.694,1.258-8.328.626-1.3,1.493-2.487,2.045-3.811a4.184,4.184,0,0,0-1.608-5.649c-4.19-2.9-7.017-1.691-7.334,3.322C238.779,118.857,238.578,125.512,238.282,132.161ZM52.337,115.948a2.337,2.337,0,0,0,.5-.135c2.5-1.293,3.9-3.547,5.11-5.938.3-.6-.187-1.045-.687-1.131a3.457,3.457,0,0,0-3.769,1.363c-1.048,1.614-2.173,3.253-1.943,5.343C51.6,115.891,51.919,116.051,52.337,115.948Zm82.37-94.022c-.195-.553-.618-1.031-1.157-.874a4.43,4.43,0,0,0-3.256,3.286,1.019,1.019,0,0,0,1.159,1.351A4.161,4.161,0,0,0,134.707,21.926ZM258.755,85.631c.224-.352.11-.642-.364-.7-.821-.1-1.745-.3-2.108.766a.934.934,0,0,0,.367.839A1.651,1.651,0,0,0,258.755,85.631ZM99.58,290.884c-2.358.016-4.721,0-6.719,1.652-1.956,1.618-4.054,3.066-5.99,4.706a15.252,15.252,0,0,0-2.475,2.846,1.825,1.825,0,0,0-.128,2.463c.726.766,1.675.549,2.545.266a11.906,11.906,0,0,0,5.028-3.145c2.681-2.839,6-3.708,9.789-3.845,10.336-.376,20.663-1.02,31-1.418,6.323-.244,12.726-.8,18.644,2.349a2.134,2.134,0,0,0,1.049.227c1.127-.047,1.674-.7,1.359-1.771a7.943,7.943,0,0,0-7.326-5.382c-10.694.309-21.387.681-32.5,1.042C109.378,290.874,104.479,290.851,99.58,290.884Zm87.235-.9a59.848,59.848,0,0,0-10.17,1.659c-2.4.486-3.958,1.538-4.8,3.8a20.411,20.411,0,0,1-1.1,1.867c-.452.9-1.813,1.787-.9,2.8,1.008,1.109,2.06-.175,2.713-.808,2.047-1.987,4.529-2.719,7.214-3.375,8.344-2.04,16.862-2.226,25.349-2.455,7.949-.215,15.909-.033,23.87.358,2.7.133,4.885-.29,6.267,2.634a8.624,8.624,0,0,0,2.705,2.583,1.917,1.917,0,0,0,2.473.269,1.891,1.891,0,0,0,.268-2.494c-2.027-3.541-4.514-6.444-8.954-7.142a73.85,73.85,0,0,0-19.8-.939C203.736,287.955,195.32,289.752,186.815,289.983Zm-41.194,42.565c4.885,0,9.861-.593,14.636.132,8.3,1.261,16.612.813,24.915,1.139a17.5,17.5,0,0,0,3.237-.228c1.092-.162,2.26-.568,2.253-1.864s-1.246-1.684-2.263-2.016a12.373,12.373,0,0,0-5.368-.3,60.367,60.367,0,0,1-18.384-.437c-9.563-1.809-19.089-1.177-28.624.026a57.381,57.381,0,0,0-5.82,1.236,1.087,1.087,0,0,0-.823,1.2,1.05,1.05,0,0,0,1.072.99c1.8.162,3.6.272,5.4.3,3.255.044,6.51.013,9.765.013ZM39.67,355.269c-.65-.857-1.269-2.222-2.075-2.362-1.234-.214-1.173,1.463-1.654,2.312a11.88,11.88,0,0,0-1.519,5.106c-.266,3.584-.943,7.139-1.475,10.7-.691,4.628-1.459,9.246-2.072,13.885a2.541,2.541,0,0,0,1.234,2.788c1.414.649,2.411-.321,3.224-1.3a4.552,4.552,0,0,0,.911-1.923c1.686-8.116,3.447-16.222,4.274-24.172C40.321,358.388,40.749,356.693,39.67,355.269Zm182.724,61c2.609-1.889,2.86-3.648.394-5.666-3.761-3.078-8.121-3.625-12.743-2.347-1.908.528-3.338,1.761-3.417,3.743-.084,2.122,1.149,3.659,3.114,4.645,1.889.948,3.853.832,6.438.748C217.916,417.407,220.3,417.784,222.394,416.266Zm-53-154.318c5.224-1,9-4.458,12.88-7.7.851-.712.175-2.145-.967-2.465a5.088,5.088,0,0,0-3.143.527,24.961,24.961,0,0,0-6.583,3.754c-1.626,1.185-2.927,1-4.288-.408a39.074,39.074,0,0,0-3.987-3.669,2.355,2.355,0,0,0-3.022.087,2.882,2.882,0,0,0-1.2,3.32c.844,2.926,6.1,6.764,9.24,6.715C168.679,262.059,169.039,262.016,169.394,261.948Zm-59.016,155c1.1-1.089,2.766-2.225,2.136-4.045a5.156,5.156,0,0,0-4.33-3.622,22.217,22.217,0,0,0-8.551.634c-1.737.51-3.43,1.523-3.366,3.687a4.477,4.477,0,0,0,2.9,4.2,37.959,37.959,0,0,0,5.2,1.235A7.946,7.946,0,0,0,110.378,416.946Zm39.376-76.293c-1.754.195-2.321,1.562-1.462,3.126a5.042,5.042,0,0,0,2.278,2.262,14.479,14.479,0,0,0,11.563.507,7.865,7.865,0,0,0,3.6-3.2,2.059,2.059,0,0,0-1.39-3.3,39.77,39.77,0,0,0-4.811-.257C156.588,340.039,153.162,340.274,149.754,340.653Zm11.531,39.763c-.478-1.468-1.491-2.512-3.2-2.261a2.847,2.847,0,0,0-2.31,2.642c-.593,3.206-.266,6.44-.134,9.663.062,1.508.364,2.907,2.245,3.118s3.333-.907,3.718-3.061a28.707,28.707,0,0,0,.217-3.642A11.256,11.256,0,0,0,161.285,380.416ZM266.94,341.991c.075,2.749,1.12,4.351,2.875,4.428,1.776.078,3.135-1.411,3.527-4.056a23.014,23.014,0,0,0-.592-8,2.388,2.388,0,0,0-4.653-.3,17.408,17.408,0,0,0-1.1,6.66C266.972,341.274,266.93,341.633,266.94,341.991Zm-195.923-16.9a26.13,26.13,0,0,0-2.495-2.059,1.938,1.938,0,0,0-2.858.625c-1.937,3.528-3.331,7.258-2.383,11.38.227.983.769,2.139,2.107,2.16,1.248.02,1.851-.856,2.349-1.9a54.688,54.688,0,0,0,3.256-10.307Zm-.024-.106-.172-.283.2.389Zm96.992-299.3c-6.012.066-11.11,3.257-15.776,6.735-7.84,5.842-12.155,14.353-15.968,22.989-2.094,4.743-1.632,9.967-.1,14.969.218.71.6,1.41,1.411,1.485,1.218.115,1.431-.9,1.579-1.765a31.706,31.706,0,0,0,.29-3.251c.957-14.31,10.7-27.159,23.765-33.246,6.707-3.125,12.187-1.51,18.105,1.189,7.05,3.216,10.36,16.194,3.646,21.806-3.949,3.3-7.871,6.439-12.612,8.36-5.635,2.284-10.42-.26-12.176-6.2-.515-1.742-1.145-3.462.223-5.161a16.508,16.508,0,0,1,9-5.764,2.2,2.2,0,0,1,2.744,1.165c.5.991.967,1.985.125,3.033-.568.707-1.174,1.388-1.688,2.133a2.219,2.219,0,0,0-.067,2.976c1.071,1.163,2.332.774,3.47.082a7.357,7.357,0,0,0,2.822-9.467c-1.993-4.41-4.822-5.867-9.156-4.318a23.035,23.035,0,0,0-8.32,5.048c-4.45,4.275-5.242,8.17-2.578,13.661,3.04,6.265,9.343,8.923,15.9,6.529A47.858,47.858,0,0,0,189.37,57.735c2.8-2.7,4.3-5.8,3.8-9.524C193.567,33.48,179.258,25.56,167.985,25.684ZM75.5,55.228c.391,6.342,5.537,11.726,11.371,11.952,5.357.207,11.246-4.778,12.392-10.442.429-2.121.271-4.009-1.788-5.23a2.31,2.31,0,0,0-3,.144,1.544,1.544,0,0,0-.021,2.4c1.483,1.42,1.2,2.856.392,4.442-1.748,3.416-4.655,5.137-7.862,4.595-3.052-.516-5.744-3.945-5.952-7.581-.322-5.62,4.065-12.251,9.394-14.128a7.381,7.381,0,0,1,5.337.164,12.715,12.715,0,0,1,7.714,14.146c-1.1,5.145-2.766,10.2-6.11,14.417-6.2,7.806-13.088,14.669-23.67,16.043a3.113,3.113,0,0,0-.532.115c-.535.169-1.137.506-1.011,1.044a1.788,1.788,0,0,0,1.145.985,14.849,14.849,0,0,0,10.586-1.339c13.444-6.607,22.625-16.94,25.285-31.995,1.688-9.552-3.7-16.744-11.307-20.294-2.9-1.354-6.074-1.956-8.956-.414C81.6,38.157,75.542,43.142,75.622,53.287A10.065,10.065,0,0,0,75.5,55.228Zm143.441,6.443c.941,4.875,2.588,9.444,6.176,13.081,1.04,1.054,2.172,1.988,3.761,1.859a2.734,2.734,0,0,0,1.424-.68c.54-.462.178-1-.177-1.39-.725-.806-1.583-1.5-2.246-2.354a18.191,18.191,0,0,1,.94-23.346c6.562-6.953,17.42-6.315,21.964,1.279,3.293,5.5,1.53,10.4-4.574,12.348-4.276,1.364-8.069-1.234-8.426-5.785a1.927,1.927,0,0,1,1.827-2.243,3.342,3.342,0,0,1,3.079.6c.691.669,1.382,1.327,2.229.347a2.138,2.138,0,0,0-.082-2.957c-1.215-1.488-4.119-1.9-6.606-.949-2.007.763-3.4,1.995-3.428,4.376a9.785,9.785,0,0,0,11.324,10.138,20.182,20.182,0,0,0,6.23-1.869c6.941-3.256,8.042-8.956,5.161-15.4-5.806-12.993-20.9-13.292-28.665-8.272-5.982,3.87-10.225,9.194-10.338,16.371C218.674,58.783,218.665,60.255,218.938,61.671Zm-54.859,51.636a23.517,23.517,0,0,0-6.808-10.914c-.4-.385-.919-.791-1.31-.427a2.234,2.234,0,0,0-.356,1.509,5.233,5.233,0,0,0,.359,1.573,139.782,139.782,0,0,1,4.459,17.839c1.151,5.715-.428,11.142-1.046,16.681a7.962,7.962,0,0,1-2.644,4.63c-.973.97-2.556,1.3-3.791,2.042-3.76,2.257-5.427,8.077-3.015,11.356,3.832,5.21,12.125,7.638,16.563,1.14a17.525,17.525,0,0,1,1.351-1.7c1.039-1.174,2.146-2.048,3.636-.6a4.5,4.5,0,0,0,.847.676,2.018,2.018,0,0,0,2.87-.537,2.169,2.169,0,0,0-.393-2.946,5.731,5.731,0,0,0-5.818-1.962,9.508,9.508,0,0,0-5.091,2.914,4.966,4.966,0,0,1-5.411,1.654c-1.971-.654-4.866-.644-5.4-2.9-.708-3,2.173-3.456,4.328-4.5,4.19-2.028,7.317-4.807,7.623-10.209.2-3.589.347-7.21.759-12.188A48.633,48.633,0,0,0,164.079,113.307Zm22.58,64.566a25.834,25.834,0,0,0-6.858-6.06,7.233,7.233,0,0,0-6.806-.378,18.459,18.459,0,0,0-4.811,2.477c-3.46,2.791-6.724,2.607-10.506.521-5.276-2.908-10.892-1.335-14.309,3.566a6.677,6.677,0,0,0-1.435,4.559,1.352,1.352,0,0,0,1.89,1.3,4.7,4.7,0,0,0,1.8-1.164c3.548-3.733,7.1-4.114,11.5-1.041,3.825,2.667,8.178,2.525,12.235-.1,1.366-.884,2.665-1.882,4.084-2.668,2.56-1.419,3.533-1.24,5.788.842a23.318,23.318,0,0,0,2.737,2.618c1.753,1.147,5.586-.675,5.612-2.818A12.668,12.668,0,0,0,186.659,177.873ZM132,124.17c-5.873-.05-11.992-6.537-12.89-12.805a3.043,3.043,0,0,1,.824-2.471c2.523-3.009,5.422-4.994,9.617-5.265,5.8-.375,11.057,1.163,16.248,3.36a3.118,3.118,0,0,1,1.968,3.445C147.135,116.521,138.152,124.3,132,124.17Zm-1.681-6.4c6.108.248,9.065-2.1,11.073-5.913.385-.732,1.36-1.685.27-2.331-1.12-.664-2.385-1.864-3.862-.829a13.747,13.747,0,0,0-1.781,2.018c-3.053,3.253-3.912,3.3-7.089.39A12.852,12.852,0,0,0,127,109.251c-1.276-.737-2.487-.1-3.475.731-1.031.865-.661,1.908-.095,2.922A9.094,9.094,0,0,0,130.321,117.773Zm49.365,72.386c1.286-1.434.872-2.732-1.031-3.147-2.647-.578-5.272-.9-7.964.2a20.223,20.223,0,0,1-16.394-.369,18.442,18.442,0,0,0-3.148-.821c-1.816-.442-3.794-.874-4.834,1.157-1.022,2,.476,3.517,1.789,4.711,3.933,3.575,8.056,6.874,13.938,6.5C168.87,197.749,174.968,195.419,179.686,190.159Zm17.863-86.932a13.135,13.135,0,0,1,7,1.407,4.981,4.981,0,0,1,1.99,7.645c-1.877,2.655-3.662,5.381-6.637,7.07-6.193,3.515-15.362-.677-16.651-7.714-.424-2.317.986-3.825,2.634-4.982A19.276,19.276,0,0,1,197.549,103.227Zm-2.81,12.3a10.324,10.324,0,0,0,8.266-5.325c.609-1.069-.151-1.7-.978-2.091-1.093-.521-1.866-.131-2.81.743-3.427,3.172-4.606,3.134-8.483.116-1.783-1.387-2.484.489-3.5,1.142-.958.615-.689,1.569.146,2.232C189.526,114.051,191.786,115.526,194.739,115.53ZM78.172,139.167a4.448,4.448,0,0,0-5.118-.124,3.528,3.528,0,0,0-1.943,3.081c.073,2.079,1.577,2.638,3.429,2.572a1.048,1.048,0,0,1,1.118.931c.243,1.43-2.106,3.565-3.547,3.264a5.327,5.327,0,0,1-4.339-5.479,19.963,19.963,0,0,1,3-9.22c.88-1.478,1.786-2.709,3.682-2.815.687-.038,1.65-.133,1.523-1.094-.1-.776-1.041-.889-1.714-1.125a4.65,4.65,0,0,0-5.442,1.326c-3.2,3.643-5.453,7.827-5.525,12.718-.084,5.793,2.368,8.925,7.927,11.024a5.049,5.049,0,0,0,5.571-1.135,11.5,11.5,0,0,0,3.846-8.021C80.349,142.788,80.269,140.531,78.172,139.167ZM143.6,92.288a2.168,2.168,0,0,0,1.275-2.185,1.894,1.894,0,0,0-1.453-1.427,12.431,12.431,0,0,0-2.624-.641c-4.485-.546-8.98-1.019-13.466-1.563-5.818-.7-10.793.686-14.179,5.8-1.031,1.557-3.705,3.2-2.234,4.968,1.848,2.216,3.968-.127,5.552-1.409a14.734,14.734,0,0,1,11.147-3.189q4.848.453,9.7.887A9.9,9.9,0,0,0,143.6,92.288Zm44.243-3.21a13.892,13.892,0,0,0-1.624.136,2.317,2.317,0,0,0-1.973,1.665c-.217,1.255.846,1.956,1.869,2.341a7.414,7.414,0,0,0,2.644.421c2.537-.029,5.071-.171,7.607-.262,5.58-.2,11.3-.994,15.714,3.749a2.548,2.548,0,0,0,1.427.658,2.361,2.361,0,0,0,2.415-.875,2.038,2.038,0,0,0,.069-2.051c-1.832-4.941-5.356-7.193-10.794-6.922-1.086.054-2.177.008-2.284.008Zm26.028,55.152c-2.683,1.159-4.9,3.05-7.24,4.742a6.085,6.085,0,0,0-2.766,5.011c-.081,3.43-.256,6.858-.351,10.288-.055,1.984-.056,3.971-.029,5.956.01.739.244,1.447,1.15,1.53a1.772,1.772,0,0,0,1.764-1,9.373,9.373,0,0,0,.834-2.54c.611-3.371,1.5-6.742,1.627-10.138.135-3.62,1.354-6.159,4.582-7.85a13.691,13.691,0,0,0,4.6-4.525c.733-1.042.057-2.368-1.455-2.421C215.9,143.519,214.854,143.806,213.871,144.23Zm-88.3,24.033a34.088,34.088,0,0,1,.027-4.349c.713-5.476-2.1-9.327-5.768-12.775-2.376-2.231-4.175-2.718-5.09-1.328-1.376,2.092.492,3.223,1.721,4.473,3.829,3.894,6.358,8.063,4.881,14-.57,2.291.395,4.991.79,7.484a1.821,1.821,0,0,0,2.355,1.618c1.017-.228,1.309-1.061,1.292-2.073-.038-2.351-.012-4.7-.012-7.055Zm58.765-22.141a1.835,1.835,0,0,0-1.905-1.609,1.64,1.64,0,0,0-1.494,1.914,24.854,24.854,0,0,1-1.409,10.7,1.817,1.817,0,0,0,.645,2.4c1.191.693,2.121-.08,2.821-.9,1.747-2.047,2.027-4.584,2.212-7.755C184.99,149.67,184.7,147.888,184.336,146.122ZM212.99,131.64c.722-.561,1.418-1.194.881-2.224a1.644,1.644,0,0,0-1.834-.817c-2.835.483-5.652,1.071-8.491,1.518-1.86.293-3.954.573-3.612,2.983.305,2.159,2.541,1.429,3.946,1.737A20.775,20.775,0,0,0,212.99,131.64Zm-71.513,25.724c.526.726,1.149,1.56,2.178,1.182,1.272-.468,1.393-1.484.89-2.657-1.216-2.837-1.408-5.659.606-8.208,1.067-1.351,1.575-2.428-.209-3.525-1.723-1.06-2.7.071-3.631,1.226-1.351,1.682-1.042,3.791-1.392,5.752C140.107,153.285,140.124,155.5,141.477,157.364Zm25.239-71.29c-1.206.193-1.63,1.294-2.3,2.1-.709.85-1.38.906-2.179.039-1-1.085-1.945-3.248-3.7-1.618-1.487,1.378.354,2.915.907,4.312a8.512,8.512,0,0,0,1.477,2.22,2.5,2.5,0,0,0,2.394.9c2.142-.327,5.612-4.635,5.42-6.819C168.473,86.2,167.7,85.916,166.716,86.074ZM126.907,191.393c-.893-.7-2-1.061-2.807.171-.669,1.021-.6,2.477.244,2.988,2.122,1.29,4.222,2.784,6.734,3.246.685.126,1.251-.573,1.528-1.663C130.79,194.613,128.892,192.949,126.907,191.393Zm4.905-57.163c.731-.1,1.481-.409,1.456-1.223-.012-.379-.613-.948-1.049-1.071-2.587-.732-5.2-1.365-7.812-2.015a1.5,1.5,0,0,0-1.8.8c-.489.973.038,1.727.811,2.277,2.058,1.464,4.53.828,6.879,1.319C130.744,134.291,131.284,134.3,131.812,134.23Zm72.046,56.461a1.343,1.343,0,0,0-2.229-1.06c-1.592,1.945-3.138,3.937-4.551,6.015-.436.64-.081,1.384.9,1.459C200.011,196.936,203.781,192.9,203.858,190.691ZM164.183,212.4c.262,1.032.453,2.265,1.9,2.135,1-.09,1.444-1.021,1.644-1.888a7.4,7.4,0,0,0,.2-2.651c-.159-1.1-.741-2.063-2.073-2.023-1.088.033-1.445.885-1.683,1.781-.092.345-.146.7-.231,1.116C164.012,211.345,164.052,211.886,164.183,212.4Zm58.864,296.184c1.023-.259,2.229-.859,1.92-2.189-.254-1.1-1.462-.7-2.288-.752-6.926-.39-13.762.544-20.554,1.662-13.791,2.271-27.619,3.8-41.629,3.108-2.348-.116-4.713.04-7.067.135-13.391.546-26.779,2.1-40.177.054a8.294,8.294,0,0,0-2.695.061,2.531,2.531,0,0,0-2.22,2.109c-.116.969.778,1.551,1.587,1.988a17.83,17.83,0,0,0,7.875,1.86,242.856,242.856,0,0,0,26.625-.564,79.129,79.129,0,0,1,16.787.3c5.189.734,10.377,1.724,15.651,1.519C192.9,517.982,207.806,512.443,223.047,508.588Zm-71.362-29.875c1.448.265,2.339-.836,2.921-2.006,1.208-2.428,2.348-4.89,3.475-7.356.93-2.034.325-4.314-1.29-5.076-1.428-.674-3.295.252-4.188,2.5a36.349,36.349,0,0,0-2.46,8.653C150.182,476.925,150.046,478.413,151.685,478.713Zm20.6-11.768c-.889-1.235-2.092-2.236-3.666-1.558a3.043,3.043,0,0,0-1.658,3.625,30.017,30.017,0,0,0,2.646,8.748c.972,1.875,2.913,2.1,4.179.491.721-.92.745-1.994.762-3.481C173.806,472.423,174.049,469.4,172.284,466.945Z"/></g></g></svg>