<svg xmlns="http://www.w3.org/2000/svg" viewBox="0 0 218.985 177.228"><title>video-encoding</title><g id="Layer_2" data-name="Layer 2"><g id="Layer_1-2" data-name="Layer 1"><path d="M0,118.984c.222-11.76.035-23.53.689-35.3.914-16.453,2.887-32.868,2.5-49.377-.118-5.061.195-10.159-.735-15.2A40.013,40.013,0,0,1,2.1,13.673C1.814,7.37,4.748,4.6,11.068,3.593a38.007,38.007,0,0,1,9.753-.445c9.551.983,19.134.437,28.695.811,9.713.381,19.565.8,29.232-1.054,2.724-.522,5.411-.241,8.087-.309,9.572-.245,19.079-1.491,28.609-1.858C126.077.329,136.738-.618,147.439.6a140.083,140.083,0,0,0,19.571.5,208.893,208.893,0,0,1,31.981,1.567c3.906.5,7.841.023,11.623,2.04,3.532,1.883,5.727,4.373,6.291,8.213.63,4.288,1.152,8.6,1.5,12.919a128.5,128.5,0,0,1,.565,12.961c-.246,11.746-.685,23.488-1.1,35.23-.3,8.328-.725,16.651-1.017,24.978-.5,14.282-.818,28.567-1.089,42.856-.13,6.891.007,13.734.358,20.6a31.014,31.014,0,0,1-.2,5.441c-.81,6.426-4.695,9.633-11.16,9.3-13.211-.681-26.436-1.184-39.627-2.15-6.5-.475-13.018-.609-19.518-1.369-5.735-.671-11.595-.266-17.4-.369-11.052-.195-22.11-.238-33.152-.672-10.337-.406-20.669-.321-31-.332-12.521-.014-25.042-.349-37.5-1.484-6.275-.572-12.417-2.41-18.772-2.9-3.151-.24-5.056-2.4-5.811-5.637C.318,155.189.017,147.978.006,140.731S0,126.233,0,118.984Zm54.422-16.106c-.135,4.585-.335,8.19-.3,11.823.1,10.092-.2,20.187-.216,30.282-.006,4.522.327,9.045.466,13.568.055,1.787.9,2.633,2.687,2.626,1.452-.006,2.9.106,4.356.111,7.971.03,15.944-.016,23.914.079,6.343.075,12.687.526,19.025.431,9.935-.15,19.868.085,29.809-.155,10.657-.258,21.338.54,32.01.844,4,.115,4.5-.337,4.045-4.229-.811-6.855-.864-13.739-1.185-20.617-.333-7.11.86-14.125.736-21.2q-.186-10.6-.236-21.2c-.024-5.62.17-11.243.067-16.862-.187-10.157-.619-20.31-.768-30.468-.123-8.343.406-16.686-.043-25.038-.3-5.541-.328-5.8-6.031-5.348a54.164,54.164,0,0,1-7.569,0c-7.919-.471-15.853-.886-23.783-.906-6.135-.016-12.27.815-18.407.852-4.192.026-8.284.776-12.436.976-6.513.313-13.028.325-19.516,1.319a65.378,65.378,0,0,1-13.02.8c-3.622-.174-7.262.069-10.89-.03-2.163-.059-2.85.819-2.737,2.9a82.844,82.844,0,0,1,.11,9.241c-.669,11.562-.655,23.13-.26,34.691C54.67,79.536,54.4,91.69,54.425,102.878ZM16.994,148.284c.559,2.115.406,4.837.405,7.537,0,1.818.744,2.532,2.446,2.873,7.291,1.46,14.7,1.775,22.074,2.422,1.278.112,2.026-.323,2.06-1.774.152-6.647.642-13.292-.3-19.93-.232-1.631-.9-1.746-2.427-1.9-7.188-.706-14.364,1.5-21.542-.049-1.512-.327-2.294.483-2.324,2.116C17.332,142.295,17.148,145,16.994,148.284ZM42.632,113.7c0-2.381.047-5.275-.014-8.166s-.173-3.028-3.2-3.022c-6.67.013-13.388.75-19.873-1.56-1.364-.485-1.829.1-2.123,1.453-1.561,7.155-.143,14.37-.544,21.543-.073,1.3.881,1.346,1.788,1.408a67.862,67.862,0,0,0,12.961.021c3.391-.414,6.835-.4,10.256-.57C43.18,121.328,41.826,117.718,42.632,113.7ZM202.85,74.708c.193-3.695.414-7.494.583-11.3.148-3.314.074-3.444-3.161-3.284-5.032.251-9.96,2.006-15.1.866-1.315-.292-1.779.854-1.788,2.1-.049,7.033-.133,14.066-.176,21.1-.012,1.99-.635,4.435.281,5.862,1.316,2.048,3.861.056,5.9.2a97.215,97.215,0,0,0,10.326-.072c2.088-.079,3.242-1.035,3.2-3.43C202.842,82.778,203.573,78.8,202.85,74.708ZM18.1,82.319l.1,0c-.074,1.609-.207,3.219-.2,4.827.005,1.018.5,1.558,1.7,1.557,6.471,0,12.942-.12,19.41.407,3,.245,3.121.017,2.89-2.811-.546-6.655-1.208-13.3-1.812-19.95-.094-1.028-.471-1.685-1.646-1.605-5.863.4-11.495-1.054-17.172-2.148-1.511-.291-2.483.187-2.551,1.883Q18.461,73.4,18.1,82.319ZM193.24,47.732v.128c2.171,0,4.345.07,6.512-.016,3.219-.129,3.687-.476,3.357-3.4-.389-3.44-.08-6.88-.33-10.294-.277-3.781.21-7.611-.757-11.352-.381-1.474-.741-2.886-2.6-2.939a87.99,87.99,0,0,1-15.606-1.7c-1.11-.232-1.7.315-1.738,1.427a7.865,7.865,0,0,0,.092,1.624A111.025,111.025,0,0,1,183.7,44.388c-.082,2.709.558,3.24,3.57,3.333C189.26,47.782,191.25,47.732,193.24,47.732ZM19.577,35.162l.188,0c0,3.619-.047,7.24.015,10.858.051,2.937.4,3.421,3.093,2.859,3.627-.757,7.213-.283,10.818-.277,1.268,0,2.536.046,3.8.079,1.073.027,1.78-.472,1.785-1.55.039-7.962.028-15.923.056-23.885.007-1.94-1.26-2.347-2.817-2.586-4.706-.722-9.391-.039-14.088.082-2.18.056-2.852,1.134-2.853,3.035Q19.574,29.471,19.577,35.162ZM201.4,115.217h.553c0-3.448-.088-6.9.031-10.344.081-2.356-.976-3.375-3.2-3.279-4.535.2-9.067.45-13.6.679-1.463.074-1.689,1.059-1.7,2.246-.066,7.429-.151,14.858-.212,22.287-.013,1.551.764,2.368,2.357,2.251a73.211,73.211,0,0,1,11.95-.152c3.024.271,3.681-.6,3.8-3.888C201.489,121.754,201.4,118.484,201.4,115.217Zm-17.215,36.27h.2c0,2.893.082,5.788-.027,8.677-.078,2.077.9,2.789,2.816,3.144,4.166.771,8.251-.8,12.41-.224.929.129,1.448-.952,1.426-1.96-.125-5.757.519-11.514-.112-17.277-.176-1.6-.787-2.2-2.316-2.271-4.138-.187-8.274-.434-12.408-.692-1.424-.089-1.964.689-1.98,1.928C184.156,145.7,184.182,148.6,184.182,151.487ZM80.517,92.915c-.141-10.171.457-20.314,1.188-30.448.521-7.23,5.14-9.914,12-7.264,5.979,2.311,10.956,6.37,16.617,9.253,5.169,2.631,10.191,5.457,15.772,7.226a128.909,128.909,0,0,1,20.5,8.752c6.053,3.152,6.931,8,2.6,13.35a23.781,23.781,0,0,1-7.347,6.42c-7.593,3.88-14.538,9.025-22.583,11.972-5.468,2-10.658,4.566-15.951,6.93a17.646,17.646,0,0,0-4.2,2.451c-3.106,2.566-6.9,3.044-10.77,3.026a5.565,5.565,0,0,1-5.7-4.163,34.425,34.425,0,0,1-2.082-10.072C80.427,104.539,80.517,98.726,80.517,92.915ZM96.3,98.658c-.462,7.909-.293,7.9,5.741,4.838,2.254-1.143,4.37-2.587,6.891-3.169,8.223-1.9,15.013-7.03,22.7-10.144,1.6-.651,4-1.7,3.858-3.394-.132-1.628-2.7-1.991-4.336-2.572q-15.6-5.55-30.672-12.4c-2.366-1.078-2.836-.9-2.908,1.686C97.332,82.378,96.735,91.232,96.3,98.658Z"/></g></g></svg>