<?xml version="1.0" encoding="UTF-8"?>
<svg viewBox="0 0 75 72" version="1.1" xmlns="http://www.w3.org/2000/svg" xmlns:xlink="http://www.w3.org/1999/xlink">
    <!-- Generator: Sketch 62 (91390) - https://sketch.com -->
    <title>voice-assistant</title>
    <desc>Created with Sketch.</desc>
    <g id="Page-1" stroke="none" stroke-width="1" fill="none" fill-rule="evenodd">
        <g id="dato-omnichannel" transform="translate(-732.000000, -13.000000)" fill="#000000" fill-rule="nonzero">
            <g id="Group-6" transform="translate(715.000000, 13.000000)">
                <path d="M70.971,31.9299015 C70.767,31.1569015 70.15,30.7239015 69.41,30.6859015 C68.672,30.6479015 68.001,30.9949015 67.761,31.7789015 C67.498,32.6359015 67.265,33.5079015 67.105,34.3889015 C66.976,35.1029015 67.88,36.0819015 68.723,36.2529015 C69.609,36.4309015 70.723,35.8739015 70.913,35.1179015 C71.044,34.5989015 71.103,34.0609015 71.199,33.5049015 C71.128,32.9899015 71.108,32.4439015 70.971,31.9299015 M39.909,35.8189015 C40.781,35.1139015 41.226,34.1009015 41.352,33.0479015 C41.549,31.3929015 39.85,29.4529015 38.616,29.7539015 C37.503,30.0259015 36.224,31.8559015 36.461,33.0839015 C36.662,34.1199015 37.035,35.1619015 37.944,35.8419015 C38.208,36.0399015 38.599,36.0709015 38.931,36.1789015 C39.261,36.0629015 39.654,36.0259015 39.909,35.8189015 M64.503,30.1049015 C64.411,29.4369015 63.997,28.7899015 63.638,28.1869015 C63.199,27.4509015 61.813,27.3479015 61.298,27.9569015 C59.631,29.9289015 59.512,35.5289015 61.092,37.5869015 C61.822,38.5369015 63.116,38.4019015 63.794,37.4589015 C64.72,36.1729015 64.498,34.7279015 64.541,34.2129015 C64.541,32.2469015 64.648,31.1589015 64.503,30.1049015 M45.057,37.2799015 C45.133,37.9269015 46.939,39.2909015 47.565,39.0659015 C48.194,38.8389015 48.888,38.3549015 49.204,37.7879015 C50.178,36.0449015 50.088,30.7179015 49.099,28.4389015 C48.921,28.0289015 48.349,27.6849015 47.885,27.5299015 C47.126,27.2759015 46.458,27.6489015 46.038,28.2889015 C44.889,30.0409015 44.791,32.0249015 44.829,34.0399015 C44.901,35.1209015 44.93,36.2059015 45.057,37.2799015 M58.069,25.5309015 C58.205,23.4679015 57.421,21.6459015 56.739,19.8029015 C56.592,19.4099015 55.933,18.9889015 55.502,18.9805812 C55.052,18.9719015 54.439,19.3369015 54.162,19.7259015 C52.868,21.5459015 52.555,23.6149015 52.448,25.8419015 C52.154,31.9239015 53.545,37.9589015 52.863,44.0509015 C52.809,44.5349015 53.593,45.2489015 54.144,45.6319015 C54.838,46.1139015 55.565,45.6749015 56.022,45.1179015 C56.458,44.5839015 56.992,43.8959015 56.991,43.2759015 C56.983,38.9519015 58.729,34.7729015 58.047,31.2159015 C58.047,28.7779015 57.962,27.1479015 58.069,25.5309015 M55.589,6.86840243 C49.986,6.85290151 45.776,7.59290151 41.789,9.50490151 C40.329,10.2049015 38.782,10.7199015 37.283,11.3429015 C32.823,13.1999015 28.955,15.7139015 27.096,20.4859015 C26.769,21.3259015 26.215,22.0769015 25.897,22.9189015 C23.372,29.5749015 23.293,35.9609015 27.972,41.8519015 C28.862,42.9729015 29.492,44.2129015 30.858,44.9849015 C33.84,46.6709015 36.676,48.6129015 39.617,50.3729015 C41.201,51.3199015 41.897,52.6569015 41.76,54.4339015 C41.677,55.5069015 41.525,56.5849015 41.279,57.6309015 C40.824,59.5589015 40.254,61.4609015 39.797,63.3879015 C39.735,63.6499015 40.02,64.0199015 40.208,64.2959015 C40.263,64.3769015 40.575,64.3699015 40.71,64.2949015 C41.966,63.5939015 43.219,62.8859015 44.452,62.1459015 C46.777,60.7509015 49.074,59.3109015 51.408,57.9339015 C52.858,57.0789015 54.256,56.8969015 56.02,57.4889015 C58.975,58.4809015 62.151,58.2989015 65.128,57.4919015 C67.545,56.8369015 69.805,55.6069015 72.142,54.6479015 C76.504,52.8569015 79.581,49.4689015 82.334,45.8929015 C83.824,43.9589015 84.684,41.5439015 85.367,39.0269015 C86.179,36.0359015 85.672,33.3819015 85.268,30.5149015 C84.117,22.3579015 79.544,16.4789015 72.864,12.3229015 C67.3,8.86190151 60.949,7.30690151 55.589,6.86840243 M91.966,33.9939015 C92.191,38.6889015 90.415,42.7959015 88.418,46.8929015 C86.564,50.6999015 83.783,53.8189015 81.106,56.9729015 C78.63,59.8899015 75.445,61.9719015 71.45,62.5149015 C68.773,62.8799015 66.159,63.6569015 63.42,63.6429015 C61.07,63.6309015 58.754,63.7629015 56.47,62.8239015 C54.559,62.0389015 52.624,62.3119015 50.742,63.4059015 C47.305,65.4019015 43.773,67.2349015 40.276,69.1289015 C39.32,69.6469015 38.368,70.1789015 37.384,70.6369015 C35.26,71.6239015 34.106,71.3319015 32.687,69.4699015 C32.128,68.7359015 31.827,67.9819015 32.131,66.9669015 C32.959,64.2019015 33.48,61.3339015 35.46,59.0429015 C35.92,58.5089015 36.112,57.7519015 36.494,57.1399015 C36.991,56.3459015 36.694,55.7359015 36.029,55.3509015 C33.216,53.7229015 30.411,52.0749015 27.527,50.5809015 C24.867,49.2029015 22.746,47.2399015 21.292,44.7119015 C19.026,40.7749015 16.966,36.6379015 17.667,31.9009015 C18.464,26.5069015 20.311,21.4779015 23.299,16.8319015 C28.62,8.56190151 38.969,2.26990151 49.179,0.443901511 C54.228,-0.458098489 59.356,0.0199015112 64.143,1.82890151 C69.707,3.93190151 75.24,6.23590151 79.926,10.0809015 C86.02,15.0829015 89.784,21.5519015 91.695,29.1159015 C92.085,30.6659015 91.891,32.3639015 91.966,33.9939015" id="Fill-1"></path>
            </g>
        </g>
    </g>
</svg>