<svg xmlns="http://www.w3.org/2000/svg" viewBox="0 0 626.371 681.508"><title>waterfall</title><g id="Layer_2" data-name="Layer 2"><g id="Untitled_Artwork_14_Image" data-name="Untitled_Artwork 14 Image"><path d="M404.335.207c17.206.84,37.339,1.767,57.464,2.838,6.888.366,13.673,1.221,20.068,4.309,3.594,1.735,6.182,4.429,8.695,7.247,2.083,2.335,1.415,5.457.327,7.776-5.1,10.867-8.565,22.365-13.312,33.353a63.49,63.49,0,0,1-19.236,25.25,10.935,10.935,0,0,0-1.307.971c-7.363,7.858-16.982,9.741-27.13,10.489A215.483,215.483,0,0,1,383.3,90.517c-7.873-1.128-15.967-.4-23.925.379a116.979,116.979,0,0,1-28.2-.794c-5.322-.767-9.988-3.359-14.668-5.606-5.512-2.646-11.077-5.463-15.706-9.632a56.947,56.947,0,0,0-11.675-7.956c-4.2-2.215-8.266-4.538-11.614-7.964-.939-.961-1.691-1.265-2.139.5-1.611,6.353-2.76,12.727-2.314,19.346.256,3.8.062,7.623.063,11.436a103.734,103.734,0,0,0,1.057,17.912,90.04,90.04,0,0,1,1,11.37c.1,2.266.682,3.626,3.174,4.224a81.549,81.549,0,0,1,19.089,7.692c5.276,2.8,11.041,4.7,15.741,8.563,1.034.85,2.369.844,3.592,1.159a16.409,16.409,0,0,1,10.886,9.113c1.711,3.4,3.67,6.673,5.327,10.1a12.774,12.774,0,0,0,7.042,6.483c3.412,1.331,5.681,3.792,7.8,6.522,1.66,2.141,2.759,4.689,4.827,6.547a4.781,4.781,0,0,1,1.2,2.948c1.241,6.993,1.18,14.081,1.6,21.13.193,3.2-1.846,5.308-4.069,7.31-9.67,8.714-20.769,15.664-30.214,24.674-4.094,3.9-9.406,5.957-14.7,7.8-7.7,2.678-15.429,5.273-23.128,7.953-4.145,1.443-4.2,1.516-4.23,5.746-.025,3.985.106,7.97.117,11.956.005,1.628.809,2.347,2.348,2.248,15.287-.983,29.156,5.211,43.57,8.626,3.876.919,7.624,2.3,11.408,3.568a54.071,54.071,0,0,0,34.809.084c12.042-4,23.982-8.337,35.989-12.466a122.222,122.222,0,0,1,23.335-5.13c8.214-1.129,6.589.3,6.9-7.6.226-5.812-.684-11.556-.737-17.345-.019-2.093-.914-2.866-3.108-2.388a17.213,17.213,0,0,1-4.877.191c-4.258-.318-5.588-3.137-3.091-6.753a43.024,43.024,0,0,1,5.787-7.206c3.345-3.111,6.161-6.652,9.165-10.043a59.33,59.33,0,0,1,13.434-11.777,18.938,18.938,0,0,0,3.64-2.372c6.042-6,13.7-6.171,21.2-5.2a77.168,77.168,0,0,0,21.137.288,22.9,22.9,0,0,1,4.351-.115c9.082.437,18.14-.184,27.211-.418,8.832-.228,11.818,1.429,15.833,10.369,2.6,5.787,4.933,11.692,7.534,17.477a44.739,44.739,0,0,1,3.122,9.815c.789,4.028.806,4.763-2.887,6.368-2.591,1.126-2.96,2.456-2.611,4.935a39.533,39.533,0,0,1-.143,10.839,57.8,57.8,0,0,0-.2,6.524,2.932,2.932,0,0,0,1.81,2.99c4.872,2.483,8.971,6.162,13.576,9.052a122.129,122.129,0,0,0,11.914,6.527c8.4,4.042,13.871,10.918,18.567,18.592,3.218,5.258,6.256,10.613,8.99,16.15a24.179,24.179,0,0,0,4.16,5.683,81.679,81.679,0,0,1,10.884,14.945c3.932,6.737,4.808,14.433,3.672,22.174-2.025,13.8-4.245,27.564-6.354,41.348-.63,4.117-1.321,8.235-1.693,12.379a19.052,19.052,0,0,1-5.566,12.074c-10.81,11.019-22,21.509-35.854,28.787-6.853,3.6-14.384,4.8-21.614,7.067-10.1,3.171-20.667,3.674-30.971,5.654a133.84,133.84,0,0,1-15.651,1.644,39.343,39.343,0,0,1-7.054-.222c-5.25-.572-10.432-.9-15.676.357-6.011,1.441-12.256,1.31-18.315.935-7.94-.49-15.9-.872-23.831-1.566a71.078,71.078,0,0,1-21.982-5.865,41.476,41.476,0,0,0-11.395-3.479,65.175,65.175,0,0,1-11.577-2.9,107.791,107.791,0,0,0-38.548-4.74c-14.112.751-28.235.891-42.314-1.471-11.955-2-24.03-3.311-36.066-4.811-4.017-.5-4.089-.34-4.213,3.888a124.794,124.794,0,0,1-3.364,23.617,12.918,12.918,0,0,0-.433,2.658c-.066,6.9-.731,13.758-1.461,20.609-.217,2.042.468,2.841,2.676,2.887,8.165.173,16.325.56,24.486.867,1.634.062,3.278.038,4.9.209,4.79.5,8.938,1.842,12.3,5.921,3.893,4.725,9.307,8.09,12.776,13.311,1.305,1.964,2.894,3.753,4.072,5.785q6.139,10.6,13,20.741c3.288,4.862,3.788,10.713,3.806,16.24.039,12.356-1.325,24.609-6.1,36.213-.483,1.173-1.011,2.33-1.574,3.467-2.707,5.467-4.355,11.167-3.738,17.336.72,7.2-1.974,13.365-6.7,18.331-4.535,4.762-8.149,10.181-12.224,15.253a85.837,85.837,0,0,1-17.086,15.75c-3.969,2.863-8.146,5.406-12.186,8.142a26.9,26.9,0,0,1-15.847,4.737,129.465,129.465,0,0,0-21.672,1.282,81.379,81.379,0,0,1-22.259.452c-8.779-1.016-16.6-4.134-22.876-11.017a144.535,144.535,0,0,1-10-11.434,23.8,23.8,0,0,0-16.741-10.043c-9.347-1.212-18.644-2.766-28.076-3.372-5.958-.384-11.887-1.359-17.8-2.261-8.237-1.257-16.452-2.658-24.664-4.066a32.908,32.908,0,0,1-13.781-6.052c-3.82-2.755-7.866-5.2-11.811-7.781A53.584,53.584,0,0,1,67.8,607.585c-6.842-11.567-14.84-22.4-21.328-34.167-3.514-6.375-6.812-12.8-7.339-20.315a34.335,34.335,0,0,1,2.143-14.933c3.187-8.286,9.335-14.213,16.33-19.226,4.62-3.311,10.289-3.365,15.735-3.517,6.173-.171,12.356-.076,18.533.01a13.169,13.169,0,0,0,7.641-2.16c10-6.347,21.4-8.771,32.807-11.016,7.534-1.484,15.2-1.093,22.832-1.02a10.1,10.1,0,0,1,2.707.243c11.463,3.361,23.4,5.243,34.087,11.025a20.078,20.078,0,0,0,11.462,2.665c4.139-.357,8.214,1.1,12.434.237,6.026-1.232,11.548-3.453,15.786-7.928,4.128-4.359,9.856-5.955,14.582-9.233.14-.1.356-.078.521-.15,1.429-.62,3.6.791,4.379-1.085.587-1.424.208-3.224.395-4.841a183.91,183.91,0,0,0,1.6-23.264c-.042-3.659.089-7.286-1.233-10.717-1.451-3.766-.391-7.559-.5-11.336-.086-2.961-.031-3.022-2.771-2.805a132.537,132.537,0,0,0-15.094,1.792c-14.283,2.8-28.371,1.548-42.469-2.011-14.477-3.653-28.357-8.906-42.152-14.422a101.62,101.62,0,0,1-18.787-9.658,6.335,6.335,0,0,1-2.8-3.108,26.719,26.719,0,0,1-1.531-5.762,51.019,51.019,0,0,0-2.274-11.161,22.477,22.477,0,0,1-1.074-7.52c0-4.335.913-8.618.619-12.988a9.646,9.646,0,0,1,1.635-5.1A52.682,52.682,0,0,1,135.853,360.2c9.228-8.281,17.58-17.361,23.043-28.685a36.647,36.647,0,0,1,15.879-16.593c8.416-4.634,16.6-9.687,24.87-14.589a43.134,43.134,0,0,1,13.6-5.421c8.168-1.622,15.364-5.426,22.245-9.854a131.308,131.308,0,0,1,18.614-10.124c1.844-.8,2.666-1.805,2.213-3.656-.7-2.873-.265-5.777-.431-8.661-.2-3.481-.5-3.968-3.7-3.639a82.942,82.942,0,0,1-10.327-.007,177.008,177.008,0,0,1-31.854-3.15c-15.413-3.169-31.247-4.273-46.2-9.779a151.3,151.3,0,0,1-14.356-6.432,22.168,22.168,0,0,0-17.411-1.357,62.021,62.021,0,0,0-11.488,4.828c-5.174,2.936-10.766,5.133-16.152,7.7A207.509,207.509,0,0,1,74.18,262.623a34.136,34.136,0,0,1-12.721,1.387c-6.862-.542-13.748-.985-20.627-1.418a16.92,16.92,0,0,1-6.338-1.381c-6.059-2.875-12.219-5.55-18.174-8.626A27.509,27.509,0,0,1,3.356,238.411a37.246,37.246,0,0,1-3.273-17.4C.59,213.968,1.355,206.983,2.308,200a29.217,29.217,0,0,1,4.155-11.7c2.684-4.309,5.236-8.7,7.946-12.994a28.053,28.053,0,0,1,6.779-7.74c.865-.648,1.548-1.534,2.387-2.223,4.951-4.073,6.933-8.984,6.67-15.667-.392-9.935-.411-19.908-.592-29.865a171.08,171.08,0,0,1,.922-19.547c.56-5.8.307-11.613.31-17.423,0-2.3-.369-3.612-3.327-3.5-3.073.118-3.888-1.82-2.537-4.735,3.436-7.41,6.808-14.845,12.5-20.927A8.681,8.681,0,0,0,39.5,49.854c.939-4.052,4.079-6.816,5.792-10.4.774-1.621,2.514-1.97,4.092-2.425a38.08,38.08,0,0,1,10.259-1.214,319.211,319.211,0,0,0,40.73-2.737,26.874,26.874,0,0,1,12.839,1.593,17.711,17.711,0,0,1,6.837,4.3c7.133,7.25,14.167,14.6,21.732,21.414,3.054,2.752,2.807,3.93-.8,5.98a12.349,12.349,0,0,1-6.182,1.831c-1.364,0-1.93.817-1.647,2.152,1.973,9.3,1.091,18.817,2.012,28.212.633,6.453.2,13.042-.16,19.547-.2,3.632-.32,7.255-.224,10.876.112,4.211.44,4.623,4.489,5.364,7.315,1.338,14.694,2.337,21.986,3.78,8.408,1.665,16.983,1.506,25.424,2.711a12.08,12.08,0,0,0,6.958-.747c6.61-3.094,13.7-3.424,20.779-3.481a26.448,26.448,0,0,0,13.394-3.754c6.129-3.512,12.813-5.956,19.438-8.443,1.76-.662,3.613-.262,5.39-.578,2.572-.457,3.26-1.286,3.05-4.049-.358-4.7-.818-9.4-1.342-14.08-1.437-12.84-1.21-25.711-.58-38.57.357-7.289,3.245-14.114,4.547-21.246,1.037-5.678,1.7-11.461,3.979-16.836,1.466-3.464,2.49-7.346,7.043-8.306a4.18,4.18,0,0,0,2.047-1.7c2.653-3.61,6.514-5.028,10.611-6.119,20.446-5.444,41.348-7.852,62.381-9.355,11.224-.8,22.459-1.358,33.639-2.8C385.76-.227,393.6-.065,404.335.207ZM54.006,572.815c.106.74.383,1.3,1.279,1.187-.827,2.314.948,3.771,1.994,5.292,4.824,7.025,10.239,13.676,14.646,20.945,4.748,7.83,11.11,13.77,18.548,18.77,3.913,2.63,7.988,5.019,11.895,7.658a26.734,26.734,0,0,0,11.02,4.388c10.029,1.567,20.084,2.845,30.181,3.931,8.636.929,17.178,2.764,25.739,4.323a18.3,18.3,0,0,0,7.569.089c5.224-1.252,10.471-.862,15.708-.541,9.123.558,18.071.125,26.854-2.838,7.669-2.587,15.451-2.648,22.67,1.468,6.036,3.441,12.328,3.927,18.927,2.8a15.333,15.333,0,0,1,5.917-.12,16.643,16.643,0,0,0,5.922-.063,17.877,17.877,0,0,1,10.563,1.7,3.053,3.053,0,0,1,1.823,3.972c-.552,2.169-2.169,1.566-3.5,1.313a12.909,12.909,0,0,1-3.544-1.28c-2.656-1.4-5.448-1.624-8.408-1.744a70.973,70.973,0,0,0-16.2,1.577c-4.194.8-8.595.912-12.31-.862-5.968-2.851-11.582-1.942-17.441-.282-4.347,1.232-8.627,2.7-13.247,2.9-2.414.1-4.971-.923-7.281.577a54.133,54.133,0,0,0,4.532,5.208c2.985,2.69,4.635,6.6,7.767,8.977,6.753,5.132,14.213,8.74,23.036,8.463,5.257-.165,10.523-.122,15.772-.416,10.949-.612,21.635-2.281,31.308-8.034a57.008,57.008,0,0,1,8.4-3.839,39.345,39.345,0,0,0,17.083-13.041c3.2-4.171,6.286-8.432,9.421-12.654.421-.567,1.176-1.257.659-1.851-.339-.389-1.369-.345-2.051-.242-5.643.854-11.219.1-16.8-.634a15.028,15.028,0,0,1-8.42-3.508c-4.011-3.629-3.335-9.333,1.5-11.732a23.03,23.03,0,0,1,7.758-2.325,111.968,111.968,0,0,1,17.884-1.042,75.9,75.9,0,0,0,7.615-.326,2.8,2.8,0,0,0,2.913-1.975,199.964,199.964,0,0,0,5.335-19.932c.166-.845.329-2.195-.112-2.543-.762-.6-1.583.4-2.258.933a45.481,45.481,0,0,1-15.4,7.832,73.275,73.275,0,0,0-14.069,5.713,30.716,30.716,0,0,1-12.936,3.41c-4.585.278-9.015-.76-13.538-.52a79.221,79.221,0,0,1-28.932-3.8,78.564,78.564,0,0,0-18.174-3.164c-7.457-.585-14.86.5-22.267-.007-3.891-.267-6.061.76-7.595,4.777a19.871,19.871,0,0,1-14.415,12.863c-5.98,1.431-11.853,3.127-17.252,6.215a25.646,25.646,0,0,1-5.978,2.575c-8.373,2.245-16.773,4.322-25.514,4.755a24.041,24.041,0,0,1-11.074-1.923,160.924,160.924,0,0,1-17.173-9.294c-3.659-2.158-4.8-5.292-4.233-9.174a17,17,0,0,1,2.018-6.15c.92-1.581.395-2.073-1.347-2.3-8.267-1.088-16-4.169-23.957-6.459a34.9,34.9,0,0,1-13.166-7.3c-4.681-3.989-9.178-8.239-14.52-11.394l-1.244-1.164-1.528-.773c-.3-.581-.206-.53.135-.084ZM519.925,203.9l.414-.36-.353.294a34.114,34.114,0,0,0,3.5,2.469c2.425,1.308,3.427-1.174,5.006-2.095.248-.146.53-.774.448-.866-1.117-1.242-2.565-.441-3.833-.431C523.36,202.924,521.484,202.715,519.925,203.9ZM37.508,69.453c4.315-.391,8.648-1.244,12.943-1.084C62.821,68.831,75,66.592,87.3,66.22a2.866,2.866,0,0,0,2.917-1.9c.422-1,1.016-1.917,1.532-2.872.087-.159.168-.321.249-.483.347-.694.446-1.408-.3-1.861-.539-.328-1.005.129-1.455.434-7.164,4.85-11.861,5.349-17.2,1.171-1.969-1.541-2.787-1.733-4.756.017-3.861,3.431-7.33,3.389-10.45-.156-1.675-1.9-2.453-1.574-4.25-.428a8.689,8.689,0,0,1-8.283,1c-1.126-.467-1.781-2.253-3.039-1.779-1.39.524-1.567,2.34-2.2,3.613-1.033,2.066-2.712,3.889-2.621,6.42-.583.434-.269-.584-.467.115-.119.421,0,.541.431.412C38.1,69.708,37.079,70.04,37.508,69.453ZM75.99,236.425c-5.06-.548-10,.765-14.963,1.261-8.1.809-6.917-.538-7.007,7.954-.006.543.007,1.085.011,1.628.055,7.525.055,7.48,7.856,7.554,3.64.034,7.187-.077,10.606-1.635,1.987-.906,3.23-1.827,3.141-4.333-.146-4.145.121-8.3.215-12.458l-.225-.119Zm180.932,66.634c1.028-5.8-.112-11.923-.419-18.059-.088-1.749-.951-2.257-2.467-1.089-1.006.776-2.077,1.472-3.066,2.269-4.786,3.858-9.455,7.87-14.355,11.578-5.985,4.529-12.533,7.69-20.225,8.458-14.009,1.4-27.014,6.063-39.451,12.608-6.1,3.209-10.514,7.684-12.9,14.068-2.515,6.73-6.613,12.474-10.795,18.192-4.743,6.482-10.661,11.85-16.444,17.343-2.138,2.032-3.876,4.151-4.039,7.352-.075,1.478.18,2.5,1.342,3.24,5.5,3.51,10.363,8.157,16.578,10.37,6.336,2.255,12.256,5.473,18.576,7.667,7.513,2.609,15.037,5.069,23.28,4.783,9.7-.337,19.042-2.667,28.351-4.755,8.473-1.9,16.968-3.814,25.425-5.836a45.087,45.087,0,0,1,25.725,1.067,56.655,56.655,0,0,0,23.041,3.162,47.571,47.571,0,0,1,5.988.135c6.33.308,12.655.8,18.987.937,13.047.273,26.118-.456,39.094,1.835,4.518.8,8.937,1.677,12.961,3.853a23.14,23.14,0,0,0,11.5,2.637,76.517,76.517,0,0,1,26.195,3.972,67.886,67.886,0,0,0,25.127,4.132c4.378-.167,8.651.863,12.923,1.693,9.1,1.768,18.267,3.341,27.553,2.451a197.871,197.871,0,0,1,23.379-.823,134.648,134.648,0,0,0,27.105-1.735c3.943-.713,7.869-1.462,11.874-1.085a46.215,46.215,0,0,0,24.906-4.184c9.55-4.6,18.127-10.075,24.148-19.473,4.471-6.978,7.439-14.491,10.782-21.889a99.134,99.134,0,0,0,7.241-22.174c1.588-8.323,1.018-16.234-4.977-23.007a18.019,18.019,0,0,1-4.2-9.318c-.768-5.044-3.623-8.686-7.467-11.57a72.876,72.876,0,0,0-10.516-6.735,86.832,86.832,0,0,1-20.727-14.652,11.635,11.635,0,0,0-2.1-1.7,1.064,1.064,0,0,0-1.671.707,7.317,7.317,0,0,0-.151,2.149c.493,10.309,1.03,20.616,1.49,30.926.071,1.6.822,2.037,2.265,2.393,4.728,1.167,8.117,3.879,9.379,8.826a12.693,12.693,0,0,0,1.153,2.454,55.547,55.547,0,0,1,6.21,30.506c-.607,6.619-.509,13.248-2.647,19.837-2.848,8.778-8.136,13.966-17.233,14.642-5.06.376-10.111.909-15.151,1.5-8.228.966-16.174.738-23.774-3.351-2.654-1.428-4.325-3.036-5.058-5.85a85.149,85.149,0,0,1-2.167-11.751c-.193-1.672-.87-2.656-2.776-2.524-5.21.362-10.427.636-15.641.953-2.5.152-4.932.72-7.367-.77-7.872-4.818-15.85-9.464-23.776-14.2-6.225-3.717-12.4-7.513-18.662-11.171a7.009,7.009,0,0,1-3.857-6,120.1,120.1,0,0,1-.053-22.186c1.143-12.239,1.552-24.538,1.869-36.835.057-2.226-.758-2.524-2.419-2.374-4.859.441-9.789.549-14.554,1.482A223.214,223.214,0,0,0,383.2,288.611a85.054,85.054,0,0,1-34.57,5.785c-4.028-.171-8.112-.452-11.8-1.809-8.7-3.2-17.775-4.932-26.63-7.5-8.876-2.568-17.829-4.936-27.169-5.21-4.194-.123-4.381-.076-4.452,4-.091,5.265.345,10.614-1.1,15.716-1.579,5.569-.764,11.184-1.062,16.775-.089,1.666.46,2.627,2.406,2.821a113.581,113.581,0,0,1,12.389,1.729c7.641,1.628,15.345,2.736,23.08,3.774a47.141,47.141,0,0,1,17.521,5.621c7.782,4.491,9.539,8.025,8.222,16.73-.081.539-.093,1.091-.213,1.62-1.112,4.873-3.729,8.664-8.359,10.7a33.941,33.941,0,0,1-13.175,3.135c-11.415.168-22.836.346-34.248.158-7.226-.119-14.525-.132-21.615-1.84a86.361,86.361,0,0,0-20.992-2.439c-9.964.076-19.913,1.138-29.888.474-5.076-.338-10.117-.879-14.306-4.184-5.294-4.178-5.782-10.067-1.35-15.157a27.112,27.112,0,0,1,5.3-4.659,10.618,10.618,0,0,0,3.986-4.371c3.966-8.818,11.358-12.2,20.444-12.932a29.777,29.777,0,0,0,5.388-.681c5.2-1.411,10.443-1.068,15.7-.738,1.084.068,2.164.345,3.243.334,5.03-.046,6.978-2.051,6.969-7.059C256.919,307.415,256.922,305.418,256.922,303.059ZM82.034,521.277c-4.72,0-9.444-.13-14.157.038a15.691,15.691,0,0,0-11.235,4.821c-6.3,6.692-9.688,14.228-7.434,23.766,1,4.243,2.57,7.755,5.86,10.687,6.663,5.936,14.4,10.457,21.142,16.28a16.451,16.451,0,0,0,5.257,2.8c7.525,2.651,15.047,5.475,22.923,6.8a233.172,233.172,0,0,0,35.726,3.62c11.076.14,22.161-.044,33.236-.348q26.984-.739,53.905,1.038c15.561,1.014,31.029,3.377,46.571,4.778,11.3,1.018,22.464.347,32.871-5.063,3.861-2.007,7.888-3.7,11.872-5.466a40.431,40.431,0,0,0,12.13-8.1c3.713-3.628,5.888-7.717,5.917-12.866a40.213,40.213,0,0,1,.274-4.322c1.161-10.323-.459-19.823-7.958-27.729a37.729,37.729,0,0,1-6.338-9.491,46.9,46.9,0,0,0-9.33-13.2c-2.488-2.434-5.006-4.016-8.572-3.921-4.713.125-9.431.015-14.147.056-5.438.048-10.876.181-16.314.215-1.951.012-3.176.79-3.266,2.8-.2,4.583-1.895,8.843-2.777,13.276-.816,4.1.329,6.612,4.017,8.494a17.987,17.987,0,0,0,6.2,1.783c4.338.508,8.681.4,13.014.682,8.3.53,16.839,9.1,17.513,17.4.223,2.75.219,5.472-1.16,7.967-3.809,6.89-8.809,12.265-16.928,14.112-4.8,1.091-9.591,2.125-14.5,1.743a145.3,145.3,0,0,1-25.16-4.262c-5.77-1.494-11.344-4.154-17.382-4.158-13.44-.01-26.71-2.679-40.161-2.331a26.725,26.725,0,0,1-4.892-.245,42.78,42.78,0,0,0-19.319,1.6c-11.614,3.491-23.513,4.333-35.541,3.961-12.7-.393-24.24-3.992-34.015-12.49-3.3-2.865-3.992-5.179-2.067-8.985a9.475,9.475,0,0,1,3.1-3.721c10.131-6.853,20.9-11.957,33.53-10.147a30.716,30.716,0,0,0,13.89-1.385,32.022,32.022,0,0,1,12.87-1.326q11.089,1.069,22.216,1.733c5.423.33,10.93,1,16.281.419,11.008-1.19,21.912-3.271,32.178-7.686,4.009-1.725,7.956-2.608,12.031-.572,2.069,1.033,2.561-.112,2.9-1.71.854-4,1.737-8,2.511-12.013.332-1.72-.454-2.385-2.074-1.578-5.34,2.657-10.762,5.212-15.828,8.332a23.918,23.918,0,0,1-9.5,3.655c-7.4.963-14.922,1.4-22.259.187a316.027,316.027,0,0,1-40.138-9.567,25.653,25.653,0,0,0-6.88-1.455c-14.595-.276-29.1.984-42.739,6.334C100.782,520.1,91.926,523.2,82.034,521.277Zm54.28-361.06c0,6.136.12,10.669-.038,15.193-.123,3.507-1.418,6.4-5.374,7.093a10.88,10.88,0,0,0-3.9,1.875,57.009,57.009,0,0,1-12.2,5.873c-6.685,2.285-13.406,4.466-20.116,6.679-1.029.339-2.183,1.053-3.1.839-5.375-1.251-10.774-.189-16.117-.123-11.571.142-23.155-.492-34.727.489-5.96.506-8.132-1.748-8.446-7.821-.243-4.685-1.215-9.306-1-14.04.11-2.4-.8-2.706-2.987-1.222-3.486,2.367-6.169,5.6-9.086,8.576a12.069,12.069,0,0,0-3.361,9.966c.584,7.023,2.326,13.536,7.128,18.979a37.29,37.29,0,0,1,3.37,4.921,15.488,15.488,0,0,0,8.935,6.688,27.1,27.1,0,0,0,7.99,1.534c9.811-.034,19.6-.447,29.141-3.084,3.848-1.064,7.641-2.34,11.514-3.3a46.333,46.333,0,0,0,13.117-5.122c8.419-5.122,17.871-7.959,26.6-12.4,3.345-1.7,7.214-2.354,10.962-3.119a16.241,16.241,0,0,1,10.095,1.146,347.028,347.028,0,0,0,42.342,15.579,160.32,160.32,0,0,0,40.692,6.713c21.167.713,41.544-3.83,61.152-11.336,12.487-4.781,25.376-8.676,37.021-15.643a33.718,33.718,0,0,0,12.318-11.892c3.059-5.167,3.052-6.725-1.152-10.809-5.857-5.688-11.731-11.333-15.458-18.788a8.862,8.862,0,0,0-2.6-2.718c-4.749-3.688-9.827-6.792-15.7-8.392a39.252,39.252,0,0,1-11.8-5.444c-4.049-2.741-8.264-5.244-12.456-7.77-2.305-1.389-2.823-1.118-2.716,1.6.276,7.054.7,14.1,1.058,21.154.18,3.571.158,3.633,4,4.478a41.853,41.853,0,0,1,12.2,4.5A29.976,29.976,0,0,1,306.753,176.5a9.427,9.427,0,0,1-1.29,9.7c-2.95,4.034-7.21,5.911-11.465,7.866-6.476,2.977-13.607,3.66-20.379,5.629-11.687,3.4-23.55,5.671-35.857,4.892-9.228-.584-18.322-1.577-27.154-4.578-5.65-1.92-11.254-4-17.166-5.164-5.03-.986-8.717-4.029-11.486-8.443-2.271-3.621-2.509-7.457-2.382-11.461.282-8.878,5.19-15.524,13.474-18.32,1.025-.345,1.992-.869,3.022-1.191,7.282-2.273,14.659-4.514,22.349-3.035a67.266,67.266,0,0,0,12.974.979,77.212,77.212,0,0,1,9.764.685c4.123.516,8.143,1.72,12.375,1.585,2.218-.07,3.342-.6,3.285-3.039-.128-5.435.37-10.871-.114-16.313-.59-6.633-.562-6.661-6.584-3.908-.658.3-1.265.716-1.922,1.02-12.089,5.587-24.332,10.515-38.1,8.919-.538-.062-1.094.037-1.634-.017a30.863,30.863,0,0,0-12.888,1.515c-9.363,3.12-18.959,3.137-28.463,1.613-9.524-1.527-19.126-1.686-28.664-2.733-1.894-.208-2.923.357-2.519,2.307C137.082,150.6,136.042,156.224,136.314,160.217ZM398.036,45.491V45.6c7.99,0,16-.376,23.965.088,12.109.705,23.894-.949,35.528-3.912a30.014,30.014,0,0,0,10.613-5.133c2.748-2.075,5.345-4.356,7.957-6.607a17.828,17.828,0,0,0,4.558-5.38c1.437-2.9,1.436-4.717-1.766-6.206a63.114,63.114,0,0,0-9.124-3.492c-11.781-3.4-23.963-3.4-36.047-4.126-11.918-.719-23.867-.988-35.767-1.909a164.655,164.655,0,0,0-19.018-.494c-7.244.278-14.468,1.35-21.708,1.431a262.1,262.1,0,0,0-47.471,5.176,205.84,205.84,0,0,0-32.992,8.871,10.164,10.164,0,0,0-6.166,6.283,17.5,17.5,0,0,0-.976,3.682,102.627,102.627,0,0,1-2.9,12.166c-2.335,7.826-4.13,15.793-5.731,23.8-.353,1.767-1.212,3.382-1.144,5.288.294,8.141.3,16.3.721,24.43.6,11.589,1.736,23.156,2.128,34.749.34,10.106.685,20.2-.088,30.37-.488,6.419-.369,12.994-.531,19.5-.224,8.977-1.788,8.341,7.9,6.327,1.827-.38,2.744-1.149,2.946-3.2.87-8.83,2.5-17.652-.7-26.374a4.493,4.493,0,0,1-.052-1.626c.2-5.813-.454-11.58-.91-17.36-.782-9.935-1.574-19.87-2.247-29.813-.575-8.5-2.267-16.881-2.524-25.42-.317-10.544-.36-20.979,2.99-31.223,1.415-4.327,3.868-8.2,4.966-12.574,1-3.963,3.739-5.527,7.283-6.25a26.045,26.045,0,0,1,9.173-.487c16.688,2.475,33.357,5.116,50.179,6.563a65.171,65.171,0,0,1,10.207,1.553,49.968,49.968,0,0,0,12.434,1.223C375.161,45.446,386.6,45.491,398.036,45.491ZM38.634,172.6c0,4.171.027,8.343-.012,12.515-.02,2.226.845,3.426,3.226,3.237,1.084-.086,2.179-.053,3.268-.06,9.8-.063,19.605-.4,29.394.538,3.609.347,7.248.472,10.876.515,3.172.037,3.341-.154,3.216-3.468-.308-8.144-.86-16.278-1.214-24.421-.2-4.7-.2-9.385-.235-14.069-.047-6.792-1.331-13.57-.243-20.373a25.7,25.7,0,0,0,.613-4.3c-.164-13.059.343-26.112.338-39.162,0-6.556.427-6.478-6.3-6.385-7.785.108-15.538,1.278-23.341,1.037-5.834-.179-11.557,1.013-17.363,1.185-3.075.091-3.331.629-3.256,3.641.046,1.805.567,3.52.518,5.382-.153,5.772-.2,11.57.174,17.328a172.746,172.746,0,0,1,.248,21.747C37.612,142.541,38.994,157.57,38.634,172.6ZM490.955,333.487c-.116,10.5.639,19.529,1.343,28.558.11,1.411.585,1.94,1.988,1.643a74.429,74.429,0,0,1,9.578-1.861c2.585-.2,3.384-1.38,3.741-3.613,1.011-6.329,3.471-12.151,6.4-17.806,3.24-6.255,8.084-10.093,15.333-10.4a5.317,5.317,0,0,0,5.035-3.49,8.408,8.408,0,0,1,.474-.979c2.7-4.586,4.063-10.246,10.083-12.128,1.275-.4.9-1.848.892-2.862q-.25-19.821-.578-39.642c-.069-4.325-.66-8.7-.151-12.957.565-4.724.04-9.43.549-14.117.228-2.109-.863-2.9-2.856-3-11.037-.553-22.1-1-33.1.075-4.893.476-9.739,1.039-14.613.492-2.552-.286-3.236.761-3.19,2.981.019.9-.133,1.8-.2,2.707-.727,9.382.371,18.789-.4,28.18a49.375,49.375,0,0,0,.146,9.785c1.174,9.923.465,19.874.259,29.779C491.545,321.511,491.635,328.253,490.955,333.487ZM256.566,503.09c.648,4.9-1.025,10.055-1.029,15.312,0,3.91-1.45,7.46-2.419,11.129a5.042,5.042,0,0,1-4.789,3.828c-3.951.34-7.99,1.024-11.864.54a19.661,19.661,0,0,0-12.047,2.132,24.711,24.711,0,0,1-5.114,1.82c-7.872,2.078-15.659,5.049-23.946,4.4-10.826-.843-21.732-1.364-32.305-4.15a20.5,20.5,0,0,0-12.82.43,37.115,37.115,0,0,1-19.224,2.044c-9.9-1.558-17.784,3.845-26.1,7.7a3.885,3.885,0,0,0-.807.726c-1.134,1.014-1.417,1.939-.028,3.073,6.182,5.045,12.969,8.666,21.105,9.214,1.448.1,2.9.128,4.344.259,11.092,1.009,22.193.741,32.976-1.938,9.573-2.379,19.073-4.288,28.984-3.787,7.246.366,14.511-1.122,21.75,0,5.593.866,11.222.736,16.827.675a52.341,52.341,0,0,1,17.683,2.473c10.051,3.427,20.485,4.707,31,5.431,9.662.664,17.234-3.076,22.839-10.987a6.95,6.95,0,0,0,.869-7.149c-2.67-6.758-6.538-9.578-13.834-8.759-5.443.611-10.845-.578-16.266.332a16.115,16.115,0,0,1-5.941-.487c-4.2-.928-7.478-2.968-5.919-8.822,1.664-6.249,3.12-12.606,2.966-19.261-.286-12.328,2.937-24.482,2.156-36.866a11.989,11.989,0,0,1,.378-2.135c.947-7.373,2.038-14.731,2.768-22.126.6-6.084.33-6.178-5.838-5.653-3.618.307-3.739.378-3.82,3.8-.044,1.811.118,3.627.178,5.441.2,5.953.682,11.881.091,17.865C258.282,480.607,257.506,491.65,256.566,503.09ZM485.284,247.026c.75-3.346.71-6.437-2.934-8.216-.613-.3-.914-1.546-1.075-2.408-.588-3.146-2.345-5.626-4.2-8.117A102.9,102.9,0,0,1,467.4,213.2c-1.377-2.731-3.225-5.225-4.859-7.826-2.834,1.259-4.432,4.036-6.962,5.676a16.446,16.446,0,0,0-2.064,1.75c-2.939,2.694-5.96,5.306-8.759,8.137-1.512,1.53-3.1,3.506-1.885,5.8,1.668,3.138.957,6.394,1.013,9.6.044,2.523-.724,5.085-.507,7.576,1.035,11.874.008,23.717-.3,35.568-.228,8.866-.691,17.726-1.015,26.59a156.717,156.717,0,0,1-.891,15.728c-.616,4.482-.9,9.009-1.3,13.519-.11,1.243-.37,2.553,1.11,3.317,2.735,1.414,5.412,2.944,8.181,4.284,1.3.627,2.051-.057,2.054-1.476,0-.722-.083-1.444-.106-2.167-.4-12.659-.749-25.326.021-37.974a43.979,43.979,0,0,1,2.234-11.125,9.554,9.554,0,0,1,8.417-6.81c4.044-.412,6.224,2.42,8.239,5.284a8.007,8.007,0,0,1,1.022,5.772c-.8,6.68-.526,13.4-.773,20.1-.266,7.233-.707,14.47-.636,21.7.048,4.872.97,9.735-.026,14.611-.392,1.92.622,3.055,2.208,3.89,3.69,1.944,7.337,3.97,11.055,5.858,2.344,1.191,2.6.993,2.568-1.855-.059-4.714-1.051-9.343-1.072-14.09-.046-9.968,1-19.888,1.119-29.827C485.771,292.205,486.334,269.6,485.284,247.026ZM95.617,132.618l-.553,0q0,24.225,0,48.448c0,1.634-.028,3.269.027,4.9.024.7.144,1.436,1.058,1.626a4.885,4.885,0,0,0,5.6-4.705c.314-7.395-.8-14.745-.164-22.19a67.743,67.743,0,0,1,3.216-15.892,25.875,25.875,0,0,1,3.884-7.137c2.758-3.728,6.359-3.962,9.8-.945a11.953,11.953,0,0,1,4.141,9.647c-.08,9.423-.045,18.847-.077,28.27-.01,3,.739,3.5,3.5,2.306,1.438-.622,2.462-1.43,2.312-3.229-.134-1.62-.1-3.255-.118-4.883-.105-12.1-.806-24.24-.159-36.3.945-17.587-.638-35.079-.889-52.614-.093-6.479-1.508-12.931-1.279-19.466a2.67,2.67,0,0,0-.994-2.368c-4.06-3.335-8.1-6.7-12.164-10.024-1.049-.859-1.733-.576-2.589.562a210.638,210.638,0,0,0-12.6,19.66,10.534,10.534,0,0,0-1.112,3.031c-1.563,6.931-1.669,14-1.615,21.041C94.959,105.779,95.347,119.2,95.617,132.618ZM276.039,433.5c2.9.132,5.806.162,8.691.431,1.862.174,2.662-.345,2.67-2.3a67.628,67.628,0,0,1,.611-9.741c.721-4.828,1.024-9.718,1.5-14.581.2-2.058-.558-2.884-2.774-2.74a46,46,0,0,1-16.074-2.122c-9.025-2.694-17.776-2.3-26.7.1-8.384,2.251-16.845,4.214-25.278,6.28-3.2.785-3.5,1.01-3.075,4.484.893,7.288-.02,14.451-1.406,21.562-1.064,5.46-1.165,5.807,4.623,5.205,12.253-1.274,24.492-2.774,36.676-4.587C262.332,434.466,269.114,433.415,276.039,433.5Zm239.15-62.214c0,3.655.136,6.379-.043,9.083-.147,2.225.924,3.262,2.793,4.019,5.641,2.285,11.556,1.757,17.14.649,5.162-1.024,10.328-1.9,15.528-2.549,13.06-1.633,13.438-6.749,13.478-15.113.038-8.142.27-16.257-.409-24.43-.386-4.657-.492-9.369-1.383-13.966-1.04-5.362-4.378-7.524-9.79-6.693-2.688.412-5.37.884-8.028,1.458-1.781.384-3.534,1-4.324,2.9-2.446,5.886-6.94,9.654-12.718,11.888-3.243,1.254-4.812,3.554-5.726,6.7-.754,2.6-1.41,5.366-2.826,7.606-1.714,2.711-2.3,5.634-3.159,8.58C514.677,365.01,515.585,368.642,515.189,371.281Zm-174.5,68.324c3.088,0,6.177.044,9.264-.023,1.088-.024,2.165-.223,1.922-1.859-1.157-7.8-.219-15.555.262-23.346.449-7.275,2.38-7.369-6.687-8-12.116-.84-24.264-1.207-36.4-1.774-2.9-.135-5.8-.2-8.7-.4-2.23-.156-3.335.555-3.347,3a255.259,255.259,0,0,1-1.436,25.5c-.167,1.573.216,2.413,1.833,2.6,2.7.3,5.4.685,8.105.96C317.232,437.455,328.807,440.144,340.689,439.605ZM378.353,64.356a20.542,20.542,0,0,1-5.331-.243c-7.549-.88-14.2,1.718-20.591,5.33-.316.178-.614.388-.93.567-5.89,3.355-11.987,5.93-18.974,5.877a77.289,77.289,0,0,0-8.632.823c-.552.058-1.129.252-1.1.928.01.249.388.53.654.715A36.11,36.11,0,0,0,336.22,84.2a86.653,86.653,0,0,0,24.3,2.24,9.251,9.251,0,0,0,6.668-2.817,32.3,32.3,0,0,1,14.887-8.649c4.562-1.169,9.189-2.087,13.8-3.056a13.449,13.449,0,0,1,7.012.005,82.61,82.61,0,0,0,24.55,3.929c3.072.062,5.8.682,7.965,2.8,1.451,1.417,2.779,1.108,4.434.639a29.3,29.3,0,0,0,7.719-3.938c2.584-1.655,5.024-3.535,7.551-5.281a38.482,38.482,0,0,0,13.252-16.215c.208-.461.5-1.22.3-1.469-.657-.808-1.234-.01-1.831.325-10.936,6.136-22.82,8.941-35.21,9.746-10.559.687-21.088,1.525-31.718,1.53C393.137,63.993,386.307,64.411,378.353,64.356Zm31.095,367.758c-.357-2.112.241-4.315.168-6.475-.063-1.874-.609-2.754-2.713-3.2-4.952-1.04-9.821-2.5-14.688-3.915a109.121,109.121,0,0,0-15.93-3.435,79.391,79.391,0,0,1-9.958-2.369c-1.734-.467-3.383-1.238-5.1-1.779-1.875-.59-2.9.089-2.584,1.957a34.557,34.557,0,0,1,.527,8.117c-.274,4.158-.79,8.3-1.013,12.461-.3,5.654-.224,5.616,5.5,5.6,12.605-.03,24.955,1.377,36.626,6.591a26.144,26.144,0,0,0,6.683,2.2c1.44.22,2.5.175,2.489-1.717C409.424,441.476,409.448,436.8,409.448,432.114Zm43.129,23.849c4.442.235,7.523.4,10.6.559,1.7.086,2.889-.434,2.611-2.436-.881-6.329-.066-12.655.041-18.98.036-2.117-.984-2.942-2.915-3.028-8.7-.387-17.13-2.527-25.64-4.1-6.386-1.183-12.948-.782-19.277-2.445-2.735-.719-2.887-.347-2.568,2.761.591,5.767,1.2,11.536,1.61,17.318.3,4.236.118,4.459,4.244,5.362C432.06,453.326,442.737,456.4,452.577,455.963ZM237.568,194.431c6.093-.17,10.628.132,15.153-.6,2.049-.332,2.72-1.144,2.792-3.133.17-4.7.7-9.4.789-14.1.084-4.566-.711-5.016-5.355-5.415-11.065-.949-22.111.18-33.167.154a18.946,18.946,0,0,0-12.607,4.343c-2.955,2.514-4.457,5.562-3.871,9.588.575,3.948,3.637,4.474,6.613,5.386C218.1,193.778,228.575,194.422,237.568,194.431ZM175.3,227.16l-.116-.011c.05-.9.06-1.809.156-2.706.412-3.818.467-3.924-2.756-5.322-3.648-1.583-7.387-2.959-11.094-4.406-3.726-1.454-7.514-2.876-10.5-5.613-2.785-2.556-6.024-3.114-9.55-2.958-5.064.224-9.37,2.4-13.538,5.1a4.186,4.186,0,0,0-2.145,4.516q.59,4.582,1.126,9.174c.413,3.541.415,3.735,3.85,3.491,7.3-.518,13.93,1.311,20.37,4.683a62.378,62.378,0,0,0,15.709,5.98c2.114.457,4.644,1.791,6.25,1.076,1.987-.884.85-3.93,1.255-6.007C174.77,231.847,174.983,229.494,175.3,227.16ZM136.658,616.546c4.586-1.069,9.537-.715,14.373-1.318,6.432-.8,12.972-1.144,19.143-3.641,4.5-1.821,9.118-3.74,13.861-4.5,4.793-.767,7.23-3.706,9.586-7.194a2.126,2.126,0,0,0,.4-1.472c-.235-.953-1.074-.642-1.77-.594-14.436,1.013-28.868,2.071-43.309,3-7.569.487-15.158.879-22.726-.054-3.777-.466-7.113,1.062-10.506,2.215-1.6.543-2.4,2.147-2.928,3.745-.572,1.742-.511,3.143,1.655,3.814,2.243.7,4.369,1.778,6.622,2.43A89.9,89.9,0,0,0,136.658,616.546Zm27.151-197.418c-.354,7.489-.354,7.488,6.552,10.063.508.19,1.006.408,1.515.593,10.376,3.786,21.086,6.4,31.809,8.929,4.466,1.054,5.217.313,4.963-4.159a80.24,80.24,0,0,1,.874-17.283c1.159-7.284,1.008-7.208-5.892-4.676-10.139,3.72-20.352,4.258-30.755.708-2.589-.884-5.3-4.1-7.793-2.183C162.844,412.845,164.335,416.615,163.809,419.128ZM262.2,340.551c0,2.72.019,5.44-.007,8.16-.015,1.69,1.148,2.042,2.453,2.292,1.9.365,3.812,1.439,5.706.282.417-.254.459-1.314.47-2.006.035-2.358-.238-4.738-.007-7.071,1.412-14.244,1.427-28.549,1.989-42.828.476-12.12.822-24.244,1.234-36.366.287-8.436-.514-8.976-8.432-5.785-1.468.591-2.561,1.37-2.517,3.1.149,5.785-.974,11.5-.42,17.343,1.01,10.64,2.383,21.316,1.3,32.022C262.933,319.965,263.733,330.324,262.2,340.551Zm-34.034-92.424c6.554.461,6.554.461,6.825-6.344a2.418,2.418,0,0,0,.014-.543c-.451-2.321,1.978-5.341.1-6.668-1.707-1.2-4.8-.439-7.283-.542-.182-.007-.363-.015-.544-.012a85.551,85.551,0,0,1-30.284-5.351c-3.749-1.346-7.406-2.947-11.135-4.35-4.149-1.561-4.417-1.374-4.542,3.324-.1,3.81-.067,7.625-.085,11.437-.015,3.168.011,3.224,3.242,3.633,4.134.523,8.281.95,12.412,1.5C207.3,245.6,217.606,247.818,228.162,248.127Zm118.109-51.675c0-1.217.079-3.214-.018-5.2-.15-3.076-.93-3.439-3.609-1.729a9.027,9.027,0,0,0-3.209,2.834c-5.091,8.383-12.934,13.478-21.6,17.373-6.077,2.733-12.4,4.924-18.567,7.457-1.411.58-3.271.9-3.309,3.079-.068,3.8-.175,7.6-.228,11.4-.022,1.575.495,2.315,2.3,1.67,6.468-2.311,13.05-4.293,18.705-8.455,6.269-4.613,12.676-8.964,19.88-12.144C343.141,209.858,347.55,205.176,346.271,196.452Zm-98.048,51.76c6.89-.242,12.693-1.05,18.37-3.441,5.991-2.524,12.354-4.163,18.545-6.216,1.355-.449,2.838-.776,2.882-2.72.09-3.985.283-7.967.372-11.952.031-1.353-.681-1.992-2.077-1.605-2.438.676-4.947,1.171-7.3,2.076a143.032,143.032,0,0,1-30.431,7.892c-7.066,1.055-7.106,1.209-7.11,8.279C241.472,249.907,240.372,248.11,248.223,248.212ZM521.46,443.967h-.248c0-3.774-.118-7.552.05-11.318.085-1.884-.285-2.749-2.329-2.431a88.241,88.241,0,0,1-18.851,1.367c-1.952-.116-2.526.891-2.544,2.607-.077,7.589.859,15.162.332,22.757a1.814,1.814,0,0,0,1.853,2.152c6.3.441,12.6.837,18.893-.118,2.094-.317,3.053-1.266,2.907-3.62C521.287,451.577,521.46,447.766,521.46,443.967Zm-264.9-118.422h-.008c0-.725.034-1.452-.006-2.174-.174-3.119-.381-3.154-3.665-2.633-9.808,1.554-19.567,3.474-29.544,3.769-4.931.146-9.247,1.777-11.934,6.264a11.187,11.187,0,0,1-3.085,2.978,81.986,81.986,0,0,0-6.722,5.472c-1.978,1.9-2.641,6.779-1.321,8.637,1.574,2.214,3.984,2.124,6.393,1.984,1.67-.1,2.43-1.343,3.5-2.295,5.286-4.7,10.665-9.306,17.556-11.552,8.582-2.8,17.026-6.288,26.306-5.942,2.244.084,2.934-.8,2.544-2.88A9.019,9.019,0,0,1,256.556,325.545Zm-6.541-160.138c1.271,0,2.544-.047,3.812.012,1.394.065,2.571-.062,2.648-1.853.07-1.646-.948-2.323-2.344-2.379a33.306,33.306,0,0,1-8.035-1.348,39.642,39.642,0,0,0-14-1.2,43.141,43.141,0,0,1-10.834-.282,40.924,40.924,0,0,0-17.768.551c-7.442,1.846-13.189,5.82-15.477,13.681-1.367,4.7.14,9.367,3.854,11.392,1.219.665,2.139.512,2.52-.83.925-3.257,3.6-5.45,5.007-8.351,1.887-3.883,5.082-5.466,8.99-6.194,7.843-1.462,15.652-2.881,23.742-2.145,3.749.342,7.61-.214,11.388-.645A46.116,46.116,0,0,1,250.015,165.407Zm275.122,65.807c3.8.185,7.61.307,11.407.569,4.7.325,9.393.8,14.094,1.137,1.451.105,2.1-.6,1.172-1.941-2.572-3.728-5.265-7.373-7.791-11.131-1.028-1.53-1.429-2.062-2.954-.205-3.4,4.141-7.292,4.752-12.092,2.422a15.166,15.166,0,0,1-3.23-1.991c-1.208-1.03-2-.883-3.229.1-4.415,3.56-5.93,3.716-9.767.115-2.155-2.022-2.952-1.33-4.5.527a8.485,8.485,0,0,1-12.119,1.535c-1.28-.95-2.177-3.149-3.387-3.259s-2.5,1.871-3.939,2.569a21.091,21.091,0,0,1-4.663,1.368c-1.247.276-1.41.881-.8,1.843,1.062,1.669,2.176,3.305,3.242,4.971a2.2,2.2,0,0,0,1.758,1.013c4.118.569,8.205,1.438,12.4.567a11.672,11.672,0,0,1,4.3-.407C511.728,232.257,518.446,230.751,525.137,231.214Zm-31.35,214.574.227-.013c.164-3.442.3-6.885.5-10.326.215-3.8-.07-4.263-3.589-4.14-5.063.178-10.119.537-15.177.834a10.369,10.369,0,0,0-2.675.308,2.519,2.519,0,0,0-2.015,2.768c.293,6.7.436,13.409.61,20.114.033,1.246.451,2.009,1.807,2.222a80.24,80.24,0,0,0,18.959.937c1.72-.139,2.134-.943,2.028-2.434C494.219,452.635,494.009,449.211,493.787,445.788Zm55.394-9.889c0-1.441.023-3.977-.006-6.511-.033-2.916-.521-3.346-3.591-3.118-3.22.239-6.432.655-9.656.782-8.784.346-8.625.3-8.733,8.8-.081,6.292.965,12.64-.784,18.884-.43,1.535.849,1.844,1.983,1.631,6.386-1.194,12.791-2.316,19.12-3.77,3.233-.743,3.172-1.034,1.711-4.344a9.239,9.239,0,0,1-.75-4.77C548.7,441.324,548.88,439.159,549.181,435.9ZM333.831,67.848l0,.073c.726.036,1.453.118,2.177.1a34.928,34.928,0,0,0,13.578-3.555c.42-.191.661-.775.985-1.176a5.2,5.2,0,0,0-.949-.517,24.27,24.27,0,0,0-3.137-.854c-4.616-.755-9.233-1.514-13.866-2.154-8.266-1.142-15.936-4.54-24.053-6.245A56.237,56.237,0,0,1,293.9,48a45.281,45.281,0,0,0-5.489-2.358,3.021,3.021,0,0,0-3.524.619c-1.251,1.346-.65,2.716,0,4.026.855,1.724,2.552,2.62,4.1,3.469a56.161,56.161,0,0,1,15.634,12.508,4.736,4.736,0,0,0,5.307,1.575,30.313,30.313,0,0,1,8.665-.631Q326.217,67.515,333.831,67.848ZM468.447,303.4l-.159-.006c0-1.271.029-2.543-.011-3.813a16.284,16.284,0,0,0-.245-2.165c-.644-3.848-1.845-5.389-4.254-5.383-3.221.008-3.615,2.639-4.216,4.852a91.087,91.087,0,0,0-3.252,25.3A108.236,108.236,0,0,1,455.342,339c-.967,6.826-.855,6.84,5.273,9.751.983.467,1.94.994,2.934,1.436,1.27.563,1.936.42,1.935-1.282a275.109,275.109,0,0,1,2.494-39.532C468.263,307.4,468.3,305.4,468.447,303.4Zm6.83-100.013c-.726.036-1.453.05-2.177.112-2.5.213-2.775.6-1.308,2.417a66.369,66.369,0,0,1,5.061,7.732c2.243,3.724,8.917,5.336,12.244,2.591,2.38-1.965,3.871-1.48,6.083.052,4.306,2.981,6.354,2.705,10.683-.69,3.2-2.51,3.9-2.563,7.214-.456.918.584,1.794,1.235,2.691,1.853a3.119,3.119,0,0,0,4.4-.458c.772-.767,1.561-1.515,2.349-2.264a1.832,1.832,0,0,1,2.845-.085c4,3.772,8.26,5.1,13.066,1.4,1.054-.812,2.854.789,3.343-.556.356-.981-.513-2.4-.818-3.63-.523-2.112-1.03-4.228-1.547-6.341-.68-2.776-2.961-3.54-4.889-1.458A22.281,22.281,0,0,1,531,206.96c-5.957,4.156-6.426,4.222-12.262-.311-1.553-1.207-2.3-.908-3.521.461-4.344,4.854-8.149,5.342-13.765,1.823-1.33-.833-2.016-.979-3.09.372-2.825,3.553-6.461,3.527-10.329,1.925-2.726-1.129-5.452-2.525-6.863-5.108C479.737,203.5,477.689,203.322,475.277,203.391ZM130.464,393.526c.533,1.923,1.027,4.04,1.709,6.094a40.268,40.268,0,0,1,2.318,12.178c.046,4.28,2.315,6.309,5.884,7.284,4.375,1.195,8.486,3.052,12.721,4.594a29.118,29.118,0,0,0,3.622,1.116c1.095.242,1.84-.279,1.462-1.457-1.562-4.873-.744-9.68.453-14.428.446-1.769.009-2.714-1.5-3.482-1.124-.57-2.144-1.345-3.265-1.922-7.218-3.713-14.941-6.436-21.7-11.063a2.11,2.11,0,0,0-1.439-.067C130.594,392.4,130.575,393,130.464,393.526Zm154.958-58.911c6.219-.314,12.2,1.567,18.342,1.99a7.028,7.028,0,0,1,3.5,1.4c5.138,3.834,11.473,5.354,16.778,8.825a2.64,2.64,0,0,0,3.016.31,16.007,16.007,0,0,0,5.721-4.907c1.708-2.7,1.439-3.641-1.445-4.974a46.107,46.107,0,0,0-9.336-2.85c-10.232-2.308-20.77-3.011-30.856-6.214-3.356-1.065-7.161-.816-10.769-.948-2.778-.1-3.508,1.017-3.964,4.625-.328,2.594,1.64,2.3,3.089,2.785C281.5,335.33,283.451,334.511,285.422,334.615ZM574.89,427.072c.119-3.917-.007-3.985-3.263-3.306-3.351.7-6.721,1.3-10.083,1.946-2.242.428-5.223-.942-6.618,1.131-1.356,2.013-.6,4.91-.69,7.422-.14,3.974-.056,7.964-.377,11.922-.215,2.649-.178,3.126,2.334,2.732a56.5,56.5,0,0,0,16.831-5.853c.983-.5,1.978-1.44,1.637-2.578C573.248,435.77,574.53,431.147,574.89,427.072ZM241.746,348.5a33.561,33.561,0,0,0,5.97-.068c2.907-.533,6.648,2.7,8.428-.433,1.345-2.367.433-6.015.525-9.093,0-.181-.014-.363,0-.544a2.179,2.179,0,0,0-1.844-2.338c-5.27-1.419-10.6-2.8-15.817.029a45.908,45.908,0,0,1-5.545,2.144c-4.78,1.855-9.194,4.292-12.218,8.651-.409.589-.973,1.263-.531,1.95.19.294,1.008.342,1.5.26C228.693,347.988,235.232,348.448,241.746,348.5Zm53.322,3.878,0-.525c4.156,0,8.313.069,12.467-.033,1.718-.043,4.315.874,4.942-.726.662-1.691-2.057-2.492-3.207-3.752-2.185-2.4-4.418-4.9-7.808-5.559a188.9,188.9,0,0,0-23.086-2.654c-1.392-.1-1.991.551-2,1.848-.017,2.528-.024,5.056.007,7.584.044,3.562.148,3.745,3.525,3.8C284.962,352.436,290.016,352.379,295.068,352.379ZM81.158,57.5c4.384,1,9.03-2.7,14.284-2.213A69.713,69.713,0,0,0,101.9,45.9c.1-.154.214-.293.31-.446.378-.6.872-1.312.342-1.935-.671-.788-1.646-.51-2.528-.269-1.422.388-1.852,1.712-2.382,2.8A18.562,18.562,0,0,1,94,51.419a6.343,6.343,0,0,1-9.582-.231,20.924,20.924,0,0,1-1.9-2.646,1.32,1.32,0,0,0-2.221-.3c-.561.456-1.111.928-1.69,1.36-5.121,3.815-7.595,3.835-12.311-.481-1.325-1.213-2.151-.781-3.282-.231-3.389,1.648-6.277.654-9.028-1.568-1.347-1.089-2.291-3.676-4-3.015-1.291.5-1.843,2.934-2.7,4.522-.342.637-.609,1.315-.907,1.976-1.923,4.27-1.25,5.37,3.449,5.519,1.619.051,3.305.243,4.721-.826,1.775-1.339,2.872-1.056,4.949.257,2.425,1.534,5.917,1.167,8.788-.578,1.041-.632,2.334-1.523,3.425-.214C74.026,57.725,77.14,57.474,81.158,57.5ZM47.708,244.837c0-1.262-.006-2.525,0-3.788.01-1.7-.73-2.8-2.516-2.837a34.806,34.806,0,0,1-16.5-4.647c-.921-.515-1.793-.64-1.949.7-.458,3.93-.8,7.874-1.263,11.8a2.691,2.691,0,0,0,1.683,3.044c5.75,2.709,11.553,5.206,18.125,4.956,2.543-.1,3.049-.374,2.712-2.75A28.554,28.554,0,0,1,47.708,244.837Zm69.681-93.647c-.063-.943-.14-2.028-.207-3.113s-.174-2.17-.169-3.254a8.43,8.43,0,0,0-1.05-4.172c-1.464-2.656-3.679-2.977-5.639-.7a11.11,11.11,0,0,0-2.96,7.951c.176,3.427.63,6.848.648,10.273.041,7.632,1.913,15.071,2.218,22.669.037.934.3,1.816,1.5,1.81,2.544-.012,4.556-1.875,4.32-4.283-.428-4.37.142-8.659.565-12.987C117.071,160.719,118.014,156.063,117.389,151.19Zm3.809,70.679h.023c0-.726,0-1.452,0-2.178,0-.363.013-.727-.012-1.089-.159-2.3-.577-2.6-2.617-1.582-3.884,1.934-7.881,3.7-11.552,5.988-7.952,4.952-7.93,3.875-6.5,13.756.259,1.787.669,2.712,2.675,1.727,4.385-2.153,8.747-4.377,13.25-6.256,3.562-1.486,4.741-4.117,4.734-7.645C121.2,223.683,121.2,222.776,121.2,221.869ZM402.628,86.852c8.7-.338,17.427-.534,25.676-3.789,1.129-.446,3.564.015,3.1-1.917-.346-1.44-2.565-.937-3.9-.721a47.212,47.212,0,0,1-15.116.208,5,5,0,0,0-2.16.126c-2.6.778-5.02-.022-7.466-.679-1.038-.279-2.094-.945-3.09-.855-8.313.749-16.548,1.959-24.39,5.018-.5.2-1.013.533-.741,1.165.085.2.623.307.943.286C384.572,85.114,393.548,87.2,402.628,86.852ZM608.858,381.5c-.034-.606-.093-1.662-.152-2.719-1.147.713-1.375,1.989-1.781,3.1-.991,2.714-1.967,5.442-2.744,8.221-.98,3.509-2.027,7.169-4.148,9.965-4.036,5.318-4.841,11.065-4.118,17.339.02.18,0,.363.017.543.162,2.127-.414,4.288.293,6.39,2.6-.48,3.371-3.013,4.944-4.591,2.668-2.678,5.127-5.623,5.439-9.72C607.32,400.67,608.081,391.311,608.858,381.5ZM312.221,618c-3.8.018-7.99-.3-12.071.8-1.331.359-2.993.48-3.018,2.486-.021,1.716.344,3.253,2.023,4.137a6.188,6.188,0,0,0,1.469.7c3.868.839,7.642,2.055,11.754,1.024A57.7,57.7,0,0,1,324.662,625a5.2,5.2,0,0,0,4.921-5.363c0-.8-.5-1.525-1.3-1.363C323.016,619.328,317.818,617.772,312.221,618ZM96.248,235.515c.364-6.039.364-6.039-5.484-4.137-.344.112-.68.25-1.026.356-9.405,2.883-9.405,2.883-8.323,12.654.04.36.064.723.12,1.081.509,3.284.8,3.5,3.723,2.383,3.061-1.171,5.722-3.07,8.511-4.749,1.76-1.06,2.672-2.272,2.495-4.33C96.171,237.7,96.248,236.6,96.248,235.515Zm-78.331-2.629.228,0c0-2.348-.039-4.7.015-7.044a6.8,6.8,0,0,0-1.014-4.118c-1.892-2.862-3.691-5.785-5.537-8.678-.371-.581-.694-1.415-1.563-1.131-.813.266-.778,1.164-.749,1.835.253,5.938.686,11.871.8,17.81.087,4.514,2.592,7.782,5.066,11.12a1.653,1.653,0,0,0,1.35.638,1.667,1.667,0,0,0,.859-1.247C17.611,239.016,17.747,235.95,17.917,232.886Zm573.535,189.1h.023c.135-2.335.259-4.672.414-7.006a1.292,1.292,0,0,0-.592-1.354,1.12,1.12,0,0,0-1.427.393,18.126,18.126,0,0,1-5.422,4.349,2.887,2.887,0,0,0-1.549,2.1c-.767,5.327-1.533,10.653-2.255,15.986-.125.92.333,1.306,1.261.845a35.665,35.665,0,0,0,8.95-6.886c1.689-1.661.106-4.169.465-6.272A19.065,19.065,0,0,0,591.452,421.984ZM300.131,180.005a13.161,13.161,0,0,0-2.572-5.725c-4.075-5.687-10.421-7.52-16.521-9.747-.985-.36-2.571-.693-2.962.381a3.242,3.242,0,0,0,1.055,3.842,7.137,7.137,0,0,0,2.458,1.1c6.638,1.455,10.856,5.412,12.726,11.951.209.729.213,1.879,1.5,1.907C297.547,183.749,300.012,181.745,300.131,180.005Zm-11.413,4.089c.127-4.162-1.515-6.551-5.389-8.012-1.342-.506-2.873-1.118-4.076.035-.9.86.02,2.027.172,3.052.319,2.142.782,4.272.958,6.425.167,2.052,1.232,2.353,2.931,1.977a24.354,24.354,0,0,1,2.676-.414A2.787,2.787,0,0,0,288.718,184.094Zm205.223,18.023c-3.016.425-6.406.9-9.794,1.387-.473.069-1.089-.008-1.211.662-.117.65.382,1.013.849,1.23,2.449,1.136,4.85,2.482,7.608,2.667a10.769,10.769,0,0,0,3.721-.347c1.436-.428,3.587-3.755,3.087-4.689C497.312,201.364,495.626,202.557,493.941,202.117Zm12.43.092a13.965,13.965,0,0,0-1.684.014c-.657.082-1.522-.062-1.777.755-.265.845.458,1.294,1.056,1.665a7.324,7.324,0,0,0,7.173.419c.589-.26,1.352-.958,1.381-1.491.079-1.411-1.2-.85-1.943-.956C509.16,202.412,507.725,202.333,506.371,202.209ZM89.31,43.318v.146c-1.238,0-2.483-.088-3.71.029a.864.864,0,0,0-.625,1.5c2.228,2.762,5.506,2.751,7.607,0a4.009,4.009,0,0,0,.376-1.433,5.3,5.3,0,0,0-1-.232C91.074,43.3,90.192,43.318,89.31,43.318ZM58.958,45.985c1.3-.253,3.285-.069,3.414-1.824.162-2.2-2.107-1.231-3.271-1.728a1.831,1.831,0,0,0-1.065-.135c-1.584.377-4.172-1.443-4.552.885-.215,1.319,2.576,2.12,4.328,2.6C58.158,45.881,58.522,45.911,58.958,45.985Zm18.794-1.9c.22-.86-.493-.879-.941-.886-2.35-.036-4.7-.037-7.051.038-.693.022-1.483.219-1.65,1.11-.2,1.089.506,1.643,1.357,2.013,2.228.971,6.164.063,8.044-1.827A1.783,1.783,0,0,0,77.752,44.083Zm358.78,188.062c-.437-.554.386-1.754-.788-2.1-1.024-.3-1.511.681-2.121,1.268a6.441,6.441,0,0,0-.653.836c-.517.7-1.451,1.5-.925,2.3.789,1.2,2.244.779,3.379.508C436.812,234.628,436.281,233.261,436.532,232.145ZM134.152,63.371a7.679,7.679,0,0,0-1.043-1.039c-.093-.065-.6.218-.686.433-.236.585.114.954.681.983A3.288,3.288,0,0,0,134.152,63.371Zm249.681,284.62c1.065-1.558.851-3.47,1.42-5.173a8.867,8.867,0,0,1,2.569-4.073c1.9-1.637,4.142-1.408,6.15-.588,1.834.75,2.155,2.606,2.274,4.56.13,2.126-2.121,4.615-.223,6.064,1.171.894,3.762-.107,5.719-.191a5.605,5.605,0,0,1,4.011,1.449c3.777,3.457,3.724,5.128.01,7.627-5.029,3.384-10.39,5.805-16.53,6.355a6.162,6.162,0,0,1-4.575-1.054A38.743,38.743,0,0,1,375.1,352.7a7.456,7.456,0,0,1-1.268-6.176c.875-3.314,3.014-4.473,6.037-2.944,1.852.937,2.925,2.656,4.049,4.3.146-.028.343-.007.429-.094.512-.516.626.405.137-.131C384.436,347.613,384.056,347.874,383.833,347.991Zm6.652,2.122c2.892-1.708,2.39-4.7,2.743-7.358.022-.169-.465-.515-.765-.595a1.028,1.028,0,0,0-1.312.609c-.886,2.4-.7,4.92-.726,7.413a1.774,1.774,0,0,1,.175.386.923.923,0,0,1-.059.326Zm-11.413-2.274c-.311.155-.712.229-.864.464a1.433,1.433,0,0,0-.121,1,7.687,7.687,0,0,0,2.351,3.529c1.222,1.23,2.7,4.181,3.633,3.307,1.52-1.423-.991-3.221-1.828-4.816A7.2,7.2,0,0,0,379.072,347.839Zm23.325,7.924c.135-.819-.4-.88-.923-.9a5.689,5.689,0,0,0-4.276,1.746c-.382.372-1.47.51-.87,1.381.164.238,1.041.213,1.447.014C399.323,357.25,401.153,357.047,402.4,355.763Zm32.195,33.742c-1.694.039-2.978-.126-3.925-1.077-3.058-3.065-6.472-5.807-8.844-9.506a9.219,9.219,0,0,1-1.42-7.249c.452-1.949,1.964-2.455,3.746-1.509,1.858.987,2.716,4.118,4.718,3.635,1.449-.349,2.182-3.126,3.534-4.531,2.112-2.195,4.526-1.484,5.092,1.546a34.82,34.82,0,0,1,.237,6.477c-.007,1.511.676,2.054,1.951,1.38a13.192,13.192,0,0,1,6.707-1.8c1.8.054,3.214.569,4.011,2.2.928,1.9.2,3.529-1.153,4.91a9.777,9.777,0,0,1-2.125,1.662C443.11,387.9,438.532,388.307,434.592,389.505Zm-.587-15.2a9.676,9.676,0,0,0-.4,1.567c-.11,1.23-.6,2.457-.1,3.7a.432.432,0,0,0,.349.106,4.308,4.308,0,0,0,.8-4,7.169,7.169,0,0,0-.749-1.427l.691.228Zm-9.5.606c-.421.022-.617.25-.461.63a12.525,12.525,0,0,0,3.542,5.245c.35.282.729.3.892-.053a1.347,1.347,0,0,0,.079-.983,14.938,14.938,0,0,0-3.586-4.588A1.89,1.89,0,0,0,424.5,374.914Zm22.048,6.211c.434-.353.342-.51-.159-.734-.99-.443-3.9.658-4.089,1.658-.038.2.323.683.475.672A5.355,5.355,0,0,0,446.551,381.125ZM372.423,323.7c-5.816.661-9.771-2.749-13.639-6.264a2.573,2.573,0,0,1-.605-3.022c.731-1.49,2.142-.906,3.358-.762a2.712,2.712,0,0,1,.524.142c1.693.565,3.556,2.432,4.954,1.5,1.15-.763,1.191-3.191,1.733-4.878a6.538,6.538,0,0,1,.56-1.516c.988-1.557,2.1-3.2,4.248-2.687,1.951.466,2.079,2.26,2.118,3.933.021.905.039,1.811,0,2.715-.074,1.8.645,2.233,2.28,1.5,1.977-.889,3.993-1.693,6.006-2.5a2.4,2.4,0,0,1,2.9.844,2.257,2.257,0,0,1,.1,2.551,14.207,14.207,0,0,1-10.752,8.211A28.789,28.789,0,0,1,372.423,323.7ZM361.5,315.716l-.145.11.2-.256c-.175,1.53.967,1.354,1.892,1.46.134,1,1.35.854,1.712,1.613a6.722,6.722,0,0,0,1.477.032c.28-.051.183-.526-.184-.5a4.573,4.573,0,0,0-1.342.529c.433-1.326-.135-1.9-1.446-1.916C363.272,315.759,362.345,315.819,361.5,315.716Zm10.769,1.017c1.4-1.459,1.358-3.123.675-4.867-.041-.106-.367-.216-.377-.2-.976,1.467-.776,3.052-.446,4.65.036.174.062.351.093.527l-.067.259Zm11.084-.548c-2.055-.452-3.373.769-4.643,2.072-.032.033.149.4.231.4,1.765,0,2.861-1.279,4.145-2.2a3.635,3.635,0,0,0,.391-.375l-.074-.253ZM85.645,533.971c1.052,0,1.414,0,1.776,0,1.65-.03,3.417-.116,4.236,1.675.785,1.716-.657,2.663-1.713,3.6-3.141,2.772-3.72,6-1.929,9.733,1.485,3.093,2.036,6.15-.217,9.179-1.58,2.126-3.181,2.991-5.585,2.077-6.083-2.314-12.124-4.777-16.69-9.738-2.924-3.178-2.978-4.368-.6-8.074a12.418,12.418,0,0,1,6.608-5.343A58.648,58.648,0,0,1,85.645,533.971Zm-.059,4.951c-.259-.173-.6-.546-.754-.481-4.65,1.9-9.5,3.389-13.649,6.341a1.515,1.515,0,0,0-.162,2.372c3.131,3.883,7.448,6.224,11.609,8.737.936.565,1.712-.086,1.894-1.175a6.027,6.027,0,0,0-.69-3.114c-1.519-4.1-1.76-8.1,1.223-11.745A6.17,6.17,0,0,0,85.586,538.922ZM386.7,22.974c4.9,0,9.79.03,14.685-.021,1.24-.013,2.579.075,3.57-.966.5-.523,1.153-1.117.82-1.846a3.622,3.622,0,0,0-1.487-1.447,3.146,3.146,0,0,0-1.587-.186c-8.334.307-16.671.561-25,1a36.3,36.3,0,0,0-6.38,1.287c-.685.164-1.38.673-1.242,1.477.044.258.895.511,1.389.539,5.073.281,10.149.516,15.224.764Zm52,13.138c3.115-.063,5.518-1.529,5.426-3.222-.086-1.562-2.008-2.635-5.331-2.5-6.477.254-12.945.706-19.417,1.081a2.524,2.524,0,0,0-1.061.157c-.954.547-2.874-.039-2.724,1.741.109,1.289,1.59,1.223,2.641,1.334,4.3.452,8.595.876,14.027,1.424C433.656,36.122,436.178,36.163,438.7,36.112ZM319.315,25.045a1.382,1.382,0,0,0-1.092,1.609,2,2,0,0,0,.942,1.221c5.511,2.385,11,1.652,16.415-.345a2.56,2.56,0,0,0,1.687-2.574c-.082-1.377-1.29-1.629-2.375-1.716-1.26-.1-2.533-.024-3.8-.024A40.158,40.158,0,0,0,319.315,25.045Zm118.669-2.884c-.684.026-1.477.189-1.572,1.12-.093.915.556,1.239,1.286,1.406,4.313.985,8.63-.038,12.945-.031a.925.925,0,0,0,.941-1.063,2.169,2.169,0,0,0-.779-1.276c-2.384-1.532-4.917-.476-7.4-.179C441.6,22.138,439.789,22.092,437.984,22.161ZM356.792,32.273a2.211,2.211,0,0,0-1.987,2.207,2.54,2.54,0,0,0,2.373,2.541,6.134,6.134,0,0,0,4.554-1.328c.894-.6,1.857-1.436,1.435-2.642a2.313,2.313,0,0,0-2.327-1.515C359.285,31.812,358.022,31.973,356.792,32.273Zm41.246,1.319c-1.293-.2-2.557-.14-2.885,1.4a1.324,1.324,0,0,0,1.208,1.451,3.3,3.3,0,0,0,3.057-1.517A1.506,1.506,0,0,0,398.038,33.592ZM148.553,551.5c1.7-.949.79-1.591-.059-2.26a3.162,3.162,0,0,0-3.033-.669c-3.172,1.023-6.445.464-9.671.63-1.439.074-2.881.118-4.318.219a1.565,1.565,0,0,0-1.6,1.2c-.128,1.092.75,1.54,1.687,1.612,3.413.262,6.831.462,11.524.77A12.056,12.056,0,0,0,148.553,551.5Zm125.986-.232c.312-2.1-2.981-1.44-4.591-2.238q-1.209-.6-2.427-1.175a9.923,9.923,0,0,0-5.3-.626c-.88.081-1.957.4-2.139,1.357a2.39,2.39,0,0,0,1.665,2.519c2.352,1.108,4.947.743,7.615,1.277C270.971,551.352,274.285,552.979,274.539,551.271Zm-53.163-7.492a1.163,1.163,0,0,0-.96,1.111c-.026.65.425.922.979.991a34.953,34.953,0,0,0,4.775.487,2,2,0,0,0,2.1-2.011c.049-1.53-1.087-1.611-2.571-1.695C224.484,542.975,222.926,543.365,221.376,543.779Zm-61.337,1.051c-.932.046-2.007.2-2.035,1.3-.033,1.27,1.02,1.78,2.177,1.925a3.712,3.712,0,0,0,3.409-1.246c.48-.556.595-1.388-.344-1.719a6.5,6.5,0,0,0-1.575-.262C160.762,544.827,160.4,544.812,160.039,544.83Zm85.476,3.879c-.074,1.223,1.131,1.7,2.261,1.832,1.182.137,2.226-.166,2.248-1.565.018-1.226-1.123-1.143-1.955-1.357C247.094,547.738,245.61,547.131,245.515,548.709ZM453.966,246.96c.125-4.729,2.6-9.227,5.079-13.573,1.851-3.242,5.119-3.5,7.864-1.07,3.1,2.743,5.363,5.937,4.072,10.484a32.1,32.1,0,0,0-.608,3.746c-.142.894-.235,1.8-.445,2.679-1.191,4.975-5.891,8.8-10.024,8.192C456.713,256.947,453.966,252.355,453.966,246.96Zm6.188-3.209h.017a14.38,14.38,0,0,0,.031,2.7c.292,1.5-.007,3.492,2.135,3.889a4.754,4.754,0,0,0,4.823-1.8,10.372,10.372,0,0,0,2.044-7.135c-.128-2.862-2.656-4.737-6.173-4.772-1.807-.018-2.607,1.182-2.866,4.41C460.093,241.944,460.154,242.85,460.154,243.751ZM120.029,82.858a38.889,38.889,0,0,1-1.479,5.8c-1.569,3.971-6.154,6.484-9.485,5.514-3.469-1.011-6.4-6.725-5.421-10.708a16.309,16.309,0,0,1,3.49-6.647c2.46-2.921,5.33-3.874,8.057-2.682C118.088,75.4,120.184,78.713,120.029,82.858Zm-5.116.846c-.094-.576-.165-1.283-.334-1.967a2.012,2.012,0,0,0-1.862-1.6,1.924,1.924,0,0,0-2.071,1.321,5.891,5.891,0,0,0-.317,2.568c.175,1.918,1.411,3.944,2.993,3.864C114.97,87.8,114.742,85.4,114.913,83.7ZM532.635,373.08c-.312,1.338-2.083,3.515-1.1,3.7,1.814.335,1.905-2.405,2.857-3.741.966-1.357.509-3.133.377-4.757a23.86,23.86,0,0,1,2.022-11.559,21.951,21.951,0,0,1,8.831-10.578c.578-.356,1.327-.937.982-1.668-.4-.854-1.313-.411-1.918-.145-7.491,3.291-11.5,9.585-14.039,16.914a9.646,9.646,0,0,0,.954,8.374c.468.754.882,1.541,1.216,2.128C532.734,372.37,532.716,372.732,532.635,373.08Z"/></g></g></svg>