<svg xmlns="http://www.w3.org/2000/svg" viewBox="0 0 563.672 398.202"><title>waves</title><g id="Layer_2" data-name="Layer 2"><g id="Layer_1-2" data-name="Layer 1"><path d="M293.906,398.115c-2.535,0-5.075-.1-7.605.02A43.583,43.583,0,0,1,269.676,396c-4.615-1.606-9.371-2.73-14.006-4.346-10.04-3.5-17.226-10.3-23.846-18.231-10.09-12.083-15.614-26.027-17.966-41.386a60.986,60.986,0,0,1-.42-7.609c-.066-2.541.02-5.086-.032-7.628-.017-.87.013-1.976-1.049-2.256-.722-.19-1.283.507-1.767,1.061-1.91,2.186-3.992,4.244-5.707,6.573a25.29,25.29,0,0,1-9.2,7.516c-4.659,2.357-9.479,4.394-14.222,6.584a14.685,14.685,0,0,0-2.893,1.489c-8.659,6.694-18.832,9.51-29.384,9.74-12.83.281-25.794.056-37.981-5.211a44.94,44.94,0,0,1-9.431-5.266,92.746,92.746,0,0,0-11.129-7.709c-3.845-2.1-6.341-5.906-8.641-9.576a159.1,159.1,0,0,1-9.292-17.224c-4.68-10.022-9.793-19.843-13.979-30.093a25.372,25.372,0,0,0-5.24-8.211c-2.2-2.266-3.077-5.38-4.966-7.728-1.921-2.388-5.768-1.894-8.069-4.1-3.561-3.41-7.847-5.817-11.855-8.614A37.225,37.225,0,0,1,17.85,233.094c-5.318-8.6-11.624-16.65-14.893-26.429A35.473,35.473,0,0,1,.935,195.483C.908,189.5.5,183.529.125,177.55c-.716-11.569,1.478-22.39,10.785-30.6a27.871,27.871,0,0,1,13.327-6.975,79.719,79.719,0,0,0,12.59-3.4A31.352,31.352,0,0,1,49.1,134.912a38.328,38.328,0,0,0,10.222-1.189,9.625,9.625,0,0,0,6-4.377c3.94-6.171,7.031-12.465,8.014-19.971a78.094,78.094,0,0,0-.344-24.851c-.4-2.132-1.01-4.231-1.62-6.317-.453-1.549-.657-3.479-1.7-4.468-1.342-1.27-2.887.734-4.467.857a9.393,9.393,0,0,1-6.6-1.752c-9.208-6.513-11.269-15.5-9.552-25.965A67.2,67.2,0,0,1,65.913,12.15,35.015,35.015,0,0,1,89.85.541c10.625-.817,21.385-.93,32.017,1.245A34.683,34.683,0,0,1,133.92,6.538a174.17,174.17,0,0,1,45.04,41.384,326.971,326.971,0,0,1,29.15,45.23c7.087,13.485,13.571,27.286,16.48,42.425.679,3.532,1.775,7.033,1.528,10.678a3.177,3.177,0,0,0,2.09,3.392c7.307,3.648,14.456,7.658,21.943,10.886,7.038,3.036,13.829,1.9,19.7-3.367a40.9,40.9,0,0,0,7.072-7.492c3.155-4.726,4.416-9.537.816-14.63-2.243-3.176-2.446-7.212-4.434-10.491-.266-.438-.65-1.036-1.06-1.109-1.079-.193-.83.874-1.053,1.443a39.26,39.26,0,0,0-2.243,6.106c-1.516,7.292-10.236,9.9-15.52,10.276-10.735.773-16.548-5.893-21.241-14.115a41.838,41.838,0,0,1-5.061-14.856c-1.258-8.639-2.751-17.357-1.569-26.011,2.25-16.468,7.592-31.626,19.81-43.829,6.744-6.736,13.578-13.046,22.34-17.077,3.168-1.458,6.316-2.985,9.765-3.2,8.738-.552,17.146-3.09,25.8-4.048,20.211-2.238,39.471.584,57.1,11.341,6.2,3.783,12.243,7.815,18.341,11.76a10.014,10.014,0,0,1,2.556,2.016c5.32,6.851,11.61,13.057,14.511,21.543a10.043,10.043,0,0,0,1.49,3.472c5.124,5.726,7.458,12.785,9.8,19.86a16.907,16.907,0,0,0,.738,2.048c.477.992,1.149.586,1.626.032a9.217,9.217,0,0,0,1.14-1.845c3.609-7.066,9.36-11.9,16.188-15.638a154.4,154.4,0,0,0,17.454-11.086,40.626,40.626,0,0,1,13.186-6.341c12.058-3.389,24.2-6.324,36.784-6.887A58.508,58.508,0,0,1,535.52,62.187c4.047,3.362,8.285,6.486,11.9,10.371,9.627,10.335,15.3,22.257,16.087,36.555a175.263,175.263,0,0,1-.743,23.9,119.989,119.989,0,0,1-9.8,38.807A23.03,23.03,0,0,1,541.2,183.988c-7.772,3.629-15.172.309-17.648-7.845-.587-1.93.086-5-2.236-5.386-1.312-.218-3.029,2.253-4.622,3.434-4.954,3.678-9.854,7.413-14.024,12.006-7.159,7.887-12.709,16.639-15.712,27.014a260.911,260.911,0,0,0-6.273,29.231c-.565,3.337.37,5.8,2.748,8.287,10.011,10.484,16.7,22.72,18.7,37.272a25.02,25.02,0,0,1-.086,8.127c-1.009,5.345-1.9,10.713-2.876,16.066a11.051,11.051,0,0,1-.751,2.612c-6.176,13.507-11.45,27.578-21.266,39.011-6,6.993-12.284,13.88-19.984,19.145a85.607,85.607,0,0,1-9.885,5.615,11.293,11.293,0,0,1-4.716,1.14,77.881,77.881,0,0,0-25.584,4.419c-2.328.852-4.988.843-7.508,1.117-9.741,1.055-19.486,2.045-29.148,3.745a59.931,59.931,0,0,1-11.339,1.269c-7.895-.141-15.525,1.53-23.179,2.918-4.672.847-9.411.322-14.056,1.487C319.332,397.789,306.653,398.376,293.906,398.115ZM97.658,317.657c-.193-.306.085-.368.089-.168.016.719.5-.062-.216.033,9.478,9.184,20.894,14.863,33.569,17.958,4.535,1.108,9.323,1.3,14.015,1.614a28.141,28.141,0,0,0,12.312-1.592c2.8-1.1,5.329-2.977,8.639-2.081.5.134,1.445-.479,1.811-1.006.527-.759-.367-1.2-.854-1.627a20.289,20.289,0,0,0-16.6-5.063c-4.852.626-9.754.771-14.579,1.348a48.193,48.193,0,0,1-29.33-5.772C103.757,319.822,101.177,317.459,97.658,317.657Zm371.084-28.415c.12-.454-.012-.659-.39-.585-.017,0-.036.3.026.342a1.515,1.515,0,0,0,.47.149c.69,3.351,1.6,6.675,2.032,10.059,1.625,12.741-1.892,24.478-7.882,35.47a131.186,131.186,0,0,1-11.558,18.4c-2.453,3.132-4.086,6.86-6.939,9.718-.369.369-.653.884-.2,1.333a1.2,1.2,0,0,0,1,.2,29.812,29.812,0,0,0,4.613-1.555c10.643-5.239,18.271-13.5,23.485-24.023,3.456-6.977,3.538-14.693,4.476-22.222,1.026-8.231-.994-15.782-4.716-23C472.192,291.651,471.269,289.587,468.742,289.242ZM77.01,288.276l-.144-.373c-.048.725-.245-.244.27.269,2.535,4.6,5.808,8.706,8.631,13.1a27.063,27.063,0,0,0,12.354,10.289c3.486,1.539,6.836,3.385,10.255,5.077,7.8,3.862,15.825,6.042,24.72,4.546,4.285-.721,8.57-1.531,12.878-2.126,8.762-1.209,17.056-1.24,24.888,4.579,8.088,6.01,6,4.531,14.906-.015,2-1.018,1.99-1.664.306-3.188a42.142,42.142,0,0,0-21.142-10.649,21.146,21.146,0,0,0-11.249.747,19.738,19.738,0,0,1-5.784,1.108,131.537,131.537,0,0,1-23.908-.882c-4.326-.479-8.755-1.012-12.611-3.123-10.492-5.741-21.627-10.389-31.028-18.021C79.426,288.868,78.516,287.734,77.01,288.276Zm47-223.762c-.549-3.377-1.338-6.651-4.35-8.789-.49-.348-1.147-1.019-1.823-.25a1.517,1.517,0,0,0-.115,1.979c2.048,2.395,3.53,5.321,6.4,6.962.007.36-.111.784.038,1.069,4.222,8.042,5.368,16.858,6.36,25.682.952,8.471,1.564,16.98,2.524,25.45.712,6.279.856,6.242,6.949,6.961,1.618.191,3.216.552,4.823.835,1.962.346,3.928.671,5.885,1.042,1.86.352,2.595-.391,2.722-2.275.245-3.61,1.012-7.158,1.077-10.811.146-8.17-.29-16.307-.633-24.464a54.363,54.363,0,0,0-6.262-23.44c-.987-1.878-1.415-5.316-3.076-5.237-1.617.077-1.284,3.553-1.905,5.5a10.9,10.9,0,0,1-.821,2.58c-3.256,5.082-10.214,8.034-14.491,1.245C126.409,67.124,126.031,65.1,124.013,64.514ZM261.6,275.055c10.828.7,21.719-.193,32.5,1.959,14.814,2.958,26.978,9.563,34.127,23.445,2.571,4.991,4.784,10.18,6.91,15.38a20.389,20.389,0,0,1,1.349,9.62A62.1,62.1,0,0,0,337.6,345.9a138.15,138.15,0,0,0,6.76,21.157,18.907,18.907,0,0,0,2.98,5.153c3.4,3.888,7.446,7.3,12.864,7.145,5.955-.165,11.886-1.209,17.826-1.882,1.772-.2,1.567-1.243.716-2.178a20.678,20.678,0,0,0-3.961-3.707c-3.392-2.155-6.158-5.031-9.217-7.563a24.512,24.512,0,0,1-6.088-6.9c-7.5-13.659-10.648-28.04-7.05-43.518A65.21,65.21,0,0,0,353.9,305.6c.318-3.063.571-6.266-.817-9.123-2.881-5.928-6.5-11.465-11.87-15.377-8.494-6.182-17.152-11.985-27.964-13.8-14.7-2.464-29.113-3.175-42.985,3.538-2.881,1.395-6.3,1.739-8.568,4.343-.3-.04-.67-.21-.88-.092-.344.193-.237.565.157.549C261.19,275.634,261.39,275.263,261.6,275.055ZM486.552,321.04c1.975-5.064,3.531-10.347,6.042-15.129a22.164,22.164,0,0,0,2.192-14.722c-2.606-14.732-8.769-27.6-20.4-37.4-8.25-6.953-17.48-11.622-28.615-11.54-4.89.036-9.78-.123-14.669-.089a40.386,40.386,0,0,0-19.335,4.815c-3.664,1.993-7.271,4.137-11.084,5.8-10.165,4.433-15.71,13.049-20.7,22.234-.262.481-.515,1.031.017,1.446.5.387.992.01,1.42-.263a30.969,30.969,0,0,1,8.9-4.012c6.162-1.594,13.514,1.886,13.026,10.266-.1,1.621-.472,3.223-.666,4.84-.143,1.187-1.119,2.849.075,3.448,1.224.614,2.011-1.123,2.883-1.982,2.969-2.924,5.49-6.307,9.043-8.631,4.83-3.16,8.79-2.562,12.353,1.93a17.89,17.89,0,0,1,3.609,10.086c.313,3.966.819,7.916,1.254,11.872.082.748.356,1.56,1.089,1.735.759.182,1.267-.5,1.607-1.159,1.573-3.062,3.218-6.091,4.692-9.2,2.565-5.414,5.123-10.82,8.688-15.682,3.188-4.346,7.4-6.048,12.776-5.642,7.04.532,12.323,3.773,16.381,9.422,2.57,3.578,4.024,7.709,6.115,11.51a27.313,27.313,0,0,1,3.265,14.632c-.135,3.769-.827,7.589.173,11.355l-.382-.04ZM300.9,85.753a46.906,46.906,0,0,1-.632-5.049c.034-5.179.794-10.021,5.036-13.79,4.1-3.639,10.425-2.869,12.844,1.165a97.965,97.965,0,0,0,7.185,9.558,10.97,10.97,0,0,0,3.7,3.157c2.488,1.249,4.109.866,5.5-1.5a11.332,11.332,0,0,0,1.078-7.926c-.487-2.857-1.416-5.687-1.515-8.551-.261-7.575.746-14.871,6.84-20.337a25.168,25.168,0,0,1,8.944-5.012c.736-.248,2.051-.039,2.011-1.251-.034-1.041-1.237-1.22-2-1.6-7.514-3.784-15.72-5.286-23.876-6.615-9.889-1.611-19.873-.982-29.723.693a114.876,114.876,0,0,1-17.793,2.1,20.361,20.361,0,0,0-6.356,1.3c-13.46,4.737-23.417,13.721-29.938,26.22-4.921,9.43-6.919,19.855-7.689,30.4-.868,11.876,2.437,22.992,7.395,33.623a15.315,15.315,0,0,0,6.828,7.533c3.657,1.844,7.263,1.04,9.469-2.384,4.03-6.254,8.177-12.514,6.5-20.595a6.831,6.831,0,0,1-.023-1.631,44.012,44.012,0,0,1,2.25-12.275c1.92-5.72,6.052-6.956,10.98-3.345a33.777,33.777,0,0,1,4.409,4.033c1.5,1.576,2.858,3.286,4.226,4.98a19.233,19.233,0,0,0,4.928,4.235,3.544,3.544,0,0,0,4.887-.622,13.282,13.282,0,0,0,4.252-9.142C300.68,90.248,301.4,87.357,300.9,85.753ZM552.7,123.374c.59-6.234-.282-11.82-1.272-17.346-1.946-10.86-6.367-20.406-15.524-27.223a43.944,43.944,0,0,1-4.022-3.66C517.411,61.273,499.8,58.939,480.92,61.251c-1.356.166-1.49.821-.83,1.781,1.954,2.84,4.116,5.55,5.9,8.49,2.47,4.069,4.2,8.6,4.066,13.33a26.834,26.834,0,0,1-3.4,12.489,21.184,21.184,0,0,0-2.78,6.464c-1.03,5.551.451,7.642,6.129,8.41,3.348.454,6.53-.308,9.657-1.2a14.224,14.224,0,0,1,9.592.516,8.743,8.743,0,0,1,4.154,13.3c-2.384,3.644-4.976,7.153-7.508,10.7a11.66,11.66,0,0,0-2.49,6.5c-.109,3.437.557,4.361,3.913,4.309,2.345-.036,4.684-.5,7.026-.768a9.724,9.724,0,0,1,8.846,3.17,19.993,19.993,0,0,1,4.661,8.524,46.107,46.107,0,0,1,1.684,12.34c-.155,5.673,3.519,7.583,8.609,4.919a7.343,7.343,0,0,0,3.328-3.468c4.03-8.554,7.764-17.243,9.313-26.625A129.769,129.769,0,0,0,552.7,123.374Zm-323.688,85.9,0,.1c-1.267,0-2.535-.03-3.8,0-6.241.169-11.09,2.962-14.806,7.885-2.1,2.781-3.3,6.045-4.952,9.069-.593,1.09-.115,1.682.815,2.116a39.209,39.209,0,0,1,12.691,10.074c2.16,2.443,2.728,2.189,3.9-.858,3.052-7.943,8.788-12.591,17.112-14.219a38.956,38.956,0,0,1,10.8-.554c9.086.745,17.8-.482,25.163-6.494,4.628-3.781,9.693-7.361,12.4-12.8,2.79-5.62,6.656-10.365,10.457-15.2a18.306,18.306,0,0,1,5.909-4.7c6.936-3.722,14.4-6.047,21.9-8.11a22.606,22.606,0,0,0,14.934-12.513c4.2-8.928,6.346-18.538,4.768-28.58-.591-3.759-1.374-7.487-2.026-11.237-2.006-11.532-7.477-21.5-13.984-31a6.533,6.533,0,0,0-2.284-2.272c-6.238-2.952-8.924-8.779-11.892-14.391-.592-1.12-1.032-2.323-1.654-3.424a2.911,2.911,0,0,0-2.666-1.595,3.017,3.017,0,0,0-2.767,2.27,11.053,11.053,0,0,0-.411,3.2,86.855,86.855,0,0,0,.528,13.582,8.5,8.5,0,0,0,2.332,5.234c3.885,4.316,7.594,8.849,10.06,14.144,5.449,11.7,7.689,24.121,7.633,36.981-.02,4.881-1.246,9.3-5,12.764a12.411,12.411,0,0,0-2.327,3c-2.253,3.983-5.744,6.479-9.758,8.373-1.806.852-3.668,1.587-5.47,2.446-9.328,4.449-17.48,10.285-23.085,19.242a33.745,33.745,0,0,1-5.04,6.4c-4.2,4.055-8.738,7.944-14.879,8.327-5.97.372-11.857,1.065-17.774,1.936C240.3,209.273,234.622,209.045,229.012,209.274ZM57.328,53.07a31.26,31.26,0,0,0,.034,4.352,10.7,10.7,0,0,0,5.022,8c1.6.995,2.878,1.109,4.255-.506A44.777,44.777,0,0,0,73.95,54.157a24.115,24.115,0,0,1,7.9-10.218c3.136-2.237,5.584-1.985,8.131.908a16.772,16.772,0,0,1,3.628,6.608c1.531,5.4,3.073,10.819,6.277,15.56,1.276,1.889,1.644,1.915,2.871-.189,2.829-4.851,5.312-9.931,9.3-14.009,6.741-6.893,9.459-6.737,14.679,1.2a77.245,77.245,0,0,0,6.539,7.983c1.018,1.174,1.866.77,2.467-.417a24.57,24.57,0,0,0,2.553-7.141c.813-5,3.479-9.1,6.383-13.077,2.385-3.267,5.676-4.352,9.57-3.811,1.253.174,2.481.536,3.72.81.668.147,1.406,1.039,1.945.4.5-.6-.341-1.181-.786-1.671-6.836-7.545-14.044-14.527-23.054-19.661-8.365-4.767-16.974-8.048-26.627-8.244-4.325-.088-8.659.189-12.981.046-11.622-.382-21.122,3.4-28.126,13.111A56.14,56.14,0,0,0,57.328,53.07ZM264.1,280.162c-2.18,0-4.37.132-6.539-.027a19.451,19.451,0,0,0-13.692,4.336c-2.57,1.987-4.974,4.19-7.446,6.3-.549.47-1.258,1.01-1.045,1.766.352,1.251,1.5.743,2.247.6,9.519-1.878,18.834-.76,27.861,2.36a169.707,169.707,0,0,1,21.966,9.489A27.842,27.842,0,0,1,299.4,315.8c5.76,10.064,11.278,20.225,13.863,31.761,2.392,10.67,8.288,19.709,15.389,27.787,4.6,5.23,10.411,8.6,17.91,5.7a10.143,10.143,0,0,1,1.618-.192c.656-.13,1.543.069,1.8-.788s-.436-1.328-1.021-1.73a22.939,22.939,0,0,1-7.9-10.211c-2.079-4.817-4.359-9.588-5.573-14.733-2.075-8.793-5.985-17.247-5.326-26.553.684-9.668-3.806-17.616-8.519-25.332C316.8,293.582,309,289.18,300.456,286.168A111.834,111.834,0,0,0,264.1,280.162Zm40.072-141.171c-.076,1.45-.156,2.9-.226,4.35a35.988,35.988,0,0,1-12.132,25.835c-5.126,4.667-10.971,8.378-16.8,12.028a30.217,30.217,0,0,1-20.207,4.772c-9.357-1.133-18.8-1.55-28.188-2.46a18.076,18.076,0,0,0-10.92,2.392,55.331,55.331,0,0,0-11.063,7.848c-5.934,5.609-11.946,11.1-15.709,18.568-1.939,3.847-2.006,3.758,1,6.958,2.333,2.487,5.616,3.268,8.37,4.99,2.264,1.414,2.58,1.238,3.036-1.463,1.746-10.319,8.064-16.227,17.841-19.063,3.223-.935,6.456-.858,9.709-.914,6.9-.118,13.836.232,20.69-.375,5.381-.477,10.668-1.887,16.159-1.55,4.067.25,7.386-1.52,10.179-4.381a68.024,68.024,0,0,0,7.275-8.782,58.125,58.125,0,0,1,16.8-16.055c4.76-3.019,9.08-6.615,13.689-9.8a18.038,18.038,0,0,0,6.732-8.171c1.54-3.674,4.017-7.169,3.97-11.205-.092-7.811-.737-15.641-4.9-22.595a41.461,41.461,0,0,1-3.665-8.459,90.215,90.215,0,0,0-5.328-13.091c-.333-.647-.866-1.291-1.617-1.147-.36.069-.682.789-.86,1.274-1.6,4.343-3.911,8.244-7.653,11.021a3.487,3.487,0,0,0-1.409,4.237,19.117,19.117,0,0,0,1.492,4.079C304.058,124.475,304.509,131.665,304.176,138.991Zm-62.944,156.58c-2,0-4-.084-5.993.019-3.309.172-8.316,4.373-8.834,7.557-.523,3.218-.85,6.474-1.109,9.726-.254,3.2.206,3.746,3.671,3.646a71.4,71.4,0,0,1,13.553.988c13.487,2.2,24.786,8.017,32.122,20.13a72.457,72.457,0,0,0,7.015,9.7,41.875,41.875,0,0,1,5.131,7.687c1.706,3.206,3.456,6.395,5.34,9.5,3.667,6.042,8.362,10.9,15.247,13.367a115.136,115.136,0,0,1,12.031,5.046,10.656,10.656,0,0,0,7.383.624c1.928-.422,2.244-1.16.817-2.418a36.521,36.521,0,0,1-7.52-9.95c-2.118-3.8-4.053-7.708-6.025-11.59a47.034,47.034,0,0,1-3.813-10.146c-1.032-4.2-1.794-8.608-4.19-12.322-4.821-7.472-9.677-14.932-15.5-21.7a26.878,26.878,0,0,0-7.422-6.335c-4.3-2.337-8.655-4.588-13.018-6.814C261.053,297.661,251.308,295.826,241.232,295.571Zm-41.817,16.888a14.62,14.62,0,0,0-2.906-5.086c-9.053-11.761-20.612-20.379-33.954-26.629-7.4-3.466-15.132-3.3-22.885-1.089-2.966.844-5.891,1.918-8.911,2.474-10.34,1.9-20.175.75-29.167-5.2-4.542-3.006-9.2-5.836-13.813-8.736a44.922,44.922,0,0,1-14.116-13.4c-3.227-4.947-3.233-4.949-8.822-3.552a17.537,17.537,0,0,1-2.08.639c-1.834.215-1.757,1.087-1.335,2.606,1.8,6.479,4.462,12.634,6.848,18.9,1.893,4.966,5.229,8.379,9.7,11.249,10.911,7,22.76,12.071,34.446,17.491a27.447,27.447,0,0,0,10.538,2.471c10.231.406,20.316-.314,30.013-3.926a20.275,20.275,0,0,1,12.822-.645,50.153,50.153,0,0,1,16.718,7.692,53.692,53.692,0,0,1,9.2,9.214c.557.669,1.013,1.568,2.021,1.655C195.289,318.714,199.525,314.186,199.415,312.459ZM288.482,146.2a9.507,9.507,0,0,1-2.1,9.7c-4.01,4.116-7.57,8.837-12.695,11.706-10.6,5.933-21.4,5.981-32.216.574-5.339-2.668-10.278-6.051-15.668-8.67-4.332-2.1-8.043-2.435-11.982.8a41.286,41.286,0,0,1-7.436,4.389c-3.841,1.975-6.615,5.08-9.013,8.488-4.488,6.379-8.688,12.961-13.161,19.353-2.667,3.811-4,8.129-5.242,12.485a12.555,12.555,0,0,0-.2,4.861c.269,2.146,2.4,2.675,3.958,3.288,1.791.705,1.692-1.394,2.216-2.349,1.045-1.9,1.824-3.952,2.837-5.875,4.13-7.84,10.186-14.241,16.75-19.877,7.039-6.043,15.392-9.527,25.185-7.265a78.142,78.142,0,0,0,9.695,1.273,160.454,160.454,0,0,1,16.636,2.464c6.486,1.363,12.084.491,16.975-3.257,5.766-4.419,12.048-8.142,17.527-12.9,7.247-6.294,11.435-13.922,9.412-23.968-.354-1.757-.1-3.627-.282-5.429-.715-7.037-1.249-14.115-4.611-20.571-.7-1.339-1.305-2.638-3.066-2.672-3.769-.073-5.785-2.707-7.7-5.378a30.032,30.032,0,0,1-4.217-8.211,16.277,16.277,0,0,0-4.1-6.339c-.372-.381-.926-.747-1.406-.355a1.906,1.906,0,0,0-.7,1.33q.472,7.057,1.11,14.1a3.112,3.112,0,0,0,.769,1.419c4.525,5.809,7.161,12.442,9.486,19.4C287.105,134.311,288.627,139.782,288.482,146.2Zm2.875,79.181c.362,2.581.959,6.343,1.406,10.123.9,7.652,4.861,13.108,11.685,16.553a7.184,7.184,0,0,0,1.372.384,6.552,6.552,0,0,0-.011-1.591A65.562,65.562,0,0,1,304,244.03c-1.386-9.8.016-19.514,1.242-29.22a6.575,6.575,0,0,1,.663-2.047c4.576-9.213,10.463-16.882,21.175-19.637,8.245-2.121,16.4-4.688,23.737-9.206,5.405-3.328,10.642-6.943,16.154-10.078a42.574,42.574,0,0,0,9.662-7.873c2.628-2.748,4.939-5.794,7.481-8.628a40.332,40.332,0,0,0,8.314-13.88c3.488-10.1,6.979-20.2,10.714-30.2,1.971-5.28.156-9.959-1.47-14.757a1.3,1.3,0,0,0-.732-.733c-.88-.26-.693.552-.767.957-2.52,13.723-9.008,25.543-17.483,36.4-5.356,6.858-10.723,13.71-16.216,20.457-5.979,7.344-12.514,14.183-20.848,18.872a125.893,125.893,0,0,1-26.048,10.805c-5.389,1.6-11.036,3.165-15.087,7.093C295.6,200.962,291.7,211.926,291.357,225.383Zm105.925-8.743c.232.809.451,1.875.838,2.876a22.615,22.615,0,0,0,11.713,13c3.058,1.431,3.435,1.349,3.431-2.011a99.258,99.258,0,0,1,2.912-24.778c4.461-17.486,11.609-33.9,20.091-49.767,4.443-8.311,8.873-16.632,15.1-23.816,4.28-4.935,8.342-10.047,12.425-15.147,2.875-3.591,5.278-7.981,10.375-9.177a2.115,2.115,0,0,0,1.554-2.015c.577-4.767,2.625-9.018,4.555-13.316.292-.651.578-1.479-.228-1.884-.337-.169-1.072.164-1.479.466-10.586,7.867-22.382,14.273-30.368,25.281a30.926,30.926,0,0,1-4.086,4.366c-9.041,8.384-15.55,18.535-21.128,29.433-4.3,8.4-7.652,17.238-11.935,25.631a150.907,150.907,0,0,0-12.279,34.78C398.325,212.5,397.826,214.433,397.282,216.64Zm8.308-89.6c0-1.816.048-3.634-.026-5.447a8.212,8.212,0,0,0-.538-1.893c-.82.4-.646,1.23-.754,1.9-2.171,13.507-7.666,25.669-15.26,36.9-6.237,9.221-13.221,17.789-23.084,23.518a62.7,62.7,0,0,0-5.744,4.139A71.308,71.308,0,0,1,337.4,197.436c-3.669,1.07-7.2,2.469-10.8,3.688-8.128,2.75-12.723,9.153-15.908,16.25a41.216,41.216,0,0,0-2.265,26.686c.788,3.352,1.792,6.653,2.705,9.975a7.694,7.694,0,0,0,4.935,5.413,47.327,47.327,0,0,0,6.282,1.759c2.3.5,2.769.185,2.237-2.12-1.408-6.108-.879-12.2-.721-18.377.392-15.251,7.758-25.538,21.044-32.29,12.8-6.506,25.1-13.75,35.4-24.041a95.007,95.007,0,0,0,11.38-13.812c5.959-8.726,8.724-18.684,11.767-28.56C404.96,137.142,406.1,132.2,405.59,127.041ZM209.79,303.035a16.774,16.774,0,0,0-2.777-4.761c-9.156-12.336-20.5-22.517-31.974-32.581a53.965,53.965,0,0,0-15.839-9.385c-2.792-1.116-5.715-1.873-8.447-.536-3.218,1.576-6.644,1.834-10.018,2.341-14.525,2.183-28.933,2.63-42.694-3.835-3.615-1.7-7.454-3.071-10.749-5.257-4.075-2.7-7.775-1.706-11.744-.235-1.848.684-1.609,1.516-.666,2.79a34.252,34.252,0,0,0,11.057,9.511c6.182,3.454,12.406,6.833,18.631,10.208,7.272,3.943,15.079,4.916,23.218,4.236,5.109-.427,9.87-2.329,14.86-3.249,6.4-1.18,12.73-1.019,18.737,1.514,14.347,6.047,26.137,15.526,35.946,27.537.917,1.123,1.68,2.371,2.538,3.543,1.281,1.748,1.583,5.448,3.1,5.288,1.794-.189,3.313-2.974,4.953-4.633a12.083,12.083,0,0,0,1.145-1.164A9.731,9.731,0,0,0,209.79,303.035Zm3.048-2.512a1.428,1.428,0,0,0,.466-.188c3.378-3.019,6.973-5.8,9.871-9.339.865-1.054.678-1.844-.084-2.849-5.929-7.812-11.68-15.769-18.5-22.858-9.023-9.382-19.917-16.393-30.845-23.158a30.653,30.653,0,0,0-28.212-2.756c-5.766,2.229-11.874,3.146-18,3.916-8.918,1.12-17.74,1.312-26.371-1.715a3.915,3.915,0,0,0-2.662-.055c-3.255,1.125-6.522,2.213-9.76,3.383-.451.162-.764.705-1.141,1.072a6.552,6.552,0,0,0,1.214.885c10.069,4.268,20.2,7.916,31.473,7.633a99.984,99.984,0,0,0,29.949-4.853,12.5,12.5,0,0,1,9.513.255c6.714,2.935,12.977,6.509,18.308,11.614,5.117,4.9,10.137,9.921,15.5,14.546a98.647,98.647,0,0,1,13.833,14.553c2,2.6,4.092,5.137,4.178,8.664C211.58,300.005,211.783,300.711,212.838,300.523Zm117.131-57.281c-.481,11.49-.3,12.213,4.852,20.735a7.567,7.567,0,0,1,.567.929c1.406,3.364,4.152,5.425,7.077,7.313.736.474,1.515,1.219,2.394.658.668-.427.322-1.326.3-2.04a68.934,68.934,0,0,1,6.025-30.633,24.453,24.453,0,0,1,11.086-12.259c2.89-1.521,5.761-3.08,8.662-4.58,5.29-2.733,9.2-7.022,12.928-11.5a13.044,13.044,0,0,0,3.047-6.849c.967-7.724,2.111-15.425,3.157-23.139.086-.633.459-1.541-.4-1.83-.781-.262-1.272.55-1.741,1.07-3.285,3.635-6.536,7.3-9.821,10.936a73.964,73.964,0,0,1-14.175,11.728c-6.5,4.338-13.573,7.613-20.007,12.041-9.009,6.2-14.512,14.05-13.958,25.381C330.015,242.3,329.969,243.387,329.969,243.242ZM134.77,130.579c-3.969.373-7.953.625-11.9,1.143-8.792,1.154-17.583,2.328-26.34,3.71-6.25.986-12.446,2.315-18.659,3.522-.675.131-1.493.395-1.5,1.213,0,.279.8.6,1.266.833a28.828,28.828,0,0,1,14.539,15.453,20.575,20.575,0,0,1,1.563,6.857,1.888,1.888,0,0,0,.941,1.834c1.092.472,1.572-.5,2.134-1.142,1.433-1.634,2.709-3.43,4.279-4.916,4.8-4.538,11.152-4.522,15.937-.057,1.454,1.356,2.721,2.91,4.715,3.573,2.45.815,3.429.429,3.783-2.107a19.573,19.573,0,0,1,1.352-5.214c2.17-4.966,5.178-6.1,9.991-3.726a32.884,32.884,0,0,1,5.76,4.061c2.018,1.6,2.555,1.5,3.253-.9,1.254-4.319,4.225-5.938,8.435-6.379,3.752-.392,7.175.6,10.617,1.727,1.473.484,2.37.152,2.937-1.385.791-2.147,1.1-4.122-.4-6.156-2.664-3.613-4.566-8.327-9.557-9.076C150.248,132.3,142.69,129.931,134.77,130.579ZM401.991,370.342c1.444.14,2.894.24,4.332.427a7.171,7.171,0,0,0,7.1-2.865c2.477-3.108,5.319-5.923,7.9-8.954a111.257,111.257,0,0,0,7.847-9.712c6.842-10.167,9.8-21.677,10.989-33.72.075-.757.565-1.907-.618-2.277-.75-.235-1.239.574-1.819.983-4.777,3.37-8.046,2.469-9.989-2.918a28.636,28.636,0,0,1-1.768-9.028c-.12-4.8-1.8-9.2-3.97-13.432-.551-1.078-1.282-1.829-2.517-1.606a3.057,3.057,0,0,0-2.435,2.625,6.6,6.6,0,0,0,.21,2.111c1.919,13.521-.949,26.324-6.106,38.693a103.19,103.19,0,0,1-21.1,32.672c-2.59,2.666-2.354,2.637.441,4.792C394.024,370.864,398.114,369.866,401.991,370.342Zm-99.6,16.3V386c3.808,0,7.617.044,11.424-.027a3.479,3.479,0,0,0,2.855-1.319,20.171,20.171,0,0,0-3.012-.63c-14.208-.826-23.5-8.387-29.056-21.107a57,57,0,0,0-10.088-16.035,39.638,39.638,0,0,1-5.067-7.056,29.7,29.7,0,0,0-11.823-11.748c-9.593-5.08-19.94-7.57-30.636-8.9-1.674-.208-2.269.329-2.516,1.895a90.193,90.193,0,0,0-1.046,12.979c-.044,3.912.217,4.4,4.158,4.881a63.965,63.965,0,0,1,13.144,3.351c9.775,3.384,17.71,9.064,22.9,18.212a34.5,34.5,0,0,0,4.884,6.531,149.875,149.875,0,0,1,11.339,13.214,22.614,22.614,0,0,0,5.1,4.872,8.5,8.5,0,0,0,6.573,1.645C295.089,386.293,298.763,386.642,302.393,386.642ZM162.555,223.1c-9.105-1.01-17.534,1.236-25.984,3.158-9.051,2.059-17.4,6.022-25.736,9.958-1.731.817-3.879.982-5.067,2.809,1.793,1.66,4.028.606,6.032.972a9.3,9.3,0,0,0,2.172.131c10.149-.575,20.316-1.161,29.452-6.35,12.066-6.854,23.385-4.339,34.238,2.772,3.629,2.378,6.727,5.566,10.353,7.949,13.4,8.807,23.782,20.626,33.565,33.082,1.96,2.5,3.241,5.547,5.975,7.42,2.546-2.021,5.072-4.068,7.647-6.05,1.137-.875,1.817-1.911,1.084-3.255-3.548-6.508-6.517-13.389-11.852-18.77-5.359-5.4-10.742-10.784-16.064-16.224a22.629,22.629,0,0,0-8.445-5.72,43.438,43.438,0,0,1-10.093-5.224c-3.989-2.848-8.458-3.975-13.035-5.052A82.33,82.33,0,0,0,162.555,223.1ZM369.584,122.123c.338-5.43-1.15-10.742-1.675-16.153a46.832,46.832,0,0,0-9.595-23.921c-1.638-2.17-3.3-4.323-4.9-6.521a43.079,43.079,0,0,0-6.837-7.706,1.935,1.935,0,0,0-1.467-.521c-.85.289-.508,1.148-.461,1.806a4.353,4.353,0,0,0,.225,1.062c2.826,8.434-2.184,15.74-9.129,19.267-2.767,1.4-2.763,1.49-.965,3.833,4.193,5.463,8.361,10.89,11.049,17.365,6.82,16.432,9.751,33,2.709,50.141a3.411,3.411,0,0,0-.329,1.029,3.569,3.569,0,0,0,.221.994,3.442,3.442,0,0,0,1.011-.35c3.481-2.684,6.1-6.2,9-9.439,4.639-5.193,8.636-10.7,9-18.034a6.64,6.64,0,0,1,.453-2.122A25.825,25.825,0,0,0,369.584,122.123Zm63.964,103.809c-.105,8.652-.837,7.469,7.266,7.2.726-.024,1.451-.09,2.177-.106,2.24-.052,3.023-1.125,3.088-3.411a79.8,79.8,0,0,1,3.788-23.014,116.809,116.809,0,0,1,8.392-19.441c4.1-7.469,7.446-15.32,11.832-22.66,5.958-9.971,12.806-18.948,23.443-24.36.787-.4,1.859-.854,2.136-1.548,2.326-5.841,6.748-10.32,9.931-15.593.732-1.212,2.055-2.486,1.173-3.926-1.031-1.684-3.032-1.915-4.847-1.773a13.034,13.034,0,0,0-3.63,1.093,27.12,27.12,0,0,0-10,7.354c-4.644,5.1-9.452,10.044-14.139,15.1a86.265,86.265,0,0,0-10.87,13.612c-10.479,17.262-19.949,35.017-25.9,54.439C435.645,214.6,433.073,220.119,433.548,225.932Zm48.481-141.36c.071-3.479-.653-4.475-3.652-4.7a45.886,45.886,0,0,0-7.061.131c-9.961.792-19.33,3.164-26.728,10.489-3.737,3.7-7.647,7.262-11.075,11.234-4.587,5.316-10.148,9.915-12.861,16.7-1.15,2.876-3.929,4.932-4.9,7.681-1.047,2.959-.613,6.436-.878,9.683a12.712,12.712,0,0,1-.519,2.112,241.689,241.689,0,0,1-8.325,26.982c-1.971,5.056-3.589,10.249-5.346,15.388-.2.6-.695,1.246.02,1.853a9.92,9.92,0,0,0,1-1.28c5.6-10.157,11.347-20.235,16.723-30.509a131.215,131.215,0,0,1,23.037-32.14,47.536,47.536,0,0,0,4.952-5.773,53.466,53.466,0,0,1,13.42-12.6,138.582,138.582,0,0,1,18.908-10.72C481.03,88.006,482.09,86.512,482.029,84.572Zm-66.217,147.3c-.158,2.357.312,2.825,3.759,2.215a36.8,36.8,0,0,1,6.513-.323c2.649,0,3.014-.305,2.4-2.818a28.513,28.513,0,0,1-.722-11.334,141.11,141.11,0,0,1,3.9-16.4c3.27-11.462,8.757-21.858,14.76-32.059,8.308-14.122,17.047-27.883,29.171-39.168,3.451-3.212,6.585-6.765,9.887-10.139.815-.832,1.771-1.7-.141-2.18-3.073-.775-4.77-3.2-6.711-5.327-2.539-2.781-2.561-2.878-4.838-.528a288.659,288.659,0,0,0-20.032,22.259c-7.371,9.381-12.041,20.243-16.631,31.122-4.3,10.2-8.338,20.512-12.777,30.651C419.707,208.446,417.183,219.527,415.812,231.875ZM191.733,118.027c-.015-.254-.066-1.339-.142-2.423-.84-11.922-3.11-23.708-3.391-35.684-.052-2.253-1.146-4.191-2.129-6.114a102.6,102.6,0,0,0-8.776-13.75,23.594,23.594,0,0,0-3.508-3.368.929.929,0,0,0-.9-.068,1.181,1.181,0,0,0-.179.968c.932,3.315,1.923,6.614,2.86,9.927,2.026,7.165,3.787,14.446,4.184,21.854.8,14.888-.408,29.748-2.414,44.488-.7,5.175-1.986,10.209-1.37,15.5.737,6.329-2.912,9.761-8.007,12.049-3.34,1.5-3.607,1.532-3.233,4.924.574,5.216,1.312,10.414,2.023,15.615q.661,4.845,1.466,9.67c.106.643.3,1.533,1.151,1.5.378-.015.844-.644,1.075-1.094,1.905-3.706,3.93-7.364,5.59-11.179,1.67-3.839,4.406-7.035,5.924-10.988C188.274,153.426,191.143,136.371,191.733,118.027Zm-128.9,41.824c-.205,5.428-.377,10.9,1.342,16.14,1.184,3.607,2.576,7.15,3.988,10.677,5.519,13.781,12.622,26.482,24.674,35.76,3.75,5.729,8.471,4.712,13.446,1.936.158-.088.319-.173.484-.249,3.508-1.613,3.522-1.628.833-4.139-2.651-2.474-5.465-4.8-7.411-7.922-3.355-5.385-6.751-10.746-10-16.2a63.368,63.368,0,0,1-5.47-11.817c-2.571-7.46-2.324-15.02-.808-22.533,1.079-5.353-1.363-8.672-5.33-11.365-3.785-2.57-8.183-3.709-12.568-4.733-2.81-.656-3.008-.532-3.142,2.54C62.7,151.909,62.828,155.883,62.828,159.851Zm112.716-58.524c-.056-5.073.347-10.173-.453-15.209-1.619-10.2-3.875-20.268-6.335-30.289-1.44-5.867-8.358-11.1-14.449-11.113A7.845,7.845,0,0,0,147.342,56.1c1.276,2.4,2.575,4.8,4.05,7.077a47.288,47.288,0,0,1,7.552,24.093c.536,12.487,1.528,24.977.615,37.481-.139,1.895.619,2.478,2.026,3.214a22.675,22.675,0,0,1,8.638,7.294c.377.56.772,1.513,1.549,1.3.955-.26,1.129-1.338,1.2-2.212C173.863,123.346,175.8,112.422,175.544,101.327ZM54.157,143.068c-7.055-.281-8.142-.806-8.988,7.024a25.671,25.671,0,0,0-.117,2.718c0,5.8-.1,11.6.041,17.388a69.707,69.707,0,0,0,8.944,32.76c6.226,11.132,15.225,20.317,22.276,30.887a5.216,5.216,0,0,0,.772.764,3.251,3.251,0,0,0,3.968.763c3.446-1.622,6.919-3.189,10.349-4.844,1.086-.524.991-1.382.191-2.143S89.9,227,89.147,226.219c-4.664-4.826-10.093-9.021-13.517-14.9a167.452,167.452,0,0,1-16.4-37.3,20.048,20.048,0,0,1-.772-5.372,86.575,86.575,0,0,1,1.635-20.039c1.055-4.806.709-5.237-4.193-5.538A16.108,16.108,0,0,0,54.157,143.068Zm331.05,71.356c-.6.834-1.413,1.808-2.058,2.882A37.485,37.485,0,0,1,370.364,229.7c-2.465,1.537-4.913,3.1-7.409,4.586a12.272,12.272,0,0,0-4.269,4.142c-6.624,10.9-8.675,22.889-8.2,35.454.211,5.558,3.206,9.909,6.07,14.338,2.961,4.579,5.44,9.358,5.576,14.989.139,5.719,4.073,9.041,7.846,12.452.918.831,1.961.956,2.776-.225,1.54-2.233,3.189-4.405,4.549-6.744,1.9-3.262,1.987-3.555-.906-5.824-6.494-5.092-10.421-12.011-14.2-19.064a16.833,16.833,0,0,1-2.273-10.472c.842-5.93,1.689-11.846,4.329-17.343,4.395-9.151,9.953-16.938,20.851-18.956a18.511,18.511,0,0,0,4.548-1.759,2.01,2.01,0,0,0,1.246-2.646,91.883,91.883,0,0,1-4.266-17.411C386.546,214.583,386.134,214.359,385.207,214.424ZM445.853,315.8a21.314,21.314,0,0,1-.607,7.115,100.558,100.558,0,0,1-14.027,32.24c-2.843,4.21-5.819,8.328-8.624,12.561-1.06,1.6-.61,2.2,1.321,2.25,6.181.168,10.7-3.013,14.534-7.382a107.137,107.137,0,0,0,25.642-53.818c1.149-6.808.472-13.405-2.976-19.527-1.722-3.056-2.333-3.143-4.671-.356-3.145,3.75-6.017,7.732-9.212,11.437a9.372,9.372,0,0,0-2.137,8.58C445.58,311.211,446.279,313.486,445.853,315.8Zm2.44-86.453c-.01,2.811.49,3.71,3.089,4.142a53.2,53.2,0,0,1,8.822,2.668c2.192.767,2.416.68,2.169-1.868a42.213,42.213,0,0,1,1.249-13.487c1.364-6.006,2.624-12.053,4.384-17.947,2.541-8.515,5.352-17.014,10.765-24.23,5.117-6.823,11.127-12.891,17.168-18.9,1.275-1.269,3.382-2.153,3.89-3.632.689-2-2.068-3.059-2.763-4.876-.322-.841-.779-1.63-1.122-2.464-1.528-3.722-1.472-3.651-4.973-1.326-6.677,4.433-11.113,10.84-15.463,17.324a238.562,238.562,0,0,0-21.219,40.336C450.954,212.978,449.637,221.436,448.293,229.35ZM38.449,143.862l.006.122c-1.266.076-2.532.16-3.8.226a2.27,2.27,0,0,0-2.364,1.733,93.374,93.374,0,0,0-4.962,21.1c-.823,8.834.137,17.346,4.833,25.174,2.6,4.337,5.131,8.737,7.372,13.267,3.46,7,7.136,13.849,11.958,20.008,3.8,4.848,7.757,9.567,11.626,14.358a3.634,3.634,0,0,0,4.8,1.216c.986-.449,2.056-.712,3.057-1.134,5.066-2.134,5.042-2.124,1.191-6.227-1.239-1.32-2.325-2.782-3.513-4.151-3.321-3.829-6.37-7.872-9.958-11.495-11.616-11.728-17.548-26.29-18.527-42.436-.606-10.007-1.625-20.329,1.8-30.229.4-1.17-.243-1.657-1.354-1.645C39.887,143.76,39.168,143.823,38.449,143.862ZM343.337,58.975c-.406,3.1.532,5.208,3.753,6.255a11.506,11.506,0,0,1,4.085,2.618c5.568,5.232,10.682,10.923,14.01,17.841A99.176,99.176,0,0,1,375.5,129.115c0,.551-.023,1.231.511,1.319.381.062.984-.385,1.278-.766,3.318-4.317,6.427-8.755,8.074-14.042.923-2.961,1.8-5.93,1.2-9.068-2.5-13.305-6.532-25.967-15.013-36.873-4.911-6.316-10.07-12.331-16.416-17.28a14.561,14.561,0,0,0-5.816-2.787c-3.512-.8-4.571-.044-5.156,3.462C343.841,55.037,343.611,57.01,343.337,58.975ZM13.577,178.681c0,.725.018,1.451,0,2.176-.371,12.363,1.239,24.224,8.381,34.805,1.2,1.775,1.741,3.981,2.69,5.937,3.039,6.273,6.643,12.061,12.97,15.655,2.036,1.156,3.833,2.727,5.767,4.069,2.537,1.76,5.085,3.579,8.265,3.91,1.96.2,4.457.316,5.341-1.5.617-1.268-1.237-2.81-2.466-3.914-.27-.242-.552-.476-.8-.742a129.3,129.3,0,0,1-18.4-24.826q-3.162-5.709-6.1-11.544c-3.179-6.318-6.519-12.65-7.518-19.73-1.624-11.5-2.751-23.052,1.308-34.37.106-.293.165-.783,0-.958-.443-.48-1-.2-1.4.122a19.674,19.674,0,0,0-6.749,10.857C13.277,165.239,13.749,171.98,13.577,178.681Zm97.9-7.539c.86-2.642-.24-5.261-.677-7.918-.222-1.353-1.095-1.224-1.864-.383-.61.666-1.065,1.471-1.651,2.162-2.463,2.9-4.674,6.09-7.49,8.6-4.609,4.1-8.149,3.148-10.476-2.439-.626-1.5-1.009-3.106-1.611-4.62-.24-.6-.582-1.39-1.433-1.26-.14.022-.174.992-.192,1.526-.263,7.841,2.194,14.98,5.8,21.774,3.226,6.084,7.287,11.687,10.674,17.658,2.421,4.268,5.944,6.687,10.02,8.747a27.037,27.037,0,0,1,3.454,1.576c2.691,1.9,5.406,1.478,8.229.479,3.265-1.154,3.458-1.336,1.64-4.5-5.18-9.022-8.528-18.8-11.976-28.538A35.71,35.71,0,0,1,111.472,171.142Zm139.949,56.915c-4.82-.14-8.092-.228-11.281.661-7.319,2.04-10.92,7.913-14.339,13.968-.674,1.193-.064,2.042.7,2.885,2.55,2.824,5.109,5.64,7.624,8.5,1.166,1.325,1.99,1.271,2.695-.4a26.294,26.294,0,0,1,1.461-2.917c2.485-4.3,5.917-7,11.084-7.769,4.074-.6,7.917.536,11.881.536,2.724,0,5.405.245,8-.968a75.422,75.422,0,0,0,12.153-7.132,4.751,4.751,0,0,0,2.158-4.636c-.431-5.113.573-10.076,1.639-15.043.284-1.323,1.36-3.325.032-3.992-1.4-.706-2.151,1.477-3.167,2.411-.664.612-1.213,1.348-1.844,2-4.615,4.748-9.791,8.7-16.354,10.225C259.283,227.444,254.623,228.26,251.421,228.057ZM94.58,116.768c.316,2.913-.336,5.951-.708,9.007-.181,1.493.469,2.03,1.829,1.825,3.943-.6,7.86-1.487,11.823-1.787,3.336-.252,3.483-1.432,3.611-4.131.667-14.14-1.639-27.842-5.792-41.3-.326-1.056-.554-2.2-2.042-1.973-3.565.544-5.19-2.075-6.95-4.329-4.479-5.736-6.146-12.676-8.16-19.463-.533-1.8-.13-4.838-2.478-4.768-2.133.064-2.792,3.037-3.781,4.935-1.006,1.931.4,3.49,1.07,5.115C90.476,78.057,95.354,96.736,94.58,116.768Zm368.7-52.42a29.408,29.408,0,0,0-12.576,3.785c-7.5,4.379-14.778,9.146-22.264,13.555-6.132,3.612-10.432,8.88-14.283,14.664a7.852,7.852,0,0,0-1.229,7.154,81.4,81.4,0,0,1,1.67,8.521c.37,1.937.763,3.87,1.147,5.8,2.423-.747,2.223-3.451,3.692-4.961a47.729,47.729,0,0,0,4.4-5.495c6.276-8.722,13.077-16.8,22.211-22.877,5.972-3.977,11.964-7.48,18.975-9.1,3.349-.775,6.705-1.539,10.015-2.459,2.305-.641,2.595-1.814.9-3.4A20.166,20.166,0,0,0,463.282,64.348ZM467.4,234.381c-.047.543-.117,1.085-.136,1.629-.124,3.565,1.815,5.788,5.324,6.092,1.222.106,1.582-.715,1.551-1.694-.148-4.573.915-9,1.527-13.487,1.605-11.763,4.48-23.194,10.159-33.673,6.138-11.326,13.846-21.313,25.841-27.167,2.768-1.351,5.357-3.077,8.148-4.372a2.166,2.166,0,0,0,1.382-3c-.8-2.711-2.454-3.915-5.263-3.526-2.689.372-5.369,1.541-8,1.4-3.535-.189-5.889,1.251-8.04,3.655-8.128,9.085-15.9,18.44-21.53,29.344-5.783,11.2-10.391,22.779-11.306,35.572C466.832,228.281,467.559,231.3,467.4,234.381Zm-350.84-60.163A26.4,26.4,0,0,0,117.579,179c3.489,8.92,6.2,18.195,11.8,26.171,1.887,2.684,3.78,5.319,6.556,7.179.908.609,1.774,1.342,2.951,1.178,3.948-.549,7.89-1.146,11.836-1.711,1.207-.172,1.471-.767.919-1.821-.421-.8-.767-1.648-1.215-2.435C143.9,196.1,140.3,183.55,136.757,170.975a67.034,67.034,0,0,1-1.993-9.013,2.811,2.811,0,0,0-2.973-2.608c-1.478.14-.734,1.731-.883,2.7-.083.535-.03,1.089-.091,1.629-.66,5.826-6.634,10-12.172,8.049C115.773,170.724,116.66,172.386,116.561,174.218Zm297.774,124.95c0-1.27.026-2.542-.018-3.811a1.32,1.32,0,0,0-.4-.91c-.565-.427-.994.024-1.345.418-3.829,4.3-6.922,9.275-11.862,12.546a3.767,3.767,0,0,0-1.261,2.317c-1.3,7.251-4.805,13.568-7.9,20.136A54.615,54.615,0,0,1,373.5,351.833c-.991.7-1.73,1.359-.541,2.49,2.357,2.243,4.483,4.693,7.309,6.476,2.117,1.335,3.246,1.113,5.029-.665a103.757,103.757,0,0,0,22.467-33.09A82.331,82.331,0,0,0,414.335,299.168ZM115.5,114.947c-.123,1.88-.25,3.143-.282,4.409-.121,4.875-.114,4.829,4.6,4.344,2.158-.222,4.339-.227,6.51-.32,1.549-.067,2.334-.732,2.052-2.4-.666-3.936-.219-7.913-.375-11.853A193.173,193.173,0,0,0,124.6,77.384c-1.346-6.492-4.815-11.618-8.167-16.952-.961-1.529-1.655-.63-2.258.477-1.656,3.037-2.272,6.612-4.047,9.456-2.88,4.614-2.15,8.843-.209,13.3.216.5.4,1.011.6,1.514C114.489,94.932,114.866,105.265,115.5,114.947Zm44.506,48.416a8.421,8.421,0,0,0-3.579-9.06c-1.09-.759-2.066-1.5-3.448-1.124-1.588.435-1.606,1.752-1.656,3.052a19.45,19.45,0,0,1-.191,2.17c-.821,5.365-4.192,7.306-9.233,5.331-.676-.264-1.34-.567-2.033-.779-.5-.154-1.153-.414-1.552-.228-.889.413-.449,1.259-.232,1.891,1.941,5.659,4.254,11.174,6.445,16.737,3.26,8.278,6.939,16.367,10.336,24.577,1.858,4.49,4.681,6.673,9.4,6.621,1.407-.016,3.221,1.055,4.121-.235.983-1.411-.133-3.108-.838-4.564-.554-1.143-1.251-2.219-1.783-3.371a41.691,41.691,0,0,1-3.631-11.9A270.616,270.616,0,0,1,160.005,163.363Zm234.54-75.378c-.672-9.182-3.23-17.058-9.484-23.528-3.644-3.77-7.417-7.537-9.842-12.245-1.671-3.246-4.336-5.141-7.174-7.137-6.249-4.4-12.391-2.405-18.583-.1a1.912,1.912,0,0,0-1.055,1.145c-.261,1.116.806.889,1.363,1.027,5.423,1.338,9.9,4.316,14.059,7.909,4.714,4.067,8.151,9.2,11.864,14.088a65.515,65.515,0,0,1,11.523,24.387c.855,3.507,1.805,6.992,2.777,10.469.106.382.641.644.977.961a7.15,7.15,0,0,0,.5-.949C393.378,98.689,393.8,93.093,394.545,87.985ZM277.4,387.6c.635-.128,1.611-.039,1.963-.465.5-.608-.267-1.218-.7-1.783-3.993-5.156-7.545-10.669-12.285-15.222A36.609,36.609,0,0,1,260,362.025a34.685,34.685,0,0,0-14.971-13.8c-5.688-2.865-11.445-5.5-17.7-6.883-1.542-.342-2.093.265-1.612,1.674,1.165,3.414,2.142,6.883,4.016,10.049,1.121,1.892,2.156,3.156,4.612,2.855a7.757,7.757,0,0,1,6.1,1.793c2.623,2.232,5.277,4.433,7.81,6.764,5.261,4.843,8.91,10.957,13.031,16.7.919,1.28,1.522,2.934,3.348,3.366C268.857,385.54,273.069,386.564,277.4,387.6Zm119.6-103.357c-.108-1.149-.119-1.88-.253-2.588-.457-2.4-2.307-3.194-4.417-1.991-1.157.659-1.17,1.645-1.122,2.78a48.734,48.734,0,0,1-.474,10.809c-.94,5.239-3.018,10.019-4.761,14.962a61.608,61.608,0,0,1-16.872,24.917c-5.365,4.961-5.409,4.911-2.363,11.385.308.655.553,1.341.886,1.983,1.66,3.2,2.125,3.336,4.537.809,7.147-7.486,13.877-15.336,18.806-24.5,3.84-7.133,5.905-14.674,4.464-22.975a21.745,21.745,0,0,1,.518-10.692A40.173,40.173,0,0,0,396.993,284.247Zm-33.117-8.473c-.12,3.669,3.162,12.655,6.718,16.856,2.864,3.384,5.992,6.67,10.446,8.12,2.173-4.218,3.908-8.57,3.861-13.419-.022-2.289-.248-2.387-2.577-1.457-4.64,1.854-6.761,1.566-9.309-1.263s-3.582-8.825-1.642-12.153c5.5-9.431,11.517-18.433,21.133-24.353,5.388-3.317,5.325-3.861,1.242-8.815-1.095-1.329-1.892-1.293-3.1-.277a22.292,22.292,0,0,1-7.195,3.74,19.8,19.8,0,0,0-10.652,8.791,64.731,64.731,0,0,0-6.58,13.661C365.1,268.626,363.858,272.077,363.876,275.774ZM205.734,118.017A23.93,23.93,0,0,0,202.24,102.5c-1.648-2.808-3.066-5.756-4.488-8.69a34.916,34.916,0,0,0-4.418-6.165,1.053,1.053,0,0,0-1.381-.376c-.206.126-.256.677-.214,1.014.454,3.591.78,7.209,1.447,10.762a125.145,125.145,0,0,1-2.216,55.4c-.275,1.05-.445,2.127-.669,3.19-.21.99-1.107,2.223-.057,2.89.654.416,1.491-.758,2.17-1.346,1.227-1.061,2.315-2.508,3.746-3.07,3.957-1.555,5.125-4.848,5.833-8.463C203.873,138.054,205.933,128.481,205.734,118.017Zm62.346,142.2c9.466-.16,16.374-5.986,18.039-14.828a4.915,4.915,0,0,0-.205-2.108c-.8-3.544-1.2-3.685-3.87-1.42a35.933,35.933,0,0,1-4.693,3.684c-5.433,3.224-11.074,5.421-17.554,3.075-1.857-.673-3.915-.764-5.832-1.3-3.971-1.11-7.125.209-9.8,3.079a37.741,37.741,0,0,0-2.832,3.311c-4.517,6.138-4.346,4.21.211,10.341,1.7,2.288,2.019,2.289,4.285.236a18.408,18.408,0,0,1,13.455-4.811A49.686,49.686,0,0,1,268.08,260.219ZM91.188,110.127c-1.068-8.5-.814-17.274-3.566-25.633C85.417,77.8,83.209,71.1,80.9,64.44c-.374-1.077-.226-2.986-1.859-2.9-1.27.065-1.57,1.826-2.359,2.786-1.015,1.236-.145,2.369.155,3.563,2.074,8.245,4.377,16.43,5.98,24.8.727,3.792,1.324,7.674.485,11.324-1.907,8.3-2.225,16.869-4.482,25.1-.7,2.545-.476,2.709,2.3,2.109,1.413-.307,2.782-.853,4.2-1.06,2.57-.372,3.5-1.874,4.034-4.316C90.482,120.675,90.551,115.432,91.188,110.127Zm127.961,34.322c-.586-7.965-4.523-14.759-7.8-21.786-.128-.273-.455-.637-.692-.639-.651-.006-.806.506-.855,1.09a190.218,190.218,0,0,1-2.625,19.318c-.453,2.4-2.3,5.745-.679,7.177,1.838,1.626,4.812-.953,7.378-1.3.891-.119,1.747-.562,2.636-.625C218.593,147.541,219.41,146.492,219.149,144.449ZM255.838,379.69a10.855,10.855,0,0,0-.692-1.361c-1.638-2.386-3.26-4.784-4.966-7.12-3.357-4.6-8.1-7.674-12.483-11.121-.54-.424-1.633-1.268-2.383-.291-.48.625.29,1.275.725,1.811,3.071,3.789,5.9,7.82,9.3,11.279,2.613,2.654,5.207,5.527,8.752,7.124C254.722,380.294,255.346,380.761,255.838,379.69Zm2.338-117.773a13.7,13.7,0,0,0-9.081,3.8c-.992.869-.473,1.531.467,1.985a2.6,2.6,0,0,0,2.059.243c3.039-1.025,6.1-1.971,9.13-3.034.629-.221,1.619-.856,1.589-1.233-.074-.929-1.144-1.161-1.932-1.4A13.986,13.986,0,0,0,258.176,261.917Zm105.2,51.33c-1.128-.128-1.224.588-1.3,1.312a20.267,20.267,0,0,0,.59,7.449c.461,1.762,1.1,2.091,2.471,1.039q1.911-1.467,3.7-3.082c.374-.337.79-1,.352-1.424C367.267,316.7,365.261,314.953,363.372,313.247Zm-72.644-60.26a5.742,5.742,0,0,0-.969-1.426c-.875-.654-1.271.262-1.612.757a9.361,9.361,0,0,0-.818,1.974c-.368.961-1.231,2.214.045,2.8,1.111.508,1.875-.7,2.355-1.689C290.113,254.609,290.407,253.772,290.728,252.987Zm-47.9-166.218c.578,2.929,2.739,3.688,5.194,1.948,1.177-.834,1.376-1.987,1.6-3.273.57-3.206,1.256-6.394,1.939-9.579,2.571-11.984,8.341-21.946,18.467-29.146.592-.421,1.181-.848,1.751-1.3.5-.391,1.525-.67.986-1.445-.265-.381-1.374-.4-2.022-.246a15.982,15.982,0,0,0-5.219,2.857c-8.3,5.719-13.907,13.755-18.607,22.4a40.691,40.691,0,0,0-4.352,14.853A28.211,28.211,0,0,0,242.825,86.769Zm299.156,20.85a14.222,14.222,0,0,0-4.006-8.111c-.512-.5-1.219-1.106-1.893-.741-.946.512-.811,1.537-.4,2.367,3.643,7.379,3.081,15.036,1.584,22.769a13.8,13.8,0,0,0-.384,3.187c.038.859.417,1.909,1.41,2.013.594.062,1.307-.493,1.882-.893a3.52,3.52,0,0,0,1.32-2.844c.3-3.947.57-7.894.864-12.011A54.543,54.543,0,0,0,541.981,107.619Zm-134.3,155.314a140.377,140.377,0,0,1,21.438-10.393c.679-.259,1.376-.47,2.058-.721s1.464-.548,1.229-1.425c-.063-.235-1-.4-1.5-.327-4.488.61-8.984,1.193-13.448,1.951-6.533,1.111-9.019,4.02-9.671,11.021Zm.1.106c-.462-.085-.655.061-.55.43,0,.016.3.01.337-.056a1.527,1.527,0,0,0,.112-.48ZM108.951,20.721c-.795.089-1.3.49-1.224,1.4.062.739.181,1.549.931,1.782a5.566,5.566,0,0,0,2.633.287c5.689-1.171,10.294.578,14.019,4.932.6.7,1.317,1.352,2.262.513s.243-1.715-.171-2.422c-2.681-4.581-6.967-6.562-11.273-7.226C113.245,20.276,111.1,20.481,108.951,20.721Zm7.857,117.961a6.49,6.49,0,0,0-3.756,2.058,1.824,1.824,0,0,0-.492,1.414,1.446,1.446,0,0,0,1.261.589c5.515-1.128,11.237-.482,16.71-1.974,1.091-.3,2.319-.523,2.255-1.863-.068-1.4-1.385-1.45-2.467-1.532-.722-.055-1.452-.01-3.38-.01C124.352,137.692,120.568,138.109,116.808,138.682Z"/></g></g></svg>