<svg xmlns="http://www.w3.org/2000/svg" viewBox="0 0 75.64 69.414"><title>website-2</title><g id="Layer_2" data-name="Layer 2"><g id="Layer_2_Image" data-name="Layer 2 Image"><path id="Een6gS.tif" d="M0,60.579c.18-3.142.4-6.283.531-9.428C.692,47.228.848,43.3.879,39.378c.033-4.262.264-8.511.488-12.766.174-3.311.071-6.636.133-9.954a28.847,28.847,0,0,1,.932-8.429c.5-1.582.446-3.4,1.842-4.555A9.655,9.655,0,0,1,9.9,1.866c1.609-.135,3.208-.5,4.815-.526a55.232,55.232,0,0,1,5.532-.206c1.739.138,3.518-.35,5.285-.413C28.918.6,32.309.574,35.7.527,38.233.492,40.77.544,43.3.45,45.32.374,47.331.006,49.346,0c2.78-.008,5.56.233,8.341.312,2.554.071,5.13-.121,7.66.15,2.832.3,5.821.585,8,2.727,1.359,1.337,1.615,3.277,1.856,5.116.193,1.484.388,2.975.434,4.468.038,1.23-.231,2.469-.2,3.7.042,1.651-.065,3.3.108,4.96a37.733,37.733,0,0,1-.257,5.072c-.032.94.175,1.889.127,2.826-.132,2.595-.369,5.185-.507,7.78-.065,1.232.024,2.471,0,3.707-.027,1.651-.127,3.3-.127,4.952,0,1.255.114,2.511.159,3.767.056,1.568.122,3.137.131,4.7.008,1.392-.046,2.785-.093,4.176-.042,1.239-.031,2.488-.188,3.714-.254,2-.087,4.326-1.839,5.644a8.569,8.569,0,0,1-4.939,1.514c-1.963.039-3.931.1-5.891.021-2.76-.116-5.512-.463-8.27-.513-2.738-.051-5.48.156-8.221.226-2.8.072-5.576.457-8.394.34-3.033-.125-6.08.091-9.118.042-3.674-.059-7.345-.307-11.019-.344-2.249-.023-4.509.37-6.748.26-2.4-.117-4.892-.166-7.094-1.257C.88,66.885.5,64.521.285,62.153.238,61.631.172,61.11.114,60.589ZM5.79,30.36c-.15,1.393-.324,2.785-.4,4.182q-.26,4.719-.426,9.442c-.07,1.991-.027,3.985-.092,5.977-.074,2.271-.252,4.54-.308,6.811-.044,1.729-.032,3.466.083,5.191.058.872-.113,1.971,1.045,2.39,2.4.868,4.888.527,7.336.464,3.372-.087,6.738-.4,10.117-.228a77.946,77.946,0,0,0,10.555.182c1.46-.123,2.934-.088,4.4-.206,1.871-.15,3.731-.431,5.6-.564,1.795-.127,3.6-.147,5.4-.194a48.193,48.193,0,0,1,7.535-.092,60.465,60.465,0,0,0,10.652.374c.842-.036,2.11.549,2.257-.991.246-2.583.571-5.175.558-7.762-.024-4.518-.346-9.033-.414-13.551-.042-2.775.212-5.554.207-8.33,0-.687.614-1.993-.221-2.044C65.091,31.132,60.5,31.117,55.91,31c-3.308-.083-6.616-.218-9.924-.259-3.114-.039-6.229.045-9.343.02-4.05-.031-8.1-.149-12.149-.169C18.5,30.564,6.075,30.384,5.79,30.36ZM70.267,10.392c-.054-3.031-1.22-4.333-4.012-4.37-3.235-.042-6.478-.024-9.7-.251-3.377-.237-6.744-.147-10.115-.084-2.582.048-5.161.266-7.743.325-3.144.071-6.292.01-9.436.087-2.94.073-5.877.28-8.817.375-2.857.092-5.7.231-8.55.556-4.238.483-4.109.067-4.978,3.832a36.645,36.645,0,0,0-.633,8.018c-.015,2.048-.108,4.1-.308,6.138-.1,1.042-.03,1.443,1.2,1.381,3.964-.2,7.956-.043,11.9-.437,3.358-.336,6.7-.094,10.052-.337,2.125-.154,4.281.131,6.4-.026a89.4,89.4,0,0,1,11.274.257c3.485.182,6.978.267,10.463.416,3.733.159,7.481-.023,11.222-.075.509-.007,1.445-.071,1.459-.191a46.95,46.95,0,0,0,.31-4.831C70.293,17.581,70.267,13.987,70.267,10.392ZM61.545,41.419c.608-.117,1.223-.419,1.047-1.3a1.13,1.13,0,0,0-1.262-.988c-4.29.434-8.568.032-12.85-.107-3.55-.115-7.1-.334-10.647-.378-4.093-.051-8.188.033-12.282.067q-5.566.048-11.132.121c-.311,0-.715,0-.748.438s.373.519.689.6a50.21,50.21,0,0,0,9.856,1.2c4.76.2,9.53.158,14.3.176C44.944,41.269,60.316,41.655,61.545,41.419ZM30.727,54.592a27.059,27.059,0,0,1,.755-5.641c.5-1.662,1.928-1.5,3.206-1.521,2.293-.046,4.589.01,6.881-.067,1.911-.064,2.968.922,2.734,2.8a31.435,31.435,0,0,0-.047,5.632c.126,2.3-1.729,2.21-3.235,2.2a58.852,58.852,0,0,1-8.16-.226C31.053,57.494,30.741,56.317,30.727,54.592Zm1.821-.926c.476.535-.581,2.024.862,2.117,2.729.175,5.477.071,8.217.065.126,0,.37-.185.36-.256a15.159,15.159,0,0,1,.226-4.107c.1-.778-.043-1.264-1-1.234-2.434.077-4.87.082-7.3.153-.371.011-.994-.283-1.091.175A24.182,24.182,0,0,0,32.548,53.666ZM21.853,57.688a20.6,20.6,0,0,1-6.923.148c-2.555-.36-2.925-.833-2.58-3.369a25.789,25.789,0,0,0,.277-3.11c.024-1.825.829-2.725,2.711-2.76,3.03-.057,6.058-.308,9.086-.3,1.31,0,1.8,1.032,1.69,2.3-.149,1.648-.237,3.3-.454,4.943C25.4,57.473,23.862,57.538,21.853,57.688ZM14.264,53.8c.293.492-.373,1.352.749,1.7,2.083.655,4.139.3,6.236.224,1.909-.071,2.523-.8,2.233-2.571-.038-.234.18-.542.094-.73-.251-.549.826-1.559-.293-1.638a26.347,26.347,0,0,0-6.035.178c-.918.149-2.5-.555-2.81,1.209C14.35,52.681,14.327,53.2,14.264,53.8Zm38.593-5.516c2.17,0,4.341-.023,6.51.008a1.679,1.679,0,0,1,1.8,2.091c-.2,2.053-.48,4.1-.715,6.149-.087.757-.6.977-1.237.975-2.869-.008-5.739.014-8.6-.09-1.095-.04-2.031-.507-1.9-1.928.155-1.736.139-3.5.425-5.208C49.483,48.173,51.218,48.2,52.857,48.283Zm-2.133,5.851c.265.368-.749,1.563.47,1.68a41.176,41.176,0,0,0,5.653,0c.555-.023,1.45.216,1.63-.514.341-1.385.443-2.827.678-4.24.056-.338,0-.448-.341-.473-2.037-.151-4.072-.4-6.109-.425-.617-.006-1.791-.945-1.959.569A32.7,32.7,0,0,0,50.724,54.134ZM38.288,15.924a2.988,2.988,0,0,0-3.22-2.994c-2.165.031-3.495,1.536-3.31,4.107a2.4,2.4,0,0,0,2.453,2.132C36.391,19.121,38.313,17.485,38.288,15.924ZM24.82,13.711c-1.526-.024-3.007,1.781-2.975,3.683.03,1.778,1.336,2.319,2.75,2.477,1.37.153,3.084-1.558,3.1-2.86A3.211,3.211,0,0,0,24.82,13.711ZM12.533,18.358a2.033,2.033,0,0,0,2.216,2.011,3.507,3.507,0,0,0,3.175-3.2c-.125-1.615-.779-2.78-2.339-2.782C13.5,14.526,12.365,16.178,12.533,18.358Z"/></g></g></svg>