<?xml version="1.0" encoding="UTF-8"?>
<svg viewBox="0 0 77 70" version="1.1" xmlns="http://www.w3.org/2000/svg" xmlns:xlink="http://www.w3.org/1999/xlink">
    <!-- Generator: Sketch 62 (91390) - https://sketch.com -->
    <title>website</title>
    <desc>Created with Sketch.</desc>
    <g id="Page-1" stroke="none" stroke-width="1" fill="none" fill-rule="evenodd">
        <g id="dato-omnichannel" transform="translate(-9.000000, -18.000000)" fill="#000000" fill-rule="nonzero">
            <path d="M22.0734,36.3572455 C22.1804,37.7482455 23.0874,38.3472455 24.2884,38.3682455 C25.8424,38.3952455 27.5724,36.5712455 27.4644,35.1692455 C27.3394,33.5542455 26.6844,32.3882455 25.1254,32.3862455 C23.0384,32.5252455 21.9044,34.1772455 22.0734,36.3572455 L22.0734,36.3572455 Z M34.3594,31.7102455 C32.8344,31.6862455 31.3524,33.4912455 31.3854,35.3932455 C31.4154,37.1702455 32.7204,37.7122455 34.1364,37.8702455 C35.5054,38.0222455 37.2194,36.3122455 37.2334,35.0102455 C37.2534,33.2872455 35.8994,31.7332455 34.3594,31.7102455 L34.3594,31.7102455 Z M47.8284,33.9232455 C47.7994,32.1412455 46.4674,30.9022455 44.6074,30.9292455 C42.4434,30.9602455 41.1134,32.4652455 41.2984,35.0362455 C41.4054,36.5202455 42.6434,37.0472455 43.7514,37.1692455 C45.9304,37.1202455 47.8534,35.4842455 47.8284,33.9232455 L47.8284,33.9232455 Z M60.2634,72.1332455 C60.5294,72.5022455 59.5144,73.6962455 60.7334,73.8132455 C62.6014,73.9942455 64.5044,73.8932455 66.3864,73.8142455 C66.9424,73.7912455 67.8374,74.0312455 68.0164,73.3002455 C68.3584,71.9162455 68.4594,70.4722455 68.6944,69.0602455 C68.7514,68.7222455 68.6944,68.6122455 68.3534,68.5872455 C66.3174,68.4362455 64.2824,68.1832455 62.2454,68.1622455 C61.6284,68.1562455 60.4544,67.2162455 60.2864,68.7312455 C60.1704,69.7712455 60.2634,70.8362455 60.2634,72.1332455 L60.2634,72.1332455 Z M62.3964,66.2822455 C64.5674,66.2822455 66.7374,66.2592455 68.9074,66.2902455 C70.2504,66.3092455 70.8264,67.1192455 70.7044,68.3802455 C70.5054,70.4342455 70.2234,72.4802455 69.9894,74.5302455 C69.9024,75.2872455 69.3894,75.5072455 68.7524,75.5052722 C65.8834,75.4972455 63.0124,75.5192455 60.1474,75.4152455 C59.0524,75.3752455 58.1174,74.9082455 58.2444,73.4872455 C58.4004,71.7522455 58.3844,69.9912455 58.6704,68.2792455 C59.0224,66.1712455 60.7584,66.1942455 62.3964,66.2822455 L62.3964,66.2822455 Z M23.8034,71.7972455 C24.0974,72.2912455 23.4304,73.1502455 24.5524,73.5032455 C26.6354,74.1582455 28.6914,73.8052455 30.7894,73.7272455 C32.6984,73.6562455 33.3124,72.9272455 33.0224,71.1562455 C32.9844,70.9212455 33.2024,70.6152455 33.1164,70.4252455 C32.8654,69.8772455 33.9424,68.8672455 32.8224,68.7882455 C30.8184,68.6472455 28.7604,68.6452455 26.7884,68.9662455 C25.8704,69.1152455 24.2844,68.4112455 23.9774,70.1752455 C23.8904,70.6802455 23.8664,71.1962455 23.8034,71.7972455 L23.8034,71.7972455 Z M31.3924,75.6872455 C29.4524,76.1032455 26.9704,76.1862455 24.4694,75.8352455 C21.9154,75.4752455 21.5454,75.0032455 21.8894,72.4662455 C22.0294,71.4352455 22.1524,70.3942455 22.1674,69.3562455 C22.1914,67.5312455 22.9954,66.6312455 24.8784,66.5962455 C27.9084,66.5402455 30.9354,66.2892455 33.9644,66.2962455 C35.2734,66.3002455 35.7684,67.3292455 35.6544,68.6012455 C35.5054,70.2502455 35.4174,71.9052455 35.1994,73.5452455 C34.9444,75.4712455 33.4024,75.5382455 31.3924,75.6872455 L31.3924,75.6872455 Z M42.0884,71.6662455 C42.5634,72.2002455 41.5074,73.6892455 42.9494,73.7822455 C45.6794,73.9572455 48.4274,73.8532455 51.1674,73.8472455 C51.2934,73.8472455 51.5374,73.6622455 51.5274,73.5912455 C51.3274,72.2052455 51.5804,70.8462455 51.7534,69.4842455 C51.8524,68.7062455 51.7104,68.2202455 50.7534,68.2512455 C48.3194,68.3272455 45.8834,68.3322455 43.4494,68.4032455 C43.0794,68.4142455 42.4564,68.1202455 42.3584,68.5782455 C42.1584,69.5242455 42.1744,70.5162455 42.0884,71.6662455 L42.0884,71.6662455 Z M40.2674,72.5902455 C40.4124,70.8542455 40.4484,68.8652455 41.0214,66.9502455 C41.5194,65.2882455 42.9504,65.4552455 44.2284,65.4292455 C46.5214,65.3832455 48.8174,65.4392455 51.1084,65.3622455 C53.0204,65.2982455 54.0774,66.2842455 53.8434,68.1592455 C53.6074,70.0402455 53.6934,71.9042455 53.7964,73.7912455 C53.9224,76.0882455 52.0674,76.0012455 50.5604,75.9872455 C47.8424,75.9622455 45.1184,76.1642455 42.4014,75.7602455 C40.5934,75.4932455 40.2814,74.3162455 40.2674,72.5902455 L40.2674,72.5902455 Z M71.0854,59.4182455 C71.6934,59.3002455 72.3074,58.9992455 72.1324,58.1182455 C71.9884,57.3982455 71.4554,57.0712455 70.8704,57.1302455 C66.5804,57.5642455 62.3024,57.1622455 58.0194,57.0232455 C54.4694,56.9082455 50.9234,56.6892455 47.3724,56.6452455 C43.2794,56.5932455 39.1844,56.6772455 35.0914,56.7122455 C31.3804,56.7442455 27.6704,56.7852455 23.9594,56.8332455 C23.6484,56.8372455 23.2444,56.8352455 23.2114,57.2702455 C23.1774,57.7132455 23.5844,57.7912455 23.9004,57.8682455 C27.1364,58.6602455 30.4534,58.9292455 33.7564,59.0682455 C38.5154,59.2672455 43.2864,59.2262455 48.0524,59.2442455 C54.4834,59.2672455 69.8554,59.6542455 71.0854,59.4182455 L71.0854,59.4182455 Z M79.8074,28.3912455 C79.7534,25.3602455 78.5874,24.0582455 75.7954,24.0212455 C72.5594,23.9792455 69.3174,23.9972455 66.0934,23.7702455 C62.7164,23.5332455 59.3484,23.6232455 55.9774,23.6862455 C53.3954,23.7342455 50.8174,23.9532455 48.2354,24.0102455 C45.0914,24.0822455 41.9424,24.0202455 38.7994,24.0982455 C35.8584,24.1702455 32.9224,24.3782455 29.9824,24.4732455 C27.1254,24.5652455 24.2794,24.7042455 21.4314,25.0292455 C17.1944,25.5122455 17.3234,25.0962455 16.4534,28.8612455 C15.8464,31.4892455 15.8414,34.1872455 15.8214,36.8782455 C15.8064,38.9262455 15.7134,40.9802455 15.5124,43.0172455 C15.4104,44.0592455 15.4834,44.4612455 16.7154,44.3982455 C20.6784,44.1972455 24.6714,44.3552455 28.6114,43.9612455 C31.9694,43.6252455 35.3164,43.8672455 38.6634,43.6242455 C40.7874,43.4692455 42.9444,43.7542455 45.0684,43.5982455 C48.8404,43.3192455 52.6034,43.6602455 56.3424,43.8552455 C59.8274,44.0372455 63.3194,44.1232455 66.8044,44.2712455 C70.5374,44.4302455 74.2854,44.2482455 78.0264,44.1962455 C78.5354,44.1892455 79.4714,44.1262455 79.4854,44.0052455 C79.6684,42.4042455 79.7794,40.7882455 79.7964,39.1742455 C79.8334,35.5812455 79.8074,31.9862455 79.8074,28.3912455 L79.8074,28.3912455 Z M15.3304,48.3592455 C15.1794,49.7522455 15.0064,51.1442455 14.9284,52.5422455 C14.7564,55.6872455 14.6134,58.8352455 14.5034,61.9832455 C14.4334,63.9732455 14.4754,65.9682455 14.4114,67.9602455 C14.3374,70.2312455 14.1594,72.5002455 14.1024,74.7712455 C14.0594,76.5012455 14.0704,78.2372455 14.1854,79.9612455 C14.2444,80.8342455 14.0734,81.9332455 15.2314,82.3522455 C17.6264,83.2202455 20.1194,82.8782455 22.5664,82.8162455 C25.9384,82.7292455 29.3044,82.4152455 32.6834,82.5882455 C36.1994,82.7692455 39.7124,83.0662455 43.2384,82.7692455 C44.6994,82.6472455 46.1734,82.6812455 47.6344,82.5642455 C49.5054,82.4142455 51.3654,82.1322455 53.2364,82.0012455 C55.0324,81.8742455 56.8354,81.8532455 58.6354,81.8062455 C61.1494,81.7412455 63.7064,81.3842455 66.1704,81.7142455 C69.7294,82.1902455 73.2644,82.2402455 76.8224,82.0882455 C77.6634,82.0522455 78.9314,82.6372455 79.0784,81.0972455 C79.3244,78.5142455 79.6504,75.9212455 79.6364,73.3362455 C79.6134,68.8172455 79.2914,64.3022455 79.2224,59.7842455 C79.1814,57.0082455 79.4344,54.2302455 79.4294,51.4542455 C79.4274,50.7662455 80.0444,49.4612455 79.2094,49.4102455 C74.6314,49.1302455 70.0384,49.1172455 65.4504,49.0022455 C62.1414,48.9202455 58.8344,48.7842455 55.5254,48.7432455 C52.4124,48.7042455 49.2974,48.7882455 46.1834,48.7632455 C42.1344,48.7322455 38.0844,48.6142455 34.0344,48.5932455 C28.0354,48.5632455 15.6154,48.3832455 15.3304,48.3592455 L15.3304,48.3592455 Z M9.5404,78.5792455 C9.7194,75.4352455 9.9414,72.2952455 10.0704,69.1502455 C10.2324,65.2272455 10.3874,61.3022455 10.4194,57.3782455 C10.4524,53.1152455 10.6834,48.8662455 10.9064,44.6112455 C11.0804,41.3002455 10.9774,37.9752455 11.0394,34.6572455 C11.0924,31.8242455 11.0854,29.0022455 11.9714,26.2282455 C12.4764,24.6462455 12.4184,22.8322455 13.8134,21.6732455 C15.4204,20.3402455 17.4144,20.0352455 19.4394,19.8652455 C21.0484,19.7302455 22.6464,19.3702455 24.2544,19.3382455 C26.0964,19.3032455 27.9114,18.9852455 29.7854,19.1332455 C31.5244,19.2712455 33.3034,18.7832455 35.0714,18.7192455 C38.4584,18.5982455 41.8484,18.5732455 45.2384,18.5262455 C47.7724,18.4912455 50.3104,18.5442455 52.8434,18.4492455 C54.8604,18.3742455 56.8714,18.0042455 58.8864,17.9997676 C61.6664,17.9912455 64.4464,18.2322455 67.2274,18.3102455 C69.7814,18.3822455 72.3574,18.1902455 74.8864,18.4612455 C77.7194,18.7642455 80.7084,19.0462455 82.8864,21.1882455 C84.2454,22.5252455 84.5014,24.4642455 84.7414,26.3032455 C84.9354,27.7882455 85.1304,29.2802455 85.1764,30.7722455 C85.2144,32.0032455 84.9444,33.2412455 84.9764,34.4722455 C85.0194,36.1232455 84.9124,37.7672455 85.0854,39.4322455 C85.2584,41.0952455 84.8854,42.8092455 84.8274,44.5032455 C84.7964,45.4442455 85.0024,46.3932455 84.9554,47.3312455 C84.8234,49.9252455 84.5854,52.5152455 84.4484,55.1102455 C84.3834,56.3412455 84.4714,57.5822455 84.4524,58.8172455 C84.4254,60.4672455 84.3254,62.1182455 84.3244,63.7692455 C84.3244,65.0242455 84.4384,66.2802455 84.4834,67.5362455 C84.5404,69.1042455 84.6064,70.6722455 84.6144,72.2412455 C84.6224,73.6332455 84.5684,75.0262455 84.5214,76.4182455 C84.4794,77.6572455 84.4904,78.9052455 84.3344,80.1302455 C84.0794,82.1312455 84.2474,84.4572455 82.4954,85.7752455 C81.1504,86.7862455 79.3424,87.2532455 77.5554,87.2892455 C75.5934,87.3282455 73.6254,87.3922455 71.6644,87.3102455 C68.9054,87.1942455 66.1534,86.8472455 63.3944,86.7962455 C60.6564,86.7472455 57.9154,86.9532455 55.1744,87.0232455 C52.3754,87.0942455 49.5974,87.4802455 46.7804,87.3632455 C43.7464,87.2382455 40.7004,87.4542455 37.6614,87.4052455 C33.9874,87.3462455 30.3164,87.0982455 26.6424,87.0612455 C24.3934,87.0392455 22.1344,87.4312455 19.8944,87.3212455 C17.4984,87.2042455 15.0034,87.1552455 12.8014,86.0642455 C10.4204,84.8842455 10.0374,82.5202455 9.8254,80.1522455 C9.7784,79.6292455 9.7124,79.1092455 9.6544,78.5872455 L9.5404,78.5792455 Z" id="Fill-1"></path>
        </g>
    </g>
</svg>