<?xml version="1.0" encoding="UTF-8"?>
<svg viewBox="0 0 204 140" version="1.1" xmlns="http://www.w3.org/2000/svg" xmlns:xlink="http://www.w3.org/1999/xlink">
    <g id="Page-1" stroke="none" stroke-width="1" fill-rule="evenodd">
        <g id="arrow-sketch-1" transform="translate(103.500000, 106.553838) rotate(-3.000000) translate(-103.500000, -106.553838) translate(3.494421, 73.500000)" fill-rule="nonzero">
            <path d="M17.3293979,13.5920096 C31.7543979,13.8100096 46.1693979,14.0460096 60.5293979,15.7860096 C66.1013979,16.4610096 71.8373979,15.8860096 77.3783979,16.6970096 C87.3383979,18.1550096 97.3863979,17.8330096 107.365398,18.8530096 C119.413398,20.0840096 131.577398,20.2450096 143.596398,21.6670096 C153.763731,22.8670096 163.939731,23.9336762 174.124398,24.8670096 C174.699398,24.9190096 175.460398,25.2290096 175.605398,24.5350096 C175.616679,23.9180449 175.346997,23.3293804 174.872398,22.9350096 C168.977398,18.2350096 163.039398,13.5870096 157.111398,8.92700957 C155.463398,7.62700957 153.802398,6.35200957 152.169398,5.03800957 C150.833398,3.96100957 149.350398,2.70800957 150.589398,0.882009567 C151.627398,-0.646990433 153.299398,0.148009567 154.595398,0.768009567 C157.671801,2.11043183 160.658048,3.6506542 163.535398,5.37900957 C173.697398,11.9880096 184.543398,17.5070096 194.135398,25.0410096 C201.645398,30.9410096 202.166398,34.4890096 194.481398,40.0990096 C182.22151,49.254458 169.166759,57.2942009 155.473398,64.1220096 C154.161057,64.7760148 152.807528,65.3438826 151.421398,65.8220096 C149.686398,66.4000096 148.091398,66.1760096 147.031398,64.4520096 C146.061398,62.8740096 146.897398,61.4520096 147.866398,60.4630096 C150.098796,57.9619529 152.58704,55.7016196 155.290398,53.7190096 C162.245398,49.1000096 169.436398,44.8370096 176.526398,40.4190096 C177.770398,39.6440096 178.983398,38.8190096 180.213398,38.0190096 C180.913398,37.5650096 182.000398,37.0470096 181.681398,36.2400096 C181.381398,35.4710096 180.258398,35.9190096 179.459398,36.0400096 C162.817398,38.4880096 146.109398,38.7200096 129.312398,38.1920096 C111.712398,37.6390096 94.2943979,35.2440096 76.7693979,33.9760096 C64.2783979,33.0760096 51.8573979,30.9180096 39.4623979,28.8120096 C32.0623979,27.5550096 24.5333979,26.7940096 17.0623979,25.7970096 C13.3251713,25.2758897 9.62838172,24.497372 5.99839795,23.4670096 C4.59939866,23.040873 3.25649492,22.4486525 1.99839795,21.7030096 C0.649178677,21.0041883 -0.135643321,19.551534 0.0193979499,18.0400096 C0.0301290686,16.2771096 1.28733306,14.7684648 3.01939795,14.4400096 C6.28339795,13.8210096 9.52639795,12.8100096 12.9433979,13.3170096 C14.3863979,13.5270096 15.8663979,13.5030096 17.3293979,13.5920096 Z" id="Path"></path>
        </g>
        <g id="arrow-sketch-2" transform="translate(100.490906, 33.985601) scale(-1, 1) translate(-100.490906, -33.985601) translate(0.496042, 0.985601)" fill-rule="nonzero">
            <path d="M31.9169578,22.3294725 C41.2289578,22.3294725 50.5579578,21.8767993 59.8479578,22.4339355 C74.6229578,23.3193842 89.4059578,23.2024851 104.182958,23.634017 C120.148958,24.1003698 136.045958,25.6984057 151.963958,27.0253351 C152.457087,27.1155586 152.956036,27.1467916 153.453958,27.1186057 C153.872958,27.0514509 154.553958,26.8363067 154.615958,26.5266484 C154.773958,25.7630733 154.096958,25.6063787 153.661958,25.4074015 C148.510958,23.0756371 143.255958,21.047313 138.226958,18.3673384 C133.974958,16.1014852 129.383958,14.7086446 125.555958,11.2576333 C124.832716,10.7509454 124.136897,10.1859707 123.472958,9.56632681 C122.064958,7.88994365 121.283958,5.8106316 122.014958,3.40425072 C122.711203,1.20112487 124.4858,-0.174652264 126.382958,0.0179069947 C127.53902,0.0824114379 128.686053,0.302572384 129.803958,0.674531853 C139.242958,3.18413216 148.257958,7.45095013 157.363958,11.2738002 C168.983958,16.1524731 180.402958,21.769849 192.001958,26.7330873 C195.907958,28.4057396 197.880958,31.9562396 199.501958,36.060145 C200.093639,37.5791149 200.149481,39.3360331 199.656053,40.9083426 C199.162626,42.4806521 198.16458,43.7260696 196.901958,44.3450594 C194.326958,45.7602849 191.607958,46.7651199 188.973958,48.0211637 C178.724958,52.9110291 168.047958,55.9914453 157.498958,59.6227798 C151.081958,61.831427 144.571958,63.4692584 138.058958,65.1294746 C136.284373,65.6812513 134.464043,65.9734053 132.634958,66 C129.399958,65.8756392 128.283958,65.0051139 127.704958,62.1050207 C126.961564,59.0046166 128.057078,55.6791638 130.335958,54.1185722 C132.574257,52.773709 134.892837,51.6461259 137.270958,50.7459081 C142.010958,48.8382139 147.070958,48.8407011 151.854958,47.0051362 C155.006958,45.7963495 158.325958,45.2640854 161.567958,44.4134578 C161.996958,44.3015331 162.613958,44.2990459 162.446958,43.445931 C162.315553,43.083132 162.057516,42.815413 161.746958,42.7196641 C160.933983,42.5047161 160.108227,42.3728682 159.277958,42.3254405 C145.162958,41.6887133 131.152958,39.4079368 117.077958,38.1481623 C106.321958,37.1856099 95.5509578,36.5003821 84.7899578,35.622395 C73.8549578,34.7269975 62.9139578,34.0579366 52.0039578,32.6551471 C43.7409578,31.5918625 35.4239578,31.18769 27.1509578,30.2338429 C19.3819578,29.339689 11.5809578,28.553729 3.98595782,26.1660022 C2.42395782,25.6747772 -0.435042178,25.9869227 0.0559578222,22.8841215 C0.414957822,20.6120503 2.92695782,21.7511949 4.46795782,21.7362716 C13.6159578,21.6492191 22.7679578,21.6927454 31.9139578,21.6927454 L31.9169578,22.3294725 Z" id="Path"></path>
        </g>
    </g>
</svg>