<svg xmlns="http://www.w3.org/2000/svg" viewBox="0 0 546.28 467.191"><title>zen-garden</title><g id="Layer_2" data-name="Layer 2"><g id="Untitled_Artwork_14_Image" data-name="Untitled_Artwork 14 Image"><path d="M.048,442.815c-.065-10.5.838-20.964,1.516-31.434.233-3.6-.326-7.195.283-10.824,4.044-24.084,4.226-24.67,11.977-47.094,3.848-11.133,7.294-22.41,11.309-33.481,4.385-12.094,9.768-23.847,13.727-36.069C44.9,265.273,52.035,247.06,58.807,228.7c1.752-4.749,3.014-9.683,4.426-14.553a149.387,149.387,0,0,1,7.15-19.377,246.406,246.406,0,0,0,10.729-28.482,162.322,162.322,0,0,1,12-29.694c3.052-5.667,4.046-12.009,6.519-17.84.609-1.438.035-2.08-1.159-2.38-1.4-.35-2.871-.408-4.266-.768-.82-.212-1.83-.532-1.757-1.716a2.394,2.394,0,0,1,1.383-2.169c1.8-.855,3.614-1.7,5.4-2.587a9.462,9.462,0,0,0,5.536-6.862c1.005-4.793,2.914-9.322,4.655-13.906,1.581-4.163,4.529-5.475,8.478-5.2,2.733.193,5.458-.2,8.143.035,2.275.2,3.31-.958,4.34-2.517,1.6-2.42,1.477-5.149,1.54-7.883.071-3.015-.531-6.05,1.63-8.859,2.934-3.812,6.2-7.178,10.529-9.245,4.363-2.085,8.294-.833,11.31,3.078,1.981,2.57,4.323,4.805,6.027,7.662,1.364,2.284,2.363,4.5,2.158,7.078-.373,4.686,2.9,7.658,5.09,11.094a3.3,3.3,0,0,0,3.912,1.116c3-.979,6.116-.546,9.193-.458,8.31.236,16.652-.724,24.932.72a29.1,29.1,0,0,0,3.267.045,3.864,3.864,0,0,0,3.667-1.867c1.946-2.847,4.013-5.612,5.929-8.478a17.069,17.069,0,0,1,11.263-7.846c3.511-.708,6.814-2.434,10.222-3.672,1.239-.451,1.482-1.174,1.317-2.494-.432-3.477-.843-6.653-5.023-7.936a8.487,8.487,0,0,1-5.267-4.5c-1.9-4.232-2.323-5.263,2.313-7.807a11.3,11.3,0,0,1,4.076-1.44c7.931-.848,15.768-2.762,23.8-2.49a19.83,19.83,0,0,1,15.172,7.453c3.8,4.622,2.254,9.482-3.472,11.449a26.8,26.8,0,0,1-10.739,1.251c-1.368-.1-2.069.341-1.728,1.851.79,3.509,2.114,6.279,6.076,7.53,5.971,1.884,12.105,2.312,18.227,2.98,5.044.551,9.466,2.145,12.928,6.124,2.268,2.607,3.871,5.273,3,8.834-.484,1.977.356,2.584,2.206,2.57,4.906-.038,9.851.389,14.709-.089,6.174-.607,12.263-1.207,18.394.212,1.348.312,2.874.715,3.755-1.113,2.606-5.407,7.652-8.075,12.543-10.82a27.379,27.379,0,0,0,8.293-6.92,8.036,8.036,0,0,0,1.859-4.408c.293-3.109.4-3.1-2.8-3.8-.355-.078-.729-.087-1.072-.2a31.949,31.949,0,0,0-19.226-.055c-7.032,2.088-14.155.915-21.053-.274-7.547-1.3-8.009-4.442-7.712-10.256.472-9.242,5.434-15.989,13.319-20.507a35.407,35.407,0,0,1,16.012-4.776,31.23,31.23,0,0,0,5.393-.743,23.365,23.365,0,0,1,12.321.826c5.028,1.543,10.153,2.762,15.209,4.216,1.83.527,3.163.481,3.87-1.622.785-2.337,4.914-3.171,3.8-5.863-.8-1.932-4.179-1.657-6.3-2.625a26.862,26.862,0,0,1-6.974-4.188c-3.9-3.493-3.215-7.63,1.446-9.889a22.954,22.954,0,0,1,15.867-1.693c8.242,1.935,16.548,2.115,24.733-.52,7.779-2.5,15.438-1.393,23.053.725,4.333,1.206,6.21,3.211,6.318,6.449a9.479,9.479,0,0,1-5.687,9.127,55.225,55.225,0,0,1-7.269,2.236c-6.186,1.456-12.381,2.9-18.836,2.32a30.891,30.891,0,0,0-5.44.041c-2.142.187-4.732-.405-6.248,1.266s-1.837,4.247-3.255,6.174c-.586.8.3,1.071,1.033,1.291,5.167,1.55,10.455,1.155,15.7.849,3.614-.211,7.2-.961,10.792-1.477.359-.051.708-.171,1.066-.226,8.063-1.232,23.534,4.151,28.891,10.188a40.883,40.883,0,0,1,3.318,4.96,3.711,3.711,0,0,1,.312,3.116,15.4,15.4,0,0,1-12.111,11.009,16.521,16.521,0,0,0-5.674,1.767,13.685,13.685,0,0,1-11.1.893,37.151,37.151,0,0,0-17.75-1.038c-5.589.892-11.231.66-16.845.513-3.567-.093-5.668,1.024-6.805,4.613a53.228,53.228,0,0,1-9.128,17.227c-1.268,1.591-.97,2,1.162,2.069,3.805.12,7.631-.322,11.409.5a2.614,2.614,0,0,0,2.837-1.158c.212-.3.451-.574.633-.886,3.79-6.492,9.89-8.8,16.945-9.134,5.077-.238,10.169-.195,15.254-.2a9.382,9.382,0,0,1,3.742.534c5.342,2.4,11.255,2.718,16.7,4.823a21.874,21.874,0,0,0,11.848.623c5.9-1.1,11.556.269,17.245,1.211,4.339.718,7.407,3.679,10.191,6.873a8.56,8.56,0,0,1,1.882,5.019c.557,5.977-2.636,14.351-11.008,16.845a22.91,22.91,0,0,1-12.889.252c-1.983-.541-4.8-2.1-6.092-.484-1.152,1.441.852,3.945,1.467,5.973,1.053,3.469,2.314,6.874,3.379,10.34,2.277,7.414,6.212,14.2,7.8,21.906,3.186,15.467,9.117,30.171,13.1,45.425,2.195,8.416,4.217,16.877,6.322,25.316.687,2.753,1.283,3,3.449,1.18,1.666-1.4,3.066-3.123,4.775-4.458,4.252-3.323,9.536-2.983,12.756.665a8.8,8.8,0,0,1,.733,11.037,13.824,13.824,0,0,1-4.473,4.671c-2.241,1.257-3.817,3.349-5.787,4.882-3.777,2.941-3.5,6.315-2.072,10.129,1.588,4.237,3.2,8.466,4.7,12.733,6.379,18.125,12.913,36.2,19.015,54.415,4.542,13.558,8.427,27.335,12.754,40.967C536.1,367.089,540.568,378.36,545,389.65c1.578,4.022,1.372,8.523,1.08,12.885-.99,14.82-3.636,29.525-2.781,44.481a92.221,92.221,0,0,1-.688,13.583c-.382,4.192-2.452,6.1-6.621,6.486a14.721,14.721,0,0,1-8.01-1.116c-2.414-1.208-4.889-1.1-7.4-1.312-15.4-1.3-30.837-.1-46.24-.851-1.989-.1-3.973-.318-5.955-.523-5.6-.579-11.19-1.127-16.832-.438a55.416,55.416,0,0,1-11.416.247c-8.351-.709-16.655.4-24.979.571-14.128.286-28.268-.123-42.4.024a180.509,180.509,0,0,1-21.188-.606,36.091,36.091,0,0,0-9.226.327,34.187,34.187,0,0,1-9.217.391c-13.6-1.713-27.166.5-40.76.163-11.577-.287-23.178.547-34.768.558-5.595,0-11.191-.748-16.787-1.146-1.806-.129-3.676-.569-5.411-.264-6.024,1.06-11.937.085-17.893-.507q-18.7-1.861-37.5-2.052c-3.985-.037-7.986-.2-11.948-.614a55.834,55.834,0,0,0-16.8.338,19.6,19.6,0,0,1-6.508.1c-9.04-1.308-18.122-.458-27.175-.783-10.887-.392-21.772.584-32.654-.224a24.779,24.779,0,0,0-7.057.375c-7.563,1.657-15.191.98-22.8.914a67.673,67.673,0,0,0-10.307.646,48.526,48.526,0,0,1-8.68.528c-6.866-.256-13.721-.794-20.584-1.145A51.984,51.984,0,0,1,4.35,458.5c-3.17-.87-4.125-2.676-4.26-5.336C-.084,449.723.048,446.266.048,442.815Zm157.117-232.17c-.147.326-.313.111-.106-.018.609-.379-.341-.351.177.159a5.165,5.165,0,0,0,.388,1.542c2.266,3.581,3.788,7.264,2.757,11.681-.346,1.482,1.666,3.256,3.372,3.465,1.018.125,1.215-.595,1.178-1.309C164.605,219.867,163.335,214.025,157.165,210.645Zm7.54,151.719c4.441-4.012,7.859-8.9,11.4-13.65a63.626,63.626,0,0,1,14-13.586c3.527-2.548,7.019-5.152,10.417-7.868a30.441,30.441,0,0,1,21.787-6.8c2.337.161,4.242-.688,6.276-1.42.949-.341,1.544-.859,1.469-1.95-.081-1.17-.934-1.537-1.85-1.582-8.3-.408-16.712.129-23.5,5.142-7.117,5.255-14.994,9.624-20.9,16.488-4.258,4.948-9.093,9.418-13.14,14.521-2.511,3.168-5.412,6.392-5.847,10.8-2.5,1.181-2.912,4-4.554,5.854-.295.333-.668,1.058.138,1.252a1.715,1.715,0,0,0,1.428-.479A10.614,10.614,0,0,0,164.705,362.364Zm87.466,67.814c6.145.3,12.3.508,18.44.783,10.646.476,21.314-.06,31.981.839,13.861,1.168,27.826.958,41.637,2.919a57.414,57.414,0,0,0,11.909.806,62.722,62.722,0,0,1,8.66-.015c4.489.32,9.116.763,13.492.019a64.867,64.867,0,0,1,13.493-1.027c10.49.44,20.956-.034,31.429-.1,7.363-.045,14.727-1,22.084-.922,11.059.117,22.118-1.307,33.174,0a5.03,5.03,0,0,0,1.535-.316c-.242-.567-.74-.686-1.284-.785-1.961-.357-3.938-.658-5.872-1.129-10.121-2.465-20.531-1.263-30.794-2.3a185.969,185.969,0,0,0-35.862.115c-13.565,1.271-27.18,1.834-40.77,1.744-15.021-.1-30.057-.661-45.079-1.171-8.274-.281-16.645-.474-24.943-.313-13.227.258-26.44-.687-39.655-.029-1.224.061-2.594-.283-3.483,1-3.922-.987-7.872,0-11.808-.132-1.15-.039-2.455-.515-3.466.544,1.14.8,2.44.391,3.654.407C244.51,431.165,248.453,431.984,252.171,430.178ZM355.581,159.6l.19.19c-.622,6.515-3.757,11.434-10.041,13.415-5.868,1.85-9.9,5.826-13.961,9.98-1.224,1.252-.529,2.007.762,2.145a53.925,53.925,0,0,0,14.116-.039,74.893,74.893,0,0,1,16.815-.559c3.052.209,6.075,1.252,9.173.548.691-.157,1.638-.281,1.955-.759.688-1.036-.5-1.474-1.074-2.045-4.7-4.687-6.061-10.033-3.676-16.386a40.2,40.2,0,0,1,10.128-15.893c3.7-3.437,7.275-6.962,9.423-11.786,4.138-9.289,8.974-18.21,15.732-25.937a13.446,13.446,0,0,0,1.046-1.248c.5-.735.4-1.316-.572-1.51a12.883,12.883,0,0,1-3.185-.637c-2.928-1.462-4.712-.247-6.391,2.126a91.2,91.2,0,0,0-7.158,10.871c-1.726,3.365-3.127,7.121-5.933,9.677-3.686,3.357-6.3,7.476-9.248,11.36-1.3,1.722-2.43,3.392-4.754,2.485s-1.555-3.147-1.158-4.732a54.035,54.035,0,0,0,1.24-18.832c-.441-4.347-1.611-7.849-4.637-11.186-6.281-6.927-6.82-14.216-2.6-22.074a17.625,17.625,0,0,1,4.135-5c5.752-4.935,8.138-11.866,11.377-18.3.906-1.8.253-2.645-1.692-2.86a28.168,28.168,0,0,1-3.7-.83,2.562,2.562,0,0,0-3.434,1.752,22.088,22.088,0,0,1-12.809,13.252,5.306,5.306,0,0,0-.946.539c-6.465,4.52-9.514,11-6.231,18.847a5.484,5.484,0,0,1,.617,1.5c.112,1.39,1.4,2.932.343,4.092-1.085,1.19-2.772.375-4.095-.061a29.859,29.859,0,0,1-6.537-2.643,22.335,22.335,0,0,0-7.587-2.793c-3.545-.729-7.086-1.489-10.6-2.353a18.253,18.253,0,0,0-7-.246c-9.869,1.362-18.961,4.524-26.749,10.961a33.281,33.281,0,0,1-6.942,4.239c-1.229.588-3.429.658-3.224,2.326.146,1.2,2,1.984,3.406,2.43.855.271,1.785.3,2.669.489,6.217,1.36,12.183.372,18.2-1.446,9.174-2.772,18.323-5.522,28.223-3.218a26.693,26.693,0,0,1,19.68,17.1c3.879,10.043-.165,18.6-8.89,25.168a81.157,81.157,0,0,1-11.636,6.992c-6.1,3.158-12.638,5.477-18.24,9.625a72.811,72.811,0,0,0-14.64,14.442c-1.566,2.055-1.14,2.932,1.378,2.967,6.716.092,13.435,0,20.152.021a3.436,3.436,0,0,0,3.242-1.568c3.612-5.735,9.875-8.386,14.785-12.613a6.082,6.082,0,0,1,3.44-1.476C346.2,169.841,351.509,165.759,355.581,159.6Zm-174.811,77c-3.258.034-6.476-.572-9.777-.218a8.28,8.28,0,0,1-7.293-2.949,42.605,42.605,0,0,0-6.873-6.187c-2.574-1.872-4.179-4.155-2.636-7.428.968-2.054.1-3.946-.324-5.828-.444-1.976-2.2-2.813-4.024-3.214-1.74-.384-2.672.9-3.395,2.173a17.4,17.4,0,0,0-2.516,6.551c-.535,4.5-1.385,8.973-1.865,13.481a4.444,4.444,0,0,1-3.988,4.37,17.758,17.758,0,0,1-3.211.581,180.621,180.621,0,0,0-20.1,1.095,6.292,6.292,0,0,1-6.118-2.777c-2.643-3.682-5.526-7.192-8.265-10.806a12.238,12.238,0,0,1-2.174-7.13c-.43-8.2,2.244-15.741,4.647-23.324a38.085,38.085,0,0,1,5.681-11.674,11.681,11.681,0,0,0,1.991-9.169c-1.194-7.922,1.979-12.917,9.261-16.256,1.039-.477,1.782-.816,1.862-2.239.59-10.507-.467-20.956-.959-31.424-.051-1.084-.311-2.159-.357-3.243a2.279,2.279,0,0,0-2.243-2.495c-1.7-.249-2.3.8-2.768,1.993a43.277,43.277,0,0,0-1.557,4.636c-1.271,4.721-2.3,9.516-3.745,14.182-2.143,6.918-3.814,13.97-7.006,20.579a156.736,156.736,0,0,0-9.768,24.173c-1.673,5.742-3.06,11.6-5.213,17.164-6.089,15.732-12.151,31.463-16.745,47.715-1.824,6.452-3.12,13.128-6.22,19.106-6.38,12.3-10.095,25.6-14.9,38.493-3.669,9.845-6.386,20.006-10.106,29.843-3.972,10.506-8.312,20.9-11.181,31.791-2.769,10.512-4.2,21.355-7.849,31.662-.918,2.59-.628,5.393-.214,8.09.633,4.122,3.106,6.318,7.339,6.574a37.244,37.244,0,0,0,11.374-.713,56.048,56.048,0,0,1,17.318-1.258,109.981,109.981,0,0,0,25.526-1.176,86.366,86.366,0,0,1,18.448-.9c8.327.369,16.7.818,25-.544a68.686,68.686,0,0,1,17.919-.13c6.148.6,12.327,1.239,18.487.654a141.3,141.3,0,0,1,26.064-.427c13.209,1.18,26.509.044,39.735,1.255,7.783.713,15.634-.036,23.4.574,8.892.7,17.762.868,26.663.9,7.606.029,15.234-.436,22.813.662a90.193,90.193,0,0,0,21.7.611,70.9,70.9,0,0,1,15.777.048,114.948,114.948,0,0,0,23.324.878c7.067-.534,14.211-1.136,21.188.112,10.407,1.862,20.719.465,30.929-.664,16.236-1.794,32.5-2.928,48.791-3.748,8.7-.437,17.434-.084,26.152-.165a176.736,176.736,0,0,1,21.765.893,22.293,22.293,0,0,0,4.35.127c2.932-.245,5.732-3.077,5.161-5.831-1.2-5.809-1.467-11.866-4.418-17.276a14.641,14.641,0,0,1-1.579-5.723,42.823,42.823,0,0,0-2.343-9.469c-3.215-10.224-7.624-20-11.25-30.065-5.962-16.558-10.316-33.6-15.216-50.47-2.981-10.262-5.767-20.585-9.535-30.6-1.1-2.919-.955-2.759-3.794-1-10.395,6.451-18.7,15.494-28.512,22.7-9.922,7.289-19.286,15.348-29.34,22.484a53.775,53.775,0,0,0-8.374,6.9,29.94,29.94,0,0,1-4.143,3.5q-7.215,5.319-14.512,10.53c-1.489,1.065-1.611,2.052-.555,3.6,3.985,5.839,7.949,11.625,13.225,16.483,8.239,7.585,8.778,9.349,8.182,20.346a17.893,17.893,0,0,1-.5,3.2,3.912,3.912,0,0,1-1.765,2.647c-4.725,2.712-8.218,7.064-13.074,9.67-1.794.963-3.007,1.987-4.584.008-1.439-1.805-2.828-1.26-4.657-.284-4.8,2.56-9.848,4.643-14.643,7.208A40.611,40.611,0,0,1,359.6,393.7c-4.746,1.224-9.376,2.807-14.033,4.329a81.655,81.655,0,0,1-15.326,3.628c-10.785,1.319-21.561,3.085-32.5,2.582a15.785,15.785,0,0,0-2.712.21,137.856,137.856,0,0,1-19.574.671c-7.117-.1-13.978-2.252-21.048-2.485a70.63,70.63,0,0,1-26.4-5.7c-3.325-1.456-6.805-2.542-9.743-4.736a16.966,16.966,0,0,0-4.377-2.142,156.085,156.085,0,0,1-35.71-19.485,42.149,42.149,0,0,1-4.16-3.5c-1.42-1.315-2.553-.959-3.65.383-.459.561-1.02,1.047-1.43,1.639-3.027,4.37-7.886,5.515-12.484,7.1a3.1,3.1,0,0,1-3.126-.246c-3.074-2.5-6.985-4.013-9.112-7.612-2.407-4.074-6.026-6.64-10.15-8.76-4.866-2.5-9.385-5.522-12.751-10a10.623,10.623,0,0,1-2.458-5.886,73.757,73.757,0,0,1,4.607-29.846,29.581,29.581,0,0,1,10.309-14.382,31.735,31.735,0,0,0,5.86-5.662,53,53,0,0,1,18.488-14.078c10.46-5.041,21.854-6.436,33.411-5.783,4.671.265,8.715,2.484,12.115,5.65a17.377,17.377,0,0,0,4.3,3.258c3.577,1.695,6.1,4.549,8.214,7.753,1.308,1.986,2.891,3.713,4.342,5.564a91.734,91.734,0,0,0,9.866,10.115c3.655,3.422,3.989,8,5.255,12.278a2.6,2.6,0,0,1-1.329,2.784,18.555,18.555,0,0,1-2.887,1.46c-.8.37-2.171.553-2.3,1.065-.217.873.913,1.412,1.679,1.894a111.838,111.838,0,0,0,20.083,9.585c6.166,2.338,12.9,2.308,19.087,4.365,8.238,2.737,16.532,1.805,24.729.717,11.062-1.468,20.394-7.208,29.3-13.581a44.989,44.989,0,0,0,4.476-3.958c1.569-1.476,2.358-3.086,1.169-5.3a14.106,14.106,0,0,1-1.248-6.891c.024-5.067.17-10.135.1-15.2a3.647,3.647,0,0,1,1.1-2.919c3.591-3.316,6.882-7.019,11.442-9.127,4.341-2.006,6-1.749,8.826,2.059a106.28,106.28,0,0,0,13.363,15.017,42.742,42.742,0,0,1,5.39,6.1c2.66,3.594,2.654,3.6,6.176,1.11.444-.314.813-.733,1.259-1.042,6.413-4.438,11.961-9.94,18.242-14.592,7.557-5.6,14.64-11.852,22.547-17.017a3.985,3.985,0,0,0,.849-.679c4.213-4.89,9.656-8.206,14.948-11.718a26.424,26.424,0,0,0,3.989-2.84c8.218-8.042,17.882-14.168,27.234-20.709,3.575-2.5,3.677-2.5,2.38-6.626-5.766-18.331-11.6-36.64-17.382-54.967-3.873-12.282-7.605-24.61-11.572-36.862-2.791-8.618-5.822-17.161-8.849-25.7-1.083-3.055-1.218-2.988-4.739-2.575-2.7.317-5.416.67-8.08-.205a2.655,2.655,0,0,0-2.966.644c-6.157,5.961-12.055,12.089-15.077,20.385A42.942,42.942,0,0,1,382,153.722a17.829,17.829,0,0,0-5.7,7.163,14.349,14.349,0,0,0,5.365,18.467,34.905,34.905,0,0,1,4.091,2.69,7.722,7.722,0,0,0,4.967,1.746c4.89.264,9.781.677,14.644,1.256,7.608.907,10.2,5.722,6.847,12.707-1.094,2.276-2.79,4.255-3.966,6.5-4.237,8.09-10.976,13.857-17.883,19.469a10.172,10.172,0,0,1-5.345,2.526c-3.787.4-7.565.875-11.353,1.261-6.542.667-13.037-.571-19.565-.53-5.444.034-11,.767-16.307-.06a172.022,172.022,0,0,0-29.268-1.867c-3.639.056-7.234-1.188-10.851-.482a29.33,29.33,0,0,1-9.192-.069,15.309,15.309,0,0,0-3.772-.175c-6.061.823-9.529-.5-11.808-5.842a165.009,165.009,0,0,0-10.618-20.2,10.045,10.045,0,0,1-1.643-5.12c-.034-3,.648-3.823,3.694-4.106,3.974-.37,7.947-.793,11.931-1a8.28,8.28,0,0,0,7.445-4.5,47,47,0,0,1,18.556-17.943c4.918-2.688,10.108-4.874,15.158-7.324,8-3.881,15.906-7.942,22.839-13.6,2.912-2.376,5.071-5.508,5-9.3-.137-7.7-3.649-13.929-9.728-18.575-6.445-4.924-13.768-6.1-21.646-4.559a40.118,40.118,0,0,0-13.131,5.082c-7.115,4.3-14.606,3.582-22.151,1.68a6.527,6.527,0,0,1-3.712-2.145c-2.67-4.095-6.252-4.734-10.737-4-2.644.435-5.432-.016-8.156-.048a31.1,31.1,0,0,0-8.634.927,107.722,107.722,0,0,1-16.025,2.864c-9.049,1.047-16.041-2.868-19.2-11.442a29.316,29.316,0,0,1-1.376-4.129c-.361-1.752-1.334-2.307-3.028-2.41-5.611-.341-11.209-.908-16.822-1.2-2.889-.149-5.8.092-8.7.2-.673.025-1.548-.155-1.807.769-.23.823.452,1.261.94,1.777,4.493,4.747,8.884,9.617,15.329,11.847a7.491,7.491,0,0,1,1.923,1c.726.526,1.583,1.2,1.122,2.2a2.53,2.53,0,0,1-1.6,1.263,31.9,31.9,0,0,1-4.864.458c-3.631.1-7.269.258-10.894.119-2.305-.089-3.05.728-3.485,2.982-2.141,11.1-2.35,22.348-3.02,33.567-.145,2.426.553,3.746,3.164,3.994,3.816.362,5.829,2.877,6.216,6.444.508,4.677.707,9.394.835,14.1.03,1.109.545,2.639-.982,3.414-2.64,1.341-1.408,2.65-.058,4.117,8.6,9.351,13.289,20.223,12.749,33.107-.174,4.153.911,8.283-.052,12.476-.954,4.154-1.759,5.122-6.165,5.3C187.98,236.709,184.373,236.6,180.77,236.6ZM292.915,398.3c1.633,0,3.267-.043,4.9.006,13.853.424,27.562-1.165,41.137-3.579,11.823-2.1,22.815-7.029,33.926-11.433a15.274,15.274,0,0,0,2.347-1.335c.765-.475,1.972-1.134,1.684-1.885-.409-1.065-1.469-.028-2.242.069-5.213.655-7.044-.884-7.123-6.167a20.485,20.485,0,0,1,.757-6.453,1.853,1.853,0,0,0-.163-1.512c-.569-.652-1.3-.217-1.912.135-4.234,2.455-8.611,4.7-12.658,7.432-10.261,6.926-21.17,11.834-33.8,12.075-1.444.027-2.881.337-4.326.468a139.916,139.916,0,0,1-29.841-.265c-15.5-1.9-30.727-5.3-46.094-7.919-5.407-.92-10.752-2.438-15.117-5.721a49.182,49.182,0,0,0-14.96-7.556,38.064,38.064,0,0,1-16.506-10.142,14.442,14.442,0,0,0-2.482-2.094c-5.006-3.329-5.015-3.312-8.708,1.48-.776,1.007-1.6,1.98-2.342,3.01-2.083,2.889-2.088,2.915.441,5.322,8.778,8.354,19.11,14.323,30.023,19.35,6.582,3.031,13.267,5.838,19.9,8.758,5.825,2.564,11.648,4.782,18.25,4.745a86.61,86.61,0,0,1,14.575,1.568A158.4,158.4,0,0,0,292.915,398.3Zm63.343-180.159,0,.084c1.812,0,3.625.026,5.437,0,9.412-.155,18.843.132,28.145-1.9a11.4,11.4,0,0,0,5.195-2.64c4.7-3.993,7.611-9.138,10-14.676,1.01-2.34.947-2.611-1.817-2.953a62.064,62.064,0,0,1-10.1-2.087,34.849,34.849,0,0,0-11.815-1.32c-5.044.251-10.088,1-15.163.28a94.8,94.8,0,0,0-21.687-.365c-3.943.348-7.976.763-11.9-.252-4.661-1.2-9.362-.929-14.057-.537a160.881,160.881,0,0,1-16.84.215c-9.035-.191-18.061.141-26.643,3.524-3.551,1.4-4.516,3.215-3.2,6.683.826,2.177,2.327,4.089,3.265,6.235,2.428,5.552,7.151,7.2,12.469,6.595a36.894,36.894,0,0,1,10.782.211c7.018,1.271,14.052,1.247,21.116,1.221,1.623-.006,3.247.25,4.871.381,8.647.7,17.219,2.536,25.971,1.6C352.264,218.229,354.266,218.237,356.258,218.145ZM303.615,381.179c5.611-.233,11.367.253,16.8-.844a136.4,136.4,0,0,0,37.142-13.557c2.476-1.319,4.209-3.413,6.205-5.244a1.589,1.589,0,0,0,.369-2.363c-.639-.824-1.219-.881-2.226-.217-2.366,1.561-5.15,1.518-7.85,1.308-3.868-.3-5.841-2.51-5.771-6.456.036-1.987.435-3.965.578-5.953.116-1.6-.5-1.876-1.866-.979a90.081,90.081,0,0,1-24.182,10.91c-3.294.976-6.515,2.231-9.707,3.514a68.746,68.746,0,0,1-43.135,3.183c-12.815-3.178-25.563-6.628-38.3-10.1a39.94,39.94,0,0,1-19.28-11.657c-2.617-2.864-6.018-4.638-8.706-7.331a1.74,1.74,0,0,0-2.435-.376c-3.6,2.744-7.531,5.061-10.729,8.323a1.053,1.053,0,0,0,.214,1.791c5.629,3.924,10.792,8.6,17.545,10.7,6.28,1.955,11.911,5.129,17.473,8.653,5.933,3.76,12.174,7.17,19.249,8.563,5.16,1.016,10.279,2.245,15.442,3.241C274.7,379.037,288.961,381.8,303.615,381.179Zm13.958-335.56c-.053,5.016.924,6.116,6.1,7.095a18.083,18.083,0,0,1,4.713,1.255,14.12,14.12,0,0,0,10.606.886c9.285-2.74,18.694-1.961,28.076-1.178a119.213,119.213,0,0,0,20.6-.466c6.079-.542,12.114-1.473,18.319-1.038,9.433.66,18.749,2.066,28.07,3.468,4.622.7,8.187-.6,11.056-4.168,3.416-4.245,3.608-7.366-.565-10.81-6.873-5.669-14.454-9.733-23.986-7.185a47.5,47.5,0,0,1-10.708,1.849c-15.09.446-30.112-.039-44.652-4.851-7.795-2.58-15.647-4.617-23.839-1.623a9.974,9.974,0,0,1-1.62.157c-7.277,1.291-13.991,3.7-19.238,9.274A9.693,9.693,0,0,0,317.573,45.619ZM186.6,232.319c1.321.09,1.684.105,2.045.142,6.4.648,5.4.418,5.754-5.169.035-.543.021-1.09,0-1.634-.2-6.98-2.626-13.479-4.343-20.134a18.879,18.879,0,0,0-6.741-10.275,24.922,24.922,0,0,1-5.607-5.875,7.094,7.094,0,0,0-6.874-3.5c-2.172.134-4.359.058-6.526.235-10.693.875-21.4.419-32.108.471-3.582.018-4.246.039-5.231,3.18-2.438,7.777-5.352,15.412-7.1,23.4-1.277,5.838-3.037,11.563-3.862,17.51-.3,2.181.414,3.12,2.474,3.093a89.506,89.506,0,0,0,15.7-1.316,2.235,2.235,0,0,0,2.042-2.164c.522-6.419,3.145-12.26,5.131-18.265,1.894-5.724,6.9-8.475,12.743-7.3a18.983,18.983,0,0,1,15.194,18.1c.036,1.632-.064,3.269,0,4.9.132,3.54.149,3.615,3.625,4.017C177.776,232.3,182.7,231.559,186.6,232.319Zm62.96-163.555c-6.7.049-12.229,1.822-17.656,3.862a13.147,13.147,0,0,0-5.217,3.806c-4.211,4.868-6.788,10.765-8.8,16.629-2.437,7.093,3.789,17.741,13.985,15.092a40.906,40.906,0,0,0,5.251-1.369c8.4-3.439,16.884-3.538,25.521-1.076a14.178,14.178,0,0,0,9.533-.851c5.6-2.29,10.385-5.835,15.176-9.372a18.33,18.33,0,0,0,4.563-5.335,8.556,8.556,0,0,0,.33-8.773c-1.7-3.561-4.388-5.39-8.4-5.965a188.3,188.3,0,0,1-23.363-4.628C256.7,69.743,252.869,68.219,249.556,68.764ZM146.142,338.531c-.013-3.582,1.684-4.981,4.888-4.409,2.15.384,3.388,1.759,4.412,3.626,1.423,2.6,1.636,2.6,3.4.169,3.938-5.438,7.82-10.867,13.358-14.913,3.357-2.453,6.405-5.332,9.573-8.042,6.826-5.84,14.215-10.6,23.135-12.661a81.476,81.476,0,0,1,9.568-1.962c1.629-.176,1.848-1.031.879-2.084-2.207-2.4-4.878-4.45-6.734-7.083-1.918-2.723-4.236-2.966-7.068-2.685-1.436.143-2.178.479-2.428,2.175-.709,4.8-2.606,6.382-7.408,6.766-4.64.371-5.756-1.007-4.461-5.511.754-2.619.215-3.472-2.553-2.947-7.483,1.417-14.848,3.372-21.437,7.356-7.3,4.412-12.451,10.66-16.709,18.131-5.4,9.468-10.553,18.974-14.331,29.2-1.824,4.938-1.5,6.067,3.015,8.854,2,1.235,4.117,2.292,6.188,3.417,1.9,1.035,3.512,3.935,5.251,3.325,1.392-.489,1.854-3.632,2.724-5.6.587-1.325,1.12-2.676,1.761-3.974.557-1.127.595-1.9-.686-2.643C147.09,345.072,146.655,341.57,146.142,338.531Zm196.548.959c-.785,0-1.694.045-2.6-.008-5.773-.336-7.765-2.777-6.947-8.487.153-1.071.355-2.135.477-3.209.171-1.517-.448-2.12-1.8-1.2-3.441,2.353-6.925,4.661-10.209,7.222-11.536,9-24.353,14.111-39.2,13.694-7.827-.22-15.654-.354-22.73-4.2a24.483,24.483,0,0,0-6.019-2.367c-7.444-1.783-14.169-5.5-21.387-7.913a13.479,13.479,0,0,1-6.3-4.121c-2.68-3.551-5.745-2.961-9.034-1.892-2.929.952-5.773,2.165-8.641,3.3-1.556.614-1.893,1.526-.483,2.689a10.861,10.861,0,0,0,2.163,1.624c5.612,2.609,10.652,6.191,15.981,9.277a26.909,26.909,0,0,0,4.983,2.149c9.93,3.305,19.486,7.624,29.943,9.5,6.785,1.217,13.427,2.92,20.4,2.76,3.617-.082,7.264-.443,10.867.2a27.574,27.574,0,0,0,13.413-1.113c8.272-2.633,16.507-5.376,24.906-7.6a34.881,34.881,0,0,0,13.361-7.053c1.007-.836,3.107-1.377,2.408-3.055C345.608,338.183,343.98,340.063,342.69,339.49ZM504.923,223.959a3.763,3.763,0,0,0-5.938-3.182c-7.26,4.405-15.023,8.111-21.063,14.318a66.211,66.211,0,0,1-11.718,9.689c-2.457,1.571-4.67,3.447-7.048,5.093-10.586,7.325-19.337,17.062-30.752,23.306a27.647,27.647,0,0,0-4.652,3.752A76.758,76.758,0,0,1,414.781,284c-4.432,2.856-8.351,6.373-12.48,9.623-7.4,5.823-14.848,11.553-21.794,17.92-1.564,1.434-4.488,2.4-4.78,3.961-.414,2.2,2.469,3.714,3.9,5.543,1.856,2.381,2.017,2.351,4.239.44,7.421-6.383,15.515-11.922,23.26-17.865,8.016-6.15,16.134-12.287,24.525-17.987,6.9-4.69,13.166-10.2,19.665-15.4,3.952-3.166,7.489-6.919,11.686-9.692a70.977,70.977,0,0,0,13.085-10.555,14.184,14.184,0,0,1,2.887-2.472c8.412-5.146,15.015-12.586,23.1-18.131C504.12,227.978,504.515,225.922,504.923,223.959ZM464.342,106.23c4.834.065,9.14-.812,12.257-4.815,3.1-3.985,2.586-8.325-1.552-11.184-5.434-3.755-11.689-4.75-18.079-4.765-6.69-.016-13.226.079-19.9-1.685-7.287-1.927-14.665-4.038-22.328-4.308-6.77-.239-12.929,1.124-17.56,6.582a9.275,9.275,0,0,0,.967,13.475c2.355,2.1,4.836,3.695,8.172,3.746a10.642,10.642,0,0,1,4.747,1.018c3.127,1.684,6.284,1.455,9.516.81,2.307-.46,4.59-1.045,6.877-1.6,13.759-3.356,14.25-3.343,27.5.865,1.033.328,2.088.6,3.1.99A14.819,14.819,0,0,0,464.342,106.23Zm-312.9-26.542c-2.282-.169-4.451-.341-6.621-.489-3.82-.26-4.043-.259-5.192,3.187-3.229,9.69-9.418,17.018-17.652,22.832-2.365,1.67-4.55,3.6-6.783,5.45-.5.417-1.341.912-.685,1.71.249.3.974.31,1.477.3,9.61-.277,19.218-.747,28.829-.814a164.3,164.3,0,0,1,20.045.732c6.836.787,13.763.794,20.653,1.083.617.026,1.578.283,1.812-.7.2-.86-.5-1.3-1.136-1.593-5.839-2.73-9.559-7.637-13.125-12.709a99.874,99.874,0,0,1-8.992-14.9c-1.428-3.046-3.4-4.431-6.748-4.118C155.339,79.839,153.328,79.688,151.437,79.688Zm1.951,79.978c4.049,0,9.119.032,14.188-.011,3.89-.032,4.29-.429,4.628-4.26.08-.9-.009-1.816.042-2.721.588-10.317-.181-20.671.9-30.979.321-3.066-.45-3.865-3.675-3.721a111.186,111.186,0,0,1-12.462.306c-6.306-.42-12.667-.146-19,0-3.4.08-3.615.442-3.489,3.909.11,3.06.464,6.066.27,9.187-.527,8.5-.572,17.039-.655,25.563-.028,2.895.548,3.54,3.055,3.219C142.255,159.51,147.331,160.818,153.388,159.666ZM400.211,356.3c-.454-.585-.856-1.182-1.335-1.708a251.77,251.77,0,0,1-20.313-24.833,20.451,20.451,0,0,0-3.054-3.068,59.972,59.972,0,0,1-12.1-14.592c-2.757-4.908-5.952-9.538-10.562-13.013a14.483,14.483,0,0,1-3.78-5.268c-3.456-6.724-4.534-8.494-11.934-1.976-.68.6-1.272,1.3-1.956,1.893-1.44,1.251-1.2,2.436.007,3.69,2.015,2.086,3.935,4.267,6,6.3,6.614,6.523,12.135,13.93,17.444,21.5q7.49,10.683,15.779,20.748c3.569,4.337,7.32,8.529,10.779,12.951,6.394,8.176,6.329,8.226,13.291.148a11.42,11.42,0,0,0,1.061-1.236A10.682,10.682,0,0,0,400.211,356.3ZM388.5,373.836c0-3.724-1.808-6.67-4.207-9.178-4.008-4.19-7.746-8.625-11.714-12.832-6.5-6.893-11.532-14.865-17.194-22.367-5.017-6.648-9.573-13.643-14.559-20.315-1.711-2.289-4.1-4.075-6.195-6.07-.366-.347-.743-.853-1.366-.59-.582.247-.608.824-.6,1.344.029,2.355.249,4.721.088,7.061a8.459,8.459,0,0,0,2.514,6.782,121.072,121.072,0,0,1,12.607,15.612,76.608,76.608,0,0,0,14.08,16.46,32.665,32.665,0,0,1,6.923,7.6c4.261,7.215,11.194,11.755,16.72,17.682.582.625,1.272,1.595,2.25,1.176S388.339,374.637,388.5,373.836Zm-234.272-7.164a3.875,3.875,0,0,0,1.1-.789,30.5,30.5,0,0,0,2.391-3.622,104.742,104.742,0,0,1,16.776-23.27c4.871-5.095,9.213-10.713,15.263-14.6,3.19-2.052,6.213-4.374,9.234-6.676a31.309,31.309,0,0,1,13.667-6.329c3.2-.562,6.4-1.182,9.586-1.834a2.066,2.066,0,0,0,1.284-.812c.419-.741-.228-1.312-.652-1.86a2.632,2.632,0,0,0-2.893-1.032c-5.916,1.67-12.221,1.74-17.924,4.22a141.821,141.821,0,0,0-13.745,6.439c-10.157,5.779-19.418,12.646-25.456,23.046-2.909,5.01-5.981,9.925-8.947,14.9-1.3,2.175-2.648,4.335-3.733,6.616C149.043,363.439,151.43,366.786,154.224,366.672ZM257.593,445.6a63.254,63.254,0,0,0,9.771-.048c3.963-.382,8.013-.9,11.935-.492,13.274,1.383,26.429-.868,39.647-.872a9.017,9.017,0,0,0,1.583-.279,6.082,6.082,0,0,0-1.4-.585c-5.922-.867-11.84-1.692-17.863-1.313a73.349,73.349,0,0,1-16.276-.635,36.234,36.234,0,0,0-11.937-.2c-7.934,1.394-15.9,1.03-23.876.92-5.8-.08-11.636-.5-17.381.033-9.21.858-18.435.769-27.646,1.037-11.6.337-23.22.157-34.829.033-12.86-.136-25.629,1.8-38.509,1.455-3.552-.095-7.124.515-10.772.323-4.3-.227-8.648.435-12.966.813-.634.055-1.219.667-1.826,1.021a7.735,7.735,0,0,0,1.885.5c7.422.045,14.867.417,22.259-.053,7.77-.493,15.579.291,23.305-.875a100.306,100.306,0,0,1,20.6-1.084c7.209.4,14.393,1.251,21.629.387a15.264,15.264,0,0,1,4.309.3,80.235,80.235,0,0,0,25.377.585C235.562,444.965,246.574,445.108,257.593,445.6ZM144.216,181.015c1.169.088,2.612.21,4.057.305,9.587.631,19.118.57,28.539-1.766,6.215-1.542,5.167-.166,6.06-6.841a8.994,8.994,0,0,0,.157-1.6c-.055-1.118-.78-1.713-1.793-1.415-6.507,1.914-13.242,1.71-19.9,2.327a139.891,139.891,0,0,1-37.752-2.089c-6.321-1.134-6.28-1.364-6.8,4.951-.31,3.757-.312,3.768,3.368,4.526C128.009,181.026,135.976,181,144.216,181.015ZM179.64,430.971c3.845-.346,7.28-.64,10.71-.981a5.662,5.662,0,0,0,1.357-.508,6.386,6.386,0,0,0-1.564-.325c-10.923.521-21.681-1.4-32.516-2.165-4.163-.293-8.435-.8-12.462.234a58.472,58.472,0,0,1-11.819,1.463,46.617,46.617,0,0,0-7.585.647c-5.573,1.219-11.177,1.049-16.8.938-4.354-.085-8.71-.1-13.065-.083-11.8.034-23.621.435-35.327-1.266-5.247-.763-10.394-1.345-15.648-.458a10.112,10.112,0,0,1-2.158-.112c-3.937-.213-7.335,1.658-10.9,2.855-.249.083-.6.642-.539.739.277.425.638.975,1.067,1.083a5.95,5.95,0,0,0,2.145-.01c8.5-1.113,17.048-.807,25.574-.657a81.883,81.883,0,0,1,13.408,1.322,21,21,0,0,0,7.519.264,54.405,54.405,0,0,1,7.027-.533c5.968-.291,11.858.8,17.841.832,7,.044,13.935-.374,20.9-.677,6.439-.28,12.8-1.44,19.171-2.1,9.835-1.013,19.8-1.793,29.739-.692C177.141,430.944,178.6,430.925,179.64,430.971ZM407.3,16.586c5.969.55,13.28-2.295,20.9-2.358a7.727,7.727,0,0,0,7.142-4.2c1.232-2.53.812-4.03-1.872-4.3-7.7-.779-15.448-2.613-23.181-.76-9.126,2.187-18.126,3.125-27.309.228-4.2-1.324-8.2.508-12.1,1.993a1.682,1.682,0,0,0-1.1,1.679,1.541,1.541,0,0,0,1.181,1.6c1.04.309,2.087.612,3.148.835,4.429.927,8.971,1.479,13.272,2.815C393.367,15.968,399.449,16.336,407.3,16.586ZM124.209,342.439c.112.361.191,1.242.431,1.288.979.19.928-.719,1.072-1.345,1.058-4.594,1.967-9.249,4.407-13.373,3.6-6.083,6.885-12.341,10.764-18.274a57.341,57.341,0,0,1,30.167-23.681c6.52-2.24,12.888-4.864,19.957-4.623a5.469,5.469,0,0,0,1.086-.058c.52-.087,1.083-.272.952-.923-.044-.221-.572-.465-.9-.491-7.568-.589-15.113-1.055-22.685.3-5.222.932-9.15,4.245-13.6,6.6-10.28,5.441-17.412,14.159-23.45,23.663C126.528,320.778,125.669,331.664,124.209,342.439ZM376.478,99.569c0,.093,0,.185,0,.278-3.426,0-6.853-.01-10.279,0-1.528.007-1.838,1.087-1.492,2.2a10.559,10.559,0,0,0,4.189,6.072,15.057,15.057,0,0,1,6.164,9.253,45.658,45.658,0,0,1,1.458,9.6c.064,1.591-1.222,4.184.859,4.614,1.427.294,2.479-2.261,3.369-3.818.179-.312.3-.655.455-.983q4.512-9.822,9.034-19.638a3.41,3.41,0,0,0-.7-4.374c-1.861-1.866-3.657-3.29-6.567-2.966A41.846,41.846,0,0,1,376.478,99.569ZM497.9,446.423c2.869.157,4.5.292,6.127.307a4.839,4.839,0,0,0,1.482-.5,4.209,4.209,0,0,0-1.316-.624c-5.237-.425-10.5-1.27-15.713-1.07-7.025.27-14.073-.377-21.076.55a6.379,6.379,0,0,1-2.167-.047c-5.371-1.189-10.834-1.11-16.243-.814-9.4.515-18.834-.081-28.214,1.121-5.75.737-11.569,1.422-17.358.8-7.993-.856-15.944.117-23.913.077a5.337,5.337,0,0,0-3.624.869,15.035,15.035,0,0,0-1.114,1.1c.443.221.885.63,1.329.633,2.892.021,5.788.025,8.676-.1,5.423-.238,10.88-1.105,16.254-.73,7.051.492,14.072-.075,21.106.105,6.983.178,13.986.6,20.992.4,2.73-.079,5.6-1.268,8.021-.68,6.312,1.533,12.582.556,18.861.728a88.877,88.877,0,0,0,18.837-1.406A72.986,72.986,0,0,1,497.9,446.423ZM259.952,50.673c2.83-.145,6.445-.283,10.052-.542a11.285,11.285,0,0,0,3.695-.774c2.717-1.2,3-3.132.732-5-3.043-2.508-6.656-3.413-10.551-3.764a69.763,69.763,0,0,0-24.663,2.319c-1.207.326-2.95.182-3.184,1.564-.25,1.478,1.575,1.694,2.6,2.333.456.286,1,.429,1.469.7C246.068,50.923,252.708,50.207,259.952,50.673ZM103.462,218.26c-.394,1.28.466,2.388,1.665,3.331,1.235.972,2.292,3.237,3.537,2.825,1.412-.468.957-2.758,1.1-4.372,1-11.063,3.336-21.764,9.035-31.5.615-1.05,2.24-2.354,1.4-3.237-1.024-1.076-3.022-1-4.633-.71a3.532,3.532,0,0,0-1.765,1.171,19.117,19.117,0,0,0-4.407,6.764C106.742,200.815,105.632,209.456,103.462,218.26Zm47.2-51.014a31.452,31.452,0,0,1,4.864.037c7.482,1.178,14.759-1.006,22.15-1.264,1.267-.044,3.481-.109,3.28-1.951-.195-1.787-2.363-1.858-3.918-2.193-.794-.171-1.315.408-1.936.762a6.456,6.456,0,0,1-2.446,1.041c-6.127.5-12.267,1.276-18.394,1.207A154.354,154.354,0,0,1,137,164.221c-4.625-.569-9.356-.162-13.776-2.113a3.262,3.262,0,0,0-2.64.02c-.29.121-.5.478-.7.761a.528.528,0,0,0,.291.885,24.126,24.126,0,0,0,2.533.919C131.875,167.05,141.087,168.982,150.659,167.246Zm-46.9-55.006a19.55,19.55,0,0,0,1.874-.817A155.163,155.163,0,0,0,124.678,98.9c6.35-4.877,9.793-11.449,11.782-18.975a2.124,2.124,0,0,0,.121-1.06,1.1,1.1,0,0,0-.7-.644c-.31-.067-.873.023-.983.228-.332.622-.433,1.363-.74,2-2.924,6.1-6.517,11.79-12.078,15.761-6.339,4.527-11.877,10.072-18.483,14.238a1.192,1.192,0,0,0-.524.837C103.076,111.55,103.432,111.81,103.762,112.24Zm21.69,28.376c0,3.622-.029,7.245.012,10.867.022,1.987.132,3.975.261,5.958a1.394,1.394,0,0,0,1.408,1.368,1.412,1.412,0,0,0,1.473-1.282c.06-.536.019-1.083.03-1.625.114-5.426.217-10.852.346-16.278.147-6.123.274-12.248.506-18.368.065-1.735-.782-2.218-2.255-2.283-1.52-.068-2.429.534-2.462,2.144a8.309,8.309,0,0,0,.045,1.626C125.9,128.671,125.509,134.649,125.452,140.616Zm27.047-70.2V70.38c-1.621,0-3.247-.076-4.863.017-2.576.149-3.42,1.009-3.889,3.55-.21,1.135.185,1.664,1.314,1.729A94.063,94.063,0,0,0,158,75.928c2.224-.177,2.646-1.234,2.623-3.13-.023-1.934-1.011-2.455-2.721-2.4C156.1,70.458,154.3,70.412,152.5,70.412Zm101.988-8.2c.926.1,1.46.149,1.99.226,1.819.264,2.244-.416,1.508-2.068-.359-.806-.487-1.713-.776-2.555-.4-1.178-.745-2.516-2.289-2.622-1.959-.134-3.928-.16-5.891-.132a1.031,1.031,0,0,0-1.061.95,5.14,5.14,0,0,0,4.767,6.192A17.165,17.165,0,0,0,254.487,62.211ZM147.623,67.856c1.613-.093,3.229-.151,4.838-.289,1.553-.134,3.758.78,4.489-.688.771-1.547-1.367-2.6-2.294-3.831-.216-.287-.447-.563-.667-.847-2.681-3.47-2.7-3.484-5.35.108a35.031,35.031,0,0,0-2.343,3.61C145.329,67.639,145.6,68,147.623,67.856ZM402.674,367.3c0-.474.016-.832,0-1.189-.121-2.334-.356-2.44-2.477-1.544a13.853,13.853,0,0,0-5.576,4.876c-1.081,1.44-.989,2.982-.7,4.6.209,1.161.9,1.545,1.857,1,1.543-.89,2.958-2,4.484-2.921A4.445,4.445,0,0,0,402.674,367.3Zm-51.668-13.917c-.708,1.985.263,2.8,1.984,3.116a24.744,24.744,0,0,0,2.675.475c1.048.073,2.391.347,2.777-.983a3.631,3.631,0,0,0-.41-3.1,6.5,6.5,0,0,0-1.594-1.47c-1.44-1-2.509-3.426-4.286-2.809C350.212,349.283,351.576,351.853,351.006,353.385ZM137.967,66.959a2.7,2.7,0,0,0,2.483-.614,37.9,37.9,0,0,0,6.329-7.956c.13-.215.068-.821-.029-.852-.478-.149-1.147-.4-1.48-.193-3.387,2.127-5.8,5.253-8.2,8.353C136.428,66.521,137.15,66.887,137.967,66.959Zm198.206,264.36c-.03.361-.067.721-.088,1.083-.139,2.391,1.526,3.075,3.39,3.462.969.2,2.379,1,2.843-.3.558-1.57-1.086-2.527-1.9-3.662a33.89,33.89,0,0,0-2.442-2.9,1.536,1.536,0,0,0-.927-.427c-.837-.076-.7.654-.781,1.128A13.1,13.1,0,0,0,336.173,331.319Zm38.459,44.229c.891-.032,1.833-.028,2.321-.947.541-1.019-.166-1.627-.87-2.2-.551-.451-1.077-.934-1.648-1.359-.954-.71-2-2.416-3.03-1.519-1.106.968-1.055,2.939-.426,4.458C371.64,375.579,373.18,375.559,374.632,375.548Zm16.74-352.619c-.172-.134-.389-.427-.66-.491-.686-.162-1.434-.447-2.077.055-1.871,1.461-3.105,3.473-4.511,5.333-.4.532-1.07,1.193-.4,1.809s1.845.969,2.473.267c1.786-2,3.365-4.178,5.013-6.3C391.311,23.478,391.3,23.263,391.372,22.929ZM154.4,343.424a10.239,10.239,0,0,0-1.89-4.29,1.845,1.845,0,0,0-1.865-.726c-1.225.28-.856,1.305-.942,2.132-.137,1.324.8,2.3,1.077,3.477.214.9.543,1.805,1.623,1.676C153.618,345.548,153.979,344.423,154.4,343.424Zm40.656-51.809c-.21-1.479-1.974-3.174-2.85-2.718a3.225,3.225,0,0,0-1.769,3.523c.238,1.348,1.48,1.313,2.586,1.086S195.115,292.923,195.057,291.615ZM137.262,75.122c1.8-.193,1.405-1.667,1.5-2.867a1.677,1.677,0,0,0-1.87-2.042c-1.595-.025-1.572,1.152-1.595,2.242C135.267,73.781,135.34,75.071,137.262,75.122ZM516.507,428.037c.748-.248,1.986.174,1.827-1.273a1.479,1.479,0,0,0-1.543-1.238,22.731,22.731,0,0,0-2.7-.052c-.686.028-1.548.066-1.664.925-.119.882.689,1.221,1.385,1.365A24.567,24.567,0,0,0,516.507,428.037ZM59.636,445.183c-.17-.239-.3-.622-.49-.656-1.482-.268-2.717.59-4.05,1-.183.056-.27.422-.4.644a7.641,7.641,0,0,0,1.52.217A4.9,4.9,0,0,0,59.636,445.183Zm453.106.265-1.934.344c.306.871,1.066.5,1.619.52a12.829,12.829,0,0,0,2.077-.246C514.2,445.183,513.428,445.691,512.742,445.448Zm-25.328-11.883-1.423.288a4.166,4.166,0,0,0,1.216.379,4.942,4.942,0,0,0,1.306-.364ZM262.5,245.772a8.133,8.133,0,0,1,4.731.973c3.974,2.144,8.263,3.626,11.856,6.577,2.471,2.03,5.33,3.577,8.481.35,2.007-2.056,5.028-2.05,7.739-1.83,7.345.594,15.639,8.1,17.253,15.389a1.628,1.628,0,0,1-1.639,2.208c-7.193.224-14.143,3.629-21.526,1.584a7.268,7.268,0,0,0-3.778.1c-10.584,3.1-21.454,3.038-32.317,3.049-4.528,0-9.059-.118-13.585-.268-3.081-.1-4.766-2.2-3.68-5.049a60.446,60.446,0,0,1,7.645-14.357,8.928,8.928,0,0,1,2.572-1.956c2.152-1.34,4.472-2.443,6.492-3.952C255.691,246.386,259.071,246.091,262.5,245.772Zm9.968,22.963c1.134,0,2.95-.015,4.766,0,4.067.04,4.99-1.067,3.954-5.025a10.808,10.808,0,0,0-1.478-2.873,13.247,13.247,0,0,0-5.741-4.888c-5-2.313-9.693-5.718-15.874-3.915-2.368.69-4.094,2.478-6.269,3.026-5.091,1.283-6.369,5.479-8.106,9.436-.4.9-.506,1.8.746,2.082,5.1,1.162,10.031,3.7,15.4,2.743A55.62,55.62,0,0,1,272.463,268.735Zm28.753-1.476c1.531-.072,3.162-.057,4.767-.252,1.45-.176,1.864-1.079.843-2.191-1.826-1.989-3.86-3.79-5.632-5.822-2.181-2.5-4.825-2.945-7.828-2.17a16.817,16.817,0,0,0-5.866,2.641c-.952.7-2.437.861-1.965,2.673.371,1.422.553,2.883,2.335,3.241C292.253,266.259,296.528,267.9,301.216,267.259ZM97.086,390.565c-1.434-.176-3.119.071-4.253-.606-3.245-1.938-6.222-.754-9.282.213a107,107,0,0,1-11.6,2.744c-6.66,1.313-12.462-.81-18.046-4.062-2.447-1.425-3.587-3.463-2.92-6.338.163-.7.288-1.421.38-2.138.767-5.979,3.516-10.519,9.191-13.094a35.556,35.556,0,0,1,9.743-3.122c3.889-.526,7.411,1.042,10.266,3.881a19.551,19.551,0,0,1,4.519,6.715c.7,1.784,1.79,2.074,3.38,1.654a14.02,14.02,0,0,0,2.586-.8c4.028-1.965,7.311-.908,10.189,2.284,1.452,1.611,3.182,2.986,4.524,4.675,2.1,2.642,1.616,4.375-1.378,6.115A14.254,14.254,0,0,1,97.086,390.565Zm-28.5-2.644c2.32-.321,4.665-.518,6.953-.992,3.158-.654,6.436-.763,9.462-2.026-.294-3.737-3.561-5.673-5.243-8.575a15.327,15.327,0,0,0-5.088-5.528c-4.379-2.684-15.505,1.065-17.423,5.884-.8,2-1.192,4.163-1.881,6.214a1.8,1.8,0,0,0,1.141,2.58C60.405,386.855,64.28,388.438,68.583,387.921Zm27.05-1.9c1.415-.13,4.132.395,5.948-1.448.8-.814-5.471-5.262-7.88-5.338a11.385,11.385,0,0,0-2.678.117c-1.464.308-3.467.037-3.468,2.408a4.109,4.109,0,0,0,3.347,4.226A36.845,36.845,0,0,0,95.633,386.022Zm131.605-211.14a5.158,5.158,0,0,1,4.749,2.231,2.744,2.744,0,0,1-1.337,4.407,70.383,70.383,0,0,1-13.192,2.795,1.749,1.749,0,0,1-1.616-2.9A18.89,18.89,0,0,1,227.238,174.882Zm-4.032,5.428c2.269.024,5.662-1.514,5.585-2.54a.693.693,0,0,0-.214-.394c-1.13-1.083-3.679-.322-5.739,1.727a6.836,6.836,0,0,0-.633.856ZM464.245,372.4a15.7,15.7,0,0,1-5.808-1.01,2.937,2.937,0,0,1-2.179-2.766,3,3,0,0,1,2.311-3.2c4.072-1.313,8.094-1.88,11.859.79,2.648,1.879,2.448,3.836-.424,5.163C467.96,372.322,467.2,372.457,464.245,372.4Zm-.827-2.147c.626-.037,1.53-.084,2.433-.146.557-.037,1.114-.208,1.251-.79.223-.952-.561-1.243-1.229-1.434a7.476,7.476,0,0,0-2.655-.46c-1.317.126-3.415-.112-3.314,1.721C459.984,370.605,461.971,369.974,463.418,370.25ZM390.984,268.3c-1.674-.171-3.792.414-4.547-1.24-.875-1.918.754-3.4,2.2-4.5,1.431-1.091,3.04-1.945,4.559-2.923,1.987-1.28,3.877-.662,5.583.474a3.624,3.624,0,0,1-.074,6.3C396.353,267.954,393.607,268.1,390.984,268.3Zm6.994-6.975c-.238-.252-.527-.782-.966-.978-1.584-.71-4.774,1.678-4.567,3.4.075.624.632.743,1.174.687a7.581,7.581,0,0,0,3.559-1.115A1.725,1.725,0,0,0,397.978,261.329ZM85.963,299.35a2.256,2.256,0,0,1,2.428,1.749c.386,1.565-.829,2.183-2.083,2.608-1.864.631-3.71,1.328-5.6,1.852a6.025,6.025,0,0,1-4.2-.288,2.585,2.585,0,0,1-1.8-2.428c.043-1.1,1.042-1.294,1.828-1.69C79.344,299.74,82.448,299.86,85.963,299.35Zm-4.953,3.359a12.528,12.528,0,0,0,1.593-.255c.313-.089.842-.459.815-.529-.211-.562-.747-.551-1.227-.461-.742.139-1.351.442-1.141,1.389l-.223-.334ZM259.679,148.841c.346-.013,1.163-.257.873.636-.061.189-.6.377-.856.319-.834-.184-1.641-.483-2.459-.738a3.677,3.677,0,0,0-3.5.9c-.982.815-.8,2.364.352,2.5,3.182.362,6.4.841,9.556-.268,1.441-.507,2.75-1.128,2.36-3-.405-1.946-1.94-2.557-3.643-2.47a8.331,8.331,0,0,0-5.242,2.448A25.561,25.561,0,0,1,259.679,148.841ZM436.53,337.077c-1.995-.362-4.076.2-4.935-1.956-.541-1.355,1.041-2.774,3.858-3.5a43.456,43.456,0,0,1,4.716-.977,2.231,2.231,0,0,1,2.585,1.429,2.5,2.5,0,0,1-1,3.259A10.2,10.2,0,0,1,436.53,337.077Zm1.56-4.143-1.052.766a3.046,3.046,0,0,0,.913.381c.485.032,1.015-.08,1.114-.665C439.08,333.325,438.505,333.134,438.09,332.934ZM119.6,272.225a13.27,13.27,0,0,1-2.309-.545c-1.61-.655-1.969-2.39-.543-3.349a47.109,47.109,0,0,1,6.527-3.574c1.164-.538,1.975.485,2.614,1.355a2.329,2.329,0,0,1-.019,2.964C124.4,271.139,122.3,271.933,119.6,272.225Zm2.132-3.733.348-.28c-.1-.112-.188-.305-.294-.315s-.23.164-.346.257ZM299.286,101.528a3.053,3.053,0,0,0-1.373,1.566c-.436.945-.223,1.731,1.038,1.863,1.857.2,3.57-.455,5.3-.917,2.262-.6,4.5-1.307,6.738-1.994,1.653-.508,4.713.022,4.616-1.791-.135-2.548-3.184-1.229-4.449-1.63C306.5,98.075,302.983,100.174,299.286,101.528Zm61.919,23.149a7.527,7.527,0,0,0-2.328-4.781,1.716,1.716,0,0,0-1.941-.56,1.275,1.275,0,0,0-.81,1.742,26.068,26.068,0,0,1,1.625,17.416,1.455,1.455,0,0,0,.352.944c.508-.088,1.215-.155,1.453-.5,1.811-2.668,1.948-5.752,2.044-9.734C361.524,128.281,361.453,126.467,361.205,124.677Zm-5.435,35.109c.428-.032.631-.3.37-.559s-.526-.059-.559.37Zm-42.86,47.528c7.144-1.264,14.382-1.475,21.579-2.142a39.757,39.757,0,0,0,10.1-1.9,15.379,15.379,0,0,1,2.077-.456c-.573-.586-1.293-.362-1.972-.353a99.166,99.166,0,0,1-17.291-1.057,11.168,11.168,0,0,0-3.773-.006,99.926,99.926,0,0,1-20.511,1.719,9.89,9.89,0,0,0-5.246,1.161,1.991,1.991,0,0,0-.936,1.165c-.155.947.641,1.152,1.369,1.2,3.423.243,6.848.455,10.606.7A21.63,21.63,0,0,0,312.91,207.314Zm73.286-2.751c.268-.9-.079-1.463-.943-1.445-8.649.173-17.33.119-25.6,3.279-1.122.429-3.022.466-2.676,1.941.3,1.271,2.13.8,3.339.7a33.3,33.3,0,0,0,5.9-.677c4.714-1.3,9.314-.2,13.694.271C383.706,208.764,385.264,207.7,386.2,204.563ZM351.9,43.244c-2.754-3.187-6.562-3.636-10-.764-1.725,1.444-2.769,1.576-4.376.012-1.92-1.869-4.219-1.8-6.5-.529a13.536,13.536,0,0,0-4.234,3.319c-.645.824-1.542,1.764-.939,2.842a2.245,2.245,0,0,0,2.9.779c2.91-1.273,5.6-2.938,8.921-.727.964.642,2.27-.769,3.149-1.685,2.333-2.432,4.707-4.035,7.847-1.1a2.142,2.142,0,0,0,2.557.006,5.844,5.844,0,0,0,1.023-1.114A3.272,3.272,0,0,0,351.9,43.244Zm67.918,2.34c1.055-.644,2.252-2.038,3.359-1.322,3.484,2.251,6.577-1.451,9.917-.377a.808.808,0,0,0,1-.914,2.88,2.88,0,0,0-.291-1.012,3.237,3.237,0,0,0-3.3-1.425,14.127,14.127,0,0,1-6.329-.67c-2.49-.909-7.628,3.047-8.153,5.805-.115.6.283.966.9,1.148A5.932,5.932,0,0,0,419.814,45.584Zm-33.947-3.643c-.073-1.444-1.558-1.748-2.883-1.761-4.153-.038-7.109,2.03-9.337,5.346-.29.432-.532.966.027,1.4a1.143,1.143,0,0,0,1.438-.106c1.2-.776,2.452-1.484,3.614-2.315,1.339-.957,2.647-1.884,4.5-1.324C384.354,43.374,385.969,43.966,385.867,41.941ZM172.721,201.6c1.017-.27,2.362-.532,2.261-1.794-.122-1.534-1.622-1.7-2.828-1.633a9.338,9.338,0,0,0-3.013.84,1.712,1.712,0,0,0-.819,1.2c-.094.811.528,1.224,1.268,1.383.513.11,1.039.157,1.534.229A13.04,13.04,0,0,0,172.721,201.6Zm-29.349-4.158c.886-.118,1.855-.3,1.917-1.394.059-1.049-.738-1.493-1.689-1.665a4.741,4.741,0,0,0-3.59.386c-.625.4-1.19.947-.993,1.676.111.409.73.777,1.2.965a4.323,4.323,0,0,0,1.339.154C142.314,197.514,142.848,197.51,143.372,197.44Zm-11.6,23.652c.12-1.013-1.368-2.633-2.333-2.4a1.976,1.976,0,0,0-1.667,1.816c-.038,1.273.869,1.8,1.86,2.026A2.26,2.26,0,0,0,131.768,221.092Zm48.5-3.555c-1.06,0-2.652-.115-2.645,1.159.009,1.628,1.546.612,2.406.645a6.162,6.162,0,0,0,2.092-.382c.249-.082.38-.525.569-.811C182.035,217.341,181.108,217.537,180.266,217.537ZM225.2,97.473c-.249.623-.68,1.428.1,1.953.684.461,1.327-.026,1.939-.4,2.3-1.42,4.645-2.773,6.911-4.247,1.153-.75,2.289-1.143,3.541-.464,3.1,1.68,5.394.311,7.792-1.668,3.928-3.241,5.466-3.145,9.407.068a6.717,6.717,0,0,0,3.762,1.878c2.244.209,3.428-2.414,5.285-2.04,1.832.368,3.008,2.57,5.153,2.734,1.266.1,2.649.293,3.312-1.147a3.293,3.293,0,0,0-.677-3.964c-2.582-2.714-6.426-3.731-9.844-1.826a4.535,4.535,0,0,1-5.348-.108,11.67,11.67,0,0,0-11.886.112c-2.794,1.6-4.772,3.962-8.174,1.816-.129-.081-.353-.011-1-.011C231.692,91.628,227.126,92.633,225.2,97.473Zm39.2-16.59a1.487,1.487,0,0,0,1.914-.464c.625-.826.036-1.11-.5-1.646-1.695-1.7-3.48-2.53-5.835-1.36-1.8.894-3.193.555-4.862-.86-2.42-2.05-4.4-1.56-6.6.82-.514.559-.973,1.294-.673,1.947.338.735,1.15.67,1.851.275a3.841,3.841,0,0,1,4.567.08c1.47,1.087,3.141.58,4.738.291.889-.16,1.755-.443,2.368-.6C262.936,79.194,263.418,80.49,264.4,80.883Zm-84.12,227.25c-.082,2.855-3.349,5.884-6.154,5.707a5.145,5.145,0,0,1-4.749-4.948c.088-2.782,2.923-5.776,5.45-5.753C177.488,303.163,180.345,305.78,180.278,308.133Zm-5.866.8c.256-1.284-.246-1.82-1.012-1.976-.7-.141-1.559-.1-1.475.968a1.636,1.636,0,0,0,1.444,1.4A.855.855,0,0,0,174.412,308.928Zm-18.42,4.162c2.022.1,4.392,2.972,4.42,5.365.031,2.707-2.553,5.485-4.964,5.337a5.166,5.166,0,0,1-5.137-5.155C150.453,316.05,153.6,312.978,155.992,313.09Zm.081,5.671c.1-1.259-.465-1.9-1.484-1.939s-2.391-.119-2.36,1.39c.019.907.952,1.43,1.912,1.575C155.129,319.936,155.9,319.723,156.073,318.761ZM440.679,273.1c4.28-2.472,7.284-6.665,11.621-8.952,8.03-4.236,14.3-10.474,20.391-16.972a62.832,62.832,0,0,1,10.443-9.5c1.351-.913,2.607-1.971,3.871-3,.366-.3.95-.767.513-1.246-.408-.448-.951.06-1.392.306a69.772,69.772,0,0,0-15.744,11.554,122.021,122.021,0,0,1-18.127,15.547c-4.982,3.361-8.948,7.991-14.241,10.91a2.8,2.8,0,0,0-.979,1.258c-.29.616.16.945.689,1.158C438.952,274.483,439.748,273.637,440.679,273.1Zm-11.5,6.4c-4.675,4.593-10.4,7.821-15.468,11.891a22.339,22.339,0,0,0-2.426,2.145c-.469.5-.943,1.339-.513,1.93a1.783,1.783,0,0,0,2.459.232,8.3,8.3,0,0,0,2.08-1.7,62.728,62.728,0,0,1,10.961-9.662,42.858,42.858,0,0,0,4.37-4.047c.218-.213.219-.648.4-1.254A1.6,1.6,0,0,0,429.175,279.5Zm-2.344-187.3c-1.677-1.522-3.393-.573-5.1,0-1.349.456-2.159,2.34-3.7,1.9-1.594-.45-1.125-2.519-2.012-3.643-.218-.276-.261-.687-.463-.982-1.478-2.151-3.607-2.517-5.523-.674a33.318,33.318,0,0,0-3.723,4.654,1.952,1.952,0,0,0-.22,2.5c.868,1.005,1.975.627,2.974.143a4.245,4.245,0,0,0,1.307-.966c1.325-1.5,1.773-.651,2.666.608,2.325,3.279,3.735,3.365,7.1.953,1.984-1.423,3.66-3.634,6.632-2.56.166.059.511-.379.865-.659A5.475,5.475,0,0,0,426.831,92.19Zm37.587,2.534c.339-.329.02-1.063-.539-1.276a22.008,22.008,0,0,1-2.958-1.161c-3-1.647-3.754-1.4-5.96,1.239a26.854,26.854,0,0,0-1.563,2.218c-.5.745-1.127,1.58-.488,2.44.7.948,1.709.492,2.371-.072,1.352-1.152,2.665-1.834,4.171-.638C462.059,98.1,463.058,96.041,464.418,94.724ZM160.569,89.932c-.589,4.862,1.983,8.564,4.55,12.249.238.341,1.042.724,1.211.6.517-.391.054-.918-.148-1.373-1.725-3.878-3.133-7.916-5.738-11.349Zm-14.247,8.34a33.317,33.317,0,0,0,3.3-10.62c.029-.314-.228-.654-.352-.982-.24.207-.624.371-.7.626-.984,3.419-2.779,6.589-3.163,10.187a7.67,7.67,0,0,0,.191,1.638A4.411,4.411,0,0,0,146.322,98.272Zm8.436-5.509c-1.538,1.068-.824,2.764-1.151,4.168a17.1,17.1,0,0,0-.335,7.986c2.522-2.178,1.268-5.3,2.091-7.85C155.022,95.588,155.544,94.1,154.758,92.763Zm-12.59-1.553c-2.921,2.581-3.745,6.537-6.168,9.451-.089.107.216.541.337.823.307-.143.732-.2.905-.444,2.178-3.025,4.406-6.034,4.809-9.921ZM130.159,106.3a1.228,1.228,0,0,0-1.317.729c-.271.53-.278,1.129.429,1.095.42-.02.814-.589,1.016-.75C130.7,106.731,130.624,106.366,130.159,106.3Zm11.892-15.177a6.016,6.016,0,0,0,.77-1.27c.145-.457.122-1.057-.593-1.039-.123,0-.329.6-.324.92a8.877,8.877,0,0,0,.264,1.48Zm1.357,14.333a6.1,6.1,0,0,0-.766.579c-.3.309-.277.692.1.808.545.17.858-.208,1.05-.685Zm11.911-20.864a.591.591,0,0,0-.179.466c.038.479.265.666.544.471.115-.08.125-.308.183-.469C155.821,84.576,155.618,84.389,155.319,84.588Zm5.25,5.344-.351-.165.226.288Zm-19.877,50.88c-.836-5.376,5.394-13.26,10.008-15.832,1.611-.9,3.511-.666,5.335-.309,5.11,1,8.209,4.38,10.387,8.791.942,1.906.548,3.919-.109,5.838-1.866,5.447-9.63,11.081-15.423,11.24C144.193,150.724,140.835,147.521,140.692,140.812Zm12.014-2.634c-.1-1.962-.1-2.869-.217-3.761a6.206,6.206,0,0,0-.512-1.526c-1.071-2.563-2.388-2.851-4.461-1.007-3.219,2.863-3.841,6.837-4.43,10.75-.237,1.577,1.152,2.546,2.37,3.362,1.474.989,2.364-.329,3.3-1C151.409,143.074,152.882,140.5,152.706,138.178Zm3.029.871c.443,2.167-1.068,4-2.513,5.875-.425.552-.876,1.284-.3,1.934s1.33.232,1.963-.06a10.655,10.655,0,0,0,5.592-6.3c1.376-3.765-.173-8.8-3.1-10.689-1.377-.891-2.513-.373-2.431,1.278C155.067,133.592,155.427,136.09,155.735,139.049ZM359.122,318.664c-3.462-7.028-8.39-13.116-12.625-19.648a4.76,4.76,0,0,0-2.336-2.2,2.035,2.035,0,0,0-1.485-.058c-.348.222-.5.884-.558,1.375a2.065,2.065,0,0,0,.368,1.006c3.956,7.87,10.542,13.475,16.739,19.414Zm32.042,37.686c1.114-2.829-1.122-4.362-2.52-6.088-4.677-5.774-10.117-10.945-13.76-17.534a2.739,2.739,0,0,0-.693-.833,2.865,2.865,0,0,0-.843-.3c-.059.34-.277.761-.152,1.007a46.786,46.786,0,0,0,5.809,9.166q6.165,7.262,12.282,14.564Zm-27.173-28.393c.033-1.5-.047-2.935-1.753-3.58l.113-.115c-.318,1.648,1.47,2.232,1.8,3.554Zm-4.035-6.923a2.471,2.471,0,0,0-.834-2.37l.1-.109c-.2.964-.365,1.917.853,2.371Zm.8,2.56c-.157-.888.49-2.025-.8-2.56l.122-.108q.416,1.257.83,2.515Zm7.256,7.069a2.791,2.791,0,0,0,.763,2.084l.039.13-.952-2.086Zm23.277,25.671.323-.149-.446.165Zm-19.228-19.809.248.12-.123-.243Zm-1.125-1.027,1.125,1.027.125-.123-1.148-1.021Zm-8.7-11.121c-.2-.826-.666-1.134-1.484-.783l.154-.153c.369.471.756.911,1.443.821Zm7.161,10.035-.626-1.665.039.13c-.943.846-.909,1.4.465,1.547Zm-.122.012,1.657,1.074.1-.117-1.637-.969Zm-1.417-3.633-.9-1.337.14-.116c-.214.8-.208,1.447.914,1.325Zm-2.319-2.044c.289.8.858.864,1.555.591l-.14.116-1.543-.571Zm-.128.136c-.091-.9-.567-1.2-1.422-.926l.156-.141,1.394.931ZM412.141,11.421c2.2-.463,4.626-.369,6.2-2.416a.43.43,0,0,0-.088-.407c-2.24-1.244-4.092.475-6.127.821a8.07,8.07,0,0,0-1.024.309c-.17.053-.342.1-.507.17-.637.261-1.382.382-1.6,1.205l1.65.4A12.537,12.537,0,0,0,412.141,11.421ZM261.2,46.645a1.7,1.7,0,0,0,1.346-.514c.346-.543-.2-1-.686-1.168a25.321,25.321,0,0,0-4.089-1.262c-2.829-.49-7.877.8-7.332,1.407,1.792,1.988,4.314.816,6.528.991C258.374,46.292,259.78,46.539,261.2,46.645Z"/></g></g></svg>