<svg xmlns="http://www.w3.org/2000/svg" viewBox="0 0 478.509 501.886"><title>zen</title><g id="Layer_2" data-name="Layer 2"><g id="Untitled_Artwork_12_Image" data-name="Untitled_Artwork 12 Image"><path d="M325.776,481.824a41.9,41.9,0,0,0-9.23-.1c-3.919.4-6.364-1.462-8.517-4.511-4.834-6.845-7.11-14.523-8.545-22.668-1.258-7.138-2.994-14.176-3.662-21.434-.6-6.525-.555-13.057-.654-19.581-.041-2.677-1.4-3.431-3.392-4.078a1.108,1.108,0,0,0-1.614.885c-.9,5.369-4.687,7.9-9.314,9.656a3.822,3.822,0,0,0-.943.529c-.558.424-1.41.772-1.131,1.636.124.383.77.638,1.221.866.97.49,1.977.907,2.953,1.387a17.351,17.351,0,0,1,4.764,3.592c6.6,6.811,5.977,11.564-2.152,16.4a4,4,0,0,1-.977.476c-2.8.741-2.047,2.272-1.02,4.041a44.161,44.161,0,0,1,2.947,5.818,9.1,9.1,0,0,1-3.441,11.456,9.574,9.574,0,0,1-12.049-.38c-1.908-1.5-2.989-3.62-4.406-5.494-.709-.937-1.526-.894-1.82.439a133.735,133.735,0,0,0-3.135,18.19A45.475,45.475,0,0,1,258.6,491.6c-3.961,10.382-15.946,13.532-24.63,6.549-2.843-2.286-2.984-2.475-5.838-.334a16.537,16.537,0,0,1-9.017,3.264c-4.114.3-7.269-1.067-9.442-4.84a48.611,48.611,0,0,1-6.138-23.438,139.023,139.023,0,0,0-.942-15.736,72.713,72.713,0,0,0-3.754-14.71,6.277,6.277,0,0,0-1.2-1.535c-.491.731.015,1.394.17,2.066.408,1.769,1.007,3.5,1.283,5.291.918,5.953-3.565,12.737-9.289,14.211-3.467.893-5.232.169-7.251-2.982-.391-.61-.723-1.26-1.149-1.843-.842-1.152-.293-3.19-1.879-3.7-1.466-.471-2.53,1.11-3.9,1.537-6.222,1.944-11.907-1.731-12.548-8.214-.591-5.982,1.621-11,5.349-15.506a43.634,43.634,0,0,1,8.658-7.427c1.474-1.051,1.63-1.965.179-3.431-4.193-4.236-4.409-9.626-3.831-15.132.093-.884.661-1.719.756-2.6.157-1.457,1.386-3.327-1.139-4.029-2.911-.809-4.61.068-5.124,2.985-2.325,13.21-5.551,26.235-8.091,39.406-2.126,11.02-5.939,21.658-12.5,31.079-2.682,3.853-6,6.2-10.782,6.305-1.992.042-4.043.606-5.961.289-13.363-2.213-26.954-2.631-40.124-6.58-12.3-3.686-23.47-9.23-34.448-15.686A129.189,129.189,0,0,1,27.05,433.226c-12.608-13.51-21.621-29.037-25.785-47.19C-.458,378.528.3,370.9.04,363.316a95.375,95.375,0,0,1,2.2-22.111c1.912-9.509,7.435-17.233,12.745-25.039a19.081,19.081,0,0,0,1.65-2.158c3.98-8.268,10.238-14.419,17.807-19.382a20.913,20.913,0,0,0,2.6-1.981c15.36-13.917,33.5-17.907,53.576-15.079a73.091,73.091,0,0,1,33.948,13.676c1.312.973,2.665,1.894,4.029,2.793.72.474,1.464,1.363,2.4.707.847-.593.453-1.655.432-2.512-.2-7.981-.015-15.954-.52-23.95-.967-15.306,1.3-30.323,5.573-45.043,5.945-20.471,17.551-37.249,33.477-51.164,4.5-3.936,8.8-8.122,13.718-11.583,4.077-2.869,4.677-2.648,9.264-.324,5.816,2.946,11.875,5.221,18.643,5.213,10.431-.013,20.613-1.175,30.511-4.666a43.95,43.95,0,0,0,9.737-4.794c3.872-2.567,7.351-2.656,11.5-.12,15.944,9.745,31.911,19.477,48.2,28.626,10.558,5.93,15.415,14.829,16.732,26.335.412,3.6,1.039,7.183,1.658,10.758,2.019,11.658,2.264,23.461,2,35.2-.244,10.666-1.734,21.3-2.61,31.958-.163,1.974-.792,5.027.159,5.727,1.626,1.2,3.555-1.06,4.937-2.223,12.749-10.742,28.088-13.61,44.025-15.224a118.214,118.214,0,0,1,48.884,5.283,49.291,49.291,0,0,1,14.571,7.2c2.905,2.169,5.837,4.309,8.84,6.339,7.1,4.8,11.965,11.446,16.254,18.735,9.256,15.73,12.355,32.718,11.356,50.734-.43,7.758-.9,15.484-1.965,23.193-1.869,13.5-7.614,25.232-15.759,35.944-1.644,2.162-3.393,4.248-4.972,6.457-7.69,10.756-18.425,17.865-29.535,24.44-4.35,2.574-8.389,5.621-12.918,7.935a75.112,75.112,0,0,1-15.142,5.652c-9.748,2.569-19.458,5.222-29.4,7.1-6.363,1.2-12.509,3.568-19.045,4.307C341.672,481.176,333.787,482.377,325.776,481.824ZM270.9,447.542l.117-.3-.21.182c1,2.285,1.9,4.621,3.044,6.835a7.12,7.12,0,0,0,3.1,3.6c.446.206.978.6,1.4.029a1.113,1.113,0,0,0,.14-.959c-1.784-3.475-3.611-6.932-6.6-9.567C271.735,447.224,271.24,447.473,270.9,447.542ZM143.039,310.165l.27-.494c-.089.144-.178.289-.268.433,2.45,2.759,5.05,5.07,9.169,4.907a10.966,10.966,0,0,1,4.722,1.2c8.05,3.664,16.671,5.052,25.312,5.866,5.771.544,11.469,2.245,17.3,1.707a118.691,118.691,0,0,1,20.639-.405,20.527,20.527,0,0,0,2.177.039c1.663-.041,2.316-.931,1.835-2.488-1.071-3.462-2.239-6.888-2.3-10.577a1.759,1.759,0,0,0-1.727-1.789c-5.479-.106-10.717-2.343-16.1-2.3-13.014.106-25.562-2.529-38.1-5.452-7.423-1.731-15.108-1.87-22.5-3.793-1.1-.286-1.7.344-1.765,1.43-.108,1.852.465,3.071,2.582,3.411,4.295.692,8.552,1.61,12.835,2.384,3.34.6,4.227,1.277,4.02,3.3-.279,2.721-2.39,2.266-4.127,2.259-2.718-.011-5.436-.2-8.154-.238C146.9,309.536,144.866,308.908,143.039,310.165ZM353.427,422.781c.836-10.194-3.1-24.171-4.461-38.4a12.329,12.329,0,0,0-.693-3.186,145.094,145.094,0,0,1-5.283-15.417c-.422-1.634-1.179-2.351-3.108-1.887-3.515.846-7.108,1.373-10.676,1.992-2.129.369-4.271.661-6.407.987.017,2.585,2.634,3.612,3.443,5.73.192.5.583.925.808,1.418,5.085,11.136,8.847,22.533,8.72,35.042a157.719,157.719,0,0,1-8.127,48.034c-1.133,3.437-2.412,6.833-3.779,10.184-.563,1.381-.3,2.065,1.1,2.264a32.465,32.465,0,0,0,3.788.317c9.114.213,18.076-1.123,27.031-2.607,4.512-.747,8.6-2.935,13.05-3.761a155.686,155.686,0,0,0,18.542-4.3c7.945-2.506,16.178-4.326,23.39-8.754,5.713-3.508,11.229-7.34,16.984-10.775A56.17,56.17,0,0,0,443.225,426.2c3.607-4.546,6.814-9.358,10.281-13.987,6.036-8.059,9.071-17.262,10.9-26.965,1.989-10.559,2-21.252,2.191-31.952a60.976,60.976,0,0,0-3.506-21.352c-2.28-6.548-5.1-13.1-9.668-18.155A72.145,72.145,0,0,0,430.5,296.643c-12.061-5.612-24.727-9.069-38.268-8.629-5.627.182-11.214.735-16.823,1.051a43.158,43.158,0,0,0-21.109,6.348A159.138,159.138,0,0,0,324.6,319.9c-3.623,3.79-6.876,7.935-10.254,11.956a5.229,5.229,0,0,1-4.685,2.2c-2.752-.227-3.526-1.043-2.947-3.831.441-2.12,1.194-4.175,1.782-6.266.182-.646.866-1.342.333-1.958-.719-.832-1.675-.307-2.523-.052-.344.1-.655.316-1,.436a189.187,189.187,0,0,1-29.852,8.393c-2.676.475-5.34,1.019-8.016,1.5-2.057.367-2.385,1.2-1.878,3.378,1.922,8.279,4.021,16.546,4.714,25.057.153,1.887.923,2.524,2.774,2.262a35.43,35.43,0,0,1,9.761-.181,8.806,8.806,0,0,1,7.16,5.127,18.139,18.139,0,0,1,1.808,5.669c.1.713.078,1.448.208,2.155a1.453,1.453,0,0,0,1.546,1.224,1.24,1.24,0,0,0,1.346-1.324,8.881,8.881,0,0,0-.036-1.631c-.952-7.151,5.838-13.7,12.969-13.887a38.569,38.569,0,0,0,6.41-1.117c7.839-1.541,15.475-3.854,23.2-5.824,19.484-4.967,39.226-8.949,58.211-15.8a33.523,33.523,0,0,1,14.493-1.791c2.245.21,2.781,1.482,1.563,3.336a6.046,6.046,0,0,1-1.791,2.009c-3.306,1.878-6.309,4.241-9.872,5.725a162.066,162.066,0,0,1-19.016,6.586c-9.245,2.564-18.561,4.87-27.82,7.385-3.566.969-3.584,1.122-1.827,4.152,2.82,4.863,6.094,9.547,7.471,15.062,3.216,12.87,5.582,25.861,4.316,39.241-.908,9.594-3.543,18.866-5.265,28.308-.481,2.635-1.745,5.132-2.707,7.67-.178.47-.6,1.156-.963,1.191-1.21.118-.756-.959-.758-1.508C353.416,445.517,353.427,436.287,353.427,422.781ZM8.469,366.093c-.141,8.617-.117,16.446,2.626,23.881,5.252,14.24,12.5,27.293,23.445,38.049,2.326,2.286,4.514,4.713,6.866,6.97a43.152,43.152,0,0,0,6.524,5.734c15.213,9.537,30.51,18.828,48.272,23.232,11.8,2.925,23.514,6.115,35.552,7.921,2.3.344,2.74-.044,2-2.059-2.353-6.37-2.835-12.991-3.544-19.693a169.281,169.281,0,0,1,.372-36.247c1.43-13.149,6.619-25.164,11.8-37.155,1.51-3.492,3.021-6.987,4.405-10.53.655-1.678.075-2.766-1.936-2.883a36.567,36.567,0,0,0-8.12.491,4.563,4.563,0,0,0-3.816,3.258,187.83,187.83,0,0,0-9.589,31.137,211.687,211.687,0,0,0-5,48.538,17.571,17.571,0,0,1-.814,5.894c-.463,1.369-1.318,1.047-1.991.316-2.043-2.221-2.684-5.106-3.448-7.894-1.806-6.589-1.249-13.291-1.055-20.016a142.494,142.494,0,0,1,7.923-44.18c1.768-4.953,3.2-10.035,5.951-14.57,1.25-2.057.208-2.48-1.6-2.533-.542-.016-1.081-.135-1.623-.156A207.686,207.686,0,0,1,76.71,356.4a37.056,37.056,0,0,1-9.761-4.685,2.32,2.32,0,0,1-1.158-2.786c.4-1.293,1.513-1.456,2.622-1.442,1.086.013,2.172.147,3.255.264,7.932.857,15.881,1.584,23.79,2.618,12.6,1.647,25.207,3.067,37.932,3.209,3.809.043,7.616.265,11.425.381,4.384.133,8.852.1,12.785-1.958,4.11-2.148,8.418-1.738,12.7-1.876a8.51,8.51,0,0,1,6.332,2.775c2.577,2.61,4.885,5.437,5.087,9.325.107,2.055,1.311,3.224,3.063,3.061,2.761-.257,5.293.875,7.988.8,3.759-.1,4.253-.324,4.036-3.961-.373-6.234.686-12.282,1.88-18.322,1.6-8.082,1.654-8.076-6.462-8.8a18.177,18.177,0,0,0-2.72-.07,64.71,64.71,0,0,1-20.452-2.4,63.178,63.178,0,0,1-11.388-3.629c-1.4-.667-2.027-.422-1.771,1.2a7.929,7.929,0,0,0,.323,1.039c.7,2.31.546,4.352-1.885,5.577-2.365,1.192-3.969.786-6.236-1.538-1.392-1.428-2.683-2.959-4.117-4.342a220.086,220.086,0,0,0-24.8-20.266,221.647,221.647,0,0,0-26.235-16.354c-15.222-7.983-30.152-5.169-45.131.454a8.238,8.238,0,0,0-2.282,1.473c-8.264,6.932-18.106,12.275-22.786,22.825-.721,1.625-2.117,2.94-3.113,4.456A62.1,62.1,0,0,0,9.2,351.691C8.685,356.767,8.738,361.837,8.469,366.093ZM140.03,271.629c0,1.991-.048,3.983.009,5.972.222,7.9-.684,6.688,6.346,9.131,1.027.357,2.063.7,3.118.962,6.867,1.673,14.019,1.923,20.773,4.162,1.435.476,2.114-.408,2.261-1.569.384-3.032,1.337-6.014.987-9.117a8.7,8.7,0,0,1,.476-4.794,1.523,1.523,0,0,1,2.609-.618c1.791,1.4,2.024,3.343,2.064,5.366.056,2.9.043,5.8.086,8.7.019,1.3.113,2.72,1.6,3.141,5.382,1.525,10.758,3.124,16.475,2.7a4.523,4.523,0,0,0,3.526-2.036c5.572-7.091,17.923-10.142,26.226-6.621a5.649,5.649,0,0,1,2.243,1.5c1.929,2.473,4.343,2.752,7.268,2.347,3.883-.538,8.028-.154,10.584,2.967,2.9,3.545,5.94,4.069,9.838,2.545a4.962,4.962,0,0,1,1.063-.224c3.224-.494,3.224-.492,2.492-3.868-4.053-18.693-11.75-36.155-18.389-53.963-4.088-10.966-12.269-19.65-17.563-29.977a6.233,6.233,0,0,0-1.054-1.239c-7-7.613-13.578-15.574-19.864-23.8-3.525-4.611-8.115-8.266-12.644-11.889-1.222-.977-2.685-2.057-4.346-.509-4.889,4.554-10.738,7.837-15.372,12.858-14.509,15.722-24.489,33.656-27.637,54.9A270.272,270.272,0,0,0,140.03,271.629Zm180.193-20.545c.049-4.35-.667-8.681-.742-13-.191-11.106-2.74-21.915-3.623-32.921a9.346,9.346,0,0,0-3.177-6.113,68.728,68.728,0,0,0-14.06-10.149c-12.742-7.2-25.5-14.379-37.363-23-1.771-1.287-2.723-1.182-4.028.318-4.276,4.914-8.546,9.836-12.932,14.651a90.122,90.122,0,0,0-11.32,14.513c-1.889,3.187-1.973,3.254.391,6.179a47.569,47.569,0,0,1,4.189,6.324,57.6,57.6,0,0,0,4.892,7.8,89.208,89.208,0,0,1,14.968,26.322c1.157,3.223,2.49,6.394,3.931,9.5,5.919,12.762,9.915,26.054,11.039,40.115.183,2.288,1.217,2.858,3.119,2.467,4.785-.986,9.544-2.1,14.328-3.089,2.09-.433,2.915-1.522,3.067-3.722.238-3.421.9-6.815,1.466-10.208.186-1.114.8-2.136,2.1-2.092,1.254.042,1.838,1.081,2.1,2.155a12.945,12.945,0,0,1,.214,2.706c.052,2.176,0,4.358.125,6.53.065,1.149.5,2.077,2.039,1.735,4.771-1.058,9.564-2.019,14.331-3.095a2.933,2.933,0,0,0,2.517-3.048C318.253,271.643,320.4,261.456,320.223,251.084ZM245.159,473.5c.17,3.629.343,6.527.43,9.428.076,2.539.053,5.081.077,7.622.007.747.147,1.514.951,1.727s1.34-.41,1.828-.95a12.143,12.143,0,0,0,2.08-4.382c1.892-5.359,2-10.99,2.695-16.546q1.824-14.547,4.227-29.019c.416-2.5.014-3.94-2-5.532a16.148,16.148,0,0,1-3.818-5.208,3.844,3.844,0,0,1,1.17-5.29c1.747-1.144,3.185-.757,5.049,1.36,2.038,2.317,1.925,2.26,3.252-.39,1.084-2.164,1.188-3.833-.59-5.836-2.276-2.563-4.319-5.435-4.99-8.938-.275-1.437-.224-3.036,1.415-3.75s2.714.262,3.572,1.6c1.47,2.287,3.006,4.532,4.468,6.824.993,1.555,1.907,1.622,3.513.557,4.041-2.683,7.812-5.977,12.9-6.662,1.129-.152,1.434-.98,1.487-1.928a19.494,19.494,0,0,0,.019-3.259,171.392,171.392,0,0,1-.614-26.633c.234-5.542-.251-5.976-5.741-5.516-.543.045-1.088.091-1.623.187-6.56,1.179-13.113,2.395-19.68,3.531-1.507.261-2.338,1-2.27,2.5.168,3.686-.907,7.2-1.5,10.764-.959,5.728-.448,11.594-1.887,17.27a64,64,0,0,0-2.049,12.326c-.489,9.228-1.1,18.454-1.366,27.689C245.9,456.108,244.339,465.128,245.159,473.5Zm-62.341-65.658c-.742,3.282,2.181,3.834,3.843,5.288,1.4,1.22,2.553,1.14,3.535-.475a26.888,26.888,0,0,1,5.435-6.039c2.564-2.261,5.13-2.943,6.254-1.815,1.033,1.037.531,4.048-1.153,6.5-1.534,2.237-3.145,4.422-4.683,6.656-.388.562-1.046,1.311-.439,1.921,1.256,1.265,1.915,3.471,3.763,3.7,1.642.2,1.778-1.953,2.6-3.044a19.855,19.855,0,0,1,1.459-2.278c1.358-1.353,2.434-3.116,4.943-2.675,2.553.448,2.735,2.653,3.693,4.277a3.721,3.721,0,0,1-.111,3.664c-1.379,2.715-2.264,5.769-5.182,7.44-.964.552-1.73,1.266-1.03,2.626,2.512,4.876,3.655,10.19,4.845,15.486.124.549.441,1.146,1.033.994.3-.076.547-.779.626-1.233a232.873,232.873,0,0,0,3.639-43.241,139.536,139.536,0,0,1,.987-20.614c.812-5.983.811-5.809-5.233-6.77-6.416-1.02-13.033-.463-19.308-2.571-1.718-.577-2.232.9-2.562,2.083-1.6,5.757-3.246,11.508-4.614,17.322C184.167,399.264,183.584,403.574,182.818,407.842Zm69.552-41.8c2.821.171,5.422-.776,8.109-1.154,1.6-.226,2.193-.971,1.664-2.608a87.775,87.775,0,0,1-2.649-8.869c-3.432-16.4-9.17-32.029-15.4-47.512a6.939,6.939,0,0,0-4.617-4.171c-7.537-2.625-9.161-1.471-9.553,6.588a40.721,40.721,0,0,0,2.047,14.462c2.584,8.1,4.948,16.322,8.24,24.14,2.305,5.471,5.57,10.576,7.487,16.252C248.538,365.659,249.7,366.988,252.37,366.046Zm56.621-59.784c-1.289.073-1.831.12-2.375.131-1.138.024-2.293-.142-2.682-1.365a2.3,2.3,0,0,1,1.023-2.355c2.181-1.927,4.421-3.727,7.312-4.554a19.091,19.091,0,0,0,3.987-1.678,1.776,1.776,0,0,0,.562-1.965,1.335,1.335,0,0,0-1.637-1.031c-1.262.115-2.512.377-3.762.605a171.092,171.092,0,0,0-21.077,5.336c-7.959,2.53-15.933,4.909-24.246,6.05-2.488.341-4.877,1.371-7.326,2.027-2.188.587-2.315,2.035-1.623,3.781,1.4,3.535,2.875,7.039,4.279,10.572.6,1.515,1.805,1.7,3.12,1.433,2.488-.5,4.95-1.124,7.429-1.671,11.854-2.618,23.645-5.531,35.627-7.544a11.359,11.359,0,0,0,9.079-6.885c.629-1.42-.014-2.1-1.448-1.869C312.907,305.646,310.632,306.344,308.991,306.262ZM218.608,475.423c.707,4.2.215,8.925.376,13.634.029.846-.146,1.913.847,2.375,1.178.548,2.077-.265,2.924-.906a3.977,3.977,0,0,0,1.46-2.814c.38-2.867,1.145-5.662,1.168-8.6.078-9.757-.306-19.5.154-29.28.484-10.276-.052-20.605.78-30.913.946-11.715.464-23.551,3.007-35.124.456-2.076-.258-2.96-2.225-3.47-3.162-.819-4.223-.286-4.852,2.993-2.164,11.27-1.43,22.717-2.041,34.083-.584,10.863.341,21.743-.589,32.622C218.911,458.289,218.93,466.62,218.608,475.423Zm72.179-79.355c0,1.933.044,3.925-.013,5.913-.047,1.638.679,2.31,2.283,2.153a19.226,19.226,0,0,1,2.173-.084c9.418.155,18.637-2.5,28.085-2a14.209,14.209,0,0,0,2.662-.484c1.628-.239,2.039-1.217,1.779-2.7-1.14-6.5-4.008-12.368-6.637-18.323a1.035,1.035,0,0,0-1.741-.412c-5.9,4.452-12.909,5.369-19.918,6.416-2.631.394-5.912-.464-7.743,1.569S291.459,393.366,290.787,396.068ZM217.98,336.586c-2.8-.161-4.431-.263-6.058-.344-2.169-.109-3.476.938-3.711,3.073-.847,7.712-1.621,15.431-2.447,23.144-.211,1.971.514,3.123,2.571,3.287,3.247.259,6.5.487,9.739.805,2.527.248,3.768-1.05,3.935-3.351.161-2.23,1.162-4.166,1.769-6.237,1.625-5.539,3.463-11.025,4.846-16.623,1.124-4.552.767-4.732-3.706-4.317C222.218,336.274,219.513,336.463,217.98,336.586Zm17.311,137.391c0,2.354.119,4.716-.033,7.061a10.076,10.076,0,0,0,1.869,6.114c.183.294.528.713.775.7.583-.037.745-.6.759-1.109.074-2.711.017-5.429.194-8.132q1.907-28.964,3.9-57.922.987-14.361,2.118-28.711c.272-3.418.8-6.816,1.179-10.227a1.852,1.852,0,0,0-.787-1.9,2.035,2.035,0,0,0-2.5.393,3.379,3.379,0,0,0-1.15,1.75c-.621,6.486-3.158,12.637-3.039,19.278.13,7.236.346,14.539-.436,21.709C236.286,439.944,236.2,456.972,235.291,473.977Zm-54.109-98.928c-.078-1.258-1.137-1.39-1.877-1.673-5.221-2-10.583-3.622-15.563-6.234-3.2-1.679-4.26-1.506-6.156,1.4a80.66,80.66,0,0,0-7.381,13.2c-.879,2.137-.686,2.514,1.682,2.606,5.418.21,10.841.411,16.261.37,2.83-.022,6.011,2.453,8.232.438,1.974-1.792,2.645-5.029,3.857-7.644C180.616,376.7,180.885,375.832,181.182,375.049ZM220.5,174.067c-3.266-.82-7.029.572-10.816.136a1.834,1.834,0,0,0-1.921.629c-.438.764.262,1.388.675,1.913,4.288,5.447,9.783,9.625,14.95,14.151,1.559,1.365,2.189.227,2.837-.9a88.654,88.654,0,0,1,12.464-16.4,6.968,6.968,0,0,0,.992-1.277c.3-.531.2-1.084-.515-1.06a13.279,13.279,0,0,0-2.669.391C231.4,172.879,226.329,174.247,220.5,174.067ZM229.619,365.7c-.061,1.41.1,2.556,1.826,2.817,2.537.382,4.951,1.04,6.88,2.931a1.538,1.538,0,0,0,2.018-.064c.5-.417,1.111-.909.752-1.82-2.458-6.237-4.878-12.489-7.341-18.725a1.239,1.239,0,0,0-.788-.634c-.884-.179-.688.609-.768,1.048C231.323,356.067,230.475,360.885,229.619,365.7Zm-15.687-71.726c-.342,0-.885.031-1.423-.006-1.468-.1-3.576-.2-3.8,1.178-.323,1.966,2.09,1.157,3.209,1.764a9.254,9.254,0,0,0,2.6.7c1.59.318,3.2.557,4.787.878,1.994.4,2.653-1.151,2.957-2.432.38-1.6-1.272-1.387-2.2-1.517C218.1,294.264,216.11,294.164,213.932,293.975ZM278.4,438.135c1.272-.065,2.59.153,3.125-.925.778-1.565-.888-2.029-1.7-2.806a13.021,13.021,0,0,0-2.5-1.98c-1.839-1.037-5.635-.357-6.172,1.449-.58,1.951,2.038,1.763,3.025,2.8A4.829,4.829,0,0,0,278.4,438.135Zm-98.126-3.669c-.105-.323-.127-.824-.337-.921a1.139,1.139,0,0,0-.945.28,21.877,21.877,0,0,0-6.641,10.269,1.334,1.334,0,0,0,.794,1.75,1.125,1.125,0,0,0,1.405-.462A47.215,47.215,0,0,0,180.27,434.466Zm9.316,13.413a22.519,22.519,0,0,0-1.386-8.108.9.9,0,0,0-.695-.523,1.116,1.116,0,0,0-.813.567c-1.092,3.442.061,6.648,1.152,9.843.066.193.636.375.894.3a1.161,1.161,0,0,0,.623-.745A8.374,8.374,0,0,0,189.586,447.879ZM226.193,151.9c-5.139.389-10.1-1.77-14.834-4.593-3.124-1.862-4.069-4.984-4.4-8.321q-.57-5.678-.855-11.381a4.135,4.135,0,0,0-1.745-3.675c-6.409-4.524-8.146-11.215-8.267-18.564-.063-3.811-.026-7.624.008-11.436a2.3,2.3,0,0,0-2.067-2.639,36.733,36.733,0,0,1-4.139-1.339c-4.057-1.37-6.359-4.276-6.553-8.461a10.165,10.165,0,0,1,5.824-10.2,4.555,4.555,0,0,1,1.534-.53c2.986-.3,2.62-1.948,2.1-4.21-1.522-6.578-2.058-13.221-.163-19.862,2.27-7.955,6.979-14.21,13.354-19.321.14-.112.318-.176.466-.28,2.225-1.555,4.992-2.709,6.527-4.778,1.695-2.283-.519-5.143-.641-7.825-.375-8.23,2.919-12.5,10.994-13.959,5.781-1.047,11.135-.713,16.1,2.81,5.045,3.577,6.934,7.208,5.143,13.019-1.2,3.88-.134,5.638,3.068,7.759,8.173,5.416,13.638,12.915,15.319,22.814a33.142,33.142,0,0,1-.4,12.969c-.279,1.237-.765,2.44-.924,3.688-.538,4.194-1.753,8.612,3.374,11.157a7.009,7.009,0,0,1,1.9,1.93c5,5.962,3.41,13.253-3.641,16.7a10.064,10.064,0,0,1-2.517,1.017c-2.35.419-3.018,2-3.622,4.09-1.954,6.772-3.4,13.785-7.977,19.495a7.721,7.721,0,0,0-1.265,4.106,45.489,45.489,0,0,0-.039,13.565c.725,4.24-.875,7.278-4.141,9.921A26.655,26.655,0,0,1,226.193,151.9ZM201.58,91.058c-.452,6.1.574,11.491,1.325,16.857a14.493,14.493,0,0,0,7.234,10.864A29.621,29.621,0,0,0,223.97,123a25.1,25.1,0,0,0,13.248-2.323c5.545-2.822,8.352-7.917,10.153-13.539A112.47,112.47,0,0,0,251.4,87.507c.148-1.116.248-2.22,1.6-2.479,1.272-.245,2.582-.334,3.429.933.5.744.8,1.618,1.289,2.367a1.467,1.467,0,0,0,1.846.64,6.892,6.892,0,0,0,4.654-4.909c.709-2.426-.714-3.8-2.439-4.925a26.571,26.571,0,0,0-4.3-2.28c-6.872-2.861-6.412-2.316-5.886-10.021.013-.179.077-.355.1-.535.33-2.8-.026-3.548-2.7-4.144-1.773-.4-3.626-.581-5.175-1.528-5.692-3.482-12.224-5.618-17.006-10.558a1.8,1.8,0,0,0-2.776-.291c-6.438,4.758-13.131,9.042-21.062,10.971-2.442.594-3.595,2.291-3.457,4.828a8.228,8.228,0,0,0,.1,2.165c.919,2.641-.343,4.037-2.542,5.178a54.446,54.446,0,0,0-6.043,3.642c-2.042,1.421-2.451,5.493-.908,7.344,1.032,1.238,2.58,1.233,3.95,1.589,1.83.474,1.847-1.232,2.473-2.227a2.812,2.812,0,0,1,3.346-1.193c1.405.415,1.7,1.723,1.695,3.081C201.57,87.331,201.58,89.507,201.58,91.058Zm19.115,40c-4.414-.236-4.574-.115-4.863,3.64-.138,1.805-.218,3.615-.278,5.424-.045,1.362.23,2.446,1.922,2.716,4.472.715,8.863,1.58,13.411.081,7.479-2.464,8.411-4.115,5.93-11.416-.527-1.551-1.473-2.031-2.878-1.537A26.053,26.053,0,0,1,220.7,131.056Zm121.379,35.593c-.285-8.865,1.129-17.446,7.749-24.429a17.177,17.177,0,0,0,3.33-6.193c1.413-3.91,3.114-7.764,4.034-11.792,1.4-6.124,4.264-11.555,7.248-16.918,2.9-5.217,6.259-10.186,9.473-15.227a8.9,8.9,0,0,1,2.164-2.409c5.79-4.218,9.986-1.376,10.212,3.771.055,1.243.335,2.479.275,3.762-.175,3.754-.144,3.777,3.721,5.116a4.638,4.638,0,0,1,2.418,2.052,19.892,19.892,0,0,1,3,16.04,25.705,25.705,0,0,1-2.247,6.093c-1.7,3.151-2.576,5.959.958,8.492a3.252,3.252,0,0,1,1.207,2.923c-.244,2.9,1.816,3.58,3.953,4.283,7.78,2.56,10.68,7.69,7.921,15.435-4.339,12.183-9.852,23.869-19.486,32.867-6.22,5.809-13.719,9.36-22.52,9.219a12.457,12.457,0,0,1-5.214-1.384,52.024,52.024,0,0,1-11.234-7.552,13.719,13.719,0,0,1-4.251-6.792A59.933,59.933,0,0,1,342.074,166.649Zm30.39,24.658a19.221,19.221,0,0,0,10.165-3.413c6.5-4.41,9.664-11.177,12.5-18.051,1.657-4.011,2.732-8.273,4.972-12.039,1.171-1.969,1.218-4.162,1.47-6.291.218-1.845-.059-3.651-2.334-4.326-2.464-.731-4.661-.189-5.455,2.122-1.217,3.54-3.467,6.325-5.6,9.252-.68.936-1.852,2.028-.3,3.231,1.484,1.148,2.808.537,3.808-.651a17.788,17.788,0,0,0,1.92-3.26c.589-1.124,1.033-2.327,1.661-3.426.438-.765,1.027-1.615,2.134-1.073.745.364.786,1.065.688,1.85a20.338,20.338,0,0,1-5.208,11.706c-2.038,2.187-4.1,2.382-6.767.668-1.843-1.187-3.489-2.2-5.949-2.03-3.1.214-5.422-1.933-7.272-4.192-1.6-1.95-.718-4.1.26-6.139a5.914,5.914,0,0,0,.411-2.1c.036-.512-.113-1.045-.838-1.018a5.93,5.93,0,0,0-5.346,5.447,57.515,57.515,0,0,1-.27,5.971,3.132,3.132,0,0,1-2.855,2.873c-1.875.1-2.35-1.609-2.524-2.992-.222-1.774.482-3.793-.119-5.358-.718-1.869-3.533-1.245-4.9-2.824-1.356-1.562-1.289-2.758.47-4a13.505,13.505,0,0,1,5.071-1.852c5.525-1.2,9.027-5.152,12.677-8.945a3.494,3.494,0,0,0,1.023-2.444,2.133,2.133,0,0,0-.237-1.028c-.43-.766-.985-.21-1.273.074-2.873,2.824-6.377,3.344-10.276,3.815-6.773.818-11.9,4.728-13.689,11.509-1.861,7.063-2.5,14.3,1.052,21.216a45.661,45.661,0,0,1,2.374,4.888c4.4,11.846,5.507,11.131,17.462,12.754C371.738,191.284,372.1,191.288,372.464,191.307Zm7.92-91.891c-.106-.731.374-1.981-.6-2.24-1.027-.273-1.291,1.018-1.723,1.759-4.921,8.458-10.235,16.71-13.558,26q-1.464,4.1-3,8.163c-.367.963-1.673,1.877-1.009,2.835.639.922,2.055.4,3.081.211a36.267,36.267,0,0,0,4.187-1.191,5.081,5.081,0,0,0,3.811-4.733c.727-6.558,2.928-12.682,5.549-18.707C378.772,107.7,380.222,103.766,380.384,99.416Zm8.809,16.652a27.592,27.592,0,0,0-.527-4.208c-.347-1.437-1.337-2.068-2.827-.994-2.783,2-4.266,4.824-5.278,7.994-.767,2.405-2.176,4.751-2.307,7.177-.151,2.795,3.375,3.945,4.173,6.611.508,1.7,1.619,1.195,2.186.042C387.015,127.812,389.079,122.811,389.193,116.068Zm-10.626,43.111a5.278,5.278,0,0,0,1.129-.909c2.985-4.1,6.1-8.129,8.432-12.658a19.858,19.858,0,0,0,1.481-4.053,1.687,1.687,0,0,0-2.073-2.184,5.862,5.862,0,0,0-2.3,1.343c-5.953,4.273-6.627,10.9-7.77,17.31C377.385,158.5,377.83,159.022,378.567,159.179Zm-251.14,8.295a57.883,57.883,0,0,1-2.975,17.612,13.716,13.716,0,0,1-4.059,6.286,51.126,51.126,0,0,1-9.79,6.82c-7.164,3.876-14.191,2.081-20.729-1.349a44.452,44.452,0,0,1-18.75-19.051c-3.148-5.922-6.418-11.755-8.727-18.083a16.643,16.643,0,0,1-1.173-7.975c.576-4.284,2.723-7.614,7.13-8.632,3.254-.752,5.98-1.478,5.652-5.695a3.3,3.3,0,0,1,1.381-2.232c2.97-2.273,2.314-4.756.877-7.574-2.607-5.112-4.022-10.421-2.4-16.242a28.755,28.755,0,0,1,2.875-6.417c.765-1.359,1.979-2.586,3.415-2.307,3.919.76,2.941-1.8,2.794-3.77a18.259,18.259,0,0,1,.584-6.456c1.123-3.908,3.7-5.086,7.511-3.525a9.1,9.1,0,0,1,4.534,3.749c4.74,7.922,10.286,15.413,13.972,23.9,2.443,5.623,3.99,11.642,5.843,17.514,1.046,3.318,2.219,6.638,4.582,9.173,5.709,6.125,7.322,13.545,7.455,21.535C127.44,165.659,127.427,166.567,127.427,167.474Zm-19.492-6.206a26.382,26.382,0,0,1-.328,3.306,2.623,2.623,0,0,1-2.03,2.286c-1.532.269-2.27-.764-2.935-1.923a5.041,5.041,0,0,1-.485-2.629c-.008-1.814,0-3.632-.11-5.442-.1-1.675-3.992-4.48-5.527-4.02a1.064,1.064,0,0,0-.6.8,7.734,7.734,0,0,0,.324,2.115c1.626,5.324-.575,9.826-5.882,10.141a16.808,16.808,0,0,0-7.864,2.732,4.391,4.391,0,0,1-5.516-.7,20.028,20.028,0,0,1-5.6-12.1c-.087-.743,0-1.527.755-1.838a1.426,1.426,0,0,1,1.816.784c.772,1.434,1.435,2.926,2.174,4.377a6.891,6.891,0,0,0,2.656,3.342,2.38,2.38,0,0,0,2.993-.372c.8-.756.541-1.595-.072-2.4a45.988,45.988,0,0,1-6.49-10.631c-.723-1.8-2.764-2.162-4.739-1.55a3.3,3.3,0,0,0-2.61,3.643c.186,2.323.153,4.708,1.346,6.849a84.2,84.2,0,0,1,5.153,12.545,47.144,47.144,0,0,0,6.46,11.931c6.846,9.275,17.786,12.023,28.133,7.167,1.624-.762,2.41-2.133,3.327-3.46,1.775-2.57,2.456-5.655,3.862-8.384a34.059,34.059,0,0,0,3.672-20.928c-1.226-9.348-7.754-14.994-15.874-15.8-3.481-.344-6.253-1.1-8.707-3.432a4.552,4.552,0,0,0-1.4-.614,8.112,8.112,0,0,0-.3,2.078c.126,1.138,1.045,1.859,1.755,2.682,3.514,4.075,7.614,7.248,12.987,8.447a11.3,11.3,0,0,1,4.463,1.9c1.4,1.043,1.254,2.132.19,3.164a5.781,5.781,0,0,1-2.646,1.775C107.544,157.553,107.087,159.023,107.935,161.268ZM89.08,100.579a37.637,37.637,0,0,0,3.567,12.23c2.354,5.335,4.472,10.781,4.994,16.573.385,4.268,2.569,6.1,6.345,6.854,1.243.247,2.472.572,3.722.771a6.53,6.53,0,0,0,1.581-.128,4.035,4.035,0,0,0-.279-1.448,31.022,31.022,0,0,1-3.142-7.487c-3.469-10.6-9.532-19.876-15.009-29.452a.909.909,0,0,0-.362-.39c-.308-.129-.7-.337-.951-.236s-.405.536-.446.845A15.649,15.649,0,0,0,89.08,100.579Zm-6.588,10.2c-1.534,0-1.667,1.283-1.841,2.209-1.417,7.542,1.173,14.271,4.478,20.8.4.785,1.371,1.236,1.833-.244a11.133,11.133,0,0,1,3.429-4.8,2.1,2.1,0,0,0,.841-2.369c-1.338-3.737-2.568-7.524-4.154-11.155A9.755,9.755,0,0,0,82.492,110.774ZM81.069,139.8c-1.4.346-1.5,1.252-1.219,2.491,1.027,4.571,3.8,8.225,6.558,11.761,1.523,1.953,1.9,5.114,5.06,5.626,1.04-2.747-.554-5.233-.808-7.852-.5-5.118-4.018-8.34-7.553-11.51A2.5,2.5,0,0,0,81.069,139.8ZM171.262,28.345c.953-1.683-.612-2.664-1.424-3.712-2.033-2.623-5.008-4.106-7.733-5.839-1.859-1.183-3.74-.822-5.36.829-1.674,1.706-.852,3.588.072,4.914a22.249,22.249,0,0,0,8.25,6.831,3.1,3.1,0,0,0,1.016.282A5.991,5.991,0,0,0,171.262,28.345Zm105.019,1.612c-.025,3.188,2.246,4.762,4.934,3.283a19.247,19.247,0,0,0,7.769-8.074,3.422,3.422,0,0,0-2.978-4.932C282.279,20.424,276.309,26.393,276.281,29.957ZM378.218,240.614a15.316,15.316,0,0,0,7.5-8.917c.731-2.042-.552-4.5-2.506-5.53a2.478,2.478,0,0,0-3.423.556,24.986,24.986,0,0,0-4.76,11.373,2.335,2.335,0,0,0,2.058,2.7A3.978,3.978,0,0,0,378.218,240.614ZM151.85,58.183c-.6,1.524.59,3.62,2.744,4.7a12.559,12.559,0,0,0,7.862,1.356,4.507,4.507,0,0,0,3.514-2.97c.409-1.326-.889-2.708-2.188-3.413a14.82,14.82,0,0,0-7.458-2.283A3.943,3.943,0,0,0,151.85,58.183Zm145.2.912a19.484,19.484,0,0,0-7.312,4.379c-1.3,1.232-1.785,2.668-.683,4.319a3.439,3.439,0,0,0,4.667,1.342,15.928,15.928,0,0,0,6.74-5.99,5.761,5.761,0,0,0,.51-1.287A3.066,3.066,0,0,0,297.051,59.1Zm102,183.982c.783-.74,1.625-1.666.892-2.812-.863-1.349-1.836-3.043-3.778-2.444a20.688,20.688,0,0,0-7.577,4.037c-1.28,1.115-1.066,2.624-.57,4.024.394,1.11,1.283,1.7,2.933,1.656A21.311,21.311,0,0,0,399.054,243.077ZM96.445,248.726c.26-2.006-2.625-3.938-5.993-4.017-.179,0-.358-.041-.536-.036-2.565.063-4.718,1.571-4.839,3.383-.156,2.347,2.24,4.5,5.039,4.53C93.3,252.62,96.168,250.868,96.445,248.726Zm1.616-13.5c1.638,1.452,2.61,1.352,4.045-.33,1.484-1.74,1.464-3.435.417-5.453-1.1-2.114-2.062-4.232-4.651-4.758a1.84,1.84,0,0,0-2.133,1.276c-.357,1.006-.537,2.075-.824,3.239A10.41,10.41,0,0,0,98.061,235.222ZM418.151,387.3c-.83-.578-1.663.218-2.413.718a22.67,22.67,0,0,0-3.177,2.069c-3.407,3.241-6.743,3.423-10.7.733-3.795-2.578-8.022-2.789-12.391-.936-6.223,2.638-9.024,8.037-11.471,13.73-.541,1.259.349,2.24,1.695,1.8A13.857,13.857,0,0,0,384,403.208c3.592-2.866,7.07-3.484,11.509-1.466,6,2.726,12,1.647,17.51-1.967,3.578-2.348,5.662-5.532,5.553-9.941C418.641,388.942,418.912,387.83,418.151,387.3Zm-20.064-68.823a80.053,80.053,0,0,0,1.864-12.257,2.863,2.863,0,0,0-2.251-3.266c-1.748-.392-2.736.849-3.223,2.241a38.968,38.968,0,0,0-1.243,5.224c-.583,2.9-.728,2.978-3.178,1.205-1.459-1.055-2.82-2.272-4.367-3.173-2.562-1.492-4.259-1.238-5.783.571-1.42,1.686-1.439,3.676.567,5.787,3.2,3.363,6.318,7.158,11.788,5.96C395,321.847,397.414,320.948,398.087,318.477ZM48.533,396.465c2.222,4.29,5.654,5.867,10.215,5.334a12.474,12.474,0,0,0,5.2-1.363c2.748-1.655,5.454-1.159,8.282.093,3.163,1.4,5.9,3.486,8.929,5.07a2.019,2.019,0,0,0,1.534.246c.855-.45.352-1.257.144-1.9-2.341-7.212-10.139-13.2-17.832-12.581-4.733.379-7.574-1.388-9.99-4.86-.823-1.183-1.606-2.4-2.316-3.653a36.234,36.234,0,0,1-4.022-11.159c-.172-.9-.665-1.781-1.711-1.767-.766.011-1.131.759-1.454,1.435a19.1,19.1,0,0,0-1.412,7.876A38.368,38.368,0,0,0,48.533,396.465ZM64.3,327.482c.31,1.906,1.555,3.731,3.585,3.311,5.152-1.064,10.217-2.532,13.766-6.942.879-1.093.547-1.774-.088-2.827-1.682-2.787-4.1-3.375-7.006-2.69-1.818.428-2.8,0-2.716-2.047a4.605,4.605,0,0,0-.824-2.525c-.763-1.311-1.525-2.642-3.238-2.292a3.253,3.253,0,0,0-2.691,3.044c-.221,2.708-1.131,5.343-.841,7.674A35.464,35.464,0,0,0,64.3,327.482ZM233.331,99.061c.55-.72.241-1.372-.071-2-.92-1.843-2.567-2.352-4.454-.756-3.109,2.629-6.1,3.659-9.661,1.029a1.381,1.381,0,0,0-1.929.2,1.953,1.953,0,0,0-.392,2c.755,2.849,4.057,4.962,8.141,4.868C228.337,104.2,231.063,102.026,233.331,99.061Zm-8.942-20.305c0-.989-.358-1.892-1.359-2.062-1.072-.182-1.533.791-1.837,1.62-.561,1.526-1.027,3.089-1.5,4.646-1.829,6.008-.272,8.069,5.98,7.931.18,0,.362.019.54,0,2.385-.22,5.086-2.227,4.693-3.7-.631-2.357-2.494-2.909-4.7-2.474-2.567.508-2.724-.774-2.168-2.734a12.117,12.117,0,0,0,.274-1.886C224.349,79.478,224.388,79.117,224.389,78.756Zm-6.067-7.432a1.788,1.788,0,0,0,.026-2.022,1.6,1.6,0,0,0-1.982-.29c-2.661.985-5.115,1.269-7.64-.708-1.624-1.273-3.055-.217-3.013,1.892.065,3.31,2.293,5.176,6.341,5.216C215.179,75.785,216.952,73.854,218.322,71.324Zm21.313-3.116c-2.811.245-5.511.954-8.333-.583-1.253-.683-2.137,1.062-2.2,2.337-.106,2.259,2.443,4.5,5.062,4.667,2.851.183,6.929-2.485,7.1-4.645C241.105,69.033,240.682,68.116,239.635,68.208Zm-14.992,43.36a2.159,2.159,0,0,0-2.012,2.17,2.679,2.679,0,0,0,2.732,2.661c1.346-.247,1.4-1.463,1.806-2.418C226.743,112.726,226.019,111.566,224.643,111.568Z"/></g></g></svg>