<svg width="148" height="51" viewBox="0 0 148 51" fill="none" xmlns="http://www.w3.org/2000/svg">
<g clip-path="url(#clip0_889_188)">
<path d="M25.154 0.308594H0V50.5694H25.154C37.7311 50.5694 50.3013 39.3197 50.3013 25.4423C50.3013 11.565 37.7311 0.308594 25.154 0.308594ZM25.154 36.8601C22.8781 36.8601 20.6532 36.19 18.7608 34.9347C16.8684 33.6794 15.3935 31.8951 14.5225 29.8076C13.6515 27.72 13.4236 25.423 13.8677 23.2068C14.3117 20.9907 15.4077 18.9551 17.017 17.3573C18.6264 15.7596 20.6768 14.6715 22.909 14.2307C25.1413 13.7899 27.4551 14.0161 29.5578 14.8808C31.6605 15.7455 33.4577 17.2098 34.7222 19.0885C35.9866 20.9673 36.6615 23.1761 36.6615 25.4356C36.6615 28.4656 35.4492 31.3714 33.2911 33.5139C31.133 35.6564 28.206 36.8601 25.154 36.8601Z" fill="#FF5D44"/>
<path d="M74.9068 0.430096C80.8704 0.430096 83.9368 4.03215 83.9368 8.9581V13.38C83.9368 18.3194 80.8772 21.908 74.9136 21.908H65.4368V0.430096H74.9068ZM78.6163 8.93122C78.6163 6.19607 77.1609 4.75794 73.9524 4.75794H70.737V17.5802H73.9524C77.1609 17.5802 78.6163 16.1353 78.6163 13.4069V8.93122ZM100.86 17.9162H93.0548L91.8499 21.908H86.5294L94.2597 0.403215H99.675L107.405 21.908H102.085L100.86 17.9162ZM94.3409 13.6824H99.5599L96.9809 5.18804L94.3409 13.6824ZM124.748 0.430096V4.8789H118.906V21.908H113.592V4.8789H107.751V0.430096H124.748ZM138.09 22.3381C131.537 22.3381 128.166 18.1648 128.166 12.5467V9.78469C128.159 4.17328 131.53 0 138.09 0C144.649 0 148.007 4.17328 148.007 9.78469V12.5467C148 18.1447 144.629 22.3381 138.09 22.3381ZM138.09 4.38833C134.996 4.38833 133.48 6.44472 133.48 9.50916V12.8222C133.48 15.8934 134.996 17.9498 138.09 17.9498C141.183 17.9498 142.693 15.8934 142.693 12.8222V9.50916C142.686 6.44472 141.17 4.38833 138.09 4.38833ZM74.5954 46.6453C77.4385 46.6453 78.7991 44.8039 78.8938 42.6534H83.8082C83.7473 47.1963 80.3763 51 74.6563 51C67.982 51 64.7734 46.8267 64.7734 41.2422V38.4197C64.7734 32.8352 67.982 28.6619 74.6563 28.6619C80.3763 28.6619 83.7473 32.4655 83.8082 37.0084H78.8938C78.7991 34.8647 77.4385 33.0233 74.5954 33.0233C71.3869 33.0233 70.0872 35.1402 70.0872 38.1778V41.4908C70.0872 44.5284 71.3869 46.6453 74.5954 46.6453ZM104.786 29.092H109.659V50.5968H104.562V39.2194L101.178 45.7851H96.9741L93.5896 39.2194V50.5699H88.4924V29.0651H93.4136L99.0996 40.7583L104.786 29.092ZM123.198 51C118.006 51 114.513 48.5471 114.513 44.2193V43.6346H119.61V44.0647C119.61 45.8724 120.788 46.9813 123.225 46.9813C125.418 46.9813 126.873 46.0875 126.873 44.4343C126.915 43.9898 126.785 43.5461 126.51 43.193C126.235 42.8399 125.835 42.6038 125.391 42.5325L119.976 41.1884C116.591 40.3618 114.878 38.8901 114.878 35.3889C114.878 31.1215 117.938 28.6686 123.069 28.6686C127.916 28.6686 131.009 31.2761 131.009 35.2074V35.7249H126.095V35.362C126.095 33.9171 125.289 32.7209 123.069 32.7209C121.214 32.7209 120.037 33.3929 120.037 34.8983C120.003 35.3107 120.128 35.7205 120.387 36.0449C120.646 36.3692 121.019 36.5839 121.431 36.6455L127.178 38.1845C130.644 39.0984 131.998 40.9935 131.998 43.9706C131.998 48.2716 128.18 51 123.198 51Z" fill="#FF5D44"/>
</g>
<defs>
<clipPath id="clip0_889_188">
<rect width="148" height="51" fill="white"/>
</clipPath>
</defs>
</svg>
