<?xml version="1.0" encoding="utf-8"?>
<!-- Generator: Adobe Illustrator 23.0.3, SVG Export Plug-In . SVG Version: 6.00 Build 0)  -->
<svg version="1.1" id="Layer_1" xmlns="http://www.w3.org/2000/svg" xmlns:xlink="http://www.w3.org/1999/xlink" x="0px" y="0px"
	 viewBox="0 0 935.493 137" style="enable-background:new 0 0 935.493 137;" xml:space="preserve">
<path style="fill:#0FA3B1;" d="M288.2,68.5c0-37.8-31.9-68.5-71-68.5c-3.6,0-7.3,0.2-10.9,0.8c-30.4,4.3-50.8,26.2-62.2,43
	C132.7,27,112.3,5.1,81.9,0.8C78.3,0.3,74.6,0,71,0C31.8,0,0,30.7,0,68.5S31.9,137,71,137c3.6,0,7.3-0.2,11-0.8
	c30.4-4.4,50.8-26.3,62.2-43.1c11.4,16.8,31.8,38.7,62.2,43.1c3.6,0.5,7.3,0.8,11,0.8C256.3,137,288.2,106.3,288.2,68.5z
	 M78.4,112.2c-2.5,0.4-5,0.5-7.5,0.5c-25.8,0-46.7-19.9-46.7-44.2c0-24.4,21-44.2,46.8-44.2c2.5,0,5,0.2,7.5,0.5
	c28.7,4.1,46.2,32.4,52.2,43.7C124.6,79.9,107,108.1,78.4,112.2z M209.7,112.2c-28.7-4.1-46.3-32.4-52.2-43.7
	c5.9-11.3,23.5-39.6,52.2-43.7c2.5-0.3,5-0.5,7.5-0.5c25.8,0,46.7,19.9,46.7,44.2c0,24.4-21,44.2-46.7,44.2
	C214.7,112.7,212.2,112.5,209.7,112.2z M51.3,61.8H94v13.7H51.3V61.8z M221.9,61.8h14.4v13.8h-14.4V90h-13.8V75.6h-14.4V61.8h14.4
	V47.4h13.8V61.8z M687.087,24.368h67.727v18.046h-22.947v52.132h22.947v18.268h-67.727V94.546h22.724V42.414h-22.724V24.368z
	 M897.397,23.254L897.397,23.254c-26.734,0-36.983,19.605-36.983,46.34c0,29.185,11.585,44.557,37.205,44.557
	c28.517,0,37.874-20.051,37.874-45.448C935.271,34.839,922.349,23.254,897.397,23.254z M897.397,96.328
	c-12.699,0-13.813-8.911-13.813-26.734c0-21.61,2.005-28.517,13.813-28.517c12.922,0,14.704,6.015,14.704,27.625
	C911.878,88.976,910.096,96.328,897.397,96.328z M825.437,24.368h20.274v88.446h-22.056l-30.299-56.588l0.223,56.588h-20.719V24.368
	h23.838l28.739,53.023V24.368z M537.597,24.368h-28.962v88.446h28.962c37.428,0,43.889-24.061,43.889-45.003
	C581.709,39.963,570.792,24.368,537.597,24.368z M538.934,94.546h-8.243V42.191h6.461c19.605,0,21.388,9.134,21.388,26.512
	C558.316,83.629,556.979,94.546,538.934,94.546z M646.762,24.145h20.942v58.147c0,26.066-20.051,31.636-35.646,31.636
	c-14.927,0-34.309-5.124-34.309-31.858V24.145h21.833v53.914c0,14.704,5.124,18.046,13.367,18.046c9.803,0,13.59-4.456,13.59-17.823
	L646.762,24.145z M491.035,53.776L491.035,53.776c0-16.932-9.134-29.631-33.641-29.631h-35.646v88.446h21.833V84.52h11.139
	l13.367,28.071h25.843l-17.155-32.304C486.133,75.163,491.035,66.029,491.035,53.776z M455.166,67.143h-11.585V42.191h11.139
	c10.248,0,12.922,4.01,12.922,11.808C467.642,63.801,462.741,67.143,455.166,67.143z M354.912,24.368l-27.626,88.446h22.279
	l4.456-18.046h25.398l4.901,18.046h23.17l-28.071-88.446H354.912z M358.254,77.614l8.02-32.304l8.689,32.304H358.254z"/>
</svg>
