<?xml version="1.0" encoding="UTF-8"?>
<svg width="160px" height="38px" viewBox="0 0 160 38" version="1.1" xmlns="http://www.w3.org/2000/svg" xmlns:xlink="http://www.w3.org/1999/xlink">
    <!-- Generator: Sketch 48.2 (47327) - http://www.bohemiancoding.com/sketch -->
    <title>hascicorp</title>
    <desc>Created with Sketch.</desc>
    <defs></defs>
    <g id="Page-1" stroke="none" stroke-width="1" fill="none" fill-rule="evenodd">
        <g id="hascicorp" fill="#0FA3B1" fill-rule="nonzero">
            <polygon id="Fill-1" points="54.377266 29.315012 54.377266 20.743693 46.8430695 20.743693 46.8430695 29.315012 43 29.315012 43 9 46.8430695 9 46.8430695 17.3579856 54.377266 17.3579856 54.377266 9 58.220719 9 58.220719 29.315012"></polygon>
            <path d="M68.6728441,23.644048 L65.9279041,23.644048 C64.7073765,23.644048 64.3720288,23.9793957 64.3720288,25.1078369 C64.3720288,26.1453429 64.7073765,26.602705 65.8668969,26.602705 C66.9650264,26.602705 67.9714532,26.2366619 68.6728441,25.840307 L68.6728441,23.644048 Z M72.394283,29.2563261 L69.3439233,29.2563261 L69.0695827,28.2498993 C67.7274245,29.1346954 66.1412374,29.5613621 64.646753,29.5613621 C61.931741,29.5613621 60.7726043,27.7008345 60.7726043,25.1385324 C60.7726043,22.1184844 62.0844508,20.9597314 65.1041151,20.9597314 L68.6728441,20.9597314 L68.6728441,19.4038561 C68.6728441,17.7566619 68.215482,17.1772854 65.8358177,17.1772854 C64.4940432,17.1772854 63.0298705,17.360307 61.7184077,17.6346475 L61.2610456,14.7980048 C62.6638273,14.3709544 64.7073765,14.0962302 66.3545707,14.0962302 C71.0218129,14.0962302 72.394283,15.7434245 72.394283,19.4648633 L72.394283,29.2563261 Z" id="Fill-2"></path>
            <path d="M79.5930935,29.5613237 C78.0069065,29.5613237 75.8413429,29.1952806 74.4688729,28.707223 L74.9872422,25.8705803 C76.2376978,26.2366235 77.8848921,26.5113477 79.4100719,26.5113477 C81.0572662,26.5113477 81.301295,26.1453046 81.301295,25.0164796 C81.301295,24.1017554 81.1182734,23.6440096 78.7082974,23.0642494 C75.0785612,22.1798369 74.6515108,21.264729 74.6515108,18.3973909 C74.6515108,15.4080384 75.9633573,14.0961918 80.2031655,14.0961918 C81.5756355,14.0961918 83.3751559,14.2792134 84.656307,14.6149448 L84.2906475,17.5739856 C83.1622062,17.3602686 81.3623022,17.1469353 80.2031655,17.1469353 C78.5866667,17.1469353 78.3119424,17.5129784 78.3119424,18.4277026 C78.3119424,19.6175348 78.4032614,19.7088537 80.4164988,20.2276067 C84.564988,21.3257362 84.9617266,21.874801 84.9617266,24.9251607 C84.9617266,27.7924988 84.0773141,29.5613237 79.5930935,29.5613237" id="Fill-4"></path>
            <path d="M96.0342254,29.2563261 L96.0342254,18.8854868 C96.0342254,18.0923933 95.6988777,17.6956547 94.8443933,17.6956547 C93.9296691,17.6956547 92.3131703,18.2451031 90.971012,18.946494 L90.971012,29.2563261 L87.2491894,29.2563261 L87.2491894,8.33124221 L90.971012,7.8128729 L90.971012,15.5300911 C92.6182062,14.6759904 94.8140815,14.0962302 96.4002686,14.0962302 C98.8712518,14.0962302 99.7556643,15.8351271 99.7556643,18.4891319 L99.7556643,29.2563261 L96.0342254,29.2563261 Z" id="Fill-6"></path>
            <path d="M102.501295,29.256211 L106.22235,29.256211 L106.22235,14.4011511 L102.501295,14.4011511 L102.501295,29.256211 Z M102.501295,12.2965947 L106.22235,12.2965947 L106.22235,7.99577938 L102.501295,7.99577938 L102.501295,12.2965947 Z" id="Fill-8"></path>
            <path d="M108.815233,14.5234724 C108.815233,10.8020336 110.980796,8.63647002 116.044393,8.63647002 C117.935616,8.63647002 119.887463,8.88011511 121.564969,9.30754916 L121.138302,12.6322494 C119.491108,12.3272134 117.569189,12.1134964 116.166408,12.1134964 C113.512403,12.1134964 112.658686,13.0286043 112.658686,15.1945516 L112.658686,23.0034724 C112.658686,25.169036 113.512403,26.0841439 116.166408,26.0841439 C117.569189,26.0841439 119.491108,25.8704269 121.138302,25.5653909 L121.564969,28.8900911 C119.887463,29.3175252 117.935616,29.5611703 116.044393,29.5611703 C110.980796,29.5611703 108.815233,27.3956067 108.815233,23.6745516 L108.815233,14.5234724 Z" id="Fill-10"></path>
            <path d="M129.191444,17.2689113 C127.208518,17.2689113 126.44612,18.1533237 126.44612,19.8312134 L126.44612,23.8269928 C126.44612,25.5044988 127.208518,26.389295 129.191444,26.389295 C131.173986,26.389295 131.936384,25.5044988 131.936384,23.8269928 L131.936384,19.8312134 C131.936384,18.1533237 131.173986,17.2689113 129.191444,17.2689113 M129.191444,29.5612854 C124.097535,29.5612854 122.724681,26.7553381 122.724681,23.7045947 L122.724681,19.9528441 C122.724681,16.9028681 124.097535,14.0961535 129.191444,14.0961535 C134.285353,14.0961535 135.658206,16.9028681 135.658206,19.9528441 L135.658206,23.7045947 C135.658206,26.7553381 134.285353,29.5612854 129.191444,29.5612854" id="Fill-11"></path>
            <path d="M145.541103,17.5128633 C144.107626,18.153247 142.948106,18.8243261 141.605947,19.6788106 L141.605947,29.2561727 L137.884892,29.2561727 L137.884892,14.4014964 L141.026571,14.4014964 L141.2706,16.0486906 C142.094388,15.4996259 143.863213,14.4625036 145.17506,14.0964604 L145.541103,17.5128633 Z" id="Fill-12"></path>
            <path d="M150.774523,25.9926715 C151.750638,26.2063885 153.001477,26.3890264 154.068911,26.3890264 C155.41107,26.3890264 155.929823,25.7486427 155.929823,24.4064844 L155.929823,19.1598657 C155.929823,17.9401055 155.472077,17.2690264 154.099607,17.2690264 C152.879079,17.2690264 151.567616,17.8790983 150.774523,18.610801 L150.774523,25.9926715 Z M159.650878,24.3147818 C159.650878,27.6091703 158.186705,29.5614005 154.73999,29.5614005 C153.428528,29.5614005 151.933659,29.3783789 150.774523,29.1343501 L150.774523,35.2653813 L147.053468,35.7841343 L147.053468,14.4013046 L150.012125,14.4013046 L150.378168,15.6521439 C151.689631,14.7063405 153.214811,14.0962686 155.075722,14.0962686 C158.064691,14.0962686 159.650878,15.8654772 159.650878,19.2515683 L159.650878,24.3147818 Z" id="Fill-13"></path>
            <polygon id="Fill-14" points="14.9445755 0.353803357 0.281745803 8.81270024 0.281745803 8.81960671 0.281745803 29.1303981 5.79081055 32.3108297 5.79081055 11.9931319 14.9445755 6.70852758"></polygon>
            <polygon id="Fill-15" points="20.7981583 0.353803357 20.7981583 16.5352902 14.9445372 16.5352902 14.9445372 10.4959616 9.43585612 13.6763933 9.43585612 34.4077122 14.9445372 37.5962014 14.9445372 21.4607578 20.7981583 21.4607578 20.7981583 27.4601823 26.3068393 24.2789832 26.3068393 3.53461871"></polygon>
            <polygon id="Fill-16" points="20.7981583 37.6020336 35.460988 29.1431367 35.460988 29.1366139 35.460988 8.82543885 29.9519233 5.6446235 29.9519233 25.9623213 20.7981583 31.2473094"></polygon>
        </g>
    </g>
</svg>