<?xml version="1.0" encoding="utf-8"?>
<!-- Generator: Adobe Illustrator 23.0.4, SVG Export Plug-In . SVG Version: 6.00 Build 0)  -->
<svg version="1.1" id="Layer_1" xmlns="http://www.w3.org/2000/svg" xmlns:xlink="http://www.w3.org/1999/xlink" x="0px" y="0px"
	 viewBox="0 0 251.626 63.374" style="enable-background:new 0 0 251.626 63.374;" xml:space="preserve">
<path style="fill:#0FA3B1;" d="M178.939,54.055h-8.071V50.7h-0.13c-1.001,1.549-4.414,3.821-8.574,3.821
	c-10.173,0-14.912-6.384-14.912-15.378c0-8.932,4.986-15.378,13.98-15.378c4.365,0,6.874,1.631,8.388,3.821V9.32h9.32V54.055z
	 M163,30.942c-4.274,0-6.802,3.521-6.802,8.432c0,4.919,2.527,7.97,6.802,7.97c4.347,0,6.992-3.051,6.992-7.97
	C169.992,34.463,167.289,30.942,163,30.942L163,30.942z M142.473,49.104c-2.384,3.029-7.057,5.417-13.86,5.417
	c-9.24,0-15.145-6.239-15.145-15.844c0-8.144,5.767-14.912,15.81-14.912c8.513,0,14.479,5.98,14.479,15.532
	c0,1.864-0.449,3.555-0.449,3.555h-21.305l0.075,0.432c0.71,2.324,3.01,4.712,6.902,4.712c3.45,0,6.511-1.748,7.801-3.327
	L142.473,49.104z M135.539,35.877c-0.345-3.072-3.061-5.588-6.447-5.588c-4.144,0-6.88,2.675-7.131,5.588H135.539z M83.878,9.32
	h9.32v27.087l10.358-12.175h11.284l-13.042,14.228l13.255,15.596h-10.798L93.197,40.278v13.776h-9.32V9.32z M48.463,24.231h8.071
	v4.179h0.13c1.256-2.388,5.102-4.645,9.693-4.645c9.56,0,11.929,5.417,11.929,13.592v16.697h-9.32V39.346
	c0-3.521-0.186-8.09-5.027-8.09c-4.904,0-6.157,4.127-6.157,8.09v14.708h-9.32V24.231z M38.211,9.553
	c2.831,0,5.359,2.529,5.359,5.359s-2.528,5.359-5.359,5.359c-2.829,0-5.359-2.529-5.359-5.359S35.381,9.553,38.211,9.553
	L38.211,9.553z M33.551,54.055h9.32V24.231h-9.32V54.055z M0,9.32h9.32v35.415h18.639v9.32H0V9.32z M246.407,0h-52.936
	c-2.87,0-5.219,2.33-5.219,5.219v52.936c0,2.889,2.349,5.219,5.219,5.219h52.936c2.889,0,5.219-2.33,5.219-5.219V5.219
	C251.626,2.33,249.296,0,246.407,0z M206.891,54.054h-9.32V24.231h9.32V54.054z M202.232,19.665c-3.131,0-5.685-2.554-5.685-5.685
	s2.554-5.685,5.685-5.685c3.15,0,5.685,2.554,5.685,5.685S205.382,19.665,202.232,19.665z M242.306,54.054h-9.32V39.106
	c0-4.94-0.969-7.642-4.567-7.642c-4.902,0-6.617,3.709-6.617,7.642v14.949h-9.32V24.231h8.854v4.455
	c1.193-2.386,4.66-4.921,9.227-4.921c8.761,0,11.743,3.97,11.743,13.364V54.054z M246.407,0h-52.936c-2.87,0-5.219,2.33-5.219,5.219
	v52.936c0,2.889,2.349,5.219,5.219,5.219h52.936c2.889,0,5.219-2.33,5.219-5.219V5.219C251.626,2.33,249.296,0,246.407,0z
	 M206.891,54.054h-9.32V24.231h9.32V54.054z M202.232,19.665c-3.131,0-5.685-2.554-5.685-5.685s2.554-5.685,5.685-5.685
	c3.15,0,5.685,2.554,5.685,5.685S205.382,19.665,202.232,19.665z M242.306,54.054h-9.32V39.106c0-4.94-0.969-7.642-4.567-7.642
	c-4.902,0-6.617,3.709-6.617,7.642v14.949h-9.32V24.231h8.854v4.455c1.193-2.386,4.66-4.921,9.227-4.921
	c8.761,0,11.743,3.97,11.743,13.364V54.054z"/>
</svg>
