<?xml version="1.0" encoding="utf-8"?>
<!-- Generator: Adobe Illustrator 23.0.2, SVG Export Plug-In . SVG Version: 6.00 Build 0)  -->
<svg version="1.1" id="Layer_1" xmlns:svg="http://www.w3.org/2000/svg"
	 xmlns="http://www.w3.org/2000/svg" xmlns:xlink="http://www.w3.org/1999/xlink" x="0px" y="0px" viewBox="0 0 200 72"
	 style="enable-background:new 0 0 200 72;" xml:space="preserve">
<path style="fill:#0FA3B1;" d="M23.73,70.591c-5.84-0.232-10.618-1.83-14.354-4.798c-0.713-0.567-2.412-2.267-2.982-2.984
	c-1.515-1.905-2.545-3.759-3.232-5.816c-2.114-6.332-1.026-14.641,3.112-23.76c3.543-7.807,9.01-15.55,18.548-26.274
	c1.405-1.578,5.589-6.193,5.616-6.193c0.01,0-0.218,0.395-0.505,0.876c-2.48,4.154-4.602,9.047-5.758,13.283
	c-1.857,6.797-1.633,12.63,0.656,17.153c1.579,3.116,4.286,5.815,7.33,7.307c5.329,2.611,13.131,2.827,22.659,0.632
	c0.656-0.152,33.162-8.781,72.236-19.176C166.13,10.445,198.105,1.946,198.11,1.953c0.011,0.009-90.78,38.859-137.911,59.014
	c-7.464,3.191-9.46,3.997-12.969,5.229C38.26,69.346,30.225,70.849,23.73,70.591z"/>
</svg>
